<?xml version="1.0" encoding="UTF-8"?><svg id="Layer_2" xmlns="http://www.w3.org/2000/svg" viewBox="0 0 609.7 608.2"><defs><style>.cls-1{fill:#fff;stroke-width:0px;}</style></defs><g id="Layer_1-2"><path class="cls-1" d="M487.7,286.1l17.8-61c-16.2-22.6-35.9-42-58.5-57.9l-12.4,48.3c22.9,18.8,41,42.9,53.1,70.6Z"/><path class="cls-1" d="M417.1,202.5l-19.4-61.4c-24.8-9.5-51.8-15.3-79.8-15.9l14.9,46.7c30.9,3.9,59.5,14.3,84.3,30.6Z"/><path class="cls-1" d="M291.2,172.6l14.9-47.1c-26.7.6-52.5,6-76.6,14.9l-20,61c24.5-15.2,52.2-25.6,81.7-28.8Z"/><path class="cls-1" d="M194.6,212.3l-12.1-48c-24.2,15.9-45.1,36.2-62.3,59.8l17.8,60.4c13-28.3,32.4-53.1,56.6-72.2Z"/><path class="cls-1" d="M312.5,106.4c27.3,0,53.4,4.5,78.2,12.4l-17.2-54.4c-19.7-4.1-40.1-6-61-6-19.7,0-39.1,1.9-57.9,5.7l-17.5,54c23.9-7.5,49.4-11.7,75.4-11.7Z"/><path class="cls-1" d="M177.7,145.2l-12.1-49c-25.1,14-48,31.2-68,51.2l16.2,54.4c17.8-22.6,39.8-41.3,63.9-56.6Z"/><path class="cls-1" d="M512.2,202.5l15.9-54.7c-18.8-19.1-40.4-35.3-63.9-48.6l-12.4,49c23.2,14.5,43.5,33,60.4,54.3Z"/><path class="cls-1" d="M531.3,137.9l15.3-51.8c-20.7-17.5-42.9-32.4-67.1-44.8l-12.4,48.6c23.2,13,44.8,29.3,64.2,48Z"/><path class="cls-1" d="M163.4,86.7l-12.1-48.3c-25.8,13-50.2,28.6-71.9,47.1l15.3,51.8c20.4-19.7,43.3-36.9,68.7-50.6Z"/><path class="cls-1" d="M312.5,48.9c19.7,0,39.1,1.9,57.9,5.4l-16.2-51.8c-13.7-1.6-27.3-2.5-41.3-2.5-12.7,0-25.4.6-37.8,1.9l-16.9,51.8c17.8-2.9,35.9-4.8,54.3-4.8Z"/><path class="cls-1" d="M342.4,202.5l17.5,54.4c40.4,18.1,68.7,58.5,68.7,105.6h36.9l7.9-27c-11.4-67.2-63.9-120.6-131-133Z"/><path class="cls-1" d="M197.1,362.4c0-46.4,27.7-86.5,67.1-104.9l17.5-55c-65.5,12.7-117,64.2-129.4,130l8.9,30.2,35.9-.3q0,.3,0,0Z"/><path class="cls-1" d="M0,427.6h17.5l11.4,46.4h.3l15.3-46.4h14.9l14.9,47.7h.3l12.1-47.7h16.2l-21.2,72.4h-14.3l-15.9-50.2h-.3l-15.9,50.2h-13.7L0,427.6Z"/><path class="cls-1" d="M129.1,427.6h49.3v14.6h-33.4v13.4h31.5v14.6h-31.5v14.6h35v14.6h-51.2v-71.9h.3v.1Z"/><path class="cls-1" d="M248.6,445.4c-2.5-3.2-7.6-4.8-11.4-4.8-4.5,0-10.8,1.9-10.8,7.3,0,13,33.4,4.8,33.4,30.2,0,16.2-13,23.8-28,23.8-9.2,0-17.5-2.9-24.5-9.2l11.4-12.4c3.2,4.5,8.6,7,14,7,5.1,0,11.1-2.5,11.1-7.6,0-13.4-34-6-34-30.2,0-15.6,13.4-23.5,27.7-23.5,8.3,0,15.9,2.2,22.3,7.6l-11.2,11.8Z"/><path class="cls-1" d="M305.9,441.5h-20.7v-14h57.2v14h-20.7v58.2h-15.8v-58.2Z"/><path class="cls-1" d="M370.7,427.6h49.3v14.6h-33.4v13.4h31.5v14.6h-31.5v14.6h35v14.6h-51.2v-71.9h.3v.1Z"/><path class="cls-1" d="M454.6,427.6h28c14.9,0,27.3,5.1,27.3,21.9,0,10.2-5.4,18.1-15.6,19.7l18.4,30.5h-19.1l-15.3-28.9h-7.9v28.9h-15.9v-72.1h.1ZM470.5,457.4h9.5c5.7,0,13.4-.3,13.4-7.9s-6.7-8.3-12.4-8.3h-10.5v16.2h0Z"/><path class="cls-1" d="M541.1,427.6h21.6l30.8,50.2h.3v-50.2h15.9v72.4h-21l-31.5-51.5h-.3v51.5h-15.9v-72.4h.1Z"/><path class="cls-1" d="M144.7,535.7h13l31.5,72.5h-17.8l-6.4-15.3h-28l-6,15.3h-17.5l31.2-72.5ZM150.7,556.6l-8.9,22.6h17.8l-8.9-22.6Z"/><path class="cls-1" d="M215.9,535.7h15.9v57.5h29.6v14.6h-45.5v-72.1Z"/><path class="cls-1" d="M290,535.7h49.3v14.6h-33.4v13.4h31.5v14.6h-31.5v14.6h35v14.6h-51.2v-71.9h.3v.1Z"/><path class="cls-1" d="M373.9,535.7h28c14.9,0,27.3,5.1,27.3,21.9,0,10.2-5.4,18.1-15.6,19.7l18.4,30.5h-19.1l-15.3-28.9h-7.9v28.9h-15.8v-72.1ZM389.8,565.5h9.5c5.7,0,13.4-.3,13.4-7.9s-6.7-8.3-12.4-8.3h-10.5v16.2h0Z"/><path class="cls-1" d="M475.3,549.6h-20.7v-14h57.3v14h-20.7v58.2h-15.9v-58.2Z"/></g></svg>