<?xml version="1.0" encoding="UTF-8"?><svg id="Layer_2" xmlns="http://www.w3.org/2000/svg" viewBox="0 0 92.57 102.86"><defs><style>.cls-1{fill:#fff;stroke-width:0px;}</style></defs><g id="Layer_1-2"><polygon id="christmas-snowflake-icon" class="cls-1" points="92.57 74 75.71 64.29 92 60 90 53.14 66.86 59.14 53.43 51.43 67.14 43.43 90 49.71 92 42.86 75.71 38.57 92.57 28.86 89.14 22.57 72.29 32.29 76.57 16.29 69.71 14.29 63.43 37.43 49.71 45.14 49.71 29.43 66.57 12.57 61.71 7.71 49.71 19.43 49.71 0 42.86 0 42.86 19.43 30.86 7.71 26 12.57 42.86 29.43 42.86 45.14 29.14 37.43 22.86 14.29 16 16.29 20.29 32.29 3.43 22.57 0 28.86 16.86 38.57 .57 42.86 2.57 49.71 25.71 43.71 39.14 51.43 25.43 59.43 2.57 53.14 .57 60 16.86 64.29 0 74 3.43 80.29 20.29 70.57 16 86.57 22.86 88.57 29.14 65.43 42.86 57.71 42.86 73.43 26 90.29 30.86 95.14 42.86 83.43 42.86 102.86 49.71 102.86 49.71 83.43 61.71 95.14 66.57 90.29 49.71 73.43 49.71 57.71 63.43 65.43 69.71 88.57 76.57 86.57 72.29 70.57 89.14 80.29 92.57 74"/></g></svg>