<svg xmlns="http://www.w3.org/2000/svg" viewBox="0 0 36 36" aria-labelledby="instagram-icon" role="img">
  <title id="instagram-icon">WWU on Instagram</title>
  <path d="M0,0V36H36V0ZM31.29,23.51a9.82,9.82,0,0,1-.62,3.25,6.84,6.84,0,0,1-3.91,3.91,9.82,9.82,0,0,1-3.25.62c-1.43.07-1.88.08-5.51.08s-4.09,0-5.51-.08a9.82,9.82,0,0,1-3.25-.62,6.84,6.84,0,0,1-3.91-3.91,9.82,9.82,0,0,1-.62-3.25c-.07-1.43-.08-1.88-.08-5.51s0-4.09.08-5.51a9.82,9.82,0,0,1,.62-3.25A6.84,6.84,0,0,1,9.24,5.33a9.82,9.82,0,0,1,3.25-.62c1.43-.07,1.88-.08,5.51-.08s4.09,0,5.51.08a9.82,9.82,0,0,1,3.25.62,6.84,6.84,0,0,1,3.91,3.91,9.82,9.82,0,0,1,.62,3.25c.07,1.43.08,1.88.08,5.51S31.36,22.09,31.29,23.51Z"/>
  <path d="M28.43,10.11a4.43,4.43,0,0,0-2.54-2.54,7.4,7.4,0,0,0-2.48-.46C22,7,21.57,7,18,7s-4,0-5.4.08a7.4,7.4,0,0,0-2.48.46,4.43,4.43,0,0,0-2.54,2.54,7.4,7.4,0,0,0-.46,2.48C7,14,7,14.43,7,18s0,4,.08,5.4a7.4,7.4,0,0,0,.46,2.48,4.43,4.43,0,0,0,2.54,2.54,7.4,7.4,0,0,0,2.48.46C14,29,14.43,29,18,29s4,0,5.4-.08a7.4,7.4,0,0,0,2.48-.46,4.43,4.43,0,0,0,2.54-2.54,7.41,7.41,0,0,0,.46-2.48C29,22,29,21.57,29,18s0-4-.08-5.4A7.4,7.4,0,0,0,28.43,10.11ZM18,24.87A6.87,6.87,0,1,1,24.87,18,6.87,6.87,0,0,1,18,24.87Zm7.14-12.4a1.6,1.6,0,1,1,1.6-1.6A1.6,1.6,0,0,1,25.14,12.47Z"/>
  <circle cx="18" cy="18" r="4.46"/>
</svg>
