<svg xmlns="http://www.w3.org/2000/svg" viewBox="0 0 36 36" aria-labelledby="title" role="img">
  <title>Twitter</title>
  <path d="M36,0H0V36H36ZM26.95,13.41q0,.3,0,.6A13.13,13.13,0,0,1,6.75,25.07a9.4,9.4,0,0,0,1.1.06,9.26,9.26,0,0,0,5.73-2A4.62,4.62,0,0,1,9.27,20a4.61,4.61,0,0,0,2.08-.08,4.62,4.62,0,0,1-3.7-4.53s0,0,0-.06a4.58,4.58,0,0,0,2.09.58A4.62,4.62,0,0,1,8.32,9.7a13.11,13.11,0,0,0,9.51,4.82,4.62,4.62,0,0,1,7.87-4.21,9.25,9.25,0,0,0,2.93-1.12,4.63,4.63,0,0,1-2,2.55A9.21,9.21,0,0,0,29.25,11,9.39,9.39,0,0,1,26.95,13.41Z"/>
</svg>
