<svg xmlns="http://www.w3.org/2000/svg" viewBox="0 0 36 36" aria-labelledby="title" role="img">
  <title>WWU Social</title>
  <polygon points="17.48 0 15.37 12 22.64 12 23.58 6.69 20.06 9.28 20.69 5.66 25.69 2.14 29.2 7.12 28.57 10.71 26.09 7.13 25.23 12 36 12 36 0 17.48 0"/>
  <polygon points="12.34 15 7.1 15 10.15 18 6.47 18 2.15 13.5 6.47 9 10.15 9 7.1 12 12.78 12 14.88 0 0 0 0 21 11.22 21 12.34 15"/>
  <polygon points="23.66 21 28.89 21 25.84 18 29.51 18 33.83 22.5 29.51 27 25.84 27 28.89 24 23.22 24 21.12 36 36 36 36 15 24.79 15 23.66 21"/>
  <polygon points="12.42 29.31 15.94 26.72 15.32 30.34 10.32 33.86 6.8 28.88 7.43 25.29 9.91 28.87 10.77 24 0 24 0 36 18.53 36 20.63 24 13.36 24 12.42 29.31"/>
  <polygon points="14.93 15 13.8 21 21.07 21 22.2 15 14.93 15"/>
</svg>
