<?xml version="1.0" encoding="utf-8"?>
<!-- Generator: Adobe Illustrator 23.0.0, SVG Export Plug-In . SVG Version: 6.00 Build 0)  -->
<svg version="1.1" id="Layer_2" xmlns="http://www.w3.org/2000/svg" xmlns:xlink="http://www.w3.org/1999/xlink" x="0px" y="0px"
	 viewBox="0 0 36 36" style="enable-background:new 0 0 36 36;" xml:space="preserve">
<path d="M15.4,12h7.3l0.9-5.3l-3.5,2.6l0.6-3.6l5-3.5l3.5,5l-0.6,3.6l-2.5-3.6L25.2,12H36v3H24.8l-1.1,6h5.2l-3-3h3.7l4.3,4.5
	L29.5,27h-3.7l3-3h-5.7l-2.1,12h-2.6l2.1-12h-7.3l-0.9,5.3l3.5-2.6l-0.6,3.6l-5,3.5l-3.5-5l0.6-3.6l2.5,3.6l0.9-4.9H0v-3h11.2l1.1-6
	H7.1l3,3H6.5l-4.3-4.5L6.5,9h3.7l-3,3h5.7l2.1-12h2.6L15.4,12z M14.9,15l-1.1,6h7.3l1.1-6H14.9z"/>
</svg>
