<svg xmlns="http://www.w3.org/2000/svg" viewBox="0 0 36 36" aria-labelledby="title" role="img">
  <title>WWU Social</title>
  <path d="M34,0H17.48L15.37,12h7.27l.94-5.31L20.06,9.28l.63-3.62,5-3.53,3.52,5-.63,3.59L26.09,7.13,25.23,12H36V2A2,2,0,0,0,34,0Z"/>
  <path d="M12.34,15H7.1l3,3H6.47L2.15,13.5,6.47,9h3.67l-3,3h5.69l2.1-12H2A2,2,0,0,0,0,2V21H11.22Z"/>
  <path d="M23.66,21h5.22l-3.05-3h3.67l4.32,4.5L29.51,27H25.84l3.05-3H23.22l-2.1,12H34a2,2,0,0,0,2-2V15H24.78Z"/>
  <path d="M12.42,29.31l3.53-2.59-.63,3.62-5,3.53-3.52-5,.63-3.59,2.48,3.58L10.77,24H0V34a2,2,0,0,0,2,2H18.53l2.1-12H13.36Z"/>
  <polygon points="14.93 15 13.8 21 21.07 21 22.2 15 14.93 15"/>
</svg>
