<svg xmlns="http://www.w3.org/2000/svg" viewBox="0 0 36 36" aria-labelledby="youtube-icon" role="img">
  <title id="youtube-icon">YouTube</title>
  <polygon points="15.55 21.56 21.81 18 15.55 14.44 15.55 21.56"/>
  <path d="M0,0V36H36V0ZM29.47,23.8a3,3,0,0,1-2.12,2.13c-1.87.5-9.35.5-9.35.5s-7.49,0-9.35-.5A3,3,0,0,1,6.53,23.8,31.56,31.56,0,0,1,6,18a31.56,31.56,0,0,1,.5-5.8,3,3,0,0,1,2.12-2.13c1.87-.5,9.35-.5,9.35-.5s7.49,0,9.35.5a3,3,0,0,1,2.12,2.13A31.55,31.55,0,0,1,30,18,31.55,31.55,0,0,1,29.47,23.8Z"/>
</svg>
