<svg id="icon" xmlns="http://www.w3.org/2000/svg" xmlns:xlink="http://www.w3.org/1999/xlink" viewBox="0 0 512 512"><defs><clipPath id="clip-path"><circle cx="255.42" cy="142.36" r="86.55" style="fill:none"/></clipPath><clipPath id="clip-path-2"><circle cx="132" cy="260.18" r="58.84" style="fill:none"/></clipPath><clipPath id="clip-path-3"><circle cx="380" cy="260.18" r="58.84" style="fill:none"/></clipPath></defs><circle cx="256" cy="256" r="234.67" style="fill:#005696"/><g style="clip-path:url(#clip-path)"><path d="M332.73,192.9a93.22,93.22,0,0,1-20.64,22.22l-5.77,4.12a92.67,92.67,0,0,1-101.8,0l-5.77-4.12a93.22,93.22,0,0,1-20.64-22.22l25.67-25.48a24.72,24.72,0,0,1,12.27-6.67,96.74,96.74,0,0,1,16.68-2h5.58a44.51,44.51,0,0,1,14.53-85.41c.78-.06,1.55-.09,2.33-.09h.51c.78,0,1.54,0,2.32.09a44.51,44.51,0,0,1,14.53,85.41h5.58a96.73,96.73,0,0,1,16.69,2,24.65,24.65,0,0,1,12.26,6.67Z" style="fill:#fff"/></g><circle cx="255.42" cy="142.36" r="88.97" style="fill:none;stroke:#c1d730;stroke-miterlimit:10;stroke-width:7px"/><g style="clip-path:url(#clip-path-2)"><path d="M184.56,294.54a63.37,63.37,0,0,1-14,15.1l-3.92,2.81a63,63,0,0,1-69.21,0l-3.92-2.81a63.41,63.41,0,0,1-14-15.1l17.45-17.32a16.89,16.89,0,0,1,8.34-4.54,66.47,66.47,0,0,1,11.35-1.36h3.79a30.27,30.27,0,0,1,9.88-58.07c.53,0,1.05-.06,1.59-.06h.34c.53,0,1,0,1.58.06a30.27,30.27,0,0,1,9.88,58.07h3.79a66.26,66.26,0,0,1,11.34,1.36,16.8,16.8,0,0,1,8.34,4.54Z" style="fill:#fff"/></g><circle cx="132" cy="260.18" r="60.48" style="fill:none;stroke:#c1d730;stroke-miterlimit:10;stroke-width:7px"/><g style="clip-path:url(#clip-path-3)"><path d="M432.56,294.54a63.41,63.41,0,0,1-14,15.1l-3.92,2.81a63,63,0,0,1-69.21,0l-3.92-2.81a63.37,63.37,0,0,1-14-15.1l17.45-17.32a16.84,16.84,0,0,1,8.34-4.54,66.37,66.37,0,0,1,11.34-1.36h3.79a30.27,30.27,0,0,1,9.88-58.07q.79-.06,1.59-.06h.34c.53,0,1.05,0,1.58.06a30.27,30.27,0,0,1,9.88,58.07h3.79a66.47,66.47,0,0,1,11.35,1.36,16.84,16.84,0,0,1,8.34,4.54Z" style="fill:#fff"/></g><circle cx="380" cy="260.18" r="60.48" style="fill:none;stroke:#c1d730;stroke-miterlimit:10;stroke-width:7px"/><path d="M248.68,456.08l-35.29-24.49c-43.08-29.91-70.14-78.37-71.36-130.8,0-1.29,0-2.58,0-3.87V258.64a14.16,14.16,0,0,1,8.47-13l100.62-44.18a14.22,14.22,0,0,1,11.47,0l99.06,44.13a14.17,14.17,0,0,1,8.4,12.94v39.05c0,1.28,0,2.56,0,3.84-1.2,52-27.84,100.16-70.38,130.12L264.92,456A14.17,14.17,0,0,1,248.68,456.08Z" style="fill:#c1d730;stroke:#005696;stroke-miterlimit:10;stroke-width:8.02454001416715px"/><rect x="201.11" y="295.06" width="109.79" height="81.56" rx="20.02" style="fill:#005696"/><path d="M256,253.79a22.87,22.87,0,0,1,22.84,22.84v48.42a22.84,22.84,0,0,1-45.68,0V276.63A22.87,22.87,0,0,1,256,253.79M256,237a39.6,39.6,0,0,0-39.6,39.6v48.42a39.6,39.6,0,0,0,79.2,0V276.63A39.6,39.6,0,0,0,256,237Z" style="fill:#005696"/><path d="M264.49,349.26a3.53,3.53,0,0,1-3.42,4.43h-11.3a3.51,3.51,0,0,1-3.4-4.43l3.86-14.58a9.39,9.39,0,1,1,10.4,0Z" style="fill:#fff"/><path d="M219.64,397l-4.67.76,3.35,3.38-3.65,2.65-2.19-4.21-2.18,4.24-3.65-2.65,3.32-3.38L205.3,397l1.35-4.18,4.24,2.06-.66-4.74h4.51l-.7,4.77,4.21-2.12Z" style="fill:#005696"/><path d="M241.41,397l-4.67.76,3.34,3.38-3.64,2.65-2.19-4.21-2.19,4.24-3.64-2.65,3.31-3.38-4.67-.79,1.36-4.18,4.24,2.06-.66-4.74h4.5l-.69,4.77,4.21-2.12Z" style="fill:#005696"/><path d="M263.17,397l-4.67.76,3.35,3.38-3.65,2.65L256,399.61l-2.19,4.24-3.64-2.65,3.31-3.38-4.67-.79,1.36-4.18,4.24,2.06-.67-4.74h4.51l-.7,4.77,4.21-2.12Z" style="fill:#005696"/><path d="M284.94,397l-4.67.76,3.34,3.38L280,403.82l-2.19-4.21-2.18,4.24L272,401.2l3.31-3.38-4.67-.79,1.36-4.18,4.24,2.06-.66-4.74H280l-.7,4.77,4.21-2.12Z" style="fill:#005696"/><path d="M306.7,397l-4.67.76,3.35,3.38-3.64,2.65-2.19-4.21-2.19,4.24-3.64-2.65,3.31-3.38-4.67-.79,1.36-4.18,4.24,2.06-.66-4.74h4.5l-.69,4.77,4.2-2.12Z" style="fill:#005696"/></svg>