<svg id="icon" xmlns="http://www.w3.org/2000/svg" xmlns:xlink="http://www.w3.org/1999/xlink" viewBox="0 0 512 512"><defs><clipPath id="clip-path"><circle cx="254.85" cy="142.36" r="86.55" style="fill:none"/></clipPath><clipPath id="clip-path-2"><circle cx="131.43" cy="260.18" r="58.84" style="fill:none"/></clipPath><clipPath id="clip-path-3"><circle cx="379.42" cy="260.18" r="58.84" style="fill:none"/></clipPath></defs><path d="M255.43,487.17A231.17,231.17,0,0,1,92,92.54,231.17,231.17,0,0,1,418.89,419.46,229.67,229.67,0,0,1,255.43,487.17Z" style="fill:#fff"/><path d="M255.43,28.33A227.73,227.73,0,0,1,344,465.78,227.73,227.73,0,0,1,166.81,46.22a226.27,226.27,0,0,1,88.62-17.89m0-7C125.83,21.33,20.76,126.4,20.76,256S125.83,490.67,255.43,490.67,490.09,385.6,490.09,256,385,21.33,255.43,21.33Z" style="fill:#005696"/><g style="clip-path:url(#clip-path)"><path d="M255.1,79.82c.75,0,1.47,0,2.22.08a42.7,42.7,0,0,1,13.94,81.93h5.35a92.67,92.67,0,0,1,16,1.93,23.63,23.63,0,0,1,11.76,6.4L329,194.6a89.56,89.56,0,0,1-19.8,21.3l-5.54,4a88.87,88.87,0,0,1-97.64,0l-5.54-4a89.35,89.35,0,0,1-19.8-21.3l24.62-24.44a23.7,23.7,0,0,1,11.77-6.4,92.68,92.68,0,0,1,16-1.93h5.36A42.7,42.7,0,0,1,252.37,79.9c.75-.06,1.49-.08,2.24-.08h.49m0-6.71h-.49c-1,0-1.84,0-2.7.09a49.41,49.41,0,0,0-32.66,83.31c-1.22.21-2.42.43-3.57.68a30.39,30.39,0,0,0-15.09,8.2L176,189.83l-3.91,3.88,3,4.6a95.77,95.77,0,0,0,21.28,22.9l.1.08.11.08,5.53,4,.11.07.1.07a95.63,95.63,0,0,0,105,0l.11-.07.1-.07,5.54-4,.11-.08.1-.08a95.77,95.77,0,0,0,21.28-22.9l3-4.6-3.91-3.88-24.63-24.44a30.29,30.29,0,0,0-15.1-8.2c-1.15-.25-2.35-.47-3.56-.68A49.41,49.41,0,0,0,257.74,73.2c-.75,0-1.65-.09-2.64-.09Z" style="fill:#005696"/></g><circle cx="254.85" cy="142.36" r="88.97" style="fill:none;stroke:#005696;stroke-miterlimit:10;stroke-width:7px"/><g style="clip-path:url(#clip-path-2)"><path d="M131.6,219.82c.5,0,1,0,1.48.05a28.44,28.44,0,0,1,9.28,54.56h3.56a62.09,62.09,0,0,1,10.66,1.28,15.78,15.78,0,0,1,7.84,4.27l16.39,16.27a59.5,59.5,0,0,1-13.18,14.19l-3.69,2.63a59.18,59.18,0,0,1-65,0l-3.69-2.63a59.71,59.71,0,0,1-13.18-14.19L98.45,280a15.75,15.75,0,0,1,7.83-4.27,62.2,62.2,0,0,1,10.66-1.28h3.56a28.44,28.44,0,0,1,9.28-54.56c.5,0,1-.05,1.49-.05h.33m0-6.58h-.33c-.68,0-1.32,0-1.94.07a35,35,0,0,0-25.51,56.23,22.46,22.46,0,0,0-10,5.76l-16.4,16.28-3.83,3.8,3,4.5a66.1,66.1,0,0,0,14.64,15.76l.1.08.1.07,3.69,2.63.1.08.1.06a65.73,65.73,0,0,0,72.26,0l.1-.06.1-.08,3.69-2.63.1-.07.1-.08a66.1,66.1,0,0,0,14.64-15.76l3-4.5-3.84-3.8-16.39-16.27a22.37,22.37,0,0,0-10-5.77,35,35,0,0,0-25.57-56.23c-.53,0-1.17-.07-1.88-.07Z" style="fill:#005696"/></g><circle cx="131.43" cy="260.18" r="60.48" style="fill:none;stroke:#005696;stroke-miterlimit:10;stroke-width:7px"/><g style="clip-path:url(#clip-path-3)"><path d="M379.59,219.82c.5,0,1,0,1.48.05a28.44,28.44,0,0,1,9.28,54.56h3.57a62,62,0,0,1,10.65,1.28,15.74,15.74,0,0,1,7.84,4.27l16.4,16.27a59.75,59.75,0,0,1-13.19,14.19l-3.69,2.63a59.16,59.16,0,0,1-65,0l-3.69-2.63A59.75,59.75,0,0,1,330,296.25L346.44,280a15.78,15.78,0,0,1,7.84-4.27,62.1,62.1,0,0,1,10.65-1.28h3.57a28.44,28.44,0,0,1,9.28-54.56c.5,0,1-.05,1.49-.05h.32m0-6.58h-.32c-.69,0-1.32,0-1.95.07a35,35,0,0,0-25.51,56.23,22.46,22.46,0,0,0-10,5.76l-16.4,16.28-3.83,3.8,3,4.5a66.11,66.11,0,0,0,14.64,15.76l.1.08.1.07,3.69,2.63.1.08.11.06a65.72,65.72,0,0,0,72.25,0l.11-.06.1-.08,3.69-2.63.1-.07.1-.08a66.3,66.3,0,0,0,14.64-15.76l3-4.5-3.83-3.8L417,275.31a22.27,22.27,0,0,0-10-5.77,35,35,0,0,0-25.56-56.23c-.53,0-1.17-.07-1.89-.07Z" style="fill:#005696"/></g><circle cx="379.42" cy="260.18" r="60.48" style="fill:none;stroke:#005696;stroke-miterlimit:10;stroke-width:7px"/><path d="M256.19,455.11a10.62,10.62,0,0,1-6.09-1.91l-35.29-24.49c-42.56-29.54-68.67-77.39-69.85-128,0-1.26,0-2.52,0-3.79V258.64a10.66,10.66,0,0,1,6.38-9.77l100.62-44.18a10.56,10.56,0,0,1,4.29-.91,10.68,10.68,0,0,1,4.34.93l99.06,44.13a10.68,10.68,0,0,1,6.33,9.74v39.06c0,1.25,0,2.5,0,3.74C364.74,351.55,339,399.15,297,428.73l-34.68,24.43A10.54,10.54,0,0,1,256.19,455.11Z" style="fill:#fff"/><path d="M256.21,207.29a7,7,0,0,1,2.92.62L358.18,252a7.17,7.17,0,0,1,4.26,6.55v39.05c0,1.22,0,2.46,0,3.67a154.83,154.83,0,0,1-18.84,70.15A161.31,161.31,0,0,1,295,425.87L260.32,450.3a7.17,7.17,0,0,1-8.22,0l-35.29-24.49c-41.65-28.91-67.2-75.72-68.35-125.21,0-1.23,0-2.48,0-3.71V258.64a7.16,7.16,0,0,1,4.29-6.57l100.61-44.18a7.2,7.2,0,0,1,2.89-.6m0-7a14.14,14.14,0,0,0-5.7,1.19L149.89,245.66a14.16,14.16,0,0,0-8.47,13v38.28c0,1.29,0,2.58,0,3.87,1.22,52.43,28.27,100.89,71.36,130.8l35.29,24.49a14.16,14.16,0,0,0,16.24-.06L299,431.59c42.54-30,69.18-78.11,70.37-130.12,0-1.28.05-2.56.05-3.84V258.58A14.16,14.16,0,0,0,361,245.64L262,201.51a14.09,14.09,0,0,0-5.76-1.22Z" style="fill:#005696"/><path d="M290.31,302.06a13,13,0,0,1,13,13V356.6a13,13,0,0,1-13,13H220.55a13,13,0,0,1-13-13V315.08a13,13,0,0,1,13-13h69.76m0-7H220.55a20,20,0,0,0-20,20V356.6a20,20,0,0,0,20,20h69.76a20,20,0,0,0,20-20V315.08a20,20,0,0,0-20-20Z" style="fill:#005696"/><path d="M255.43,244a32.64,32.64,0,0,1,32.6,32.6v17h-65.2v-17a32.63,32.63,0,0,1,32.6-32.6m0-7a39.6,39.6,0,0,0-39.6,39.6v24H295v-24a39.6,39.6,0,0,0-39.6-39.6Z" style="fill:#005696"/><path d="M255.43,260.74a16,16,0,0,1,16,16v16.91h-32V276.76a16,16,0,0,1,16-16m0-7a23,23,0,0,0-23,23v23.91h46V276.76a23,23,0,0,0-23-23Z" style="fill:#005696"/><path d="M263.92,349.26a3.54,3.54,0,0,1-3.42,4.43H249.2a3.52,3.52,0,0,1-3.41-4.43l3.87-14.58a9.39,9.39,0,1,1,10.4,0Z" style="fill:none;stroke:#005696;stroke-linejoin:round;stroke-width:7px"/><path d="M219.07,397l-4.67.76,3.34,3.38-3.64,2.65-2.19-4.21-2.18,4.24-3.65-2.65,3.31-3.38-4.67-.79,1.36-4.18,4.24,2.06-.66-4.74h4.51l-.7,4.77,4.21-2.12Z" style="fill:#005696"/><path d="M240.83,397l-4.67.76,3.35,3.38-3.64,2.65-2.19-4.21-2.19,4.24-3.64-2.65,3.31-3.38-4.67-.79,1.36-4.18,4.24,2.06-.66-4.74h4.5l-.69,4.77,4.2-2.12Z" style="fill:#005696"/><path d="M262.6,397l-4.67.76,3.35,3.38-3.65,2.65-2.19-4.21-2.18,4.24-3.65-2.65,3.32-3.38-4.67-.79,1.35-4.18,4.24,2.06-.66-4.74h4.51l-.7,4.77,4.21-2.12Z" style="fill:#005696"/><path d="M284.37,397l-4.67.76,3.34,3.38-3.64,2.65-2.19-4.21L275,403.85l-3.64-2.65,3.31-3.38L270,397l1.36-4.18,4.24,2.06-.66-4.74h4.5l-.69,4.77,4.21-2.12Z" style="fill:#005696"/><path d="M306.13,397l-4.67.76,3.35,3.38-3.65,2.65L299,399.61l-2.19,4.24-3.64-2.65,3.31-3.38-4.67-.79,1.36-4.18,4.24,2.06-.67-4.74h4.51l-.7,4.77,4.21-2.12Z" style="fill:#005696"/></svg>