<svg id="icon" xmlns="http://www.w3.org/2000/svg" viewBox="0 0 512 512"><path d="M256,487.17A231.17,231.17,0,0,1,92.54,92.54,231.17,231.17,0,1,1,419.46,419.46,229.66,229.66,0,0,1,256,487.17Z" style="fill:#fff"/><path d="M256,28.33a227.74,227.74,0,0,1,88.62,437.45A227.73,227.73,0,0,1,167.38,46.22,226.27,226.27,0,0,1,256,28.33m0-7C126.4,21.33,21.33,126.4,21.33,256S126.4,490.67,256,490.67,490.67,385.6,490.67,256,385.6,21.33,256,21.33Z" style="fill:#005596"/><path d="M252.53,138.24v40.89c-.47,30.76-25.54,69-56.41,69s-55.87-38.18-56.4-68.88v-41l1.33-1a92.25,92.25,0,0,1,110.14,0C251.63,137.56,252.09,137.9,252.53,138.24Z" style="fill:#fff;stroke:#005596;stroke-miterlimit:10;stroke-width:7px"/><path d="M222.61,212A27.09,27.09,0,0,0,169,217.61v.06a2,2,0,0,0,3.63,1.24,29.92,29.92,0,0,1,46.92,0,2,2,0,0,0,3.63-1.28A27,27,0,0,0,222.61,212Z" style="fill:#fff;stroke:#005596;stroke-linecap:round;stroke-linejoin:round;stroke-width:4px"/><path d="M209.47,154.67a13.06,13.06,0,0,0,25.59,4.45v0a1,1,0,0,0-1.52-1.05,14.43,14.43,0,0,1-21.76-6.18,1,1,0,0,0-1.85.12A12.93,12.93,0,0,0,209.47,154.67Z" style="fill:#fff;stroke:#005596;stroke-linecap:round;stroke-linejoin:round;stroke-width:4px"/><path d="M184.33,154.67a13.06,13.06,0,0,1-25.59,4.45v0a1,1,0,0,1,1.52-1.05A14.43,14.43,0,0,0,182,151.86a1,1,0,0,1,1.85.12A12.93,12.93,0,0,1,184.33,154.67Z" style="fill:#fff;stroke:#005596;stroke-linecap:round;stroke-linejoin:round;stroke-width:4px"/><path d="M135.67,305.11c-32.47,0-59.32-39.56-59.89-72.32,0-.27,0-35.69,0-56.77a5.64,5.64,0,0,1,8.89-4.6c14,9.88,31.2,14.89,51,14.89s37-5,51-14.89a5.63,5.63,0,0,1,8.9,4.6v56.59C195.08,265.48,168.25,305.11,135.67,305.11Z" style="fill:#fff"/><path d="M189.94,173.88a2.13,2.13,0,0,1,2.15,2.14c0,14.24,0,56.34,0,56.59-.47,30.74-25.54,69-56.41,69s-55.85-38.18-56.39-68.88c0-.27,0-42.44,0-56.71a2.13,2.13,0,0,1,2.14-2.13,2.1,2.1,0,0,1,1.24.4c15,10.55,33.29,15.52,53,15.52s38-5,53-15.53a2.1,2.1,0,0,1,1.24-.4m0-7a9.16,9.16,0,0,0-5.27,1.67c-13.43,9.46-29.92,14.26-49,14.26s-35.56-4.8-49-14.25A9.13,9.13,0,0,0,72.27,176c0,50.24,0,56,0,56.84h0c.29,16.69,7.12,35.4,18.27,50.06,12.6,16.57,28.62,25.69,45.12,25.69s32.57-9.14,45.18-25.74c11.16-14.69,18-33.44,18.22-50.15V176a9.13,9.13,0,0,0-9.15-9.14Z" style="fill:#005596"/><path d="M162.17,258.21a27.09,27.09,0,0,1-53.58-5.65v-.06a2,2,0,0,1,3.63-1.24,29.91,29.91,0,0,0,46.91,0,2,2,0,0,1,3.64,1.27A27.61,27.61,0,0,1,162.17,258.21Z" style="fill:#fff;stroke:#005596;stroke-linecap:round;stroke-linejoin:round;stroke-width:4px"/><path d="M98.18,221A13.06,13.06,0,0,1,124,223.68v0a1,1,0,0,1-1.75.6,14.43,14.43,0,0,0-22.62,0,1,1,0,0,1-1.75-.62A12.76,12.76,0,0,1,98.18,221Z" style="fill:#fff;stroke:#005596;stroke-linecap:round;stroke-linejoin:round;stroke-width:4px"/><path d="M147.63,221a13.06,13.06,0,0,1,25.83,2.72v0a1,1,0,0,1-1.75.6,14.43,14.43,0,0,0-22.62,0,1,1,0,0,1-1.75-.62A12.76,12.76,0,0,1,147.63,221Z" style="fill:#fff;stroke:#005596;stroke-linecap:round;stroke-linejoin:round;stroke-width:4px"/><path d="M365.9,237.79c3.44-2.09,10.15-2,15.17.21s6.67,6,3.21,8.25-10.68,2.15-15.8-.3S362.42,239.92,365.9,237.79ZM324,323.9c-5.27,3.87-14.27,3.18-19.81-1.46-5.34-4.48-5.29-10.87-.15-14.32s13.35-2.89,18.82,1.2C328.54,313.56,329.18,320.11,324,323.9Zm42.64-1.15c-4.89,3.93-14.29,3.23-20.71-1.47-6.17-4.52-7.05-11-2.24-14.47s13.38-2.92,19.62,1.21C369.81,312.29,371.44,318.92,366.65,322.75Zm24-68.48c3.55-2.42,11-2.25,16.85.42,6,2.74,8.25,7.14,4.7,9.79s-11.61,2.43-17.64-.54C388.71,261.05,387.07,256.74,390.66,254.27Zm12.49,57.41c-4.39,3.71-13.85,3.1-20.8-1.3-6.69-4.23-8.34-10.32-4-13.64s13-2.82,19.68,1C405,301.79,407.44,308,403.15,311.68Zm16.61-22.23c-3.93,3.24-12.83,2.8-19.59-.91-6.55-3.6-8.46-8.84-4.55-11.76s12.06-2.57,18.61.73C421,280.91,423.59,286.28,419.76,289.45Z" style="fill:#fff"/><path d="M255.05,381.7l-.42-.12c-2.81-.84-2.22-4.41-1.65-7.85.44-2.65,1.2-6.3,2.27-10.84,1.85-7.79,4.05-15.86,4.38-16.94L266.12,324l2.73,1.5.33.2a36.47,36.47,0,0,0,5.07,2.2l2.23.82-6.29,20.44c-.32,1-2.92,8.87-5.65,16.27-5.74,15.55-7.08,16.27-9.12,16.27Z" style="fill:#fff"/><path d="M267.64,327.69l.3.17a38.31,38.31,0,0,0,5.45,2.39l-5.59,18.17c-.61,2-10.21,30.78-12.38,30.78h-.07c-1-.31.5-7.93,2.34-15.72s4-15.77,4.33-16.79l5.62-19m-3-7.37-1.76,5.95-5.63,19c-.32,1.06-2.54,9.21-4.4,17.05-1.08,4.6-1.86,8.31-2.31,11a33,33,0,0,0-.48,4.22c-.05,1.57.23,5.34,3.87,6.44a5.53,5.53,0,0,0,1.52.22c4,0,5.76-4,7.33-7.49,1.13-2.54,2.52-6,4.13-10.41,2.8-7.58,5.37-15.32,5.7-16.43l5.59-18.15,1.4-4.53-4.46-1.64a31.36,31.36,0,0,1-4.71-2l-.35-.2-5.44-3Z" style="fill:#005596"/><path d="M279.88,277.54l2.69,1.39c3.49,1.8,5.62,3.68,6.72,5.9l.44.89-3,9.58-.88.49c-1.88,1-4.47,1.77-8.41,2.38l-3.89.6Z" style="fill:#fff"/><path d="M281.42,281.15c2.59,1.34,4.67,2.85,5.63,4.79l-2.36,7.66a24,24,0,0,1-7.58,2.1l4.31-14.55m-3.08-7.22-1.71,5.8-4.31,14.55-2.24,7.55,7.79-1.19c4.3-.66,7.07-1.46,9.24-2.66l1.76-1,.6-1.93,2.36-7.66.58-1.91-.88-1.78c-1.77-3.57-5.31-5.71-7.81-7l-5.38-2.78Z" style="fill:#005596"/><path d="M346.55,345.13c-29.5,0-59.23-6-74.37-11.6a40.84,40.84,0,0,1-6-2.62l-.27-.15c-6.82-3.88-18.34-11.46-19.34-18.8a13.94,13.94,0,0,1,2.48-10.76c4.67-6.07,14.21-7.26,22.63-8.31,1.72-.22,3.34-.42,4.86-.65a22.54,22.54,0,0,0,6.41-1.7,1.87,1.87,0,0,0,.83-.67,2.67,2.67,0,0,0,.1-2.37c-.5-1-1.88-2.08-4.11-3.24-1.77-.91-3.84-1.76-6-2.66-7.32-3-15.63-6.39-16.51-14.37-1.7-15.43,22.25-28.68,27.06-31.18a98.41,98.41,0,0,1,9.5-4.28c2.87-1.11,5.84-2.11,8.82-3a133.41,133.41,0,0,1,37.2-5A151.59,151.59,0,0,1,398,235.32a109.44,109.44,0,0,1,13.81,7c20.16,12.26,30.42,28.62,28.89,46.1-1,12-7.95,24.14-19.94,35-15.73,14.2-41.39,21.71-74.21,21.71ZM290,256.18a18.79,18.79,0,0,0-8.34,2c-2.19,1.19-3.5,2.73-3.59,4.23-.09,1.35.83,2.8,2.59,4.07a15,15,0,0,0,4.52,2.14,21.87,21.87,0,0,0,5.94.88h.33a18.52,18.52,0,0,0,9.37-2.29c2-1.22,3.17-2.68,3.18-4.12s-1.19-3.1-3.3-4.4a16,16,0,0,0-4.48-1.85,22.22,22.22,0,0,0-5.58-.69Z" style="fill:#fff"/><path d="M339.84,227.27a147.1,147.1,0,0,1,56.8,11.27,105,105,0,0,1,13.37,6.8c18.69,11.37,28.63,26.63,27.22,42.8-1,10.79-7,22-18.81,32.68-17.4,15.72-44.94,20.81-71.87,20.81-30.23,0-59.7-6.42-73.16-11.38a38.31,38.31,0,0,1-5.45-2.39l-.3-.17c-6.55-3.72-16.81-10.67-17.56-16.2-1.91-14.06,15.36-14,27-15.79a24,24,0,0,0,7.58-2.1,4.9,4.9,0,0,0,2.39-2.46,6.16,6.16,0,0,0,0-5.2c-1-1.94-3-3.45-5.63-4.79-7.67-4-19.81-6.44-20.68-14.3-1.18-10.72,14.07-21.92,25.2-27.7a93.36,93.36,0,0,1,9.14-4.11c2.77-1.08,5.62-2,8.53-2.87a130.84,130.84,0,0,1,36.23-4.9M291.41,273a22,22,0,0,0,11.16-2.79c6.63-4,6.41-10.48-.08-14.5a19.87,19.87,0,0,0-5.44-2.26,26.22,26.22,0,0,0-6.46-.8h-.73a22.4,22.4,0,0,0-9.92,2.44c-6.57,3.57-7.36,9.9-1.38,14.22a18.89,18.89,0,0,0,5.57,2.66,25.47,25.47,0,0,0,6.9,1h.38m48.43-52.75a136.65,136.65,0,0,0-38.18,5.18c-3.07.88-6.13,1.91-9.1,3.06a100.58,100.58,0,0,0-9.84,4.43c-7.28,3.77-30.84,17.42-28.94,34.67,1.11,10.05,10.85,14,18.67,17.23,2.12.87,4.12,1.69,5.76,2.53.53.27,1,.52,1.3.73-.81.21-1.92.44-3.46.68s-3.07.42-4.76.64c-9.1,1.13-19.41,2.42-25,9.64-2.82,3.66-3.89,8.16-3.18,13.37.92,6.74,8,13.92,21,21.35l0,0,0,0,.2.12a45.28,45.28,0,0,0,6.53,2.88c15.4,5.69,45.63,11.81,75.56,11.81,15.33,0,29.21-1.59,41.27-4.74,14.45-3.76,26.33-9.77,35.3-17.87,12.66-11.44,19.95-24.33,21.08-37.27.84-9.58-1.57-18.86-7.15-27.58-5.26-8.23-13.14-15.57-23.41-21.81a113.23,113.23,0,0,0-14.26-7.26,153,153,0,0,0-59.54-11.83Zm-58.26,42.35a5,5,0,0,1,1.7-1.35,15.35,15.35,0,0,1,6.76-1.59h.55a19.19,19.19,0,0,1,4.72.58,13.16,13.16,0,0,1,3.51,1.44,5,5,0,0,1,1.56,1.38,4.72,4.72,0,0,1-1.4,1.15,15.16,15.16,0,0,1-7.57,1.8h-.28a18.41,18.41,0,0,1-5-.73,12,12,0,0,1-3.48-1.63,3.92,3.92,0,0,1-1.07-1Z" style="fill:#005596"/><path d="M384.28,246.25c-3.51,2.3-10.68,2.15-15.8-.3s-6.06-6-2.58-8.16,10.15-2,15.17.21S387.74,244,384.28,246.25Z" style="fill:#fff;stroke:#005596;stroke-miterlimit:10;stroke-width:4px"/><path d="M412.21,264.48c-3.6,2.69-11.61,2.43-17.64-.54-5.86-2.89-7.5-7.2-3.91-9.67s11-2.25,16.85.42C413.55,257.43,415.76,261.83,412.21,264.48Z" style="fill:#fff;stroke:#005596;stroke-miterlimit:10;stroke-width:4px"/><path d="M419.76,289.45c-3.93,3.24-12.83,2.8-19.59-.91-6.55-3.6-8.46-8.84-4.55-11.76s12.06-2.57,18.61.73C421,280.91,423.59,286.28,419.76,289.45Z" style="fill:#fff;stroke:#005596;stroke-miterlimit:10;stroke-width:4px"/><path d="M403.15,311.68c-4.39,3.71-13.85,3.1-20.8-1.3-6.69-4.23-8.34-10.32-4-13.64s13-2.82,19.68,1C405,301.79,407.44,308,403.15,311.68Z" style="fill:#fff;stroke:#005596;stroke-miterlimit:10;stroke-width:4px"/><path d="M366.65,322.75c-4.89,3.93-14.29,3.23-20.71-1.47-6.17-4.52-7.05-11-2.24-14.47s13.38-2.92,19.62,1.21C369.81,312.29,371.44,318.92,366.65,322.75Z" style="fill:#fff;stroke:#005596;stroke-miterlimit:10;stroke-width:4px"/><path d="M324,323.9c-5.27,3.87-14.27,3.18-19.81-1.46-5.34-4.48-5.29-10.87-.15-14.32s13.35-2.89,18.82,1.2C328.54,313.56,329.18,320.11,324,323.9Z" style="fill:#fff;stroke:#005596;stroke-miterlimit:10;stroke-width:4px"/><path d="M292.33,270.72a26.63,26.63,0,0,1-7.45-1.1l-1.91-.57,22.34-75.46L316.54,197l-22.72,73.76Z" style="fill:#fff"/><path d="M306.66,196.09l7.38,2.23-9.11,29.56-6.56,21.3-6,19.54a25.14,25.14,0,0,1-6.9-1l5.73-19.31,5.22-17.65,10.26-34.65m-2.69-5L302.83,195l-10.26,34.66-5.23,17.64-5.72,19.32-1.13,3.83,3.82,1.14a29,29,0,0,0,8,1.18l3,0,.88-2.86,6-19.55,6.57-21.3,9.1-29.56,1.18-3.84-3.85-1.16-7.37-2.23L304,191.1Z" style="fill:#005596"/><circle cx="313.96" cy="185.86" r="4.04" style="fill:#fff;stroke:#005596;stroke-miterlimit:10;stroke-width:4px"/><path d="M318.88,176.59a6.76,6.76,0,0,1-2-.29,7.16,7.16,0,0,1-4.39-4.08,11,11,0,0,1-.5-7A24,24,0,0,1,324.7,149c-2.5,8.29-.57,11.82,1,14.74,1.18,2.17,2,3.61.92,7.08A8.17,8.17,0,0,1,318.88,176.59Z" style="fill:#fff"/><path d="M321.7,153.31A16.42,16.42,0,0,0,324,164.72c1.11,2,1.57,2.87.77,5.54a6.16,6.16,0,0,1-5.86,4.33,4.78,4.78,0,0,1-4.58-3.19,9.11,9.11,0,0,1-.39-5.73,21.89,21.89,0,0,1,7.79-12.36m6.37-7.78s-14.4,3.67-18.05,19.23a13,13,0,0,0,.63,8.27,8.75,8.75,0,0,0,8.23,5.56,10.19,10.19,0,0,0,9.69-7.18c3.1-10.26-7.82-7.85-.5-25.88Z" style="fill:#005596"/><path d="M359.55,207.47a9.82,9.82,0,1,1,0-19.63,9.51,9.51,0,0,1,2.67.37V152.7a2,2,0,0,1,1.68-2L405.42,144a1.67,1.67,0,0,1,.32,0,2,2,0,0,1,1.29.47,2,2,0,0,1,.71,1.53V191a9.88,9.88,0,0,1-3.95,7.87,9.82,9.82,0,1,1-5.87-17.68,9.89,9.89,0,0,1,2.67.36V161.3l-31.22,5.22v31.13a9.87,9.87,0,0,1-3.95,7.87A9.74,9.74,0,0,1,359.55,207.47Z" style="fill:#fff"/><path d="M405.74,146V191a7.8,7.8,0,1,1-3.15-6.27V158.94l-35.23,5.89v32.82a7.81,7.81,0,1,1-3.14-6.26V152.7L405.74,146m0-4a3.39,3.39,0,0,0-.64,0l-41.52,6.68a4,4,0,0,0-3.36,3.95v33.16l-.67,0a11.82,11.82,0,1,0,0,23.63,11.71,11.71,0,0,0,7.07-2.35,11.87,11.87,0,0,0,4.74-9.47V168.21l27.23-4.55v15.51h-.67A11.81,11.81,0,1,0,409.74,191V146a4,4,0,0,0-4-4Z" style="fill:#005596"/><path d="M158.52,391.76a11.84,11.84,0,0,1,0-23.67,11.69,11.69,0,0,1,3.87.65V323.37a2,2,0,0,1,1.69-2L216.3,313l.32,0a2,2,0,0,1,1.3.48,2,2,0,0,1,.7,1.52v56.55a11.82,11.82,0,0,1-11.83,11.83,11.83,11.83,0,1,1,3.88-23V339.45l-40.32,6.75v33.72a11.84,11.84,0,0,1-11.83,11.84Z" style="fill:#fff"/><path d="M216.62,315v56.55a9.82,9.82,0,1,1-4-7.88V337.09l-44.32,7.42v35.41a9.84,9.84,0,1,1-4-7.88V323.37L216.62,315m-48.27,26.27,44.32-7.15v-2.87l-44.32,7.41v2.61M216.62,311a4.46,4.46,0,0,0-.63.05l-52.23,8.41a4,4,0,0,0-3.37,3.95v42.85a12.86,12.86,0,0,0-1.87-.13,13.84,13.84,0,1,0,13.83,13.83v-32l36.32-6.09v16a13.06,13.06,0,0,0-1.87-.13,13.83,13.83,0,1,0,13.82,13.83V315a4,4,0,0,0-4-4Z" style="fill:#005596"/><path d="M283.46,149.77a9.41,9.41,0,0,1,0-18.81,9.87,9.87,0,0,1,2.43.31V97.77a2,2,0,0,1,2-2h3a2,2,0,0,1,2,1.66c.62,2.33,2.25,3.94,4.67,5.77l1.07.8c.64.46,1.3.94,1.94,1.47a10.74,10.74,0,0,1,4,8.09,3.68,3.68,0,0,1-1.06,3,2,2,0,0,1-1.28.47,2.17,2.17,0,0,1-.62-.1,2,2,0,0,1-1.32-1.43c-.65-2.66-2.53-3.87-4.91-5.41-.81-.52-1.65-1.06-2.49-1.7v32a9.45,9.45,0,0,1-3.79,7.54A9.28,9.28,0,0,1,283.46,149.77Z" style="fill:#fff"/><path d="M290.87,97.77v0c.79,3.18,3,5.17,5.43,7,1,.74,2,1.43,2.94,2.21,3.78,3.16,3.57,7.49,3,8-1.5-6.09-7.82-6.21-11.34-11.55v36.91a7.41,7.41,0,1,1-3-5.93V97.77h3m0-4h-3a4,4,0,0,0-4,4V129h-.43a11.4,11.4,0,1,0,11.41,11.4V112.13c2,1.33,3.05,2.17,3.46,3.82A4,4,0,0,0,301,118.8a4.13,4.13,0,0,0,1.25.2,4,4,0,0,0,2.56-.93,5.56,5.56,0,0,0,1.78-4.51,12.76,12.76,0,0,0-4.75-9.62c-.7-.58-1.38-1.08-2.05-1.57l-1-.76c-2.14-1.62-3.48-2.92-4-4.71a4,4,0,0,0-3.9-3.13Z" style="fill:#005596"/><path d="M285.79,429a10.31,10.31,0,1,1,0-20.61,10.16,10.16,0,0,1,3,.43V370.88a2,2,0,0,1,2-2h3.34a2,2,0,0,1,2,1.68c.72,2.68,2.58,4.52,5.34,6.61.4.31.8.6,1.21.89.71.52,1.44,1.06,2.15,1.65a11.79,11.79,0,0,1,4.44,8.89,3.93,3.93,0,0,1-1.1,3.15,2,2,0,0,1-1.28.46,1.87,1.87,0,0,1-.62-.1,2,2,0,0,1-1.32-1.42c-.76-3.08-2.9-4.47-5.62-6.22-1-.66-2.11-1.36-3.17-2.2v36.4a10.36,10.36,0,0,1-4.15,8.27A10.15,10.15,0,0,1,285.79,429Z" style="fill:#fff"/><path d="M294.1,370.88v0c.89,3.57,3.39,5.8,6.1,7.85,1.09.84,2.24,1.61,3.29,2.48,4.25,3.55,4,8.41,3.34,9-1.68-6.84-8.78-7-12.73-13v41.42a8.29,8.29,0,1,1-3.34-6.66V370.88h3.34m0-4h-3.34a4,4,0,0,0-4,4v35.53c-.32,0-.64,0-1,0a12.31,12.31,0,1,0,0,24.61,12.16,12.16,0,0,0,7.36-2.44,12.36,12.36,0,0,0,5-9.87V386.09l.09.06c2.83,1.83,4.21,2.8,4.76,5a4,4,0,0,0,2.63,2.84,4.13,4.13,0,0,0,1.25.2,4,4,0,0,0,2.56-.92,5.81,5.81,0,0,0,1.82-4.69,13.85,13.85,0,0,0-5.15-10.43c-.77-.64-1.54-1.19-2.28-1.73l-1.16-.86c-2.5-1.89-4.06-3.41-4.62-5.56a4,4,0,0,0-3.9-3.14Z" style="fill:#005596"/><path d="M334.05,361.69v0c.68,2.75,2.61,4.47,4.7,6.06.84.64,1.73,1.24,2.54,1.91,3.27,2.73,3.09,6.49,2.58,6.92-1.3-5.28-6.77-5.38-9.82-10v31.94a6.41,6.41,0,1,1-2.58-5.13V361.69h2.58m0-4h-2.58a4,4,0,0,0-4,4v26.45a10.41,10.41,0,1,0,10.58,10.4V375.13a4,4,0,0,1,1.93,2.42,4,4,0,0,0,2.64,2.84,3.86,3.86,0,0,0,1.25.21,4,4,0,0,0,2.55-.93,5.31,5.31,0,0,0,1.74-4.32,11.66,11.66,0,0,0-4.3-8.74c-.62-.51-1.22-.95-1.81-1.37l-.88-.65c-1.76-1.34-2.85-2.39-3.22-3.78a4,4,0,0,0-3.9-3.12Z" style="fill:#005596"/></svg>