<svg id="icon" xmlns="http://www.w3.org/2000/svg" viewBox="0 0 512 512"><path d="M256.15,487.13A231.17,231.17,0,0,1,92.69,92.5,231.17,231.17,0,1,1,419.61,419.42,229.66,229.66,0,0,1,256.15,487.13Z" style="fill:#fff"/><path d="M256.15,28.3a227.72,227.72,0,0,1,88.62,437.44A227.72,227.72,0,0,1,167.54,46.19,226.22,226.22,0,0,1,256.15,28.3m0-7C126.55,21.3,21.49,126.36,21.49,256S126.55,490.63,256.15,490.63,490.82,385.57,490.82,256,385.76,21.3,256.15,21.3Z" style="fill:#005596"/><path d="M252.68,142.21V183.1c-.47,30.75-25.54,69-56.41,69s-55.86-38.18-56.4-68.88v-41l1.33-1a92.23,92.23,0,0,1,110.15,0C251.79,141.52,252.24,141.87,252.68,142.21Z" style="fill:#fff;stroke:#005596;stroke-miterlimit:10;stroke-width:7px"/><path d="M222.77,215.92a27.09,27.09,0,0,0-53.58,5.65v.06a2,2,0,0,0,3.63,1.24,29.91,29.91,0,0,1,46.91,0,2,2,0,0,0,3.63-1.27A27.59,27.59,0,0,0,222.77,215.92Z" style="fill:#005596"/><path d="M209.62,158.64a13.06,13.06,0,0,0,25.6,4.45v0A1,1,0,0,0,233.7,162a14.43,14.43,0,0,1-21.76-6.18,1,1,0,0,0-1.85.11A13.59,13.59,0,0,0,209.62,158.64Z" style="fill:#005596"/><path d="M184.48,158.64a13.06,13.06,0,0,1-25.59,4.45v0A1,1,0,0,1,160.4,162a14.43,14.43,0,0,0,21.76-6.18,1,1,0,0,1,1.86.11A12.91,12.91,0,0,1,184.48,158.64Z" style="fill:#005596"/><path d="M188.86,174.24a2.14,2.14,0,0,1,3.38,1.74c0,14.25,0,56.34,0,56.59-.47,30.75-25.54,69-56.41,69S80,263.39,79.43,232.7c0-.28,0-42.44,0-56.71a2.14,2.14,0,0,1,3.38-1.74c15,10.56,33.29,15.52,53,15.52S173.85,184.81,188.86,174.24Z" style="fill:#005596"/><path d="M162.32,258.18a27.09,27.09,0,0,1-53.58-5.66v-.06a2,2,0,0,1,3.63-1.24,29.92,29.92,0,0,0,46.92,0,2,2,0,0,1,3.63,1.28A27,27,0,0,1,162.32,258.18Z" style="fill:#fff"/><path d="M98.33,220.92a13.06,13.06,0,0,1,25.83,2.73v0a1,1,0,0,1-1.75.59,14.43,14.43,0,0,0-22.62,0,1,1,0,0,1-1.75-.61A12.85,12.85,0,0,1,98.33,220.92Z" style="fill:#fff"/><path d="M147.78,220.92a13.06,13.06,0,0,1,25.84,2.73v0a1,1,0,0,1-1.75.59,14.43,14.43,0,0,0-22.62,0,1,1,0,0,1-1.75-.61A13.51,13.51,0,0,1,147.78,220.92Z" style="fill:#fff"/><path d="M366.06,237.75c3.43-2.09,10.14-2,15.16.21s6.67,6,3.21,8.25-10.67,2.15-15.79-.3S362.57,239.88,366.06,237.75Zm-41.9,86.12c-5.27,3.87-14.27,3.18-19.81-1.47-5.33-4.47-5.29-10.86-.15-14.32s13.36-2.89,18.82,1.2C328.69,313.52,329.33,320.07,324.16,323.87Zm42.64-1.16c-4.89,3.93-14.29,3.23-20.7-1.47-6.17-4.52-7.06-11-2.24-14.46s13.37-2.92,19.61,1.2C370,312.26,371.59,318.88,366.8,322.71Zm24-68.47c3.54-2.42,11-2.26,16.85.41,6,2.75,8.24,7.14,4.7,9.79s-11.62,2.43-17.65-.54C388.87,261,387.22,256.71,390.82,254.24Zm12.48,57.4c-4.39,3.71-13.85,3.1-20.79-1.3-6.69-4.23-8.35-10.31-4-13.64s13-2.82,19.68,1C405.17,301.75,407.6,308,403.3,311.64Zm16.61-22.23c-3.92,3.24-12.82,2.8-19.59-.91-6.55-3.6-8.46-8.83-4.54-11.75s12.05-2.57,18.6.72C421.15,280.87,423.74,286.24,419.91,289.41Z" style="fill:#fff"/><path d="M255.2,381.66l-.42-.11c-2.8-.85-2.22-4.41-1.65-7.86.44-2.65,1.2-6.29,2.28-10.83,1.84-7.78,4-15.86,4.37-16.94l6.5-21.95,2.72,1.5.34.19a36.64,36.64,0,0,0,5.06,2.21l2.23.81-6.29,20.44c-.32,1.05-2.91,8.87-5.65,16.28-5.74,15.54-7.07,16.26-9.12,16.26Z" style="fill:#fff"/><path d="M267.79,327.66l.3.17a38.66,38.66,0,0,0,5.46,2.38L268,348.38c-.61,2-10.21,30.78-12.38,30.78h-.07c-1-.3.5-7.92,2.34-15.72s4-15.77,4.33-16.79l5.62-19m-3-7.39-1.77,6-5.62,19c-.32,1.07-2.54,9.21-4.4,17.06-1.09,4.6-1.87,8.3-2.31,11a31.6,31.6,0,0,0-.49,4.22c-.05,1.57.23,5.33,3.88,6.43a5.16,5.16,0,0,0,1.51.22c4,0,5.77-4,7.33-7.49,1.13-2.53,2.52-6,4.14-10.41,2.79-7.57,5.36-15.31,5.7-16.43l5.58-18.14,1.4-4.54-4.46-1.63a32.66,32.66,0,0,1-4.71-2l-.34-.19-5.44-3Z" style="fill:#005596"/><path d="M280,277.51l2.69,1.39c3.49,1.8,5.62,3.67,6.72,5.89l.44.89-2.95,9.58-.88.49c-1.87,1-4.47,1.78-8.4,2.38l-3.9.6Z" style="fill:#fff"/><path d="M281.57,281.12c2.6,1.34,4.67,2.84,5.63,4.78l-2.36,7.67a24,24,0,0,1-7.57,2.09l4.3-14.54m-3.07-7.22-1.72,5.8-4.31,14.54-2.23,7.56,7.79-1.2c4.3-.66,7.06-1.45,9.24-2.66l1.76-1,.59-1.92,2.36-7.67.59-1.9-.89-1.79c-1.76-3.57-5.3-5.71-7.81-7l-5.37-2.77Z" style="fill:#005596"/><path d="M346.7,343.59c-29.32,0-58.83-6-73.85-11.5a41,41,0,0,1-5.74-2.52l-.28-.16c-6.56-3.74-17.67-11-18.58-17.68-.52-3.85.21-7.09,2.18-9.65,4.29-5.58,13.5-6.72,21.63-7.74,1.73-.22,3.36-.42,4.9-.66a23.29,23.29,0,0,0,6.91-1.86,3,3,0,0,0,1.5-1.44,4.1,4.1,0,0,0,0-3.59c-.64-1.3-2.2-2.58-4.75-3.9-1.84-.94-3.94-1.8-6.16-2.71-6.95-2.84-14.81-6.06-15.59-13.15-1.6-14.45,21.59-27.27,26.26-29.69a98.68,98.68,0,0,1,9.34-4.21c2.83-1.09,5.76-2.07,8.7-2.92a131.94,131.94,0,0,1,36.78-5,150,150,0,0,1,57.58,11.42,107.25,107.25,0,0,1,13.63,6.94c19.64,11.94,29.65,27.81,28.17,44.68-1,11.66-7.74,23.42-19.45,34-10.77,9.73-32.22,21.32-73.21,21.32Zm-56.64-88.95a20.34,20.34,0,0,0-9,2.2c-2.65,1.44-4.25,3.43-4.38,5.46-.12,1.88,1,3.8,3.22,5.38a16.13,16.13,0,0,0,5,2.36,23.25,23.25,0,0,0,6.34.94h.36a20,20,0,0,0,10.13-2.51c2.51-1.5,3.9-3.41,3.91-5.39s-1.44-4.11-4-5.7a17.81,17.81,0,0,0-4.89-2,23.83,23.83,0,0,0-5.95-.73Z" style="fill:#005596"/><path d="M340,227.24a147.09,147.09,0,0,1,56.8,11.26,106.34,106.34,0,0,1,13.37,6.81c18.69,11.36,28.64,26.63,27.22,42.79-.94,10.79-7,22-18.8,32.69-17.41,15.72-44.95,20.8-71.88,20.8-30.23,0-59.69-6.41-73.15-11.38a38.66,38.66,0,0,1-5.46-2.38l-.3-.17c-6.54-3.73-16.81-10.68-17.56-16.2-1.91-14.07,15.36-14,27-15.8a24,24,0,0,0,7.57-2.09,4.92,4.92,0,0,0,2.39-2.47,6.13,6.13,0,0,0,0-5.2c-1-1.94-3-3.44-5.63-4.78-7.67-4-19.81-6.44-20.68-14.31-1.18-10.71,14.07-21.92,25.2-27.69a92.13,92.13,0,0,1,9.14-4.12q4.17-1.6,8.54-2.87A130.77,130.77,0,0,1,340,227.24M291.56,273a22.09,22.09,0,0,0,11.16-2.78c6.63-4,6.41-10.49-.08-14.51a19.87,19.87,0,0,0-5.44-2.26,26.13,26.13,0,0,0-6.45-.79H290a22.29,22.29,0,0,0-9.92,2.43c-6.57,3.58-7.35,9.9-1.38,14.22a18.46,18.46,0,0,0,5.58,2.66,25,25,0,0,0,6.89,1h.38M340,223.24a134.09,134.09,0,0,0-37.34,5c-3,.86-6,1.86-8.86,3a94.57,94.57,0,0,0-9.54,4.3c-4.87,2.53-29.07,15.93-27.33,31.68.91,8.27,9.36,11.73,16.82,14.78,2.18.89,4.24,1.73,6,2.64,2.66,1.37,3.57,2.39,3.88,3,.12.25.36.74-.12,2h0a2.12,2.12,0,0,1-.58.41c-1.72.95-5.14,1.47-6.26,1.65-1.52.23-3.13.43-4.85.65-8.51,1.06-18.17,2.26-23,8.5-2.31,3-3.18,6.74-2.58,11.13.54,4,4.37,10.5,19.54,19.14l0,0h0l.24.14a42.24,42.24,0,0,0,6.07,2.67c15.17,5.6,45,11.62,74.53,11.62,33,0,58.74-7.55,74.56-21.84,12.09-10.91,19-23.12,20.1-35.3,1.55-17.67-8.79-34.2-29.12-46.56a109.24,109.24,0,0,0-13.88-7.07A152.21,152.21,0,0,0,340,223.24ZM291.56,269h-.32a21.24,21.24,0,0,1-5.81-.85,15,15,0,0,1-4.38-2.07c-.93-.68-2.48-2.05-2.38-3.63.08-1.31,1.33-2.74,3.33-3.83a18.37,18.37,0,0,1,8.11-2h.64a21.84,21.84,0,0,1,5.46.67,15.81,15.81,0,0,1,4.33,1.79c1.93,1.19,3.07,2.68,3.06,4s-1.08,2.58-2.93,3.69a18,18,0,0,1-9.11,2.22Z" style="fill:#005596"/><path d="M384.43,246.21c-3.51,2.31-10.67,2.15-15.79-.3s-6.07-6-2.58-8.16,10.14-2,15.16.21S387.89,243.94,384.43,246.21Z" style="fill:#fff"/><path d="M412.37,264.44c-3.6,2.69-11.62,2.43-17.65-.54-5.85-2.89-7.5-7.19-3.9-9.66s11-2.26,16.85.41C413.7,257.4,415.91,261.79,412.37,264.44Z" style="fill:#fff"/><path d="M419.91,289.41c-3.92,3.24-12.82,2.8-19.59-.91-6.55-3.6-8.46-8.83-4.54-11.75s12.05-2.57,18.6.72C421.15,280.87,423.74,286.24,419.91,289.41Z" style="fill:#fff"/><path d="M403.3,311.64c-4.39,3.71-13.85,3.1-20.79-1.3-6.69-4.23-8.35-10.31-4-13.64s13-2.82,19.68,1C405.17,301.75,407.6,308,403.3,311.64Z" style="fill:#fff"/><path d="M366.8,322.71c-4.89,3.93-14.29,3.23-20.7-1.47-6.17-4.52-7.06-11-2.24-14.46s13.37-2.92,19.61,1.2C370,312.26,371.59,318.88,366.8,322.71Z" style="fill:#fff"/><path d="M324.16,323.87c-5.27,3.87-14.27,3.18-19.81-1.47-5.33-4.47-5.29-10.86-.15-14.32s13.36-2.89,18.82,1.2C328.69,313.52,329.33,320.07,324.16,323.87Z" style="fill:#fff"/><path d="M292.48,270.69a26.88,26.88,0,0,1-7.44-1.11l-1.92-.57,22.35-75.45L316.69,197,294,270.7Z" style="fill:#fff"/><path d="M306.81,196.05l7.38,2.23-9.1,29.56-6.57,21.3-6,19.55a25.4,25.4,0,0,1-6.89-1l5.72-19.32,5.23-17.64,10.25-34.66m-2.69-5L303,194.92l-10.26,34.65-5.23,17.65-5.72,19.31-1.13,3.83,3.83,1.14a29,29,0,0,0,8,1.19l3,0,.88-2.85,6-19.55,6.57-21.3,9.1-29.56,1.19-3.85-3.85-1.16L308,192.22l-3.85-1.16Z" style="fill:#005596"/><path d="M314.12,190.36a4.53,4.53,0,0,1-4.35-5.85,4.58,4.58,0,0,1,4.35-3.23,4.54,4.54,0,0,1,0,9.08Z" style="fill:#005596"/><path d="M314.12,181.78a4.36,4.36,0,0,1,1.17.17,4,4,0,0,1-1.17,7.91,4,4,0,0,1-1.17-.17,4,4,0,0,1,1.17-7.91m0-1h0a5,5,0,0,0-1.46,9.86,4.88,4.88,0,0,0,1.46.22,5,5,0,0,0,1.45-9.86,4.77,4.77,0,0,0-1.45-.22Z" style="fill:#005596"/><path d="M328.72,171.38a10.11,10.11,0,0,1-12.29,6.8A9.14,9.14,0,0,1,310.8,173a13.07,13.07,0,0,1-.63-8.27c3.66-15.56,18.05-19.23,18.05-19.23C320.9,163.52,331.82,161.11,328.72,171.38Z" style="fill:#005596"/><path d="M405.89,146v45a7.82,7.82,0,1,1-7.82-7.81,7.73,7.73,0,0,1,4.67,1.55V158.9l-35.22,5.89v32.82a7.82,7.82,0,1,1-3.15-6.26V152.66Z" style="fill:#005596"/><path d="M164.55,323.33V372a9.83,9.83,0,1,0,4,7.88V344.47l44.32-7.42v26.54a9.84,9.84,0,1,0,3.95,7.88V314.92Zm4,17.86v-2.6l44.32-7.42v2.88Z" style="fill:#005596"/><path d="M302.37,115c-1.5-6.09-7.83-6.21-11.35-11.55v36.92a7.39,7.39,0,1,1-3-5.94V97.73h3v0c.79,3.18,3,5.17,5.43,7,1,.74,2,1.43,2.94,2.21C303.17,110.13,303,114.46,302.37,115Z" style="fill:#005596"/><path d="M307,390.17c-1.69-6.83-8.78-7-12.74-13v41.43a8.31,8.31,0,1,1-3.34-6.66V370.84h3.34v0c.89,3.57,3.39,5.8,6.1,7.86,1.1.83,2.24,1.6,3.3,2.48C307.89,384.75,307.65,389.62,307,390.17Z" style="fill:#005596"/><path d="M344,376.56c-1.3-5.27-6.77-5.37-9.82-10v31.95a6.41,6.41,0,1,1-2.58-5.14V361.65h2.58v0c.69,2.75,2.61,4.47,4.7,6.05.85.65,1.73,1.24,2.55,1.91C344.72,372.38,344.54,376.13,344,376.56Z" style="fill:#005596"/></svg>