<svg id="icon" xmlns="http://www.w3.org/2000/svg" viewBox="0 0 512 512"><path d="M255.65,487.09A231.16,231.16,0,0,1,92.19,92.47,231.17,231.17,0,0,1,419.11,419.39,229.68,229.68,0,0,1,255.65,487.09Z" style="fill:#fff"/><path d="M255.65,28.26a227.73,227.73,0,0,1,88.61,437.45A227.73,227.73,0,0,1,167,46.15a226.23,226.23,0,0,1,88.62-17.89m0-7C126,21.26,21,126.32,21,255.93S126,490.59,255.65,490.59,490.31,385.53,490.31,255.93,385.25,21.26,255.65,21.26Z" style="fill:#005596"/><path d="M210.21,162.58l-.11,181.68a9.35,9.35,0,0,1-4.11,7.8v.25l68.63-12.73V311.31L288.89,291l18.67-1.43,12.23,16.32v25.54l70.25-13.1V297.4l7.85-14.81,10.47-.81,7,12.57v19.38l8.59-1.68c3.53-.65,6.34-6.77,6.34-13.66v-86c0-6.91-2.81-13.08-6.34-13.8L206,154.18v.5A9.39,9.39,0,0,1,210.21,162.58Z" style="fill:#fff"/><path d="M210.21,162.58l-.11,181.68a9.35,9.35,0,0,1-4.11,7.8v.25l68.63-12.73V311.31L288.89,291l18.67-1.43,12.23,16.32v25.54l70.25-13.1V297.4l7.85-14.81,10.47-.81,7,12.57v19.38l8.59-1.68c3.53-.65,6.34-6.77,6.34-13.66v-86c0-6.91-2.81-13.08-6.34-13.8L206,154.18v.5A9.39,9.39,0,0,1,210.21,162.58Z" style="fill:none;stroke:#005596;stroke-linecap:round;stroke-linejoin:round;stroke-width:7px"/><polygon points="277.74 198.3 345.95 208.07 345.95 255.2 277.74 255.23 277.74 198.3" style="fill:#fff"/><path d="M280.74,201.76,343,210.67V252.2l-62.21,0V201.76m-6-6.92v63.39l74.21,0V205.47l-74.21-10.63Z" style="fill:#005596"/><polygon points="251.19 191.9 264.48 193.85 264.48 320.85 251.19 322.75 251.19 191.9" style="fill:#fff"/><path d="M253.19,194.21l9.29,1.37V319.11l-9.29,1.34V194.21m-4-4.62V325.06l17.29-2.48V192.12l-17.29-2.53Z" style="fill:#005596"/><polygon points="226.08 188.22 241.24 190.44 241.24 324.18 226.08 326.36 226.08 188.22" style="fill:#fff"/><path d="M228.08,190.53l11.16,1.64V322.45l-11.16,1.6V190.53m-4-4.63V328.66l19.16-2.74V188.71l-19.16-2.81Z" style="fill:#005596"/><polygon points="369.73 208.78 376.42 209.76 376.42 305.3 369.73 306.26 369.73 208.78" style="fill:#fff"/><path d="M371.23,210.51l3.69.54V304l-3.69.53v-94m-3-3.47V308l9.69-1.39V208.46L368.23,207Z" style="fill:#005596"/><polygon points="355.98 206.76 363.44 207.85 363.44 307.16 355.98 308.23 355.98 206.76" style="fill:#fff"/><path d="M357.48,208.5l4.46.65v96.71l-4.46.64v-98m-3-3.48V310l10.46-1.5V206.56L354.48,205Z" style="fill:#005596"/><polygon points="385.12 213.23 419.33 218.75 419.33 255.68 385.12 255.69 385.12 213.23" style="fill:#fff"/><path d="M387.62,216.16l29.21,4.72v32.3H387.62v-37m-5-5.87v47.9l39.21,0V216.62l-39.21-6.33Z" style="fill:#005596"/><path d="M402,322.76c-3.52,0-7.29-6.28-7.29-15.63,0-8.53,3.75-18.4,8.77-18.84l.3,0c3.53,0,7.31,6.28,7.31,15.63,0,10.16-4.32,17.92-8.35,18.78a3.81,3.81,0,0,1-.74.08Z" style="fill:#fff"/><path d="M403.73,290.77c1.44,0,4.81,4.47,4.81,13.13,0,9-3.84,15.79-6.38,16.33l-.21,0c-1.43,0-4.79-4.47-4.79-13.13a27.71,27.71,0,0,1,2.7-12.37c1.37-2.63,2.93-3.91,3.79-4h.08m0-5-.52,0c-6,.53-11,10.09-11,21.33,0,10.45,4.35,18.13,9.79,18.13a5.41,5.41,0,0,0,1.26-.14c5.79-1.24,10.33-10.72,10.33-21.22,0-10.19-4.27-18.13-9.81-18.13Z" style="fill:#005596"/><path d="M402.66,314.09c-1.7,0-3.52-3.13-3.52-7.79,0-5.11,2.24-9.19,4.25-9.43h.18c1.67,0,3.52,3.2,3.52,7.79,0,5.1-2.19,9.05-4.15,9.41a1.33,1.33,0,0,1-.28,0Z" style="fill:#fff"/><path d="M403.57,298.36c.56.14,2,2.27,2,6.29,0,4.81-2.07,7.78-2.92,7.94-.56-.13-2-2.25-2-6.29,0-5,2.17-7.84,2.93-7.94m0-3-.36,0c-3,.36-5.57,5.26-5.57,10.92,0,5.32,2.22,9.29,5,9.29a3.41,3.41,0,0,0,.55,0c3-.55,5.38-5.42,5.38-10.89,0-5.26-2.2-9.29-5-9.29Z" style="fill:#005596"/><path d="M295.45,344.39c-7.67,0-13.45-8.62-13.45-20.05,0-13.17,7.67-25,16.74-25.78.31,0,.62,0,.92,0,7.55,0,13.47,8.81,13.47,20.05,0,12.28-6.92,23.75-15.43,25.58a10.9,10.9,0,0,1-2.25.24Z" style="fill:#fff"/><path d="M299.66,302c5.5,0,10,7.42,10,16.55,0,11.63-6.55,20.84-12.66,22.15a7.37,7.37,0,0,1-1.52.17c-5.58,0-9.95-7.27-9.95-16.55a28.84,28.84,0,0,1,4.7-16c2.55-3.72,5.78-6,8.85-6.28l.61,0m0-7c-.41,0-.81,0-1.23.06-10.77.95-19.93,14.07-19.93,29.26,0,13.76,7.52,23.55,16.95,23.55a14,14,0,0,0,3-.32c10.25-2.2,18.2-15.14,18.2-29,0-13.31-7.32-23.55-17-23.55Z" style="fill:#005596"/><path d="M297.13,332.4c-3.47,0-6.18-4.2-6.18-9.57,0-6.26,3.56-12,7.78-12.48a5.07,5.07,0,0,1,.55,0c3.47,0,6.18,4.2,6.18,9.56,0,6-3.42,11.69-7.48,12.44a5,5,0,0,1-.85.08Z" style="fill:#fff"/><path d="M299.28,312.82c1.74,0,3.68,2.9,3.68,7.06,0,5.14-2.87,9.51-5.43,10a3,3,0,0,1-.4,0c-1.78,0-3.68-2.84-3.68-7.07,0-5.25,3-9.69,5.57-10h.26m0-5a6.15,6.15,0,0,0-.85.05c-5.45.65-10,7.36-10,15,0,7,3.82,12.07,8.68,12.07a7.31,7.31,0,0,0,1.3-.12c5.32-1,9.53-7.64,9.53-14.9,0-6.87-3.77-12.06-8.68-12.06Z" style="fill:#005596"/><path d="M211.09,162.17c0-5.27-4.33-9.67-8.94-9l-98.06,13.44c-7.21,1-12.94,1.64-12.94,20.85v131.5c0,17.55,5.73,19.91,12.94,20.92l98,13.78c4.61.65,8.93-3.72,8.94-9Z" style="fill:#fff"/><path d="M211.09,162.17c0-5.27-4.33-9.67-8.94-9l-98.06,13.44c-7.21,1-12.94,1.64-12.94,20.85v131.5c0,17.55,5.73,19.91,12.94,20.92l98,13.78c4.61.65,8.93-3.72,8.94-9Z" style="fill:none;stroke:#005596;stroke-miterlimit:10;stroke-width:7px"/><polygon points="195.01 272.6 104.04 270.7 104.04 197.4 195.01 188.64 195.01 272.6" style="fill:#fff;stroke:#005596;stroke-linecap:round;stroke-linejoin:round;stroke-width:7px"/><path d="M107.91,184.31c-.89,0-1.87-1.58-1.87-3.71,0-2.45,1.29-4.51,2.41-4.64l81.41-10a1.23,1.23,0,0,1,.27,0c1.61,0,2.88,1.92,2.88,4.38,0,2.78-1.68,5.38-3.59,5.58L108,184.31Z" style="fill:#fff"/><path d="M190.13,168c.18,0,.88.79.88,2.38,0,2.21-1.28,3.54-1.8,3.59l-80.84,8.33a3.72,3.72,0,0,1-.33-1.66,4,4,0,0,1,.86-2.69L190.11,168h0m0-4a4.36,4.36,0,0,0-.51,0L108.2,174c-2.3.28-4.16,3.25-4.16,6.63s1.7,5.71,3.87,5.71h.29l81.42-8.39c3-.31,5.39-3.7,5.39-7.57,0-3.65-2.15-6.38-4.88-6.38Z" style="fill:#005596"/><polygon points="177.38 325.22 177.38 316.06 193.06 317.47 193.06 326.93 177.38 325.22" style="fill:#fff"/><path d="M179.38,318.25l11.68,1.05v5.4l-11.68-1.27v-5.18m-4-4.38V327l19.68,2.14V315.64l-19.68-1.77Z" style="fill:#005596"/><polygon points="106.04 317.45 106.04 309.64 117.85 310.7 117.85 318.74 106.04 317.45" style="fill:#fff"/><path d="M108,311.82l7.81.71v4l-7.81-.85v-3.84m-4-4.37v11.8L119.85,321v-12.1L104,307.45Z" style="fill:#005596"/><path d="M126.05,197l33.45-3.24c-22.63,14.33-37.28,35.59-45.95,52.07Z" style="fill:#fff"/><path d="M152,196.51c-14.66,10.8-25.42,24.16-32.85,35.66l8.53-33.3L152,196.51m16.62-5.63-44.12,4.28-19.37,75.63s15.91-55.51,63.49-79.91Z" style="fill:#005596"/></svg>