<svg id="icon" xmlns="http://www.w3.org/2000/svg" viewBox="0 0 512 512"><path d="M490.66,256A234.65,234.65,0,0,1,331.09,478.38c-2,.69-4,1.33-6,1.94h0c-5.2,1.6-10.49,3-15.83,4.27-2.8.66-5.61,1.25-8.42,1.79A234.84,234.84,0,0,1,260,490.63l-2.72,0H256q-9.34,0-18.49-.71c-5.48-.42-10.91-1.05-16.28-1.84-2-.29-4-.62-6-1h0a230.46,230.46,0,0,1-27-6.4c-2.58-.78-5.17-1.62-7.71-2.47-2.23-.75-4.42-1.54-6.61-2.37A230.32,230.32,0,0,1,142,461.13q-3.35-1.86-6.61-3.83c-3-1.78-5.94-3.65-8.83-5.56-2.24-1.48-4.44-3-6.62-4.56A235.3,235.3,0,0,1,88,419.82c-2.25-2.31-4.46-4.68-6.6-7.07q-7.45-8.29-14.1-17.27c-4.07-5.5-7.92-11.21-11.51-17.08-1.29-2.09-2.55-4.19-3.75-6.33h0a232.78,232.78,0,0,1-27.6-77.93c-1.21-7.37-2.08-14.87-2.56-22.47,0-.17,0-.36,0-.54-.2-3-.35-6.09-.41-9.15-.07-2-.08-4-.08-6a234.16,234.16,0,0,1,13.21-77.84c.13-.39.28-.79.42-1.18q2.63-7.33,5.71-14.43l1.37-3.09a234.77,234.77,0,0,1,427.08-1.81q3.72,8.08,6.84,16.47c1.41,3.73,2.69,7.5,3.89,11.31a232.93,232.93,0,0,1,9.92,50.2Q490.65,245.7,490.66,256Z" style="fill:#005596"/><path d="M223.35,330c0,8.19,5.25,13.91,11.58,12.78,6.15-1.09,11-8.28,11-16.09s-4.87-13.57-11-12.86C228.6,314.55,223.35,321.8,223.35,330Z" style="fill:#fff"/><path d="M205.77,354.31a2,2,0,0,1-1.28-.46,2,2,0,0,1-.72-1.54v-.25a2,2,0,0,1,.92-1.68,7.43,7.43,0,0,0,3.2-6.13l.1-181.67a7.42,7.42,0,0,0-3.29-6.21,2,2,0,0,1-.93-1.69v-.5a2,2,0,0,1,2-2,2.71,2.71,0,0,1,.4,0l218,44.38c4.52.92,7.94,7.69,7.94,15.76v86c0,8.07-3.43,14.79-8,15.63l-8.58,1.59a2.31,2.31,0,0,1-.37,0,2,2,0,0,1-1.27-.46,2,2,0,0,1-.73-1.54V294.87l-6.12-11-8.1.63-7.1,13.4v20.41a2,2,0,0,1-1.64,2l-70.23,13a2.19,2.19,0,0,1-.36,0,2,2,0,0,1-2-2V306.54L306.4,291.63l-16.63,1.27-13.36,19,0,27.66a2,2,0,0,1-1.64,2l-68.69,12.71A2.19,2.19,0,0,1,205.77,354.31Z" style="fill:#c1d82f"/><path d="M205.77,154.18l218,44.38c3.54.72,6.34,6.89,6.34,13.8v86c0,6.89-2.8,13-6.34,13.66l-8.59,1.59V294.35l-7-12.57-10.47.81-7.85,14.81v20.9l-70.23,13V305.87l-12.24-16.32L288.67,291l-14.26,20.33,0,28.3-68.69,12.7v-.25a9.39,9.39,0,0,0,4.12-7.8l.1-181.68a9.39,9.39,0,0,0-4.22-7.9v-.5m0-4a4,4,0,0,0-4,4v.5a4,4,0,0,0,1.87,3.38,5.4,5.4,0,0,1,2.35,4.52l-.1,181.68a5.37,5.37,0,0,1-2.28,4.44,4,4,0,0,0-1.84,3.36v.25a4,4,0,0,0,4,4,3.61,3.61,0,0,0,.73-.07l68.68-12.7a4,4,0,0,0,3.28-3.94l0-27,12.45-17.75,14.6-1.12,10.12,13.5v24.11a4,4,0,0,0,4,4,3.61,3.61,0,0,0,.73-.07l70.22-13a4,4,0,0,0,3.28-3.93V298.4l6.35-12,5.73-.44,5.24,9.42v18.25a4,4,0,0,0,4,4,3.54,3.54,0,0,0,.73-.07l8.59-1.59c6.3-1.16,9.61-9.72,9.61-17.59v-86c0-7.84-3.28-16.45-9.54-17.72l-218-44.38a4.34,4.34,0,0,0-.8-.08Z" style="fill:#005596"/><polygon points="348.73 258.2 274.52 258.23 274.52 194.84 348.73 205.47 348.73 258.2" style="fill:#fff;stroke:#005596;stroke-linecap:round;stroke-linejoin:round;stroke-width:4px"/><polygon points="248.97 325.06 248.97 189.59 266.26 192.12 266.26 322.58 248.97 325.06" style="fill:#005596"/><polygon points="223.86 328.66 223.86 185.9 243.02 188.71 243.02 325.92 223.86 328.66" style="fill:#005596"/><polygon points="368.01 307.99 368.01 207.04 377.7 208.46 377.7 306.6 368.01 307.99" style="fill:#005596"/><polygon points="354.26 309.96 354.26 205.02 364.72 206.56 364.72 308.46 354.26 309.96" style="fill:#005596"/><polygon points="426.59 258.17 382.4 258.19 382.4 210.29 426.59 216.62 426.59 258.17" style="fill:#fff;stroke:#005596;stroke-linecap:round;stroke-linejoin:round;stroke-width:4px"/><path d="M391.94,307.13c0,11.25,5,19.28,11.05,18,5.79-1.24,10.33-10.72,10.33-21.22s-4.54-18.62-10.33-18.1C397,286.33,391.94,295.89,391.94,307.13Z" style="fill:#fff"/><path d="M397.42,306.3c0,5.67,2.52,9.8,5.57,9.24s5.38-5.42,5.38-10.89S406,295,403,295.38,397.42,300.64,397.42,306.3Z" style="fill:#005596"/><path d="M278.28,324.34c0,15.19,9.16,25.54,19.93,23.23,10.25-2.2,18.2-15.14,18.2-29s-8-24.4-18.2-23.49C287.44,296,278.28,309.15,278.28,324.34Z" style="fill:#fff"/><path d="M288.23,322.83c0,7.61,4.53,12.95,10,11.95s9.53-7.64,9.53-14.9-4.21-12.65-9.53-12S288.23,315.23,288.23,322.83Z" style="fill:#005596"/><path d="M205.87,162.17c0-5.27-4.33-9.67-9-9L98.86,166.58c-7.21,1-12.93,1.64-12.93,20.85v131.5c0,17.55,5.72,19.91,12.93,20.92l98,13.78c4.61.65,8.93-3.72,8.93-9Z" style="fill:#c1d82f"/><polygon points="189.79 272.6 98.81 270.7 98.81 197.4 189.79 188.64 189.79 272.6" style="fill:#fff;stroke:#005596;stroke-linecap:round;stroke-linejoin:round;stroke-width:4px"/><path d="M184.4,177.91,103,186.3c-2.31.23-4.17-2.32-4.17-5.7h0c0-3.38,1.86-6.35,4.17-6.63l81.42-10c3-.36,5.39,2.48,5.39,6.35h0C189.79,174.21,187.36,177.6,184.4,177.91Z" style="fill:#005596"/><polygon points="170.16 327.01 189.84 329.16 189.84 315.64 170.16 313.87 170.16 327.01" style="fill:#005596"/><polygon points="98.81 319.25 114.62 320.97 114.62 308.87 98.81 307.45 98.81 319.25" style="fill:#005596"/><path d="M168.36,190.88l-44.12,4.28-23.87,75.43S120.78,215.28,168.36,190.88Z" style="fill:#005596"/></svg>