<svg id="icon" xmlns="http://www.w3.org/2000/svg" viewBox="0 0 512 512"><path d="M255.65,487.09A231.16,231.16,0,0,1,92.19,92.47,231.17,231.17,0,0,1,419.11,419.39,229.68,229.68,0,0,1,255.65,487.09Z" style="fill:#fff"/><path d="M255.65,28.26a227.73,227.73,0,0,1,88.61,437.45A227.73,227.73,0,0,1,167,46.15a226.23,226.23,0,0,1,88.62-17.89m0-7C126,21.26,21,126.32,21,255.93S126,490.59,255.65,490.59,490.31,385.53,490.31,255.93,385.25,21.26,255.65,21.26Z" style="fill:#005596"/><path d="M302.81,345.57a94.61,94.61,0,0,1-36.82,75q-2.85,2.24-5.91,4.23a94.85,94.85,0,0,1-104.17,0q-3.06-2-5.91-4.23a94.81,94.81,0,1,1,152.81-75Z" style="fill:#fff"/><path d="M276.26,393.84a81.82,81.82,0,0,1-18.17,19.55L253,417a81.52,81.52,0,0,1-89.59,0l-5.08-3.63a81.82,81.82,0,0,1-18.17-19.55l22.59-22.42a21.78,21.78,0,0,1,10.8-5.88,85.73,85.73,0,0,1,14.68-1.77h4.92a39.18,39.18,0,0,1,12.78-75.17c.69-.06,1.37-.08,2.06-.08h.44c.69,0,1.36,0,2.05.08a39.18,39.18,0,0,1,12.78,75.17h4.92a85.62,85.62,0,0,1,14.68,1.77,21.74,21.74,0,0,1,10.8,5.88Z" style="fill:#fff"/><path d="M208.22,288.08c.69,0,1.36,0,2.05.08a39.18,39.18,0,0,1,12.78,75.17H228a85.62,85.62,0,0,1,14.68,1.77,21.74,21.74,0,0,1,10.8,5.88L276,393.4A81.82,81.82,0,0,1,257.87,413l-5.08,3.63a81.57,81.57,0,0,1-89.59,0L158.12,413A81.82,81.82,0,0,1,140,393.4L162.54,371a21.78,21.78,0,0,1,10.8-5.88A85.73,85.73,0,0,1,188,363.33h4.92a39.18,39.18,0,0,1,12.78-75.17c.69-.06,1.37-.08,2.06-.08h.44m0-11h-.44c-1,0-1.91,0-2.82.1a50.16,50.16,0,0,0-38.16,78.37,32.91,32.91,0,0,0-12,7.61l-22.6,22.43L125.79,392l5,7.53a93.21,93.21,0,0,0,20.6,22.17l.17.13.17.12,5.08,3.63.17.12.18.12a92.61,92.61,0,0,0,101.7,0l.17-.12.17-.12,5.08-3.63.17-.12.17-.13a93,93,0,0,0,20.6-22.17l5-7.53-6.41-6.36L261.2,363.17a32.81,32.81,0,0,0-12-7.62,50.16,50.16,0,0,0-38.25-78.37c-.71-.05-1.67-.1-2.72-.1Z" style="fill:#005596"/><path d="M251,134.6a60.67,60.67,0,0,1-10.1,33.62,61.57,61.57,0,0,1-13.58,14.63q-1.84,1.44-3.81,2.71a61,61,0,0,1-67,0q-2-1.27-3.8-2.71a61.36,61.36,0,0,1-13.58-14.63A61,61,0,1,1,251,134.6Z" style="fill:#fff"/><path d="M232.66,165.63a51.41,51.41,0,0,1-11.38,12.25l-3.19,2.28a51.12,51.12,0,0,1-56.12,0l-3.19-2.28a51.41,51.41,0,0,1-11.38-12.25l14.15-14a13.6,13.6,0,0,1,6.77-3.68,53.5,53.5,0,0,1,9.2-1.11h3.08a24.54,24.54,0,0,1,8-47.09c.43,0,.85,0,1.28,0h.28c.43,0,.85,0,1.28,0a24.54,24.54,0,0,1,8,47.09h3.08a53.5,53.5,0,0,1,9.2,1.11,13.49,13.49,0,0,1,6.76,3.68Z" style="fill:#fff"/><path d="M190.17,99.66c.43,0,.85,0,1.28,0a24.54,24.54,0,0,1,8,47.09h3.08a53.5,53.5,0,0,1,9.2,1.11,13.49,13.49,0,0,1,6.76,3.68l14.16,14a51.41,51.41,0,0,1-11.38,12.25l-3.19,2.28a51.12,51.12,0,0,1-56.12,0l-3.19-2.28a51.41,51.41,0,0,1-11.38-12.25l14.15-14a13.6,13.6,0,0,1,6.77-3.68,53.5,53.5,0,0,1,9.2-1.11h3.08a24.54,24.54,0,0,1,8-47.09c.43,0,.85,0,1.28,0h.28m0-7h-.28c-.62,0-1.2,0-1.77.06a31.54,31.54,0,0,0-24.07,49.15,21,21,0,0,0-7.42,4.74l-14.16,14.06-4.08,4,3.18,4.79a58.23,58.23,0,0,0,12.93,13.92l.1.08.11.08,3.19,2.27.1.08.11.07a58.1,58.1,0,0,0,63.83,0l.11-.07.11-.08,3.19-2.27.1-.08.11-.08a58.23,58.23,0,0,0,12.93-13.92l3.18-4.79-4.08-4-14.16-14a20.67,20.67,0,0,0-7.42-4.75,31.54,31.54,0,0,0-24.13-49.15c-.48,0-1.06-.06-1.71-.06Z" style="fill:#005596"/><path d="M379.21,135.06a71.56,71.56,0,0,0-65.49,42.67l-63.89-31.1a61,61,0,1,0-97.11,36.22q1.84,1.44,3.8,2.71a60.7,60.7,0,0,0,33.51,10l1.57,0,5.69,55.8A94.78,94.78,0,0,0,150,420.58q2.85,2.24,5.91,4.23a94.85,94.85,0,0,0,104.17,0q3.06-2,5.91-4.23a94.82,94.82,0,0,0,18.49-131L331.57,260q1.88,1.68,3.87,3.22c1.44,1.12,2.92,2.18,4.46,3.19a71.58,71.58,0,0,0,78.62,0q2.3-1.51,4.46-3.19a72.09,72.09,0,0,0,15.94-17.16,71.57,71.57,0,0,0-59.71-111ZM190.89,188.57c-.29,0-.57,0-.86,0a53.78,53.78,0,0,1-29.67-8.88c-1.16-.76-2.28-1.56-3.35-2.4a54,54,0,1,1,87-42.71,53.11,53.11,0,0,1-.73,8.85,52,52,0,0,1-2.61,9.85,52.94,52.94,0,0,1-5.59,11.06,54.28,54.28,0,0,1-12.06,13c-1.05.82-2.17,1.62-3.35,2.39a53.33,53.33,0,0,1-18.85,7.78A52.33,52.33,0,0,1,190.89,188.57Zm100.92,157A83.38,83.38,0,0,1,278,391.77a84.34,84.34,0,0,1-18.72,20.14c-1.63,1.27-3.37,2.52-5.2,3.71a83.83,83.83,0,0,1-92.1,0c-1.8-1.17-3.54-2.42-5.2-3.71A84.36,84.36,0,0,1,138,391.77,83.84,83.84,0,0,1,198.4,262.31a84.48,84.48,0,0,1,9.6-.55h.39a83.58,83.58,0,0,1,60.18,25.92,87.47,87.47,0,0,1,6.53,7.71A83.39,83.39,0,0,1,291.81,345.57Zm-13.72-63.85a94.58,94.58,0,0,0-70.09-31h-.73l-5.73-56.27a60.47,60.47,0,0,0,22-8.94q2-1.27,3.81-2.71a61.57,61.57,0,0,0,13.58-14.63A60.75,60.75,0,0,0,247,156.38l63.31,30.81a71.73,71.73,0,0,0,9.18,58.88,70.86,70.86,0,0,0,4.94,6.6Zm154.16-40.07a64,64,0,0,1-14.19,15.27c-1.24,1-2.56,1.91-3.94,2.82a63.57,63.57,0,0,1-69.84,0q-2.05-1.34-3.95-2.82c-.56-.44-1.12-.88-1.67-1.34a63.55,63.55,0,1,1,93.59-13.91Z" style="fill:#005596"/><path d="M430.85,243.85a62.2,62.2,0,0,1-13.79,14.84l-3.86,2.76a61.9,61.9,0,0,1-68,0l-3.85-2.76a62.2,62.2,0,0,1-13.79-14.84l17.14-17a16.52,16.52,0,0,1,8.2-4.46A64.76,64.76,0,0,1,364.05,221h3.73a29.74,29.74,0,0,1,9.71-57c.52,0,1-.06,1.55-.06h.34c.52,0,1,0,1.55.06a29.74,29.74,0,0,1,9.71,57h3.72a64.75,64.75,0,0,1,11.15,1.34,16.45,16.45,0,0,1,8.19,4.46Z" style="fill:#fff"/><path d="M379.82,162.83c.52,0,1,0,1.55,0a29.74,29.74,0,0,1,9.71,57.05h3.73A64.83,64.83,0,0,1,406,221.28a16.45,16.45,0,0,1,8.19,4.46l17.15,17a62.2,62.2,0,0,1-13.79,14.84l-3.85,2.76a61.92,61.92,0,0,1-68,0l-3.85-2.76A62.2,62.2,0,0,1,328,242.75l17.14-17a16.52,16.52,0,0,1,8.2-4.46,64.94,64.94,0,0,1,11.14-1.35h3.73a29.74,29.74,0,0,1,9.71-57.05c.52,0,1,0,1.55,0h.34m0-8h-.34c-.74,0-1.43,0-2.1.07a37.73,37.73,0,0,0-28.45,59.31,24.67,24.67,0,0,0-9.4,5.84l-17.16,17-4.66,4.63,3.63,5.47a70.23,70.23,0,0,0,15.56,16.75l.12.09.12.09,3.86,2.76.12.08.13.09a69.91,69.91,0,0,0,76.8,0l.12-.09.13-.08,3.85-2.76.13-.09.12-.09A70.23,70.23,0,0,0,438,247.17l3.62-5.47-4.66-4.63-17.14-17a24.53,24.53,0,0,0-9.41-5.85,37.73,37.73,0,0,0-28.51-59.31c-.53,0-1.25-.07-2-.07Z" style="fill:#005596"/></svg>