<svg id="icon" xmlns="http://www.w3.org/2000/svg" viewBox="0 0 512 512"><path d="M256,487.17A231.17,231.17,0,0,1,92.54,92.54,231.17,231.17,0,1,1,419.46,419.46,229.66,229.66,0,0,1,256,487.17Z" style="fill:#fff"/><path d="M256,28.33a227.74,227.74,0,0,1,88.62,437.45A227.73,227.73,0,0,1,167.38,46.22,226.27,226.27,0,0,1,256,28.33m0-7C126.4,21.33,21.33,126.4,21.33,256S126.4,490.67,256,490.67,490.67,385.6,490.67,256,385.6,21.33,256,21.33Z" style="fill:#005596"/><rect x="164.61" y="68" width="87.4" height="156.69" rx="14.16" style="fill:#005596"/><rect x="170.91" y="87.24" width="74.8" height="118.22" style="fill:#fff"/><rect x="199.43" y="76" width="25.59" height="3.54" rx="1.77" style="fill:#fff"/><circle cx="193.83" cy="77.78" r="2.23" style="fill:#fff"/><circle cx="208.31" cy="215.28" r="5.51" style="fill:#fff"/><path d="M427.46,195.68v40.07c0,16.63-6.85,31.43-17.48,40.83V242.86h-7.21v38.95a40.11,40.11,0,0,1-16.44,5.28V242.86h-7.22v44.23a40,40,0,0,1-16.43-5.28V242.86h-7.22v33.72c-10.63-9.4-17.48-24.2-17.48-40.83V195.68c0-16.64,6.85-31.44,17.48-40.84v33.73h7.22v-39a40.18,40.18,0,0,1,16.43-5.29v44.25h7.22V144.32a40.14,40.14,0,0,1,16.44,5.3v38.95H410V154.85a44.5,44.5,0,0,1,4.38,4.41A55.44,55.44,0,0,1,427.46,195.68Z" style="fill:#005596"/><path d="M446.2,222.19v22.63c0,32.25-23.57,59-54,63.06v14.39h18.3c5.54,0,10,4.93,10,11H344.94a11.51,11.51,0,0,1,2.94-7.77,9.62,9.62,0,0,1,7.11-3.22h18.29V307.88c-30.45-4.09-54-30.81-54-63.06V222.19c0-6.39,4.72-11.56,10.56-11.56v34.19c0,28.71,23.17,52.05,51.64,52.05H384c28.48,0,51.63-23.34,51.63-52.05V210.63a10.13,10.13,0,0,1,7.47,3.38A12.18,12.18,0,0,1,446.2,222.19Z" style="fill:#005596"/><rect x="337.97" y="210.94" width="89.5" height="9.54" style="fill:#fff"/><path d="M286.51,278.88V357a15.63,15.63,0,0,1-15.63,15.63H180.59l-42.66,42.66a2.27,2.27,0,0,1-3.88-1.6V374.94a2.27,2.27,0,0,0-2.27-2.27h-8.84A15.63,15.63,0,0,1,107.3,357V278.88a15.63,15.63,0,0,1,15.64-15.63H270.88A15.63,15.63,0,0,1,286.51,278.88Z" style="fill:#005596"/><rect x="127.7" y="288.83" width="118.71" height="5.3" rx="2.65" style="fill:#fff"/><rect x="127.7" y="342.85" width="111.61" height="5.3" rx="2.65" style="fill:#fff"/><rect x="127.7" y="315.84" width="136.41" height="5.3" rx="2.65" style="fill:#fff"/><path d="M90,298.21a3.49,3.49,0,0,1-3.42-2.78,171,171,0,0,1,59.52-168.14,3.5,3.5,0,0,1,4.41,5.43A163.2,163.2,0,0,0,89.83,259.93,165,165,0,0,0,93.37,294,3.52,3.52,0,0,1,90,298.21Z" style="fill:#005596"/><path d="M253.58,430.68A170.81,170.81,0,0,1,170.32,409a3.5,3.5,0,0,1,3.42-6.11,163.84,163.84,0,0,0,218.44-55.77,3.5,3.5,0,0,1,5.92,3.73A170,170,0,0,1,253.58,430.68Z" style="fill:#005596"/><path d="M355.24,130.62a3.44,3.44,0,0,1-2.12-.72A163.08,163.08,0,0,0,270.32,97a3.5,3.5,0,0,1,.71-7,170.11,170.11,0,0,1,86.35,34.29,3.5,3.5,0,0,1-2.14,6.27Z" style="fill:#005596"/></svg>