<svg id="icon" xmlns="http://www.w3.org/2000/svg" viewBox="0 0 512 512"><path d="M256,487.17A231.17,231.17,0,0,1,92.54,92.54,231.17,231.17,0,1,1,419.46,419.46,229.66,229.66,0,0,1,256,487.17Z" style="fill:#fff"/><path d="M256,28.33a227.74,227.74,0,0,1,88.62,437.45A227.73,227.73,0,0,1,167.38,46.22,226.27,226.27,0,0,1,256,28.33m0-7C126.4,21.33,21.33,126.4,21.33,256S126.4,490.67,256,490.67,490.67,385.6,490.67,256,385.6,21.33,256,21.33Z" style="fill:#005596"/><rect x="162.61" y="66" width="91.4" height="160.69" rx="16.16" style="fill:#fff"/><path d="M237.85,68A14.16,14.16,0,0,1,252,82.17V210.53a14.16,14.16,0,0,1-14.16,14.17H178.77a14.16,14.16,0,0,1-14.16-14.17V82.17A14.16,14.16,0,0,1,178.77,68h59.08m0-4H178.77a18.19,18.19,0,0,0-18.16,18.17V210.53a18.19,18.19,0,0,0,18.16,18.17h59.08A18.19,18.19,0,0,0,256,210.53V82.17A18.19,18.19,0,0,0,237.85,64Z" style="fill:#005596"/><rect x="172.91" y="89.24" width="70.8" height="114.22" style="fill:#fff"/><path d="M241.71,91.24V201.46h-66.8V91.24h66.8m4-4h-74.8V205.46h74.8V87.24Z" style="fill:#005596"/><rect x="199.43" y="76" width="25.59" height="3.54" rx="1.77" style="fill:#005596"/><circle cx="193.83" cy="77.78" r="2.23" style="fill:#005596"/><circle cx="208.31" cy="215.28" r="5.51" style="fill:#005596"/><path d="M340,208.94V195.68c0-13.86,4.86-26.76,13.48-36.09v31h11.22V150.78a38.1,38.1,0,0,1,12.43-4.2v44h11.22v-44a37.94,37.94,0,0,1,12.44,4.21v39.78H412v-31l.87,1a53.31,53.31,0,0,1,12.61,35.11v13.26Z" style="fill:#fff"/><path d="M375.11,149v43.58h15.22V149a36,36,0,0,1,8.44,3v40.57H414V165.21a52,52,0,0,1,9.48,30.47v11.26H342V195.68a52,52,0,0,1,9.48-30.49v27.38h15.22V152a36.1,36.1,0,0,1,8.43-3m11.22-4.67v44.25h-7.22V144.32a40.18,40.18,0,0,0-16.43,5.29v39h-7.22V154.84C344.83,164.24,338,179,338,195.68v15.26h89.48V195.68a55.44,55.44,0,0,0-13.1-36.42,44.5,44.5,0,0,0-4.38-4.41v33.72h-7.21V149.62a40.14,40.14,0,0,0-16.44-5.3Z" style="fill:#005596"/><path d="M377.11,284.83a37.92,37.92,0,0,1-12.43-4.19V240.86H353.46v31C344.84,262.5,340,249.61,340,235.75V222.48h85.48v13.27c0,13.86-4.86,26.75-13.48,36.08v-31H400.77v39.78a38.05,38.05,0,0,1-12.44,4.19v-44H377.11Z" style="fill:#fff"/><path d="M423.46,224.48v11.27A52,52,0,0,1,414,266.23V238.86H398.77v40.56a35.92,35.92,0,0,1-8.44,3V238.86H375.11v43.57a36.1,36.1,0,0,1-8.43-3V238.86H351.46v27.37A52,52,0,0,1,342,235.75V224.48h81.48m4-4H338v15.27c0,16.63,6.85,31.43,17.48,40.83V242.86h7.22v38.95a40,40,0,0,0,16.43,5.28V242.86h7.22v44.23a40.11,40.11,0,0,0,16.44-5.28V242.86H410v33.72c10.63-9.4,17.48-24.2,17.48-40.83V220.48Z" style="fill:#005596"/><path d="M446.2,222.19v22.63c0,32.25-23.57,59-54,63.06v14.39h18.3c5.54,0,10,4.93,10,11H344.94a11.51,11.51,0,0,1,2.94-7.77,9.62,9.62,0,0,1,7.11-3.22h18.29V307.88c-30.45-4.09-54-30.81-54-63.06V222.19c0-6.39,4.72-11.56,10.56-11.56v34.19c0,28.71,23.17,52.05,51.64,52.05H384c28.48,0,51.63-23.34,51.63-52.05V210.63a10.13,10.13,0,0,1,7.47,3.38A12.18,12.18,0,0,1,446.2,222.19Z" style="fill:#fff;stroke:#005596;stroke-miterlimit:10;stroke-width:4px"/><path d="M136.34,418a4.3,4.3,0,0,1-3-1.16,4.23,4.23,0,0,1-1.34-3.11V374.94a.27.27,0,0,0-.27-.27h-8.84A17.65,17.65,0,0,1,105.3,357V278.88a17.65,17.65,0,0,1,17.64-17.63H270.88a17.65,17.65,0,0,1,17.63,17.63V357a17.65,17.65,0,0,1-17.63,17.63H181.42l-42.08,42.08A4.22,4.22,0,0,1,136.34,418Z" style="fill:#fff"/><path d="M270.88,263.25a15.63,15.63,0,0,1,15.63,15.63V357a15.63,15.63,0,0,1-15.63,15.63H180.59l-42.66,42.66a2.22,2.22,0,0,1-1.59.67,2.26,2.26,0,0,1-2.29-2.27V374.94a2.27,2.27,0,0,0-2.27-2.27h-8.84A15.63,15.63,0,0,1,107.3,357V278.88a15.63,15.63,0,0,1,15.64-15.63H270.88m0-4H122.94a19.65,19.65,0,0,0-19.64,19.63V357a19.66,19.66,0,0,0,19.64,19.63h7.11v37.06a6.28,6.28,0,0,0,6.29,6.27,6.21,6.21,0,0,0,4.42-1.84l41.49-41.49h88.63A19.66,19.66,0,0,0,290.51,357V278.88a19.65,19.65,0,0,0-19.63-19.63Z" style="fill:#005596"/><rect x="127.7" y="288.83" width="118.71" height="5.3" rx="2.65" style="fill:#005596"/><rect x="127.7" y="342.85" width="111.61" height="5.3" rx="2.65" style="fill:#005596"/><rect x="127.7" y="315.84" width="136.41" height="5.3" rx="2.65" style="fill:#005596"/><path d="M90,298.21a3.49,3.49,0,0,1-3.42-2.78,171,171,0,0,1,59.52-168.14,3.5,3.5,0,0,1,4.41,5.43A163.2,163.2,0,0,0,89.83,259.93,165,165,0,0,0,93.37,294,3.52,3.52,0,0,1,90,298.21Z" style="fill:#005596"/><path d="M253.58,430.68A170.81,170.81,0,0,1,170.32,409a3.5,3.5,0,0,1,3.42-6.11,163.84,163.84,0,0,0,218.44-55.77,3.5,3.5,0,0,1,5.92,3.73A170,170,0,0,1,253.58,430.68Z" style="fill:#005596"/><path d="M355.24,130.62a3.44,3.44,0,0,1-2.12-.72A163.08,163.08,0,0,0,270.32,97a3.5,3.5,0,0,1,.71-7,170.11,170.11,0,0,1,86.35,34.29,3.5,3.5,0,0,1-2.14,6.27Z" style="fill:#005596"/></svg>