<svg id="icon" xmlns="http://www.w3.org/2000/svg" viewBox="0 0 512 512"><path d="M490.67,256A234.77,234.77,0,0,1,331.1,478.38c-2,.68-4,1.32-6,1.94h0c-5.2,1.6-10.47,3-15.82,4.28q-4.2,1-8.43,1.78A234.61,234.61,0,0,1,260,490.62l-2.73,0c-.41,0-.83,0-1.25,0q-9.33,0-18.5-.73-8.19-.63-16.26-1.83c-2-.3-4-.62-6-1h0a234,234,0,0,1-27-6.4q-3.9-1.19-7.72-2.48c-1.12-.37-2.21-.76-3.32-1.14l-3.3-1.22A231.37,231.37,0,0,1,142,461.13q-3.33-1.86-6.6-3.83-4.49-2.69-8.85-5.56c-2.22-1.49-4.44-3-6.61-4.56A234.08,234.08,0,0,1,88,419.81c-2.25-2.31-4.47-4.67-6.61-7.07-1.11-1.22-2.18-2.45-3.25-3.69q-5.66-6.6-10.84-13.57c-.17-.24-.34-.48-.53-.71-3.88-5.28-7.55-10.76-11-16.37-1.27-2.1-2.53-4.2-3.74-6.34h0q-2.41-4.21-4.64-8.56a232.71,232.71,0,0,1-22.94-69.36,224.89,224.89,0,0,1-2.56-22.46c0-.18,0-.37-.05-.55-.19-3.05-.33-6.1-.39-9.16q-.11-3-.1-6a234,234,0,0,1,13.23-77.83c.13-.41.26-.8.42-1.19q2.63-7.35,5.71-14.43c.44-1,.91-2.06,1.37-3.1a234.76,234.76,0,0,1,427.07-1.8c2.49,5.39,4.76,10.87,6.85,16.47q2.1,5.59,3.89,11.32a232.72,232.72,0,0,1,9.92,50.19Q490.66,245.68,490.67,256Z" style="fill:#005596"/><rect x="167.03" y="68" width="87.4" height="156.69" rx="14.16" style="fill:#fff"/><rect x="173.33" y="87.24" width="74.8" height="118.22" style="fill:#005596"/><rect x="201.85" y="76" width="25.59" height="3.54" rx="1.77" style="fill:#005596"/><circle cx="196.26" cy="77.78" r="2.23" style="fill:#005596"/><circle cx="210.73" cy="215.28" r="5.51" style="fill:#005596"/><path d="M429.89,195.68v40.07c0,16.63-6.85,31.43-17.49,40.83V242.86h-7.21v38.95a40.07,40.07,0,0,1-16.43,5.28V242.86h-7.23v44.23a40.07,40.07,0,0,1-16.43-5.28V242.86h-7.21v33.72c-10.64-9.4-17.49-24.2-17.49-40.83V195.68c0-16.64,6.85-31.44,17.49-40.84v33.73h7.21v-39a40.23,40.23,0,0,1,16.43-5.29v44.25h7.23V144.32a40.1,40.1,0,0,1,16.43,5.3v38.95h7.21V154.85a44.5,44.5,0,0,1,4.38,4.41A55.45,55.45,0,0,1,429.89,195.68Z" style="fill:#fff"/><path d="M448.63,222.19v22.63c0,32.25-23.58,59-54,63.06v14.39h18.29c5.55,0,10.05,4.93,10.05,11H347.36a11.52,11.52,0,0,1,2.95-7.77,9.6,9.6,0,0,1,7.1-3.22h18.3V307.88c-30.46-4.09-54-30.81-54-63.06V222.19c0-6.39,4.73-11.56,10.56-11.56v34.19c0,28.71,23.17,52.05,51.64,52.05h2.58c28.47,0,51.62-23.34,51.62-52.05V210.63a10.17,10.17,0,0,1,7.48,3.38A12.18,12.18,0,0,1,448.63,222.19Z" style="fill:#fff"/><rect x="340.39" y="210.94" width="89.5" height="9.54" style="fill:#c1d82f"/><path d="M288.93,278.88V357a15.63,15.63,0,0,1-15.63,15.63H183l-42.66,42.66a2.27,2.27,0,0,1-3.88-1.6V374.94a2.27,2.27,0,0,0-2.27-2.27h-8.84A15.63,15.63,0,0,1,109.73,357V278.88a15.63,15.63,0,0,1,15.63-15.63H273.3A15.63,15.63,0,0,1,288.93,278.88Z" style="fill:#fff"/><rect x="130.13" y="288.83" width="118.71" height="5.3" rx="2.65" style="fill:#005596"/><rect x="130.13" y="342.85" width="111.61" height="5.3" rx="2.65" style="fill:#005596"/><rect x="130.13" y="315.84" width="136.41" height="5.3" rx="2.65" style="fill:#005596"/><path d="M92.37,298.21A3.5,3.5,0,0,1,89,295.43a172.1,172.1,0,0,1-3.7-35.5,170.14,170.14,0,0,1,63.22-132.64,3.5,3.5,0,0,1,4.41,5.43A164,164,0,0,0,95.8,294a3.5,3.5,0,0,1-2.7,4.15A3.71,3.71,0,0,1,92.37,298.21Z" style="fill:#b9d532"/><path d="M256,430.68A170.78,170.78,0,0,1,172.75,409a3.5,3.5,0,1,1,3.42-6.11,163.84,163.84,0,0,0,218.44-55.77,3.5,3.5,0,0,1,5.92,3.73A170,170,0,0,1,256,430.68Z" style="fill:#b9d532"/><path d="M357.67,130.62a3.47,3.47,0,0,1-2.13-.72A163.08,163.08,0,0,0,272.75,97a3.5,3.5,0,0,1,.7-7,170.08,170.08,0,0,1,86.35,34.29,3.5,3.5,0,0,1-2.13,6.27Z" style="fill:#b9d532"/></svg>