<svg id="icon" xmlns="http://www.w3.org/2000/svg" viewBox="0 0 512 512"><path d="M255.32,28.26a227.73,227.73,0,0,1,88.61,437.45A227.73,227.73,0,0,1,166.7,46.15a226.23,226.23,0,0,1,88.62-17.89m0-7c-129.61,0-234.67,105.06-234.67,234.67S125.71,490.59,255.32,490.59,490,385.53,490,255.93,384.92,21.26,255.32,21.26Z" style="fill:#005696"/><rect x="85.54" y="152.54" width="216.89" height="194.78" rx="5.83" style="fill:#fff;stroke:#005696;stroke-miterlimit:10;stroke-width:7px"/><line x1="85.54" y1="191.32" x2="302.43" y2="191.32" style="fill:#fff;stroke:#005696;stroke-miterlimit:10;stroke-width:7px"/><rect x="100.65" y="204.54" width="35.11" height="35.11" rx="4.5" style="fill:none;stroke:#005696;stroke-miterlimit:10;stroke-width:6px"/><rect x="151.54" y="204.54" width="35.11" height="35.11" rx="4.5" style="fill:none;stroke:#005696;stroke-miterlimit:10;stroke-width:6px"/><rect x="202.43" y="204.54" width="35.11" height="35.11" rx="4.5" style="fill:none;stroke:#005696;stroke-miterlimit:10;stroke-width:6px"/><rect x="252.21" y="204.54" width="35.11" height="35.11" rx="4.5" style="fill:none;stroke:#005696;stroke-miterlimit:10;stroke-width:6px"/><rect x="100.65" y="250.76" width="35.11" height="35.11" rx="4.5" style="fill:none;stroke:#005696;stroke-miterlimit:10;stroke-width:6px"/><rect x="151.54" y="250.76" width="35.11" height="35.11" rx="4.5" style="fill:none;stroke:#005696;stroke-miterlimit:10;stroke-width:6px"/><rect x="202.43" y="250.76" width="35.11" height="35.11" rx="4.5" style="fill:none;stroke:#005696;stroke-miterlimit:10;stroke-width:6px"/><rect x="252.21" y="250.76" width="35.11" height="35.11" rx="4.5" style="fill:none;stroke:#005696;stroke-miterlimit:10;stroke-width:6px"/><rect x="100.65" y="296.98" width="35.11" height="35.11" rx="4.5" style="fill:none;stroke:#005696;stroke-miterlimit:10;stroke-width:6px"/><rect x="151.54" y="296.98" width="35.11" height="35.11" rx="4.5" style="fill:none;stroke:#005696;stroke-miterlimit:10;stroke-width:6px"/><rect x="202.43" y="296.98" width="35.11" height="35.11" rx="4.5" style="fill:none;stroke:#005696;stroke-miterlimit:10;stroke-width:6px"/><rect x="252.21" y="296.98" width="35.11" height="35.11" rx="4.5" style="fill:none;stroke:#005696;stroke-miterlimit:10;stroke-width:6px"/><rect x="248.21" y="127.32" width="25.56" height="46.67" rx="12.78" style="fill:#fff;stroke:#005696;stroke-miterlimit:10;stroke-width:7px"/><rect x="114.21" y="127.32" width="25.56" height="46.67" rx="12.78" style="fill:#fff;stroke:#005696;stroke-miterlimit:10;stroke-width:7px"/><circle cx="353.79" cy="191.32" r="57.4" style="fill:#fff;stroke:#005696;stroke-miterlimit:10;stroke-width:7px"/><rect x="223.01" y="313.35" width="173.61" height="95.91" rx="9.36" style="fill:#fff"/><path d="M387.26,316.85a5.85,5.85,0,0,1,5.86,5.85v77.2a5.85,5.85,0,0,1-5.86,5.85H232.37a5.85,5.85,0,0,1-5.86-5.85V322.7a5.85,5.85,0,0,1,5.86-5.85H387.26m0-7H232.37a12.87,12.87,0,0,0-12.86,12.85v77.2a12.87,12.87,0,0,0,12.86,12.85H387.26a12.86,12.86,0,0,0,12.86-12.85V322.7a12.86,12.86,0,0,0-12.86-12.85Z" style="fill:#005696"/><path d="M397.1,321.59l-86,43.16a3.5,3.5,0,0,1-3.18,0L223.6,322.41v7.94l84.3,42.32a3.56,3.56,0,0,0,3.18,0l86-43.16Z" style="fill:#005696"/><path d="M312,227.08l13.89-13.78a13.37,13.37,0,0,1,6.64-3.61,52.08,52.08,0,0,1,9-1.09h3a24.09,24.09,0,0,1,7.87-46.21c.42,0,.83,0,1.26,0h.27c.42,0,.83,0,1.26,0a24.09,24.09,0,0,1,7.86,46.21h3a52.29,52.29,0,0,1,9,1.09,13.34,13.34,0,0,1,6.63,3.61l13.89,13.78" style="fill:none;stroke:#005696;stroke-miterlimit:10;stroke-width:6px"/><circle cx="393.74" cy="235.22" r="17.45" style="fill:#fff;stroke:#005696;stroke-miterlimit:10;stroke-width:7px"/></svg>