<svg id="icon" xmlns="http://www.w3.org/2000/svg" viewBox="0 0 512 512"><path d="M490.49,255.35a234.67,234.67,0,1,1-469.34,0c0-129.6,105.07-234.67,234.67-234.67S490.49,125.75,490.49,255.35Z" style="fill:#1e4384"/><rect x="117.23" y="107.86" width="277.06" height="173.47" rx="12.23" style="fill:#b9d532;stroke:#1e4384;stroke-miterlimit:10"/><rect x="138.19" y="127.42" width="235.14" height="134.35" rx="7.26" style="fill:#fff"/><path d="M366.07,130.42a4.26,4.26,0,0,1,4.26,4.26V254.51a4.26,4.26,0,0,1-4.26,4.26H145.45a4.26,4.26,0,0,1-4.26-4.26V134.68a4.26,4.26,0,0,1,4.26-4.26H366.07m0-6H145.45a10.29,10.29,0,0,0-10.26,10.26V254.51a10.29,10.29,0,0,0,10.26,10.26H366.07a10.29,10.29,0,0,0,10.26-10.26V134.68a10.28,10.28,0,0,0-10.26-10.26Z" style="fill:#1e4384"/><path d="M286.49,288v38.64h45.67c4.36,0,7.93,3,7.93,6.75s-3.57,6.75-7.93,6.75H177.34c-4.36,0-7.93-3-7.93-6.75s3.57-6.75,7.93-6.75H225V288" style="fill:#b9d532"/><line x1="335.94" y1="153.88" x2="265.81" y2="224.01" style="fill:#1e4384;stroke:#1e4384;stroke-linecap:round;stroke-miterlimit:10;stroke-width:6px"/><line x1="343.42" y1="179.63" x2="298.31" y2="224.74" style="fill:#1e4384;stroke:#1e4384;stroke-linecap:round;stroke-miterlimit:10;stroke-width:6px"/><line x1="300.87" y1="153.88" x2="255.76" y2="198.99" style="fill:#1e4384;stroke:#1e4384;stroke-linecap:round;stroke-miterlimit:10;stroke-width:6px"/><rect x="144" y="370.06" width="224" height="60.75" rx="20.93" style="fill:#b9d532"/><path d="M287.19,412H224.81a4.4,4.4,0,0,0,0,8.8h62.38a4.4,4.4,0,0,0,0-8.8Z" style="fill:#1e4384"/><path d="M172.49,393.12h-6.24a4.4,4.4,0,0,0,0,8.8h6.24a4.4,4.4,0,0,0,0-8.8Z" style="fill:#1e4384"/><path d="M201.75,393.12h-6.23a4.4,4.4,0,0,0,0,8.8h6.23a4.4,4.4,0,0,0,0-8.8Z" style="fill:#1e4384"/><path d="M231,393.12h-6.23a4.4,4.4,0,0,0,0,8.8H231a4.4,4.4,0,0,0,0-8.8Z" style="fill:#1e4384"/><path d="M260.27,393.12H254a4.4,4.4,0,1,0,0,8.8h6.23a4.4,4.4,0,1,0,0-8.8Z" style="fill:#1e4384"/><path d="M289.53,393.12H283.3a4.4,4.4,0,1,0,0,8.8h6.23a4.4,4.4,0,1,0,0-8.8Z" style="fill:#1e4384"/><path d="M318.8,393.12h-6.24a4.4,4.4,0,0,0,0,8.8h6.24a4.4,4.4,0,0,0,0-8.8Z" style="fill:#1e4384"/><path d="M348.06,393.12h-6.24a4.4,4.4,0,0,0,0,8.8h6.24a4.4,4.4,0,0,0,0-8.8Z" style="fill:#1e4384"/><rect x="161.86" y="380.54" width="44.29" height="4.52" rx="2.26" style="fill:#1e4384"/><path d="M203.88,380.54H164.12a2.26,2.26,0,0,0,0,4.52h39.76a2.26,2.26,0,1,0,0-4.52Z" style="fill:#1e4384"/><rect x="308.17" y="380.54" width="44.29" height="4.52" rx="2.26" style="fill:#1e4384"/><path d="M350.19,380.54H310.43a2.26,2.26,0,0,0,0,4.52h39.76a2.26,2.26,0,0,0,0-4.52Z" style="fill:#1e4384"/><rect x="244.71" y="380.54" width="24.89" height="4.52" rx="2.26" style="fill:#1e4384"/><path d="M267.34,380.54H247a2.26,2.26,0,1,0,0,4.52h20.37a2.26,2.26,0,1,0,0-4.52Z" style="fill:#1e4384"/><path d="M172.49,412h-6.24a4.4,4.4,0,0,0,0,8.79h6.24a4.4,4.4,0,0,0,0-8.79Z" style="fill:#1e4384"/><path d="M201.75,412h-6.23a4.4,4.4,0,1,0,0,8.79h6.23a4.4,4.4,0,0,0,0-8.79Z" style="fill:#1e4384"/><path d="M318.8,412h-6.24a4.4,4.4,0,0,0,0,8.79h6.24a4.4,4.4,0,0,0,0-8.79Z" style="fill:#1e4384"/><path d="M348.06,412h-6.24a4.4,4.4,0,0,0,0,8.79h6.24a4.4,4.4,0,0,0,0-8.79Z" style="fill:#1e4384"/></svg>