<svg id="icon" xmlns="http://www.w3.org/2000/svg" viewBox="0 0 512 512"><path d="M490.67,256A235.08,235.08,0,0,1,375.49,458q-3.92,2.33-7.92,4.49a235.15,235.15,0,0,1-36.47,15.9l-1.65.53c-1.44.5-2.89,1-4.35,1.4h0q-7.8,2.4-15.82,4.27c-2.8.65-5.61,1.24-8.43,1.8A235.58,235.58,0,0,1,260,490.63l-2.73,0H256q-9.33,0-18.5-.73-8.19-.63-16.26-1.84c-2-.29-4-.62-6-1h0a232,232,0,0,1-27-6.42q-1.9-.57-3.78-1.17c-1.32-.42-2.63-.86-3.94-1.3-2.22-.75-4.43-1.54-6.62-2.35A233.74,233.74,0,0,1,142,461.14c-1.41-.8-2.82-1.6-4.21-2.44-.8-.45-1.61-.93-2.39-1.41q-4.49-2.67-8.85-5.56c-2.22-1.48-4.44-3-6.61-4.55a236.24,236.24,0,0,1-22.51-18.24q-4.81-4.43-9.4-9.13c-2.25-2.31-4.47-4.66-6.61-7.07q-7.44-8.3-14.09-17.27c-4.09-5.5-7.92-11.21-11.53-17.06-1.27-2.11-2.53-4.21-3.74-6.35h0a233.24,233.24,0,0,1-27.58-77.91,225.42,225.42,0,0,1-2.56-22.47c0-.19,0-.38-.05-.56-.19-3-.33-6.09-.39-9.15q-.11-3-.1-6a234,234,0,0,1,13.23-77.82c.13-.41.26-.81.42-1.2q2.63-7.33,5.71-14.43c.44-1,.91-2.06,1.37-3.09a234.76,234.76,0,0,1,427.07-1.79c2.49,5.37,4.76,10.86,6.85,16.45q2.1,5.59,3.89,11.32a232.69,232.69,0,0,1,9.92,50.2C490.37,242.33,490.67,249.14,490.67,256Z" style="fill:#005596"/><path d="M415.46,427.94A235.21,235.21,0,0,1,375.27,458l-42.53-39-11.34-11.9s4.65,40.67,7.84,71.84c-1.45.5-2.9,1-4.36,1.4h0q-7.8,2.4-15.83,4.27c-2.79.65-5.6,1.24-8.42,1.8a235.69,235.69,0,0,1-40.85,4.24l-2.73,0h-1.25q-9.33,0-18.49-.73-8.2-.63-16.27-1.84c-2-.29-4-.62-6-1h0a232.53,232.53,0,0,1-27-6.42l-3.78-1.17c3.2-31.25,7.92-72.47,7.92-72.47L180.82,419,137.53,458.7c-.8-.45-1.6-.93-2.39-1.41q-4.48-2.67-8.84-5.56c-2.23-1.48-4.44-3-6.61-4.55a236.24,236.24,0,0,1-22.51-18.24l20.76-22.54,58.12-56.7,4.77-4.05.06.07a37.63,37.63,0,0,1,23.7-8.33H308.94a37.65,37.65,0,0,1,23.73,8.33l.06-.07,4.76,4.05,58.13,56.7Z" style="fill:#c1d82f"/><path d="M303.11,78.28l-12.48,38.4a2.47,2.47,0,0,1-4.69-1.53l12.48-38.4a2.42,2.42,0,0,1,1.22-1.44,2.46,2.46,0,0,1,1.12-.27,2.31,2.31,0,0,1,.77.13A2.43,2.43,0,0,1,303,76.39,2.48,2.48,0,0,1,303.11,78.28Z" style="fill:#fff"/><path d="M342.82,99.51l-23.73,32.66a2.47,2.47,0,0,1-3.45.55,2.48,2.48,0,0,1-.55-3.45L338.82,96.6a2.49,2.49,0,0,1,2-1,2.47,2.47,0,0,1,2.43,2.08A2.47,2.47,0,0,1,342.82,99.51Z" style="fill:#fff"/><path d="M374,132,341.36,155.7a2.46,2.46,0,0,1-3.45-.54,2.47,2.47,0,0,1,.55-3.45L371.12,128a2.47,2.47,0,1,1,2.9,4Z" style="fill:#fff"/><path d="M393.67,172.49,355.27,185a2.47,2.47,0,0,1-1.53-4.69l38.4-12.48a2.53,2.53,0,0,1,.77-.12,2.5,2.5,0,0,1,1.12.27,2.48,2.48,0,0,1-.36,4.55Z" style="fill:#fff"/><path d="M402.3,214.62a2.48,2.48,0,0,1-2.47,2.47H359.45a2.47,2.47,0,0,1,0-4.94h40.38A2.48,2.48,0,0,1,402.3,214.62Z" style="fill:#fff"/><path d="M395,259.83a2.48,2.48,0,0,1-3.11,1.59l-38.4-12.48a2.47,2.47,0,0,1-.36-4.55,2.43,2.43,0,0,1,1.12-.27,2.46,2.46,0,0,1,.76.12l38.41,12.48a2.45,2.45,0,0,1,1.43,1.23A2.42,2.42,0,0,1,395,259.83Z" style="fill:#fff"/><path d="M374.6,299.14a2.43,2.43,0,0,1-.47,1.44,2.48,2.48,0,0,1-3.45.55L338,277.39a2.47,2.47,0,0,1-.54-3.45,2.43,2.43,0,0,1,1.61-1l.39,0a2.46,2.46,0,0,1,1.45.47l32.66,23.73A2.49,2.49,0,0,1,374.6,299.14Z" style="fill:#fff"/><path d="M174.41,275.17a2.4,2.4,0,0,1-1,1.61l-32.66,23.74a2.48,2.48,0,0,1-3.45-.55,2.47,2.47,0,0,1,.55-3.45l32.66-23.73a2.48,2.48,0,0,1,3.45.54A2.43,2.43,0,0,1,174.41,275.17Z" style="fill:#fff"/><path d="M159.58,247a2.45,2.45,0,0,1-1.44,1.22l-38.4,12.48a2.47,2.47,0,0,1-1.53-4.7l38.4-12.47a2.44,2.44,0,0,1,1.89.15,2.48,2.48,0,0,1,1.08,3.32Z" style="fill:#fff"/><path d="M154.89,213.87a2.47,2.47,0,0,1-2.46,2.47H112.05a2.47,2.47,0,0,1,0-4.94h40.38A2.47,2.47,0,0,1,154.89,213.87Z" style="fill:#fff"/><path d="M160,182.66a2.48,2.48,0,0,1-3.12,1.59l-38.4-12.48a2.46,2.46,0,0,1-1.7-2.35,2.51,2.51,0,0,1,.12-.76A2.48,2.48,0,0,1,119.2,167a2.27,2.27,0,0,1,.77.13l38.4,12.47A2.47,2.47,0,0,1,160,182.66Z" style="fill:#fff"/><path d="M174.41,154.55a2.47,2.47,0,0,1-3.45.54L138.3,131.36a2.46,2.46,0,0,1-1-1.61,2.56,2.56,0,0,1,0-.39,2.46,2.46,0,0,1,.47-1.45,2.5,2.5,0,0,1,1.61-1,2.56,2.56,0,0,1,.39,0,2.47,2.47,0,0,1,1.45.48l32.67,23.73A2.47,2.47,0,0,1,174.41,154.55Z" style="fill:#fff"/><path d="M197.84,130.67a2.47,2.47,0,0,1-4.44,1.06L169.67,99.06a2.47,2.47,0,0,1,2-3.91,2.46,2.46,0,0,1,2,1l23.74,32.67A2.45,2.45,0,0,1,197.84,130.67Z" style="fill:#fff"/><path d="M226.51,116.8a2.44,2.44,0,0,1-1.44,1.23,2.47,2.47,0,0,1-3.11-1.59L209.48,78a2.47,2.47,0,1,1,4.7-1.52l12.48,38.4A2.46,2.46,0,0,1,226.51,116.8Z" style="fill:#fff"/><path d="M258.79,70.35v40.38a2.47,2.47,0,0,1-4.94,0V70.35a2.47,2.47,0,0,1,4.94,0Z" style="fill:#fff"/><rect x="232.15" y="344.27" width="48.44" height="5.77" rx="2.88" style="fill:#005596"/><rect x="232.15" y="354.08" width="48.44" height="5.77" rx="2.88" style="fill:#005596"/><path d="M280.6,366.78a2.89,2.89,0,0,1-2.88,2.88H235a2.88,2.88,0,1,1,0-5.76h42.7A2.89,2.89,0,0,1,280.6,366.78Z" style="fill:#005596"/><path d="M264.16,374.32a7.79,7.79,0,0,1-15.58,0,2.43,2.43,0,0,1,0-.61h15.48A2.43,2.43,0,0,1,264.16,374.32Z" style="fill:#005596"/><path d="M312.19,267.32c-15.95,16.27-25.88,37.51-29.52,60h0a2.55,2.55,0,0,1-2.51,2.14H232.58a2.56,2.56,0,0,1-2.52-2.13l-.27-1.64c-3.64-22.44-14.56-42.85-30.2-59.37a78.18,78.18,0,0,1,61.89-131.72c38.24,2.43,69.59,33.1,72.76,71.29A78.08,78.08,0,0,1,312.19,267.32Z" style="fill:#fff"/><path d="M272.61,329.46V293a12.85,12.85,0,0,0-7.17-11.55,12.14,12.14,0,0,0-5.37-1.36,1.63,1.63,0,0,0-.37,0H253a1.42,1.42,0,0,0-.34,0,12.19,12.19,0,0,0-5.39,1.36A12.86,12.86,0,0,0,240.11,293v36.51H245V293a8,8,0,0,1,4-7,5.1,5.1,0,0,1,.92-.42,4.14,4.14,0,0,1,1-.34,5.59,5.59,0,0,1,1-.21,6.51,6.51,0,0,1,1.07-.08h6.68a7.72,7.72,0,0,1,2.1.29,6.69,6.69,0,0,1,1.88.76,8.05,8.05,0,0,1,4,7v36.51Z" style="fill:#005596"/><path d="M302.45,199.6c-5.94-2.34-12.82,2.33-15.58,10.22C286.63,210.53,280,228,280,228a43.75,43.75,0,0,1-19.54-8.21c4.57-4,7.6-8.38,7.52-15.16.25-7.57-4.89-15.53-11.5-15.29-6.61-.22-11.72,7.67-11.5,15.29-.1,6.76,3,11.4,7.79,15.21a43.37,43.37,0,0,1-20,8.53s-6.73-17.6-6.93-18.16a17.78,17.78,0,0,0-6.12-8.6c-7.42-5.58-16.12.07-16,9.19.12,13.44,11.28,23.32,25.11,22.8l18.36,47.78,1.77,4.6a7.82,7.82,0,0,1,4-1.06h1.55l-1.89-4.89-18-46.94a49.87,49.87,0,0,0,22-10,48.68,48.68,0,0,0,21.6,9.56l-18.21,47.41L258.17,285h1.52a8,8,0,0,1,4,1.06l1.77-4.6L284,233.17c11.36.27,21.58-6.17,24.21-17C310.12,210.16,308.43,201.59,302.45,199.6Zm-81.56,27.94a17.49,17.49,0,0,1-12.1-15.16c-.32-3.74,1-7,3.4-7.84a5.37,5.37,0,0,1,4.71,1.08,12.83,12.83,0,0,1,4.38,6.22c.22.63,5.73,16.81,5.73,16.81A21.94,21.94,0,0,1,220.89,227.54ZM256.52,216s-6.41-4.67-6.41-11.35c0-13.49,12.83-13.47,12.83,0C262.94,211.3,256.52,216,256.52,216ZM304,212a9,9,0,0,1-.14,1.15c-1.23,8.85-9.24,15-18,15.14,0,0,5.38-16.05,5.65-16.83C294.71,201.93,304.74,201,304,212Z" style="fill:#005596"/></svg>