<svg id="icon" xmlns="http://www.w3.org/2000/svg" viewBox="0 0 512 512"><path d="M256,487.17A231.17,231.17,0,0,1,92.54,92.54,231.17,231.17,0,1,1,419.46,419.46,229.66,229.66,0,0,1,256,487.17Z" style="fill:#fff"/><path d="M256,28.33a227.74,227.74,0,0,1,88.62,437.45A227.73,227.73,0,0,1,167.38,46.22,226.27,226.27,0,0,1,256,28.33m0-7C126.4,21.33,21.33,126.4,21.33,256S126.4,490.67,256,490.67,490.67,385.6,490.67,256,385.6,21.33,256,21.33Z" style="fill:#005596"/><path d="M414.07,425l-1.84,1.69A232.11,232.11,0,0,1,375,454.29l-2.25,1.33-39.45-36.56L322,407.16s4.14,38,7.26,67.84l-2.43.81a233.75,233.75,0,0,1-139,1.16l-2.43-.78c3.14-30.05,7.36-69,7.36-69l-11.33,11.9-40.46,37.1c-.76-.43-1.51-.86-2.26-1.31a224.8,224.8,0,0,1-36.77-27c-.62-.56-1.24-1.11-1.85-1.68l18.46-19.68,58.12-56.69,4.77-4.06.06.08a37.64,37.64,0,0,1,23.7-8.34H309.51a37.66,37.66,0,0,1,23.73,8.34l4.82,4,58.13,56.69Z" style="fill:#fff;stroke:#005596;stroke-miterlimit:10;stroke-width:7px"/><path d="M288.85,121.45a5.43,5.43,0,0,1-4.86-3,5.42,5.42,0,0,1-.33-4.16l12.47-38.41a5.46,5.46,0,0,1,5.21-3.78,5.32,5.32,0,0,1,1.68.27,5.48,5.48,0,0,1,3.52,6.89l-12.48,38.41A5.45,5.45,0,0,1,288.85,121.45Z" style="fill:#fff"/><path d="M301.34,74.11a3.56,3.56,0,0,1,1.06.17,3.47,3.47,0,0,1,2.23,4.37l-12.48,38.41a3.46,3.46,0,0,1-3.3,2.39,3.37,3.37,0,0,1-1.07-.17,3.47,3.47,0,0,1-2.22-4.37L298,76.51a3.5,3.5,0,0,1,3.31-2.4m0-4h0a7.46,7.46,0,0,0-7.11,5.17l-12.47,38.4a7.46,7.46,0,0,0,4.79,9.41,7.24,7.24,0,0,0,2.3.36,7.43,7.43,0,0,0,7.11-5.16l12.48-38.4a7.48,7.48,0,0,0-7.1-9.78Z" style="fill:#005596"/><path d="M317.65,136.26a5.42,5.42,0,0,1-3.19-1,5.48,5.48,0,0,1-1.23-7.65L337,94.92a5.48,5.48,0,0,1,4.43-2.26,5.39,5.39,0,0,1,3.21,1,5.47,5.47,0,0,1,1.22,7.62L322.08,134a5.45,5.45,0,0,1-3.55,2.19A6,6,0,0,1,317.65,136.26Z" style="fill:#fff"/><path d="M341.4,94.66a3.4,3.4,0,0,1,2,.66,3.47,3.47,0,0,1,.77,4.84l-23.74,32.67a3.44,3.44,0,0,1-2.26,1.39,3.39,3.39,0,0,1-.55,0,3.47,3.47,0,0,1-2.8-5.51l23.74-32.66a3.48,3.48,0,0,1,2.81-1.43m0-4h0a7.47,7.47,0,0,0-6,3.09L311.62,126.4a7.46,7.46,0,0,0,6,11.86,7.86,7.86,0,0,0,1.22-.09,7.43,7.43,0,0,0,4.84-3l23.73-32.66a7.47,7.47,0,0,0-6-11.85Z" style="fill:#005596"/><path d="M340.48,159.25a5.81,5.81,0,0,1-.86-.07,5.47,5.47,0,0,1-2.35-9.83l32.66-23.73a5.39,5.39,0,0,1,3.2-1,5.22,5.22,0,0,1,.88.07,5.45,5.45,0,0,1,3.56,2.17,5.49,5.49,0,0,1-1.21,7.65L343.7,158.2A5.39,5.39,0,0,1,340.48,159.25Z" style="fill:#fff"/><path d="M373.13,126.58a3.52,3.52,0,0,1,.56,0A3.43,3.43,0,0,1,376,128a3.48,3.48,0,0,1-.77,4.85l-32.66,23.73a3.44,3.44,0,0,1-2,.67,3.51,3.51,0,0,1-.55-.05,3.47,3.47,0,0,1-1.49-6.23l32.66-23.73a3.47,3.47,0,0,1,2-.66m0-4h0a7.31,7.31,0,0,0-4.39,1.44l-32.65,23.72a7.47,7.47,0,0,0,3.24,13.42,7.72,7.72,0,0,0,1.15.09,7.43,7.43,0,0,0,4.41-1.44l32.64-23.72a7.47,7.47,0,0,0,1.68-10.4v0l0,0a7.38,7.38,0,0,0-4.88-3,7.31,7.31,0,0,0-1.17-.09Z" style="fill:#005596"/><path d="M355.08,188.16a5.48,5.48,0,0,1-4.88-7.95,5.38,5.38,0,0,1,3.2-2.72L391.79,165a5.38,5.38,0,0,1,1.69-.27,5.49,5.49,0,0,1,5.2,3.78,5.48,5.48,0,0,1-3.5,6.89l-38.41,12.48A5.46,5.46,0,0,1,355.08,188.16Z" style="fill:#fff"/><path d="M393.48,166.74a3.47,3.47,0,0,1,1.07,6.77L356.15,186a3.67,3.67,0,0,1-1.07.17,3.47,3.47,0,0,1-1.08-6.77l38.4-12.48a3.69,3.69,0,0,1,1.08-.17m0-4h0a7.36,7.36,0,0,0-2.32.37l-38.39,12.48a7.47,7.47,0,0,0,2.31,14.57,7.62,7.62,0,0,0,2.24-.34h.07l38.4-12.48a7.47,7.47,0,0,0-2.31-14.58Z" style="fill:#005596"/><path d="M360,220.16a5.47,5.47,0,0,1,0-10.94H400.4a5.47,5.47,0,1,1,0,10.94Z" style="fill:#fff"/><path d="M400.4,211.22a3.47,3.47,0,1,1,0,6.94H360a3.47,3.47,0,0,1,0-6.94H400.4m0-4H360a7.47,7.47,0,0,0,0,14.94H400.4a7.47,7.47,0,1,0,0-14.94Z" style="fill:#005596"/><path d="M393.25,264.61a5.71,5.71,0,0,1-1.68-.26l-38.42-12.48a5.48,5.48,0,0,1,1.69-10.68,5.37,5.37,0,0,1,1.68.27l38.42,12.48a5.45,5.45,0,0,1,3.17,2.71,5.47,5.47,0,0,1-2.37,7.36A5.56,5.56,0,0,1,393.25,264.61Z" style="fill:#fff"/><path d="M354.84,243.19a3.57,3.57,0,0,1,1.07.17l38.41,12.48a3.46,3.46,0,0,1,2,1.72,3.4,3.4,0,0,1,.21,2.65,3.44,3.44,0,0,1-1.72,2,3.49,3.49,0,0,1-1.57.38,3.64,3.64,0,0,1-1.08-.17L353.77,250a3.44,3.44,0,0,1-2-1.72,3.48,3.48,0,0,1,3.09-5.05m0-4a7.53,7.53,0,0,0-3.39.82,7.44,7.44,0,0,0-3.71,4.33,7.53,7.53,0,0,0,.44,5.71,7.42,7.42,0,0,0,4.38,3.72l38.38,12.48a7.83,7.83,0,0,0,2.31.36,7.46,7.46,0,0,0,7.1-5.18,7.34,7.34,0,0,0-.47-5.71,7.42,7.42,0,0,0-4.3-3.68l-38.43-12.48a7.44,7.44,0,0,0-2.31-.37Z" style="fill:#005596"/><path d="M372.69,304.67a5.41,5.41,0,0,1-3.21-1.05l-32.66-23.73a5.47,5.47,0,0,1,2.37-9.82,4.87,4.87,0,0,1,.87-.07,5.38,5.38,0,0,1,3.2,1.05l32.66,23.72a5.49,5.49,0,0,1,1.21,7.64,5.39,5.39,0,0,1-3.59,2.19A4.88,4.88,0,0,1,372.69,304.67Z" style="fill:#fff"/><path d="M340.06,272a3.41,3.41,0,0,1,2,.66l32.67,23.73a3.48,3.48,0,0,1,.77,4.85,3.46,3.46,0,0,1-4.85.76L338,278.27a3.47,3.47,0,0,1,1.5-6.23,3.64,3.64,0,0,1,.57,0m0-4a8.11,8.11,0,0,0-1.21.09,7.48,7.48,0,0,0-3.19,13.43l32.65,23.72a7.42,7.42,0,0,0,4.38,1.43,6.88,6.88,0,0,0,1.18-.1,7.43,7.43,0,0,0,4.87-3,7.5,7.5,0,0,0-1.64-10.45l-32.68-23.73a7.28,7.28,0,0,0-4.36-1.43Z" style="fill:#005596"/><path d="M139.88,304.06a5.49,5.49,0,0,1-4.42-2.25,5.48,5.48,0,0,1,1.2-7.64l32.67-23.74a5.4,5.4,0,0,1,3.21-1,4.88,4.88,0,0,1,.85.07,5.4,5.4,0,0,1,3.59,2.19,5.47,5.47,0,0,1-1.23,7.64L143.1,303A5.49,5.49,0,0,1,139.88,304.06Z" style="fill:#fff"/><path d="M172.54,271.39a3.42,3.42,0,0,1,2.81,1.43,3.46,3.46,0,0,1-.77,4.84L141.92,301.4a3.47,3.47,0,0,1-4.08-5.62l32.66-23.73a3.43,3.43,0,0,1,2-.66m0-4h0a7.38,7.38,0,0,0-4.4,1.44l-32.65,23.72a7.47,7.47,0,0,0,8.75,12.11l32.69-23.76a7.47,7.47,0,0,0-3.23-13.42,7.65,7.65,0,0,0-1.16-.09Z" style="fill:#005596"/><path d="M119.55,263.89a5.47,5.47,0,0,1-5.21-3.78,5.56,5.56,0,0,1-.27-1.68,5.47,5.47,0,0,1,3.78-5.21l38.4-12.47a5.49,5.49,0,0,1,1.7-.27,5.42,5.42,0,0,1,2.49.61,5.32,5.32,0,0,1,2.71,3.17,5.46,5.46,0,0,1-3.52,6.89l-38.39,12.48A5.53,5.53,0,0,1,119.55,263.89Z" style="fill:#fff"/><path d="M158,242.48a3.46,3.46,0,0,1,1.57.38,3.39,3.39,0,0,1,1.72,2,3.45,3.45,0,0,1-2.22,4.37l-38.4,12.48a3.37,3.37,0,0,1-1.07.17,3.48,3.48,0,0,1-3.31-2.4,3.56,3.56,0,0,1-.17-1.06,3.49,3.49,0,0,1,2.4-3.31l38.4-12.47a3.69,3.69,0,0,1,1.08-.17m0-4h0a7.42,7.42,0,0,0-2.33.37l-38.38,12.47a7.47,7.47,0,0,0,2.31,14.57,7.35,7.35,0,0,0,2.34-.37l38.37-12.47a7.37,7.37,0,0,0,4.35-3.72,7.48,7.48,0,0,0,.44-5.7,7.38,7.38,0,0,0-3.72-4.34,7.52,7.52,0,0,0-3.38-.81Z" style="fill:#005596"/><path d="M112.62,219.41a5.47,5.47,0,0,1,0-10.94H153a5.47,5.47,0,0,1,0,10.94Z" style="fill:#fff"/><path d="M153,210.47a3.47,3.47,0,0,1,0,6.94H112.62a3.47,3.47,0,0,1,0-6.94H153m0-4H112.62a7.47,7.47,0,0,0,0,14.94H153a7.47,7.47,0,0,0,0-14.94Z" style="fill:#005596"/><path d="M158.18,187.44a5.7,5.7,0,0,1-1.67-.26l-38.43-12.49a5.47,5.47,0,0,1-.79-10.07,5.57,5.57,0,0,1,2.49-.6,5.37,5.37,0,0,1,1.68.27l38.41,12.48a5.42,5.42,0,0,1,3.18,2.72,5.36,5.36,0,0,1,.33,4.17A5.45,5.45,0,0,1,158.18,187.44Z" style="fill:#fff"/><path d="M119.78,166a3.57,3.57,0,0,1,1.07.17l38.4,12.48a3.47,3.47,0,0,1-1.07,6.77,3.57,3.57,0,0,1-1.07-.17L118.7,172.79a3.47,3.47,0,0,1-.5-6.39,3.53,3.53,0,0,1,1.58-.38m0-4a7.47,7.47,0,0,0-7.11,5.19,7.47,7.47,0,0,0,4.82,9.39l38.39,12.48a7.81,7.81,0,0,0,2.3.36,7.46,7.46,0,0,0,6.65-10.86,7.38,7.38,0,0,0-4.34-3.71l-38.4-12.48a7.44,7.44,0,0,0-2.31-.37Z" style="fill:#005596"/><path d="M173,158.63a5.39,5.39,0,0,1-3.22-1l-32.65-23.72a5.46,5.46,0,0,1-1.21-7.64,5.38,5.38,0,0,1,3.58-2.18,4.83,4.83,0,0,1,.86-.07,5.39,5.39,0,0,1,3.21,1l32.66,23.72a5.49,5.49,0,0,1,1.2,7.65A5.42,5.42,0,0,1,173,158.63Z" style="fill:#fff"/><path d="M140.34,126a3.37,3.37,0,0,1,2,.66L175,150.36a3.47,3.47,0,0,1-2.05,6.27,3.4,3.4,0,0,1-2-.66l-32.67-23.73a3.46,3.46,0,0,1-.77-4.84,3.44,3.44,0,0,1,2.27-1.39,3.6,3.6,0,0,1,.56,0m0-4a7.06,7.06,0,0,0-1.21.1,7.47,7.47,0,0,0-6.19,8.51,7.49,7.49,0,0,0,3,4.89l32.68,23.74a7.39,7.39,0,0,0,4.38,1.42,7.46,7.46,0,0,0,4.42-13.49L144.71,123.4a7.28,7.28,0,0,0-4.37-1.43Z" style="fill:#005596"/><path d="M196,135.82a5.49,5.49,0,0,1-4.42-2.25L167.81,100.9A5.46,5.46,0,0,1,169,93.26a5.39,5.39,0,0,1,3.2-1,5.48,5.48,0,0,1,4.43,2.25l23.74,32.67a5.48,5.48,0,0,1-1.2,7.64A5.55,5.55,0,0,1,196,135.82Z" style="fill:#fff"/><path d="M172.23,94.22A3.45,3.45,0,0,1,175,95.64l23.74,32.67a3.47,3.47,0,0,1-5.62,4.08L169.43,99.72a3.46,3.46,0,0,1,.77-4.84,3.42,3.42,0,0,1,2-.66m0-4h0a7.47,7.47,0,0,0-6,11.84l23.74,32.68a7.47,7.47,0,0,0,10.4,1.68h0l0,0A7.47,7.47,0,0,0,202,126L178.28,93.29a7.51,7.51,0,0,0-6.05-3.07Z" style="fill:#005596"/><path d="M224.88,121.22a5.49,5.49,0,0,1-5.2-3.77L207.2,79a5.47,5.47,0,1,1,10.4-3.38l12.48,38.4a5.45,5.45,0,0,1-3.5,6.89A5.79,5.79,0,0,1,224.88,121.22Z" style="fill:#fff"/><path d="M212.4,73.88a3.47,3.47,0,0,1,3.3,2.4l12.48,38.4a3.47,3.47,0,0,1-2.23,4.37,3.57,3.57,0,0,1-1.07.17,3.49,3.49,0,0,1-3.3-2.4L209.1,78.42a3.47,3.47,0,0,1,2.23-4.37,3.57,3.57,0,0,1,1.07-.17m0-4A7.5,7.5,0,0,0,205.75,74a7.39,7.39,0,0,0-.45,5.7l12.48,38.4a7.49,7.49,0,0,0,7.1,5.16,7.73,7.73,0,0,0,2.27-.35h.06a7.47,7.47,0,0,0,4.77-9.42L219.51,75.05a7.47,7.47,0,0,0-7.11-5.17Z" style="fill:#005596"/><path d="M256.89,116.27a5.48,5.48,0,0,1-5.47-5.47V70.42a5.47,5.47,0,0,1,10.94,0V110.8A5.47,5.47,0,0,1,256.89,116.27Z" style="fill:#fff"/><path d="M256.89,67a3.48,3.48,0,0,1,3.47,3.47V110.8a3.47,3.47,0,0,1-6.94,0V70.42A3.47,3.47,0,0,1,256.89,67m0-4a7.48,7.48,0,0,0-7.47,7.47V110.8a7.47,7.47,0,0,0,14.94,0V70.42A7.48,7.48,0,0,0,256.89,63Z" style="fill:#005596"/><rect x="232.72" y="344.34" width="48.44" height="5.77" rx="2.88" style="fill:#005596"/><rect x="232.72" y="354.15" width="48.44" height="5.77" rx="2.88" style="fill:#005596"/><path d="M281.17,366.85a2.89,2.89,0,0,1-2.88,2.88H235.6a2.88,2.88,0,0,1,0-5.76h42.69A2.89,2.89,0,0,1,281.17,366.85Z" style="fill:#005596"/><path d="M264.73,374.39a7.79,7.79,0,0,1-15.58,0,2.32,2.32,0,0,1,0-.6h15.48A2.32,2.32,0,0,1,264.73,374.39Z" style="fill:#005596"/><path d="M234,326l-.15-.84c-3.62-22.36-14.38-43.53-31.1-61.21A74.66,74.66,0,0,1,257,138c1.61,0,3.25,0,4.86.15,36.59,2.33,66.47,31.61,69.5,68.09A75,75,0,0,1,310.26,265c-15.85,16.16-26.33,37.27-30.34,61.09Z" style="fill:#fff"/><path d="M257,134.52v7c1.54,0,3.1,0,4.64.15a71.16,71.16,0,0,1,46.15,120.82c-15.7,16-26.29,36.7-30.77,60.06H236.91c-4.06-22.29-15-43.33-31.66-61A71.17,71.17,0,0,1,257,141.52v-7m0,0A78.17,78.17,0,0,0,200.16,266.4c15.64,16.52,26.56,36.93,30.2,59.37l.28,1.65a2.54,2.54,0,0,0,2.51,2.13h47.58a2.55,2.55,0,0,0,2.51-2.15c3.64-22.5,13.57-43.74,29.52-60A78,78,0,0,0,334.81,206c-3.16-38.18-34.52-68.85-72.76-71.29-1.71-.11-3.4-.16-5.08-.16Z" style="fill:#005596"/><path d="M303,199.67c-5.94-2.34-12.82,2.33-15.58,10.22-.24.71-6.83,18.21-6.83,18.21a43.75,43.75,0,0,1-19.54-8.21c4.57-4,7.6-8.38,7.52-15.16.25-7.57-4.89-15.53-11.5-15.29-6.61-.22-11.72,7.67-11.5,15.29-.1,6.76,3,11.4,7.79,15.21a43.37,43.37,0,0,1-20,8.53s-6.73-17.6-6.93-18.16a17.78,17.78,0,0,0-6.12-8.6c-7.42-5.58-16.12.07-16,9.19.12,13.44,11.28,23.32,25.11,22.8l18.36,47.78A12.86,12.86,0,0,0,240.68,293v36.51h4.9V293a8,8,0,0,1,4-7,6.08,6.08,0,0,1,.68-.33l.08,0,.32-.14.33-.12a2.72,2.72,0,0,1,.38-.11l.25-.07a6.51,6.51,0,0,1,.88-.17,6.39,6.39,0,0,1,1.06-.08h6.68a7.57,7.57,0,0,1,2.08.29h0a6.69,6.69,0,0,1,1.88.76,8.05,8.05,0,0,1,4,7v36.51h4.89V293A12.85,12.85,0,0,0,266,281.47l18.53-48.23c11.36.27,21.58-6.17,24.21-17C310.69,210.23,309,201.66,303,199.67Zm-81.56,27.94a17.49,17.49,0,0,1-12.1-15.16c-.32-3.74,1-7,3.4-7.84a5.37,5.37,0,0,1,4.71,1.08,12.83,12.83,0,0,1,4.38,6.22c.22.63,5.73,16.81,5.73,16.81A21.94,21.94,0,0,1,221.46,227.61Zm29.22-22.88c0-13.49,12.83-13.47,12.83,0,0,6.64-6.42,11.35-6.42,11.35S250.68,211.41,250.68,204.73Zm10,75.38a1.63,1.63,0,0,0-.37,0h-6.68a1.42,1.42,0,0,0-.34,0l-18-46.92a49.87,49.87,0,0,0,22-10,48.68,48.68,0,0,0,21.6,9.56ZM304.57,212a9,9,0,0,1-.14,1.15c-1.23,8.85-9.24,15-18,15.14,0,0,5.38-16,5.65-16.83C295.28,202,305.31,201.07,304.57,212Z" style="fill:#005596"/></svg>