<svg id="icon" xmlns="http://www.w3.org/2000/svg" viewBox="0 0 512 512"><path d="M256,487.17A231.17,231.17,0,0,1,92.54,92.54,231.17,231.17,0,1,1,419.46,419.46,229.66,229.66,0,0,1,256,487.17Z" style="fill:#fff"/><path d="M256,28.33a227.74,227.74,0,0,1,88.62,437.45A227.73,227.73,0,0,1,167.38,46.22,226.27,226.27,0,0,1,256,28.33m0-7C126.4,21.33,21.33,126.4,21.33,256S126.4,490.67,256,490.67,490.67,385.6,490.67,256,385.6,21.33,256,21.33Z" style="fill:#005596"/><path d="M290.56,385.74c14.5-7.36,122.6-62.26,145.74-74.05a2.84,2.84,0,0,0,.25-4.92l-201-124.63" style="fill:none;stroke:#005596;stroke-linecap:round;stroke-linejoin:round;stroke-width:11px"/><polygon points="90.99 248.46 92.68 216.45 231.64 149.77 430.73 274.93 428.45 315.3 289.24 386.14 90.99 248.46" style="fill:#fff"/><path d="M231.48,152.62,428.15,276.26,426,313.72,289.44,383.24,93.56,247.2l1.54-29.14,136.38-65.44m.33-5.71-2.49,1.2L92.94,213.55l-2.68,1.28-.15,3-1.55,29.14-.14,2.78,2.28,1.59,195.88,136,2.46,1.71,2.66-1.36,136.6-69.51,2.56-1.31L431,314l2.12-37.46.16-2.95L430.82,272,234.14,148.38l-2.33-1.47Z" style="fill:#005596"/><path d="M287.41,386.92a7.07,7.07,0,0,1-3.85-1.14l-192-124.84a6.93,6.93,0,0,1-3.14-6.17l2.22-41.93a7.11,7.11,0,0,1,3.85-5.94L233.7,136.05a9.76,9.76,0,0,1,4.36-1.05,9.6,9.6,0,0,1,5.25,1.56L438.79,257.77a6.77,6.77,0,0,1-.54,11.75c-14,7.13-63.66,32.37-139.89,71.08l-1.44.74c-.54,8.8-2.44,39-2.44,39a7.09,7.09,0,0,1-7.07,6.63Z" style="fill:#fff"/><path d="M238.06,139a5.67,5.67,0,0,1,3.07.91L436.68,261.17a2.77,2.77,0,0,1-.25,4.79c-22.51,11.47-127.69,64.89-141.8,72.05a3.08,3.08,0,0,0-1.67,2.55c-.49,8-2.47,39.48-2.47,39.48a3.07,3.07,0,0,1-3.08,2.88,3,3,0,0,1-1.67-.5l-192-124.84a2.91,2.91,0,0,1-1.33-2.6l2.22-41.93a3.08,3.08,0,0,1,1.68-2.58l139.23-70.86a5.69,5.69,0,0,1,2.54-.61m0-8a13.78,13.78,0,0,0-6.17,1.48L92.66,203.34a11.11,11.11,0,0,0-6,9.28L84.4,254.56a11,11,0,0,0,5,9.73l192,124.84a11.08,11.08,0,0,0,17.1-8.58c0-.29,1.63-25.95,2.29-36.68,20.14-10.23,117.73-59.79,139.3-70.79a10.76,10.76,0,0,0,1-18.62l-.07,0-.08,0L245.4,133.15a13.53,13.53,0,0,0-7.34-2.15Z" style="fill:#005596"/><line x1="286.55" y1="334.61" x2="103.99" y2="215.92" style="fill:#005596;stroke:#005596;stroke-linecap:round;stroke-linejoin:round;stroke-width:7px"/><path d="M252.41,391.68l-8.14,11.43a1.94,1.94,0,0,1-2.52.74L67.2,290.71C68.38,289,76.89,277.12,77.65,276L252.2,389.17A1.75,1.75,0,0,1,252.41,391.68Z" style="fill:#fff;stroke:#005596;stroke-miterlimit:10;stroke-width:4px"/><line x1="244.42" y1="394.93" x2="72.36" y2="283.43" style="fill:none;stroke:#005596;stroke-miterlimit:10;stroke-width:3.70663467256878px"/><path d="M53.94,271.39h0c-2.89,4-2.19,9.31,1.56,11.75l13.41,8.73,10.47-14.66L66,268.48C62.22,266,56.84,267.34,53.94,271.39Z" style="fill:#fff;stroke:#005596;stroke-miterlimit:10;stroke-width:3.70663467256878px"/><path d="M53.94,271.38h0c-2.88,4.06-2.53,9.09.78,11.23l6,3.88L71.16,271.8l-6-3.88C61.85,265.78,56.83,267.33,53.94,271.38Z" style="fill:#fff;stroke:#005596;stroke-miterlimit:10;stroke-width:3.70663467256878px"/><path d="M241.27,403.24l2.67-8.62,7.5-5.67c.12-.16.58,0,.84.27l21.89,23.6c1,1,.09,2.25-1.27,1.78l-31-10.72C241.47,403.76,241.16,403.4,241.27,403.24Z" style="fill:#fff;stroke:#005596;stroke-miterlimit:10;stroke-width:4px"/><path d="M272.28,415.55a4.22,4.22,0,0,1-1.7-.39l-12.16-5.34,5.67-8.29,9.62,9a3.12,3.12,0,0,1,1.06,3.4A2.58,2.58,0,0,1,272.28,415.55Z" style="fill:#fff"/><path d="M264.4,404.36l8,7.56c1,.93.76,1.78-.16,1.78a2.53,2.53,0,0,1-1-.24L261.21,409l3.19-4.66m-.62-5.67-2.44,3.58-3.19,4.66-2.53,3.69,4.1,1.8,10.11,4.44a6.14,6.14,0,0,0,2.45.54,4.45,4.45,0,0,0,4.21-2.75,4.88,4.88,0,0,0-1.51-5.43l-8-7.56-3.16-3Z" style="fill:#005596"/><path d="M279.61,146.09q-3.92-.61-7.72-1.24c-7.84-13.16,18.43-26.33,8.39-39.5h0c4.45.68,9.79,4.22,9.12,7.89C288,124.19,271.27,135.14,279.61,146.09Z" style="fill:#005596"/><path d="M263.62,102.49h17.26a0,0,0,0,1,0,0v1a16.23,16.23,0,0,1-16.23,16.23H247.39a0,0,0,0,1,0,0v-1A16.23,16.23,0,0,1,263.62,102.49Z" transform="translate(206.12 -169.52) rotate(55.51)" style="fill:#005596"/><path d="M289.7,244.64a28.6,28.6,0,0,1-7.05-.91l-5.18-1.33a10.62,10.62,0,0,0-2.25-.24,10.34,10.34,0,0,0-2.28.25L268,243.69a28.57,28.57,0,0,1-7.17.93,25.46,25.46,0,0,1-7.17-1c-11-3.25-16.68-12.33-26.1-27.37l-1.92-3.07A73.72,73.72,0,0,1,212,168.32c-.42-19.39,6.19-30.32,11.82-36.08a30.42,30.42,0,0,1,21.9-9.31,34.66,34.66,0,0,1,16.1,4.1,27.79,27.79,0,0,0,13.14,3.4h.63a27.8,27.8,0,0,0,13.15-3.4,34.66,34.66,0,0,1,16.1-4.1,30.42,30.42,0,0,1,21.9,9.31c5.63,5.76,12.24,16.69,11.81,36.08a73.65,73.65,0,0,1-13.64,44.85l-1.88,3c-9.71,15.52-15.58,24.9-27.4,27.77A24.66,24.66,0,0,1,289.7,244.64Z" style="fill:#fff"/><path d="M304.83,126.43c16.34,0,30.84,14.32,30.21,41.89A70.36,70.36,0,0,1,322,211.24c-10.57,16.83-16.05,26.59-27.19,29.3a21.34,21.34,0,0,1-5.09.6,24.83,24.83,0,0,1-6.18-.8L278.28,239a14.34,14.34,0,0,0-3.06-.33,14.63,14.63,0,0,0-3.09.34l-5,1.3a24.71,24.71,0,0,1-6.28.82,22,22,0,0,1-6.18-.87c-10.41-3.08-15.86-12.74-26.1-29a70.49,70.49,0,0,1-13.06-42.92c-.63-27.56,13.88-41.89,30.22-41.89a31.24,31.24,0,0,1,14.48,3.71A31.21,31.21,0,0,0,275,133.93h.63a31.28,31.28,0,0,0,14.77-3.79,31.24,31.24,0,0,1,14.48-3.71m0-7h0a38,38,0,0,0-17.72,4.5,24.22,24.22,0,0,1-11.53,3H275a24.19,24.19,0,0,1-11.52-3,38.1,38.1,0,0,0-17.72-4.5,34,34,0,0,0-24.41,10.36c-11,11.27-13.05,27.14-12.81,38.53a77.15,77.15,0,0,0,14.23,46.79c.64,1,1.27,2,1.87,3,9.53,15.2,15.82,25.24,28.07,28.86a28.86,28.86,0,0,0,8.17,1.16,32.08,32.08,0,0,0,8-1l4.88-1.27a7.26,7.26,0,0,1,1.47-.15,7.16,7.16,0,0,1,1.46.15l5.1,1.31a31.76,31.76,0,0,0,7.92,1,29,29,0,0,0,6.75-.79c13.21-3.22,19.7-13.61,29.54-29.33.59-.94,1.2-1.92,1.83-2.91a77.22,77.22,0,0,0,14.23-46.79c.23-11.4-1.81-27.26-12.82-38.53a33.92,33.92,0,0,0-24.4-10.36Z" style="fill:#005596"/></svg>