<svg id="icon" xmlns="http://www.w3.org/2000/svg" viewBox="0 0 512 512"><circle cx="256" cy="255.96" r="234.67" style="fill:#005596"/><path d="M396.5,444.54a234.7,234.7,0,0,1-280.06-.34l62.1-42.37,39.93-27.24L255,349.64l8.13,5.45Z" style="fill:#c1d82f"/><path d="M184.79,443.75a19.48,19.48,0,0,1-19.46-19.47V313.19c-.06-.64-.09-1.28-.09-1.93V295.78a14.17,14.17,0,0,1-2.07,2.18,15.08,15.08,0,0,1-2.13,1.51l-.1.06c-.34.19-.69.37-1,.54a12.46,12.46,0,0,1-1.25.51c-.37.14-.78.27-1.18.38a14.46,14.46,0,0,1-8.27-.24,13.92,13.92,0,0,1-1.4-.55,14.41,14.41,0,0,1-5.08-3.81l-11.24-13.13-.09.08-6.86-8a18.46,18.46,0,0,1,2-26l49.13-42,.29.39a21.27,21.27,0,0,1,3.46-1.5,36.67,36.67,0,0,1,21-64.69c.77-.06,1.62-.09,2.58-.09a36.7,36.7,0,0,1,24.78,63.75h44.62V165.75a14.51,14.51,0,0,1,14.49-14.49,14.49,14.49,0,0,1,14.49,14.49v49.87a18.5,18.5,0,0,1-18.48,18.48h-38v64.27h5.9l3.5-.09h8.12a21.83,21.83,0,0,1,21.81,21.81v63.29a14.78,14.78,0,0,1-.13,2,16.7,16.7,0,0,1-16.59,14.67,18.12,18.12,0,0,1-12.12-4.8A16.09,16.09,0,0,1,250,383.38V337.29h-45.7v87A19.49,19.49,0,0,1,184.79,443.75Zm-20-166.22c.17.2.33.4.49.61V254.33l-11.76,10Z" style="fill:#fff"/><path d="M203,144.87A33.19,33.19,0,0,1,216,208.62h60V165.75a11,11,0,0,1,22,0v49.87a15,15,0,0,1-15,15H241.39v71.27h12.9v-.09h8.12a18.31,18.31,0,0,1,18.31,18.31v63.29a11.76,11.76,0,0,1-.1,1.58,13.22,13.22,0,0,1-13.12,11.63,14.55,14.55,0,0,1-9.75-3.87,12.73,12.73,0,0,1-4.29-9.34V333.79h-52.7v90.49a16,16,0,0,1-31.93,0V313a17.14,17.14,0,0,1-.09-1.76V246.74L148.54,264l13.55,15.82a11,11,0,0,1-1.2,15.5,12.19,12.19,0,0,1-1.64,1.16l-.87.45a8.93,8.93,0,0,1-.9.37c-.3.11-.61.21-.91.29a11,11,0,0,1-6.26-.18,11.12,11.12,0,0,1-1.09-.42,11,11,0,0,1-3.83-2.88l-13.56-15.83-.08.07L127.19,273a15,15,0,0,1,1.66-21.11l46.29-39.54,0,0a17,17,0,0,1,10.74-3.78h4.17A33.19,33.19,0,0,1,200.68,145c.79-.06,1.57-.08,2.34-.08m0-7c-1,0-2,0-2.84.1a40.16,40.16,0,0,0-27.05,66.9L170.59,207,124.3,246.57a22,22,0,0,0-2.43,31l4.56,5.34,4.61,5.39.09-.07,8.94,10.44a18,18,0,0,0,6.25,4.7h.05a16.57,16.57,0,0,0,1.75.68,18.11,18.11,0,0,0,5.62.9,17.82,17.82,0,0,0,4.67-.62c.44-.12.94-.27,1.44-.46a14.25,14.25,0,0,0,1.57-.65l.32-.15v8.19c0,.7,0,1.4.09,2.09V424.28a23,23,0,1,0,45.93,0V340.79h38.7v42.59A19.59,19.59,0,0,0,253,397.87a21.69,21.69,0,0,0,14.49,5.72,20.21,20.21,0,0,0,20.06-17.75,17.84,17.84,0,0,0,.16-2.46V320.09a25.33,25.33,0,0,0-25.31-25.31h-14V237.6h34.53a22,22,0,0,0,22-22V165.75a18,18,0,1,0-36,0v35.87H235.59A40.21,40.21,0,0,0,203,137.87Zm-44.6,126.89,3.32-2.84v6.72l-3.32-3.88Z" style="fill:#005596"/><polygon id="Base" points="357.01 155.24 320.02 189.5 309.25 177.87 309.1 168.62 315 163.16 331.15 148.21 337.03 142.76 346.24 143.61 357.01 155.24" style="fill:#fff"/><path id="R_Handle" data-name="R Handle" d="M318.2,96.5a19.68,19.68,0,0,1-5.55,15c-.17.18-.34.34-.52.51l-1.45,1.35-1.34,1.23-.32-1.79a31.29,31.29,0,0,0-1.2-4.56l-.2-.6.45-.44a12.86,12.86,0,0,0,2.18-2.77c3.56-6,2.31-14.77-3.46-21l-12-12.92-7.2,6.68-1.69,1.56-.73.68-.68-.74-2.91-3.14-.68-.73.74-.68,1.68-1.56L294,62.76l.73-.68.68.73,15.56,16.8A26.56,26.56,0,0,1,318.2,96.5Z" style="fill:#fff"/><path id="L_Handle" data-name="L Handle" d="M283.17,138.86l-1.33,1.24-1.45,1.34c-.18.17-.36.33-.55.48a19.49,19.49,0,0,1-12.75,4.54,26.11,26.11,0,0,1-18.95-8.69L232.58,121l-.68-.74.74-.68,10.63-9.84,1.68-1.56.73-.68.68.74,2.91,3.14.68.73-.73.68-1.68,1.56L240.32,121l12,12.92a19.58,19.58,0,0,0,14.18,6.53A14.51,14.51,0,0,0,273,139a13.22,13.22,0,0,0,2.92-2l.48-.43.58.26a32.07,32.07,0,0,0,4.45,1.54Z" style="fill:#fff"/><path d="M331.15,148.21a9.07,9.07,0,0,0-3.83,1.94l-.11.1a59.08,59.08,0,0,1-8.82-6.94c-4.55-4.29-6.77-10.49-5.52-15.94a38.32,38.32,0,0,0-.06-15.05c-.05-.26-.1-.53-.16-.79a32.55,32.55,0,0,0-1.07-3.92,24.82,24.82,0,0,0-1.33-3.15,48.69,48.69,0,0,0-7.56-11L287.62,77.21l-4.27-4.61-7.5-8.1-40.08,37.12,7.5,8.1,4.27,4.61,15.07,16.27A48.58,48.58,0,0,0,273,139c.34.21.68.4,1,.58h0c.68.37,1.35.7,2,1a32.44,32.44,0,0,0,3.83,1.37l.77.22a38.76,38.76,0,0,0,14.7,1.28c5.48-.75,11.38,2,15.28,6.74A60.33,60.33,0,0,1,317,159.7a9.23,9.23,0,0,0-2,3.46c-.87,2.54-.89,5.56.68,7.58,0,0,23-21.23,23-21.27C336.76,147.76,333.75,147.54,331.15,148.21Zm-47-34.58-3.59,10.2-5.91-9-10.81-.26,6.78-8.42-3.09-10.37,10.11,3.85,8.9-6.14-.54,10.8,8.59,6.57Z" style="fill:#c1d82f"/></svg>