<svg id="icon" xmlns="http://www.w3.org/2000/svg" viewBox="0 0 512 512"><path d="M255.43,487.09A231.16,231.16,0,0,1,92,92.47,231.17,231.17,0,0,1,418.89,419.39,229.66,229.66,0,0,1,255.43,487.09Z" style="fill:#fff"/><path d="M255.43,28.26A227.73,227.73,0,0,1,344,465.71,227.73,227.73,0,0,1,166.81,46.15a226.23,226.23,0,0,1,88.62-17.89m0-7c-129.61,0-234.67,105.06-234.67,234.67S125.82,490.59,255.43,490.59,490.09,385.53,490.09,255.93,385,21.26,255.43,21.26Z" style="fill:#005596"/><path d="M395.93,444.52a234.7,234.7,0,0,1-280.06-.34L178,401.81l39.93-27.24,36.57-24.95,8.13,5.45Z" style="fill:#005596"/><path d="M184.35,443.75a19.48,19.48,0,0,1-19.46-19.47V313.19c-.06-.64-.09-1.28-.09-1.93V295.78a14.69,14.69,0,0,1-2.07,2.18,15.08,15.08,0,0,1-2.13,1.51l-.1.06c-.35.19-.69.37-1,.54a12.46,12.46,0,0,1-1.25.51c-.37.14-.78.27-1.19.38a14.27,14.27,0,0,1-3.72.49,14.44,14.44,0,0,1-4.54-.73,13.92,13.92,0,0,1-1.4-.55,14.33,14.33,0,0,1-5.08-3.81L131,283.23l-.09.08-6.86-8a18.46,18.46,0,0,1,2-26l49.13-42,.29.39a21.27,21.27,0,0,1,3.46-1.5,36.67,36.67,0,0,1,21-64.69c.77-.06,1.62-.09,2.58-.09a36.7,36.7,0,0,1,24.78,63.75H272V165.75a14.51,14.51,0,0,1,14.49-14.49A14.49,14.49,0,0,1,301,165.75v49.87a18.5,18.5,0,0,1-18.48,18.48h-38v64.27h5.9l3.5-.09H262a21.84,21.84,0,0,1,21.81,21.81v63.29a15,15,0,0,1-.13,2.05,16.7,16.7,0,0,1-16.59,14.66,18.12,18.12,0,0,1-12.12-4.8,16.09,16.09,0,0,1-5.42-11.91V337.29h-45.7v87A19.5,19.5,0,0,1,184.35,443.75Zm-20-166.22c.17.2.33.4.49.61V254.33l-11.76,10Z" style="fill:#005596"/><path d="M202.58,144.87a33.19,33.19,0,0,1,12.94,63.75h60V165.75a11,11,0,0,1,22,0v49.87a15,15,0,0,1-15,15H241v71.27h12.9v-.09H262a18.31,18.31,0,0,1,18.31,18.31v63.29a11.76,11.76,0,0,1-.1,1.58,13.22,13.22,0,0,1-13.12,11.63,14.55,14.55,0,0,1-9.75-3.87,12.73,12.73,0,0,1-4.29-9.34V333.79h-52.7v90.49a16,16,0,0,1-31.93,0V313a17.14,17.14,0,0,1-.09-1.76V246.74L148.1,264l13.55,15.82a11,11,0,0,1-1.2,15.5,12.19,12.19,0,0,1-1.64,1.16l-.87.45a8.93,8.93,0,0,1-.9.37c-.3.11-.61.21-.91.29a11,11,0,0,1-6.26-.18,11.12,11.12,0,0,1-1.09-.42A11,11,0,0,1,145,294.1l-13.56-15.83-.08.07L126.75,273a15,15,0,0,1,1.66-21.11l46.29-39.54,0,0a17,17,0,0,1,10.74-3.78h4.17A33.19,33.19,0,0,1,200.24,145c.79-.06,1.57-.08,2.34-.08m0-7c-1,0-2,0-2.85.1a40.16,40.16,0,0,0-27,66.9L170.15,207l-46.29,39.54a22,22,0,0,0-2.44,31l4.57,5.34,4.61,5.39.08-.07,8.95,10.44a17.94,17.94,0,0,0,6.25,4.7h.05a15.77,15.77,0,0,0,1.75.68,18,18,0,0,0,5.62.9,17.69,17.69,0,0,0,4.66-.62,14.94,14.94,0,0,0,1.45-.46,14.25,14.25,0,0,0,1.57-.65l.32-.15v8.19c0,.7,0,1.4.09,2.09V424.28a23,23,0,1,0,45.93,0V340.79H246v42.59a19.59,19.59,0,0,0,6.55,14.49,21.69,21.69,0,0,0,14.49,5.72,20.21,20.21,0,0,0,20.06-17.75,17.84,17.84,0,0,0,.16-2.46V320.09A25.34,25.34,0,0,0,262,294.78H248V237.6h34.53a22,22,0,0,0,22-22V165.75a18,18,0,1,0-36,0v35.87H235.15a40.21,40.21,0,0,0-32.57-63.75ZM158,264.76l3.33-2.84v6.72L158,264.76Z" style="fill:#fff"/><polygon id="Base" points="356.57 155.24 319.58 189.5 308.81 177.87 308.66 168.62 314.56 163.16 330.71 148.21 336.59 142.76 345.8 143.61 356.57 155.24" style="fill:#005596"/><path id="R_Handle" data-name="R Handle" d="M317.76,96.5a19.68,19.68,0,0,1-5.55,15c-.17.18-.34.34-.52.51l-1.45,1.35-1.34,1.23-.32-1.79a31.29,31.29,0,0,0-1.2-4.56l-.2-.6.45-.44a12.86,12.86,0,0,0,2.18-2.77c3.56-6,2.31-14.77-3.46-21l-12-12.92-7.2,6.68-1.69,1.56-.73.68-.68-.74-2.91-3.14-.68-.73.74-.68,1.68-1.56,10.62-9.84.73-.68.68.73,15.56,16.8A26.56,26.56,0,0,1,317.76,96.5Z" style="fill:#005596"/><path id="L_Handle" data-name="L Handle" d="M282.73,138.86l-1.33,1.24L280,141.44c-.18.17-.36.33-.55.48a19.49,19.49,0,0,1-12.75,4.54,26.11,26.11,0,0,1-18.95-8.69L232.14,121l-.68-.74.74-.68,10.63-9.84,1.68-1.56.73-.68.68.74,2.91,3.14.68.73-.73.68-1.68,1.56L239.88,121l12,12.92A19.58,19.58,0,0,0,266,140.46a14.51,14.51,0,0,0,6.51-1.47,13.22,13.22,0,0,0,2.92-2l.48-.43.58.26A32.07,32.07,0,0,0,281,138.4Z" style="fill:#005596"/><path d="M314.5,172.24l-.45-.58c-1.73-2.24-2.07-5.6-.91-9a11.37,11.37,0,0,1,1.63-3.16A61.24,61.24,0,0,0,309,151.1a16.27,16.27,0,0,0-12.27-6.31,12.78,12.78,0,0,0-1.64.11,28.94,28.94,0,0,1-4,.27,44.85,44.85,0,0,1-11.24-1.58l-.83-.24a33.41,33.41,0,0,1-4-1.42c-.61-.27-1.25-.58-1.9-.92l-.22-.12q-.56-.28-1.11-.63a50,50,0,0,1-10.68-8.64l-27.86-30.08,42.28-39.16,27.86,30.08a50.4,50.4,0,0,1,7.81,11.34,25.9,25.9,0,0,1,1.4,3.33,33,33,0,0,1,1.12,4.1c.05.21.1.46.14.7l0,.11a40.09,40.09,0,0,1,.05,15.66c-1.11,4.86.89,10.55,5.09,14.52a61,61,0,0,0,7.68,6.18,11.43,11.43,0,0,1,3.67-1.65,12.66,12.66,0,0,1,3.1-.39,8.4,8.4,0,0,1,5.78,2l.49.44v.67c0,.67,0,.67-4.06,4.44l-7.89,7.31c-11.89,11-11.89,11-12.51,11ZM275,113.3l4.68,7.16,2.85-8.07,8.26-2.24L284,105l.43-8.55-7.05,4.86-8-3.05,2.45,8.21-5.37,6.67Z" style="fill:#005596"/><path d="M275.41,64.5l7.5,8.1,4.27,4.61,15.07,16.27a48.69,48.69,0,0,1,7.56,11,24.82,24.82,0,0,1,1.33,3.15,32.55,32.55,0,0,1,1.07,3.92c.06.26.11.53.16.79a38.32,38.32,0,0,1,.06,15.05c-1.25,5.45,1,11.65,5.52,15.94a59.08,59.08,0,0,0,8.82,6.94l.11-.1a9.07,9.07,0,0,1,3.83-1.94,10.79,10.79,0,0,1,2.72-.35,7,7,0,0,1,4.77,1.61s-22.92,21.27-23,21.27c-1.57-2-1.55-5-.68-7.58a9.23,9.23,0,0,1,2-3.46,60.33,60.33,0,0,0-6.43-9.54,17.86,17.86,0,0,0-13.44-6.87,12.55,12.55,0,0,0-1.84.13,28.47,28.47,0,0,1-3.84.25,43.33,43.33,0,0,1-10.86-1.53l-.77-.22a32.44,32.44,0,0,1-3.83-1.37c-.65-.28-1.32-.61-2-1h0c-.34-.18-.68-.37-1-.58a48.58,48.58,0,0,1-10.37-8.39L247.1,114.33l-4.27-4.61-7.5-8.1L275.41,64.5m1.78,35.08-10.11-3.85,3.09,10.37-6.78,8.42,10.81.26,5.91,9,3.59-10.2,10.44-2.82-8.59-6.57.54-10.8-8.9,6.14m-1.62-39.32-2.2,2L233.29,99.42l-2.2,2,2,2.21,7.5,8.1,4.27,4.61L260,132.64a51.67,51.67,0,0,0,11,8.92c.36.22.74.43,1.16.66l.66.35h0c.53.27,1.05.51,1.55.73a34.6,34.6,0,0,0,4.16,1.49l.85.24A46.21,46.21,0,0,0,291,146.67a32.16,32.16,0,0,0,4.25-.28,11.19,11.19,0,0,1,1.43-.1c4,0,8.22,2.21,11.11,5.76a63.66,63.66,0,0,1,5.19,7.39,13.41,13.41,0,0,0-1.29,2.76c-1.33,3.86-.9,7.74,1.15,10.38l.9,1.16h1.47c1.18,0,1.61-.4,3-1.71l2.61-2.41,7.89-7.3,7.89-7.31,2.6-2.42c1.41-1.32,1.94-1.81,1.94-3.12v-1.33l-1-.89a9.85,9.85,0,0,0-6.79-2.39,14.23,14.23,0,0,0-3.47.44,13.31,13.31,0,0,0-3.26,1.31,60.49,60.49,0,0,1-6.7-5.49c-3.82-3.6-5.64-8.74-4.65-13.08a41.48,41.48,0,0,0,0-16.27l0-.12c-.05-.25-.1-.51-.16-.76a35.86,35.86,0,0,0-1.16-4.24,27.67,27.67,0,0,0-1.49-3.53,51.22,51.22,0,0,0-8-11.68L289.38,75.17l-4.27-4.61-7.5-8.1-2-2.2Zm2,42.68,1.29-.89,3.9-2.69-.24,4.73-.08,1.57,1.26,1,3.76,2.88-4.57,1.23-1.53.41-.52,1.49-1.57,4.47-2.59-4-.86-1.32-1.58,0-4.73-.12,3-3.68,1-1.23-.45-1.51-1.35-4.55,4.43,1.69,1.48.56Z" style="fill:#fff"/><polygon points="294.14 110.81 283.7 113.63 280.11 123.83 274.2 114.78 263.39 114.52 270.17 106.1 267.08 95.73 277.19 99.58 286.09 93.44 285.55 104.24 294.14 110.81" style="fill:#fff"/></svg>