<svg id="icon" xmlns="http://www.w3.org/2000/svg" viewBox="0 0 512 512"><path d="M490.66,256A234.65,234.65,0,0,1,331.09,478.38c-2,.69-4,1.33-6,1.94h0c-5.2,1.6-10.49,3-15.83,4.27-2.8.66-5.61,1.25-8.42,1.79A234.84,234.84,0,0,1,260,490.63l-2.72,0H256q-9.34,0-18.49-.71c-5.48-.42-10.91-1.05-16.28-1.84-2-.29-4-.62-6-1h0a230.46,230.46,0,0,1-27-6.4c-2.58-.78-5.17-1.62-7.71-2.47-2.23-.75-4.42-1.54-6.61-2.37A230.32,230.32,0,0,1,142,461.13q-3.35-1.86-6.61-3.83c-3-1.78-5.94-3.65-8.83-5.56-2.24-1.48-4.44-3-6.62-4.56A235.3,235.3,0,0,1,88,419.82c-2.25-2.31-4.46-4.68-6.6-7.07q-7.45-8.29-14.1-17.27c-4.07-5.5-7.92-11.21-11.51-17.08-1.29-2.09-2.55-4.19-3.75-6.33h0a232.78,232.78,0,0,1-27.6-77.93c-1.21-7.37-2.08-14.87-2.56-22.47,0-.17,0-.36,0-.54-.2-3-.35-6.09-.41-9.15-.07-2-.08-4-.08-6a234.16,234.16,0,0,1,13.21-77.84c.13-.39.28-.79.42-1.18q2.63-7.33,5.71-14.43l1.37-3.09a234.77,234.77,0,0,1,427.08-1.81q3.72,8.08,6.84,16.47c1.41,3.73,2.69,7.5,3.89,11.31a232.93,232.93,0,0,1,9.92,50.2Q490.65,245.7,490.66,256Z" style="fill:#005596"/><rect x="244.59" y="137.18" width="180.69" height="40.26" transform="translate(669.86 314.61) rotate(180)" style="fill:#fff"/><rect x="406.39" y="136.93" width="3.54" height="8.8" style="fill:#005596"/><rect x="364.36" y="136.93" width="3.54" height="8.8" style="fill:#005596"/><rect x="322.32" y="136.93" width="3.54" height="8.8" style="fill:#005596"/><rect x="280.29" y="136.93" width="3.54" height="8.8" style="fill:#005596"/><rect x="385.62" y="136.93" width="3.05" height="6.51" style="fill:#005596"/><rect x="343.59" y="136.93" width="3.05" height="6.51" style="fill:#005596"/><rect x="301.55" y="136.93" width="3.05" height="6.51" style="fill:#005596"/><rect x="259.52" y="136.93" width="3.05" height="6.51" style="fill:#005596"/><path d="M323.22,353.36l-3.78,11.87-14.32-4.59,3.83-12a61,61,0,0,1-18.43-13.51l-10,7.36-8.9-12.12,10.15-7.45a59.8,59.8,0,0,1-6.95-21.78l-12.47.06-.07-15,12.61-.06a59.68,59.68,0,0,1,7.16-21.7l-10.11-7.28,8.77-12.2,10.22,7.36A60.94,60.94,0,0,1,309.46,239l-3.91-11.84,14.28-4.72,3.95,12a61.69,61.69,0,0,1,10.86-1,60.07,60.07,0,0,1,12,1.13l3.79-11.87,14.33,4.57-3.83,12a61.07,61.07,0,0,1,18.41,13.51l10.05-7.37,8.89,12.12-10.15,7.46a59.82,59.82,0,0,1,6.94,21.76l12.47-.06.08,15.05-12.62.06a59.7,59.7,0,0,1-7.16,21.69L398,330.69l-8.78,12.21L379,335.54a61.19,61.19,0,0,1-18.55,13.35l3.91,11.82L350,365.44l-3.95-12a61,61,0,0,1-22.86-.1Z" style="fill:#c1d82f"/><path d="M334.93,333.53a39.62,39.62,0,0,1-.19-79.23h.2a39.62,39.62,0,0,1,.19,79.23Z" style="fill:#fff"/><path d="M334.94,261.19a32.73,32.73,0,0,1,.15,65.45h-.16a32.73,32.73,0,0,1-.16-65.45h.17m0-13.77h-.24a46.5,46.5,0,0,0,.23,93h.23a46.5,46.5,0,0,0-.22-93Z" style="fill:#005596"/><rect x="86.12" y="252.41" width="136.32" height="5.16" style="fill:#c1d82f"/><path d="M155.52,139.31c-.41,0-.81,0-1.23,0s-.83,0-1.23,0l1.23-3.78Z" style="fill:#fff"/><path d="M87.11,380.05,93,351.45a12.34,12.34,0,0,1-6.23-14.88l47.12-144.74,2.26,1.79a28.94,28.94,0,0,0,7.1,4.16,27.77,27.77,0,0,0,2.76,1c.42.13.79.24,1.16.33l2.1.5L112.49,312.37,91,381.05Z" style="fill:#fff"/><path d="M134.86,195.19a31,31,0,0,0,7.59,4.44,27.45,27.45,0,0,0,3,1c.4.13.82.25,1.24.35L110.59,311.75l-21.52,68.7,6.18-30.22a10.34,10.34,0,0,1-6.62-13l46.23-142m-2-6.71L131.06,194,84.83,336a14.34,14.34,0,0,0,5.88,16.52l-5.56,27.18,7.74,2L114.41,313l36.05-110.69,1.35-4.13-4.22-1c-.3-.07-.61-.16-.93-.26l-.07,0-.07,0a20.9,20.9,0,0,1-2.54-.89,26.84,26.84,0,0,1-6.63-3.87l-4.51-3.58Z" style="fill:#005596"/><path d="M196.1,312.48l-36.76-112.9,2.11-.5c.37-.09.74-.2,1.11-.32a25.25,25.25,0,0,0,2.81-1,28.68,28.68,0,0,0,7.1-4.16l2.25-1.79,47.12,144.73a12.35,12.35,0,0,1-6.24,14.89l5.85,28.6-3.87,1Z" style="fill:#fff"/><path d="M173.71,195.19l46.23,142a10.35,10.35,0,0,1-6.63,13.05l6.18,30.22L198,311.88,161.91,201c.42-.1.84-.22,1.25-.35a28.22,28.22,0,0,0,3-1,30.91,30.91,0,0,0,7.58-4.44m2-6.71-4.51,3.58a27.41,27.41,0,0,1-6.6,3.87,24.57,24.57,0,0,1-2.56.9H162l-.06,0q-.52.16-1,.27l-4.23,1,1.35,4.13,36.1,110.86,21.46,68.53,7.74-2-5.56-27.18a14.35,14.35,0,0,0,5.89-16.54L177.52,194l-1.79-5.47Z" style="fill:#005596"/><path d="M158.63,139.58a26.24,26.24,0,0,0-3.11-.27c-.41,0-.81,0-1.23,0s-.83,0-1.23,0a26.24,26.24,0,0,0-3.11.27,31.31,31.31,0,0,0-15.08,55.61,30.72,30.72,0,0,0,7.58,4.44,27.45,27.45,0,0,0,3,1c.4.13.82.25,1.24.35a31.44,31.44,0,0,0,15.26,0c.42-.1.84-.22,1.24-.35a28.22,28.22,0,0,0,3-1,30.72,30.72,0,0,0,7.58-4.44,31.33,31.33,0,0,0-15.08-55.61Zm12.65,48.12a23.93,23.93,0,0,1-7.32,5,19.73,19.73,0,0,1-3,1.09c-.43.13-.89.24-1.34.33a22.62,22.62,0,0,1-5.37.62,23.15,23.15,0,0,1-5.37-.61c-.46-.1-.91-.21-1.35-.34a22.5,22.5,0,0,1-2.95-1.07A24.11,24.11,0,0,1,150,146.9l.68-.11a24.06,24.06,0,0,1,7.32,0c.23,0,.46.07.68.13a24.09,24.09,0,0,1,12.65,40.78Z" style="fill:#c1d82f"/><path d="M155.52,139.31c-.41,0-.81,0-1.23,0s-.83,0-1.23,0l1.23-3.78Z" style="fill:#fff"/><path d="M154.28,279a5.84,5.84,0,0,1-5.83-5.83v-36.3a5.84,5.84,0,0,1,11.67,0v36.3A5.84,5.84,0,0,1,154.28,279Z" style="fill:#fff"/><path d="M154.28,233a3.84,3.84,0,0,1,3.84,3.83v36.3a3.84,3.84,0,0,1-3.84,3.83h0a3.84,3.84,0,0,1-3.83-3.83v-36.3a3.84,3.84,0,0,1,3.83-3.83h0m0-4a7.84,7.84,0,0,0-7.83,7.83v36.3a7.84,7.84,0,0,0,15.67,0v-36.3a7.84,7.84,0,0,0-7.84-7.83Z" style="fill:#005596"/><path d="M158.63,117.6v22a26.24,26.24,0,0,0-3.11-.27l-1.23-3.78-1.23,3.78a26.24,26.24,0,0,0-3.11.27v-22a4.34,4.34,0,0,1,4.34-4.35h0A4.34,4.34,0,0,1,158.63,117.6Z" style="fill:#fff"/></svg>