<svg id="icon" xmlns="http://www.w3.org/2000/svg" viewBox="0 0 512 512"><path d="M256,487.17A231.17,231.17,0,0,1,92.54,92.54,231.17,231.17,0,1,1,419.46,419.46,229.66,229.66,0,0,1,256,487.17Z" style="fill:#fff"/><path d="M256,28.33a227.74,227.74,0,0,1,88.62,437.45A227.73,227.73,0,0,1,167.38,46.22,226.27,226.27,0,0,1,256,28.33m0-7C126.4,21.33,21.33,126.4,21.33,256S126.4,490.67,256,490.67,490.67,385.6,490.67,256,385.6,21.33,256,21.33Z" style="fill:#005596"/><path d="M303.05,271.62a1.92,1.92,0,0,1-.66-.12c-5.47-1.91-8.73-3.42-8.86-3.49a2,2,0,0,1-.89-.81c-.19-.33-19.12-33.83,2.25-71.62,8.9-15.74,25.51-24.88,41.57-33.71,10.69-5.89,20.8-11.45,28.64-18.75,21-19.54,21.83-19.54,22.93-19.54a2.09,2.09,0,0,1,1.9,1.26c.66,1.57.86,2-18.61,21.87-7.85,8-18.37,14.42-28.54,20.62-15.18,9.25-30.87,18.82-38.54,33.93-16.2,31.87-4.17,58.74-.1,66.22l.63,1.12a2,2,0,0,1-1.72,3Z" style="fill:#fff"/><path d="M388,125.58c.79,0-5.72,7.08-18.14,19.73-19.26,19.63-54.25,29.08-67.44,55-16.82,33.11-3.79,61.26-.06,68.09.28.52.51.91.66,1.18-5.43-1.9-8.68-3.42-8.68-3.42s-18.79-32.4,2.26-69.64c14.34-25.35,49.72-33.23,69.83-52,14-13.06,20.85-19,21.57-19m0-4c-2,0-2.75,0-24.3,20.08-7.65,7.13-17.65,12.63-28.24,18.45-16.3,9-33.16,18.25-42.34,34.48A78,78,0,0,0,283.66,246a70.47,70.47,0,0,0,7.25,22.23,4,4,0,0,0,1.77,1.61c.14.07,3.49,1.63,9.05,3.57a4.08,4.08,0,0,0,1.32.23,4,4,0,0,0,3.44-6.05c-.14-.23-.34-.58-.59-1-4-7.26-15.63-33.36.12-64.37,7.42-14.6,22.86-24,37.8-33.12,10.28-6.27,20.9-12.75,28.93-20.92,5.95-6.07,10.58-10.88,13.74-14.31,4.69-5.08,6.45-7,5.29-9.75a4,4,0,0,0-3.75-2.48Z" style="fill:#005596"/><path d="M329.49,248.15a99.89,99.89,0,0,1-32.5-5.93,71.37,71.37,0,0,1,7.69-40.74c7.61-15,23.23-24.5,38.34-33.71,10.21-6.23,20.76-12.66,28.65-20.71,15.49-15.77,20.41-32.44,21.62-44.56a170.15,170.15,0,0,1,6.46,32.81c3,31.34-3.33,59.77-18.73,84.49C369.3,238.61,352,248.15,329.49,248.15Z" style="fill:#fff"/><path d="M393.75,113.94a165.23,165.23,0,0,1,3.51,21.61c2.92,30.78-3.26,58.68-18.36,82.93-11.23,18-27.85,27.17-49.41,27.17a96.51,96.51,0,0,1-30.17-5.27,69,69,0,0,1,7.59-37.77c7.28-14.34,22.6-23.68,37.41-32.71,10.34-6.3,21-12.82,29.14-21.09,11.62-11.83,17.48-24.18,20.29-34.87m-3.58-27.4c.1.23.21.5.34.79,1.15,7.33,3.18,33.74-20.62,58-19.26,19.63-54.25,29.08-67.44,55a73.86,73.86,0,0,0-7.76,43.7c7.77,2.86,20.64,6.6,34.8,6.6,18.52,0,39.25-6.4,53.65-29.53,37.26-59.82,11.33-124.77,7-134.58Z" style="fill:#005596"/><path d="M284.36,227.81c-3.76-12.19-6.47-32.13,5.85-51.64,8-12.65,22.7-19.83,36.91-26.77,9.63-4.7,19.59-9.56,27.32-16.1,17.78-15,28.05-29.84,33.2-38.74-.32,11-3.95,30.55-22.88,48.19-7.8,7.27-17.88,12.81-28.55,18.69-16.12,8.86-32.79,18-41.76,33.89A77.42,77.42,0,0,0,284.36,227.81Z" style="fill:#fff"/><path d="M383.92,105c-2.14,10.37-7.63,23.61-20.87,35.94-7.57,7.06-17.51,12.53-28.05,18.33-16.42,9-33.4,18.37-42.72,34.85a82.44,82.44,0,0,0-8.19,20.06,55.61,55.61,0,0,1,8.24-36.65c7.62-12.06,22-19.08,35.89-25.86,9.76-4.77,19.86-9.7,27.84-16.44A160,160,0,0,0,383.92,105m5.68-19.71s-9.35,23-36.77,46.12C334,147.28,302,152.79,288.1,174.84c-20,31.67-1.91,64.51-1.08,66a73.71,73.71,0,0,1,9.61-44.25c14.34-25.35,49.72-33.23,69.83-52,28.77-26.8,23.37-58.11,23.16-59.26v0a0,0,0,0,1,0,0Z" style="fill:#005596"/><path d="M369.89,145.31c-19.26,19.63-54.25,29.08-67.44,55a73.86,73.86,0,0,0-7.76,43.7A72.31,72.31,0,0,0,302.13,268c.4.76.72,1.31.92,1.66-5.43-1.9-8.68-3.42-8.68-3.42s-5.83-10-7.35-25.38h0a73.71,73.71,0,0,1,9.61-44.25c14.34-25.35,49.72-33.23,69.83-52,28.77-26.8,23.37-58.11,23.16-59.26v0l0,0s0,0,0,0,.06.13.11.23l.42,1c.1.23.21.5.34.79C391.66,94.66,393.69,121.07,369.89,145.31Z" style="fill:#fff"/><path d="M284.87,364.94a68,68,0,0,0,10.16-24,71.64,71.64,0,0,0-4-43c-5.84-14.42-18.31-24.4-32.79-35l-3-2.23c-3.67-2.68-7.46-5.45-11-8.26l-1.2-1,.6-1.41q.66-1.55,1.26-3.12l1-2.47L248,246c4.41,3.31,9.23,6.53,13.89,9.64l.38.25c15.3,10.18,31.09,20.69,38.64,37.12a75.53,75.53,0,0,1,6,45.95v.59l-.15.17c-2.91,15-9.39,24.46-9.67,24.86l-.36.52-.6.22c-.14.05-3.51,1.28-9.12,2.72l-5.35,1.38Z" style="fill:#fff"/><path d="M246.76,247.6c4.57,3.43,9.45,6.68,14.36,10,15.17,10.09,30.62,20.36,37.93,36.29a73.73,73.73,0,0,1,5.85,44.93s0,0,0,0c-2.81,15.13-9.45,24.64-9.45,24.64s-3.36,1.23-8.94,2.67A70.12,70.12,0,0,0,297,341.35a73.82,73.82,0,0,0-4.06-44.21c-6.17-15.21-19.69-25.78-33.46-35.9-4.73-3.48-9.5-6.9-14-10.45.45-1.06.88-2.12,1.29-3.19m-1.84-6.38-1.9,4.95c-.38,1-.79,2-1.23,3.05l-1.2,2.82,2.4,1.89c3.59,2.83,7.4,5.62,11.08,8.31l3,2.22c14.23,10.46,26.47,20.25,32.12,34.18a69.73,69.73,0,0,1,3.86,41.85,65.83,65.83,0,0,1-9.83,23.28l-6.45,9L287.5,370c5.7-1.47,9.17-2.73,9.31-2.79l1.19-.43.72-1c.28-.41,6.81-9.89,9.86-25l.31-.31v-1.3a77.41,77.41,0,0,0-6.22-47c-7.78-16.95-23.81-27.62-39.32-37.94L263,254c-4.86-3.24-9.44-6.3-13.81-9.58l-4.24-3.18Z" style="fill:#005596"/><path d="M269,342.79c-26,0-44.78-11.07-55.94-32.89-.15-.28-.29-.55-.41-.82l0-.1a126.88,126.88,0,0,1-5.77-13.34l2.33-1.24a87.63,87.63,0,0,0,28-24.25c.65-.87,1.27-1.74,1.89-2.6,1.6-2.31,3.06-4.64,4.37-6.95,1.08-1.9,2.11-3.87,3.06-5.89,2.8,2.14,5.68,4.24,8.48,6.29l3.07,2.25c14.42,10.6,26.82,20.53,32.62,34.83a71.27,71.27,0,0,1,4.25,41.25A105,105,0,0,1,269,342.79Z" style="fill:#fff"/><path d="M247.35,258.53c2,1.53,4.1,3,6.13,4.52l3,2.22c14.11,10.37,26.23,20.06,31.79,33.75a69,69,0,0,1,4.39,38.28,101.64,101.64,0,0,1-23.74,3c-24.94,0-43-10.61-53.73-31.54-.12-.24-.24-.47-.34-.7l0-.09,0-.1c-1.81-3.58-3.45-7.28-4.9-11l.42-.23a90,90,0,0,0,28.8-24.94c.68-.9,1.32-1.79,1.93-2.65l0,0,0,0c1.62-2.33,3.12-4.72,4.45-7.08.62-1.09,1.22-2.2,1.81-3.32m-1.88-7.74a84.56,84.56,0,0,1-4.27,8.58q-1.94,3.42-4.22,6.72c-.61.85-1.22,1.7-1.86,2.55a85.52,85.52,0,0,1-27.21,23.57c-1.39.76-2.8,1.49-4.23,2.17a126.72,126.72,0,0,0,6.64,15.73c.14.31.3.62.46.93,14.05,27.46,38,34.25,58.17,34.25a108.23,108.23,0,0,0,28-3.94,73.82,73.82,0,0,0-4.06-44.21c-6.17-15.21-19.69-25.78-33.46-35.9-4.73-3.48-9.5-6.9-14-10.45Z" style="fill:#005596"/><path d="M308.65,326a77.34,77.34,0,0,0-7.33-33.2c-7.6-16.57-23.45-27.11-38.79-37.31l-.39-.27c-4.14-2.76-8.4-5.61-12.39-8.52q.28-.79.57-1.65l.38-1.18a83.92,83.92,0,0,0,2.23-8.38c.26-1.29.49-2.47.68-3.6a140.33,140.33,0,0,0,12.33,8.34c2.22,1.37,4.47,2.71,6.73,4.07,13.57,8.11,27.6,16.5,34.5,29.78C317.78,294.51,313.41,314.15,308.65,326Z" style="fill:#fff"/><path d="M255.32,236.27c3.29,2.34,6.54,4.4,9.31,6.1,2.23,1.38,4.53,2.75,6.76,4.08,13.27,7.94,27,16.14,33.56,28.79a56.16,56.16,0,0,1,5.13,37.3,83,83,0,0,0-6.49-20.78c-7.89-17.21-24-27.95-39.69-38.36l-.38-.25c-3.75-2.51-7.35-4.91-10.8-7.38l.11-.33c.08-.27.17-.54.25-.77.86-2.67,1.61-5.49,2.24-8.4m-3.55-9.1c-.13,1.07-.27,2.14-.44,3.21-.24,1.54-.53,3.07-.85,4.6a80.89,80.89,0,0,1-2.16,8.15c-.12.38-.25.77-.37,1.14-.37,1.11-.76,2.21-1.18,3.3,0,0,0,0,0,0,4.57,3.43,9.45,6.68,14.36,10,15.17,10.09,30.62,20.36,37.93,36.29a73.73,73.73,0,0,1,5.85,44.93c.71-1,21.85-32.41,4.49-65.84-8.39-16.15-26.22-25-42.14-34.83a116.7,116.7,0,0,1-15.48-10.94Z" style="fill:#005596"/><path d="M304.9,338.78s0,0,0,0c-2.81,15.13-9.45,24.64-9.45,24.64s-3.36,1.23-8.94,2.67A70.12,70.12,0,0,0,297,341.35a73.82,73.82,0,0,0-4.06-44.21c-6.17-15.21-19.69-25.78-33.46-35.9-4.73-3.48-9.5-6.9-14-10.45.45-1.06.88-2.12,1.29-3.19,4.57,3.43,9.45,6.68,14.36,10,15.17,10.09,30.62,20.36,37.93,36.29A73.73,73.73,0,0,1,304.9,338.78Z" style="fill:#fff"/><path d="M373.88,320.44a4,4,0,0,0-3.71-2.41h0c-2.1,0-2.81,0-23.45,20.72-7.39,7.41-17.17,13.28-27.53,19.49-7.84,4.71-15.95,9.57-23.1,15.25-2.31,1.83-4.48,3.73-6.46,5.64a59,59,0,0,0-11.48,15.15,77.36,77.36,0,0,0-8.37,46.94c0,.1,0,.21.05.31a78.48,78.48,0,0,0,5.73,20.33,75.76,75.76,0,0,0,11.33,19.74c1.54-.21,3.08-.43,4.62-.68a72.48,72.48,0,0,1-12.25-20.6,73.56,73.56,0,0,1-5.5-19.59h0a73.62,73.62,0,0,1,8-44.61A55,55,0,0,1,292.4,382a78,78,0,0,1,6.17-5.39c16.12-12.8,37.38-21.4,51-35.05C362.87,328.19,369.47,322,370.17,322s-5.32,7.15-17.16,20.14C336.33,360.5,306.57,371,291.9,392.28a49.4,49.4,0,0,0-4.25,7.39,75.74,75.74,0,0,0-7.12,28.78,73.33,73.33,0,0,0,.22,9.22,1.83,1.83,0,0,1,0,.21c.06.73.13,1.45.22,2.16.06.44.1.87.16,1.3a.53.53,0,0,1,0,.16c.13.73.26,1.45.4,2.16a73.68,73.68,0,0,0,18.18,35.81c1.55-.29,3.09-.61,4.63-1a70,70,0,0,1-18.88-35.64c-.15-.7-.27-1.37-.39-2.05a1.77,1.77,0,0,0,0-.2l-.06-.47c0-.21,0-.41-.08-.62-.07-.61-.14-1.25-.19-1.89a3.33,3.33,0,0,0,0-.41,69.63,69.63,0,0,1,6.57-35.89,44.94,44.94,0,0,1,3.89-6.78c7.75-11.23,20.4-19.61,32.64-27.71,10-6.64,20.43-13.52,28.14-22,5.66-6.21,10.06-11.14,13.05-14.65C373.55,324.92,375.08,323.14,373.88,320.44Z" style="fill:#005596;stroke:#005596;stroke-miterlimit:10"/><path d="M313.48,446.5a102.28,102.28,0,0,1-29.71-4.76l-.12-.68c0-.07,0-.16,0-.26s0-.29-.05-.44-.05-.44-.08-.67c-.08-.63-.15-1.28-.21-2,0-.1,0-.2,0-.31a69.5,69.5,0,0,1-.21-8.86,73.17,73.17,0,0,1,6.89-27.82,47,47,0,0,1,4-7c7.91-11.45,20.68-19.91,33-28.08,10-6.6,20.27-13.42,27.87-21.76,14.87-16.32,19.16-33.16,19.93-45.31,8.26,24.06,18.41,71.7-7.9,117.65C355.38,436.31,337.41,446.5,313.48,446.5Z" style="fill:#fff"/><path d="M375.68,310c6.9,25.46,11.44,65.88-11,105-11,19.27-28.27,29-51.24,29A98.62,98.62,0,0,1,286,439.8c0-.14,0-.28-.05-.41-.07-.54-.13-1.14-.19-1.82,0-.17,0-.32,0-.44a67.12,67.12,0,0,1-.19-8.47,70.75,70.75,0,0,1,6.65-26.86,45.69,45.69,0,0,1,3.83-6.69c7.63-11.05,20.2-19.36,32.36-27.41,10.1-6.68,20.53-13.58,28.34-22.15,11.16-12.26,16.55-24.82,19-35.6m-4.21-26.44c1.42,7.33,4.37,33.61-18.46,58.67C336.33,360.5,306.57,371,291.9,392.27a49.6,49.6,0,0,0-4.25,7.41,75.61,75.61,0,0,0-7.12,28.77,73.49,73.49,0,0,0,.22,9.23,1.5,1.5,0,0,1,0,.2c.06.74.13,1.45.22,2.15.06.44.1.89.16,1.31a.53.53,0,0,1,0,.16c.13.72.26,1.45.4,2.17A105.92,105.92,0,0,0,313.48,449c19.27,0,41.29-6.59,55.58-31.56,34.15-59.65,8-121.95,2.41-133.93Z" style="fill:#005596"/><path d="M270.59,427.74c-4.19-12.08-7.6-31.9,3.94-51.76,7.52-13,21.94-20.66,35.88-28.13,9.45-5.05,19.22-10.28,26.71-17.1A156.87,156.87,0,0,0,365,297.42c1.52-2.46,2.78-4.7,3.82-6.65.1,11.09-2.82,30.7-21.08,49-7.52,7.54-17.39,13.46-27.83,19.72-7.8,4.68-15.86,9.52-22.94,15.14a81.49,81.49,0,0,0-6.35,5.54A57.26,57.26,0,0,0,279.48,395,77,77,0,0,0,270.59,427.74Z" style="fill:#fff"/><path d="M365.46,301.47C363.15,315.1,356.61,327.4,346,338c-7.31,7.33-17,13.17-27.34,19.35-7.87,4.72-16,9.6-23.18,15.3a85.28,85.28,0,0,0-6.58,5.74,59.63,59.63,0,0,0-11.65,15.39,82.64,82.64,0,0,0-7.45,20.37,56.15,56.15,0,0,1,6.88-37c7.17-12.33,21.27-19.88,34.9-27.17,9.59-5.13,19.5-10.43,27.22-17.46a160.33,160.33,0,0,0,26.65-31.13m5-20s-8.49,23.29-35,47.45c-18.21,16.58-50,23.27-63.07,45.82-18.91,32.55.67,64.85,1.37,66a73.55,73.55,0,0,1,8-44.59A54.91,54.91,0,0,1,292.4,382a77.93,77.93,0,0,1,6.17-5.38c16.12-12.81,37.38-21.42,51-35.06,27.69-27.8,21.21-58.8,20.95-60.06l0-.06Z" style="fill:#005596"/><path d="M353,342.18C336.33,360.5,306.57,371,291.9,392.27a49.6,49.6,0,0,0-4.25,7.41,75.61,75.61,0,0,0-7.12,28.77,73.49,73.49,0,0,0,.22,9.23,1.5,1.5,0,0,1,0,.2c.06.74.13,1.45.22,2.15.06.44.1.89.16,1.31a.53.53,0,0,1,0,.16c.13.72.26,1.45.4,2.17a73.65,73.65,0,0,0,18.19,35.8h0q-4.11.81-8.27,1.45a72.25,72.25,0,0,1-12.25-20.6,73.44,73.44,0,0,1-5.5-19.59h0a0,0,0,0,1,0,0,73.55,73.55,0,0,1,8-44.59A54.91,54.91,0,0,1,292.4,382a77.93,77.93,0,0,1,6.17-5.38c16.12-12.81,37.38-21.42,51-35.06,27.69-27.8,21.21-58.8,20.95-60.06.06.11.24.47.52,1.05l.12.26.09.16c.07.15.14.31.23.48,0,0,0,0,0,.05C372.89,290.84,375.84,317.12,353,342.18Z" style="fill:#fff"/><path d="M166.45,317.36a100.44,100.44,0,0,1-22.87-2.64c-3.67-6.54-7.13-13.46-10.27-20.59-23.43-53.16-23.75-106.68-19.9-142.22.79-7.34,1.84-14.71,3.12-21.93a96.09,96.09,0,0,1,9-4.56c.78-.36,1.53-.69,2.29-1A98.83,98.83,0,0,1,141.11,120c3.81,4.57,8,9.19,12.34,13.75a302.65,302.65,0,0,0,46.45,39.35C214,182.8,231.53,189.73,248.23,196l6.46,2.42c3.66,1.37,7.44,2.78,11.17,4.21a100.37,100.37,0,0,1,.12,28.07c-.4,3-1,6.07-1.64,9-.16.71-.31,1.36-.48,2-.36,1.39-.76,2.85-1.19,4.3-.2.67-.4,1.33-.62,2,0,0-.53,1.6-.67,2l-.32.33v.6c-.23.64-.44,1.23-.65,1.77h0s-.75,1.91-.78,2l-.54,1.31c-.22.53-.43,1-.65,1.51s-.39.89-.58,1.31l-.27.58c-.33.69-.67,1.42-1,2.15l-.18.35c-.23.45-.45.9-.69,1.33l-.06.1c-.17.35-.36.7-.55,1.05-.27.52-.5,1-.76,1.41-.41.76-.81,1.45-1.23,2.14-1.48,2.54-3.13,5.05-4.89,7.5-.55.8-1,1.38-1.4,1.92A99.07,99.07,0,0,1,215,304.94,101.09,101.09,0,0,1,166.45,317.36Z" style="fill:#fff"/><path d="M140.22,122.78c3.56,4.21,7.4,8.46,11.42,12.65a305,305,0,0,0,46.84,39.67c14.37,9.92,32,16.91,48.87,23.22,2.16.82,4.34,1.63,6.51,2.44,3.2,1.19,6.47,2.41,9.72,3.66a97.53,97.53,0,0,1-.08,25.94c-.39,2.94-.92,5.89-1.59,8.79-.16.65-.31,1.3-.46,1.92-.36,1.38-.76,2.81-1.19,4.25-.18.63-.38,1.26-.58,1.89l-.28.84c-.07.19-.13.38-.19.57l-.66.64v1.23l-1.12,2.91,0,.08-.12.3c-.17.42-.34.84-.52,1.24v0l0,0c-.19.47-.39.93-.59,1.4l0,0,0,0c-.17.4-.35.8-.53,1.19l-.25.55-1,2.1-.17.33c-.23.45-.44.88-.65,1.26l-.06.1-.05.1q-.24.48-.51,1l0,.07,0,.08c-.25.49-.46.87-.66,1.21l0,.07,0,.07c-.3.56-.65,1.17-1.15,2-1.45,2.46-3,4.91-4.76,7.29l0,0,0,0c-.5.72-.9,1.26-1.29,1.76l0,0,0,0a96.59,96.59,0,0,1-31,26.85,98.29,98.29,0,0,1-68.54,9.78c-3.43-6.18-6.67-12.7-9.62-19.41a255,255,0,0,1-19.86-75.36,304.08,304.08,0,0,1,.15-65.58c.75-6.9,1.72-13.82,2.9-20.61,2.51-1.4,5.11-2.7,7.75-3.87h0c.7-.32,1.43-.65,2.16-.94h.06a97.35,97.35,0,0,1,11.41-3.94m1.81-5.64a101.49,101.49,0,0,0-15.14,5c-.8.32-1.58.67-2.37,1a99.16,99.16,0,0,0-10.25,5.27c-1.26,7-2.43,14.78-3.35,23.24-4.19,38.69-2.92,91.25,20.1,143.5a241.7,241.7,0,0,0,10.92,21.76,102.91,102.91,0,0,0,106.8-38c.52-.66,1-1.33,1.47-2q2.72-3.76,5-7.68c.43-.72.85-1.44,1.24-2.16.28-.48.54-1,.79-1.46s.41-.76.6-1.14c.33-.59.63-1.2.94-1.81s.71-1.47,1.06-2.21.59-1.27.86-1.91.45-1,.66-1.55l.57-1.37c.05-.14.11-.28.16-.41h0c.51-1.26,1-2.53,1.44-3.82v0c.3-.86.58-1.72.87-2.58q.33-1,.63-2c.44-1.47.85-2.94,1.23-4.42.17-.69.33-1.37.49-2.05.71-3.06,1.27-6.15,1.68-9.24a103,103,0,0,0-.35-30.22c-6.32-2.45-12.69-4.78-19-7.16-17.23-6.45-34-13.13-47.79-22.65a299.63,299.63,0,0,1-46.07-39c-5.06-5.27-9.46-10.26-13.22-14.83Z" style="fill:#005596"/><path d="M266.29,242.31c-.38,1.48-.79,2.95-1.23,4.42-.05.17-.1.34-.16.51-.41,1.39-.87,2.77-1.35,4.13q-5.91-3.41-12-6.58l-1.43-.28-.44-.09c-12.69-2.51-24.68-4.88-36.11-4.29-40.88,2.13-57.54,30.59-58.22,31.8l-1.68,2.94.7-3.31c0-.17.27-1,.65-2.26l.05-.13c4.13-6.86,20.4-29.53,56.15-33,8.52-.83,17.48,0,25.29,1.05-3.72-1.83-7.45-3.63-11.18-5.43l-5-2.42-5.16-2.54c-1.74-.86-3.46-1.72-5.19-2.6l-2.65-1.37A246.06,246.06,0,0,1,184,209.42l-2.08-.77c-29.42-10.87-52.35.66-53.31,1.16l-3.47,1.78L128,209l1.73-1.53.12-.08a70.49,70.49,0,0,1,44.8-4.66c-1-.76-2-1.55-2.92-2.35-1.35-1.14-2.67-2.3-4-3.45-2.76-2.46-5.36-5-7.79-7.47a133.51,133.51,0,0,1-30.94-49.59,124,124,0,0,1-4.55-16.69c.79-.36,1.57-.71,2.37-1A127.74,127.74,0,0,0,132,138.44a132.23,132.23,0,0,0,21.68,36.63,64.79,64.79,0,0,1-2.62-19.55l0-.1c.43-1.42.7-2.24.7-2.24l1-3.08-.22,3.23c0,.11-.7,11.62,5.21,25.86l.42,1a151.9,151.9,0,0,0,19.9,18.13,164.07,164.07,0,0,0,25.26,15.5,68,68,0,0,1-6.59-30.21l0-.13c.42-1.42.69-2.25.69-2.25l1.31-4.1-.29,4.3c0,.16-1,16.3,9.31,34.13l.38.66c13.55,6.61,28.07,12.46,42.28,18.74,4.43,2,8.86,4,13.21,6.09l1.43.69Z" style="fill:#005596;stroke:#fff;stroke-miterlimit:10"/><path d="M60.5,378.54c-.38-.6-.77-1.23-1.18-1.9-1.11-1.82-2.43-4-3.67-6.21l-1-1.79h0c-2.87-5.13-5.52-10.33-7.89-15.47-1.72-3.71-3.36-7.51-4.89-11.33l20.5-27.22,14.5-4.76,18.45-24.48,15.6,11.75L92.46,321.61l-.58,15.24Z" style="fill:#fff"/><path d="M96,290.28l10,7.54-1,1.31-14.69,19.5L89,320.38l-.09,2.19-.49,13.05L60.8,372.32c-.69-1.16-1.41-2.38-2.1-3.61l-1.79-3.19c-2.52-4.59-4.87-9.23-7-13.83-1.42-3.05-2.78-6.18-4.07-9.33L64.5,317.6l12.41-4.07,2.09-.69,1.32-1.75,15.62-20.74,0-.07m-1.37-9.8-4.27,5.66L74.73,306.88l-14.5,4.76L37.89,341.3q2.64,6.78,5.68,13.34,4.14,9,9,17.49h0c1.2,2.14,2.46,4.24,3.74,6.34s2.58,4.14,3.94,6.18l35.06-46.58.58-15.24,14.69-19.5,5.2-6.9-21.19-16Z" style="fill:#005596"/><path d="M268.11,200.8a103,103,0,0,0-141.22-78.7c-.79.32-1.58.67-2.37,1a99,99,0,0,0-10.24,5.27,102,102,0,0,0-29.9,26.72A102.84,102.84,0,0,0,104.67,299.2c1.94,1.46,3.92,2.85,5.93,4.14h0a101.83,101.83,0,0,0,27.15,12.45c1.38.4,2.78.78,4.18,1.11a103.4,103.4,0,0,0,68.38-6.79q3-1.39,5.86-3a101.85,101.85,0,0,0,32.56-28.23c.52-.66,1-1.33,1.48-2,1.8-2.51,3.47-5.08,5-7.68.42-.73.84-1.44,1.24-2.17.27-.48.53-1,.78-1.46s.41-.75.6-1.13c.33-.6.63-1.21.94-1.82s.46-.94.68-1.4l.38-.81c.29-.64.59-1.27.86-1.91.14-.32.28-.64.41-1s.17-.39.25-.58l.57-1.38a3.56,3.56,0,0,0,.17-.41q.76-1.89,1.44-3.81v0c.3-.87.59-1.73.87-2.59.22-.68.43-1.35.63-2,.44-1.47.85-2.94,1.23-4.42.17-.68.34-1.37.49-2.05s.32-1.43.47-2.15c.49-2.35.9-4.71,1.21-7.08A103.1,103.1,0,0,0,268.11,200.8Zm-16.78,29.58c-.24,1.54-.53,3.07-.85,4.6a80.89,80.89,0,0,1-2.16,8.15c-.12.38-.25.77-.37,1.14-.37,1.11-.76,2.21-1.18,3.3,0,0,0,0,0,0-.41,1.07-.84,2.13-1.29,3.19a84.56,84.56,0,0,1-4.27,8.58q-1.94,3.42-4.22,6.72c-.61.85-1.22,1.7-1.86,2.55a85.52,85.52,0,0,1-27.21,23.57c-1.39.76-2.8,1.49-4.23,2.17a86.15,86.15,0,0,1-72.66.77c-1.88-.87-3.75-1.79-5.59-2.8A85.94,85.94,0,0,1,98,165.37a87,87,0,0,1,12.92-13.73q3-2.56,6.25-4.82c.56-.41,1.15-.81,1.74-1.19.38-.26.75-.5,1.13-.74,1.1-.72,2.19-1.38,3.3-2,1.87-1.09,3.79-2.1,5.73-3,1-.48,2-.93,3-1.37A86.91,86.91,0,0,1,155.25,132a85.68,85.68,0,0,1,93.86,61.68,86.91,86.91,0,0,1,3,30.16q-.14,1.68-.33,3.36C251.64,228.24,251.5,229.31,251.33,230.38Z" style="fill:#fff;stroke:#005596;stroke-miterlimit:10;stroke-width:7px"/></svg>