<svg id="icon" xmlns="http://www.w3.org/2000/svg" xmlns:xlink="http://www.w3.org/1999/xlink" viewBox="0 0 512 512"><defs><clipPath id="clip-path"><circle cx="256" cy="256" r="234.67" style="fill:none"/></clipPath></defs><path d="M256,488.17A232.17,232.17,0,0,1,91.83,91.83,232.17,232.17,0,0,1,420.17,420.17,230.66,230.66,0,0,1,256,488.17Z" style="fill:#fff"/><path d="M256,26.33a229.73,229.73,0,0,1,89.4,441.29A229.73,229.73,0,0,1,166.6,44.38,228.36,228.36,0,0,1,256,26.33m0-5C126.4,21.33,21.33,126.4,21.33,256S126.4,490.67,256,490.67,490.67,385.6,490.67,256,385.6,21.33,256,21.33Z" style="fill:#005596"/><g style="clip-path:url(#clip-path)"><path d="M306.78,402.21a16.4,16.4,0,0,0,0-23.19l26.91,26.91a16.66,16.66,0,0,0,23,.7,16.4,16.4,0,0,0,.43-23.61l10.51,10.51a16.66,16.66,0,0,0,23,.69,16.41,16.41,0,0,0,.43-23.61L377.8,357.28a16.4,16.4,0,0,0,23.58-.47,16.66,16.66,0,0,0-.7-23L354.92,288a16.66,16.66,0,0,0,23.57,0c6.5-6.5,6.8-6.69,11.83-11.72l-58.43-58.43a33.52,33.52,0,0,0-19.27-9.54l-32-4.31a33.64,33.64,0,0,1-19.27-9.54l-171-171a55.13,55.13,0,0,0-77.89-.08h0a55.14,55.14,0,0,0-.09,78.06L184.86,273.92a33.52,33.52,0,0,1,8.78,15.38l5.68,22a33.55,33.55,0,0,0,8.78,15.39l6.44,6.44,69,69a16.4,16.4,0,0,0,23.19,0Z" style="fill:#fff;stroke:#005596;stroke-miterlimit:10;stroke-width:7px"/><line x1="377.8" y1="357.28" x2="322.41" y2="301.89" style="fill:#fff;stroke:#005596;stroke-miterlimit:10;stroke-width:7px"/><line x1="355.19" y1="288.51" x2="319.28" y2="252.6" style="fill:#fff;stroke:#005596;stroke-miterlimit:10;stroke-width:7px"/><line x1="357.25" y1="382.94" x2="298.78" y2="325.51" style="fill:#fff;stroke:#005596;stroke-miterlimit:10;stroke-width:7px"/><line x1="307.89" y1="379.89" x2="275.63" y2="348.66" style="fill:#fff;stroke:#005596;stroke-miterlimit:10;stroke-width:7px"/><path d="M223.42,397.86a16.4,16.4,0,0,0,23.19,0l69.05-69.05,6.44-6.44A33.59,33.59,0,0,0,330.88,307l5.67-22a33.59,33.59,0,0,1,8.78-15.39L514.66,100.24a55.13,55.13,0,0,0-.08-78.06h0a55.13,55.13,0,0,0-77.89.08L268.82,190.13a33.7,33.7,0,0,1-19.27,9.54l-32,4.31a33.52,33.52,0,0,0-19.27,9.54L139.88,272c5,5,5.32,5.22,11.83,11.72a16.65,16.65,0,0,0,23.56,0l-45.75,45.76a16.65,16.65,0,0,0-.71,23,16.4,16.4,0,0,0,23.59.47l-13.34,13.34a16.4,16.4,0,0,0,.43,23.6,16.65,16.65,0,0,0,23-.69L173,378.67a16.41,16.41,0,0,0,.43,23.61,16.66,16.66,0,0,0,23-.7l26.92-26.91a16.4,16.4,0,0,0,0,23.19Z" style="fill:#fff;stroke:#005596;stroke-miterlimit:10;stroke-width:7px"/><line x1="152.4" y1="352.93" x2="207.79" y2="297.54" style="fill:#fff;stroke:#005596;stroke-miterlimit:10;stroke-width:7px"/><line x1="175.01" y1="284.16" x2="210.91" y2="248.26" style="fill:#fff;stroke:#005596;stroke-miterlimit:10;stroke-width:7px"/><line x1="172.95" y1="378.59" x2="231.41" y2="321.16" style="fill:#fff;stroke:#005596;stroke-miterlimit:10;stroke-width:7px"/><line x1="222.31" y1="375.54" x2="254.56" y2="344.31" style="fill:#fff;stroke:#005596;stroke-miterlimit:10;stroke-width:7px"/><path d="M320.42,171.25a16.4,16.4,0,0,0-16.4,16.4V149.58a16.66,16.66,0,0,0-15.8-16.78,16.4,16.4,0,0,0-17,16.39V134.33a16.66,16.66,0,0,0-15.8-16.78,16.4,16.4,0,0,0-17,16.39V152.8a16.39,16.39,0,0,0-17-16.34,16.65,16.65,0,0,0-15.79,16.77v64.71A16.65,16.65,0,0,0,189,201.28c-9.2,0-9.54-.07-16.66-.07v82.63a33.61,33.61,0,0,0,6.88,20.37l19.56,25.66a33.54,33.54,0,0,1,6.88,20.37V527.07a55.15,55.15,0,0,0,55,55.14h0a55.14,55.14,0,0,0,55.26-55.14V348.17a33.69,33.69,0,0,1,4.67-17.09l11.57-19.59a33.53,33.53,0,0,0,4.67-17.08V187.65a16.4,16.4,0,0,0-16.4-16.4Z" style="fill:#fff;stroke:#005596;stroke-miterlimit:10;stroke-width:7px"/><line x1="238.43" y1="152.8" x2="238.43" y2="231.14" style="fill:none;stroke:#005596;stroke-miterlimit:10;stroke-width:7px"/><line x1="205.79" y1="217.41" x2="205.79" y2="268.19" style="fill:none;stroke:#005596;stroke-miterlimit:10;stroke-width:7px"/><line x1="271.11" y1="149.19" x2="271.84" y2="231.14" style="fill:none;stroke:#005596;stroke-miterlimit:10;stroke-width:7px"/><line x1="303.85" y1="186.24" x2="304.58" y2="231.14" style="fill:none;stroke:#005596;stroke-miterlimit:10;stroke-width:7px"/></g><path d="M256,28.33a227.74,227.74,0,0,1,88.62,437.45A227.73,227.73,0,0,1,167.38,46.22,226.27,226.27,0,0,1,256,28.33m0-7C126.4,21.33,21.33,126.4,21.33,256S126.4,490.67,256,490.67,490.67,385.6,490.67,256,385.6,21.33,256,21.33Z" style="fill:#005596"/></svg>