<svg id="icon" xmlns="http://www.w3.org/2000/svg" viewBox="0 0 512 512"><circle cx="256" cy="256" r="234.67" style="fill:#005696"/><circle cx="344.65" cy="361.29" r="29.88" transform="translate(-121.03 541.44) rotate(-67.5)" style="fill:#fff"/><path d="M195.81,146.52a124.94,124.94,0,0,1,100.74-8.21" style="fill:none;stroke:#c1d730;stroke-linecap:round;stroke-linejoin:round;stroke-width:7px"/><path d="M132.6,234.67A126,126,0,0,0,130.79,256c0,2.75.08,5.49.26,8.2" style="fill:none;stroke:#c1d730;stroke-linecap:round;stroke-linejoin:round;stroke-width:7.7468px"/><path d="M255.42,380.64a124.41,124.41,0,0,1-43.27-7.72" style="fill:none;stroke:#c1d730;stroke-linecap:round;stroke-linejoin:round;stroke-width:7px"/><path d="M379.74,264.94a124.25,124.25,0,0,1-5.65,29.28" style="fill:none;stroke:#c1d730;stroke-linecap:round;stroke-linejoin:round;stroke-width:7px"/><path d="M177.71,144.09v23.22A31.54,31.54,0,0,1,167.58,191V171.43H163.4V194a23.34,23.34,0,0,1-9.52,3.06V171.43h-4.19v25.63a23.34,23.34,0,0,1-9.52-3.06V171.43H136V191a31.54,31.54,0,0,1-10.13-23.66V144.09A31.54,31.54,0,0,1,136,120.42V140h4.18V117.39a23.34,23.34,0,0,1,9.52-3.06V140h4.19V114.33a23.21,23.21,0,0,1,9.52,3.07V140h4.18V120.43a27.8,27.8,0,0,1,2.54,2.55A32.18,32.18,0,0,1,177.71,144.09Z" style="fill:#fff"/><path d="M188.57,159.45v13.11c0,18.69-13.66,34.17-31.31,36.54v8.34h10.6a6.12,6.12,0,0,1,5.82,6.37H129.89a6.62,6.62,0,0,1,1.71-4.5,5.55,5.55,0,0,1,4.11-1.87h10.61V209.1C128.67,206.73,115,191.25,115,172.56V159.45c0-3.7,2.74-6.7,6.12-6.7v19.81A30.07,30.07,0,0,0,151,202.72h1.49a30.07,30.07,0,0,0,29.92-30.16V152.75a5.9,5.9,0,0,1,4.33,2A7.07,7.07,0,0,1,188.57,159.45Z" style="fill:#fff"/><rect x="125.85" y="152.93" width="51.86" height="5.53" style="fill:#c1d730"/><path d="M392.47,232.88l-83.7-36.47a3.23,3.23,0,0,1-1.94-3V117.57a3.23,3.23,0,0,1,4.53-3l83.69,36.47a3.24,3.24,0,0,1,1.95,3v75.87A3.24,3.24,0,0,1,392.47,232.88Z" style="fill:#c1d730"/><path d="M389.4,226a2,2,0,0,1-.87-.19l-75-32.66a2.18,2.18,0,0,1-1.3-2V123.68a2.17,2.17,0,0,1,2.17-2.18,2.22,2.22,0,0,1,.87.18l75,32.67a2.16,2.16,0,0,1,1.31,2v67.47A2.18,2.18,0,0,1,389.4,226Z" style="fill:#005696"/><path d="M314.43,119.36v4.29l75,32.69v67.47l-.05,0-75-32.69V123.68l0,0h0v-4.28m0,0a4.32,4.32,0,0,0-4.32,4.32v67.47a4.31,4.31,0,0,0,2.6,3.95l75,32.67a4.31,4.31,0,0,0,6-4V156.34a4.3,4.3,0,0,0-2.59-4l-75-32.67a4.25,4.25,0,0,0-1.72-.36Z" style="fill:#fff"/><path d="M395.52,243.23,340.1,272.54a1.89,1.89,0,0,1-1.64.06l-88.2-38.43a1.89,1.89,0,0,1-1.14-1.74v-2.35a1.89,1.89,0,0,1,1-1.67l55.42-29.31a1.89,1.89,0,0,1,1.64-.06l88.2,38.43a1.89,1.89,0,0,1,1.14,1.74v2.35A1.89,1.89,0,0,1,395.52,243.23Z" style="fill:#fff"/><path d="M338.15,266.61l-84-36.6a1.07,1.07,0,0,1-.08-1.92l52.49-27.76a1.08,1.08,0,0,1,.93,0l84,36.6a1.07,1.07,0,0,1,.08,1.92l-52.49,27.76A1.08,1.08,0,0,1,338.15,266.61Z" style="fill:#c1d730"/><path d="M353.55,250l-66.18-29.8a1.31,1.31,0,0,1-.09-2.32l21.91-12.2a1.21,1.21,0,0,1,1.08,0l66.18,29.8a1.31,1.31,0,0,1,.09,2.32L354.63,250A1.18,1.18,0,0,1,353.55,250Z" style="fill:#fff"/><path d="M312,250.55,284.39,238.8a1,1,0,0,1-.06-1.83l13.13-6.71a1,1,0,0,1,.86,0L325.94,242a1,1,0,0,1,.07,1.83l-13.14,6.71A1,1,0,0,1,312,250.55Z" style="fill:#fff"/><polygon points="313.07 147.92 313.32 140.16 329.81 129.64 337.24 132.5 313.07 147.92" style="fill:#fff"/><polygon points="313.82 175.63 312.96 164.76 353.43 138.95 362.88 144.33 313.82 175.63" style="fill:#fff"/><rect x="115" y="273.75" width="88.02" height="123.91" rx="3.44" style="fill:#c1d730"/><path d="M159,389.5a33.65,33.65,0,1,1,33.64-33.65A33.68,33.68,0,0,1,159,389.5Z" style="fill:#fff"/><path d="M159,323.56a32.3,32.3,0,1,1-32.29,32.3A32.3,32.3,0,0,1,159,323.56m0-2.69a35,35,0,1,0,35,35,35,35,0,0,0-35-35Z" style="fill:#c1d730"/><path d="M159,379.26a23.41,23.41,0,1,1,23.4-23.4A23.43,23.43,0,0,1,159,379.26Zm0-41.43a18,18,0,1,0,18,18A18.05,18.05,0,0,0,159,337.83Z" style="fill:#005696"/><circle cx="159.01" cy="355.86" r="9.39" style="fill:#005696"/><circle cx="178.65" cy="336.22" r="1.74" style="fill:#005696"/><circle cx="178.65" cy="375.49" r="1.74" style="fill:#005696"/><circle cx="139.38" cy="375.49" r="1.74" style="fill:#005696"/><circle cx="139.38" cy="336.22" r="1.74" style="fill:#005696"/><circle cx="186.78" cy="355.86" r="1.74" style="fill:#005696"/><circle cx="131.25" cy="355.86" r="1.74" style="fill:#005696"/><rect x="151.89" y="383.3" width="13.02" height="13.02" style="fill:#fff"/><path d="M163.57,384.65V395H153.23V384.65h10.34m2.69-2.69H150.55v15.71h15.71V382Z" style="fill:#c1d730"/><circle cx="158.4" cy="389.81" r="2.83" style="fill:#005696"/><path d="M158.4,328.47a24.72,24.72,0,1,1,24.71-24.72A24.74,24.74,0,0,1,158.4,328.47Z" style="fill:#fff"/><path d="M158.4,280.38A23.37,23.37,0,1,1,135,303.75a23.37,23.37,0,0,1,23.37-23.37m0-2.68a26.06,26.06,0,1,0,26.06,26.05A26.08,26.08,0,0,0,158.4,277.7Z" style="fill:#c1d730"/><circle cx="158.4" cy="303.75" r="7.51" style="fill:#005696"/><circle cx="168.16" cy="293.99" r="1.79" style="fill:#005696"/><circle cx="168.16" cy="313.51" r="1.79" style="fill:#005696"/><circle cx="148.64" cy="313.51" r="1.79" style="fill:#005696"/><circle cx="148.64" cy="293.99" r="1.79" style="fill:#005696"/><rect x="267.92" y="334.53" width="129.08" height="53.52" style="fill:#fff"/><path d="M269.6,320.17H395.31a1.68,1.68,0,0,1,1.68,1.68v8.72a0,0,0,0,1,0,0H267.92a0,0,0,0,1,0,0v-8.72A1.68,1.68,0,0,1,269.6,320.17Z" style="fill:#c1d730"/><path d="M267.92,392.08H397a0,0,0,0,1,0,0v5.74a1.68,1.68,0,0,1-1.68,1.68H269.6a1.68,1.68,0,0,1-1.68-1.68v-5.74A0,0,0,0,1,267.92,392.08Z" style="fill:#c1d730"/><path d="M273.25,310.62H294.6a1.57,1.57,0,0,1,1.57,1.57v4a0,0,0,0,1,0,0H271.68a0,0,0,0,1,0,0v-4A1.57,1.57,0,0,1,273.25,310.62Z" style="fill:#c1d730"/><path d="M298.93,306.47h19.88a1.68,1.68,0,0,1,1.68,1.68v8.09a0,0,0,0,1,0,0H297.24a0,0,0,0,1,0,0v-8.09A1.68,1.68,0,0,1,298.93,306.47Z" style="fill:#fff"/><path d="M371.11,306.47H391a1.68,1.68,0,0,1,1.68,1.68v8.09a0,0,0,0,1,0,0H369.43a0,0,0,0,1,0,0v-8.09A1.68,1.68,0,0,1,371.11,306.47Z" style="fill:#fff"/><path d="M367.74,316.24H321.56l8.07-14.94a1.7,1.7,0,0,1,1.49-.89h27.06a1.67,1.67,0,0,1,1.48.89Z" style="fill:#c1d730"/><path d="M344.65,397.21a35.92,35.92,0,1,1,35.92-35.92A36,36,0,0,1,344.65,397.21Zm0-65.8a29.88,29.88,0,1,0,29.88,29.88A29.91,29.91,0,0,0,344.65,331.41Z" style="fill:#005696"/><circle cx="344.65" cy="361.29" r="23.39" style="fill:#c1d730"/><circle cx="357.57" cy="348.37" r="8" style="fill:#fff"/></svg>