<svg id="icon" xmlns="http://www.w3.org/2000/svg" viewBox="0 0 512 512"><path d="M256,487.17A231.17,231.17,0,0,1,92.54,92.54,231.17,231.17,0,1,1,419.46,419.46,229.66,229.66,0,0,1,256,487.17Z" style="fill:#fff"/><path d="M256,28.33a227.74,227.74,0,0,1,88.62,437.45A227.73,227.73,0,0,1,167.38,46.22,226.27,226.27,0,0,1,256,28.33m0-7C126.4,21.33,21.33,126.4,21.33,256S126.4,490.67,256,490.67,490.67,385.6,490.67,256,385.6,21.33,256,21.33Z" style="fill:#005596"/><path d="M234,428.68a14.82,14.82,0,0,1-14.82-14.85l.19-107.66h-2.74V413.85a14.84,14.84,0,0,1-14.83,14.83H187.68a14.85,14.85,0,0,1-14.83-14.82l-.09-156.67a16.45,16.45,0,0,1-3.25,3.81,16.17,16.17,0,0,1-22.8-1.74l-13.25-15.48-.1.09-8.31-9.73a21,21,0,0,1,1.16-28.34l42.51-42.19A24.63,24.63,0,0,1,181,157c2.61-.56,5.53-1,8.2-1.31A41.68,41.68,0,0,1,213,81.89c.88-.06,1.78-.09,2.65-.09A41.7,41.7,0,0,1,243,155l4.17-.06h.94a60.65,60.65,0,0,1,9.61.76l.29,0L314,174.48,337.71,217l-70.66-24.2-3.71,57.7v163.4a14.84,14.84,0,0,1-14.82,14.83ZM171.24,238.23l.24.28-3.17-27.88-10.63,11.79Z" style="fill:#fff"/><path d="M215.69,85.3a38.19,38.19,0,0,1,14.89,73.35l16.69-.25h.89a58.32,58.32,0,0,1,9,.71l54.38,18.26,18.61,33.32L263.85,188l-4,62.38V413.85a11.32,11.32,0,0,1-11.32,11.33H234a11.32,11.32,0,0,1-11.32-11.35l.2-111.15h-9.75V413.85a11.33,11.33,0,0,1-11.33,11.33H187.68a11.33,11.33,0,0,1-11.33-11.32l-.1-164.37-5.34-47L153,222.36l15.57,18.15a12.65,12.65,0,0,1-1.36,17.83h0A12.67,12.67,0,0,1,149.36,257l-15.57-18.19-.1.08-6-7a17.37,17.37,0,0,1,1-23.59l42.5-42.18a21.31,21.31,0,0,1,10.52-5.73A82.62,82.62,0,0,1,196,158.65h4.8a38.18,38.18,0,0,1,12.45-73.27c.82,0,1.63-.08,2.43-.08m0-7h0c-.95,0-1.91,0-2.86.09a45.17,45.17,0,0,0-31.13,74.84l-1.46.29a28.18,28.18,0,0,0-14,7.61l-42.5,42.19a24.46,24.46,0,0,0-1.36,33.09l6,7,4.66,5.45.1-.09,10.92,12.75a19.66,19.66,0,0,0,25.21,4l.09,148.36a18.36,18.36,0,0,0,18.33,18.32h14.08a18.34,18.34,0,0,0,16.1-9.57A18.62,18.62,0,0,0,221,426.8a18.22,18.22,0,0,0,13,5.38h14.56a18.35,18.35,0,0,0,18.32-18.33V250.56l3.41-53,57.68,19.76,17.3,5.92-8.92-16L317.7,174l-1.32-2.36-2.56-.86-54.38-18.26-.55-.19-.58-.09a65.3,65.3,0,0,0-7.12-.73,45.21,45.21,0,0,0-35.5-73.16ZM162.34,222.47l3.37-3.73,1,8.83-4.37-5.1Z" style="fill:#005596"/><path d="M312.67,429.79A14.84,14.84,0,0,1,297.85,415V315.77h-2.07l.18,99.16a14.82,14.82,0,0,1-14.83,14.86h-12A14.84,14.84,0,0,1,254.33,415V267.86c0-3.13.14-6.3.41-9.42l.09-17.15-7.67-10.84,8.05-45.95,1.65-.77c2.24-1,8.36-3.91,9.75-4.65a45,45,0,0,1,7.84-3.17,39,39,0,0,1,24.47-69.45c.91,0,1.84,0,2.75.09a39,39,0,0,1,22,69.13,22.32,22.32,0,0,1,4.41,1.9l.24-.29,2.76,2.28L379.61,221a20.89,20.89,0,0,1,2.32,29.41l-6.35,7.44-.1-.08L363.3,272a15.27,15.27,0,0,1-21.55,1.67,15.46,15.46,0,0,1-2.71-3c0,7.66.09,17.29.09,17.42q0,1-.09,2.07V415a14.85,14.85,0,0,1-14.83,14.83Zm22.12-203.41c1,7.93,2.6,20,3.51,28.32a15.46,15.46,0,0,1,1.79-2.58l12-13.92Z" style="fill:#fff"/><path d="M298.93,110c.82,0,1.66,0,2.5.08a35.54,35.54,0,0,1,11.35,68.18h4.46a18.27,18.27,0,0,1,11.51,4.06l0-.05,48.56,41.47a17.36,17.36,0,0,1,1.92,24.48l-4,4.71-.09-.08-14.51,16.94a11.79,11.79,0,1,1-17.9-15.35l14.51-16.88-27-18.47s5.23,38.71,5.23,44.3c0,6.19.11,24.78.11,24.78,0,.64,0,1.27-.09,1.88V415a11.33,11.33,0,0,1-11.33,11.33H312.67A11.32,11.32,0,0,1,301.35,415V312.26h-9.07l.18,102.67a11.33,11.33,0,0,1-11.33,11.35h-12A11.33,11.33,0,0,1,257.83,415V267.86q0-4.64.41-9.26l.1-18.41-7.48-10.57,7.48-42.72s8.13-3.78,9.91-4.73c3-1.59,9-3.95,13.2-3.95h3.62A35.54,35.54,0,0,1,298.93,110m0-7a42.55,42.55,0,0,0-31.05,71.63c-1.14.5-2.14,1-2.92,1.4-1.17.63-6.5,3.13-9.57,4.57l-3.31,1.54-.63,3.6L244,228.41l-.5,2.88,1.68,2.38,6.19,8.73-.09,15.88c-.27,3.18-.41,6.4-.41,9.58V415a18.35,18.35,0,0,0,18.33,18.33h12a18.4,18.4,0,0,0,15.78-9,18.34,18.34,0,0,0,15.76,9h11.54A18.35,18.35,0,0,0,342.54,415V290.34c.06-.75.09-1.49.09-2.21,0-.11,0-4.45-.05-9.61A18.78,18.78,0,0,0,366,274.31l9.85-11.51.1.09,4.66-5.46,4-4.71a24.39,24.39,0,0,0-2.71-34.34l-48.55-41.47-3.1-2.65a42.42,42.42,0,0,0-1-58.59,42.34,42.34,0,0,0-27.29-12.61c-1-.07-2-.1-3-.1Zm41.88,143c-.49-4-1-8.27-1.53-12.23l7.58,5.19-6.05,7Z" style="fill:#005596"/><path d="M289.22,442.14a15.65,15.65,0,0,1-15.63-15.63V358.88h-2.73v67.63a15.64,15.64,0,0,1-31.27,0V354.67a15.25,15.25,0,0,1-11.71-14.82V273.71a17.88,17.88,0,0,1,17.87-17.85h3.6a33.3,33.3,0,0,1,22.89-57.47c.56,0,1.14,0,1.71.05a33.27,33.27,0,0,1,21.11,57.42h3.66a17.87,17.87,0,0,1,17.85,17.85v66.14a15.26,15.26,0,0,1-11.72,14.82v71.84A15.65,15.65,0,0,1,289.22,442.14Z" style="fill:#fff"/><path d="M272.24,201.89c.51,0,1,0,1.54,0a29.77,29.77,0,0,1,9.34,57.43h15.6a14.36,14.36,0,0,1,14.35,14.35v66.14a11.72,11.72,0,0,1-11.72,11.72v74.94a12.13,12.13,0,1,1-24.26,0V355.38h-9.73v71.13a12.13,12.13,0,0,1-12.13,12.13h0a12.13,12.13,0,0,1-12.14-12.13V351.57a11.71,11.71,0,0,1-11.71-11.72V273.71a14.36,14.36,0,0,1,14.37-14.35h15.58a29.77,29.77,0,0,1,10.91-57.47m0-7h0A36.83,36.83,0,0,0,242,252.69a21.39,21.39,0,0,0-17.63,21v66.14a18.74,18.74,0,0,0,11.71,17.36v69.3a19.13,19.13,0,0,0,36.13,8.78,19.13,19.13,0,0,0,36.13-8.78v-69.3a18.74,18.74,0,0,0,11.72-17.36V273.71a21.39,21.39,0,0,0-17.67-21,36.78,36.78,0,0,0-28.27-57.74c-.63,0-1.27-.05-1.89-.05Z" style="fill:#005596"/><path d="M219.13,442.14a8,8,0,0,1-7.88-6.51l-4.34-22.56a30.39,30.39,0,0,0,.37,8.13l1.91,11.62a8,8,0,0,1-7.92,9.32H161.05a22.08,22.08,0,0,1-20-12.55c-6.77-14.14-6.41-31.37,1.08-51.21A77.43,77.43,0,0,1,151,361.69a5.51,5.51,0,0,1,4.54-2.38,5.39,5.39,0,0,1,3.13,1,5.48,5.48,0,0,1,1.72,7.18l-2.69,4.81a48.09,48.09,0,0,0-4.8,21l2.86-7.67a147.1,147.1,0,0,1,30.73-49.47v-8.64l-7.68-24.11a3.5,3.5,0,0,1,3.34-4.56,3.27,3.27,0,0,1,.54,0l10.27,1.62-.23-2.51a3.5,3.5,0,0,1,4.76-3.58l10.93,4.28a3.81,3.81,0,0,1,.57.29,12.12,12.12,0,0,1,4.24,4.52,51.83,51.83,0,0,1,6.22.68,16.14,16.14,0,0,1,9.35,5.87L234.5,317l15.16,7.34a3.51,3.51,0,0,1,1.7,4.51L247.5,338a3.51,3.51,0,0,1-2.73,2.11l-21,3-4.9,25.86,8.23,64.17a8,8,0,0,1-8,9Z" style="fill:#fff"/><path d="M196.18,297.67,207.1,302a8.77,8.77,0,0,1,3.72,4.88c3.69.27,6.71.52,7.83.77a12.59,12.59,0,0,1,7.38,4.64l6.26,7.56,15.84,7.67-3.85,9.15L220.79,340l-5.48,28.86,8.31,64.72a4.52,4.52,0,0,1-4.49,5.1h0a4.52,4.52,0,0,1-4.44-3.67l-7-36.39s-.94,2.35-2.1,5.41a31.48,31.48,0,0,0-1.75,17.77l1.91,11.62a4.53,4.53,0,0,1-4.47,5.26H161.05a18.55,18.55,0,0,1-16.79-10.56c-7.3-15.24-4.84-32.49,1.2-48.46a73.94,73.94,0,0,1,8.38-15.94,2,2,0,0,1,1.66-.87,1.93,1.93,0,0,1,1.13.37,2,2,0,0,1,.64,2.64l-2.72,4.85c-5.88,12.16-6.32,24.83-3.45,37.35l7.9-21.18A144.27,144.27,0,0,1,190,337.55V327l-7.84-24.63,13.45,2.12a6.79,6.79,0,0,1,1.29.58l-.67-7.37m0-7a7,7,0,0,0-6.88,5.71l-6.1-1a6.67,6.67,0,0,0-1.09-.08,7,7,0,0,0-6.67,9.12L183,328.05v6.72a151.23,151.23,0,0,0-19.34,26.1,9,9,0,0,0-3-3.44,8.82,8.82,0,0,0-5.12-1.62,9,9,0,0,0-7.42,3.89,80.94,80.94,0,0,0-9.18,17.46c-7.84,20.75-8.16,38.91-1,53.95a25.55,25.55,0,0,0,23.1,14.53h40.22a11.53,11.53,0,0,0,8.79-4.06l.14-.18a11.52,11.52,0,0,0,20.36-8.75L222.4,369l4.33-22.86,18.53-2.63a7,7,0,0,0,5.47-4.21l3.86-9.16a7,7,0,0,0-3.41-9l-14.47-7-5.22-6.3a19.6,19.6,0,0,0-11.36-7.1,39,39,0,0,0-4.92-.61A15.53,15.53,0,0,0,210.8,296a7.19,7.19,0,0,0-1.14-.58l-10.93-4.27a6.88,6.88,0,0,0-2.55-.49Z" style="fill:#005596"/><rect x="-402.44" y="510.92" width="2888.89" height="40" style="fill:#231f20"/></svg>