<svg id="icon" xmlns="http://www.w3.org/2000/svg" viewBox="0 0 512 512"><path d="M256,487.17A231.17,231.17,0,0,1,92.54,92.54,231.17,231.17,0,1,1,419.46,419.46,229.66,229.66,0,0,1,256,487.17Z" style="fill:#fff"/><path d="M256,28.33a227.74,227.74,0,0,1,88.62,437.45A227.73,227.73,0,0,1,167.38,46.22,226.27,226.27,0,0,1,256,28.33m0-7C126.4,21.33,21.33,126.4,21.33,256S126.4,490.67,256,490.67,490.67,385.6,490.67,256,385.6,21.33,256,21.33Z" style="fill:#005596"/><path d="M335.52,263.35c0,6.19.11,24.78.11,24.78,0,.64,0,1.27-.09,1.88V415a11.33,11.33,0,0,1-11.33,11.33H312.67A11.32,11.32,0,0,1,301.35,415V312.26h-9.07l.18,102.67a11.33,11.33,0,0,1-11.33,11.35h-12A11.33,11.33,0,0,1,257.83,415V267.86q0-4.64.41-9.26l4.94-46-23.51,8.74-11-20.92,39.45-16.79,17-5.43a35.54,35.54,0,1,1,27.71,0h4.46a18.27,18.27,0,0,1,11.51,4.06l0-.05,48.56,41.47a17.36,17.36,0,0,1,1.92,24.48l-4,4.71-.09-.08-14.51,16.94A11.78,11.78,0,0,1,344,271h0a11.78,11.78,0,0,1-1.28-16.64l14.51-16.88-27-18.47S335.52,257.76,335.52,263.35Z" style="fill:#005596"/><path d="M187.68,425.18h14.08a11.33,11.33,0,0,0,11.33-11.33V302.67h9.75l-.2,111.15A11.32,11.32,0,0,0,234,425.18h14.56a11.32,11.32,0,0,0,11.32-11.33V250.33l4-62.38,66.35,22.73-18.61-33.32L257.21,159.1a57,57,0,0,0-9.94-.7l-16.69.25a38.18,38.18,0,1,0-29.77,0H196a82.62,82.62,0,0,0-14.31,1.72,21.31,21.31,0,0,0-10.52,5.73l-42.5,42.18a17.37,17.37,0,0,0-1,23.59l6,7,.1-.08L149.36,257a12.65,12.65,0,0,0,17.87,1.36h0a12.65,12.65,0,0,0,1.36-17.83L153,222.36l17.89-19.85,5.34,47,.1,164.37A11.33,11.33,0,0,0,187.68,425.18Z" style="fill:#005596"/><path d="M298.72,258.57h-15.6a29.77,29.77,0,1,0-21.79,0H245.75a14.35,14.35,0,0,0-14.37,14.35v66.14a11.72,11.72,0,0,0,11.71,11.72h0v74.94a12.13,12.13,0,0,0,12.14,12.13h0a12.13,12.13,0,0,0,12.13-12.13V354.58h9.73v71.14a12.13,12.13,0,0,0,12.13,12.13h0a12.13,12.13,0,0,0,12.13-12.13V350.78h0a11.72,11.72,0,0,0,11.72-11.72V272.92A14.35,14.35,0,0,0,298.72,258.57Z" style="fill:#fff"/><path d="M219.39,441.4a7.53,7.53,0,0,1-7.39-6.1l-4.88-25.38a28.78,28.78,0,0,0-.07,11.12L209,432.66a7.52,7.52,0,0,1-7.43,8.74H161.31a21.54,21.54,0,0,1-19.5-12.27c-6.71-14-6.34-31.11,1.1-50.81a77.05,77.05,0,0,1,8.72-16.58,5,5,0,0,1,8.54,5.27l-2.7,4.81a49,49,0,0,0-4.79,23.85l3.77-10.12a146.58,146.58,0,0,1,30.76-49.44v-8.92L179.51,303a3,3,0,0,1,.58-2.87,3,3,0,0,1,2.28-1l.47,0,10.9,1.72-.29-3.14a3,3,0,0,1,3-3.28,2.93,2.93,0,0,1,1.09.21l10.93,4.28a3.17,3.17,0,0,1,.49.24,11.76,11.76,0,0,1,4.19,4.57,55.65,55.65,0,0,1,6.42.7,15.6,15.6,0,0,1,9.07,5.7l5.82,7,15.25,7.39a3,3,0,0,1,1.46,3.86l-3.85,9.15a3,3,0,0,1-2.35,1.81l-21.36,3-5,26.29,8.25,64.25a7.53,7.53,0,0,1-7.47,8.48Z" style="fill:#005596"/><path d="M196.44,297.43l10.93,4.28a8.8,8.8,0,0,1,3.71,4.88c3.69.27,6.71.52,7.83.77a12.59,12.59,0,0,1,7.38,4.64l6.26,7.56,15.84,7.67-3.85,9.15-23.49,3.33-5.48,28.87,8.31,64.72a4.52,4.52,0,0,1-8.93,1.43l-7-36.39s-.94,2.35-2.1,5.41a31.48,31.48,0,0,0-1.75,17.77L206,433.14a4.53,4.53,0,0,1-4.47,5.26H161.31a18.55,18.55,0,0,1-16.79-10.56c-7.3-15.24-4.84-32.49,1.2-48.46a73.94,73.94,0,0,1,8.38-15.94,2,2,0,0,1,1.66-.87,1.93,1.93,0,0,1,1.13.37,2,2,0,0,1,.64,2.64l-2.72,4.85c-5.88,12.16-6.32,24.82-3.45,37.35l7.9-21.18a144.42,144.42,0,0,1,31-49.29V326.73l-7.84-24.63,13.45,2.12a7.12,7.12,0,0,1,1.29.57l-.67-7.36m0-6a6,6,0,0,0-6,5.86l-7.14-1.12a5.82,5.82,0,0,0-.93-.07,6,6,0,0,0-5.72,7.82l7.56,23.74v7.26A149.83,149.83,0,0,0,163.64,363a8,8,0,0,0-14.48-3,80,80,0,0,0-9.06,17.24c-7.74,20.49-8.07,38.38-1,53.17a24.57,24.57,0,0,0,22.2,14h40.22a10.48,10.48,0,0,0,8-3.71,9.86,9.86,0,0,0,.91-1.24,10.53,10.53,0,0,0,19.37-6.91l-8.18-63.78,4.49-23.71,19.24-2.73a6,6,0,0,0,4.69-3.61l3.85-9.15a6,6,0,0,0-2.91-7.73l-14.67-7.11L231,308.24a18.67,18.67,0,0,0-10.79-6.75,45,45,0,0,0-5.26-.62,14.73,14.73,0,0,0-4.39-4.26,6.89,6.89,0,0,0-1-.49l-10.92-4.27a6,6,0,0,0-2.19-.42Z" style="fill:#fff"/><rect x="149.56" y="510.92" width="2888.89" height="40" style="fill:#231f20"/></svg>