<svg id="icon" xmlns="http://www.w3.org/2000/svg" viewBox="0 0 512 512"><circle cx="256" cy="256" r="234.67" style="fill:#005596"/><path d="M335,263.28c0,6.19.11,24.78.11,24.78a16.66,16.66,0,0,1-.1,1.88v125a11.32,11.32,0,0,1-11.32,11.32H312.18a11.32,11.32,0,0,1-11.32-11.32V312.19h-9.08L292,414.87a11.32,11.32,0,0,1-11.33,11.34h-12a11.32,11.32,0,0,1-11.33-11.32V267.79c0-3.09.14-6.18.4-9.26l4.95-46-23.52,8.73-11-20.91,39.46-16.8,17-5.42a35.54,35.54,0,1,1,27.71,0h4.46a18.21,18.21,0,0,1,11.5,4l0,0,48.55,41.47a17.36,17.36,0,0,1,1.93,24.48l-4,4.7-.08-.08-14.51,17A11.8,11.8,0,0,1,343.53,271h0a11.79,11.79,0,0,1-1.27-16.64l14.51-16.89L329.8,219S335,257.69,335,263.28Z" style="fill:#fff"/><path d="M187.19,425.11h14.08a11.33,11.33,0,0,0,11.33-11.33V302.59l9.75,4.31-.2,106.86a11.33,11.33,0,0,0,11.32,11.35H248a11.32,11.32,0,0,0,11.32-11.33V250.26l4-62.38,66.35,22.72L311.1,177.29,256.72,159a58,58,0,0,0-9.94-.71l-16.69.26a38.18,38.18,0,1,0-29.77,0h-4.8a82.62,82.62,0,0,0-14.31,1.72A21.21,21.21,0,0,0,170.69,166l-42.51,42.19a17.38,17.38,0,0,0-1,23.59l6,7,.1-.09,15.57,18.2a12.66,12.66,0,0,0,17.87,1.36h0a12.65,12.65,0,0,0,1.35-17.84l-15.56-18.14,17.88-19.85,5.35,47,.1,164.37A11.32,11.32,0,0,0,187.19,425.11Z" style="fill:#fff"/><path d="M298.23,259.5h-15.6a29.77,29.77,0,1,0-21.79,0H245.26a14.36,14.36,0,0,0-14.38,14.35V340a11.72,11.72,0,0,0,11.72,11.72h0v74.94a12.13,12.13,0,0,0,12.13,12.13h0a12.14,12.14,0,0,0,12.14-12.13V355.51h9.72v71.14a12.14,12.14,0,0,0,12.14,12.13h0a12.13,12.13,0,0,0,12.13-12.13V351.71h0A11.72,11.72,0,0,0,312.58,340V273.85A14.35,14.35,0,0,0,298.23,259.5Z" style="fill:#005596"/><path d="M218.9,441.83a8,8,0,0,1-7.88-6.51l-4.34-22.56a30.39,30.39,0,0,0,.37,8.13L209,432.5a8,8,0,0,1-7.92,9.33H160.81a22.08,22.08,0,0,1-19.94-12.55c-6.77-14.14-6.41-31.37,1.08-51.21a77.2,77.2,0,0,1,8.78-16.69,5.52,5.52,0,0,1,9.39,5.79L157.43,372a48,48,0,0,0-4.8,21l2.86-7.66a146.94,146.94,0,0,1,30.73-49.47V327.2l-7.68-24.11a3.5,3.5,0,0,1,3.34-4.57,3.29,3.29,0,0,1,.54.05l10.27,1.62-.23-2.51a3.5,3.5,0,0,1,4.76-3.58l10.93,4.28a3.06,3.06,0,0,1,.57.29,12.17,12.17,0,0,1,4.24,4.51,53.21,53.21,0,0,1,6.22.69,16.12,16.12,0,0,1,9.35,5.87l5.74,6.93L249.43,324a3.51,3.51,0,0,1,1.7,4.51l-3.86,9.16a3.47,3.47,0,0,1-2.73,2.1l-21,3-4.9,25.86,8.23,64.16a8,8,0,0,1-8,9.05Z" style="fill:#c1d82f"/><path d="M196,297.36l10.92,4.28a8.83,8.83,0,0,1,3.72,4.87c3.68.27,6.71.53,7.83.78a12.59,12.59,0,0,1,7.38,4.64l6.26,7.55,15.84,7.67-3.85,9.16-23.49,3.33-5.48,28.87,8.31,64.72a4.53,4.53,0,0,1-8.94,1.43l-7-36.39s-.95,2.35-2.1,5.41a31.56,31.56,0,0,0-1.76,17.77l1.92,11.62a4.53,4.53,0,0,1-4.47,5.26H160.81A18.55,18.55,0,0,1,144,427.77c-7.3-15.24-4.84-32.49,1.19-48.47a74.14,74.14,0,0,1,8.39-15.93,2,2,0,0,1,1.65-.87,2,2,0,0,1,1.14.36,2,2,0,0,1,.64,2.64l-2.72,4.86c-5.88,12.16-6.32,24.82-3.45,37.35l7.9-21.18a144.41,144.41,0,0,1,30.95-49.3V326.65L181.88,302l13.45,2.12a8.32,8.32,0,0,1,1.29.58l-.67-7.36m0-7a7,7,0,0,0-6.88,5.71l-6.1-1a6.77,6.77,0,0,0-1.09-.09,7,7,0,0,0-6.67,9.13l7.51,23.59v6.72a150.33,150.33,0,0,0-19.34,26.1,9,9,0,0,0-15.54-1.17,81.5,81.5,0,0,0-9.17,17.45c-7.84,20.76-8.16,38.92-.95,54a25.52,25.52,0,0,0,23.09,14.53H201a11.51,11.51,0,0,0,8.79-4.07l.14-.17a11.52,11.52,0,0,0,20.36-8.75l-8.16-63.62,4.33-22.85L245,343.24A7,7,0,0,0,250.5,339l3.85-9.15a7,7,0,0,0-3.4-9l-14.47-7-5.22-6.3a19.72,19.72,0,0,0-11.37-7.11,41.76,41.76,0,0,0-4.91-.6,15.71,15.71,0,0,0-4.41-4.15,8.08,8.08,0,0,0-1.14-.57l-10.93-4.28a7.07,7.07,0,0,0-2.55-.48Z" style="fill:#005596"/><path d="M196,297.36l10.92,4.28a8.83,8.83,0,0,1,3.72,4.87c3.68.27,6.71.53,7.83.78a12.59,12.59,0,0,1,7.38,4.64l6.26,7.55,15.84,7.67-3.85,9.16-23.49,3.33-5.48,28.87,8.31,64.72a4.53,4.53,0,0,1-8.94,1.43l-7-36.39s-.95,2.35-2.1,5.41a31.56,31.56,0,0,0-1.76,17.77l1.92,11.62a4.53,4.53,0,0,1-4.47,5.26H160.81A18.55,18.55,0,0,1,144,427.77c-7.3-15.24-4.84-32.49,1.19-48.47a74.14,74.14,0,0,1,8.39-15.93,2,2,0,0,1,1.65-.87,2,2,0,0,1,1.14.36,2,2,0,0,1,.64,2.64l-2.72,4.86c-5.88,12.16-6.32,24.82-3.45,37.35l7.9-21.18a144.41,144.41,0,0,1,30.95-49.3V326.65L181.88,302l13.45,2.12a8.32,8.32,0,0,1,1.29.58l-.67-7.36m0-4a4,4,0,0,0-4,4.37l.17,1.86-9.63-1.52a4.32,4.32,0,0,0-.62-.05,4,4,0,0,0-3.81,5.22l7.65,24v8.37A147.44,147.44,0,0,0,155,385.13l-1.8,4.8a47.31,47.31,0,0,1,4.64-17.72l2.66-4.75,0,0a6,6,0,0,0-1.88-7.83,5.86,5.86,0,0,0-3.42-1.08,6,6,0,0,0-4.95,2.59,78.69,78.69,0,0,0-8.83,16.81c-7.54,20-7.9,37.33-1.06,51.6a22.57,22.57,0,0,0,20.39,12.83H201a8.52,8.52,0,0,0,8.41-9.91l1.08,3a8.53,8.53,0,0,0,16.83-2.7l-8.23-64.09L224,343.2l20.66-2.93a4,4,0,0,0,3.12-2.41l3.86-9.15a4,4,0,0,0-1.94-5.16l-15.06-7.29-5.67-6.83a16.56,16.56,0,0,0-9.66-6.05,49.79,49.79,0,0,0-6-.67,12.65,12.65,0,0,0-4.28-4.47,3.61,3.61,0,0,0-.65-.33l-10.93-4.27a3.85,3.85,0,0,0-1.45-.28Z" style="fill:#005596"/></svg>