<svg xmlns="http://www.w3.org/2000/svg" viewBox="0 0 83.02 77.85"><g id="Layer_2" data-name="Layer 2"><g id="Layer_1-2" data-name="Layer 1"><rect y="0.14" width="82.98" height="77.71" style="fill:#1e4383"/><path d="M58.37,33.83A117.41,117.41,0,0,0,83,61.58V0H0V4.52C4.83,5,21.42,8,38.37,27.43c6.9,7.8,11,5.7,15.2.5,0,0,2.4,10.4-12.6,19.2C41,47.13,24.11,9.37,0,4.66V77.71H83V70.52C73,66.68,62,57.07,58.37,33.83Z" style="fill:none"/><path d="M58.37,33.83C62,57.07,73,66.68,83,70.52V61.58A117.41,117.41,0,0,1,58.37,33.83Z" style="fill:#fff"/><path d="M41,47.13c15-8.8,12.6-19.2,12.6-19.2-4.2,5.2-8.3,7.3-15.2-.5C21.42,8,4.83,5,0,4.52v.14C24.11,9.37,41,47.13,41,47.13Z" style="fill:#fff"/><path d="M62.44,55.36C36.61,59.78,18.76,69.44,0,76.18v1.65H83V54A94,94,0,0,0,62.44,55.36Z" style="fill:none"/><path d="M83,53.82V.12H0V45.58c14.74-2.09,20.53-.74,40.65,1.82l.49.06-.49-.06c-1.51-.16-6.71-.46-17,1.36A145.34,145.34,0,0,0,0,55v7.08C9.62,58,18.23,54.44,28.54,52.66,50,49,59,50.7,83,53.82Z" style="fill:none"/><path d="M40.65,47.4l.49.06Z" style="fill:#2881c4"/><path d="M40.65,47.4C20.53,44.84,14.74,43.49,0,45.58V55a145.34,145.34,0,0,1,23.64-6.21C33.94,46.94,39.14,47.24,40.65,47.4Z" style="fill:#2881c4"/><path d="M83,54v-.15C59,50.7,50,49,28.54,52.66,18.23,54.44,9.62,58,0,62.05V76.18c18.76-6.74,36.61-16.4,62.44-20.82A94,94,0,0,1,83,54Z" style="fill:#2881c4"/></g></g></svg>