<svg id="icon" xmlns="http://www.w3.org/2000/svg" viewBox="0 0 512 512"><path d="M255.82,26.68a228.74,228.74,0,0,1,197,344.81A228.52,228.52,0,0,1,255.82,484,226.41,226.41,0,0,1,155.2,460.75,228.66,228.66,0,0,1,255.82,26.68m0-6c-129.6,0-234.67,105.07-234.67,234.67a234.67,234.67,0,1,0,469.34,0c0-129.6-105.07-234.67-234.67-234.67Z" style="fill:#1e4384"/><path d="M344.1,359.08H249.33a7.79,7.79,0,0,1-7.78-7.79V168.17a.13.13,0,0,1,.13-.13H343.8Z" style="fill:#fff;stroke:#1e4384;stroke-miterlimit:10;stroke-width:6px"/><path d="M390.11,171.3v180a7.79,7.79,0,0,1-7.78,7.79H344.1l-.3-191,24.06-40.84,20.7,38A12.86,12.86,0,0,1,390.11,171.3Z" style="fill:#fff;stroke:#1e4384;stroke-miterlimit:10;stroke-width:6px"/><path d="M367.86,127.2H267V109.28a7.37,7.37,0,0,1,7.37-7.37h85.92a7.36,7.36,0,0,1,7.37,7.31Z" style="fill:#fff;stroke:#1e4384;stroke-miterlimit:10;stroke-width:6px"/><path d="M267,127.2l-24.63,39.45a.91.91,0,0,0,.77,1.39H343.8l22.78-38.68a1.43,1.43,0,0,0-1.23-2.16Z" style="fill:#fff;stroke:#1e4384;stroke-miterlimit:10;stroke-width:6px"/><path d="M155.09,223.26a46,46,0,0,0,22.89,0c18.11-4.66,35.85-5.71,51.31,6.28,11.24,8.71,20.13,22.71,23,36.3,4.42,21.09-4.42,41.91-17.08,58.87-42.73,57.22-59.23,37.84-68.66,37.84-6.4,0-11.91,3.67-18.64,3-15.7-1.49-28.57-15.23-38-26-16.5-18.77-30.91-41.3-29.73-66.72,1-22,17.93-47.36,41.34-52.64C132.38,217.79,144.51,220.54,155.09,223.26Z" style="fill:#fff;stroke:#1e4384;stroke-miterlimit:10;stroke-width:6px"/><path d="M165.07,226.54h0a3.13,3.13,0,0,1-3.12-3.11c1.78-21.05-13.09-28.88-13.72-29.21a2.67,2.67,0,0,1-1.25-3.91,3.63,3.63,0,0,1,4.55-1c.79.39,19.23,9.85,17.13,34.64A3.14,3.14,0,0,1,165.07,226.54Z" style="fill:#1e4384;stroke:#1e4384;stroke-miterlimit:10"/><path d="M169.79,221.53c-.74-4.28-6.46-44.73,40.13-48a.37.37,0,0,1,.39.26c1,3.49,9.7,38.11-40.08,48.05A.37.37,0,0,1,169.79,221.53Z" style="fill:none;stroke:#1e4384;stroke-miterlimit:10;stroke-width:6px"/><path d="M123.08,236.6s-20.22-1.76-21.1,22.87" style="fill:none;stroke:#1e4384;stroke-linecap:round;stroke-miterlimit:10;stroke-width:8px"/><path d="M257.59,248c-29.34,0-53.12,6-53.12,13.42s23.78,13.41,53.12,13.41,53.12-6,53.12-13.41S286.92,248,257.59,248Zm21.66,15.7c-7.18,0-13-1.44-13-3.22s5.84-3.21,13-3.21,13,1.44,13,3.21S286.45,263.72,279.25,263.72Z" style="fill:#fff;stroke:#1e4384;stroke-miterlimit:10;stroke-width:6px"/><path d="M310.71,261.44v32c-62.33,27.35-106.24-1.66-106.24-1.66V261.44c0,7.4,23.78,13.41,53.12,13.41S310.71,268.84,310.71,261.44Z" style="fill:#fff;stroke:#1e4384;stroke-miterlimit:10;stroke-width:6px"/><path d="M310.71,293.48v58.83c-62.33,27.35-106.24-1.66-106.24-1.66V291.82S248.38,320.83,310.71,293.48Z" style="fill:#fff;stroke:#1e4384;stroke-miterlimit:10;stroke-width:6px"/><path d="M310.71,352.31v20.62a10.27,10.27,0,0,1-4.45,8.63c-43.4,28.2-83.83,8.28-97.18,0a10.19,10.19,0,0,1-4.61-8.72V350.65S248.38,379.66,310.71,352.31Z" style="fill:#fff;stroke:#1e4384;stroke-miterlimit:10;stroke-width:6px"/><path d="M292.27,260.5c0,1.78-5.82,3.22-13,3.22s-13-1.44-13-3.22,5.84-3.21,13-3.21S292.27,258.73,292.27,260.5Z" style="fill:#fff;stroke:#1e4384;stroke-miterlimit:10;stroke-width:2px"/></svg>