<svg id="icon" xmlns="http://www.w3.org/2000/svg" viewBox="0 0 512 512"><path d="M256,487.17A231.17,231.17,0,0,1,92.54,92.54,231.17,231.17,0,1,1,419.46,419.46,229.66,229.66,0,0,1,256,487.17Z" style="fill:#fff"/><path d="M256,28.33a227.74,227.74,0,0,1,88.62,437.45A227.73,227.73,0,0,1,167.38,46.22,226.27,226.27,0,0,1,256,28.33m0-7C126.4,21.33,21.33,126.4,21.33,256S126.4,490.67,256,490.67,490.67,385.6,490.67,256,385.6,21.33,256,21.33Z" style="fill:#005596"/><rect x="210.07" y="113.69" width="178.14" height="291.53" style="fill:#005596"/><rect x="226.68" y="130.08" width="24.58" height="22.8" style="fill:#fff"/><rect x="226.68" y="156.11" width="24.58" height="22.8" style="fill:#fff"/><rect x="266.79" y="130.08" width="24.58" height="22.8" style="fill:#fff"/><rect x="266.79" y="156.11" width="24.58" height="22.8" style="fill:#fff"/><rect x="306.91" y="130.08" width="24.58" height="22.8" style="fill:#fff"/><rect x="306.91" y="156.11" width="24.58" height="22.8" style="fill:#fff"/><rect x="347.02" y="130.08" width="24.58" height="22.8" style="fill:#fff"/><rect x="347.02" y="156.11" width="24.58" height="22.8" style="fill:#fff"/><rect x="226.68" y="192.21" width="24.58" height="22.8" style="fill:#fff"/><rect x="226.68" y="218.25" width="24.58" height="22.8" style="fill:#fff"/><rect x="266.79" y="192.21" width="24.58" height="22.8" style="fill:#fff"/><rect x="266.79" y="218.25" width="24.58" height="22.8" style="fill:#fff"/><rect x="306.91" y="192.21" width="24.58" height="22.8" style="fill:#fff"/><rect x="306.91" y="218.25" width="24.58" height="22.8" style="fill:#fff"/><rect x="347.02" y="192.21" width="24.58" height="22.8" style="fill:#fff"/><rect x="347.02" y="218.25" width="24.58" height="22.8" style="fill:#fff"/><rect x="226.68" y="254.35" width="24.58" height="22.8" style="fill:#fff"/><rect x="226.68" y="280.38" width="24.58" height="22.8" style="fill:#fff"/><rect x="266.79" y="254.35" width="24.58" height="22.8" style="fill:#fff"/><rect x="266.79" y="280.38" width="24.58" height="22.8" style="fill:#fff"/><rect x="306.91" y="254.35" width="24.58" height="22.8" style="fill:#fff"/><rect x="306.91" y="280.38" width="24.58" height="22.8" style="fill:#fff"/><rect x="347.02" y="254.35" width="24.58" height="22.8" style="fill:#fff"/><rect x="347.02" y="280.38" width="24.58" height="22.8" style="fill:#fff"/><rect x="226.68" y="317.16" width="24.58" height="22.8" style="fill:#fff"/><rect x="226.68" y="343.2" width="24.58" height="22.8" style="fill:#fff"/><rect x="266.79" y="317.16" width="24.58" height="22.8" style="fill:#fff"/><rect x="266.79" y="343.2" width="24.58" height="22.8" style="fill:#fff"/><rect x="306.91" y="317.16" width="24.58" height="22.8" style="fill:#fff"/><rect x="306.91" y="343.2" width="24.58" height="22.8" style="fill:#fff"/><rect x="347.02" y="317.16" width="24.58" height="22.8" style="fill:#fff"/><rect x="347.02" y="343.2" width="24.58" height="22.8" style="fill:#fff"/><polygon points="195.64 117.95 195.64 101.62 222.16 101.62 222.16 93.73 376.12 93.73 376.12 101.62 402.63 101.62 402.63 117.95 195.64 117.95" style="fill:#fff"/><path d="M372.62,97.23v7.89h26.51v9.33h-200v-9.33h26.52V97.23h147m7-7h-161v7.89H192.14v23.33h214V98.12H379.62V90.23Z" style="fill:#005596"/><path d="M102.44,408.72,119,384h8.68V270H114.9a4.61,4.61,0,0,1-1.79-8.86l78.51-33,78.52,33a4.61,4.61,0,0,1-1.79,8.86h-12.8V384h8.67l16.58,24.75Z" style="fill:#fff"/><path d="M191.62,231.93l77.16,32.39a1.11,1.11,0,0,1-.43,2.13h-16.3v121h10.3l11.89,17.75H109l11.89-17.75H131.2v-121H114.9a1.11,1.11,0,0,1-.43-2.13l77.15-32.39m0-7.59-2.71,1.13-77.15,32.39a8.11,8.11,0,0,0,3.14,15.59h9.3v107h-7l-2.08,3.1-11.89,17.75-7.3,10.9H287.36l-7.3-10.9-11.89-17.75-2.08-3.1h-7v-107h9.3a8.11,8.11,0,0,0,3.16-15.58l-77.18-32.4-2.71-1.13Z" style="fill:#005596"/><path d="M228.56,274.05h0a12.37,12.37,0,0,1,12.37,12.37v23.3a0,0,0,0,1,0,0H216.19a0,0,0,0,1,0,0v-23.3A12.37,12.37,0,0,1,228.56,274.05Z" style="fill:#005596"/><path d="M191.72,274.05h0a12.37,12.37,0,0,1,12.37,12.37v23.3a0,0,0,0,1,0,0H179.35a0,0,0,0,1,0,0v-23.3A12.37,12.37,0,0,1,191.72,274.05Z" style="fill:#005596"/><path d="M154.69,274.05h0a12.37,12.37,0,0,1,12.37,12.37v23.3a0,0,0,0,1,0,0H142.32a0,0,0,0,1,0,0v-23.3A12.37,12.37,0,0,1,154.69,274.05Z" style="fill:#005596"/><path d="M228.56,331.92h0a12.37,12.37,0,0,1,12.37,12.37v23.3a0,0,0,0,1,0,0H216.19a0,0,0,0,1,0,0v-23.3A12.37,12.37,0,0,1,228.56,331.92Z" style="fill:#005596"/><path d="M154.69,331.92h0a12.37,12.37,0,0,1,12.37,12.37v23.3a0,0,0,0,1,0,0H142.32a0,0,0,0,1,0,0v-23.3A12.37,12.37,0,0,1,154.69,331.92Z" style="fill:#005596"/><rect x="177.29" y="342.41" width="28.68" height="62.82" style="fill:#005596"/></svg>