<svg id="icon" xmlns="http://www.w3.org/2000/svg" viewBox="0 0 512 512"><path d="M256,487.17A231.17,231.17,0,0,1,92.54,92.54,231.17,231.17,0,1,1,419.46,419.46,229.66,229.66,0,0,1,256,487.17Z" style="fill:#fff"/><path d="M256,28.33a227.74,227.74,0,0,1,88.62,437.45A227.73,227.73,0,0,1,167.38,46.22,226.27,226.27,0,0,1,256,28.33m0-7C126.4,21.33,21.33,126.4,21.33,256S126.4,490.67,256,490.67,490.67,385.6,490.67,256,385.6,21.33,256,21.33Z" style="fill:#005596"/><rect x="213.57" y="117.19" width="171.14" height="284.53" style="fill:#fff"/><path d="M381.21,120.69V398.22H217.07V120.69H381.21m7-7H210.07V405.22H388.21V113.69Z" style="fill:#005596"/><rect x="228.68" y="132.08" width="20.58" height="18.8" style="fill:#fff"/><path d="M247.26,134.08v14.8H230.68v-14.8h16.58m4-4H226.68v22.8h24.58v-22.8Z" style="fill:#005596"/><rect x="228.68" y="158.11" width="20.58" height="18.8" style="fill:#fff"/><path d="M247.26,160.11v14.8H230.68v-14.8h16.58m4-4H226.68v22.8h24.58v-22.8Z" style="fill:#005596"/><rect x="268.79" y="132.08" width="20.58" height="18.8" style="fill:#fff"/><path d="M287.37,134.08v14.8H270.79v-14.8h16.58m4-4H266.79v22.8h24.58v-22.8Z" style="fill:#005596"/><rect x="268.79" y="158.11" width="20.58" height="18.8" style="fill:#fff"/><path d="M287.37,160.11v14.8H270.79v-14.8h16.58m4-4H266.79v22.8h24.58v-22.8Z" style="fill:#005596"/><rect x="308.91" y="132.08" width="20.58" height="18.8" style="fill:#fff"/><path d="M327.49,134.08v14.8H310.91v-14.8h16.58m4-4H306.91v22.8h24.58v-22.8Z" style="fill:#005596"/><rect x="308.91" y="158.11" width="20.58" height="18.8" style="fill:#fff"/><path d="M327.49,160.11v14.8H310.91v-14.8h16.58m4-4H306.91v22.8h24.58v-22.8Z" style="fill:#005596"/><rect x="349.02" y="132.08" width="20.58" height="18.8" style="fill:#fff"/><path d="M367.6,134.08v14.8H351v-14.8H367.6m4-4H347v22.8H371.6v-22.8Z" style="fill:#005596"/><rect x="349.02" y="158.11" width="20.58" height="18.8" style="fill:#fff"/><path d="M367.6,160.11v14.8H351v-14.8H367.6m4-4H347v22.8H371.6v-22.8Z" style="fill:#005596"/><rect x="228.68" y="194.21" width="20.58" height="18.8" style="fill:#fff"/><path d="M247.26,196.21V211H230.68V196.21h16.58m4-4H226.68V215h24.58V192.21Z" style="fill:#005596"/><rect x="228.68" y="220.25" width="20.58" height="18.8" style="fill:#fff"/><path d="M247.26,222.25v14.8H230.68v-14.8h16.58m4-4H226.68v22.8h24.58v-22.8Z" style="fill:#005596"/><rect x="268.79" y="194.21" width="20.58" height="18.8" style="fill:#fff"/><path d="M287.37,196.21V211H270.79V196.21h16.58m4-4H266.79V215h24.58V192.21Z" style="fill:#005596"/><rect x="268.79" y="220.25" width="20.58" height="18.8" style="fill:#fff"/><path d="M287.37,222.25v14.8H270.79v-14.8h16.58m4-4H266.79v22.8h24.58v-22.8Z" style="fill:#005596"/><rect x="308.91" y="194.21" width="20.58" height="18.8" style="fill:#fff"/><path d="M327.49,196.21V211H310.91V196.21h16.58m4-4H306.91V215h24.58V192.21Z" style="fill:#005596"/><rect x="308.91" y="220.25" width="20.58" height="18.8" style="fill:#fff"/><path d="M327.49,222.25v14.8H310.91v-14.8h16.58m4-4H306.91v22.8h24.58v-22.8Z" style="fill:#005596"/><rect x="349.02" y="194.21" width="20.58" height="18.8" style="fill:#fff"/><path d="M367.6,196.21V211H351V196.21H367.6m4-4H347V215H371.6V192.21Z" style="fill:#005596"/><rect x="349.02" y="220.25" width="20.58" height="18.8" style="fill:#fff"/><path d="M367.6,222.25v14.8H351v-14.8H367.6m4-4H347v22.8H371.6v-22.8Z" style="fill:#005596"/><rect x="228.68" y="256.35" width="20.58" height="18.8" style="fill:#fff"/><path d="M247.26,258.35v14.8H230.68v-14.8h16.58m4-4H226.68v22.8h24.58v-22.8Z" style="fill:#005596"/><rect x="228.68" y="282.38" width="20.58" height="18.8" style="fill:#fff"/><path d="M247.26,284.38v14.8H230.68v-14.8h16.58m4-4H226.68v22.8h24.58v-22.8Z" style="fill:#005596"/><rect x="268.79" y="256.35" width="20.58" height="18.8" style="fill:#fff"/><path d="M287.37,258.35v14.8H270.79v-14.8h16.58m4-4H266.79v22.8h24.58v-22.8Z" style="fill:#005596"/><rect x="268.79" y="282.38" width="20.58" height="18.8" style="fill:#fff"/><path d="M287.37,284.38v14.8H270.79v-14.8h16.58m4-4H266.79v22.8h24.58v-22.8Z" style="fill:#005596"/><rect x="308.91" y="256.35" width="20.58" height="18.8" style="fill:#fff"/><path d="M327.49,258.35v14.8H310.91v-14.8h16.58m4-4H306.91v22.8h24.58v-22.8Z" style="fill:#005596"/><rect x="308.91" y="282.38" width="20.58" height="18.8" style="fill:#fff"/><path d="M327.49,284.38v14.8H310.91v-14.8h16.58m4-4H306.91v22.8h24.58v-22.8Z" style="fill:#005596"/><rect x="349.02" y="256.35" width="20.58" height="18.8" style="fill:#fff"/><path d="M367.6,258.35v14.8H351v-14.8H367.6m4-4H347v22.8H371.6v-22.8Z" style="fill:#005596"/><rect x="349.02" y="282.38" width="20.58" height="18.8" style="fill:#fff"/><path d="M367.6,284.38v14.8H351v-14.8H367.6m4-4H347v22.8H371.6v-22.8Z" style="fill:#005596"/><rect x="228.68" y="319.17" width="20.58" height="18.8" style="fill:#fff"/><path d="M247.26,321.16V336H230.68V321.16h16.58m4-4H226.68V340h24.58V317.16Z" style="fill:#005596"/><rect x="228.68" y="345.2" width="20.58" height="18.8" style="fill:#fff"/><path d="M247.26,347.2V362H230.68V347.2h16.58m4-4H226.68V366h24.58V343.2Z" style="fill:#005596"/><rect x="268.79" y="319.17" width="20.58" height="18.8" style="fill:#fff"/><path d="M287.37,321.16V336H270.79V321.16h16.58m4-4H266.79V340h24.58V317.16Z" style="fill:#005596"/><rect x="268.79" y="345.2" width="20.58" height="18.8" style="fill:#fff"/><path d="M287.37,347.2V362H270.79V347.2h16.58m4-4H266.79V366h24.58V343.2Z" style="fill:#005596"/><rect x="308.91" y="319.17" width="20.58" height="18.8" style="fill:#fff"/><path d="M327.49,321.16V336H310.91V321.16h16.58m4-4H306.91V340h24.58V317.16Z" style="fill:#005596"/><rect x="308.91" y="345.2" width="20.58" height="18.8" style="fill:#fff"/><path d="M327.49,347.2V362H310.91V347.2h16.58m4-4H306.91V366h24.58V343.2Z" style="fill:#005596"/><rect x="349.02" y="319.17" width="20.58" height="18.8" style="fill:#fff"/><path d="M367.6,321.16V336H351V321.16H367.6m4-4H347V340H371.6V317.16Z" style="fill:#005596"/><rect x="349.02" y="345.2" width="20.58" height="18.8" style="fill:#fff"/><path d="M367.6,347.2V362H351V347.2H367.6m4-4H347V366H371.6V343.2Z" style="fill:#005596"/><polygon points="195.64 117.95 195.64 101.62 222.16 101.62 222.16 93.73 376.12 93.73 376.12 101.62 402.63 101.62 402.63 117.95 195.64 117.95" style="fill:#fff"/><path d="M372.62,97.23v7.89h26.51v9.33h-200v-9.33h26.52V97.23h147m7-7h-161v7.89H192.14v23.33h214V98.12H379.62V90.23Z" style="fill:#005596"/><path d="M102.44,408.72,119,384h8.68V270H114.9a4.61,4.61,0,0,1-1.79-8.86l78.51-33,78.52,33a4.61,4.61,0,0,1-1.79,8.86h-12.8V384h8.67l16.58,24.75Z" style="fill:#fff"/><path d="M191.62,231.93l77.16,32.39a1.11,1.11,0,0,1-.43,2.13h-16.3v121h10.3l11.89,17.75H109l11.89-17.75H131.2v-121H114.9a1.11,1.11,0,0,1-.43-2.13l77.15-32.39m0-7.59-2.71,1.13-77.15,32.39a8.11,8.11,0,0,0,3.14,15.59h9.3v107h-7l-2.08,3.1-11.89,17.75-7.3,10.9H287.36l-7.3-10.9-11.89-17.75-2.08-3.1h-7v-107h9.3a8.11,8.11,0,0,0,3.16-15.58l-77.18-32.4-2.71-1.13Z" style="fill:#005596"/><path d="M218.19,307.73V286.42a10.37,10.37,0,0,1,20.74,0v21.31Z" style="fill:#fff"/><path d="M228.56,278.05a8.39,8.39,0,0,1,8.37,8.38v19.3H220.19v-19.3a8.38,8.38,0,0,1,8.37-8.38m0-4a12.37,12.37,0,0,0-12.37,12.38v23.3h24.74v-23.3a12.37,12.37,0,0,0-12.37-12.38Z" style="fill:#005596"/><path d="M181.35,307.73V286.42a10.38,10.38,0,0,1,20.75,0v21.31Z" style="fill:#fff"/><path d="M191.72,278.05a8.39,8.39,0,0,1,8.38,8.38v19.3H183.35v-19.3a8.39,8.39,0,0,1,8.37-8.38m0-4a12.37,12.37,0,0,0-12.37,12.38v23.3H204.1v-23.3a12.38,12.38,0,0,0-12.38-12.38Z" style="fill:#005596"/><path d="M144.32,307.73V286.42a10.37,10.37,0,0,1,20.74,0v21.31Z" style="fill:#fff"/><path d="M154.69,278.05a8.38,8.38,0,0,1,8.37,8.38v19.3H146.32v-19.3a8.38,8.38,0,0,1,8.37-8.38m0-4h0a12.37,12.37,0,0,0-12.37,12.38v23.3h24.74v-23.3a12.37,12.37,0,0,0-12.37-12.38Z" style="fill:#005596"/><path d="M218.19,365.6V344.29a10.37,10.37,0,0,1,20.74,0V365.6Z" style="fill:#fff"/><path d="M228.56,335.92a8.39,8.39,0,0,1,8.37,8.37V363.6H220.19V344.29a8.38,8.38,0,0,1,8.37-8.37m0-4a12.37,12.37,0,0,0-12.37,12.37V367.6h24.74V344.29a12.37,12.37,0,0,0-12.37-12.37Z" style="fill:#005596"/><path d="M144.32,365.6V344.29a10.37,10.37,0,0,1,20.74,0V365.6Z" style="fill:#fff"/><path d="M154.69,335.92a8.38,8.38,0,0,1,8.37,8.37V363.6H146.32V344.29a8.38,8.38,0,0,1,8.37-8.37m0-4h0a12.37,12.37,0,0,0-12.37,12.37V367.6h24.74V344.29a12.37,12.37,0,0,0-12.37-12.37Z" style="fill:#005596"/><rect x="180.79" y="345.91" width="21.68" height="62.51" style="fill:#fff"/><path d="M199,349.41v55.5H184.29v-55.5H199m7-7H177.29v69.5H206v-69.5Z" style="fill:#005596"/></svg>