<svg id="icon" xmlns="http://www.w3.org/2000/svg" viewBox="0 0 512 512"><circle cx="256" cy="256" r="234.67" style="fill:#005596"/><rect x="118.18" y="186.76" width="250.63" height="151.7" rx="13" style="fill:#fff"/><path d="M355.81,189.76a10,10,0,0,1,10,10v125.7a10,10,0,0,1-10,10H131.18a10,10,0,0,1-10-10V199.76a10,10,0,0,1,10-10H355.81m0-6H131.18a16,16,0,0,0-16,16v125.7a16,16,0,0,0,16,16H355.81a16,16,0,0,0,16-16V199.76a16,16,0,0,0-16-16Z" style="fill:#005596"/><path d="M118.69,327,240.24,226.1a7.09,7.09,0,0,1,6.42,0L368.3,327" style="fill:#fff;stroke:#005596;stroke-miterlimit:10;stroke-width:6px"/><path d="M118.69,198.94l122.49,62.51a5,5,0,0,0,4.54,0L368.3,198.94" style="fill:#fff;stroke:#005596;stroke-miterlimit:10;stroke-width:6px"/><path d="M254,201.93a17.57,17.57,0,0,1,7,6.43,17.21,17.21,0,0,1,2.49,9.12,15.8,15.8,0,0,1-1.17,6.38,9.29,9.29,0,0,1-3.22,4,8.19,8.19,0,0,1-4.69,1.38,7.34,7.34,0,0,1-3.75-.91,5.31,5.31,0,0,1-2.31-2.68c-1.35,2.4-3.58,3.59-6.68,3.59a8.43,8.43,0,0,1-4.54-1.3,9.28,9.28,0,0,1-3.36-3.65,11.27,11.27,0,0,1-1.26-5.4,11.39,11.39,0,0,1,1.24-5.41,9,9,0,0,1,3.34-3.63,8.68,8.68,0,0,1,4.58-1.28,7.32,7.32,0,0,1,5.73,2.35v-2h6.73v12.59a2.88,2.88,0,0,0,.49,1.89,1.64,1.64,0,0,0,1.32.58q2.59,0,2.6-6.39a13.23,13.23,0,0,0-1.84-7,12.61,12.61,0,0,0-5.17-4.76,16.72,16.72,0,0,0-7.72-1.71,15.6,15.6,0,0,0-7.69,1.85,13.17,13.17,0,0,0-5.22,5.14,14.66,14.66,0,0,0-1.86,7.36,15.24,15.24,0,0,0,1.82,7.47,12.88,12.88,0,0,0,5.13,5.14,15.64,15.64,0,0,0,7.66,1.83,18.79,18.79,0,0,0,8.21-1.81l1.52,4.41a18.62,18.62,0,0,1-4.47,1.45,26.74,26.74,0,0,1-5.26.53,21.71,21.71,0,0,1-10.54-2.47,17.68,17.68,0,0,1-7.06-6.81,19.19,19.19,0,0,1-2.5-9.74,18.8,18.8,0,0,1,2.52-9.67,17.86,17.86,0,0,1,7.12-6.79,22.06,22.06,0,0,1,10.62-2.47A21.59,21.59,0,0,1,254,201.93Zm-7.63,20.5a5.94,5.94,0,0,0,0-7,3.84,3.84,0,0,0-3-1.24,3.77,3.77,0,0,0-2.93,1.24,5,5,0,0,0-1.11,3.47,5.08,5.08,0,0,0,1.11,3.48,3.72,3.72,0,0,0,2.93,1.26A3.81,3.81,0,0,0,246.36,222.43Z" style="fill:#005596"/><path d="M145.53,388.13a18.25,18.25,0,0,1-13-5.38,179.46,179.46,0,0,1,.17-253.52,18.41,18.41,0,0,1,26,0l24.87,24.9a18.38,18.38,0,0,1,0,26,106.49,106.49,0,0,0-19.8,27.28,18.55,18.55,0,0,1-16.26,10.05l-23.9,3.36c-7.31,24.71-7.32,45.34,0,70.3l24.62,3.46c6,0,12.66,4.4,15.49,10.16A105.71,105.71,0,0,0,183.37,332a18.4,18.4,0,0,1,0,26l-24.83,24.8a18.27,18.27,0,0,1-13,5.36Z" style="fill:#fff"/><path d="M145.69,126.87a15.34,15.34,0,0,1,10.88,4.5l24.87,24.9a15.4,15.4,0,0,1,0,21.75,109.29,109.29,0,0,0-20.36,28,15.48,15.48,0,0,1-13.77,8.4h0l-26,3.66c-8.25,26.83-8.26,48.6,0,75.7L148,297.59h.12c4.66,0,10.41,3.45,12.88,8.48a108.7,108.7,0,0,0,20.3,28,15.39,15.39,0,0,1,0,21.74l-24.83,24.8a15.4,15.4,0,0,1-21.75,0C66,311.86,66.05,200,134.82,131.36a15.31,15.31,0,0,1,10.87-4.49m0-6h0a21.22,21.22,0,0,0-15.11,6.24,182.26,182.26,0,0,0-.17,257.76,21.4,21.4,0,0,0,30.23,0l24.83-24.8a21.4,21.4,0,0,0,0-30.23,102.84,102.84,0,0,1-19.17-26.46c-3.32-6.75-10.82-11.67-17.93-11.81l-22.5-3.16c-6.49-23.17-6.49-42,0-64.9l21.8-3.07a21.52,21.52,0,0,0,18.66-11.61l0,0,0,0a102.82,102.82,0,0,1,19.24-26.5,21.39,21.39,0,0,0,0-30.24l-24.87-24.9a21.21,21.21,0,0,0-15.12-6.26Z" style="fill:#005596"/><path d="M359.86,267.76a71.9,71.9,0,0,1-71.95-71.94,72,72,0,1,1,71.95,71.94Z" style="fill:#fff"/><path d="M359.86,126.87a69,69,0,1,1-68.95,68.95,69,69,0,0,1,68.95-68.95m0-6a75,75,0,0,0-33,142.26,74.18,74.18,0,0,0,33,7.63,74.95,74.95,0,1,0,0-149.89Z" style="fill:#005596"/><path d="M359.86,202.56a22.52,22.52,0,1,1,14.36-5.18A22.51,22.51,0,0,1,359.86,202.56Z" style="fill:#fff"/><path d="M359.86,160.53A19.51,19.51,0,1,1,340.35,180a19.51,19.51,0,0,1,19.51-19.51m0-6A25.51,25.51,0,1,0,385.37,180a25.53,25.53,0,0,0-25.51-25.51Z" style="fill:#005596"/><path d="M306.74,240h.06l-.07-.09Z" style="fill:#005596"/><path d="M413,239.92l-.08.09H413Z" style="fill:#005596"/><path d="M379.52,206.65l-.82-.19-.64.53a28.51,28.51,0,0,1-36.39,0l-.65-.54-.83.19c-20.47,4.83-33.71,16.49-33.71,29.71,0,.73.11,2,.12,2.1l.13,1.46.07.09a69.18,69.18,0,0,0,106.11,0l.08-.09.13-1.46c0-.13.12-1.38.12-2.11C413.24,223.13,400,211.47,379.52,206.65Z" style="fill:#b9d532"/></svg>