<svg id="icon" xmlns="http://www.w3.org/2000/svg" viewBox="0 0 512 512"><circle cx="256" cy="256" r="234.67" style="fill:#005596"/><path d="M207.64,178.39V333.61a2.5,2.5,0,0,1-4.27,1.76l-77.59-77.6a2.52,2.52,0,0,1,0-3.54l77.59-77.6A2.5,2.5,0,0,1,207.64,178.39Z" style="fill:#b9d532;stroke:#fff;stroke-miterlimit:10;stroke-width:13.7702083587646px"/><path d="M214.58,390l0-12.37a2.51,2.51,0,0,0-.73-1.78l-118-118a2.49,2.49,0,0,1,0-3.53l118-118.07a2.47,2.47,0,0,0,.73-1.77V122a2.5,2.5,0,0,0-4.27-1.77l-134,134a2.49,2.49,0,0,0,0,3.53l133.94,134A2.5,2.5,0,0,0,214.58,390Z" style="fill:#fff"/><rect x="229.81" y="231.9" width="206.55" height="48.2" rx="2.5" transform="translate(666.18 512) rotate(-180)" style="fill:#fff"/></svg>