<svg id="icon" xmlns="http://www.w3.org/2000/svg" viewBox="0 0 512 512"><circle cx="256" cy="256" r="234.67" style="fill:#005596"/><path d="M124.59,351a13.37,13.37,0,0,1-13.36-13.36V164a6.47,6.47,0,0,1,6.47-6.47H403.38a13.38,13.38,0,0,1,13.36,13.36V337.66A13.38,13.38,0,0,1,403.38,351Z" style="fill:#b9d532"/><path d="M403.38,160.92a10,10,0,0,1,10,10V337.66a10,10,0,0,1-10,10H124.59a10,10,0,0,1-10-10V164a3.11,3.11,0,0,1,3.11-3.11H403.38m0-6.72H117.7a9.84,9.84,0,0,0-9.83,9.83V337.66a16.74,16.74,0,0,0,16.72,16.72H403.38a16.74,16.74,0,0,0,16.72-16.72V170.92a16.74,16.74,0,0,0-16.72-16.72Z" style="fill:#005596"/><path d="M328.39,242.09a3,3,0,0,1-.78-.1l-6.69-1.81a3,3,0,0,1-2.12-3.69l1.31-4.81a19.91,19.91,0,0,1-5.64-5.74l-4.88,1.3a2.86,2.86,0,0,1-.77.1,3,3,0,0,1-2.89-2.23l-1.78-6.7a3,3,0,0,1,2.13-3.67l4.87-1.29a18.9,18.9,0,0,1,.61-4,19.34,19.34,0,0,1,1.48-3.75l-3.55-3.57a3,3,0,0,1,0-4.25l4.91-4.88a3,3,0,0,1,4.25,0l3.56,3.58a19.93,19.93,0,0,1,7.76-2.11l1.3-4.82a3,3,0,0,1,1.4-1.82,3.05,3.05,0,0,1,1.49-.4,3,3,0,0,1,.79.11l6.69,1.81a3,3,0,0,1,2.11,3.68l-1.3,4.81a20.13,20.13,0,0,1,5.63,5.74l4.88-1.3a3.46,3.46,0,0,1,.77-.1,3,3,0,0,1,2.9,2.24l1.77,6.69a3,3,0,0,1-2.13,3.67l-4.87,1.29a18.18,18.18,0,0,1-.61,4,18.45,18.45,0,0,1-1.48,3.76l3.55,3.57a3,3,0,0,1,0,4.24l-4.91,4.89a3,3,0,0,1-4.24,0L340.34,233a20.18,20.18,0,0,1-7.75,2.11l-1.31,4.81A3,3,0,0,1,328.39,242.09Zm3-34.72a7.41,7.41,0,0,0-7.14,5.47,7.41,7.41,0,0,0,5.21,9.07,7.55,7.55,0,0,0,1.94.26,7.4,7.4,0,0,0,0-14.8Z" style="fill:#fff"/><path d="M334.37,190.45l6.69,1.81-1.9,7a17.18,17.18,0,0,1,7.67,7.8l7.11-1.89,1.78,6.7-7.12,1.89a17,17,0,0,1-.49,5.51,17.33,17.33,0,0,1-2.35,5l5.19,5.21L346,234.41l-5.18-5.21a17.34,17.34,0,0,1-9.5,2.9c-.35,0-.7,0-1.06,0l-1.9,7-6.69-1.81,1.9-7a17.23,17.23,0,0,1-7.67-7.8l-7.1,1.89-1.78-6.7,7.11-1.89a17.29,17.29,0,0,1,.5-5.51,17,17,0,0,1,2.35-5L311.82,200l4.91-4.89,5.18,5.21a17.36,17.36,0,0,1,9.5-2.89c.36,0,.71,0,1.06,0l1.9-7m-3,34.72a10.4,10.4,0,0,0,2.71-20.43,10.4,10.4,0,0,0-5.43,20.07,10.65,10.65,0,0,0,2.72.36m3-40.72a6,6,0,0,0-3,.8,6,6,0,0,0-2.81,3.64l-.77,2.84a22.93,22.93,0,0,0-4.72,1.29L321,190.9a6,6,0,0,0-8.48,0l-4.91,4.89a6,6,0,0,0,0,8.48l2.09,2.1a19.91,19.91,0,0,0-.78,2.33,18.91,18.91,0,0,0-.5,2.4l-2.86.76a6,6,0,0,0-4.26,7.34l1.78,6.7a6,6,0,0,0,5.79,4.46,6.26,6.26,0,0,0,1.54-.2l2.89-.77a23.17,23.17,0,0,0,3.43,3.5l-.77,2.84a6,6,0,0,0,4.22,7.36l6.69,1.81a6.11,6.11,0,0,0,1.57.21,6,6,0,0,0,5.79-4.43l.77-2.85a22.93,22.93,0,0,0,4.72-1.29l2.11,2.12a6,6,0,0,0,8.48,0l4.92-4.88a6,6,0,0,0,0-8.49l-2.08-2.09c.3-.77.56-1.55.78-2.33a21.45,21.45,0,0,0,.5-2.41l2.85-.76a6,6,0,0,0,4.26-7.34l-1.77-6.69a6,6,0,0,0-5.8-4.47,6.32,6.32,0,0,0-1.54.2l-2.88.77a23.11,23.11,0,0,0-3.43-3.49l.77-2.85a6,6,0,0,0-4.23-7.36l-6.69-1.81a5.94,5.94,0,0,0-1.57-.21Zm-3,34.72a4.16,4.16,0,0,1-1.16-.16,4.4,4.4,0,0,1,1.15-8.64,4.56,4.56,0,0,1,1.15.16,4.4,4.4,0,0,1-1.14,8.64Z" style="fill:#005596"/><path d="M279.14,322.37a3.69,3.69,0,0,1-.65-.07L268,320a3,3,0,0,1-1.88-1.32,3,3,0,0,1-.4-2.26l2-8.78a29.45,29.45,0,0,1-10.39-9.66l-8.68,2.73a3.13,3.13,0,0,1-.9.14,3,3,0,0,1-2.86-2.1l-3.23-10.3a3,3,0,0,1,2-3.76l8.68-2.72a26.81,26.81,0,0,1,3.07-13.8l-6.7-6.15a3,3,0,0,1-1-2.08,3,3,0,0,1,.78-2.16l7.3-8a3,3,0,0,1,4.24-.18l6.7,6.15a29.55,29.55,0,0,1,13.5-4.33l2-8.78A3,3,0,0,1,285,240.3a3,3,0,0,1,.66.07l10.53,2.34a3,3,0,0,1,2.28,3.59l-2,8.77a29.63,29.63,0,0,1,10.39,9.66L315.6,262a3.16,3.16,0,0,1,.9-.13,3,3,0,0,1,2.87,2.1l3.23,10.29a3,3,0,0,1-2,3.76L312,280.75a26.81,26.81,0,0,1-3.07,13.79l6.69,6.15a3,3,0,0,1,.19,4.24l-7.3,7.95a3,3,0,0,1-2.08,1h-.13a3,3,0,0,1-2-.79l-6.7-6.15A29.59,29.59,0,0,1,284,311.24L282.07,320A3,3,0,0,1,279.14,322.37Zm2.93-54.23a13.26,13.26,0,0,0-12.85,10.32,13.19,13.19,0,0,0,10,15.74,13.4,13.4,0,0,0,2.89.32A13.26,13.26,0,0,0,295,284.2a13.19,13.19,0,0,0-10-15.74A13.4,13.4,0,0,0,282.07,268.14Z" style="fill:#fff"/><path d="M285,243.3l10.53,2.34-2.47,11.07a26.84,26.84,0,0,1,12.49,11.59l10.91-3.43,3.24,10.29-10.93,3.43a24.86,24.86,0,0,1-3.69,16.56l8.44,7.75-7.3,8-8.43-7.74a26.92,26.92,0,0,1-15.74,5.2h-.48l-2.47,11.07L268.61,317,271.07,306a26.87,26.87,0,0,1-12.48-11.59l-10.91,3.43-3.24-10.3,10.93-3.43a24.86,24.86,0,0,1,3.69-16.56l-8.44-7.75,7.3-7.95,8.43,7.74a26.92,26.92,0,0,1,15.74-5.2h.48L285,243.3m-2.94,54.22a16.19,16.19,0,0,0,3.51-32,16.55,16.55,0,0,0-3.54-.39,16.19,16.19,0,0,0-3.5,32,16.45,16.45,0,0,0,3.53.39M285,237.3a6,6,0,0,0-5.86,4.69l-1.48,6.67a32.66,32.66,0,0,0-10.63,3.41L262,247.39a6,6,0,0,0-8.48.36l-7.3,7.95a6,6,0,0,0,.37,8.48l5.07,4.66a30,30,0,0,0-1.74,5.32,29.56,29.56,0,0,0-.69,5.55l-6.57,2.07a6,6,0,0,0-3.92,7.52L242,299.59a6,6,0,0,0,5.72,4.21,5.88,5.88,0,0,0,1.8-.28l6.6-2.07a32.23,32.23,0,0,0,8.17,7.6l-1.49,6.67a6,6,0,0,0,4.55,7.16l10.54,2.34a5.76,5.76,0,0,0,1.3.15,6,6,0,0,0,5.86-4.7l1.48-6.66a32.44,32.44,0,0,0,10.63-3.42l5.09,4.68a6,6,0,0,0,8.48-.36l7.29-8a6,6,0,0,0-.36-8.48l-5.07-4.65a30.13,30.13,0,0,0,1.74-5.33A31.2,31.2,0,0,0,315,283l6.56-2.06a6,6,0,0,0,3.93-7.53l-3.23-10.29a6,6,0,0,0-5.73-4.2,6.07,6.07,0,0,0-1.79.27l-6.6,2.07a32.76,32.76,0,0,0-8.17-7.6l1.49-6.66a6,6,0,0,0-.8-4.53,6,6,0,0,0-3.76-2.63l-10.53-2.35a5.75,5.75,0,0,0-1.3-.14Zm-2.94,54.22a10,10,0,0,1-2.23-.25,10.19,10.19,0,0,1,2.2-20.13,10.44,10.44,0,0,1,2.23.25A10.18,10.18,0,0,1,292,283.55a10.24,10.24,0,0,1-9.93,8Z" style="fill:#005596"/><path d="M212.49,264.57a3,3,0,0,1-2.66-1.6l-3.14-6a24.74,24.74,0,0,1-4.54.42,23.82,23.82,0,0,1-6.09-.78l-3.57,5.64a3,3,0,0,1-1.88,1.32,3,3,0,0,1-.66.07,3,3,0,0,1-1.6-.46l-7.23-4.58a3,3,0,0,1-.93-4.14l3.56-5.64a24,24,0,0,1-4.87-9.45l-6.75-.28a3,3,0,0,1-2.88-3.12l.35-8.55a3,3,0,0,1,1-2.09,3,3,0,0,1,2-.79l6.86.28a21.85,21.85,0,0,1,5.68-9l-3.14-6a3,3,0,0,1-.2-2.29,3,3,0,0,1,1.47-1.76l7.58-4a2.93,2.93,0,0,1,1.39-.35,3,3,0,0,1,2.66,1.61l3.14,6a24.74,24.74,0,0,1,4.54-.42,23.39,23.39,0,0,1,6.09.79l3.57-5.64a3,3,0,0,1,2.54-1.4,3,3,0,0,1,1.6.47l7.23,4.58a3,3,0,0,1,1.33,1.87,3,3,0,0,1-.4,2.27L221,217.26a24.07,24.07,0,0,1,4.88,9.46l6.75.28a3,3,0,0,1,2.87,3.12l-.35,8.55a3,3,0,0,1-1,2.08,3,3,0,0,1-2,.8l-6.86-.28a21.91,21.91,0,0,1-5.68,9l3.13,6a3,3,0,0,1,.21,2.28,3,3,0,0,1-1.47,1.77l-7.58,4A3.06,3.06,0,0,1,212.49,264.57Zm-9-40.26a9.87,9.87,0,1,0,4.34,1A9.78,9.78,0,0,0,203.48,224.31Z" style="fill:#fff"/><path d="M192.24,204.52l4.22,8a22.24,22.24,0,0,1,6.12-.87A20.58,20.58,0,0,1,210,213l4.81-7.6L222,210l-4.81,7.6a21.32,21.32,0,0,1,6.2,12l9.08.37-.35,8.56-9.09-.37a21.15,21.15,0,0,1-2.59,6.32,21.42,21.42,0,0,1-4.6,5.05l4.22,8.05-7.59,4-4.21-8a22.24,22.24,0,0,1-6.12.87,20.88,20.88,0,0,1-7.39-1.34L190,260.65l-7.23-4.58,4.81-7.59a21.27,21.27,0,0,1-6.21-12l-9.07-.37.35-8.55,9.08.37a19.7,19.7,0,0,1,7.2-11.37l-4.22-8.05,7.58-4M203.46,247a12.84,12.84,0,1,0-5.66-1.32,12.83,12.83,0,0,0,5.66,1.32m-11.22-48.48a5.93,5.93,0,0,0-2.78.69l-7.58,4a6,6,0,0,0-2.53,8.1l2.13,4.08a24.16,24.16,0,0,0-2.27,3,24.78,24.78,0,0,0-1.77,3.35l-4.6-.19h-.24a6,6,0,0,0-6,5.75l-.35,8.56A6,6,0,0,0,172,242.1l4.62.19a27,27,0,0,0,3.46,6.71l-2.44,3.86a6,6,0,0,0,1.86,8.28l7.23,4.58a6,6,0,0,0,8.28-1.86l2.45-3.86a27,27,0,0,0,4.68.4c1,0,1.91,0,2.87-.14l2.15,4.1a6,6,0,0,0,8.1,2.53l7.58-4a6,6,0,0,0,2.53-8.1l-2.14-4.07a25,25,0,0,0,2.28-3,26.1,26.1,0,0,0,1.77-3.36l4.59.19h.25a6,6,0,0,0,6-5.76l.35-8.55a6,6,0,0,0-5.75-6.24l-4.62-.19a27.09,27.09,0,0,0-3.47-6.72l2.45-3.86a6,6,0,0,0-1.86-8.28L218,200.37a6,6,0,0,0-3.21-.93,5.92,5.92,0,0,0-1.31.15,6,6,0,0,0-3.75,2.64l-2.45,3.87a27.05,27.05,0,0,0-4.68-.41,27.44,27.44,0,0,0-2.87.15l-2.15-4.1a6,6,0,0,0-5.32-3.22ZM203.46,241a6.76,6.76,0,0,1-3-.71,6.83,6.83,0,1,1,3,.71Z" style="fill:#005596"/><path d="M151.64,416a40.45,40.45,0,0,1-40.41-40.4v-5a5.87,5.87,0,0,1,5.86-5.86H410.88a5.87,5.87,0,0,1,5.86,5.86v5A40.45,40.45,0,0,1,376.33,416Z" style="fill:#fff"/><path d="M410.88,368.11a2.51,2.51,0,0,1,2.5,2.5v5a37.15,37.15,0,0,1-37.05,37H151.64a37.15,37.15,0,0,1-37-37v-5a2.5,2.5,0,0,1,2.5-2.5H410.88m0-6.72H117.09a9.22,9.22,0,0,0-9.22,9.22v5a43.81,43.81,0,0,0,43.77,43.76H376.33a43.81,43.81,0,0,0,43.77-43.76v-5a9.23,9.23,0,0,0-9.22-9.22Z" style="fill:#005596"/><path d="M221.26,388.38a17.46,17.46,0,0,1-17.44-17.44,6.19,6.19,0,0,1,6.19-6.19H318a6.19,6.19,0,0,1,6.19,6.19,17.46,17.46,0,0,1-17.45,17.44Z" style="fill:#fff"/><path d="M318,368.11a2.83,2.83,0,0,1,2.82,2.83A14.12,14.12,0,0,1,306.7,385H221.26a14.13,14.13,0,0,1-14.08-14.08,2.84,2.84,0,0,1,2.83-2.83H318m0-6.72H210a9.56,9.56,0,0,0-9.55,9.55,20.82,20.82,0,0,0,20.8,20.8H306.7a20.83,20.83,0,0,0,20.81-20.8,9.56,9.56,0,0,0-9.55-9.55Z" style="fill:#005596"/><path d="M167.57,240.29a71.92,71.92,0,0,1-71.95-71.95,72,72,0,1,1,71.95,71.95Z" style="fill:#fff"/><path d="M167.57,99.39a69,69,0,1,1-68.95,69,69,69,0,0,1,68.95-68.95m0-6a75,75,0,0,0-33,142.26,74.11,74.11,0,0,0,33,7.64,74.95,74.95,0,1,0,0-149.9Z" style="fill:#005596"/><path d="M167.57,175.08a22.5,22.5,0,1,1,14.36-5.17A22.51,22.51,0,0,1,167.57,175.08Z" style="fill:#fff"/><path d="M167.57,133.05a19.51,19.51,0,1,1-19.51,19.51,19.52,19.52,0,0,1,19.51-19.51m0-6a25.51,25.51,0,1,0,25.52,25.51,25.53,25.53,0,0,0-25.52-25.51Z" style="fill:#005596"/><path d="M114.45,212.52h.06l-.07-.09Z" style="fill:#005596"/><path d="M220.7,212.44l-.08.09h.07Z" style="fill:#005596"/><path d="M187.24,179.17l-.82-.19-.65.54a28.53,28.53,0,0,1-36.39,0l-.65-.54-.82.2c-20.48,4.82-33.72,16.48-33.72,29.7,0,.73.11,2,.12,2.1l.13,1.46.07.09a69.18,69.18,0,0,0,106.11,0l.08-.09.13-1.45c0-.14.12-1.38.12-2.12C221,195.65,207.72,184,187.24,179.17Z" style="fill:#b9d532"/><path d="M198.18,144.27v19.25a1.82,1.82,0,0,0,2.16,1.77,11.6,11.6,0,0,0,0-22.79A1.81,1.81,0,0,0,198.18,144.27Z" style="fill:#005596;stroke:#005596;stroke-miterlimit:10;stroke-width:3px"/><path d="M137,163.52V144.27a1.82,1.82,0,0,0-2.16-1.77,11.6,11.6,0,0,0,0,22.79A1.82,1.82,0,0,0,137,163.52Z" style="fill:#005596;stroke:#005596;stroke-miterlimit:10;stroke-width:3px"/><path d="M133.71,150.75a33.87,33.87,0,1,1,67.73,0" style="fill:none;stroke:#005596;stroke-linecap:round;stroke-linejoin:round;stroke-width:3.36890316009522px"/><path d="M198.31,145.55v13.87c0,3.62-3.4,6.55-7.58,6.55H171.1" style="fill:none;stroke:#005596;stroke-linecap:round;stroke-linejoin:round;stroke-width:3.36890316009522px"/><rect x="164.77" y="162.81" width="11.3" height="6.32" rx="3.16" style="fill:#005596"/></svg>