<svg id="icon" xmlns="http://www.w3.org/2000/svg" viewBox="0 0 512 512"><circle cx="256" cy="256" r="234.67" style="fill:#005596"/><path d="M242.88,348.5a8,8,0,0,1-4-1.08L92.54,262.93a8,8,0,0,1,0-13.86l146.34-84.5a8,8,0,0,1,12,6.93v48H415.47a8,8,0,0,1,8,8v57a8,8,0,0,1-8,8H250.89v48A8,8,0,0,1,242.88,348.5Z" style="fill:#fff"/><path d="M242.87,166.5a5,5,0,0,1,5,5v51H415.47a5,5,0,0,1,5,5v57a5,5,0,0,1-5,5H247.89v51a5,5,0,0,1-5,5,4.93,4.93,0,0,1-2.5-.68L94,260.33a5,5,0,0,1,0-8.67l146.34-84.49a5,5,0,0,1,2.49-.67m0-6a11,11,0,0,0-5.48,1.47L91,246.47a11,11,0,0,0,0,19.06L237.38,350a11,11,0,0,0,16.51-9.53v-45H415.47a11,11,0,0,0,11-11v-57a11,11,0,0,0-11-11H253.89v-45a11,11,0,0,0-11-11Z" style="fill:#b9d532"/></svg>