<svg id="icon" xmlns="http://www.w3.org/2000/svg" viewBox="0 0 512 512"><circle cx="256" cy="256" r="234.67" style="fill:#005596"/><ellipse cx="256" cy="368.33" rx="118.2" ry="33.02" style="fill:#b9d532"/><path d="M331.82,233c9.47-20.76,11.83-48.05,2.25-70.74a84.47,84.47,0,0,0-78-51.6H256a84.47,84.47,0,0,0-78,51.6c-9.58,22.69-7.22,50,2.25,70.74,1.89,4.12,54.22,98.16,70.85,128a5.74,5.74,0,0,0,10,0C277.67,331.15,329.93,237.11,331.82,233Zm-55.65-16.36h0a32.31,32.31,0,0,1-7.48,4.45,31.88,31.88,0,1,1,7.5-4.46Z" style="fill:#fff"/></svg>