<svg id="icon" xmlns="http://www.w3.org/2000/svg" viewBox="0 0 512 512"><circle cx="256" cy="256" r="234.67" style="fill:#005596"/><rect x="129.15" y="144.32" width="209.39" height="263.02" rx="10" style="fill:#fff"/><rect x="141.44" y="185.83" width="183.89" height="5.26" rx="2.63" style="fill:#005596;stroke:#fff;stroke-miterlimit:10"/><rect x="156.77" y="168.24" width="168.56" height="5.26" rx="2.63" style="fill:#005596;stroke:#fff;stroke-miterlimit:10"/><rect x="141.44" y="203.41" width="162.79" height="5.26" rx="2.63" style="fill:#005596;stroke:#fff;stroke-miterlimit:10"/><rect x="171.12" y="233.05" width="154.2" height="5.26" rx="2.63" style="fill:#005596;stroke:#fff;stroke-miterlimit:10"/><rect x="171.12" y="244.68" width="154.2" height="5.26" rx="2.63" style="fill:#005596;stroke:#fff;stroke-miterlimit:10"/><rect x="145.7" y="233.28" width="16.42" height="16.42" style="fill:#fff;stroke:#005596;stroke-miterlimit:10;stroke-width:4px"/><rect x="171.12" y="277.21" width="154.2" height="5.26" rx="2.63" style="fill:#005596;stroke:#fff;stroke-miterlimit:10"/><rect x="171.12" y="288.84" width="154.2" height="5.26" rx="2.63" style="fill:#005596;stroke:#fff;stroke-miterlimit:10"/><rect x="145.7" y="277.44" width="16.42" height="16.42" style="fill:#fff;stroke:#005596;stroke-miterlimit:10;stroke-width:4px"/><rect x="171.12" y="321.37" width="154.2" height="5.26" rx="2.63" style="fill:#005596;stroke:#fff;stroke-miterlimit:10"/><rect x="171.12" y="333" width="154.2" height="5.26" rx="2.63" style="fill:#005596;stroke:#fff;stroke-miterlimit:10"/><rect x="145.7" y="321.6" width="16.42" height="16.42" style="fill:#b9d532;stroke:#b9d532;stroke-miterlimit:10;stroke-width:4px"/><rect x="171.12" y="365.53" width="154.2" height="5.26" rx="2.63" style="fill:#005596;stroke:#fff;stroke-miterlimit:10"/><rect x="171.12" y="377.16" width="154.2" height="5.26" rx="2.63" style="fill:#005596;stroke:#fff;stroke-miterlimit:10"/><rect x="145.7" y="365.76" width="16.42" height="16.42" style="fill:#fff;stroke:#005596;stroke-miterlimit:10;stroke-width:4px"/><polyline points="144.51 319.77 154.18 331.4 164.95 305.03" style="fill:none;stroke:#005596;stroke-linecap:round;stroke-linejoin:round;stroke-width:6px"/><path d="M364.36,124.94h0a6.78,6.78,0,0,1,6.78,6.78v6.61a2,2,0,0,1-2,2h-9.47a2,2,0,0,1-2-2v-6.61a6.78,6.78,0,0,1,6.78-6.78Z" transform="translate(184.11 -210.66) rotate(42.29)" style="fill:#b9d532"/><path d="M335.2,108.7v3a4,4,0,0,1-4,4H324v9H312.2v-9H305a4,4,0,0,1-4-4v-3a4,4,0,0,1,4-4h26.15A4,4,0,0,1,335.2,108.7Z" style="fill:#b9d532"/><circle cx="318.08" cy="184.55" r="59.36" transform="translate(2.47 373.3) rotate(-61)" style="fill:#fff"/><path d="M318.08,119.79a64.76,64.76,0,1,0,64.77,64.76A64.84,64.84,0,0,0,318.08,119.79Zm0,124.12a59.36,59.36,0,1,1,59.37-59.36A59.43,59.43,0,0,1,318.08,243.91Z" style="fill:#b9d532"/><circle cx="318.08" cy="184.55" r="52.91" transform="translate(2.47 373.3) rotate(-61)" style="fill:#fff"/><path d="M318.08,131.64A52.91,52.91,0,1,0,371,184.55,53,53,0,0,0,318.08,131.64Zm0,101.41a48.5,48.5,0,1,1,48.5-48.5A48.55,48.55,0,0,1,318.08,233.05Z" style="fill:#005596;stroke:#005596;stroke-miterlimit:10;stroke-width:2px"/><line x1="318.08" y1="135.46" x2="318.08" y2="143.33" style="fill:none;stroke:#005596;stroke-linecap:round;stroke-linejoin:round;stroke-width:7px"/><line x1="318.08" y1="226.07" x2="318.08" y2="233.93" style="fill:none;stroke:#005596;stroke-linecap:round;stroke-linejoin:round;stroke-width:7px"/><line x1="367.32" y1="184.7" x2="359.45" y2="184.7" style="fill:none;stroke:#005596;stroke-linecap:round;stroke-linejoin:round;stroke-width:7px"/><line x1="276.72" y1="184.7" x2="268.85" y2="184.7" style="fill:none;stroke:#005596;stroke-linecap:round;stroke-linejoin:round;stroke-width:7px"/><line x1="332.47" y1="158.69" x2="322.39" y2="176.34" style="fill:none;stroke:#005596;stroke-linecap:round;stroke-linejoin:round;stroke-width:7px"/><circle cx="318.08" cy="184.55" r="9.27" style="fill:none;stroke:#005596;stroke-linecap:round;stroke-linejoin:round;stroke-width:7px"/></svg>