<svg id="icon" xmlns="http://www.w3.org/2000/svg" viewBox="0 0 512 512"><circle cx="256" cy="256" r="234.67" style="fill:#005596"/><rect x="150.22" y="130.65" width="204.14" height="254.95" rx="13" style="fill:#fff"/><path d="M341.36,133.65a10,10,0,0,1,10,10v229a10,10,0,0,1-10,10H163.22a10,10,0,0,1-10-10V143.65a10,10,0,0,1,10-10H341.36m0-6H163.22a16,16,0,0,0-16,16v229a16,16,0,0,0,16,16H341.36a16,16,0,0,0,16-16V143.65a16,16,0,0,0-16-16Z" style="fill:#b9d532"/><rect x="164.85" y="173.03" width="173.97" height="4.98" rx="2.49" style="fill:#005596;stroke:#fff;stroke-miterlimit:10"/><rect x="179.35" y="156.39" width="159.47" height="4.98" rx="2.49" style="fill:#005596;stroke:#fff;stroke-miterlimit:10"/><rect x="164.85" y="189.67" width="154.02" height="4.98" rx="2.49" style="fill:#005596;stroke:#fff;stroke-miterlimit:10"/><rect x="192.93" y="217.71" width="145.89" height="4.98" rx="2.49" style="fill:#005596;stroke:#fff;stroke-miterlimit:10"/><rect x="192.93" y="228.71" width="145.89" height="4.98" rx="2.49" style="fill:#005596;stroke:#fff;stroke-miterlimit:10"/><rect x="168.88" y="217.93" width="15.54" height="15.54" style="fill:#fff;stroke:#005596;stroke-miterlimit:10;stroke-width:4px"/><rect x="192.93" y="259.49" width="145.89" height="4.98" rx="2.49" style="fill:#005596;stroke:#fff;stroke-miterlimit:10"/><rect x="192.93" y="270.49" width="145.89" height="4.98" rx="2.49" style="fill:#005596;stroke:#fff;stroke-miterlimit:10"/><rect x="168.88" y="259.71" width="15.54" height="15.54" style="fill:#b9d532;stroke:#005596;stroke-miterlimit:10;stroke-width:4px"/><rect x="192.93" y="301.26" width="145.89" height="4.98" rx="2.49" style="fill:#005596;stroke:#fff;stroke-miterlimit:10"/><rect x="192.93" y="312.27" width="145.89" height="4.98" rx="2.49" style="fill:#005596;stroke:#fff;stroke-miterlimit:10"/><rect x="168.88" y="301.49" width="15.54" height="15.54" style="fill:none;stroke:#005596;stroke-miterlimit:10;stroke-width:4px"/><rect x="192.93" y="343.04" width="145.89" height="4.98" rx="2.49" style="fill:#005596;stroke:#fff;stroke-miterlimit:10"/><rect x="192.93" y="354.05" width="145.89" height="4.98" rx="2.49" style="fill:#005596;stroke:#fff;stroke-miterlimit:10"/><rect x="168.88" y="343.27" width="15.54" height="15.54" style="fill:#fff;stroke:#005596;stroke-miterlimit:10;stroke-width:4px"/><path d="M362.4,369.33,345.32,381.9a2.93,2.93,0,0,1-4-.12l-197.23-245c2.52-1.93,20.34-14.94,21.95-16.15l197.23,245C364.15,366.68,363.75,368.34,362.4,369.33Z" style="fill:#b9d532;stroke:#005596;stroke-miterlimit:10;stroke-width:4px"/><line x1="349.4" y1="370.22" x2="154.98" y2="128.79" style="fill:none;stroke:#005596;stroke-miterlimit:10;stroke-width:3px"/><path d="M134.21,102.79h0c-6.06,4.45-7.55,12.34-3.31,17.62L146,139.29l22-16.11-15.13-18.87C148.64,99,140.28,98.35,134.21,102.79Z" style="fill:#fff;stroke:#005596;stroke-miterlimit:10;stroke-width:3px"/><path d="M134.21,102.79h0c-6.05,4.47-7.93,11.85-4.18,16.49l6.78,8.41,21.93-16.17-6.78-8.4C148.22,98.48,140.27,98.33,134.21,102.79Z" style="fill:#b9d532;stroke:#005596;stroke-miterlimit:10;stroke-width:3px"/><path d="M341,380.67l7.91-11.11L362.3,365c.25-.18.84.25,1.08.78L383.67,410c.89,1.94-.94,3.28-2.67,2l-39.53-30.07C341,381.51,340.71,380.85,341,380.67Z" style="fill:#fff;stroke:#005596;stroke-miterlimit:10;stroke-width:3px"/><path d="M381.08,411.94a4.35,4.35,0,0,1-2.81-1.27L364.5,398.31l9.61-7.36,8.82,16.19c1,1.86.6,3.07.27,3.63A2.4,2.4,0,0,1,381.08,411.94Z" style="fill:#b9d532"/><path d="M373.63,393.2l8,14.66c.84,1.55.42,2.58-.54,2.58a3,3,0,0,1-1.81-.89L366.84,398.4l6.79-5.2m1-4.51-2.78,2.13L365,396l-2.87,2.2,2.69,2.41,12.43,11.16a5.77,5.77,0,0,0,3.81,1.65,3.92,3.92,0,0,0,3.41-1.91,5.1,5.1,0,0,0-.24-5.1l-8-14.66-1.68-3.08Z" style="fill:#005596"/></svg>