<svg id="icon" xmlns="http://www.w3.org/2000/svg" viewBox="0 0 512 512"><circle cx="255.09" cy="288" r="234.67" style="fill:#005596"/><path d="M303.45,210.39V365.61a2.5,2.5,0,0,0,4.27,1.76l77.58-77.6a2.5,2.5,0,0,0,0-3.54l-77.58-77.6A2.5,2.5,0,0,0,303.45,210.39Z" style="fill:#b9d532;stroke:#fff;stroke-miterlimit:10;stroke-width:13.7702083587646px"/><path d="M296.51,422l0-12.37a2.51,2.51,0,0,1,.73-1.78l118-118a2.49,2.49,0,0,0,0-3.53l-118-118.07a2.43,2.43,0,0,1-.73-1.77V154a2.5,2.5,0,0,1,4.27-1.77l134,134a2.49,2.49,0,0,1,0,3.53l-133.94,134A2.5,2.5,0,0,1,296.51,422Z" style="fill:#fff"/><rect x="74.72" y="263.9" width="206.55" height="48.2" rx="2.5" style="fill:#fff"/></svg>