<svg id="icon" xmlns="http://www.w3.org/2000/svg" viewBox="0 0 512 512"><path d="M490.67,256a234.67,234.67,0,1,1-469.34,0C21.33,126.4,126.4,21.33,256,21.33S490.67,126.4,490.67,256Z" style="fill:#005596"/><rect x="138.33" y="177.81" width="235.35" height="156.38" style="fill:#fff;stroke:#fff;stroke-miterlimit:10;stroke-width:7px"/><line x1="118.57" y1="177.81" x2="393.43" y2="177.81" style="fill:none;stroke:#fff;stroke-linecap:round;stroke-linejoin:round;stroke-width:7px"/><line x1="118.57" y1="148.33" x2="393.43" y2="148.33" style="fill:none;stroke:#fff;stroke-linecap:round;stroke-linejoin:round;stroke-width:7px"/><line x1="137.45" y1="148.33" x2="137.45" y2="177.81" style="fill:none;stroke:#fff;stroke-linejoin:round;stroke-width:7px"/><line x1="163.6" y1="148.33" x2="163.6" y2="177.81" style="fill:none;stroke:#fff;stroke-linejoin:round;stroke-width:7px"/><line x1="189.75" y1="148.33" x2="189.75" y2="177.81" style="fill:none;stroke:#fff;stroke-linejoin:round;stroke-width:7px"/><line x1="215.9" y1="148.33" x2="215.9" y2="177.81" style="fill:none;stroke:#fff;stroke-linejoin:round;stroke-width:7px"/><line x1="242.05" y1="148.33" x2="242.05" y2="177.81" style="fill:none;stroke:#fff;stroke-linejoin:round;stroke-width:7px"/><line x1="268.2" y1="148.33" x2="268.2" y2="177.81" style="fill:none;stroke:#fff;stroke-linejoin:round;stroke-width:7px"/><line x1="294.35" y1="148.33" x2="294.35" y2="177.81" style="fill:none;stroke:#fff;stroke-linejoin:round;stroke-width:7px"/><line x1="320.5" y1="148.33" x2="320.5" y2="177.81" style="fill:none;stroke:#fff;stroke-linejoin:round;stroke-width:7px"/><line x1="346.65" y1="148.33" x2="346.65" y2="177.81" style="fill:none;stroke:#fff;stroke-linejoin:round;stroke-width:7px"/><line x1="372.8" y1="148.33" x2="372.8" y2="177.81" style="fill:none;stroke:#fff;stroke-linejoin:round;stroke-width:7px"/><line x1="118.57" y1="363.67" x2="393.43" y2="363.67" style="fill:none;stroke:#fff;stroke-linecap:round;stroke-linejoin:round;stroke-width:7px"/><line x1="118.57" y1="334.19" x2="393.43" y2="334.19" style="fill:none;stroke:#fff;stroke-linecap:round;stroke-linejoin:round;stroke-width:7px"/><line x1="137.45" y1="334.19" x2="137.45" y2="363.67" style="fill:none;stroke:#fff;stroke-linejoin:round;stroke-width:7px"/><line x1="163.6" y1="334.19" x2="163.6" y2="363.67" style="fill:none;stroke:#fff;stroke-linejoin:round;stroke-width:7px"/><line x1="189.75" y1="334.19" x2="189.75" y2="363.67" style="fill:none;stroke:#fff;stroke-linejoin:round;stroke-width:7px"/><line x1="215.9" y1="334.19" x2="215.9" y2="363.67" style="fill:none;stroke:#fff;stroke-linejoin:round;stroke-width:7px"/><line x1="242.05" y1="334.19" x2="242.05" y2="363.67" style="fill:none;stroke:#fff;stroke-linejoin:round;stroke-width:7px"/><line x1="268.2" y1="334.19" x2="268.2" y2="363.67" style="fill:none;stroke:#fff;stroke-linejoin:round;stroke-width:7px"/><line x1="294.35" y1="334.19" x2="294.35" y2="363.67" style="fill:none;stroke:#fff;stroke-linejoin:round;stroke-width:7px"/><line x1="320.5" y1="334.19" x2="320.5" y2="363.67" style="fill:none;stroke:#fff;stroke-linejoin:round;stroke-width:7px"/><line x1="346.65" y1="334.19" x2="346.65" y2="363.67" style="fill:none;stroke:#fff;stroke-linejoin:round;stroke-width:7px"/><line x1="372.8" y1="334.19" x2="372.8" y2="363.67" style="fill:none;stroke:#fff;stroke-linejoin:round;stroke-width:7px"/><path d="M295.53,256.36,221.47,213.6a5,5,0,0,0-7.5,4.33v85.52a5,5,0,0,0,7.5,4.33L295.53,265A5,5,0,0,0,295.53,256.36Z" style="fill:#b9d532;stroke:#005596;stroke-miterlimit:10;stroke-width:7px"/></svg>