<svg id="icon" xmlns="http://www.w3.org/2000/svg" viewBox="0 0 512 512"><circle cx="255.67" cy="113.66" r="46.22" style="fill:#005696"/><rect x="205.15" y="157.31" width="101.04" height="179.4" style="fill:#005696"/><rect x="196.24" y="157.31" width="118.84" height="43.3" style="fill:#005696"/><path d="M276.91,177.52a46,46,0,0,0-21,7.36h0a46,46,0,0,0-21-7.36l-22.59-3.41a2.54,2.54,0,0,0-2.92,2.51v48.14a2.54,2.54,0,0,0,2,2.48c5.46,1.23,20.68,4.27,30.09,5.37l.21,0a28.8,28.8,0,0,1,10.3,3.3l.17.09a7.77,7.77,0,0,0,7.48,0h0a29.67,29.67,0,0,1,10.66-3.41h0c9.39-1.1,24.2-4.13,29.55-5.37a2.52,2.52,0,0,0,2-2.47V176.63a2.54,2.54,0,0,0-2.93-2.51Z" style="fill:#fff;stroke:#005696;stroke-miterlimit:10;stroke-width:3px"/><path d="M353.25,212.4a25.06,25.06,0,0,1-25.07,25.06H279.32a19.08,19.08,0,0,1-19.08-19.08h0a19.08,19.08,0,0,1,19.08-19.08h35.77v-42h0a38.17,38.17,0,0,1,38.16,38.16Z" style="fill:#005696"/><path d="M158.08,212.4a25.07,25.07,0,0,0,25.07,25.06H232a19.08,19.08,0,0,0,19.08-19.08h0A19.08,19.08,0,0,0,232,199.3H196.24v-42h0a38.17,38.17,0,0,0-38.16,38.16Z" style="fill:#005696"/><path d="M81.43,413.7a234.67,234.67,0,0,0,348,.54V305.07h-348Z" style="fill:#005696"/><rect x="58.76" y="281.55" width="393.33" height="31.1" style="fill:#005696;stroke:#fff;stroke-miterlimit:10;stroke-width:7px"/><path d="M358.82,257.59h69.74a6.92,6.92,0,0,1,6.92,6.93v3.68a6.93,6.93,0,0,1-6.92,6.93H358.82" style="fill:#fff;stroke:#005696;stroke-miterlimit:10;stroke-width:6px"/><path d="M162.48,275.13H92.74a6.93,6.93,0,0,1-6.92-6.93v-3.68a6.92,6.92,0,0,1,6.92-6.93h69.74" style="fill:#fff;stroke:#005696;stroke-miterlimit:10;stroke-width:6px"/><path d="M150.12,257.56H102.87a4.69,4.69,0,0,1-4.69-4.69v-2.5a4.69,4.69,0,0,1,4.69-4.69h47.25" style="fill:#fff;stroke:#005696;stroke-miterlimit:10;stroke-width:6px"/><path d="M255.43,28.26A227.73,227.73,0,0,1,344,465.71,227.73,227.73,0,0,1,166.81,46.15a226.23,226.23,0,0,1,88.62-17.89m0-7c-129.61,0-234.67,105.06-234.67,234.67S125.82,490.59,255.43,490.59,490.09,385.53,490.09,255.93,385,21.26,255.43,21.26Z" style="fill:#005696"/></svg>