<svg id="icon" xmlns="http://www.w3.org/2000/svg" viewBox="0 0 512 512"><path d="M256,487.17A231.17,231.17,0,0,1,92.54,92.54,231.17,231.17,0,1,1,419.46,419.46,229.66,229.66,0,0,1,256,487.17Z" style="fill:#fff"/><path d="M256,28.33a227.74,227.74,0,0,1,88.62,437.45A227.73,227.73,0,0,1,167.38,46.22,226.27,226.27,0,0,1,256,28.33m0-7C126.4,21.33,21.33,126.4,21.33,256S126.4,490.67,256,490.67,490.67,385.6,490.67,256,385.6,21.33,256,21.33Z" style="fill:#005696"/><rect x="89.71" y="138.67" width="332.57" height="208.23" rx="12.23" style="fill:#005696"/><rect x="114.27" y="161.55" width="283.46" height="162.47" rx="7.26" style="fill:#fff"/><path d="M390.47,164.55a4.26,4.26,0,0,1,4.26,4.26v148a4.26,4.26,0,0,1-4.26,4.26H121.53a4.26,4.26,0,0,1-4.26-4.26V168.81a4.26,4.26,0,0,1,4.26-4.26H390.47m0-6H121.53a10.29,10.29,0,0,0-10.26,10.26v148A10.29,10.29,0,0,0,121.53,327H390.47a10.29,10.29,0,0,0,10.26-10.26V168.81a10.29,10.29,0,0,0-10.26-10.26Z" style="fill:#005696"/><path d="M347.71,396.66H292.89V353.27H219.11v43.39H161.87c-5.24,0-9.52,3.64-9.52,8.1s4.28,8.1,9.52,8.1H347.71c5.23,0,9.51-3.64,9.51-8.1S352.94,396.66,347.71,396.66Z" style="fill:#005696"/><ellipse cx="290.6" cy="285.74" rx="25.68" ry="3.6" style="fill:#005696"/><rect x="264.91" y="272.59" width="51.36" height="13.15" style="fill:#005696"/><ellipse cx="290.6" cy="272.9" rx="25.68" ry="3.6" style="fill:#fff"/><ellipse cx="290.6" cy="271.14" rx="25.68" ry="3.6" style="fill:#005696"/><rect x="264.91" y="257.99" width="51.36" height="13.15" style="fill:#005696"/><ellipse cx="290.6" cy="258.3" rx="25.68" ry="3.6" style="fill:#fff"/><ellipse cx="290.6" cy="255.94" rx="25.68" ry="3.6" style="fill:#005696"/><rect x="264.91" y="242.79" width="51.36" height="13.15" style="fill:#005696"/><ellipse cx="290.6" cy="243.1" rx="25.68" ry="3.6" style="fill:#fff"/><ellipse cx="221.4" cy="285.74" rx="25.68" ry="3.6" style="fill:#005696"/><rect x="195.72" y="272.59" width="51.36" height="13.15" style="fill:#005696"/><ellipse cx="221.4" cy="272.9" rx="25.68" ry="3.6" style="fill:#fff"/><ellipse cx="221.4" cy="271.14" rx="25.68" ry="3.6" style="fill:#005696"/><rect x="195.72" y="257.99" width="51.36" height="13.15" style="fill:#005696"/><ellipse cx="221.4" cy="258.3" rx="25.68" ry="3.6" style="fill:#fff"/><ellipse cx="221.4" cy="255.94" rx="25.68" ry="3.6" style="fill:#005696"/><rect x="195.72" y="242.79" width="51.36" height="13.15" style="fill:#005696"/><ellipse cx="221.4" cy="243.1" rx="25.68" ry="3.6" style="fill:#fff"/><ellipse cx="256" cy="288.83" rx="34.6" ry="4.84" style="fill:#005696"/><rect x="221.4" y="271.12" width="69.19" height="17.71" style="fill:#005696"/><ellipse cx="256" cy="271.53" rx="34.6" ry="4.84" style="fill:#fff"/><ellipse cx="256" cy="269.17" rx="34.6" ry="4.84" style="fill:#005696"/><rect x="221.4" y="251.45" width="69.19" height="17.71" style="fill:#005696"/><ellipse cx="256" cy="251.87" rx="34.6" ry="4.84" style="fill:#fff"/><ellipse cx="256" cy="248.68" rx="34.6" ry="4.84" style="fill:#005696"/><rect x="221.4" y="230.97" width="69.19" height="17.71" style="fill:#005696"/><ellipse cx="256" cy="231.39" rx="34.6" ry="4.84" style="fill:#fff"/><polyline points="284.82 180.31 259.01 195.84 259.01 231.39" style="fill:none;stroke:#005696;stroke-miterlimit:10;stroke-width:3px"/><circle cx="284.82" cy="180.63" r="4.34" style="fill:#005696"/><circle cx="283.71" cy="207.44" r="4.34" style="fill:#005696"/><circle cx="234.89" cy="181.01" r="4.34" style="fill:#005696"/><circle cx="225.08" cy="194.66" r="4.34" style="fill:#005696"/><polyline points="225.08 194.66 243.64 205.83 243.64 231.39" style="fill:none;stroke:#005696;stroke-miterlimit:10;stroke-width:3px"/><polyline points="283.32 207.44 265.93 207.44 265.93 231.39" style="fill:none;stroke:#005696;stroke-miterlimit:10;stroke-width:3px"/><polyline points="234.89 181.01 252.27 181.01 252.27 231.39" style="fill:none;stroke:#005696;stroke-miterlimit:10;stroke-width:3px"/><polyline points="243.58 290.24 243.58 306.18 216.59 306.18 216.59 322.72" style="fill:none;stroke:#005696;stroke-miterlimit:10;stroke-width:3px"/><polyline points="252.9 290.24 252.9 313.85 234.89 313.85 234.89 322.72" style="fill:none;stroke:#005696;stroke-miterlimit:10;stroke-width:3px"/><line x1="260.37" y1="290.24" x2="260.37" y2="323.74" style="fill:none;stroke:#005696;stroke-miterlimit:10;stroke-width:3px"/><polyline points="267.56 290.24 267.56 305.37 277.31 305.37 277.31 322.72" style="fill:none;stroke:#005696;stroke-miterlimit:10;stroke-width:3px"/></svg>