<svg id="icon" xmlns="http://www.w3.org/2000/svg" viewBox="0 0 512 512"><path d="M223.61,326.87l-4.16.68,3,3-3.25,2.36-2-3.75L215.29,333,212,330.59l3-3-4.16-.71,1.21-3.72,3.78,1.83-.59-4.22h4l-.62,4.25,3.75-1.89Z" style="fill:#fff"/><path d="M243,326.87l-4.16.68,3,3-3.25,2.36-1.95-3.75L234.68,333l-3.25-2.36,2.95-3-4.16-.71,1.21-3.72,3.78,1.83-.59-4.22h4L238,325l3.75-1.89Z" style="fill:#fff"/><path d="M262.39,326.87l-4.16.68,3,3L258,332.92,256,329.17,254.07,333l-3.25-2.36,3-3-4.16-.71,1.21-3.72L254.6,325l-.59-4.22h4L257.4,325l3.75-1.89Z" style="fill:#fff"/><path d="M281.78,326.87l-4.16.68,3,3-3.25,2.36-1.94-3.75-2,3.78-3.25-2.36,3-3-4.16-.71,1.21-3.72L274,325l-.59-4.22h4l-.62,4.25,3.75-1.89Z" style="fill:#fff"/><path d="M301.17,326.87l-4.16.68,3,3-3.25,2.36-1.94-3.75L292.85,333l-3.25-2.36,2.95-3-4.16-.71,1.21-3.72,3.78,1.83-.59-4.22h4l-.62,4.25,3.75-1.89Z" style="fill:#fff"/><path d="M256,487.17A231.17,231.17,0,0,1,92.54,92.54,231.17,231.17,0,1,1,419.46,419.46,229.66,229.66,0,0,1,256,487.17Z" style="fill:#fff"/><path d="M256,28.33a227.74,227.74,0,0,1,88.62,437.45A227.73,227.73,0,0,1,167.38,46.22,226.27,226.27,0,0,1,256,28.33m0-7C126.4,21.33,21.33,126.4,21.33,256S126.4,490.67,256,490.67,490.67,385.6,490.67,256,385.6,21.33,256,21.33Z" style="fill:#005696"/><path d="M410.06,144.67a6.24,6.24,0,0,1,6.23,6.22V334.67a6.24,6.24,0,0,1-6.23,6.23H101.94a6.24,6.24,0,0,1-6.23-6.23V150.89a6.24,6.24,0,0,1,6.23-6.22H410.06m0-6H101.94a12.27,12.27,0,0,0-12.23,12.22V334.67a12.27,12.27,0,0,0,12.23,12.23H410.06a12.27,12.27,0,0,0,12.23-12.23V150.89a12.27,12.27,0,0,0-12.23-12.22Z" style="fill:#005696"/><rect x="114.27" y="161.55" width="283.46" height="162.47" rx="7.26" style="fill:#fff"/><path d="M390.47,164.55a4.26,4.26,0,0,1,4.26,4.26v148a4.26,4.26,0,0,1-4.26,4.26H121.53a4.26,4.26,0,0,1-4.26-4.26V168.81a4.26,4.26,0,0,1,4.26-4.26H390.47m0-6H121.53a10.29,10.29,0,0,0-10.26,10.26v148A10.29,10.29,0,0,0,121.53,327H390.47a10.29,10.29,0,0,0,10.26-10.26V168.81a10.29,10.29,0,0,0-10.26-10.26Z" style="fill:#005696"/><path d="M286.89,358.27v44.39h60.82c2.11,0,3.51,1.26,3.51,2.1s-1.4,2.1-3.51,2.1H161.87c-2.12,0-3.52-1.26-3.52-2.1s1.4-2.1,3.52-2.1h63.24V358.27h61.78m6-6H219.11v44.39H161.87c-5.24,0-9.52,3.64-9.52,8.1s4.28,8.1,9.52,8.1H347.71c5.23,0,9.51-3.64,9.51-8.1s-4.28-8.1-9.51-8.1H292.89V352.27Z" style="fill:#005696"/><path d="M290.6,287.83c-14.51,0-22.6-1.56-24.19-2.51V274.09h48.37v11.23C313.19,286.27,305.1,287.83,290.6,287.83Z" style="fill:#fff"/><path d="M313.28,275.59v8.73c-2.61.84-10.43,2-22.68,2s-20.08-1.17-22.69-2v-8.73h45.37m3-3H264.91v13.15c0,2,11.5,3.59,25.69,3.59s25.68-1.61,25.68-3.59V272.59Z" style="fill:#005696"/><path d="M290.6,275c-12.52,0-20.26-1.16-23.16-2.09,2.9-.93,10.64-2.1,23.16-2.1s20.25,1.17,23.16,2.1C310.85,273.83,303.11,275,290.6,275Z" style="fill:#fff"/><path d="M290.6,272.3c5.61,0,10.29.25,14,.6-3.68.35-8.36.59-14,.59s-10.3-.24-14-.59c3.68-.35,8.36-.6,14-.6m0-3c-14.19,0-25.69,1.61-25.69,3.6s11.5,3.59,25.69,3.59,25.68-1.61,25.68-3.59-11.5-3.6-25.68-3.6Z" style="fill:#005696"/><path d="M290.6,273.24c-14.51,0-22.6-1.57-24.19-2.52V259.49h48.37v11.23C313.19,271.67,305.1,273.24,290.6,273.24Z" style="fill:#fff"/><path d="M313.28,261v8.73c-2.61.84-10.43,2-22.68,2s-20.08-1.18-22.69-2V261h45.37m3-3H264.91v13.15c0,2,11.5,3.6,25.69,3.6s25.68-1.61,25.68-3.6V258Z" style="fill:#005696"/><path d="M290.6,260.4c-12.52,0-20.26-1.17-23.16-2.1,2.9-.93,10.64-2.09,23.16-2.09s20.25,1.16,23.16,2.09C310.85,259.23,303.11,260.4,290.6,260.4Z" style="fill:#fff"/><path d="M290.6,257.71c5.61,0,10.29.24,14,.59-3.68.35-8.36.6-14,.6s-10.3-.25-14-.6c3.68-.35,8.36-.59,14-.59m0-3c-14.19,0-25.69,1.61-25.69,3.59s11.5,3.6,25.69,3.6,25.68-1.61,25.68-3.6-11.5-3.59-25.68-3.59Z" style="fill:#005696"/><path d="M290.6,258c-14.51,0-22.6-1.56-24.19-2.51V244.29h48.37v11.23C313.19,256.47,305.1,258,290.6,258Z" style="fill:#fff"/><path d="M313.28,245.79v8.73c-2.61.84-10.43,2-22.68,2s-20.08-1.17-22.69-2v-8.73h45.37m3-3H264.91v13.15c0,2,11.5,3.59,25.69,3.59s25.68-1.61,25.68-3.59V242.79Z" style="fill:#005696"/><path d="M290.6,245.19c-12.52,0-20.26-1.16-23.16-2.09,2.9-.93,10.64-2.1,23.16-2.1s20.25,1.17,23.16,2.1C310.85,244,303.11,245.19,290.6,245.19Z" style="fill:#fff"/><path d="M290.6,242.5c5.61,0,10.29.25,14,.6-3.68.35-8.36.59-14,.59s-10.3-.24-14-.59c3.68-.35,8.36-.6,14-.6m0-3c-14.19,0-25.69,1.61-25.69,3.6s11.5,3.59,25.69,3.59,25.68-1.61,25.68-3.59-11.5-3.6-25.68-3.6Z" style="fill:#005696"/><path d="M221.4,287.83c-14.5,0-22.59-1.56-24.18-2.51V274.09h48.37v11.23C244,286.27,235.91,287.83,221.4,287.83Z" style="fill:#fff"/><path d="M244.09,275.59v8.73c-2.61.84-10.43,2-22.69,2s-20.07-1.17-22.68-2v-8.73h45.37m3-3H195.72v13.15c0,2,11.5,3.59,25.68,3.59s25.69-1.61,25.69-3.59V272.59Z" style="fill:#005696"/><path d="M221.4,275c-12.51,0-20.25-1.16-23.16-2.09,2.91-.93,10.65-2.1,23.16-2.1s20.26,1.17,23.16,2.1C241.66,273.83,233.92,275,221.4,275Z" style="fill:#fff"/><path d="M221.4,272.3c5.62,0,10.3.25,14,.6-3.68.35-8.36.59-14,.59s-10.29-.24-14-.59c3.68-.35,8.36-.6,14-.6m0-3c-14.18,0-25.68,1.61-25.68,3.6s11.5,3.59,25.68,3.59,25.69-1.61,25.69-3.59-11.5-3.6-25.69-3.6Z" style="fill:#005696"/><path d="M221.4,273.24c-14.5,0-22.59-1.57-24.18-2.52V259.49h48.37v11.23C244,271.67,235.91,273.24,221.4,273.24Z" style="fill:#fff"/><path d="M244.09,261v8.73c-2.61.84-10.43,2-22.69,2s-20.07-1.18-22.68-2V261h45.37m3-3H195.72v13.15c0,2,11.5,3.6,25.68,3.6s25.69-1.61,25.69-3.6V258Z" style="fill:#005696"/><path d="M221.4,260.4c-12.51,0-20.25-1.17-23.16-2.1,2.91-.93,10.65-2.09,23.16-2.09s20.26,1.16,23.16,2.09C241.66,259.23,233.92,260.4,221.4,260.4Z" style="fill:#fff"/><path d="M221.4,257.71c5.62,0,10.3.24,14,.59-3.68.35-8.36.6-14,.6s-10.29-.25-14-.6c3.68-.35,8.36-.59,14-.59m0-3c-14.18,0-25.68,1.61-25.68,3.59s11.5,3.6,25.68,3.6,25.69-1.61,25.69-3.6-11.5-3.59-25.69-3.59Z" style="fill:#005696"/><path d="M221.4,258c-14.5,0-22.59-1.56-24.18-2.51V244.29h48.37v11.23C244,256.47,235.91,258,221.4,258Z" style="fill:#fff"/><path d="M244.09,245.79v8.73c-2.61.84-10.43,2-22.69,2s-20.07-1.17-22.68-2v-8.73h45.37m3-3H195.72v13.15c0,2,11.5,3.59,25.68,3.59s25.69-1.61,25.69-3.59V242.79Z" style="fill:#005696"/><path d="M221.4,245.19c-12.51,0-20.25-1.16-23.16-2.09,2.91-.93,10.65-2.1,23.16-2.1s20.26,1.17,23.16,2.1C241.66,244,233.92,245.19,221.4,245.19Z" style="fill:#fff"/><path d="M221.4,242.5c5.62,0,10.3.25,14,.6-3.68.35-8.36.59-14,.59s-10.29-.24-14-.59c3.68-.35,8.36-.6,14-.6m0-3c-14.18,0-25.68,1.61-25.68,3.6s11.5,3.59,25.68,3.59,25.69-1.61,25.69-3.59-11.5-3.6-25.69-3.6Z" style="fill:#005696"/><polyline points="243.58 290.24 243.58 306.18 216.59 306.18 216.59 322.72" style="fill:none;stroke:#005696;stroke-miterlimit:10;stroke-width:3px"/><polyline points="252.9 290.24 252.9 313.85 234.89 313.85 234.89 322.72" style="fill:none;stroke:#005696;stroke-miterlimit:10;stroke-width:3px"/><line x1="260.37" y1="290.24" x2="260.37" y2="323.74" style="fill:none;stroke:#005696;stroke-miterlimit:10;stroke-width:3px"/><polyline points="267.56 290.24 267.56 305.37 277.31 305.37 277.31 322.72" style="fill:none;stroke:#005696;stroke-miterlimit:10;stroke-width:3px"/><path d="M256,292.17c-18.88,0-31.3-2.1-33.1-3.62V272.62h66.2v15.93C287.3,290.07,274.88,292.17,256,292.17Z" style="fill:#fff"/><path d="M287.6,274.12v13.52c-2.92,1.21-13.69,3-31.6,3s-28.68-1.82-31.6-3V274.12h63.2m3-3H221.4v17.71c0,2.67,15.49,4.84,34.6,4.84s34.6-2.17,34.6-4.84V271.12Z" style="fill:#005696"/><path d="M256,274.87c-17.73,0-29.78-1.85-32.65-3.34,2.87-1.49,14.91-3.34,32.65-3.34s29.78,1.85,32.65,3.34C285.78,273,273.73,274.87,256,274.87Z" style="fill:#fff"/><path d="M256,269.69c12.54,0,21.58.89,26.87,1.84-5.29,1-14.33,1.84-26.87,1.84s-21.58-.89-26.87-1.84c5.29-.95,14.33-1.84,26.87-1.84m0-3c-19.11,0-34.6,2.17-34.6,4.84s15.49,4.84,34.6,4.84,34.6-2.16,34.6-4.84-15.49-4.84-34.6-4.84Z" style="fill:#005696"/><path d="M256,272.51c-18.88,0-31.3-2.11-33.1-3.63V253h66.2v15.93C287.3,270.4,274.88,272.51,256,272.51Z" style="fill:#fff"/><path d="M287.6,254.45V268c-2.92,1.21-13.69,3-31.6,3s-28.68-1.82-31.6-3V254.45h63.2m3-3H221.4v17.72c0,2.67,15.49,4.84,34.6,4.84s34.6-2.17,34.6-4.84V251.45Z" style="fill:#005696"/><path d="M256,255.21c-17.73,0-29.78-1.86-32.65-3.34,2.87-1.49,14.92-3.35,32.65-3.35s29.78,1.86,32.65,3.35C285.78,253.35,273.73,255.21,256,255.21Z" style="fill:#fff"/><path d="M256,250c12.54,0,21.58.9,26.87,1.85-5.29.95-14.33,1.84-26.87,1.84s-21.58-.89-26.87-1.84c5.29-1,14.33-1.85,26.87-1.85m0-3c-19.11,0-34.6,2.17-34.6,4.85s15.49,4.84,34.6,4.84,34.6-2.17,34.6-4.84S275.11,247,256,247Z" style="fill:#005696"/><path d="M256,252c-18.88,0-31.3-2.11-33.1-3.63V232.47h66.2V248.4C287.3,249.92,274.88,252,256,252Z" style="fill:#fff"/><path d="M287.6,234V247.5c-2.92,1.2-13.69,3-31.6,3s-28.68-1.83-31.6-3V234h63.2m3-3H221.4v17.71c0,2.68,15.49,4.85,34.6,4.85s34.6-2.17,34.6-4.85V231Z" style="fill:#005696"/><path d="M256,234.73c-17.73,0-29.78-1.86-32.65-3.34C226.22,229.9,238.26,228,256,228s29.78,1.86,32.65,3.35C285.78,232.87,273.73,234.73,256,234.73Z" style="fill:#fff"/><path d="M256,229.54c12.54,0,21.58.9,26.87,1.85-5.29,1-14.33,1.84-26.87,1.84s-21.58-.89-26.87-1.84c5.29-.95,14.33-1.85,26.87-1.85m0-3c-19.11,0-34.6,2.17-34.6,4.85s15.49,4.84,34.6,4.84,34.6-2.17,34.6-4.84-15.49-4.85-34.6-4.85Z" style="fill:#005696"/><polyline points="284.82 180.31 259.01 195.84 259.01 231.39" style="fill:none;stroke:#005696;stroke-miterlimit:10;stroke-width:3px"/><path d="M284.82,182a1.34,1.34,0,1,1,1.33-1.34A1.34,1.34,0,0,1,284.82,182Z" style="fill:#fff"/><path d="M284.82,176.3a4.34,4.34,0,1,0,4.33,4.33,4.33,4.33,0,0,0-4.33-4.33Z" style="fill:#005696"/><path d="M283.71,208.78a1.34,1.34,0,1,1,1.33-1.34A1.34,1.34,0,0,1,283.71,208.78Z" style="fill:#fff"/><path d="M283.71,203.1a4.34,4.34,0,1,0,4.34,4.34,4.34,4.34,0,0,0-4.34-4.34Z" style="fill:#005696"/><circle cx="234.89" cy="181.01" r="1.34" style="fill:#fff"/><path d="M234.89,176.67a4.34,4.34,0,1,0,4.33,4.34,4.34,4.34,0,0,0-4.33-4.34Z" style="fill:#005696"/><circle cx="225.08" cy="194.66" r="1.34" style="fill:#fff"/><path d="M225.08,190.32a4.34,4.34,0,1,0,4.34,4.34,4.34,4.34,0,0,0-4.34-4.34Z" style="fill:#005696"/><polyline points="225.08 194.66 243.64 205.83 243.64 231.39" style="fill:none;stroke:#005696;stroke-miterlimit:10;stroke-width:3px"/><polyline points="283.32 207.44 265.93 207.44 265.93 231.39" style="fill:none;stroke:#005696;stroke-miterlimit:10;stroke-width:3px"/><polyline points="234.89 181.01 252.27 181.01 252.27 231.39" style="fill:none;stroke:#005696;stroke-miterlimit:10;stroke-width:3px"/></svg>