<svg id="icon" xmlns="http://www.w3.org/2000/svg" viewBox="0 0 512 512"><path d="M256,487.17A231.17,231.17,0,0,1,92.54,92.54,231.17,231.17,0,1,1,419.46,419.46,229.66,229.66,0,0,1,256,487.17Z" style="fill:#fff"/><path d="M256,28.33a227.74,227.74,0,0,1,88.62,437.45A227.73,227.73,0,0,1,167.38,46.22,226.27,226.27,0,0,1,256,28.33m0-7C126.4,21.33,21.33,126.4,21.33,256S126.4,490.67,256,490.67,490.67,385.6,490.67,256,385.6,21.33,256,21.33Z" style="fill:#005596"/><path d="M430.9,164.19c-1.74-20.79-31.7-16.31-47.13-14.62C368.12,152,353.65,156.72,343,163c-3.65,2.14-35.76,22-74.09,45.64L105,199.22l-1.12-.07-1.08.29C90.24,202.8,64.44,209.64,51.85,213c14.95,4.08,128,34.81,145.83,39.65L145,285.25,109.54,261.6l-2.49-1.67c-6.5,1.47-17.48,3.92-24,5.37,2.79,5.35,15.4,29.45,18.45,35.27l-30.05-8.83-2.18-.64L40.77,301.27l46.54,24.81c-3.7,5.25-1.47,11.21,3.24,14.83,9.55,7.25,22.84,5.64,34.08,4l33.43,28.18c.56-7.33,1.51-19.89,2.07-27.17-1-1.36-4.95-7.12-6-8.59,17.66-5.69,30.81-13.36,47.33-21.29,23.3-11.49,48.69-24.07,73.15-36.29l154,50.2c-2.21-8.22-6.32-23.46-8.55-31.74l-1.8-1.43-68.94-54.9c32.11-17.1,73.67-36.5,81.48-74.77A24.63,24.63,0,0,0,430.9,164.19ZM325.64,181.81c17.42-11.24,34.36-21.59,55.07-24.62l-21.92,11.93,4.57,8.4,41.25-22.46a60,60,0,0,1,8.39.73L310.81,211l-29.69-1.7C298.5,198.54,314,189,325.64,181.81ZM93.52,270.14l12.14-2.72,39.2,26.15,62.06-38.41,14.67,4-92,49.66-18.73-5.5Zm305-66.13c-18.73,15.16-40.7,25.55-62,36.65l6,4.78L414,302.29l4.59,17-135-44-9.47-3.09q-48.69,24.33-97.54,48.31h0c-2.55,1.41-5.27,2.66-8,3.83A221.14,221.14,0,0,1,143,333.54l10,14.37-.84,11-25.48-21.47a88.51,88.51,0,0,1-18.07,1.77,39.39,39.39,0,0,1-5.31-.48c-2.5-.31-6.61-1.26-5-4.64.21-1,8.24-4.73,9-5.33C97,323.34,68.73,308.24,58,302.54l11.48-4.09,36.53,10.73,24.36,7.16L240.32,257,78.79,213.07l25.81-6.87,207.79,11.88,109.26-59C429.71,168,414.85,190.42,398.54,204Z" style="fill:#005596"/><path d="M414,302.29l4.59,17-135-44-9.47-3.09-2.32,1.16-2.33,1.16-2.31,1.16c-.22.11-.44.21-.65.33L254.53,282l-.58.29-.58.28-2.26,1.13-.49.25-2,1-2,1-1.82.91-1.91.95-.67.33-2.18,1.08-2.57,1.28-1.73.85-.35.18-1.77.88-1.06.52-1,.52-2.08,1L226.39,296l-1.75.87-1.26.62-.59.29-.9.45-4.35,2.15c-.86.43-1.72.86-2.57,1.27l-1.34.66-.65.33-.39.19-2.73,1.35-3.17,1.56-3.34,1.65-.83.41-.8.39-.39.19-1.16.58-.38.19-2.61,1.29h0l-.6.3-.34.16L196,311l-.25.12,0,0-.37.17-1.78.89-1.87.92-1.5.74-1,.52L185.79,316h0l-1,.49-.38.19-1.49.73-1.26.62-.28.14-.11.05-.54.27-.19.09-1.3.64-.8.39-.05,0-.12.06-.49.24h0l-.68.33-.09,0-.15.07-.08,0-.1.05,0,0h0l0,0h0l-.56.3c-.19.11-.39.21-.59.31l-.94.49-.69.34-.78.38-1.66.79-.19.09-.06,0-.8.36-.73.32-.09,0h0l-.83.36h0l-.88.38h0l-.06,0h0l-.31.13-1.16.49-.26.11-.94.39-.35.14-2.14.85-2.22.86-1.93.72-1.48.54h0l-.41.15-.29.1-.56.2-3,1-1.33.45-.47.15-1.42.47-.4.13-2.15.67-.8.25h0l-.5.15-1.18.36-.06,0-1.12.32-1.19.34,1-.28,4.22,6.06,5.79,8.31-.84,11-18.67-15.73-6.81-5.74-.19,0-1.16.21-.21,0-.46.08-.5.09-.14,0-.48.08-1,.15-.29.05-.42.06-1,.14-.16,0-1.13.15-.43.05-.26,0h-.14l-.29,0-.4,0-.84.09a5.7,5.7,0,0,1-.58.06L116,339l-.27,0-1.24.09a2.43,2.43,0,0,1-.38,0l-.65,0h-.4l-1,.05h-.11l-1,0h-1l-1.43,0h-.29l-.5,0-.6,0-.67,0-.32,0H106l-.63-.06-.25,0H105l-.33,0-.33,0-.36-.05-.71-.11h0c-.33,0-.66-.11-1-.18l-.13,0h0l-.24-.06-.73-.17-.3-.07-.11,0-.07,0c-.22-.06-.44-.12-.64-.19l-.19,0h0a2.65,2.65,0,0,1-.42-.18,2.39,2.39,0,0,1-.34-.21l-.06,0-.29-.26a2.69,2.69,0,0,1-.27-.32,2.67,2.67,0,0,1-.4-2.12.53.53,0,0,1,0-.17,1.66,1.66,0,0,1,.12-.31,1.47,1.47,0,0,1,.1-.22,2.23,2.23,0,0,1,.2-.3,2.44,2.44,0,0,1,.27-.29,1.64,1.64,0,0,1,.25-.21,1.85,1.85,0,0,1,.33-.21l8-4.32-8.75-4.66L92,320.64,58,302.54l11.48-4.09,36.53,10.73,9.19,2.7,6.1,1.79,9.07,2.67.4-.22h0L240.32,257l-25.26-6.87-9.23-2.51-127-34.54,25.81-6.87,154,8.8,12.18.7,41.66,2.38,109.26-59a4.52,4.52,0,0,1,.7.77c6.39,8.66-7.61,30.94-23.81,44.15-.39.32-.8.65-1.24,1l-.33.26-.33.26-.7.54-.73.56-1.55,1.16c-1.06.79-2.2,1.61-3.4,2.46l-1.38,1-.47.32-1,.66-1,.66-.24.17-.37.25-.38.25-.93.63-2.33,1.53-.88.56-.26.17-1.1.7-.25.16-.55.34-1.09.69L377,219c-3,1.81-6.05,3.6-9.14,5.28l-2.28,1.23c-1.18.62-2.4,1.28-3.67,2l-.57.3-1.78.95-1.6.85-.95.5-.43.22-.75.4-.66.34-2.91,1.53-.38.19-2.05,1.07-.59.31-1.54.8c-.39.19-.77.39-1.16.6l-1.18.61-.1,0-1.87,1-.07,0-2.05,1.06-.11,0-1.37.71-1.6.82-1.62.83h0l6,4.78Z" style="fill:#fff"/></svg>