<svg id="icon" xmlns="http://www.w3.org/2000/svg" viewBox="0 0 512 512"><defs><style>.cls-1{fill:#005092;}.cls-2{fill:#fff;}.cls-3{fill:#cad400;}</style></defs><circle class="cls-1" cx="255.98" cy="256" r="234.67"/><path class="cls-2" d="M489.8,235.7l-13.53,1-7.72.59-124.2,9.57L343,247l-2.87.22-.31,0L55.91,269.12l-9.1.7-4.79.37-11.88.91-2.88.22-.76.06-4.62.36h0l0-.55c-.09-1.25-.16-2.51-.22-3.77q-.07-1.47-.12-2.94c0-.81-.05-1.62-.07-2.43-.07-2-.09-4-.09-6a234.06,234.06,0,0,1,13.22-77.83c.13-.4.27-.8.42-1.19l18.8-8.82,3.72-1.75h0l2.7-1.27,5.88-2.76,2.19-1,4.21-2L88,152.19l51.34-24.1L200.7,99.28a107,107,0,0,1,90.91,0l39.48,18.53,13.2-6.74a8.94,8.94,0,0,1,8.15,0l70.81,36.18,23.55,12,1.42.72.64.33.88.44h0l7.33,3.75,7.06,3.61.13.06,11.72,6c.35.93.69,1.87,1,2.81s.61,1.72.91,2.59c.39,1.13.77,2.26,1.14,3.4q.42,1.26.81,2.52c.29.93.58,1.86.86,2.8.42,1.38.82,2.76,1.21,4.15.17.59.34,1.2.5,1.8.25.92.5,1.85.74,2.78.15.57.29,1.13.43,1.7s.31,1.23.46,1.85q.68,2.81,1.29,5.62c.14.66.28,1.32.41,2,.1.44.19.87.27,1.31.14.67.27,1.33.39,2,.18.88.34,1.75.49,2.62.11.58.21,1.17.31,1.75.27,1.51.51,3,.74,4.55.09.55.17,1.1.25,1.65l.24,1.71q.21,1.47.39,2.94l.21,1.76c.05.4.1.81.14,1.22.1.91.2,1.82.29,2.73,0,0,0,0,0,.06C489.61,233.55,489.71,234.63,489.8,235.7Z"/><path class="cls-1" d="M456.72,261a232.08,232.08,0,0,1-13.6,54c-3.64,8.52-6.77,18.15-12.09,25.54a14.11,14.11,0,0,0-3.44.21c-12.7,1.48-58.93,8.92-114.67,17.89l-7.12,1.14-8.7,1.4-27.84,4.48c-37.2,6-75.76,12.1-109.67,17.27l-11.93,1.81-4,.61-5.54.83c-31,4.62-56.27,8.1-70.1,9.37a4.73,4.73,0,0,1-.28-.39c-.78-1-1.54-2.11-2.3-3.17L64.8,391Q61.26,386,58,380.8c-.49-.77-1-1.54-1.45-2.32-1.28-2.1-2.54-4.2-3.74-6.34-.43-.75-.86-1.5-1.28-2.26l-1.22-2.22-1.21-2.26q-4.17-7.93-7.77-16.21-2-4.72-3.89-9.57c-.7-1.83-1.37-3.68-2-5.53q-3.25-9.18-5.73-18.72c0-.17-.09-.35-.14-.53-.5-1.93-1-3.87-1.42-5.82-.19-.81-.37-1.62-.55-2.44q-.09-.34-.15-.69a51510534184.69,51510534184.69,0,0,1,0-.06q-.42-1.95-.81-3.9c-.5-2.56-1-5.13-1.39-7.72-.14-.85-.28-1.7-.41-2.56q-1-6.31-1.58-12.73c0-.25-.05-.51-.07-.76-.06-.63-.11-1.27-.17-1.9-.07-.92-.15-1.84-.21-2.76l-.12-1.76h0c0-.18,0-.36,0-.54-.08-1.26-.16-2.52-.21-3.78q-.08-1.47-.12-2.94c0-.81-.05-1.62-.07-2.43-.07-2-.09-4-.09-6a234.06,234.06,0,0,1,13.22-77.83c.13-.4.27-.8.42-1.19q2.63-7.34,5.71-14.43l.26-.59a120.8,120.8,0,0,1,13.52-.34,73.23,73.23,0,0,1,16,2.72c11.71,3.12,24.24,8.23,33,11.52a85.31,85.31,0,0,0,10.89,2.52c.87.16,1.74.29,2.59.41,4.39.61,8.68.91,13,1.11l3.64.14c12.5.42,25.55.36,42.17,4.44l2.13.53.07,0a74.12,74.12,0,0,0,16.56,2.35c.75,0,1.49,0,2.23,0,1.22,0,2.44,0,3.65-.07.94,0,1.88-.07,2.82-.13,22.42-1.42,45-10.06,74.18-10.29,27.37-1.34,53.06,17.71,72.77,21.37l.23,0c.82.16,1.64.3,2.47.44l3.68.59c.4.06.8.13,1.21.18,5.92.87,12,1.52,18.21,2.07,1.79.17,3.59.33,5.4.46,25.24,2.07,51.81,3.08,75.8,10.72A229.48,229.48,0,0,1,456.72,261Z"/><path class="cls-3" d="M490.68,255.89v.78c0,.88,0,1.76,0,2.63,0,1.76-.07,3.51-.13,5.26,0,1.32-.11,2.63-.18,3.94,0,.14,0,.29,0,.43,0,.36,0,.71-.06,1.07-.14,2.32-.31,4.63-.52,6.95,0,.55-.09,1.11-.14,1.66-.12,1.21-.25,2.42-.38,3.63,0,.33-.07.66-.11,1-.15,1.34-.32,2.68-.49,4q-.47,3.58-1.07,7.15-.44,2.7-.95,5.37c-.14.74-.28,1.49-.43,2.24a236.54,236.54,0,0,1-14.06,45.67q-1.35,3.19-2.8,6.34c-.62,1.36-1.26,2.7-1.9,4-.34.72-.69,1.44-1.05,2.15l-1,2c-.34.68-.69,1.36-1,2-1.08,2.1-2.2,4.17-3.36,6.23-.41.73-.82,1.46-1.24,2.18-.26.46-.54.92-.81,1.39-.65,1.11-1.3,2.22-2,3.32l-.46.76-1,1.68a1.63,1.63,0,0,1-.11.17c-.67,1.08-1.36,2.15-2.05,3.22-.14.23-.29.46-.44.69l-.84,1.28c-1.38,2.09-2.79,4.17-4.25,6.22l-1.33,1.85c0,.09-.06.17-.18.25-1.36.94-10.41,1.59-24.88,2-21.61.66-55.34.85-93.56.8h-9.5l-12.54,0c-12.12,0-24.53-.1-37-.17-26.45-.15-53.2-.35-78.18-.54l-5.62,0-14.11-.11-3.26,0-7.69-.06c-52.14-.38-90.77-.56-92,.19h0c-1.11-1.14-2.17-2.36-3.18-3.63a99.22,99.22,0,0,1-7.44-11.12c-1.76-2.93-3.45-5.87-5.19-8.66-.43-.75-.86-1.5-1.28-2.26l-1.22-2.22-1.21-2.26q-4.19-7.9-7.77-16.21-2-4.72-3.89-9.57c-.69-1.83-1.37-3.68-2-5.53q-3.24-9.21-5.73-18.72c0-.17-.09-.35-.14-.53-.49-1.93-1-3.87-1.42-5.82-.19-.81-.37-1.62-.55-2.44-.06-.24-.11-.48-.16-.72a0,0,0,0,1,0,0q-.42-1.95-.81-3.9c-.27-1.38-.52-2.76-.77-4.15-.16-.91-.32-1.81-.47-2.72l-.15-.85c-.14-.85-.28-1.7-.41-2.56q-1-6.34-1.58-12.73c0-.25-.05-.51-.07-.76-.06-.63-.11-1.27-.17-1.9-.07-.92-.15-1.84-.21-2.76q2.23-1.11,4.5-2.12c1-.48,2.08-.94,3.13-1.38a227.36,227.36,0,0,1,30.58-10.15q2.63-.71,5.25-1.36l1.32-.33c1.94-.49,3.89-1,5.83-1.43q5.49-1.31,11-2.56l6.54-1.52,6.26-1.47,3.31-.8,2-.51c5.6-1.39,11.1-2.86,16.43-4.5q3-.9,5.9-1.9l1.49-.5a60.85,60.85,0,0,0,7.56-3.31c5.4-2.77,11.07-6.37,17-10.1l3.44-2.14h0q2.16-1.33,4.36-2.64l1.14-.68c10.76-6.32,22.44-12,35.15-13.28,23.53-3.41,43.55-.64,62.25-.57,12.8.05,25-1.17,37.27-6.48,1.63-.71,3.24-1.37,4.81-2h0c.81-.31,1.62-.62,2.42-.91,3-1.11,5.94-2.06,8.77-2.89,1.06-.31,2.1-.6,3.14-.88,2.27-.61,4.5-1.15,6.67-1.64q2.65-.58,5.22-1.09c3.73-.75,7.34-1.39,10.89-2,1.8-.33,3.58-.66,5.36-1s3.46-.71,5.18-1.12,3.18-.77,4.77-1.21c.77-.22,1.55-.44,2.33-.68,1.94-.58,3.88-1.23,5.85-2,2.25-.84,4.52-1.8,6.83-2.9l6.17-3.51,2.75-1.57,1.72-1c2.85-1.6,5.85-3.25,8.92-4.87,9.06-4.73,18.69-9.09,26.66-10.56,9.84-1.92,22.07-2.31,34.55-2.66,7.61-.22,15.31-.43,22.61-.95.21.47.43.93.63,1.4l0,0c.22.48.43,1,.64,1.43s.3.67.44,1c.28.63.55,1.26.82,1.89.75,1.76,1.49,3.54,2.19,5.33.31.79.63,1.59.93,2.38s.61,1.6.91,2.4.69,1.87,1,2.81.61,1.72.91,2.59c.39,1.13.77,2.26,1.14,3.4q.42,1.26.81,2.52c.29.93.58,1.86.86,2.8.42,1.38.82,2.76,1.21,4.15.17.59.34,1.2.5,1.8.25.92.5,1.85.74,2.78.15.57.29,1.13.43,1.7s.31,1.23.46,1.85q.68,2.81,1.29,5.62c.14.66.28,1.32.41,2,.1.44.19.87.27,1.31.14.67.27,1.33.39,2,.18.88.34,1.75.49,2.62.11.58.21,1.17.31,1.75.27,1.51.51,3,.74,4.55.09.55.17,1.1.25,1.65l.24,1.71q.21,1.47.39,2.94l.21,1.76c.05.4.1.81.14,1.22.1.91.2,1.82.29,2.73,0,0,0,0,0,.06.11,1.06.21,2.14.3,3.21.14,1.68.27,3.36.38,5.05s.2,3.14.26,4.72c0,.16,0,.32,0,.47.07,1.66.13,3.33.16,5,0,.7,0,1.41,0,2.12C490.67,254,490.68,255,490.68,255.89Z"/><path class="cls-2" d="M299.08,434.55a2.85,2.85,0,0,0,3.13-2.11l46-178.13,12.18-47.16a.6.6,0,0,0-1.13-.41L255,425.25a2.53,2.53,0,0,0,2,3.6Z"/><path class="cls-2" d="M327.89,434.75C335,420.06,356.12,374,352,263.52c-12.36,108.8-30.29,170.62-30.29,170.62Z"/><path class="cls-2" d="M327.72,445.09c-.1.32-.2.65-.31,1a22.77,22.77,0,0,1-21.68,15.16h-35.5a22.77,22.77,0,0,1-21.68-15.16c-.11-.32-.21-.65-.31-1a1.53,1.53,0,0,1,1.46-2h76.56A1.53,1.53,0,0,1,327.72,445.09Z"/><path class="cls-2" d="M196.12,413.81c0,.06-.05.12-.07.17a13.5,13.5,0,0,1-12.58,8.19H158.7A13.5,13.5,0,0,1,146.12,414c0-.05-.05-.11-.07-.17a1.29,1.29,0,0,1,1.22-1.74H194.9A1.29,1.29,0,0,1,196.12,413.81Z"/><path class="cls-2" d="M162,403.26,163.64,286a.23.23,0,0,1,.46,0c2.16,18.22,12.45,99.68,26,117.31a1.07,1.07,0,0,1-.83,1.73c-9.54.28-21.33.06-25.59,0A1.64,1.64,0,0,1,162,403.26Z"/><path class="cls-2" d="M154,403.62c-.81-6.49-4-37.33,1.89-84.93-11.74,37.68-11.84,76-11.7,84.49a1.73,1.73,0,0,0,1.75,1.71h6.92A1.14,1.14,0,0,0,154,403.62Z"/></svg>