<svg xmlns="http://www.w3.org/2000/svg" viewBox="0 0 469.37 469.33"><g id="Layer_2" data-name="Layer 2"><g id="icon"><path d="M234.67,465.83A231.16,231.16,0,0,1,71.21,71.21,231.17,231.17,0,0,1,398.13,398.13,229.68,229.68,0,0,1,234.67,465.83Z" style="fill:#fff"/><path d="M234.67,7a227.73,227.73,0,0,1,88.61,437.45A227.73,227.73,0,0,1,146.05,24.89,226.23,226.23,0,0,1,234.67,7m0-7C105.06,0,0,105.06,0,234.67S105.06,469.33,234.67,469.33,469.33,364.27,469.33,234.67,364.27,0,234.67,0Z" style="fill:#005596"/><path d="M3.81,245.91q-.08-1.46-.12-2.88c0-.82,0-1.61-.07-2.41-.06-1.73-.09-3.59-.09-5.89a230.54,230.54,0,0,1,13-76.47L37,148.64l11.48-5.39,4.2-2L180.87,81.11a103.42,103.42,0,0,1,87.93,0l41,19.26,14.72-7.52a5.45,5.45,0,0,1,5,0l95.39,48.73v1.35h2.66l24.28,12.41c.18.48.35,1,.52,1.43.33.92.63,1.76.92,2.62.39,1.11.76,2.21,1.12,3.33.28.85.54,1.66.8,2.48s.57,1.84.85,2.76c.41,1.38.81,2.73,1.19,4.1.17.59.33,1.18.49,1.76.25.92.5,1.83.73,2.75.15.57.29,1.11.42,1.66s.31,1.22.45,1.81c.45,1.87.88,3.71,1.28,5.57.13.62.27,1.27.4,1.91.11.49.19.87.26,1.26.15.73.27,1.35.39,2,.18.93.34,1.76.48,2.6.1.53.18,1,.27,1.49l0,.26c.27,1.5.51,3,.73,4.48.09.55.17,1.06.24,1.58l.24,1.74c.14,1,.27,1.92.39,2.88l.21,1.75c0,.39.09.77.13,1.14.06.61.13,1.21.19,1.79h0l.07.65L447,212.5l-124.2,9.57-4.25.33-.26,0L20.43,245.36,3.84,246.64Z" style="fill:#fff"/><path d="M224.83,74.8a100.65,100.65,0,0,1,42.49,9.48l39.48,18.53,3.1,1.46,3.05-1.56L326.16,96a1.86,1.86,0,0,1,.89-.22,2,2,0,0,1,.89.22l70.81,36.18,22.68,11.58v2.71h5.31l5.83,3,7.06,3.61.13.06.13.06,9.15,4.68.08.2.87,2.5c.38,1.09.75,2.18,1.1,3.28v.05c.26.79.52,1.58.77,2.39s.56,1.8.84,2.75c.38,1.24.76,2.55,1.18,4.05.16.55.32,1.11.48,1.7.24.89.48,1.79.72,2.72.14.54.27,1.06.4,1.59l0,.06v.05c.15.57.29,1.14.43,1.71.44,1.85.86,3.69,1.24,5.44.14.62.27,1.25.39,1.88l0,.1,0,.1c.07.34.14.67.2,1l0,.09,0,.09c.13.6.24,1.2.35,1.8l0,.08v.08c.15.74.3,1.53.45,2.41v.12c.09.46.17.93.25,1.4l0,.28c.22,1.23.44,2.58.71,4.36v.08c.09.51.16,1,.23,1.49l.24,1.74c.13.93.26,1.86.37,2.78l.21,1.71-6.38.49-7.73.59-124.21,9.58-1.36.1-2.83.22-.26,0h-.1L34.05,240.8l-9.1.7-4.78.37-11.88.91-1.1.09c0-.78-.05-1.56-.07-2.34v-.07C7.06,238.81,7,237,7,234.73A226.93,226.93,0,0,1,19.31,160.8l16.14-7.57,2.3-1.09h0l1.42-.66,2.7-1.27,5.88-2.76,2.18-1,4.22-2,15.47-7.26L121,113.09l61.4-28.81a100.56,100.56,0,0,1,42.47-9.48m0-7a106.9,106.9,0,0,0-45.45,10.14L118,106.75l-51.34,24.1-15.47,7.26-4.21,2-2.19,1-5.88,2.76-2.7,1.27h0l-3.72,1.75-18.8,8.82c-.15.39-.29.79-.42,1.19A234.06,234.06,0,0,0,0,234.73c0,2,0,4,.09,6,0,.81,0,1.62.07,2.43q0,1.47.12,2.94c.06,1.26.13,2.52.22,3.77l0,.55h0L5.18,250l.76-.06,2.88-.22,11.88-.91,4.79-.37,9.1-.7,283.88-21.87.31,0,2.87-.22,1.38-.11L447.23,216l7.72-.59,13.53-1c-.09-1.07-.19-2.15-.3-3.21,0,0,0,0,0-.06-.09-.91-.19-1.82-.29-2.73,0-.41-.09-.82-.14-1.22l-.21-1.76q-.18-1.47-.39-2.94l-.24-1.71c-.08-.55-.16-1.1-.25-1.65-.23-1.52-.47-3-.74-4.55-.1-.58-.2-1.17-.31-1.75-.15-.87-.31-1.74-.49-2.62-.12-.67-.25-1.33-.39-2-.08-.44-.17-.87-.27-1.31-.13-.66-.27-1.32-.41-2q-.62-2.82-1.29-5.62c-.15-.62-.3-1.24-.46-1.85s-.28-1.13-.43-1.7c-.24-.93-.49-1.86-.74-2.78-.16-.6-.33-1.21-.5-1.8-.39-1.39-.79-2.77-1.21-4.15-.28-.94-.57-1.87-.86-2.8s-.53-1.68-.81-2.52c-.37-1.14-.75-2.27-1.14-3.4-.3-.87-.6-1.73-.91-2.59s-.68-1.88-1-2.81l-11.72-6-.13-.06-7.06-3.61-7.33-3.75h0l-.88-.44-.64-.33-1.42-.72-23.55-12L331.12,89.73a9,9,0,0,0-8.15,0l-13.2,6.74L270.29,77.94A106.94,106.94,0,0,0,224.83,67.8Z" style="fill:#005596"/><path d="M435.4,239.63a232.08,232.08,0,0,1-13.6,54c-3.64,8.52-6.77,18.15-12.09,25.54a14.11,14.11,0,0,0-3.44.21c-12.7,1.48-58.93,8.92-114.67,17.89l-7.12,1.14-8.7,1.4-27.84,4.48c-37.2,6-75.76,12.1-109.67,17.27l-11.93,1.81-4,.61-5.54.83c-31,4.62-56.27,8.1-70.1,9.37a4.73,4.73,0,0,1-.28-.39c-.78-1.05-1.54-2.11-2.3-3.17l-.63-.88q-3.54-5-6.81-10.24c-.49-.77-1-1.54-1.45-2.32-1.28-2.1-2.54-4.2-3.74-6.34-.43-.75-.86-1.5-1.28-2.26L29,346.32l-1.21-2.26Q23.6,336.13,20,327.85q-2-4.73-3.89-9.57c-.7-1.83-1.37-3.68-2-5.53Q10.84,303.57,8.36,294c0-.17-.09-.35-.14-.53-.5-1.93-1-3.87-1.42-5.82-.19-.81-.37-1.62-.55-2.44q-.09-.35-.15-.69a51510534187.32,51510534187.32,0,0,0,0-.06q-.42-2-.81-3.9c-.5-2.56-1-5.13-1.39-7.72-.14-.85-.28-1.7-.41-2.56q-1-6.31-1.58-12.73c0-.25,0-.51-.07-.76-.06-.63-.11-1.27-.17-1.9-.07-.92-.15-1.84-.21-2.76l-.12-1.76h0c0-.18,0-.36,0-.54-.08-1.26-.16-2.52-.21-3.78Q1,244.6,1,243.13c0-.81,0-1.62-.07-2.43-.07-2-.09-4-.09-6A234.06,234.06,0,0,1,14,156.9c.13-.4.27-.8.42-1.19q2.63-7.34,5.71-14.43l.26-.59a120.8,120.8,0,0,1,13.52-.34,73.23,73.23,0,0,1,16,2.72c11.71,3.12,24.24,8.23,33,11.52a85.31,85.31,0,0,0,10.89,2.52c.87.16,1.74.29,2.59.41,4.39.61,8.68.91,13,1.11l3.64.14c12.5.42,25.55.36,42.17,4.44l2.13.53.07,0a74.12,74.12,0,0,0,16.56,2.35c.75,0,1.49,0,2.23,0,1.22,0,2.44,0,3.65-.07.94,0,1.88-.07,2.82-.13,22.42-1.42,45-10.06,74.18-10.29,27.37-1.34,53.06,17.71,72.77,21.37l.23,0c.82.16,1.64.3,2.47.44l3.68.59c.4.06.8.13,1.21.18,5.92.87,12,1.52,18.21,2.07,1.79.17,3.59.33,5.4.46,25.24,2.07,51.81,3.08,75.8,10.72A229.48,229.48,0,0,1,435.4,239.63Z" style="fill:#005596"/><path d="M297,371.5l-12.53,0c-12.12,0-24.53-.1-37-.17-26-.14-51.8-.34-78.18-.54l-30.67-.23c-23.45-.17-47.54-.32-64.91-.32-15.85,0-22.66.1-25.81.33-.6-.67-1.2-1.38-1.79-2.12a99.45,99.45,0,0,1-7.18-10.74l-1.83-3.09c-1.1-1.84-2.22-3.75-3.36-5.57-.41-.72-.82-1.43-1.22-2.16l-1.22-2.22-1.18-2.21c-2.72-5.13-5.29-10.5-7.65-15.95-1.36-3.16-2.65-6.33-3.83-9.43-.75-2-1.4-3.76-2-5.45-2.11-6-4-12.2-5.65-18.44a4.48,4.48,0,0,0-.15-.57c-.46-1.84-.94-3.76-1.38-5.68-.19-.81-.37-1.6-.54-2.41l0-.1-.12-.56-.21-1v0q-.32-1.45-.6-2.91c-.26-1.35-.52-2.71-.76-4.08-.16-.89-.31-1.78-.46-2.68l-.15-.83c-.14-.85-.27-1.68-.4-2.53-.65-4.2-1.17-8.41-1.56-12.53,0-.28,0-.47-.06-.66l-.18-2,0-.32c.76-.36,1.52-.7,2.25-1,1-.48,2.05-.92,3.06-1.35a222,222,0,0,1,30.13-10q2.61-.71,5.2-1.35l1.32-.33c1.78-.45,3.56-.88,5.34-1.31l.46-.11c3.64-.87,7.3-1.72,11-2.55l6.56-1.53,6.26-1.47,3.34-.81,2.06-.51c6.33-1.57,11.77-3.06,16.61-4.55,2.13-.64,4.1-1.28,6-1.94.45-.14,1-.32,1.49-.5a64.2,64.2,0,0,0,8-3.5c5.11-2.62,10.34-5.89,15.88-9.36l1.42-.89,2.65-1.65.79-.48q2.13-1.32,4.3-2.6l1.11-.67c9-5.28,20.93-11.49,33.76-12.82l.14,0a168.9,168.9,0,0,1,24.87-1.66c6.84,0,13.44.3,19.83.58,5.89.27,11.46.52,17,.54h.75c10.37,0,24.05-.77,37.93-6.77,1.6-.7,3.17-1.34,4.67-1.92l2.11-.8.25-.1c2.82-1,5.62-2,8.56-2.82l3.07-.86c2.05-.55,4.19-1.07,6.53-1.6q2.6-.57,5.13-1.07c2.73-.55,5.43-1,8-1.53l2.81-.52c1.82-.33,3.62-.66,5.43-1s3.59-.74,5.28-1.14,3.33-.81,4.89-1.24l.28-.08,2.15-.63c2.05-.61,4-1.28,6.05-2,2.36-.88,4.75-1.9,7.1-3l.11-.05.11-.06,4.9-2.78,1.88-1.08,2.14-1.22,1.73-1c3.22-1.81,6.12-3.39,8.82-4.82,10.92-5.7,19.32-9,25.66-10.21,9.88-1.93,22.7-2.29,34-2.61l.81,0c6.47-.19,13.13-.38,19.51-.77l.7,1.57.81,1.87c.87,2,1.55,3.71,2.16,5.26l.26.67c.22.56.45,1.12.66,1.68.31.8.6,1.58.89,2.36.36.94.69,1.87,1,2.79l.89,2.54c.38,1.12.76,2.22,1.12,3.34.28.85.54,1.66.79,2.48s.58,1.84.85,2.76c.42,1.38.82,2.73,1.2,4.1.17.59.33,1.18.49,1.76.25.92.49,1.83.73,2.75.15.57.28,1.11.42,1.66s.31,1.24.46,1.84c.44,1.84.86,3.68,1.27,5.54.13.63.27,1.27.39,1.91l0,.1c.08.39.16.77.23,1.16.15.73.28,1.35.39,2,.19.93.35,1.77.49,2.6.1.55.19,1,.27,1.54l0,.21c.27,1.5.5,3,.73,4.48.09.57.17,1.1.24,1.63l.24,1.69c.14,1,.27,1.92.38,2.88l.21,1.75c.05.39.1.76.13,1.14.07.61.14,1.2.2,1.79h0l.09.84v0l0,.14c.1,1,.2,2.09.29,3.14.14,1.65.27,3.31.38,5s.2,3.19.25,4.63c0,.17,0,.25,0,.33v.15c.07,1.63.13,3.28.16,4.92,0,.72,0,1.41,0,2.1,0,.92,0,1.86,0,2.78v.78c0,.87,0,1.74,0,2.59,0,1.73-.08,3.46-.14,5.18,0,1.3-.1,2.6-.17,3.89l0,.42-.06,1.06c-.14,2.27-.31,4.57-.51,6.83l-.14,1.65c-.12,1.19-.24,2.38-.38,3.57l-.1,1c-.15,1.34-.32,2.66-.48,4-.3,2.26-.64,4.55-1.05,7-.28,1.7-.58,3.42-.94,5.3l-.07.39c-.12.6-.23,1.21-.35,1.82a232.76,232.76,0,0,1-13.86,45c-.9,2.13-1.82,4.23-2.75,6.24-.62,1.35-1.25,2.67-1.88,4-.33.7-.67,1.39-1,2.07l-1,2.06c-.33.66-.67,1.32-1,2-1.05,2-2.13,4-3.31,6.14-.4.71-.8,1.43-1.21,2.13l-.82,1.39c-.64,1.1-1.28,2.19-1.94,3.28l-1.48,2.43-.09.13c-.67,1.07-1.34,2.12-2,3.17l-.43.68-.84,1.27c-1.55,2.35-2.88,4.3-4.18,6.12l-.85,1.19c-1.59.33-6.67,1-22.79,1.48-17.75.54-44.62.8-82.14.8Z" style="fill:#fff"/><path d="M443.69,144.28c.17.41.35.81.52,1.21.85,2,1.52,3.62,2.11,5.14l.26.66c.22.55.44,1.1.66,1.69s.56,1.46.83,2.19l.06.15c.33.9.67,1.81,1,2.72s.59,1.66.88,2.5c.38,1.09.74,2.17,1.1,3.27v.06c.26.79.52,1.58.77,2.39s.56,1.8.84,2.75c.38,1.24.76,2.55,1.18,4.05.16.55.32,1.11.47,1.7.24.89.49,1.79.73,2.72.14.54.27,1.06.4,1.6v0l0,.05.42,1.71c.44,1.83.87,3.68,1.25,5.44.13.63.27,1.25.39,1.88l0,.1,0,.09q.12.51.21,1l0,.08,0,.09c.12.61.24,1.2.35,1.81v.08l0,.09c.15.73.3,1.52.45,2.4v.12c.09.47.17.94.25,1.41l.05.27c.28,1.57.52,3.15.71,4.36v.08c.08.51.16,1,.23,1.5l.24,1.72c.13.93.26,1.87.37,2.8l.21,1.74V208c0,.33.09.68.12,1v.08c0,.23.05.45.07.68h0l.22,2.07c.1,1,.2,2.05.28,3.06.16,1.88.28,3.45.38,5s.19,3.09.24,4.5v.5c.08,1.9.13,3.43.16,4.83v.07c0,.64,0,1.29,0,1.93v.16c0,.89,0,1.78,0,2.66v.78c0,.83,0,1.65,0,2.47v.06c0,1.6-.07,3.28-.14,5.13,0,1.16-.09,2.41-.16,3.82l0,.29v.14l0,.5,0,.52c-.13,2.24-.3,4.5-.49,6.73l-.06.6q0,.51-.09,1c-.11,1.17-.23,2.35-.37,3.52,0,.18,0,.35-.05.53s0,.29,0,.46c-.14,1.3-.31,2.6-.47,3.88-.29,2.23-.63,4.48-1,6.94-.27,1.65-.57,3.34-.92,5.19l-.05.27c-.12.62-.24,1.26-.37,1.89a229.49,229.49,0,0,1-13.64,44.32c-.88,2.09-1.8,4.16-2.72,6.16-.6,1.31-1.23,2.64-1.86,4-.34.71-.65,1.36-1,2l-.51,1-.52,1-1,2c-1,2-2.06,3.93-3.24,6-.39.7-.78,1.39-1.2,2.11l-.45.78-.35.59c-.62,1.07-1.26,2.15-1.9,3.21l-.16.27-.3.48c-.16.27-.32.54-.49.8l-.5.82-.1.17c-.66,1-1.32,2.08-2,3.12l-.24.38-.17.26-.83,1.26c-1.54,2.33-2.85,4.24-4.12,6-2.35.31-7.9.79-20.9,1.2-17.71.54-44.56.8-82.07.8H297l-6.15,0-6.39,0c-11,0-23.15-.09-37-.17-26-.14-51.81-.34-78.18-.54l-2.83,0-2.77,0-6.75,0c-2.47,0-4.93,0-7.36-.06h-3.27l-7.69-.06c-23.44-.17-47.54-.32-64.93-.32-13.13,0-20.23.05-24.29.23-.2-.23-.39-.47-.58-.71a92.37,92.37,0,0,1-6.91-10.36c-.61-1-1.22-2-1.82-3.06-1.09-1.84-2.22-3.75-3.36-5.59-.39-.68-.78-1.36-1.17-2.06L35,344.07l-.6-1.09-.59-1.09-.59-1.1c-2.67-5.05-5.2-10.34-7.53-15.71-1.34-3.11-2.61-6.24-3.76-9.27-.74-1.95-1.38-3.72-2-5.38-2.07-5.88-3.93-12-5.54-18.1-.05-.2-.11-.41-.16-.62-.56-2.18-1-4-1.38-5.62-.18-.78-.35-1.56-.53-2.35l0-.1,0-.1c0-.14-.06-.28-.1-.45l-.42-2h0c-.12-.62-.25-1.24-.37-1.85-.26-1.34-.52-2.69-.76-4-.16-.88-.3-1.76-.45-2.64l-.08-.43-.06-.4,0-.11c-.13-.78-.26-1.57-.38-2.38C9,265.13,8.49,261,8.11,256.93v-.19c0-.1,0-.21,0-.31h0l0,0c1-.46,2-.88,2.94-1.29a219,219,0,0,1,29.65-9.84c1.54-.41,3.22-.84,5.14-1.33l.19,0,1.14-.29c1.73-.44,3.47-.86,5.19-1.27l.55-.14,11-2.55,2.51-.58,4-.94,6.32-1.48,1.41-.34,1.94-.47,1.37-.34.66-.17c6.5-1.61,11.84-3.08,16.77-4.59,2.18-.66,4.17-1.3,6.09-2,.53-.17,1-.35,1.59-.54a65.9,65.9,0,0,0,8.44-3.69c5.24-2.68,10.53-6,16.13-9.5l1.44-.9,1.71-1.07h0l1.69-1c1.48-.92,2.87-1.76,4.24-2.57l0,0,0,0,1.06-.63c8.67-5.09,20.17-11.09,32.33-12.35l.14,0,.14,0a166.36,166.36,0,0,1,24.37-1.62c6.76,0,13.32.29,19.67.58,5.93.27,11.54.52,17.18.54H236c10.7,0,24.84-.81,39.32-7.07,1.54-.67,3.06-1.29,4.52-1.85l1.78-.68.55-.21c2.73-1,5.46-1.9,8.32-2.74,1-.28,1.94-.55,3-.84,2-.53,4.09-1.05,6.35-1.56,1.6-.35,3.26-.7,5.1-1.06,2.7-.55,5.39-1,8-1.52l2.78-.51c1.84-.34,3.65-.67,5.48-1s3.7-.77,5.38-1.17,3.44-.83,5.06-1.28h.05l.29-.08,2.15-.63c2.14-.64,4.2-1.33,6.27-2.11,2.46-.92,5-2,7.39-3.14l.22-.1.21-.12c1.5-.84,3.12-1.77,4.84-2.75l1.37-.78.47-.27,2.24-1.28,1.7-1c3.2-1.8,6.06-3.36,8.74-4.77,10.61-5.54,18.69-8.78,24.69-9.88h.07c9.55-1.86,22.22-2.22,33.41-2.53l.86,0c5.66-.17,11.47-.33,17.14-.64M448.1,137c-7.3.52-15,.73-22.61.95-12.48.35-24.71.74-34.55,2.66-8,1.47-17.6,5.83-26.66,10.56-3.07,1.62-6.07,3.27-8.92,4.87l-1.72,1-2.75,1.57-6.17,3.51c-2.31,1.1-4.58,2.06-6.83,2.9-2,.74-3.91,1.39-5.85,2-.78.24-1.56.46-2.33.68-1.59.44-3.18.84-4.77,1.21s-3.45.78-5.18,1.12-3.56.7-5.36,1c-3.55.66-7.16,1.3-10.89,2q-2.56.51-5.22,1.09c-2.17.49-4.4,1-6.67,1.64-1,.28-2.08.57-3.14.88-2.83.83-5.75,1.78-8.77,2.89-.8.29-1.61.6-2.42.91h0c-1.57.6-3.18,1.26-4.81,2-12,5.21-24,6.49-36.53,6.49h-.74c-11.61,0-23.73-1.12-36.88-1.12A175.57,175.57,0,0,0,173,189.48c-12.71,1.32-24.39,7-35.15,13.28l-1.14.68q-2.21,1.31-4.36,2.64h0l-3.44,2.14c-6,3.73-11.64,7.33-17,10.1a60.85,60.85,0,0,1-7.56,3.31l-1.49.5q-2.91,1-5.9,1.9c-5.33,1.64-10.83,3.11-16.43,4.5l-2,.51-3.31.8-6.26,1.47-6.54,1.52q-5.49,1.26-11,2.56c-1.94.47-3.89.94-5.83,1.43l-1.32.33q-2.62.66-5.25,1.36A227.36,227.36,0,0,0,8.32,248.66c-1.05.44-2.09.9-3.13,1.38q-2.27,1-4.5,2.12c.06.92.14,1.84.21,2.76.06.63.11,1.27.17,1.9,0,.25,0,.51.07.76q.6,6.38,1.58,12.73c.13.86.27,1.71.41,2.56,0,.29.1.57.14.86.16.91.31,1.81.47,2.72.25,1.38.51,2.77.78,4.14s.53,2.6.81,3.9a0,0,0,0,0,0,0c0,.24.1.48.16.72.18.82.36,1.63.55,2.44.45,1.95.93,3.89,1.42,5.82,0,.18.1.36.14.53q2.49,9.5,5.73,18.72c.65,1.85,1.33,3.7,2,5.53q1.84,4.85,3.89,9.57,3.59,8.29,7.77,16.21l1.21,2.26,1.22,2.22c.42.76.85,1.51,1.28,2.26,1.74,2.79,3.43,5.73,5.19,8.66a99.22,99.22,0,0,0,7.44,11.12c1,1.27,2.07,2.49,3.18,3.63h0s0,0,0,0c.62-.37,10.67-.51,27.13-.51s38.92.13,64.88.32l7.69.06,3.26,0,14.11.11,5.62,0c25,.19,51.73.39,78.18.54,12.47.07,24.88.13,37,.17L297,375h20.77c33.54,0,62.83-.21,82.29-.81,14.47-.45,23.52-1.1,24.88-2,.12-.08.18-.16.18-.25l1.33-1.85c1.45-2,2.86-4.12,4.25-6.21l.84-1.29c.15-.22.29-.46.44-.69.69-1.06,1.37-2.13,2.05-3.21a1.74,1.74,0,0,1,.11-.18l1-1.68c.15-.25.3-.5.46-.75.66-1.11,1.32-2.21,2-3.33.28-.46.55-.92.82-1.39.42-.72.83-1.45,1.24-2.18,1.16-2.06,2.28-4.13,3.36-6.23.35-.67.7-1.35,1-2l1-2c.36-.71.71-1.43,1.05-2.15.64-1.34,1.28-2.68,1.9-4q1.46-3.15,2.8-6.34a236.54,236.54,0,0,0,14.06-45.67c.15-.75.29-1.5.43-2.24q.51-2.67.95-5.37.6-3.57,1.07-7.15c.17-1.33.34-2.67.49-4,0-.32.07-.65.1-1,.14-1.21.26-2.42.38-3.63l.15-1.67q.3-3.47.51-6.94c0-.36.05-.72.07-1.08,0-.14,0-.28,0-.42.06-1.31.12-2.63.17-3.94.06-1.75.11-3.51.14-5.27,0-.87,0-1.75,0-2.63v-.78c0-.94,0-1.89,0-2.83,0-.71,0-1.42,0-2.12,0-1.67-.09-3.34-.16-5,0-.15,0-.31,0-.47-.06-1.58-.15-3.15-.26-4.72s-.24-3.37-.38-5c-.09-1.07-.19-2.15-.3-3.21,0,0,0,0,0-.06-.09-.91-.19-1.82-.29-2.73,0-.41-.09-.82-.14-1.22l-.21-1.76q-.18-1.47-.39-2.94l-.24-1.71c-.08-.55-.16-1.1-.25-1.65-.23-1.52-.47-3-.74-4.55-.1-.58-.2-1.17-.31-1.75-.15-.87-.31-1.74-.49-2.62-.12-.67-.25-1.33-.39-2-.08-.44-.17-.87-.27-1.31-.13-.66-.27-1.32-.41-2q-.62-2.82-1.29-5.62c-.15-.62-.3-1.24-.46-1.85s-.28-1.13-.43-1.7c-.24-.93-.49-1.86-.74-2.78-.16-.6-.33-1.21-.5-1.8-.39-1.39-.79-2.77-1.21-4.15-.28-.94-.57-1.87-.86-2.8s-.53-1.68-.81-2.52c-.37-1.14-.75-2.27-1.14-3.4-.3-.87-.6-1.73-.91-2.59s-.68-1.88-1-2.81-.6-1.6-.91-2.4-.62-1.59-.93-2.38c-.7-1.79-1.44-3.57-2.19-5.33-.27-.63-.54-1.26-.82-1.89-.14-.33-.29-.66-.44-1s-.42-.95-.64-1.43l0,0c-.2-.47-.42-.93-.63-1.4Z" style="fill:#005596"/><path d="M279.15,417.24a7.11,7.11,0,0,1-.92-.06l-42.11-5.69a6.54,6.54,0,0,1-5-9.29L335.35,183.68a4.58,4.58,0,0,1,4.15-2.62,4.67,4.67,0,0,1,3.66,1.79,4.59,4.59,0,0,1,.81,4l-58.2,225.29a6.84,6.84,0,0,1-6.62,5.13Z" style="fill:#fff"/><path d="M339.5,185.06a.61.61,0,0,1,.6.76L327.91,233l-46,178.13a2.85,2.85,0,0,1-2.75,2.13,2.56,2.56,0,0,1-.39,0l-42.11-5.69a2.53,2.53,0,0,1-2-3.6L339,185.41a.58.58,0,0,1,.54-.35m0-8a8.55,8.55,0,0,0-7.76,4.9L227.48,400.47a10.54,10.54,0,0,0,8.1,15l42.11,5.69a10.14,10.14,0,0,0,1.46.1,10.84,10.84,0,0,0,10.49-8.13l46-178.13,12.18-47.16a8.55,8.55,0,0,0-1.52-7.42,8.69,8.69,0,0,0-6.82-3.34Z" style="fill:#fff"/><path d="M303.87,430.78a4,4,0,0,1-3.46-2l-.08-.12-1.61-.16a4,4,0,0,1-3.44-5.1c.19-.64,18.9-66,31.69-178.58a4,4,0,0,1,4-3.55h.19a4,4,0,0,1,3.81,3.92c2.28,110.52-16,160.92-25.38,179.3a4,4,0,0,1-1.21,3.59l-.83.79C306.46,429.91,305.54,430.78,303.87,430.78Z" style="fill:#fff"/><path d="M331,245.29c2.57,124.93-21.32,170.9-26.23,179.81l-5.6-.56S318,359.59,331,245.29M304.72,425.1l.9.09a16.48,16.48,0,0,1-1.75,1.59c-.1,0,.22-.53.85-1.68m26.22-187.81a8,8,0,0,0-7.94,7.1c-12.75,112.17-31.37,177.27-31.56,177.92a8,8,0,0,0,6.82,10.18,8,8,0,0,0,5.61,2.29,8.78,8.78,0,0,0,6.41-3l.81-.76a8,8,0,0,0,2.53-5.66c7.17-14.39,12-32.12,14.83-44.92,8.06-36.34,11.59-81.86,10.49-135.31a8,8,0,0,0-7.62-7.83Z" style="fill:#fff"/><path d="M157.2,387.77c-6.29,0-12.08-.11-15-.17a5.67,5.67,0,0,1-5.51-5.73l1.6-117.29a4.24,4.24,0,0,1,8.44-.45c5.33,45,15.11,102.23,25.16,115.34a5.08,5.08,0,0,1-3.89,8.17C164.91,387.73,161.26,387.77,157.2,387.77Z" style="fill:#fff"/><path d="M142.56,264.4a.22.22,0,0,1,.23.2c2.15,18.21,12.44,99.67,26,117.3a1.08,1.08,0,0,1-.82,1.74c-3.44.1-7.16.13-10.72.13-6.34,0-12.15-.11-14.88-.17a1.64,1.64,0,0,1-1.6-1.67l1.6-117.3a.23.23,0,0,1,.24-.23m0-8a8.27,8.27,0,0,0-8.24,8.13l-1.6,117.29a9.68,9.68,0,0,0,9.42,9.78c2.9.06,8.7.17,15.06.17,4.1,0,7.78,0,11-.13a9.08,9.08,0,0,0,6.94-14.6c-8.94-11.67-18.67-65.35-24.36-113.38a8.23,8.23,0,0,0-8.17-7.26Z" style="fill:#fff"/><path d="M124.57,387.56a5.77,5.77,0,0,1-5.75-5.65c-.12-7.56-.12-47.2,11.88-85.75a4,4,0,0,1,7.79,1.68c-5.83,47.46-2.6,78.26-1.89,84a5.15,5.15,0,0,1-5.11,5.77Z" style="fill:#fff"/><path d="M134.52,297.35h0m0,0c-5.85,47.61-2.7,78.45-1.89,84.93a1.14,1.14,0,0,1-1.14,1.28h-6.92a1.74,1.74,0,0,1-1.75-1.71c-.14-8.46,0-46.81,11.7-84.5m0-8a8.57,8.57,0,0,0-1.44.13,8,8,0,0,0-3.45,1.55,7.87,7.87,0,0,0-2,2.31,7.65,7.65,0,0,0-.77,1.81c-11.83,38.09-12.18,76.08-12,86.82a9.79,9.79,0,0,0,9.75,9.59h6.92a9.14,9.14,0,0,0,9.08-10.26c-.7-5.6-3.87-35.89,1.86-82.74a8,8,0,0,0-7.32-9.19l-.6,0Zm0,16Z" style="fill:#fff"/><path d="M277.76,413.21a2.83,2.83,0,0,0,3.13-2.1l46-178.13,12.18-47.16a.6.6,0,0,0-1.13-.41L233.7,403.92a2.53,2.53,0,0,0,2,3.6Z" style="fill:#005596"/><path d="M306.57,413.42c7.07-14.69,28.23-60.8,24.11-171.23C318.32,351,300.39,412.8,300.39,412.8Z" style="fill:#005596"/><path d="M306.4,423.76c-.09.32-.2.64-.31,1a22.74,22.74,0,0,1-21.68,15.16h-35.5a22.76,22.76,0,0,1-21.68-15.16c-.1-.32-.21-.64-.31-1a1.54,1.54,0,0,1,1.46-2H305A1.53,1.53,0,0,1,306.4,423.76Z" style="fill:#005596"/><path d="M174.8,392.48a1.22,1.22,0,0,1-.07.17,13.48,13.48,0,0,1-12.57,8.19H137.38a13.51,13.51,0,0,1-12.58-8.19l-.06-.17a1.29,1.29,0,0,1,1.22-1.75h47.62A1.3,1.3,0,0,1,174.8,392.48Z" style="fill:#005596"/><path d="M140.72,381.93l1.6-117.3a.24.24,0,0,1,.47,0c2.15,18.21,12.44,99.67,26,117.3a1.08,1.08,0,0,1-.82,1.74c-9.55.27-21.34.06-25.6,0A1.64,1.64,0,0,1,140.72,381.93Z" style="fill:#005596"/><path d="M132.63,382.28c-.81-6.48-4-37.32,1.89-84.93-11.73,37.69-11.84,76-11.7,84.5a1.75,1.75,0,0,0,1.75,1.71h6.92A1.14,1.14,0,0,0,132.63,382.28Z" style="fill:#005596"/><rect x="298.24" y="366.81" width="7.15" height="10.24" style="fill:#fff"/></g></g></svg>