<svg id="icon" xmlns="http://www.w3.org/2000/svg" viewBox="0 0 512 512"><defs><style>.cls-1{fill:#fff;}.cls-2{fill:#005092;}</style></defs><path class="cls-1" d="M256,487.17A231.17,231.17,0,0,1,92.52,92.54,231.17,231.17,0,1,1,419.44,419.46,229.66,229.66,0,0,1,256,487.17Z"/><path class="cls-2" d="M256,28.33A227.73,227.73,0,0,1,344.6,465.78,227.73,227.73,0,0,1,167.37,46.22,226.18,226.18,0,0,1,256,28.33m0-7C126.38,21.33,21.32,126.4,21.32,256S126.38,490.67,256,490.67,490.65,385.6,490.65,256,385.59,21.33,256,21.33Z"/><path class="cls-1" d="M25.12,267.24c-.05-1-.09-1.92-.11-2.88s-.05-1.61-.07-2.41c-.07-1.73-.09-3.59-.09-5.88A230.34,230.34,0,0,1,37.8,179.59L58.29,170l.72-.34,10.77-5.06,4.2-2,128.2-60.17a103.45,103.45,0,0,1,87.94,0l41,19.25,14.73-7.52a5.43,5.43,0,0,1,5,0l95.4,48.74v1.35h2.66l13.77,7,.06,0,10.45,5.34.54,1.49c.31.86.6,1.7.9,2.56.38,1.11.75,2.22,1.12,3.34.28.84.54,1.66.79,2.47s.58,1.85.85,2.76c.42,1.38.81,2.74,1.2,4.1.17.6.33,1.18.48,1.75.26.93.5,1.85.74,2.76.15.57.28,1.11.42,1.67l.46,1.83q.66,2.76,1.27,5.54c.13.63.27,1.27.39,1.91l0,.11c.09.39.17.77.24,1.15.15.73.28,1.36.39,2,.19.94.34,1.77.49,2.6.1.55.19,1,.27,1.52l0,.23c.27,1.5.5,3,.73,4.48.09.57.17,1.1.24,1.63l.24,1.69c.14,1,.26,1.93.38,2.88l.21,1.75c.05.4.1.77.13,1.15,0,0,.15,1.29.2,1.8h0l.07.63-17.7,1.36-124.2,9.57-4.25.33h-.27L41.75,266.7,25.16,268C25.15,267.73,25.13,267.48,25.12,267.24Z"/><path class="cls-2" d="M246.15,96.14a100.57,100.57,0,0,1,42.48,9.47l39.48,18.53,3.11,1.46,3-1.56,13.21-6.74a1.94,1.94,0,0,1,.88-.22,2,2,0,0,1,.89.22l70.81,36.18,22.68,11.59v2.71h5.31l5.83,3,7.06,3.61.13.07.13.06,9.15,4.67.07.2c.3.83.59,1.66.88,2.5.38,1.09.74,2.18,1.1,3.28v0c.26.79.51,1.59.76,2.39s.57,1.8.85,2.76c.38,1.23.76,2.54,1.18,4.05.16.54.32,1.11.47,1.69.24.89.49,1.8.73,2.73.14.53.27,1.05.4,1.59v.05l0,0,.42,1.72c.45,1.84.87,3.68,1.25,5.43.13.63.27,1.25.39,1.88l0,.1,0,.1c.08.34.15.67.21,1l0,.09v.09q.19.9.36,1.8v.09l0,.08c.15.73.3,1.52.45,2.41v.11c.09.47.17.94.25,1.41l.05.27c.28,1.58.52,3.16.71,4.36v.09c.08.51.16,1,.22,1.49l.25,1.73c.13.93.25,1.86.37,2.79l.2,1.71-6.38.49-7.72.59-124.22,9.57-1.36.11-2.82.21-.27,0h-.09L55.37,262.14l-9.1.7-4.79.37-11.88.91-1.1.08c0-.78-.05-1.56-.07-2.34v-.07c-.06-1.65-.08-3.47-.08-5.72a227.1,227.1,0,0,1,12.27-73.93l16.15-7.58,2.3-1.08h0l1.42-.67,2.69-1.27,5.89-2.76,2.17-1,4.22-2,15.47-7.26,51.34-24.1,61.39-28.81a100.57,100.57,0,0,1,42.48-9.47m0-7A106.87,106.87,0,0,0,200.7,99.28l-61.39,28.81L88,152.19,72.5,159.45l-4.21,2-2.19,1-5.88,2.76-2.7,1.27h0l-3.72,1.75L35,177.05c-.15.39-.29.79-.42,1.19a234.06,234.06,0,0,0-13.22,77.83c0,2,0,4,.09,6,0,.81,0,1.62.07,2.43q0,1.47.12,2.94c.06,1.26.13,2.52.22,3.77l0,.55h0l4.62-.36.76-.06,2.88-.22L42,270.19l4.79-.37,9.1-.7,283.88-21.87.31,0L343,247l1.38-.11,124.2-9.57,7.72-.59,13.53-1c-.09-1.07-.19-2.15-.3-3.21,0,0,0,0,0-.06-.09-.91-.19-1.82-.29-2.73,0-.41-.09-.82-.14-1.22l-.21-1.76q-.18-1.47-.39-2.94l-.24-1.71c-.08-.55-.16-1.1-.25-1.65-.23-1.52-.47-3-.74-4.55-.1-.58-.2-1.17-.31-1.75-.15-.87-.31-1.74-.49-2.62-.12-.67-.25-1.33-.39-2-.08-.44-.17-.87-.27-1.31-.13-.66-.27-1.32-.41-2q-.62-2.82-1.29-5.62c-.15-.62-.3-1.24-.46-1.85s-.28-1.13-.43-1.7c-.24-.93-.49-1.86-.74-2.78-.16-.6-.33-1.21-.5-1.8-.39-1.39-.79-2.77-1.21-4.15-.28-.94-.57-1.87-.86-2.8s-.53-1.68-.81-2.52c-.37-1.14-.75-2.27-1.14-3.4-.3-.87-.6-1.73-.91-2.59s-.68-1.88-1-2.81l-11.72-6-.13-.06-7.06-3.61-7.33-3.75h0l-.88-.44-.64-.33-1.42-.72-23.55-12-70.81-36.18a8.88,8.88,0,0,0-8.15,0l-13.2,6.74L291.61,99.28a106.94,106.94,0,0,0-45.46-10.14Z"/><path class="cls-2" d="M456.72,261a232.08,232.08,0,0,1-13.6,54c-3.64,8.52-6.77,18.15-12.09,25.54a14.11,14.11,0,0,0-3.44.21c-12.7,1.48-58.93,8.92-114.67,17.89l-7.12,1.14-8.7,1.4-27.84,4.48c-37.2,6-75.76,12.1-109.67,17.27l-11.93,1.81-4,.61-5.54.83c-31,4.62-56.27,8.1-70.1,9.37a4.73,4.73,0,0,1-.28-.39c-.78-1-1.54-2.11-2.3-3.17L64.8,391Q61.26,386,58,380.8c-.49-.77-1-1.54-1.45-2.32-1.28-2.1-2.54-4.2-3.74-6.34-.43-.75-.86-1.5-1.28-2.26l-1.22-2.22-1.21-2.26q-4.17-7.93-7.77-16.21-2-4.72-3.89-9.57c-.7-1.83-1.37-3.68-2-5.53q-3.25-9.18-5.73-18.72c0-.17-.09-.35-.14-.53-.5-1.93-1-3.87-1.42-5.82-.19-.81-.37-1.62-.55-2.44q-.09-.34-.15-.69a51510534184.69,51510534184.69,0,0,1,0-.06q-.42-1.95-.81-3.9c-.5-2.56-1-5.13-1.39-7.72-.14-.85-.28-1.7-.41-2.56q-1-6.31-1.58-12.73c0-.25-.05-.51-.07-.76-.06-.63-.11-1.27-.17-1.9-.07-.92-.15-1.84-.21-2.76l-.12-1.76h0c0-.18,0-.36,0-.54-.08-1.26-.16-2.52-.21-3.78q-.08-1.47-.12-2.94c0-.81-.05-1.62-.07-2.43-.07-2-.09-4-.09-6a234.06,234.06,0,0,1,13.22-77.83c.13-.4.27-.8.42-1.19q2.63-7.34,5.71-14.43l.26-.59a120.8,120.8,0,0,1,13.52-.34,73.23,73.23,0,0,1,16,2.72c11.71,3.12,24.24,8.23,33,11.52a85.31,85.31,0,0,0,10.89,2.52c.87.16,1.74.29,2.59.41,4.39.61,8.68.91,13,1.11l3.64.14c12.5.42,25.55.36,42.17,4.44l2.13.53.07,0a74.12,74.12,0,0,0,16.56,2.35c.75,0,1.49,0,2.23,0,1.22,0,2.44,0,3.65-.07.94,0,1.88-.07,2.82-.13,22.42-1.42,45-10.06,74.18-10.29,27.37-1.34,53.06,17.71,72.77,21.37l.23,0c.82.16,1.64.3,2.47.44l3.68.59c.4.06.8.13,1.21.18,5.92.87,12,1.52,18.21,2.07,1.79.17,3.59.33,5.4.46,25.24,2.07,51.81,3.08,75.8,10.72A229.48,229.48,0,0,1,456.72,261Z"/><path class="cls-1" d="M318.29,392.84l-12.53,0c-12.11,0-24.52-.1-37-.17-26-.15-51.8-.34-78.17-.54l-30.68-.23c-23.44-.17-47.53-.33-64.91-.33-15.84,0-22.65.11-25.8.34-.6-.67-1.2-1.39-1.8-2.13A95.44,95.44,0,0,1,60.24,379l-1.83-3.09c-1.09-1.84-2.22-3.75-3.36-5.58-.41-.72-.82-1.43-1.22-2.16L52.61,366l-1.19-2.21c-2.71-5.12-5.28-10.49-7.64-15.95-1.36-3.16-2.65-6.33-3.84-9.43-.67-1.79-1.34-3.62-2-5.44-2.11-6-4-12.2-5.65-18.45,0-.13-.09-.35-.15-.57-.47-1.84-.94-3.75-1.39-5.68-.19-.81-.36-1.6-.54-2.4l0-.1c-.05-.19-.08-.37-.12-.55l-.21-1h0c-.2-1-.41-2-.6-2.95-.27-1.35-.52-2.71-.77-4.08-.16-.89-.31-1.78-.46-2.67l-.16-1c-.13-.8-.26-1.6-.38-2.41-.65-4.19-1.17-8.4-1.56-12.53,0-.28-.05-.47-.06-.66l-.21-2.32c.77-.36,1.52-.71,2.25-1,1-.49,2.06-.93,3.07-1.35a219.88,219.88,0,0,1,30.12-10c1.74-.47,3.48-.91,5.21-1.35l1.31-.33L73,260.23l.44-.1c3.63-.87,7.3-1.71,11-2.55l6.55-1.53,6.27-1.47,3.34-.8,2-.52c6.34-1.57,11.77-3.06,16.61-4.55,2.13-.64,4.11-1.27,6-1.93l1.49-.51a62.75,62.75,0,0,0,8-3.5c5.1-2.62,10.34-5.89,15.88-9.36l1.42-.88,2.64-1.65.79-.49c1.43-.87,2.86-1.74,4.31-2.6l1.11-.67c9-5.27,20.92-11.49,33.76-12.82l.14,0a170.28,170.28,0,0,1,24.87-1.66c6.84,0,13.44.3,19.82.59,5.9.26,11.47.52,17,.54h.75c10.37,0,24.05-.77,37.92-6.77,1.6-.69,3.17-1.34,4.67-1.91l2.07-.79.3-.11c2.82-1,5.61-2,8.56-2.82,1-.31,2.05-.59,3.06-.86,2.06-.55,4.19-1.08,6.53-1.61,1.73-.38,3.45-.73,5.14-1.07,2.73-.55,5.43-1.05,8-1.52l2.8-.52c1.82-.33,3.63-.67,5.44-1.05s3.59-.74,5.28-1.14,3.32-.81,4.89-1.24l.29-.08q1.06-.3,2.13-.63c2.05-.61,4-1.28,6.06-2,2.35-.88,4.75-1.89,7.1-3l.11-.05.1-.06,4.92-2.8,1.82-1c.71-.41,1.44-.83,2.18-1.24l1.73-1c3.23-1.81,6.12-3.39,8.83-4.82,10.92-5.7,19.31-9,25.66-10.21,9.87-1.93,22.7-2.29,34-2.6l.82,0c6.46-.18,13.12-.38,19.51-.77,0,.06.6,1.37.69,1.57l.83,1.9c.86,2,1.54,3.69,2.14,5.23l.28.7.64,1.65.91,2.39c.32.85.63,1.7.94,2.56l.07.21c.31.84.6,1.68.89,2.54.39,1.11.76,2.22,1.13,3.34.27.84.54,1.66.79,2.47.3,1,.58,1.86.85,2.77.42,1.37.81,2.73,1.19,4.09.17.59.34,1.18.49,1.76.25.92.5,1.84.74,2.75.14.57.28,1.11.41,1.66s.3,1.16.43,1.72l0,.12c.44,1.84.87,3.69,1.27,5.54l0,.12c.13.6.25,1.2.37,1.79s.19.87.26,1.26c.15.73.27,1.36.39,2,.19.93.34,1.77.48,2.6.1.51.18,1,.26,1.43l.06.33q.39,2.24.72,4.47c.1.57.17,1.09.25,1.62l.24,1.7c.14,1,.26,1.93.38,2.88l.2,1.67c.06.47.1.85.14,1.23.07.61.13,1.21.2,1.8h0l.08.82v0l0,.14c.11,1,.21,2.09.3,3.14.14,1.66.26,3.32.37,5s.2,3.17.26,4.63c0,.17,0,.26,0,.34v.15c.07,1.63.12,3.27.15,4.91,0,.72,0,1.41,0,2.11,0,.91,0,1.85,0,2.78v.78c0,.86,0,1.73,0,2.59,0,1.72-.07,3.45-.13,5.18,0,1.3-.11,2.59-.17,3.88l0,.41-.07,1.07c-.13,2.29-.3,4.59-.5,6.84,0,0-.11,1.26-.15,1.64-.11,1.19-.24,2.38-.37,3.57l-.1,1c-.15,1.34-.32,2.66-.49,4-.29,2.25-.63,4.54-1.05,7-.27,1.68-.57,3.41-.93,5.29l-.09.48c-.11.57-.22,1.15-.34,1.73a233.21,233.21,0,0,1-13.85,45c-.9,2.14-1.83,4.24-2.75,6.24-.62,1.36-1.25,2.68-1.88,4-.34.7-.67,1.39-1,2.07l-1,2.06c-.33.66-.67,1.32-1,2-1,2-2.12,4-3.31,6.13-.4.72-.8,1.43-1.21,2.13l-.81,1.4c-.64,1.09-1.29,2.18-1.94,3.27l-1.57,2.56c-.67,1.07-1.35,2.13-2,3.18l-.43.67-.83,1.27c-1.53,2.32-2.9,4.32-4.18,6.12l-.85,1.19c-1.59.33-6.67,1-22.8,1.48-17.74.54-44.61.8-82.14.8Z"/><path class="cls-2" d="M465,165.61l.52,1.21c.85,2,1.52,3.62,2.12,5.15l.25.65c.22.55.44,1.1.67,1.7.29.76.58,1.52.86,2.28l0,.05h0c.34.9.67,1.82,1,2.72s.59,1.66.88,2.5c.37,1.09.74,2.18,1.1,3.28v0c.27.79.52,1.59.77,2.39s.56,1.8.85,2.76c.37,1.24.76,2.55,1.18,4.05l.47,1.69q.36,1.33.72,2.73c.14.53.28,1.05.41,1.59v.1c.15.57.29,1.15.43,1.72.44,1.84.87,3.68,1.25,5.46l.39,1.85,0,.1,0,.1c.08.34.15.67.21,1v.09l0,.09c.13.6.25,1.2.35,1.8l0,.09,0,.08c.15.73.29,1.52.45,2.41v.11l.24,1.4.05.28c.22,1.23.44,2.58.71,4.36v.09c.08.51.15,1,.22,1.49l.07.5.17,1.23c.14.93.26,1.86.37,2.79l.22,1.79c0,.33.08.68.12,1v.08c0,.25.05.49.08.73h0l.21,2c.11,1,.2,2,.29,3.07.15,1.88.27,3.44.37,5s.2,3.08.25,4.49v.5c.08,2,.13,3.44.16,4.83v.08c0,.66,0,1.34,0,2,0,.92,0,1.84,0,2.76v.78c0,.85,0,1.7,0,2.52,0,1.61-.06,3.28-.13,5.13,0,1.18-.1,2.43-.17,3.82v.43l0,.5,0,.52c-.13,2.24-.3,4.51-.5,6.74l0,.56c0,.35-.06.71-.09,1.05-.11,1.18-.24,2.35-.37,3.53,0,.17,0,.35,0,.53s0,.28-.05.45c-.15,1.3-.31,2.61-.48,3.89-.29,2.22-.62,4.47-1,6.93-.26,1.64-.56,3.33-.91,5.19l-.07.34c-.11.61-.23,1.22-.35,1.82a229.49,229.49,0,0,1-13.64,44.32c-.89,2.1-1.8,4.16-2.73,6.16-.59,1.32-1.23,2.64-1.86,4-.34.72-.65,1.36-1,2l-.49,1-.54,1.07c-.32.64-.65,1.28-1,2-1,2-2.07,3.92-3.24,6-.39.7-.78,1.39-1.2,2.11-.15.27-.31.53-.46.79l-.34.58c-.63,1.08-1.26,2.15-1.91,3.21l-.16.28-.29.47-.49.81c-.17.27-.34.54-.5.82l-.11.16c-.65,1.05-1.31,2.08-2,3.12l-.24.37-.17.28-.72,1.09-.11.17c-1.53,2.32-2.84,4.23-4.11,6-2.35.31-7.91.8-20.9,1.2-17.72.54-44.56.8-82.07.8H318.31l-6.14,0-6.39,0c-11,0-23.15-.09-37-.17-26-.15-51.81-.34-78.18-.54l-2.82,0-2.78,0-6.74-.05-7.36-.06h-3.27l-7.7-.06C136.5,388.19,112.41,388,95,388c-13.12,0-20.23.05-24.29.23l-.58-.71a96.66,96.66,0,0,1-6.91-10.36l-1.82-3.07c-1.09-1.84-2.21-3.74-3.36-5.58-.39-.68-.78-1.36-1.16-2.05l-.6-1.08-.6-1.1-.59-1.1-.58-1.09c-2.68-5.05-5.21-10.34-7.53-15.71-1.34-3.11-2.61-6.23-3.77-9.26-.74-2-1.38-3.73-2-5.39-2.07-5.88-3.94-12-5.55-18.1-.05-.2-.1-.41-.16-.62-.55-2.19-1-4-1.37-5.62-.18-.78-.36-1.56-.53-2.34l0-.1,0-.1-.09-.45-.42-2h0c-.12-.61-.25-1.22-.37-1.81q-.39-2-.75-4c-.16-.87-.31-1.75-.45-2.63l-.08-.44c0-.13-.05-.26-.07-.4-.13-.82-.27-1.64-.4-2.49-.63-4.12-1.15-8.26-1.53-12.32v-.18c0-.1,0-.2,0-.32h0l.05,0c1-.46,1.95-.88,2.93-1.29A218.32,218.32,0,0,1,62,266.61c1.54-.41,3.22-.85,5.13-1.33l.27-.07,1.07-.27,5.18-1.27.55-.13c3.18-.76,6.56-1.54,11-2.55l2.51-.59,4-.94L98.06,258l1.41-.34,1.94-.47,1.06-.27,1-.24c6.49-1.61,11.83-3.07,16.77-4.59,2.17-.66,4.16-1.3,6.08-2l1.59-.53a68.27,68.27,0,0,0,8.45-3.69c5.23-2.69,10.52-6,16.12-9.5l1.45-.91,1.71-1.06h0l1.69-1c1.49-.92,2.88-1.76,4.25-2.57l0,0h0l1.06-.64c8.66-5.08,20.16-11.09,32.33-12.35h.14l.14,0a166.2,166.2,0,0,1,24.37-1.63c6.76,0,13.32.3,19.66.58,5.94.27,11.54.53,17.19.55h.76c10.71,0,24.85-.8,39.33-7.06,1.54-.68,3.06-1.3,4.51-1.85l1.79-.69.55-.2c2.73-1,5.45-1.9,8.32-2.74.95-.28,1.93-.56,3-.84,2-.54,4.1-1.06,6.36-1.57,1.59-.35,3.25-.69,5.09-1.06,2.71-.54,5.4-1,8-1.52l2.78-.51c1.84-.34,3.65-.67,5.48-1.05s3.7-.76,5.38-1.16,3.43-.84,5.05-1.29H353l.29-.08,2.15-.63c2.14-.65,4.19-1.34,6.26-2.11,2.47-.92,5-2,7.39-3.14l.22-.11.21-.12c1.5-.84,3.13-1.77,4.85-2.75l1.36-.78.55-.31,2.15-1.23,1.72-1c3.2-1.79,6.06-3.36,8.73-4.77,10.62-5.54,18.7-8.77,24.69-9.88h.07c9.56-1.87,22.23-2.22,33.42-2.54l.86,0c5.66-.16,11.47-.33,17.13-.64m4.41-7.28c-7.3.52-15,.73-22.61.95-12.48.35-24.71.74-34.55,2.66-8,1.47-17.6,5.83-26.66,10.56-3.07,1.62-6.07,3.27-8.92,4.87l-1.72,1-2.75,1.57L366,183.42c-2.31,1.1-4.58,2.06-6.83,2.9-2,.74-3.91,1.39-5.85,2-.78.24-1.56.46-2.33.68-1.59.44-3.18.84-4.77,1.21s-3.45.78-5.18,1.12-3.56.7-5.36,1c-3.55.66-7.16,1.3-10.89,2q-2.56.51-5.22,1.09c-2.17.49-4.4,1-6.67,1.64-1,.28-2.08.57-3.14.88-2.83.83-5.75,1.78-8.77,2.89-.8.29-1.61.6-2.42.91h0c-1.57.6-3.18,1.26-4.81,2-12,5.2-24,6.48-36.53,6.48h-.74c-11.61-.05-23.72-1.13-36.87-1.13a174.36,174.36,0,0,0-25.38,1.7c-12.71,1.32-24.39,7-35.15,13.28l-1.14.68q-2.21,1.31-4.36,2.64h0l-3.44,2.14c-6,3.73-11.64,7.33-17,10.1a60.85,60.85,0,0,1-7.56,3.31l-1.49.5q-2.91,1-5.9,1.9c-5.33,1.64-10.83,3.11-16.43,4.5l-2,.51-3.31.8-6.26,1.47-6.54,1.52q-5.49,1.26-11,2.56c-1.94.47-3.89.94-5.83,1.43l-1.32.33q-2.62.66-5.25,1.36A227.36,227.36,0,0,0,29.63,270c-1.05.44-2.09.9-3.13,1.38q-2.27,1-4.5,2.12c.06.92.14,1.84.21,2.76.06.63.11,1.27.17,1.9,0,.25,0,.51.07.76q.6,6.38,1.58,12.73c.13.86.27,1.71.41,2.56l.15.85c.15.91.31,1.82.47,2.72.25,1.39.5,2.77.77,4.15s.53,2.6.81,3.9a0,0,0,0,0,0,0c.05.24.1.48.16.72.18.82.36,1.63.55,2.44.45,2,.93,3.89,1.42,5.82,0,.18.1.36.14.53q2.49,9.5,5.73,18.72c.65,1.85,1.33,3.7,2,5.53q1.84,4.85,3.89,9.57,3.59,8.3,7.77,16.21l1.21,2.26,1.22,2.22c.42.76.85,1.51,1.28,2.26,1.74,2.79,3.43,5.73,5.19,8.66a99.22,99.22,0,0,0,7.44,11.12c1,1.27,2.07,2.49,3.18,3.63h0c.63-.38,10.68-.52,27.13-.52s38.93.14,64.88.33l7.69.06,3.26,0,14.11.11,5.62,0c25,.19,51.73.39,78.18.54,12.47.07,24.88.13,37,.17l12.54,0h20.78c33.54,0,62.83-.21,82.28-.8,14.47-.45,23.52-1.1,24.88-2,.12-.08.18-.16.18-.25l1.33-1.85c1.46-2.05,2.87-4.13,4.25-6.22l.84-1.28c.15-.23.3-.46.44-.69.69-1.07,1.38-2.14,2.05-3.22a1.63,1.63,0,0,0,.11-.17l1-1.68.46-.76c.67-1.1,1.32-2.21,2-3.32.27-.47.55-.93.81-1.39.42-.72.83-1.45,1.24-2.18,1.16-2.06,2.28-4.13,3.36-6.23.35-.67.7-1.35,1-2l1-2c.36-.71.71-1.43,1.05-2.15.64-1.34,1.28-2.68,1.9-4q1.46-3.15,2.8-6.34A236.54,236.54,0,0,0,486.18,302c.15-.75.29-1.5.43-2.24q.51-2.67.95-5.37.6-3.57,1.07-7.15c.17-1.33.34-2.67.49-4,0-.33.07-.66.11-1,.13-1.21.26-2.42.38-3.63.05-.55.1-1.11.14-1.66.21-2.32.38-4.63.52-6.95,0-.36.05-.71.06-1.07,0-.14,0-.28,0-.43.07-1.31.13-2.62.18-3.94.06-1.75.11-3.5.13-5.26,0-.87,0-1.75,0-2.63v-.78c0-.94,0-1.89,0-2.83,0-.71,0-1.42,0-2.12,0-1.67-.09-3.34-.16-5,0-.15,0-.31,0-.47-.06-1.58-.15-3.15-.26-4.72s-.24-3.37-.38-5.05c-.09-1.07-.19-2.15-.3-3.21,0,0,0,0,0-.06-.09-.91-.19-1.82-.29-2.73,0-.41-.09-.82-.14-1.22l-.21-1.76q-.18-1.47-.39-2.94l-.24-1.71c-.08-.55-.16-1.1-.25-1.65-.23-1.52-.47-3-.74-4.55-.1-.58-.2-1.17-.31-1.75-.15-.87-.31-1.74-.49-2.62-.12-.67-.25-1.33-.39-2-.08-.44-.17-.87-.27-1.31-.13-.66-.27-1.32-.41-2q-.62-2.82-1.29-5.62c-.15-.62-.3-1.24-.46-1.85s-.28-1.13-.43-1.7c-.24-.93-.49-1.86-.74-2.78-.16-.6-.33-1.21-.5-1.8-.39-1.39-.79-2.77-1.21-4.15-.28-.94-.57-1.87-.86-2.8s-.53-1.68-.81-2.52c-.37-1.14-.75-2.27-1.14-3.4-.3-.87-.6-1.73-.91-2.59s-.68-1.88-1-2.81-.6-1.6-.91-2.4-.62-1.59-.93-2.38c-.7-1.79-1.44-3.57-2.19-5.33-.27-.63-.54-1.26-.82-1.89-.14-.33-.29-.66-.44-1s-.42-.95-.64-1.43l0,0c-.2-.47-.42-.93-.63-1.4Z"/><path class="cls-1" d="M300.46,438.57a7.22,7.22,0,0,1-.92-.06l-42.11-5.69a6.54,6.54,0,0,1-5-9.29L356.67,205a4.56,4.56,0,0,1,4.14-2.63,4.65,4.65,0,0,1,3.67,1.8,4.56,4.56,0,0,1,.8,4l-58.2,225.29a6.84,6.84,0,0,1-6.62,5.13Z"/><path class="cls-1" d="M360.81,206.39a.6.6,0,0,1,.6.76l-12.18,47.16-46,178.13a2.84,2.84,0,0,1-2.75,2.13l-.38,0L258,428.85a2.53,2.53,0,0,1-2-3.6L360.28,206.74a.58.58,0,0,1,.53-.35m0-8a8.52,8.52,0,0,0-7.75,4.9L248.8,421.81a10.53,10.53,0,0,0,8.1,15L299,442.47a10.1,10.1,0,0,0,1.45.1,10.84,10.84,0,0,0,10.5-8.13l46-178.13,12.19-47.16a8.52,8.52,0,0,0-1.52-7.41,8.67,8.67,0,0,0-6.83-3.35Z"/><path class="cls-1" d="M325.18,452.11a4,4,0,0,1-3.46-2c0-.05-.05-.09-.07-.13l-1.61-.16a4,4,0,0,1-3.44-5.09c.18-.65,18.89-66,31.69-178.59a4,4,0,0,1,4-3.55h.19a4,4,0,0,1,3.81,3.91c2.27,110.53-16,160.93-25.39,179.3a4,4,0,0,1-1.2,3.6c-.33.3-.6.57-.83.78C327.78,451.24,326.86,452.11,325.18,452.11Z"/><path class="cls-1" d="M352.26,266.62C354.83,391.55,331,437.53,326,446.43l-5.6-.56s18.83-64.94,31.82-179.25M326,446.43l.89.09a15.38,15.38,0,0,1-1.75,1.59c-.1,0,.22-.53.86-1.68m26.22-187.81a8,8,0,0,0-7.95,7.1C331.55,378.05,312.94,443,312.75,443.64a8,8,0,0,0,6.82,10.18,8,8,0,0,0,5.61,2.29,8.84,8.84,0,0,0,6.42-3l.8-.77a7.94,7.94,0,0,0,2.53-5.66c7.18-14.38,12-32.12,14.83-44.92,8.07-36.33,11.6-81.86,10.5-135.31a8,8,0,0,0-7.63-7.83Z"/><path class="cls-1" d="M178.52,409.11c-6.3,0-12.08-.11-15-.18a5.67,5.67,0,0,1-5.52-5.72l1.61-117.3a4.24,4.24,0,0,1,8.44-.45c5.32,45,15.11,102.24,25.15,115.34a5.08,5.08,0,0,1-3.88,8.17C186.22,409.06,182.58,409.11,178.52,409.11Z"/><path class="cls-1" d="M163.87,285.73a.22.22,0,0,1,.23.2c2.16,18.22,12.45,99.68,26,117.31a1.07,1.07,0,0,1-.83,1.73c-3.43.1-7.16.14-10.72.14-6.33,0-12.15-.11-14.87-.18a1.64,1.64,0,0,1-1.61-1.67L163.64,286a.23.23,0,0,1,.23-.24m0-8a8.27,8.27,0,0,0-8.23,8.13L154,403.15a9.68,9.68,0,0,0,9.43,9.78c2.89.07,8.7.18,15,.18,4.1,0,7.79-.05,11-.14a9.08,9.08,0,0,0,6.95-14.6C187.47,386.71,177.73,333,172.05,285a8.24,8.24,0,0,0-8.18-7.26Z"/><path class="cls-1" d="M145.89,408.89a5.77,5.77,0,0,1-5.75-5.65C140,395.69,140,356.05,152,317.5a4,4,0,0,1,3.81-2.81,3.56,3.56,0,0,1,.85.09,4,4,0,0,1,3.13,4.39c-5.83,47.45-2.6,78.26-1.89,83.95a5.15,5.15,0,0,1-5.11,5.77Z"/><path class="cls-1" d="M155.84,318.69h0m0,0c-5.85,47.6-2.7,78.44-1.89,84.93a1.14,1.14,0,0,1-1.14,1.27h-6.92a1.73,1.73,0,0,1-1.75-1.71c-.14-8.46,0-46.81,11.7-84.49m0-8a7.74,7.74,0,0,0-1.45.13,7.95,7.95,0,0,0-5.46,3.85,8,8,0,0,0-.78,1.82c-11.82,38.09-12.18,76.07-12,86.82a9.79,9.79,0,0,0,9.75,9.58h6.92a9.13,9.13,0,0,0,9.07-10.26c-.69-5.6-3.86-35.88,1.87-82.73a8.11,8.11,0,0,0,.09-1.21,8,8,0,0,0-7.4-8c-.21,0-.41,0-.61,0Zm0,16Z"/><path class="cls-2" d="M299.08,434.55a2.85,2.85,0,0,0,3.13-2.11l46-178.13,12.18-47.16a.6.6,0,0,0-1.13-.41L255,425.25a2.53,2.53,0,0,0,2,3.6Z"/><path class="cls-2" d="M327.89,434.75C335,420.06,356.12,374,352,263.52c-12.36,108.8-30.29,170.62-30.29,170.62Z"/><path class="cls-2" d="M327.72,445.09c-.1.32-.2.65-.31,1a22.77,22.77,0,0,1-21.68,15.16h-35.5a22.77,22.77,0,0,1-21.68-15.16c-.11-.32-.21-.65-.31-1a1.53,1.53,0,0,1,1.46-2h76.56A1.53,1.53,0,0,1,327.72,445.09Z"/><path class="cls-2" d="M196.12,413.81c0,.06-.05.12-.07.17a13.5,13.5,0,0,1-12.58,8.19H158.7A13.5,13.5,0,0,1,146.12,414c0-.05-.05-.11-.07-.17a1.29,1.29,0,0,1,1.22-1.74H194.9A1.29,1.29,0,0,1,196.12,413.81Z"/><path class="cls-2" d="M162,403.26,163.64,286a.23.23,0,0,1,.46,0c2.16,18.22,12.45,99.68,26,117.31a1.07,1.07,0,0,1-.83,1.73c-9.54.28-21.33.06-25.59,0A1.64,1.64,0,0,1,162,403.26Z"/><path class="cls-2" d="M154,403.62c-.81-6.49-4-37.33,1.89-84.93-11.74,37.68-11.84,76-11.7,84.49a1.73,1.73,0,0,0,1.75,1.71h6.92A1.14,1.14,0,0,0,154,403.62Z"/><rect class="cls-1" x="319.55" y="388.14" width="7.15" height="10.24"/></svg>