<svg id="icon" xmlns="http://www.w3.org/2000/svg" viewBox="0 0 512 512"><defs><style>.cls-1,.cls-3,.cls-4,.cls-5{fill:#fff;}.cls-2{fill:#005092;}.cls-3,.cls-4,.cls-5{stroke:#005092;stroke-linecap:round;stroke-linejoin:round;}.cls-3{stroke-width:5.12px;}.cls-4{stroke-width:4.87px;}.cls-5{stroke-width:4.09px;}</style></defs><path class="cls-1" d="M255.6,487.17A231.17,231.17,0,0,1,92.15,92.54,231.16,231.16,0,1,1,419.06,419.46,229.66,229.66,0,0,1,255.6,487.17Z"/><path class="cls-2" d="M255.6,28.33a227.73,227.73,0,0,1,88.62,437.45A227.73,227.73,0,0,1,167,46.22,226.22,226.22,0,0,1,255.6,28.33m0-7C126,21.33,20.94,126.4,20.94,256S126,490.67,255.6,490.67,490.27,385.6,490.27,256,385.21,21.33,255.6,21.33Z"/><path class="cls-1" d="M24.75,267.24c-.05-1-.09-1.92-.12-2.88,0-.75-.05-1.48-.07-2.21V262c-.06-1.74-.09-3.6-.09-5.88a230.6,230.6,0,0,1,13-76.48l32-15,4.2-2,128.21-60.17a103.42,103.42,0,0,1,87.93,0l41,19.25,14.73-7.52a5.53,5.53,0,0,1,2.48-.6,5.47,5.47,0,0,1,2.48.6l95.4,48.74v1.35h2.66l24.28,12.41c.18.49.36,1,.53,1.47.32.88.62,1.72.91,2.58.38,1.11.76,2.22,1.12,3.34.28.84.54,1.66.8,2.47s.57,1.85.84,2.77c.42,1.37.82,2.73,1.2,4.09.17.59.33,1.18.49,1.76.25.92.49,1.83.73,2.75.15.57.29,1.11.42,1.67s.31,1.23.46,1.83c.44,1.84.87,3.69,1.27,5.54.13.63.27,1.27.39,1.91l0,.11c.09.39.17.77.24,1.15.15.73.27,1.36.38,2,.19.93.35,1.77.49,2.6.1.51.18,1,.25,1.43l.06.33c.27,1.49.5,3,.73,4.47.09.57.17,1.09.24,1.62l.24,1.7c.14,1,.27,1.92.38,2.88l.21,1.75c.05.4.1.77.14,1.15,0,0,.14,1.29.19,1.8v0l.06.62-17.7,1.36-124.2,9.57-4.25.33h-.27L41.37,266.7,24.78,268Z"/><path class="cls-2" d="M245.77,96.14a100.57,100.57,0,0,1,42.48,9.47l39.48,18.53,3.11,1.46,3.05-1.56,13.21-6.74a1.94,1.94,0,0,1,.88-.22,2,2,0,0,1,.89.22l70.81,36.18,22.69,11.59v2.71h5.31l5.83,3,7.06,3.61.13.07.13.06,9.15,4.67.07.2c.3.83.59,1.66.88,2.5.38,1.09.74,2.18,1.1,3.28v0c.26.79.52,1.59.77,2.39s.56,1.8.84,2.76c.38,1.24.76,2.55,1.17,4v.05c.16.54.32,1.11.47,1.69.25.89.49,1.8.73,2.73.14.53.27,1.05.4,1.59v.05l0,0c.15.57.29,1.15.42,1.72.45,1.84.87,3.68,1.25,5.43.13.63.27,1.25.39,1.88l0,.1,0,.1c.08.34.15.67.21,1l0,.09,0,.09c.12.6.24,1.2.35,1.8v.09l0,.08c.15.73.3,1.52.45,2.41v.11c.09.47.17.94.25,1.41l.05.27c.28,1.58.53,3.16.71,4.36v.09c.08.51.16,1,.23,1.49l.14,1,.1.72c.13.93.26,1.86.37,2.79l.2,1.71-6.37.49-7.73.59-124.22,9.57-1.36.11-2.82.21-.27,0h-.09L55,262.14l-9.1.7-4.79.37-11.87.91-1.11.08-.06-2.33v-.08c-.05-1.65-.08-3.47-.08-5.72a227.1,227.1,0,0,1,12.27-73.93l16.15-7.58,2.3-1.08h0l1.42-.67,2.69-1.27,5.89-2.76,2.18-1,4.21-2,15.47-7.26,51.34-24.1,61.39-28.81a100.6,100.6,0,0,1,42.48-9.47m0-7a106.87,106.87,0,0,0-45.45,10.14l-61.39,28.81-51.34,24.1-15.47,7.26-4.21,2-2.19,1-5.88,2.76-2.7,1.27h0l-3.72,1.75-18.8,8.82c-.15.39-.29.79-.42,1.19A234.06,234.06,0,0,0,21,256.07c0,2,0,4,.09,6,0,.81,0,1.62.07,2.43q0,1.47.12,2.94c.06,1.26.13,2.52.22,3.77l0,.55h0l4.62-.36.76-.06,2.88-.22,11.88-.91,4.79-.37,9.1-.7,283.88-21.87.31,0,2.87-.22,1.38-.11,124.2-9.57,7.72-.59,13.53-1c-.09-1.07-.19-2.15-.3-3.21,0,0,0,0,0-.06-.09-.91-.19-1.82-.29-2.73,0-.41-.09-.82-.14-1.22l-.21-1.76q-.18-1.47-.39-2.94l-.24-1.71c-.08-.55-.16-1.1-.25-1.65-.23-1.52-.47-3-.74-4.55-.1-.58-.2-1.17-.31-1.75-.15-.87-.31-1.74-.49-2.62-.12-.67-.25-1.33-.39-2-.08-.44-.17-.87-.27-1.31-.13-.66-.27-1.32-.41-2q-.62-2.82-1.29-5.62c-.15-.62-.3-1.24-.46-1.85s-.28-1.13-.43-1.7c-.24-.93-.49-1.86-.74-2.78-.16-.6-.33-1.21-.5-1.8-.39-1.39-.79-2.77-1.21-4.15-.28-.94-.57-1.87-.86-2.8s-.53-1.68-.81-2.52c-.37-1.14-.75-2.27-1.14-3.4-.3-.87-.6-1.73-.91-2.59s-.68-1.88-1-2.81l-11.72-6-.13-.06-7.06-3.61-7.33-3.75h0l-.88-.44-.64-.33-1.42-.72-23.55-12-70.81-36.18a8.88,8.88,0,0,0-8.15,0l-13.2,6.74L291.23,99.28a106.94,106.94,0,0,0-45.46-10.14Z"/><path class="cls-1" d="M67.6,389.46l-.35-.48c-2.3-3.26-4.55-6.66-6.67-10-.5-.78-1-1.53-1.44-2.3-1.11-1.83-2.43-4-3.67-6.21l-.09-.16c-.39-.69-.79-1.39-1.17-2.09L53,366l-1.18-2.21c-2.78-5.29-5.35-10.66-7.65-15.95-1.36-3.15-2.64-6.32-3.83-9.43-.63-1.64-1.28-3.42-2-5.44-2.12-6-4-12.18-5.64-18.44,0-.13-.09-.36-.15-.58-.54-2.08-1-4-1.38-5.66-.2-.83-.37-1.62-.55-2.43l-.08-.32v-1.14l-.31-.29c-.19-.95-.39-1.89-.58-2.83-.53-2.74-1-5.23-1.36-7.59-.14-.85-.28-1.68-.41-2.53-.63-4.18-1.16-8.39-1.55-12.54,0-.25-.05-.43-.06-.61l-.18-2-.07-.84c-.05-.61-.1-1.21-.14-1.82l-.11-1.65v-.07l0-.2c0-.12,0-.24,0-.35-.08-1.27-.16-2.5-.21-3.73-.05-1-.09-1.95-.12-2.91s-.05-1.61-.07-2.41c-.06-1.74-.09-3.6-.09-5.88a230.4,230.4,0,0,1,13-76.67c.14-.42.26-.76.39-1.09,1.59-4.44,3.28-8.77,5.06-12.93,2.81-.18,5.33-.26,7.65-.26,1.17,0,2.3,0,3.37.06A69.83,69.83,0,0,1,70,167.79c9.5,2.53,19.62,6.42,27.76,9.55,1.71.66,3.34,1.29,4.86,1.86l.11,0,.11,0a87.38,87.38,0,0,0,11.33,2.62c.86.16,1.77.3,2.67.42,3.92.55,8,.9,13.33,1.14l3.69.15,4.14.12c11.24.33,22.87.67,37.31,4.22l1.76.43,0,0,.36.09A77.08,77.08,0,0,0,194.74,191c.81,0,1.58,0,2.34,0h.59c1.12,0,2.21,0,3.24-.08s1.88-.07,2.87-.13c9.75-.62,19.4-2.54,29.61-4.58,13.72-2.74,27.91-5.57,44.37-5.7h.14q1.29-.06,2.61-.06c15.31,0,30.53,6.56,43.95,12.35,9,3.88,17.52,7.55,25.33,9l.37.07c.82.16,1.63.3,2.46.44l3.73.6.37.05.95.14c5.29.78,11.14,1.44,18.32,2.08,1.8.17,3.62.34,5.46.47,3.64.3,7.35.58,11.07.86,20.74,1.56,42.16,3.17,61.68,9a230.17,230.17,0,0,1-14.7,98.09c-.87,2-1.72,4.15-2.54,6.2-2.39,6-4.86,12.13-8.17,17.19-.49,0-1.13.1-2,.2C414,338.69,369,345.93,312.07,355.1l-43.74,7c-31.88,5.12-73.15,11.7-109.65,17.27l-15.93,2.42-1.88.28-3.67.55c-32.72,4.87-55,7.87-67.92,9.15Z"/><path class="cls-2" d="M51.35,168.62c1.12,0,2.21,0,3.23.06h.06a66.49,66.49,0,0,1,14.41,2.49c9.32,2.49,19.34,6.34,27.4,9.44l4.88,1.87.22.08.23.07a90.34,90.34,0,0,0,11.71,2.71c1,.19,2,.33,2.83.45,4,.56,8.22.92,13.67,1.17l3.7.14,4.16.13c11.06.32,22.49.66,36.59,4.12l1.35.33h0l.71.19a80.49,80.49,0,0,0,18.11,2.57h.07c.79,0,1.57,0,2.35,0h.62c1.14,0,2.25,0,3.31-.08.89,0,1.82-.06,3-.14,10-.63,19.75-2.58,30.08-4.64,13.56-2.71,27.59-5.51,43.72-5.63h.28c.8,0,1.62-.06,2.44-.06,14.59,0,28.81,6.13,42.56,12.06,9.18,4,17.85,7.7,26,9.24l.47.08c.85.17,1.68.31,2.49.44,1.23.21,2.5.41,3.79.61l.33,0,1,.14c5.42.8,11.31,1.47,18.49,2.11,2.19.2,3.9.35,5.53.47,3.68.3,7.44.58,11.08.86,19.73,1.48,40.07,3,58.61,8.2a226.56,226.56,0,0,1-14.6,94.09c-.88,2-1.73,4.17-2.55,6.21a108,108,0,0,1-7,15.19l-.33,0c-12.84,1.5-57.87,8.75-114.87,17.92l-.1,0-7.11,1.14-4.92.79-3.79.61-5.08.81-22.76,3.67c-31.89,5.11-73.17,11.7-109.6,17.26L151.23,377l-5,.76-3,.45-1,.15-1.82.27-3.72.56c-31,4.63-52.65,7.56-65.76,8.94l-.22-.31-.28-.39-.3-.42c-2.3-3.26-4.51-6.59-6.62-10-.47-.74-.94-1.48-1.38-2.21-1.11-1.82-2.41-4-3.61-6.12l0,0,0,0c-.41-.72-.82-1.44-1.23-2.18l-.59-1.07-.6-1.1-.59-1.1-.57-1.07c-2.75-5.23-5.29-10.53-7.54-15.73-1.34-3.11-2.61-6.23-3.78-9.29-.61-1.61-1.25-3.36-2-5.37-2.08-5.86-3.94-11.94-5.54-18.08-.05-.21-.11-.43-.17-.64-.53-2.06-1-3.87-1.35-5.55v-.06c-.18-.77-.36-1.55-.53-2.33V303l-.58-.58c-.13-.61-.25-1.21-.37-1.8-.53-2.73-1-5.19-1.35-7.52-.14-.82-.27-1.64-.4-2.47-.63-4.13-1.14-8.29-1.53-12.35v-.17c0-.14,0-.29,0-.48v-.11c0-.29-.05-.59-.08-.89s0-.63-.08-1l-.07-.87c-.05-.58-.1-1.16-.13-1.77l-.11-1.48v-.16l-.05-.38c0-.07,0-.13,0-.19v-.07c-.08-1.25-.16-2.43-.2-3.6v-.08c0-.93-.08-1.86-.11-2.84,0-.78-.05-1.56-.07-2.34v-.08c-.06-1.65-.09-3.47-.09-5.72a226.92,226.92,0,0,1,12.83-75.51l0-.08,0-.08c.1-.3.2-.59.3-.84l0-.08,0-.07c1.29-3.61,2.67-7.18,4.12-10.66,1.89-.09,3.63-.13,5.27-.13m0-7c-3.17,0-6.53.15-10,.41l-.26.59q-3.09,7.09-5.71,14.43c-.15.39-.29.79-.42,1.19a234.06,234.06,0,0,0-13.22,77.83c0,2,0,4,.09,6,0,.81,0,1.62.07,2.43q0,1.47.12,2.94c0,1.26.13,2.52.21,3.78,0,.18,0,.36,0,.54h0l.12,1.76c.06.92.14,1.84.21,2.76.06.63.11,1.27.17,1.9,0,.25,0,.51.07.76q.62,6.42,1.58,12.73c.13.86.27,1.71.41,2.56.42,2.59.89,5.16,1.39,7.72q.39,1.95.81,3.9a68680712249.14,68680712249.14,0,0,0,0,.06q.06.35.15.69c.18.82.36,1.63.55,2.44.44,2,.92,3.89,1.42,5.82.05.18.1.36.14.53q2.47,9.53,5.73,18.72c.65,1.85,1.32,3.7,2,5.53q1.85,4.85,3.89,9.57,3.59,8.28,7.77,16.21l1.21,2.26,1.22,2.22c.42.76.85,1.51,1.28,2.26,1.2,2.14,2.46,4.24,3.74,6.34.48.78,1,1.55,1.45,2.32Q60.88,386,64.42,391l.63.88c.76,1.06,1.52,2.12,2.3,3.17a4.73,4.73,0,0,0,.28.39c13.83-1.27,39.09-4.75,70.1-9.37l5.54-.83,4-.61,11.93-1.81c33.91-5.17,72.47-11.3,109.67-17.27l27.84-4.48,8.7-1.4,7.12-1.14c55.74-9,102-16.41,114.67-17.89,1.49-.17,2.52-.26,3.05-.26.22,0,.35,0,.39.05,5.32-7.39,8.45-17,12.09-25.54a232.08,232.08,0,0,0,13.6-54,229.48,229.48,0,0,0,1.16-48.09c-24-7.64-50.56-8.65-75.8-10.72-1.81-.13-3.61-.29-5.4-.46-6.19-.55-12.29-1.2-18.21-2.07-.41,0-.81-.12-1.21-.18l-3.68-.59c-.83-.14-1.65-.28-2.47-.44l-.23,0c-19-3.54-43.66-21.44-70-21.44-.93,0-1.85,0-2.78.07-29.2.23-51.76,8.87-74.18,10.29-.94.06-1.88.11-2.82.13s-2,.07-3.06.07h-.59c-.74,0-1.48,0-2.23,0a74.12,74.12,0,0,1-16.56-2.35l-.07,0-2.13-.53c-16.62-4.08-29.67-4-42.17-4.44l-3.64-.14c-4.32-.2-8.61-.5-13-1.11-.85-.12-1.72-.25-2.59-.41a85.31,85.31,0,0,1-10.89-2.52c-8.71-3.29-21.24-8.4-32.95-11.52a73.23,73.23,0,0,0-16-2.72c-1.14-.05-2.31-.07-3.51-.07Z"/><path class="cls-1" d="M317.92,392.84l-12.54,0c-12.11,0-24.52-.1-37-.17-26-.15-51.81-.34-78.18-.54l-30.68-.23c-23.44-.17-47.53-.33-64.91-.33-15.84,0-22.65.11-25.8.34-.6-.67-1.2-1.39-1.79-2.13A97.42,97.42,0,0,1,59.86,379c-.63-1.05-1.24-2.09-1.85-3.12-1.09-1.84-2.21-3.73-3.34-5.55l0-.07c-.4-.69-.79-1.39-1.18-2.09L52.23,366,51,363.75c-2.71-5.12-5.28-10.49-7.64-15.95-1.36-3.14-2.65-6.32-3.83-9.43-.76-2-1.41-3.79-2-5.44-2.11-6-4-12.2-5.65-18.45,0-.13-.09-.35-.15-.57-.47-1.84-.94-3.75-1.38-5.68-.19-.81-.37-1.6-.54-2.4l0-.11c0-.19-.09-.38-.13-.57l-.2-1h0c-.21-1-.41-1.95-.6-2.93-.27-1.35-.52-2.71-.77-4.08q-.24-1.34-.45-2.67l-.15-.84c-.14-.85-.28-1.68-.4-2.53-.65-4.18-1.17-8.4-1.56-12.53,0-.26,0-.44-.06-.62l-.2-2.36c.76-.36,1.51-.71,2.25-1,1-.49,2.05-.93,3.06-1.35a220.34,220.34,0,0,1,30.12-10c1.75-.47,3.48-.91,5.21-1.35l1.32-.33,5.37-1.32.43-.1c3.64-.87,7.3-1.71,11-2.55l6.56-1.53,6.26-1.47,3.34-.8,2.06-.52c6.33-1.57,11.77-3.06,16.6-4.55,2.14-.64,4.11-1.28,6-1.93l1.49-.51a62.75,62.75,0,0,0,8-3.5c5.11-2.62,10.34-5.89,15.88-9.36l1.42-.88c.88-.56,1.77-1.11,2.67-1.66l.77-.47q2.13-1.32,4.3-2.61l1.11-.67c9-5.27,20.92-11.49,33.76-12.82l.14,0a170.28,170.28,0,0,1,24.87-1.66c6.84,0,13.44.3,19.83.59,5.89.26,11.46.52,17,.54h.75c10.37,0,24.05-.77,37.92-6.77,1.6-.7,3.17-1.34,4.68-1.91l2.12-.82.24-.08c2.82-1,5.62-2,8.56-2.82,1-.31,2.05-.59,3.06-.86,2.06-.55,4.2-1.08,6.54-1.61,1.73-.38,3.44-.73,5.13-1.07,2.73-.55,5.43-1.05,8-1.52l2.81-.52c1.81-.33,3.62-.67,5.43-1.05s3.59-.74,5.28-1.14,3.32-.81,4.89-1.24l.3-.08,2.12-.63c2.06-.61,4.05-1.28,6.06-2,2.36-.88,4.75-1.89,7.1-3l.11-.05.1-.06c1.53-.86,3.18-1.8,4.92-2.8l1.82-1c.71-.41,1.44-.83,2.18-1.24l1.74-1c3.22-1.81,6.12-3.39,8.82-4.82,10.92-5.7,19.32-9,25.66-10.21,9.87-1.93,22.7-2.29,34-2.6l.82,0c6.46-.18,13.12-.38,19.51-.77l.39.89c.11.23.21.46.3.68.3.68.57,1.29.83,1.9.86,2,1.54,3.69,2.15,5.23l.27.7c.22.55.44,1.1.64,1.65.32.81.61,1.6.91,2.39s.63,1.7.94,2.56l.08.21c.3.84.59,1.68.89,2.54.38,1.11.75,2.22,1.12,3.34.28.84.54,1.66.79,2.47.3,1,.58,1.86.85,2.77.42,1.37.81,2.73,1.2,4.09.17.59.33,1.18.48,1.76.25.92.5,1.84.74,2.75.15.57.28,1.11.42,1.66s.29,1.16.42,1.72l0,.12c.45,1.84.87,3.69,1.28,5.54l0,.12c.13.6.25,1.2.37,1.79s.19.87.26,1.26c.15.73.28,1.36.39,2,.19.93.34,1.77.49,2.6l.25,1.43.06.33c.26,1.49.5,3,.73,4.47.09.57.16,1.09.24,1.62l.24,1.7c.14,1,.27,1.93.38,2.88l.2,1.67c.06.47.11.85.14,1.23.07.61.14,1.21.2,1.8h0l.09.82v.18c.11,1,.21,2.09.3,3.14.14,1.66.27,3.32.37,5s.2,3.17.26,4.63c0,.17,0,.26,0,.34v.15c.07,1.63.13,3.27.16,4.91,0,.72,0,1.41,0,2.11,0,.91,0,1.85,0,2.78v.78c0,.86,0,1.73,0,2.59,0,1.72-.08,3.45-.14,5.18,0,1.3-.1,2.59-.17,3.88l0,.41-.07,1.07c-.13,2.29-.3,4.59-.5,6.84,0,0-.11,1.26-.14,1.64-.12,1.19-.25,2.38-.38,3.57l-.1,1c-.15,1.34-.32,2.66-.49,4-.29,2.25-.63,4.54-1,7-.27,1.68-.57,3.41-.93,5.29l-.09.48c-.11.57-.22,1.15-.34,1.73a233.21,233.21,0,0,1-13.85,45c-.9,2.14-1.83,4.24-2.75,6.24-.62,1.36-1.25,2.68-1.88,4-.34.7-.67,1.39-1,2.07l-1,2.06c-.33.66-.66,1.32-1,2-1,2-2.14,4.06-3.3,6.13-.41.72-.81,1.43-1.22,2.13l-.81,1.39c-.64,1.1-1.28,2.19-1.94,3.28L452,378.14c-.67,1.07-1.34,2.13-2,3.18l-.43.67-.84,1.27c-1.53,2.32-2.9,4.32-4.18,6.12-.28.4-.56.8-.85,1.19-1.59.33-6.67,1-22.79,1.48-17.75.54-44.62.8-82.15.8Z"/><path class="cls-2" d="M464.63,165.61c.17.41.35.81.52,1.21.84,2,1.51,3.62,2.11,5.14l.26.67c.22.54.43,1.1.66,1.69.29.75.58,1.51.86,2.26l0,.07c.34.9.67,1.82,1,2.72s.59,1.66.88,2.5c.37,1.09.74,2.18,1.1,3.28v0c.26.79.51,1.59.76,2.39s.57,1.81.85,2.76c.38,1.24.76,2.55,1.18,4.05.16.54.31,1.11.47,1.69.24.89.49,1.8.73,2.73.14.53.27,1.06.4,1.59v.05l0,0,.42,1.72c.44,1.84.87,3.68,1.25,5.43l.39,1.88,0,.1,0,.1c.08.34.15.67.21,1l0,.09v.09q.19.9.36,1.8v.09l0,.08c.15.73.29,1.52.45,2.41v.11c.09.47.17.94.25,1.41l.05.27c.28,1.58.52,3.16.7,4.36v.09c.08.51.15,1,.22,1.49l.25,1.73c.13.93.25,1.86.37,2.79l.21,1.79c0,.33.09.68.12,1v.08c0,.24.05.48.08.72h0l.21,2c.11,1,.2,2,.29,3.07.16,1.88.27,3.44.37,5s.2,3.09.25,4.49v.5c.08,1.94.13,3.43.16,4.83v.08c0,.66,0,1.34,0,2,0,.92,0,1.84,0,2.76v.78c0,.85,0,1.7,0,2.52,0,1.6-.07,3.28-.14,5.13,0,1.18-.09,2.43-.17,3.82v.43a4.19,4.19,0,0,1,0,.5l0,.52c-.13,2.24-.3,4.51-.5,6.74l0,.57-.09,1c-.11,1.18-.24,2.35-.37,3.53,0,.17,0,.35-.05.53s0,.28,0,.45c-.15,1.3-.31,2.61-.48,3.89-.28,2.22-.62,4.47-1,6.93-.27,1.64-.57,3.33-.92,5.19l-.07.35c-.11.6-.23,1.21-.35,1.81a229.49,229.49,0,0,1-13.64,44.32c-.89,2.1-1.8,4.16-2.72,6.16-.6,1.32-1.24,2.65-1.86,4-.34.72-.66,1.36-1,2l-.5,1-.54,1.07c-.32.64-.65,1.28-1,2-1,2-2.07,3.92-3.24,6-.39.7-.78,1.39-1.2,2.11l-.46.79-.34.58c-.63,1.08-1.26,2.15-1.9,3.21l-.17.28-.29.48-.49.8-.5.81-.11.17c-.65,1.05-1.31,2.08-2,3.12l-.24.38-.18.27-.75,1.14-.07.12c-1.54,2.32-2.85,4.23-4.12,6-2.35.31-7.91.8-20.9,1.2-17.72.54-44.56.8-82.07.8H317.93l-6.14,0-6.39,0c-11,0-23.15-.09-37-.17-26-.15-51.81-.34-78.19-.54l-2.82,0-2.78,0-6.74-.05-7.36-.06h-3.27l-7.69-.06c-23.45-.17-47.54-.33-64.93-.33-13.13,0-20.23.05-24.29.23-.2-.23-.39-.47-.58-.71a93.75,93.75,0,0,1-6.91-10.36c-.62-1-1.22-2-1.83-3.06-1.09-1.84-2.21-3.75-3.35-5.58-.4-.69-.79-1.37-1.17-2.07-.2-.35-.4-.71-.59-1.07l-.6-1.1-.6-1.1-.58-1.09c-2.67-5.05-5.21-10.34-7.53-15.71-1.34-3.11-2.61-6.23-3.76-9.26-.75-2-1.39-3.73-2-5.39-2.07-5.88-3.94-12-5.55-18.1,0-.2-.1-.41-.16-.62-.55-2.18-1-4-1.37-5.62-.18-.78-.35-1.56-.53-2.34l0-.1,0-.1c0-.15-.07-.3-.1-.45l-.42-2h0c-.13-.61-.25-1.22-.37-1.81-.27-1.35-.52-2.7-.76-4-.16-.87-.31-1.75-.45-2.63l-.08-.44c0-.13,0-.26-.07-.4-.13-.82-.27-1.64-.4-2.49-.63-4.12-1.14-8.26-1.52-12.32v-.18a2.91,2.91,0,0,1,0-.32h0l0,0c1-.46,2-.88,2.93-1.29a218.32,218.32,0,0,1,29.66-9.83c1.54-.41,3.22-.85,5.13-1.33l.27-.07,1.07-.27,5.18-1.27.56-.13c3.18-.76,6.55-1.54,11-2.55l2.52-.59,4-.94L97.68,258l1.41-.34,1.94-.47,1.06-.27,1-.24c6.5-1.61,11.84-3.07,16.77-4.59,2.17-.66,4.17-1.3,6.09-2l1.59-.53a68.84,68.84,0,0,0,8.44-3.69c5.23-2.69,10.52-6,16.13-9.5l1.44-.91,1.71-1.06h0l1.7-1c1.48-.92,2.87-1.76,4.24-2.57l0,0h0l1.06-.64c8.66-5.08,20.17-11.09,32.33-12.35h.14l.14,0a166.2,166.2,0,0,1,24.37-1.63c6.76,0,13.32.3,19.67.58,5.93.27,11.54.53,17.18.55h.77c10.7,0,24.84-.8,39.32-7.06,1.54-.68,3.06-1.3,4.52-1.85l1.78-.69.55-.2c2.73-1,5.46-1.9,8.32-2.74.95-.28,1.93-.56,3-.84,2-.54,4.1-1.06,6.36-1.57,1.59-.35,3.25-.69,5.1-1.06,2.7-.54,5.39-1,8-1.52l2.78-.51c1.84-.34,3.65-.67,5.49-1.05s3.69-.76,5.37-1.16,3.43-.84,5.05-1.29h.06l.29-.09c.71-.2,1.43-.4,2.15-.62,2.14-.65,4.2-1.34,6.26-2.11,2.47-.92,5-2,7.4-3.14l.21-.11.21-.12c1.51-.84,3.14-1.77,4.86-2.76l1.36-.77.53-.3,2.16-1.24,1.72-1c3.2-1.79,6.06-3.36,8.74-4.77,10.61-5.54,18.69-8.77,24.69-9.88h.07c9.55-1.87,22.22-2.22,33.41-2.54l.86,0c5.66-.16,11.47-.33,17.14-.64m4.41-7.28c-7.3.52-15,.73-22.61.95-12.48.35-24.71.74-34.55,2.66-8,1.47-17.6,5.83-26.66,10.56-3.07,1.62-6.07,3.27-8.92,4.87l-1.72,1-2.75,1.57-6.17,3.51c-2.31,1.1-4.58,2.06-6.83,2.9-2,.74-3.91,1.39-5.85,2-.78.24-1.56.46-2.33.68-1.59.44-3.18.84-4.77,1.21s-3.45.78-5.18,1.12-3.56.7-5.36,1c-3.55.66-7.16,1.3-10.89,2q-2.56.51-5.22,1.09c-2.17.49-4.4,1-6.67,1.64-1,.28-2.08.57-3.14.88-2.83.83-5.75,1.78-8.77,2.89-.8.29-1.61.6-2.42.91h0c-1.57.6-3.18,1.26-4.81,2-12.05,5.2-24,6.48-36.53,6.48h-.74c-11.61-.05-23.73-1.13-36.88-1.13a174.22,174.22,0,0,0-25.37,1.7c-12.71,1.32-24.39,7-35.15,13.28l-1.14.68q-2.21,1.31-4.36,2.64h0l-3.44,2.14c-6,3.73-11.64,7.33-17,10.1A60.85,60.85,0,0,1,125.2,243l-1.49.5q-2.91,1-5.9,1.9c-5.33,1.64-10.83,3.11-16.43,4.5l-2,.51-3.31.8-6.26,1.47-6.54,1.52q-5.49,1.26-11,2.56c-1.94.47-3.89.94-5.83,1.43l-1.32.33q-2.62.66-5.25,1.36A227.36,227.36,0,0,0,29.26,270c-1.05.44-2.09.9-3.13,1.38q-2.26,1-4.5,2.12c.06.92.14,1.84.21,2.76.06.63.11,1.27.17,1.9,0,.25,0,.51.07.76q.6,6.38,1.58,12.73c.13.86.27,1.71.41,2.56,0,.28.1.57.14.85.15.91.31,1.82.47,2.72.25,1.39.51,2.77.78,4.15s.53,2.6.81,3.9a0,0,0,0,0,0,0c0,.24.1.48.16.72.18.82.36,1.63.55,2.44.45,2,.93,3.89,1.42,5.82.05.18.1.36.14.53q2.49,9.5,5.73,18.72c.65,1.85,1.33,3.7,2,5.53q1.85,4.85,3.89,9.57,3.59,8.3,7.77,16.21l1.21,2.26,1.22,2.22c.42.76.85,1.51,1.28,2.26,1.74,2.79,3.43,5.73,5.19,8.66a99.22,99.22,0,0,0,7.44,11.12c1,1.27,2.07,2.49,3.18,3.63h0c.62-.38,10.67-.52,27.13-.52s38.92.14,64.88.33l7.69.06,3.26,0,14.11.11,5.62,0c25,.19,51.73.39,78.18.54,12.47.07,24.88.13,37,.17l12.54,0h20.77c33.54,0,62.83-.21,82.29-.8,14.47-.45,23.52-1.1,24.88-2,.12-.08.18-.16.18-.25l1.33-1.85c1.45-2.05,2.86-4.13,4.24-6.22l.85-1.28.44-.69c.69-1.07,1.37-2.14,2-3.22l.12-.17,1-1.68.45-.76c.67-1.1,1.33-2.21,2-3.32.27-.47.55-.93.82-1.39.42-.72.83-1.45,1.24-2.18,1.16-2.06,2.28-4.13,3.36-6.23.35-.67.7-1.35,1-2l1-2c.36-.71.71-1.43,1.05-2.15.64-1.34,1.28-2.68,1.9-4q1.46-3.15,2.8-6.34A236.54,236.54,0,0,0,485.81,302c.15-.75.29-1.5.43-2.24q.51-2.67.95-5.37.6-3.57,1.07-7.15c.17-1.33.34-2.67.49-4,0-.33.06-.66.1-1,.13-1.21.26-2.42.38-3.63l.15-1.66c.2-2.32.37-4.63.51-6.95,0-.36.05-.71.07-1.07,0-.14,0-.28,0-.43.07-1.31.13-2.62.18-3.94.06-1.75.11-3.5.14-5.26,0-.87,0-1.75,0-2.63v-.78c0-.94,0-1.89,0-2.83,0-.71,0-1.42,0-2.12,0-1.67-.09-3.34-.16-5,0-.15,0-.31,0-.47-.06-1.58-.15-3.15-.26-4.72s-.24-3.37-.38-5.05c-.09-1.07-.19-2.15-.3-3.21,0,0,0,0,0-.06-.09-.91-.19-1.82-.29-2.73,0-.41-.09-.82-.14-1.22l-.21-1.76q-.18-1.47-.39-2.94l-.24-1.71c-.08-.55-.16-1.1-.25-1.65-.23-1.52-.47-3-.74-4.55-.1-.58-.2-1.17-.31-1.75-.15-.87-.31-1.74-.49-2.62-.12-.67-.25-1.33-.39-2-.08-.44-.17-.87-.27-1.31-.13-.66-.27-1.32-.41-2q-.62-2.82-1.29-5.62c-.15-.62-.3-1.24-.46-1.85s-.28-1.13-.43-1.7c-.24-.93-.49-1.86-.74-2.78-.16-.6-.33-1.21-.5-1.8-.39-1.39-.79-2.77-1.21-4.15-.28-.94-.57-1.87-.86-2.8s-.53-1.68-.81-2.52c-.37-1.14-.75-2.27-1.14-3.4-.3-.87-.6-1.73-.91-2.59s-.68-1.88-1-2.81-.6-1.6-.91-2.4-.62-1.59-.93-2.38c-.7-1.79-1.44-3.57-2.19-5.33-.27-.63-.54-1.26-.82-1.89-.14-.33-.29-.66-.44-1s-.42-.95-.64-1.43l0,0c-.2-.47-.42-.93-.63-1.4Z"/><path class="cls-1" d="M300.08,439.69a9.43,9.43,0,0,1-1.06-.07l-42.12-5.7A7.64,7.64,0,0,1,251,423.05L355.29,204.54a5.66,5.66,0,0,1,5.14-3.26,5.78,5.78,0,0,1,4.55,2.23,5.63,5.63,0,0,1,1,4.92L307.79,433.72a8,8,0,0,1-7.71,6Z"/><path class="cls-1" d="M360.43,206.39a.6.6,0,0,1,.6.76l-12.18,47.16-46,178.13a2.83,2.83,0,0,1-2.74,2.13l-.39,0-42.11-5.7a2.53,2.53,0,0,1-1.95-3.6L359.9,206.74a.59.59,0,0,1,.53-.35m0-10.23a10.74,10.74,0,0,0-9.76,6.18L246.41,420.85A12.76,12.76,0,0,0,256.22,439l42.11,5.69a12.9,12.9,0,0,0,1.76.12,13.07,13.07,0,0,0,12.65-9.8l46-178.13,12.18-47.16a10.78,10.78,0,0,0-1.91-9.34,11,11,0,0,0-8.6-4.21Z"/><path class="cls-1" d="M324.81,453.23a5.16,5.16,0,0,1-4.19-2.16l-1.07-.11a5.11,5.11,0,0,1-4.4-6.51c.18-.65,18.87-65.94,31.65-178.4a5.12,5.12,0,0,1,5.08-4.54h.24a5.13,5.13,0,0,1,4.88,5c2.26,110.13-15.88,160.79-25.35,179.52a5.14,5.14,0,0,1-1.6,4.21l-.82.78C328.1,452.11,326.93,453.23,324.81,453.23Z"/><path class="cls-1" d="M351.88,266.62c2.57,124.93-21.31,170.91-26.22,179.81l-5.6-.56s18.83-64.94,31.82-179.25M325.66,446.43l.89.09a15.92,15.92,0,0,1-1.74,1.59c-.1,0,.21-.53.85-1.68m26.22-190a10.23,10.23,0,0,0-10.16,9.08C331.54,355,316.67,420.78,310.23,443a10.25,10.25,0,0,0,8,12.91,10.27,10.27,0,0,0,6.61,2.41,11,11,0,0,0,7.95-3.61l.79-.75a10.25,10.25,0,0,0,3.21-6.71c7.16-14.52,12-32.21,14.8-45,8.11-36.5,11.65-82.21,10.55-135.84a10.23,10.23,0,0,0-9.75-10Z"/><path class="cls-1" d="M178.14,410.22c-6.31,0-12.1-.11-15-.17a6.79,6.79,0,0,1-6.61-6.86l1.6-117.29a5.35,5.35,0,0,1,10.66-.56c5.32,44.87,15,101.86,24.94,114.79a6.19,6.19,0,0,1-4.74,9.95C185.87,410.18,182.21,410.22,178.14,410.22Z"/><path class="cls-1" d="M163.5,285.73a.22.22,0,0,1,.22.2c2.16,18.22,12.45,99.68,26,117.31a1.07,1.07,0,0,1-.83,1.73c-3.43.1-7.16.14-10.72.14-6.33,0-12.14-.11-14.87-.18a1.65,1.65,0,0,1-1.61-1.67L163.26,286a.23.23,0,0,1,.24-.24m0-10.23A10.5,10.5,0,0,0,153,285.83l-1.6,117.29a11.91,11.91,0,0,0,11.6,12c2.91.07,8.73.18,15.1.18,4.13,0,7.83,0,11-.14A11.31,11.31,0,0,0,197.8,397c-2.14-2.8-7.93-13.67-15.29-54-4.45-24.42-7.52-48.86-8.63-58.24a10.45,10.45,0,0,0-10.38-9.23Z"/><path class="cls-1" d="M145.51,410a6.9,6.9,0,0,1-6.87-6.75c-.12-7.58-.12-47.38,11.93-86.09a5.12,5.12,0,0,1,4.88-3.6,5,5,0,0,1,1.08.12,5.1,5.1,0,0,1,4,5.62c-5.81,47.32-2.59,78-1.89,83.68a6.25,6.25,0,0,1-6.21,7Z"/><path class="cls-1" d="M155.46,318.69h0m0,0c-5.85,47.6-2.7,78.44-1.89,84.93a1.14,1.14,0,0,1-1.14,1.27h-6.92a1.73,1.73,0,0,1-1.75-1.71c-.14-8.46,0-46.81,11.7-84.49m0-10.24a10.26,10.26,0,0,0-8.84,5.1,10,10,0,0,0-1,2.32c-11.91,38.39-12.27,76.65-12.09,87.47a12,12,0,0,0,12,11.78h6.92a11.36,11.36,0,0,0,11.29-12.76c-.69-5.56-3.83-35.58,1.86-82.15a11,11,0,0,0,.11-1.52,10.23,10.23,0,0,0-9.43-10.2c-.27,0-.54,0-.81,0Zm0,20.47Z"/><path class="cls-3" d="M298.7,434.55a2.85,2.85,0,0,0,3.13-2.11l46-178.13L360,207.15a.6.6,0,0,0-1.13-.41L254.64,425.25a2.53,2.53,0,0,0,1.95,3.6Z"/><path class="cls-4" d="M327.51,434.75c7.06-14.69,28.23-60.8,24.11-171.23-12.36,108.8-30.29,170.62-30.29,170.62Z"/><path class="cls-3" d="M327.34,445.09c-.1.32-.2.65-.31,1a22.77,22.77,0,0,1-21.68,15.16h-35.5a22.77,22.77,0,0,1-21.68-15.16c-.11-.32-.21-.65-.31-1a1.53,1.53,0,0,1,1.46-2h76.57A1.53,1.53,0,0,1,327.34,445.09Z"/><path class="cls-5" d="M195.74,413.81a.87.87,0,0,1-.07.17,13.49,13.49,0,0,1-12.57,8.19H158.32A13.5,13.5,0,0,1,145.74,414l-.06-.17a1.28,1.28,0,0,1,1.22-1.74h47.62A1.29,1.29,0,0,1,195.74,413.81Z"/><path class="cls-5" d="M161.65,403.26,163.26,286a.23.23,0,0,1,.46,0c2.16,18.22,12.45,99.68,26,117.31a1.07,1.07,0,0,1-.83,1.73c-9.54.28-21.33.06-25.59,0A1.65,1.65,0,0,1,161.65,403.26Z"/><path class="cls-5" d="M153.57,403.62c-.81-6.49-4-37.33,1.89-84.93-11.74,37.68-11.84,76-11.7,84.49a1.73,1.73,0,0,0,1.75,1.71h6.92A1.14,1.14,0,0,0,153.57,403.62Z"/></svg>