<svg id="icon" xmlns="http://www.w3.org/2000/svg" viewBox="0 0 512 512"><path d="M257.14,487.13A231.17,231.17,0,0,1,93.68,92.5,231.17,231.17,0,1,1,420.6,419.42,229.66,229.66,0,0,1,257.14,487.13Z" style="fill:#fff"/><path d="M257.14,28.3a227.72,227.72,0,0,1,88.62,437.44A227.72,227.72,0,0,1,168.53,46.19,226.22,226.22,0,0,1,257.14,28.3m0-7C127.54,21.3,22.48,126.36,22.48,256S127.54,490.63,257.14,490.63,491.81,385.57,491.81,256,386.75,21.3,257.14,21.3Z" style="fill:#005596"/><path d="M385.5,304.18,376.26,315l-.14-.12L352.05,343a19.55,19.55,0,0,1-27.62,2.1,19.33,19.33,0,0,1-6-9.27v-3.09l.63-9.81a19.59,19.59,0,0,1,3.28-5.38l24-28-23.5-26.07-4.13-4.58-8.26,72.57,0,46.71-.07,106.44a234.47,234.47,0,0,1-49.27,6l.14-77H238.53l.13,76.32a233.24,233.24,0,0,1-49.29-9.22l-.09-149.28L181,258.84l-4.13,4.58-23.5,26.07,24,28c1.42,1.66,6.16,7.21,3.91,18.28a17.18,17.18,0,0,1-6,9.27,19.54,19.54,0,0,1-27.61-2.1l-24.06-28.1-.16.12-9.24-10.82a26.83,26.83,0,0,1,1.49-36.43l17-16.93,48.63-48.26a32.79,32.79,0,0,1,16.25-8.85,129.32,129.32,0,0,1,22.11-2.66h7.41A59,59,0,0,1,246.47,77.84c1-.08,2.05-.11,3.09-.11h.68c1,0,2,0,3.07.11a59,59,0,0,1,19.25,113.21H280a129.1,129.1,0,0,1,22.11,2.66,31.64,31.64,0,0,1,3.73,1,33,33,0,0,1,12.52,7.82L367,250.82,384,267.75A26.82,26.82,0,0,1,385.5,304.18Z" style="fill:#005596"/><path d="M321.89,386.78a14.11,14.11,0,0,1-8.07-2.53l-26.55-18.43c-33.62-23.33-54.25-61.16-55.18-101.19,0-1,0-2,0-3V232.84a14.16,14.16,0,0,1,8.47-13l75.69-33.24a14.23,14.23,0,0,1,11.46,0l74.52,33.2a14.17,14.17,0,0,1,8.4,12.93v29.38c0,1,0,2,0,3-.91,39.67-21.25,77.31-54.42,100.67l-26.08,18.38A14.1,14.1,0,0,1,321.89,386.78Z" style="fill:#fff"/><path d="M321.91,189a10.53,10.53,0,0,1,4.33.92l74.52,33.19a10.67,10.67,0,0,1,6.33,9.74v29.38c0,1,0,1.92,0,2.88-.9,39.13-20.94,75.35-52.94,97.89L328,381.33a10.64,10.64,0,0,1-12.22,0L289.27,363c-32.41-22.5-52.77-58.95-53.68-98.4,0-1,0-1.93,0-2.9V232.84a10.65,10.65,0,0,1,6.38-9.76l75.69-33.23a10.69,10.69,0,0,1,4.29-.9m0-7a17.52,17.52,0,0,0-7.1,1.49l-75.7,33.23a17.68,17.68,0,0,0-10.56,16.17v28.81c0,1,0,2.05,0,3.07.95,41.13,22.14,80,56.68,104l26.55,18.42a17.63,17.63,0,0,0,20.24-.07l26.09-18.37c34.07-24,55-62.68,55.9-103.46,0-1,0-2,0-3V232.8a17.67,17.67,0,0,0-10.48-16.13l-74.52-33.2a17.56,17.56,0,0,0-7.18-1.52Z" style="fill:#005596"/><rect x="285.3" y="271.88" width="72.04" height="53.52" rx="13.13" style="fill:#005596"/><path d="M321.32,244.8a15,15,0,0,1,15,15v31.77a15,15,0,0,1-30,0V259.79a15,15,0,0,1,15-15m0-11h0a26,26,0,0,0-26,26v31.77a26,26,0,0,0,26,26h0a26,26,0,0,0,26-26V259.79a26,26,0,0,0-26-26Z" style="fill:#005596"/><path d="M326.89,307.45a2.31,2.31,0,0,1-2.24,2.9h-7.42a2.3,2.3,0,0,1-2.23-2.9l2.53-9.57a6.17,6.17,0,1,1,6.83,0Z" style="fill:#fff"/></svg>