<svg id="icon" xmlns="http://www.w3.org/2000/svg" viewBox="0 0 512 512"><path d="M256,487.17A231.17,231.17,0,0,1,92.54,92.54,231.17,231.17,0,1,1,419.46,419.46,229.66,229.66,0,0,1,256,487.17Z" style="fill:#fff"/><path d="M256,28.33a227.74,227.74,0,0,1,88.62,437.45A227.73,227.73,0,0,1,167.38,46.22,226.27,226.27,0,0,1,256,28.33m0-7C126.4,21.33,21.33,126.4,21.33,256S126.4,490.67,256,490.67,490.67,385.6,490.67,256,385.6,21.33,256,21.33Z" style="fill:#005596"/><path d="M337.17,288.13A17.14,17.14,0,0,0,325,276.93a70,70,0,0,0-51.56-101.64,70.29,70.29,0,0,0-24.25.52V154.65a90.7,90.7,0,0,1,13.58-1,92.69,92.69,0,0,1,13.79,1,90.75,90.75,0,0,1,76.16,103.66A91.49,91.49,0,0,1,339.15,294Z" style="fill:#fff"/><path d="M262.76,157.13h0a88.38,88.38,0,0,1,13.27,1,87.27,87.27,0,0,1,73.22,99.67A88.34,88.34,0,0,1,340,285.68,20.63,20.63,0,0,0,329.84,275a73.6,73.6,0,0,0-67.07-104,72.39,72.39,0,0,0-10.09.7v-14a87,87,0,0,1,10.08-.58m0-7a93.64,93.64,0,0,0-17.08,1.56v28.53A65.81,65.81,0,0,1,262.77,178a66.87,66.87,0,0,1,10.14.77,66.58,66.58,0,0,1,46.33,101.19h1.65a13.67,13.67,0,0,1,13,9.31l4.19,12.42a94.43,94.43,0,0,0-75.29-151.54Z" style="fill:#005596"/><rect x="189.81" y="284.62" width="33.42" height="14.91" style="fill:#fff;stroke:#005596;stroke-linecap:round;stroke-linejoin:round;stroke-width:7px"/><path d="M185.45,120.36v-8.72a3.28,3.28,0,0,1,3.27-3.27h35.6a3.28,3.28,0,0,1,3.27,3.27v8.72Z" style="fill:#fff"/><path d="M224.09,111.87v5H189v-5h35.14m.23-7h-35.6a6.77,6.77,0,0,0-6.77,6.77v12.22h49.14V111.64a6.77,6.77,0,0,0-6.77-6.77Z" style="fill:#005596"/><rect x="159.03" y="332.74" width="106.81" height="8.1" style="fill:#005596"/><path d="M274.34,373.67V292.32a3.89,3.89,0,0,1,3.89-3.88h42.66a5.18,5.18,0,0,1,4.92,3.52l5.34,15.83,24.09,65.88Z" style="fill:#fff"/><path d="M320.89,291.94a1.68,1.68,0,0,1,1.6,1.14l5.34,15.83,0,.09,0,.08,22.34,61.09H277.84V292.32a.38.38,0,0,1,.39-.38h42.66m0-7H278.23a7.38,7.38,0,0,0-7.39,7.38v84.85h89.41l-25.78-70.49-5.34-15.83a8.7,8.7,0,0,0-8.24-5.91Z" style="fill:#005596"/><path d="M179.17,273.05a3.33,3.33,0,0,1-3.32-3.33V135a3.32,3.32,0,0,1,3.32-3.32h54.7a3.32,3.32,0,0,1,3.32,3.32V269.72a3.33,3.33,0,0,1-3.32,3.33Z" style="fill:#fff"/><path d="M233.69,135.21V269.55H179.35V135.21h54.34m.18-7h-54.7a6.82,6.82,0,0,0-6.82,6.82V269.72a6.82,6.82,0,0,0,6.82,6.83h54.7a6.82,6.82,0,0,0,6.82-6.83V135a6.82,6.82,0,0,0-6.82-6.82Z" style="fill:#005596"/><path d="M148.73,398.62V396.1a10.36,10.36,0,0,1,10.36-10.35h210.7a10.36,10.36,0,0,1,10.35,10.35v2.52Z" style="fill:#fff"/><path d="M369.79,389.25a6.86,6.86,0,0,1,6.78,5.87H152.3a6.86,6.86,0,0,1,6.79-5.87h210.7m0-7H159.09a13.86,13.86,0,0,0-13.86,13.85v6H383.64v-6a13.85,13.85,0,0,0-13.85-13.85Z" style="fill:#005596"/><path d="M309.05,320.29a10.37,10.37,0,1,1,10.37-10.37A10.38,10.38,0,0,1,309.05,320.29Z" style="fill:#fff"/><path d="M309.05,303.05a6.87,6.87,0,1,1-6.87,6.87,6.88,6.88,0,0,1,6.87-6.87m0-7a13.87,13.87,0,1,0,13.87,13.87,13.87,13.87,0,0,0-13.87-13.87Z" style="fill:#005596"/></svg>