<svg id="icon" xmlns="http://www.w3.org/2000/svg" viewBox="0 0 512 512"><path d="M490.67,256a234.26,234.26,0,0,1-13.59,78.85c-.1.32-.22.64-.34,1-.47,1.29-.94,2.57-1.43,3.83l-.66,1.71c-.57,1.48-1.17,2.95-1.77,4.41-.29.69-.57,1.38-.87,2.06a232.1,232.1,0,0,1-15,29.26c-.68,1.16-1.38,2.29-2.11,3.42-.17.27-.34.56-.52.83q-1.31,2.06-2.64,4.08c-.89,1.35-1.79,2.68-2.72,4a234.2,234.2,0,0,1-32.31,37.52c-.37.36-.74.7-1.12,1.05q-2,1.86-4,3.64a234.26,234.26,0,0,1-80.53,46.75c-2,.69-4,1.32-6,1.94h0q-7.8,2.42-15.83,4.28-2.65.61-5.34,1.17c-1.52.32-3.05.62-4.58.9q-3.22.6-6.47,1.1c-1.34.22-2.67.42-4,.61l-1,.13A232.8,232.8,0,0,1,260,490.63c-1.32,0-2.66,0-4,0q-9.33,0-18.5-.73-8.19-.63-16.26-1.83-3-.44-6-1h0q-8.55-1.5-16.88-3.61c-.61-.14-1.2-.29-1.8-.45l-.72-.19c-2.56-.68-5.1-1.39-7.62-2.15s-5.17-1.61-7.72-2.47c-2.22-.75-4.43-1.55-6.62-2.37q-8.38-3.12-16.46-6.88l-.3-.13q-4.11-1.9-8.12-4c-.79-.4-1.58-.81-2.36-1.23-1.57-.82-3.14-1.67-4.69-2.54-.21-.12-.44-.24-.64-.37l-.31-.16c-1.9-1.08-3.78-2.17-5.65-3.3q-4.49-2.69-8.85-5.56c-2.22-1.48-4.44-3-6.61-4.55q-9.33-6.66-18-14.2l0,0-1.8-1.59Q93.84,425.82,88,419.82c-2.25-2.31-4.47-4.68-6.61-7.07A234.35,234.35,0,0,1,21.33,256C21.33,126.4,126.39,21.33,256,21.33S490.67,126.4,490.67,256Z" style="fill:#005596"/><path d="M190.77,278.37h-30.1a57.47,57.47,0,0,0,28.9-25.05,55.25,55.25,0,0,0,3-6.07h0c.49-1.16.94-2.33,1.36-3.52.6-1.77,1.12-3.56,1.56-5.39,0,0,0,0,0,0,.09-.32.16-.65.24-1,0,0,0,0,0,0v0a3,3,0,0,0,.07-.32s0,0,0-.05.07-.31.09-.47c.18-.84.33-1.7.47-2.54,0,0,0,0,0,0a57.63,57.63,0,0,0,.64-11.73,55.41,55.41,0,0,0-1.2-9.18c-.11-.47-.21-.94-.32-1.4,0,0,0,0,0-.05a.43.43,0,0,0,0-.11c0-.05,0-.08,0-.13a0,0,0,0,0,0,0h0c-6-24.06-27.35-42.43-52.82-43.73A57.47,57.47,0,0,0,83.45,213s0,0,0,0,0,0,0,.06,0,0,0,0a.11.11,0,0,0,0,.05,1.49,1.49,0,0,0,0,.18,57.16,57.16,0,0,0-1.17,11.56,57.85,57.85,0,0,0,1.15,11.46,0,0,0,0,1,0,0s0,0,0,.06a57.47,57.47,0,0,0,35.25,41.9H88.55A27.71,27.71,0,0,0,60.8,306.06v80.2a235.8,235.8,0,0,0,20.58,26.49c2.14,2.39,4.36,4.76,6.61,7.07q5.83,6,12.09,11.55l1.8,1.59,0,0q8.63,7.53,18,14.2c2.17,1.55,4.39,3.07,6.61,4.55q4.36,2.86,8.85,5.56c1.87,1.13,3.75,2.22,5.65,3.3l.31.16c.2.13.43.25.64.37,1.55.87,3.12,1.72,4.69,2.54L149,464.9q4,2.07,8.12,4l.3.13q8.07,3.75,16.46,6.88c2.19.82,4.4,1.62,6.62,2.37q3.83,1.29,7.72,2.47c2.52.76,5.06,1.47,7.62,2.15V456.33a22.62,22.62,0,0,0,22.61-22.62V306.06A27.67,27.67,0,0,0,190.77,278.37Z" style="fill:#fff"/><path d="M143.43,269.15a9.73,9.73,0,0,1-9.72-9.73v-1.1a9.73,9.73,0,0,1,9.72-9.71h7.67a9.63,9.63,0,0,1,6,2c16.4-1.6,30.55-7.69,36.76-15.8V218.79a51.82,51.82,0,0,0-17-35.25,55.29,55.29,0,0,0-37.27-14.17c-28.45,0-51.71,20.7-54.17,48.19v23l-1.84,1.59a16.07,16.07,0,0,1-10.6,4,16.36,16.36,0,0,1-16.34-16.33V218.66A16.44,16.44,0,0,1,68.38,203a63.32,63.32,0,0,1,24.23-39.08c12.74-9.69,29.41-15,46.93-15s34.19,5.33,46.93,15A63.31,63.31,0,0,1,210.7,203a16.42,16.42,0,0,1,11.89,15.7v11.11a16.35,16.35,0,0,1-16.33,16.33,14.67,14.67,0,0,1-1.75-.1c-9.66,10.87-26.76,18.33-46.47,20.22a9.71,9.71,0,0,1-6.94,2.93Z" style="fill:#c1d82f"/><path d="M139.54,152.4c33.88,0,62.91,20.3,68.13,53.53a12.86,12.86,0,0,1,11.42,12.73v11.11a12.84,12.84,0,0,1-12.83,12.83,12.59,12.59,0,0,1-3.12-.4c-8.76,11-26.19,19-46.87,20.66a6.21,6.21,0,0,1-5.17,2.79h-7.67a6.24,6.24,0,0,1-6.22-6.23v-1.1a6.22,6.22,0,0,1,6.22-6.21h7.67a6.17,6.17,0,0,1,4.71,2.18c19.13-1.53,34.94-8.7,41.51-18.29V218.68c-1.89-30.2-27.28-52.81-57.78-52.81-29.8,0-55.11,22-57.67,51.54v21.53l-.63.54a12.57,12.57,0,0,1-8.31,3.12,12.86,12.86,0,0,1-12.84-12.83V218.66a12.9,12.9,0,0,1,11.33-12.72c5.22-33.24,34.24-53.54,68.12-53.54m0-7c-18.28,0-35.7,5.58-49,15.73a66.66,66.66,0,0,0-25.13,39.22,19.89,19.89,0,0,0-6.44,4.32,19.68,19.68,0,0,0-5.83,14v11.11A19.86,19.86,0,0,0,72.93,249.6a19.63,19.63,0,0,0,12.92-4.84l.61-.53,2.41-2.09V217.72a48.49,48.49,0,0,1,16.26-31.92,52.43,52.43,0,0,1,69.33.33,48.37,48.37,0,0,1,15.86,32.78v14.71c-5.8,6.74-18,11.82-32.33,13.43a13.15,13.15,0,0,0-6.89-1.94h-7.67a13.23,13.23,0,0,0-13.22,13.21v1.1a13.24,13.24,0,0,0,13.22,13.23h7.67a13.22,13.22,0,0,0,8.45-3.06c19.32-2.08,36.2-9.39,46.4-20h.31a19.85,19.85,0,0,0,19.83-19.83V218.66a19.66,19.66,0,0,0-5.81-14,20,20,0,0,0-6.55-4.35,66.65,66.65,0,0,0-25.14-39.19C175.24,151,157.82,145.4,139.54,145.4Z" style="fill:#005596"/><path d="M405.58,314.79c.85,0,1.83,0,3,.08l8.08.71h.11c4.4.52,9.25,1.23,13.64,2.19a35.63,35.63,0,0,1,12.23,5.1l.06,0,4.28,3.25.05,0L294.62,390.79l.06-7.27-25.51,18.42-21.86,15.78a30,30,0,0,1-17.56,5.67c-.92,0-1.85,0-2.76-.12s-1.74-.2-2.6-.36c-.39-.07-.79-.15-1.18-.24l-.91-.22-.39-.1-.76-.22c-.91-.26-1.81-.58-2.69-.93a29.67,29.67,0,0,1-11.73-8.5l-10.29-12.2.16-.14-26.69-31.79a21.19,21.19,0,0,1-2.83-4.33,22,22,0,0,1,5.27-26.34,2,2,0,0,1,.3-.24,23.65,23.65,0,0,1,13.81-4.53h.21a23.86,23.86,0,0,1,10.59,2.43,22,22,0,0,1,4.15,2.67,22.5,22.5,0,0,1,2.1,2.15l2.7,3.23,9.36,11.14,2.89,3.44,11.69,13.93,33.13-21.23,5.83-3.73,27.32-20.66a36.33,36.33,0,0,1,16.92-8.73c4.5-1,9.44-1.7,13.89-2.22h0c2.95-.32,5.71-.54,7.92-.68,1.12-.05,2.13-.08,2.95-.08h67.45m0-7H338.13c-.88,0-1.95,0-3.26.09h-.13c-1.81.12-4.62.33-7.85.67h0l-.42.05c-3.67.43-9.16,1.18-14.54,2.32A43.19,43.19,0,0,0,292,321.1l-26.86,20.31-5.6,3.58-27.95,17.92-7.74-9.22-2.89-3.44-9.36-11.14-2.69-3.22a30.79,30.79,0,0,0-2.77-2.85l-.12-.11-.12-.1a28.9,28.9,0,0,0-5.46-3.52h0l0,0a31.11,31.11,0,0,0-13.69-3.15h-.28A30.48,30.48,0,0,0,168.6,332a9,9,0,0,0-.95.76,28.94,28.94,0,0,0-6.85,34.62,28.15,28.15,0,0,0,3.75,5.74l22.28,26.54-.17.15,4.43,5.25,10.29,12.2a36.54,36.54,0,0,0,14.46,10.48c1.18.47,2.25.84,3.29,1.14l.87.26.61.15,1.06.26c.44.1,1,.21,1.49.3,1,.19,2.1.34,3.19.44s2.27.15,3.4.15a36.82,36.82,0,0,0,21.65-7l21.87-15.78,14.3-10.33,0,4.11,9.82-4.17L449.73,332.6l15.73-6.66-15-6-3.52-2.66-.92-.71-.33-.11a42.31,42.31,0,0,0-13.8-5.57c-4-.88-8.84-1.66-14.29-2.3l-.41-.05h-.21l-7.78-.68-.15,0h-.15c-1.35-.06-2.39-.09-3.28-.09Z" style="fill:#005596"/><path d="M472,347.82a232.1,232.1,0,0,1-15,29.26c-.68,1.16-1.38,2.29-2.11,3.42-.17.27-.34.56-.52.83q-1.31,2.06-2.64,4.08l-2.72,4a234.2,234.2,0,0,1-32.31,37.52c-.37.36-.74.7-1.12,1.05q-2,1.86-4,3.64a234.26,234.26,0,0,1-80.53,46.75c-2,.69-4,1.32-6,1.94h0q-7.8,2.42-15.83,4.28-2.65.61-5.34,1.17V472.19l-9.28-81.4.06-7.27-25.51,18.42-21.86,15.78a30,30,0,0,1-17.56,5.67c-.92,0-1.85,0-2.76-.12s-1.74-.2-2.6-.36c-.39-.07-.79-.15-1.18-.24l-.91-.22-.39-.1-.76-.22c-.91-.26-1.81-.58-2.69-.93a29.67,29.67,0,0,1-11.73-8.5l-10.29-12.2.16-.14-26.69-31.79a21.19,21.19,0,0,1-2.83-4.33,22,22,0,0,1,5.27-26.34,2,2,0,0,1,.3-.24,23.65,23.65,0,0,1,13.81-4.53h.21a23.86,23.86,0,0,1,10.59,2.43,22,22,0,0,1,4.15,2.67,22.5,22.5,0,0,1,2.1,2.15l2.7,3.23,9.36,11.14,2.89,3.44,11.69,13.93,33.13-21.23,5.83-3.73,27.32-20.66a36.33,36.33,0,0,1,16.92-8.73c4.5-1,9.44-1.7,13.89-2.22h0c2.95-.32,5.71-.54,7.92-.68,1.12-.05,2.13-.08,2.95-.08h67.45c.85,0,1.83,0,3,.08l8.08.71h.11c4.4.52,9.25,1.23,13.64,2.19a35.63,35.63,0,0,1,12.23,5.1l.06,0,4.28,3.25.05,0,25.88,19.6Z" style="fill:#c1d82f"/><path d="M428.43,285.2a64.84,64.84,0,0,1-18.26,20.25c-.55.41-1.07.76-1.61,1.11A64.52,64.52,0,0,1,393.88,314a65.21,65.21,0,0,1-43.91,0,63.06,63.06,0,0,1-10.75-5c-1.39-.79-2.73-1.63-4-2.54-.55-.35-1.06-.7-1.58-1.09a65.31,65.31,0,1,1,94.83-20.27Z" style="fill:#c1d82f"/><path d="M315.59,190.83a3.77,3.77,0,0,1-2.66-1.11l-31.58-31.58H209.16a8.92,8.92,0,0,1-8.91-8.91V80.4a8.92,8.92,0,0,1,8.91-8.91H330.63a8.92,8.92,0,0,1,8.91,8.91v68.83a8.92,8.92,0,0,1-8.91,8.91H319.37v28.91a3.7,3.7,0,0,1-1.19,2.75,3.78,3.78,0,0,1-2.59,1Z" style="fill:#fff"/><path d="M330.63,73.55a6.85,6.85,0,0,1,6.86,6.85v68.83a6.86,6.86,0,0,1-6.86,6.85H317.31v31a1.71,1.71,0,0,1-2.92,1.22l-31.68-31.68a1.69,1.69,0,0,0-1.21-.51H209.16a6.85,6.85,0,0,1-6.85-6.85V80.4a6.85,6.85,0,0,1,6.85-6.85H330.63m0-4.12H209.16a11,11,0,0,0-11,11v68.83a11,11,0,0,0,11,11H280.5l31,31a5.74,5.74,0,0,0,4.11,1.71,5.84,5.84,0,0,0,5.84-5.83V160.2h9.2a11,11,0,0,0,11-11V80.4a11,11,0,0,0-11-11Z" style="fill:#005596"/><path d="M284.61,92.69c-3.43-2.41-8-3.62-13.65-3.62a28.26,28.26,0,0,0-12.52,2.58A20.77,20.77,0,0,0,250,99l9,5.26a13.08,13.08,0,0,1,4.55-4,12.93,12.93,0,0,1,6.18-1.44,9.56,9.56,0,0,1,5.8,1.59,5.05,5.05,0,0,1,2.18,4.32,5.54,5.54,0,0,1-1.15,3.43,29,29,0,0,1-3.58,3.74,33.77,33.77,0,0,0-5.07,5.54,10.94,10.94,0,0,0-1.74,6.36h11.17a6.53,6.53,0,0,1,1.25-4,31.77,31.77,0,0,1,4-4.1,51.16,51.16,0,0,0,3.74-3.66,13.94,13.94,0,0,0,2.43-3.88,13.18,13.18,0,0,0,1-5.32A11.65,11.65,0,0,0,284.61,92.69Zm-7.73,38.19a7.81,7.81,0,0,0-10.19,0,6.19,6.19,0,0,0-2,4.69,6.35,6.35,0,0,0,2,4.77,7.5,7.5,0,0,0,10.13,0,6.34,6.34,0,0,0,2-4.77A6.18,6.18,0,0,0,276.88,130.88Z" style="fill:#005596"/></svg>