<svg id="icon" xmlns="http://www.w3.org/2000/svg" viewBox="0 0 512 512"><path d="M490.46,255.15A234.77,234.77,0,0,1,330.89,477.54c-2,.68-4,1.32-6,1.94h0q-7.8,2.4-15.83,4.27c-2.79.65-5.6,1.24-8.42,1.79a234.72,234.72,0,0,1-40.85,4.24q-1.36,0-2.73,0H255.8q-9.33,0-18.49-.72-8.2-.63-16.27-1.84c-2-.29-4-.62-6-1h0a232.51,232.51,0,0,1-27-6.41c-2.59-.78-5.17-1.61-7.72-2.47q-3.33-1.12-6.61-2.36a231.37,231.37,0,0,1-31.93-14.76q-3.34-1.86-6.61-3.84-4.49-2.67-8.84-5.56c-2.23-1.48-4.44-3-6.61-4.55A235.48,235.48,0,0,1,87.78,419q-3.37-3.47-6.61-7.07a236,236,0,0,1-25.61-34.34A233.5,233.5,0,0,1,21.13,255.15c0-129.6,105.06-234.66,234.67-234.66S490.46,125.55,490.46,255.15Z" style="fill:#005596"/><path d="M156.52,123l-2.89,1.67-5.11,2.95-9.06,5.24-16.33-26.48a13.71,13.71,0,0,0-4.8,10.44V242.07a13.82,13.82,0,0,0,13.8,13.8h2.59V261h-2.59a18.91,18.91,0,0,1-18.91-18.91V116.8a18.91,18.91,0,0,1,18.91-18.91l3.48,0a13,13,0,0,1,10.17,6.46L153.63,118Z" style="fill:#fff"/><path d="M220.27,123l2.89,1.67,5.11,2.95,9,5.24s13.37-21.69,16.34-26.48a13.73,13.73,0,0,1,4.79,10.44V242.07a13.81,13.81,0,0,1-13.8,13.8h-2.58V261h2.58a18.91,18.91,0,0,0,18.91-18.91V116.8a18.91,18.91,0,0,0-18.91-18.91l-3.47,0A13,13,0,0,0,231,104.37L223.16,118Z" style="fill:#fff"/><path d="M189,106.29a5.3,5.3,0,0,1,5.28,5.29v5.36h-11.8v-5.36a5.3,5.3,0,0,1,5.29-5.29H189m0-9.17h-1.23a14.45,14.45,0,0,0-14.46,14.46v12.87a1.66,1.66,0,0,0,1.66,1.66H201.8a1.66,1.66,0,0,0,1.67-1.66V111.58A14.46,14.46,0,0,0,189,97.12Z" style="fill:#b9d532"/><path d="M139.68,288.16a12.84,12.84,0,0,1-12.83-12.82V145.21a17.12,17.12,0,0,1,17.1-17.1h88.88a17.12,17.12,0,0,1,17.1,17.1V275.34a12.83,12.83,0,0,1-12.82,12.82Z" style="fill:#fff"/><path d="M232.83,129.61a15.6,15.6,0,0,1,15.6,15.6V275.34a11.32,11.32,0,0,1-11.32,11.32H139.68a11.32,11.32,0,0,1-11.33-11.32V145.21a15.61,15.61,0,0,1,15.6-15.6h88.88m0-3H144a18.63,18.63,0,0,0-18.6,18.6V275.34a14.34,14.34,0,0,0,14.33,14.32h97.43a14.33,14.33,0,0,0,14.32-14.32V145.21a18.62,18.62,0,0,0-18.6-18.6Z" style="fill:#005596"/><path d="M139.62,209.28h97.54a0,0,0,0,1,0,0v43.44A22.14,22.14,0,0,1,215,274.86H161.76a22.14,22.14,0,0,1-22.14-22.14V209.28a0,0,0,0,1,0,0Z" style="fill:#c1d82f"/><path d="M159.46,246.88a6.5,6.5,0,0,1-6.49-6.49V167.22h13v73.17A6.5,6.5,0,0,1,159.46,246.88Z" style="fill:#c1d82f"/><path d="M164.45,168.72v71.67a5,5,0,1,1-10,0V168.72h10m3-3h-16v74.67a8,8,0,0,0,8,8h0a8,8,0,0,0,8-8V165.72Z" style="fill:#005596"/><path d="M217.32,246.88a6.5,6.5,0,0,1-6.49-6.49V167.22h13v73.17A6.5,6.5,0,0,1,217.32,246.88Z" style="fill:#c1d82f"/><path d="M222.31,168.72v71.67a5,5,0,0,1-10,0V168.72h10m3-3h-16v74.67a8,8,0,0,0,16,0V165.72Z" style="fill:#005596"/><path d="M138.67,114.18h99.44A16.86,16.86,0,0,1,255,131v36a0,0,0,0,1,0,0H121.81a0,0,0,0,1,0,0V131A16.86,16.86,0,0,1,138.67,114.18Z" style="fill:#c1d82f;stroke:#005596;stroke-miterlimit:10;stroke-width:3px"/><path d="M438.74,308.28,336.67,263.81a4,4,0,0,1-2.37-3.62V167.67a4,4,0,0,1,5.53-3.62L441.9,208.52a4,4,0,0,1,2.37,3.62v92.52A4,4,0,0,1,438.74,308.28Z" style="fill:#c1d82f"/><path d="M435,299.88a2.63,2.63,0,0,1-1.06-.23l-91.42-39.83a2.66,2.66,0,0,1-1.59-2.43V175.11a2.66,2.66,0,0,1,2.64-2.66,2.63,2.63,0,0,1,1.06.23l91.42,39.83a2.65,2.65,0,0,1,1.59,2.43v82.28A2.66,2.66,0,0,1,435,299.88Z" style="fill:#005596"/><path d="M343.58,175.07h0L435,214.94v82.29a.09.09,0,0,1-.05,0h0l-91.44-39.87v-82.3l.05,0m0-5.23a5.27,5.27,0,0,0-5.26,5.27v82.28a5.26,5.26,0,0,0,3.16,4.82l91.42,39.84a5.26,5.26,0,0,0,7.37-4.83V214.94a5.25,5.25,0,0,0-3.16-4.82l-91.42-39.84a5.33,5.33,0,0,0-2.11-.44Z" style="fill:#fff"/><path d="M442.46,320.9l-67.58,35.75a2.34,2.34,0,0,1-2,.07L265.32,309.85a2.3,2.3,0,0,1-1.38-2.11v-2.87a2.31,2.31,0,0,1,1.23-2l67.57-35.74a2.3,2.3,0,0,1,2-.08L442.3,313.88a2.3,2.3,0,0,1,1.39,2.11v2.87A2.3,2.3,0,0,1,442.46,320.9Z" style="fill:#fff"/><path d="M372.51,349.42,270.07,304.78a1.3,1.3,0,0,1-.08-2.34l64-33.85a1.28,1.28,0,0,1,1.13,0l102.43,44.63a1.3,1.3,0,0,1,.09,2.34l-64,33.85A1.3,1.3,0,0,1,372.51,349.42Z" style="fill:#c1d82f"/><path d="M391.28,329.17l-80.7-36.34a1.6,1.6,0,0,1-.11-2.83l26.72-14.87a1.46,1.46,0,0,1,1.32-.06l80.69,36.34a1.6,1.6,0,0,1,.12,2.83l-26.73,14.87A1.44,1.44,0,0,1,391.28,329.17Z" style="fill:#fff"/><path d="M340.64,329.83l-33.7-14.33a1.23,1.23,0,0,1-.07-2.23l16-8.18a1.22,1.22,0,0,1,1,0l33.7,14.33a1.23,1.23,0,0,1,.08,2.23l-16,8.18A1.22,1.22,0,0,1,340.64,329.83Z" style="fill:#fff"/><polygon points="341.92 204.67 342.22 195.21 362.33 182.38 371.39 185.86 341.92 204.67" style="fill:#fff"/><polygon points="342.84 238.47 341.79 225.22 391.13 193.74 402.66 200.3 342.84 238.47" style="fill:#fff"/><polygon points="285.9 398.72 198.94 352.23 140.44 385.76 140.47 387.57 227.45 435.88 285.93 400.54 285.9 398.72" style="fill:#c1d82f"/><path d="M228.7,437.28c6-3.57,50.5-30.23,60-35.95a1.22,1.22,0,0,0,0-2.11L199.17,352" style="fill:#005596;stroke:#fff;stroke-linecap:round;stroke-linejoin:round;stroke-width:3px"/><polygon points="284.19 386.45 196.54 339.5 140.26 371.5 140.46 383.99 228.14 432.68 284.4 398.94 284.19 386.45" style="fill:#c1d82f"/><path d="M227.18,437.68a2.85,2.85,0,0,1-1.36-.36l-85.71-47.59a2.77,2.77,0,0,1-1.41-2.36l-.3-18a2.81,2.81,0,0,1,1.37-2.46l57.34-34.4a3.92,3.92,0,0,1,3.9-.06l87.07,45.94a2.69,2.69,0,0,1,.11,4.67c-9.22,5.54-52.14,31.23-58.31,34.93,0,3.61.12,16.82.12,16.82a2.83,2.83,0,0,1-2.82,2.84Z" style="fill:#fff"/><path d="M199.11,333.49a2.4,2.4,0,0,1,1.17.3l87.1,46a1.18,1.18,0,0,1,0,2.05c-9.27,5.57-52.59,31.51-58.4,35a1.33,1.33,0,0,0-.64,1.14c0,3.45.12,16.93.12,16.93a1.33,1.33,0,0,1-1.32,1.33,1.39,1.39,0,0,1-.64-.17l-85.7-47.59a1.27,1.27,0,0,1-.64-1.08l-.3-18a1.31,1.31,0,0,1,.64-1.15l57.34-34.39a2.38,2.38,0,0,1,1.23-.34m0-3a5.37,5.37,0,0,0-2.78.77L139,365.65a4.32,4.32,0,0,0-2.1,3.77l.3,18a4.25,4.25,0,0,0,2.19,3.65l85.7,47.59a4.27,4.27,0,0,0,2.09.55,4.38,4.38,0,0,0,3.07-1.28,4.29,4.29,0,0,0,1.25-3.07s-.08-11.49-.11-16c6.45-3.86,48.47-29,57.57-34.49a4.18,4.18,0,0,0-.12-7.24l0,0h0l-87.08-46a5.42,5.42,0,0,0-2.59-.66Z" style="fill:#005596"/><line x1="225.47" y1="415.57" x2="143.99" y2="370.32" style="fill:#fff;stroke:#005596;stroke-linecap:round;stroke-linejoin:round;stroke-width:3px"/><polygon points="285.28 377.6 212.1 338.48 162.86 366.69 162.88 368.22 236.09 408.88 285.3 379.13 285.28 377.6" style="fill:#c1d82f"/><path d="M237.14,410.06c5-3,42.49-25.44,50.51-30.26a1,1,0,0,0,0-1.77l-75.34-39.75" style="fill:#005596;stroke:#fff;stroke-linecap:round;stroke-linejoin:round;stroke-width:3px"/><polygon points="283.84 367.27 210.07 327.77 162.71 354.7 162.88 365.21 236.67 406.18 284.01 377.79 283.84 367.27" style="fill:#c1d82f"/><path d="M235.86,410.63a2.63,2.63,0,0,1-1.26-.33l-72.13-40.06a2.55,2.55,0,0,1-1.31-2.18l-.25-15.13a2.61,2.61,0,0,1,1.26-2.28l48.26-28.94a3.53,3.53,0,0,1,3.52-.06l73.27,38.66a2.51,2.51,0,0,1,1.32,2.16,2.48,2.48,0,0,1-1.21,2.18l-48.82,29.24-.14.09c0,3.21.1,14,.1,14a2.59,2.59,0,0,1-.75,1.85,2.66,2.66,0,0,1-1.86.78Z" style="fill:#fff"/><path d="M212.24,322.71a2,2,0,0,1,1,.25l73.3,38.68a1,1,0,0,1,0,1.72c-7.8,4.69-44.26,26.52-49.14,29.45a1.09,1.09,0,0,0-.54.95c0,2.9.1,14.25.1,14.25a1.12,1.12,0,0,1-1.11,1.12,1.1,1.1,0,0,1-.54-.15L163.2,368.93a1,1,0,0,1-.54-.9l-.25-15.12a1.09,1.09,0,0,1,.53-1L211.2,323a2,2,0,0,1,1-.28m0-3a5,5,0,0,0-2.58.71L161.4,349.37a4.1,4.1,0,0,0-2,3.59l.25,15.12a4.08,4.08,0,0,0,2.08,3.48l72.13,40.05a4.1,4.1,0,0,0,2,.52,4.16,4.16,0,0,0,2.92-1.22A4.09,4.09,0,0,0,240,408s-.06-9.23-.09-13.17c7.11-4.25,40.79-24.42,48.22-28.88A4,4,0,0,0,288,359l0,0,0,0-73.28-38.66a5,5,0,0,0-2.4-.61Z" style="fill:#005596"/><line x1="234.42" y1="391.78" x2="165.85" y2="353.7" style="fill:#fff;stroke:#005596;stroke-linecap:round;stroke-linejoin:round;stroke-width:3px"/><path d="M256,487.17A231.17,231.17,0,0,1,92.54,92.54,231.17,231.17,0,1,1,419.46,419.46,229.66,229.66,0,0,1,256,487.17Z" style="fill:#fff"/><path d="M256,28.33a227.74,227.74,0,0,1,88.62,437.45A227.73,227.73,0,0,1,167.38,46.22,226.27,226.27,0,0,1,256,28.33m0-7C126.4,21.33,21.33,126.4,21.33,256S126.4,490.67,256,490.67,490.67,385.6,490.67,256,385.6,21.33,256,21.33Z" style="fill:#005596"/><path d="M129.91,259.4A16.43,16.43,0,0,1,113.5,243V117.71a16.42,16.42,0,0,1,7.27-13.62l-1.5,1.29a16.24,16.24,0,0,0-5.66,12.33V243a16.32,16.32,0,0,0,16.3,16.3H130v.11Zm8.18-129L123,106l-1.47-2.37a16.34,16.34,0,0,1,8.35-2.29s2.91,0,3.34,0a10.5,10.5,0,0,1,8.14,5.21L150.88,123Z" style="fill:#fff"/><path d="M129.9,103.8l3.17,0a8,8,0,0,1,6.15,4l7.85,13.6.4.69-3.68,2.12-4.85,2.8-13.79-22.35h0a13.92,13.92,0,0,1,4.75-.84m0-5A18.91,18.91,0,0,0,111,117.71V243a18.91,18.91,0,0,0,18.91,18.91h2.58v-5.11h-2.58a13.82,13.82,0,0,1-13.8-13.8V117.71a13.73,13.73,0,0,1,4.79-10.44c3,4.8,16.34,26.48,16.34,26.48l9-5.23,5.11-3,2.89-1.67-2.89-5-7.85-13.6a13,13,0,0,0-10.17-6.45c-.3,0-3.47,0-3.47,0Z" style="fill:#005596"/><path d="M248.34,259.4v-.11h.09a16.32,16.32,0,0,0,16.3-16.3V117.71a16.25,16.25,0,0,0-5.67-12.33l-1.5-1.29a16.38,16.38,0,0,1,7.28,13.62V243a16.43,16.43,0,0,1-16.41,16.41Zm-15-133L227.46,123,237,106.53a10.54,10.54,0,0,1,8.22-5.21l3.27,0a16.33,16.33,0,0,1,8.34,2.29L255.31,106c-2.41,3.89-11.65,18.88-15.06,24.41Z" style="fill:#fff"/><path d="M248.43,103.8a13.83,13.83,0,0,1,4.75.84h0L239.39,127l-4.85-2.8-3.67-2.12.4-.69,7.83-13.58a8.06,8.06,0,0,1,6.16-4l3.17,0m0-5s-3.18,0-3.47,0a13,13,0,0,0-10.18,6.45l-7.85,13.6-2.89,5,2.89,1.67,5.12,3,9,5.23,16.33-26.48a13.74,13.74,0,0,1,4.8,10.44V243a13.82,13.82,0,0,1-13.8,13.8h-2.58v5.11h2.58A18.91,18.91,0,0,0,267.34,243V117.71A18.91,18.91,0,0,0,248.43,98.8Z" style="fill:#005596"/><path d="M189.78,107.21a5.29,5.29,0,0,1,5.29,5.29v5.35h-11.8V112.5a5.29,5.29,0,0,1,5.28-5.29h1.23m0-9.17h-1.23a14.46,14.46,0,0,0-14.46,14.46v12.87a1.66,1.66,0,0,0,1.67,1.66h26.82a1.66,1.66,0,0,0,1.66-1.66V112.5A14.45,14.45,0,0,0,189.78,98Z" style="fill:#fff;stroke:#005596;stroke-miterlimit:10;stroke-width:4px"/><path d="M140.45,290.08a13.84,13.84,0,0,1-13.82-13.83V146.13a18.12,18.12,0,0,1,18.1-18.1h88.88a18.12,18.12,0,0,1,18.1,18.1V276.25a13.84,13.84,0,0,1-13.83,13.83Z" style="fill:#fff"/><path d="M233.61,130.53a15.6,15.6,0,0,1,15.6,15.6V276.25a11.33,11.33,0,0,1-11.33,11.33H140.45a11.32,11.32,0,0,1-11.32-11.33V146.13a15.59,15.59,0,0,1,15.6-15.6h88.88m0-5H144.73a20.62,20.62,0,0,0-20.6,20.6V276.25a16.34,16.34,0,0,0,16.32,16.33h97.43a16.34,16.34,0,0,0,16.33-16.33V146.13a20.62,20.62,0,0,0-20.6-20.6Z" style="fill:#005596"/><path d="M140.4,210.2h97.54a0,0,0,0,1,0,0v43.44a22.14,22.14,0,0,1-22.14,22.14H162.54a22.14,22.14,0,0,1-22.14-22.14V210.2a0,0,0,0,1,0,0Z" style="fill:#fff;stroke:#005596;stroke-miterlimit:10;stroke-width:4px"/><path d="M160.24,246.3a6,6,0,0,1-6-6V167.64h12v72.67A6,6,0,0,1,160.24,246.3Z" style="fill:#fff"/><path d="M164.23,169.64V240.3a4,4,0,1,1-8,0V169.64h8m4-4h-16V240.3a8,8,0,1,0,16,0V165.64Z" style="fill:#005596"/><path d="M218.1,246.3a6,6,0,0,1-6-6V167.64h12v72.67A6,6,0,0,1,218.1,246.3Z" style="fill:#fff"/><path d="M222.09,169.64V240.3a4,4,0,1,1-8,0V169.64h8m4-4h-16V240.3a8,8,0,1,0,16,0V165.64Z" style="fill:#005596"/><path d="M139.45,115.1h99.44A16.86,16.86,0,0,1,255.75,132v36a0,0,0,0,1,0,0H122.59a0,0,0,0,1,0,0V132A16.86,16.86,0,0,1,139.45,115.1Z" style="fill:#fff;stroke:#005596;stroke-miterlimit:10;stroke-width:5px"/><path d="M441.1,307a1.56,1.56,0,0,1-.59-.12L338.45,262.43a1.44,1.44,0,0,1-.87-1.32V168.58a1.46,1.46,0,0,1,1.45-1.45,1.36,1.36,0,0,1,.58.13l102.06,44.47a1.44,1.44,0,0,1,.87,1.33v92.52A1.45,1.45,0,0,1,441.1,307Z" style="fill:#fff"/><path d="M340.08,170.19l100,43.56V304l-100-43.56V170.19M339,164.63a4,4,0,0,0-3.95,4v92.53a4,4,0,0,0,2.37,3.62L439.52,309.2a3.86,3.86,0,0,0,1.58.33,3.94,3.94,0,0,0,3.94-3.95V213.06a4,4,0,0,0-2.37-3.62L340.61,165a4.11,4.11,0,0,0-1.58-.33Z" style="fill:#005596"/><path d="M436,215.86v82.28a.28.28,0,0,1-.26.27.21.21,0,0,1-.1,0l-91.42-39.84a.25.25,0,0,1-.16-.24V176a.28.28,0,0,1,.26-.27l.11,0,91.41,39.84A.26.26,0,0,1,436,215.86Z" style="fill:#fff;stroke:#005596;stroke-miterlimit:10;stroke-width:3px"/><path d="M443.24,321.82l-67.58,35.74a2.3,2.3,0,0,1-2,.08L266.1,310.77a2.32,2.32,0,0,1-1.39-2.12v-2.86a2.31,2.31,0,0,1,1.23-2L333.52,268a2.34,2.34,0,0,1,2-.07L443.08,314.8a2.31,2.31,0,0,1,1.39,2.11v2.87A2.33,2.33,0,0,1,443.24,321.82Z" style="fill:#fff;stroke:#005596;stroke-miterlimit:10;stroke-width:5px"/><path d="M373.28,350.34l-104-45.91a1.29,1.29,0,0,1-.08-2.33l64.5-33.69a1.3,1.3,0,0,1,1.12-.05l104.86,44.86a1.3,1.3,0,0,1,.09,2.34l-65.33,34.73A1.32,1.32,0,0,1,373.28,350.34Z" style="fill:#fff;stroke:#005596;stroke-miterlimit:10;stroke-width:3px"/><path d="M312,292.38a.12.12,0,0,1,0-.1l26.75-14.93,80.66,36.35a.09.09,0,0,1,0,.1l-26.73,14.91Z" style="fill:#fff"/><path d="M338.75,279l77.43,34.87L392.59,327l-77.43-34.87L338.75,279m-.07-3.18a1.47,1.47,0,0,0-.71.18l-26.72,14.87a1.61,1.61,0,0,0,.11,2.84l80.7,36.34a1.38,1.38,0,0,0,.6.13,1.4,1.4,0,0,0,.71-.19l26.72-14.87a1.6,1.6,0,0,0-.11-2.83L339.28,276a1.41,1.41,0,0,0-.6-.13Z" style="fill:#005596"/><polygon points="308.83 315.26 324.23 307.4 357.28 321.45 341.88 329.32 308.83 315.26" style="fill:#fff"/><path d="M324.29,309.05l29.45,12.53-11.91,6.09-29.46-12.53,11.92-6.09m-.07-3.18a1.22,1.22,0,0,0-.56.14l-16,8.18a1.23,1.23,0,0,0,.08,2.23l33.69,14.33a1.37,1.37,0,0,0,.48.1,1.26,1.26,0,0,0,.57-.14l16-8.18a1.23,1.23,0,0,0-.08-2.23L324.7,306a1.15,1.15,0,0,0-.48-.1Z" style="fill:#005596"/><polygon points="344.35 205.12 344.24 195.43 362.82 183.93 371.85 188 344.35 205.12" style="fill:#fff;stroke:#005596;stroke-miterlimit:10;stroke-width:3px"/><polygon points="344.19 239.22 344.35 224.83 389.95 195.74 403.25 201.43 344.19 239.22" style="fill:#fff;stroke:#005596;stroke-miterlimit:10;stroke-width:3px"/><path d="M230.87,438.53c6-3.58,50.49-30.23,60-35.95a1.22,1.22,0,0,0,0-2.11l-89.52-47.24" style="fill:#005596;stroke:#005596;stroke-linecap:round;stroke-linejoin:round;stroke-width:5px"/><polygon points="138.76 386.36 138.51 370.98 197.28 337.56 287.45 385.86 287.7 404.27 229.18 439.1 138.76 386.36" style="fill:#fff"/><path d="M197.32,340.42,285,387.37l.21,15.49-56,33.34-87.93-51.29L141,372.42l56.29-32m-.07-5.71-2.4,1.36-56.29,32L136,369.54l.05,3,.21,12.49,0,2.82,2.43,1.42,87.93,51.29,2.54,1.49,2.53-1.51,56-33.35,2.49-1.47,0-2.89L290,387.3l0-2.95-2.6-1.39L199.68,336l-2.43-1.3Z" style="fill:#005596"/><path d="M228,439.6a3.74,3.74,0,0,1-1.85-.49l-85.7-47.59a3.78,3.78,0,0,1-1.94-3.21l-.29-18A3.79,3.79,0,0,1,140,367l57.34-34.4a4.95,4.95,0,0,1,4.9-.08l87.06,45.94a3.68,3.68,0,0,1,.15,6.4c-9,5.41-50.16,30.05-57.82,34.64,0,4.26.12,16.25.12,16.25a3.79,3.79,0,0,1-1.11,2.71A3.84,3.84,0,0,1,228,439.6Z" style="fill:#fff"/><path d="M199.89,334.41a2.45,2.45,0,0,1,1.17.3l87.1,46a1.18,1.18,0,0,1,0,2.05c-9.27,5.57-52.6,31.5-58.41,35a1.29,1.29,0,0,0-.63,1.14c0,3.45.12,16.93.12,16.93A1.33,1.33,0,0,1,228,437.1a1.39,1.39,0,0,1-.64-.17l-85.7-47.59a1.28,1.28,0,0,1-.65-1.08l-.29-18a1.31,1.31,0,0,1,.63-1.15l57.34-34.39a2.39,2.39,0,0,1,1.24-.34m0-5a7.41,7.41,0,0,0-3.81,1l-57.34,34.39a6.34,6.34,0,0,0-3.06,5.53l.3,18a6.25,6.25,0,0,0,3.21,5.36l85.7,47.59a6.3,6.3,0,0,0,7.55-1.07,6.26,6.26,0,0,0,1.84-4.49s-.07-9.8-.11-14.83c11.19-6.7,48.12-28.81,56.6-33.91a6.18,6.18,0,0,0-.18-10.7l0,0-.05,0L203.42,330.3a7.49,7.49,0,0,0-3.53-.89Z" style="fill:#005596"/><line x1="226.24" y1="416.49" x2="144.77" y2="371.24" style="fill:#fff;stroke:#005596;stroke-linecap:round;stroke-linejoin:round;stroke-width:4px"/><path d="M233.18,406.4c4.8-2.87,40.63-24.32,48.29-28.92a1,1,0,0,0,0-1.7l-72-38" style="fill:none;stroke:#005596;stroke-linecap:round;stroke-linejoin:round;stroke-width:5px"/><polygon points="276.76 365.26 206.24 327.49 160.96 353.23 161.12 363.28 232 406.86 276.92 379.86 276.76 365.26" style="fill:#fff;stroke:#005596;stroke-miterlimit:10;stroke-width:5px"/><path d="M230.89,407.77a3.59,3.59,0,0,1-1.72-.45l-69-38.29a3.52,3.52,0,0,1-1.8-3l-.24-14.46a3.57,3.57,0,0,1,1.73-3.11L206,320.78a4.47,4.47,0,0,1,2.28-.63,4.36,4.36,0,0,1,2.15.56l70,37a3.45,3.45,0,0,1,.15,6l-46.28,27.73c0,3.64.08,12.79.08,12.79a3.5,3.5,0,0,1-1,2.53,3.59,3.59,0,0,1-2.53,1.06Z" style="fill:#fff"/><path d="M208.31,322.65a1.93,1.93,0,0,1,.94.24l70.08,37a1,1,0,0,1,0,1.65c-7.46,4.48-42.32,25.35-47,28.15a1,1,0,0,0-.51.91c0,2.77.09,13.62.09,13.62a1.06,1.06,0,0,1-1.06,1.07,1,1,0,0,1-.51-.14l-68.95-38.29a1,1,0,0,1-.52-.86l-.24-14.46a1,1,0,0,1,.51-.92l46.14-27.67a1.86,1.86,0,0,1,1-.28m0-5a6.87,6.87,0,0,0-3.56,1l-46.14,27.67a6.07,6.07,0,0,0-2.94,5.3l.24,14.45a6,6,0,0,0,3.09,5.15L228,409.5a6.05,6.05,0,0,0,7.25-1,6,6,0,0,0,1.75-4.31s0-7.2-.07-11.37l45.05-27a6,6,0,0,0-.17-10.31l-.05,0,0,0-70-37a7,7,0,0,0-3.31-.84Z" style="fill:#005596"/><line x1="229.51" y1="388.69" x2="163.96" y2="352.29" style="fill:#005596;stroke:#005596;stroke-linecap:round;stroke-linejoin:round;stroke-width:4px"/></svg>