<svg id="icon" xmlns="http://www.w3.org/2000/svg" viewBox="0 0 512 512"><path d="M490.49,255.35a234.67,234.67,0,1,1-469.34,0c0-129.6,105.07-234.67,234.67-234.67S490.49,125.75,490.49,255.35Z" style="fill:#1e4384"/><rect x="133.1" y="178.6" width="287.7" height="182.26" rx="26.97" style="fill:#fff;stroke:#1e4384;stroke-miterlimit:10;stroke-width:6px"/><rect x="102.92" y="164.22" width="287.7" height="182.26" rx="26.97" transform="translate(-54.61 67.54) rotate(-14.05)" style="fill:#fff;stroke:#1e4384;stroke-miterlimit:10;stroke-width:6px"/><rect x="250.49" y="182.8" width="121.57" height="111.22" rx="12.04" transform="translate(-48.56 82.69) rotate(-14.05)" style="fill:#b9d532"/><rect x="127.48" y="239.52" width="98.39" height="7.19" rx="3.6" transform="translate(-53.73 50.16) rotate(-14.05)" style="fill:#1e4384"/><rect x="134.5" y="267.54" width="98.39" height="7.19" rx="3.6" transform="translate(-60.32 52.7) rotate(-14.05)" style="fill:#1e4384"/><rect x="141.51" y="295.56" width="98.39" height="7.19" rx="3.6" transform="translate(-66.92 55.24) rotate(-14.05)" style="fill:#1e4384"/><rect x="250.49" y="182.8" width="121.57" height="111.22" rx="12.04" transform="translate(-48.56 82.69) rotate(-14.05)" style="fill:none;stroke:#1e4384;stroke-miterlimit:10;stroke-width:6px"/><path d="M274.48,302.74l-1-1.33-.9-1.3.55-1.55,5.47-14.43.14-.24a23.28,23.28,0,0,1,9.63-8.81c2.49-1.22,5.35-2.39,7.91-3.33a39.11,39.11,0,0,1,4.33-72.93c.54-.19,1.18-.37,2-.58l.4-.1c.67-.17,1.34-.3,2-.43a38.88,38.88,0,0,1,7.06-.65A39.08,39.08,0,0,1,343.23,260c2.71-.38,5.78-.68,8.55-.78l.83,0a23.3,23.3,0,0,1,11.82,3.26l.24.14,13,11.35-.4,1.85a3.08,3.08,0,0,1-2.27,2.28l-98.53,24.66h-2Z" style="fill:#fff"/><path d="M312.13,200.06a36.1,36.1,0,0,1,21.79,65l4.41-1.1a80,80,0,0,1,13.56-1.73h.72A20.25,20.25,0,0,1,362.9,265l11.41,10a.09.09,0,0,1-.05.16l-98.18,24.57h0c-.07,0-.12-.06-.09-.12l5.36-14.16a20.28,20.28,0,0,1,8.38-7.68,79,79,0,0,1,12.79-4.87l4.4-1.1a36.12,36.12,0,0,1-5.35-70.13c.6-.21,1.21-.37,1.83-.53l.39-.1c.62-.15,1.23-.28,1.85-.39a35.23,35.23,0,0,1,6.52-.6m0-6a41.28,41.28,0,0,0-7.61.7c-.84.15-1.54.31-2.22.47l-.39.1c-.6.15-1.4.36-2.25.65a42.1,42.1,0,0,0-10.32,75.35c-.78.34-1.54.7-2.27,1.05a26.26,26.26,0,0,0-10.86,9.94l-.3.48-.2.53-5.36,14.16a6.09,6.09,0,0,0,5.7,8.25h.75l.75-.18L375.71,281a6.09,6.09,0,0,0,2.54-10.5l-11.4-10-.42-.36-.48-.28a26.18,26.18,0,0,0-13.34-3.68l-.94,0c-.81,0-1.65.08-2.49.14A42.24,42.24,0,0,0,352.27,223a41.66,41.66,0,0,0-15.51-21,42.8,42.8,0,0,0-24.63-7.93Z" style="fill:#1e4384"/></svg>