<svg id="icon" xmlns="http://www.w3.org/2000/svg" viewBox="0 0 512 512"><path d="M490.66,256.62A234.73,234.73,0,0,1,331.09,479c-2,.68-4,1.32-6,1.94h0c-5.2,1.6-10.49,3-15.83,4.27-2.8.65-5.61,1.24-8.42,1.79A234.84,234.84,0,0,1,260,491.25c-.9,0-1.82,0-2.72,0H256q-9.34,0-18.49-.72-8.22-.63-16.28-1.84c-2-.29-4-.62-6-1h0a232.51,232.51,0,0,1-27-6.41c-2.58-.78-5.17-1.61-7.71-2.47-2.23-.75-4.42-1.54-6.61-2.36A231.49,231.49,0,0,1,142,461.76q-3.35-1.86-6.61-3.84-4.48-2.67-8.83-5.56c-2.24-1.48-4.44-3-6.62-4.55A236.09,236.09,0,0,1,88,420.44c-2.25-2.31-4.46-4.67-6.6-7.07a234.14,234.14,0,0,1-60-156.75C21.34,127,126.4,22,256,22S490.66,127,490.66,256.62Z" style="fill:#005596"/><path d="M153.72,124.45l-2.89,1.68-5.11,2.94-9.06,5.24s-13.36-21.69-16.33-26.48a13.72,13.72,0,0,0-4.8,10.44V243.54a13.82,13.82,0,0,0,13.8,13.8h2.59v5.11h-2.59a18.91,18.91,0,0,1-18.91-18.91V118.27a18.91,18.91,0,0,1,18.91-18.91s3.18,0,3.48,0A13,13,0,0,1,143,105.84l7.85,13.6Z" style="fill:#fff"/><path d="M223.47,124.45l2.89,1.68,5.11,2.94,9.06,5.24s13.36-21.69,16.33-26.48a13.72,13.72,0,0,1,4.8,10.44V243.54a13.82,13.82,0,0,1-13.8,13.8h-2.59v5.11h2.59a18.91,18.91,0,0,0,18.91-18.91V118.27a18.91,18.91,0,0,0-18.91-18.91s-3.18,0-3.48,0a13,13,0,0,0-10.17,6.45l-7.85,13.6Z" style="fill:#fff"/><path d="M189.21,107.77a5.29,5.29,0,0,1,5.28,5.28v5.36H182.7v-5.36a5.29,5.29,0,0,1,5.28-5.28h1.23m0-9.18H188a14.46,14.46,0,0,0-14.46,14.46v12.87a1.66,1.66,0,0,0,1.66,1.67H202a1.66,1.66,0,0,0,1.66-1.67V113.05a14.46,14.46,0,0,0-14.46-14.46Z" style="fill:#b9d532"/><path d="M139.88,289.64a12.85,12.85,0,0,1-12.83-12.83V146.69a17.14,17.14,0,0,1,17.11-17.11H233a17.14,17.14,0,0,1,17.11,17.11V276.81a12.85,12.85,0,0,1-12.83,12.83Z" style="fill:#fff"/><path d="M233,131.08a15.61,15.61,0,0,1,15.61,15.61V276.81a11.33,11.33,0,0,1-11.33,11.33H139.88a11.33,11.33,0,0,1-11.33-11.33V146.69a15.61,15.61,0,0,1,15.61-15.61H233m0-3H144.16a18.63,18.63,0,0,0-18.61,18.61V276.81a14.35,14.35,0,0,0,14.33,14.33h97.43a14.35,14.35,0,0,0,14.33-14.33V146.69A18.63,18.63,0,0,0,233,128.08Z" style="fill:#005596"/><path d="M139.83,210.75h97.54a0,0,0,0,1,0,0v43.44a22.14,22.14,0,0,1-22.14,22.14H162a22.14,22.14,0,0,1-22.14-22.14V210.75A0,0,0,0,1,139.83,210.75Z" style="fill:#c1d82f"/><path d="M159.66,247.85a6,6,0,0,1-6-6V169.19h12v72.67A6,6,0,0,1,159.66,247.85Z" style="fill:#c1d82f"/><path d="M163.65,171.19v70.67a4,4,0,0,1-8,0V171.19h8m4-4h-16v74.67a8,8,0,0,0,16,0V167.19Z" style="fill:#005596"/><path d="M217.53,247.85a6,6,0,0,1-6-6V169.19h12v72.67A6,6,0,0,1,217.53,247.85Z" style="fill:#c1d82f"/><path d="M221.52,171.19v70.67a4,4,0,1,1-8,0V171.19h8m4-4h-16v74.67a8,8,0,0,0,8,8h0a8,8,0,0,0,8-8V167.19Z" style="fill:#005596"/><path d="M138.88,115.65h99.44a16.86,16.86,0,0,1,16.86,16.86v36a0,0,0,0,1,0,0H122a0,0,0,0,1,0,0v-36A16.86,16.86,0,0,1,138.88,115.65Z" style="fill:#c1d82f;stroke:#005596;stroke-miterlimit:10;stroke-width:4px"/><path d="M438.94,309.76,336.88,265.28a4,4,0,0,1-2.37-3.62V169.14a3.94,3.94,0,0,1,5.52-3.62L442.1,210a4,4,0,0,1,2.37,3.62v92.53A4,4,0,0,1,438.94,309.76Z" style="fill:#c1d82f"/><path d="M435.2,301.35a2.63,2.63,0,0,1-1.06-.23l-91.42-39.83a2.65,2.65,0,0,1-1.59-2.43V176.58a2.63,2.63,0,0,1,3.71-2.43L436.26,214a2.65,2.65,0,0,1,1.59,2.43v82.27A2.67,2.67,0,0,1,435.2,301.35Z" style="fill:#005596"/><path d="M343.78,176.54h0l91.44,39.87v82.29l-.05,0h0l-91.44-39.87V176.57a0,0,0,0,1,0,0m0-5.23a5.27,5.27,0,0,0-5.26,5.27v82.28a5.25,5.25,0,0,0,3.16,4.82l91.42,39.84a5.26,5.26,0,0,0,7.36-4.83V216.42a5.27,5.27,0,0,0-3.16-4.83l-91.42-39.83a5.16,5.16,0,0,0-2.1-.45Z" style="fill:#fff"/><path d="M442.66,322.37l-67.57,35.75a2.32,2.32,0,0,1-2,.07L265.53,311.32a2.28,2.28,0,0,1-1.39-2.11v-2.87a2.31,2.31,0,0,1,1.23-2L333,268.56a2.3,2.3,0,0,1,2-.08l107.56,46.87a2.31,2.31,0,0,1,1.38,2.12v2.86A2.3,2.3,0,0,1,442.66,322.37Z" style="fill:#fff"/><path d="M372.71,350.89,270.28,306.25a1.29,1.29,0,0,1-.09-2.33l64-33.86a1.29,1.29,0,0,1,1.12,0l102.44,44.64a1.29,1.29,0,0,1,.08,2.33l-64,33.86A1.32,1.32,0,0,1,372.71,350.89Z" style="fill:#c1d82f"/><path d="M391.48,330.64l-80.7-36.34a1.6,1.6,0,0,1-.11-2.83l26.72-14.87a1.46,1.46,0,0,1,1.32-.06l80.7,36.34a1.61,1.61,0,0,1,.11,2.84L392.8,330.59A1.49,1.49,0,0,1,391.48,330.64Z" style="fill:#fff"/><path d="M340.84,331.3,307.15,317a1.24,1.24,0,0,1-.08-2.24l16-8.18a1.22,1.22,0,0,1,1,0l33.69,14.33a1.23,1.23,0,0,1,.08,2.23l-16,8.19A1.22,1.22,0,0,1,340.84,331.3Z" style="fill:#fff"/><polygon points="342.12 206.14 342.43 196.68 362.54 183.85 371.6 187.34 342.12 206.14" style="fill:#fff"/><polygon points="343.04 239.94 341.99 226.69 391.33 195.21 402.87 201.77 343.04 239.94" style="fill:#fff"/><polygon points="286.11 400.19 199.15 353.7 140.64 387.23 140.67 389.05 227.65 437.35 286.13 402.01 286.11 400.19" style="fill:#c1d82f"/><path d="M228.9,438.76c6-3.58,50.5-30.23,60-36a1.22,1.22,0,0,0,0-2.11l-89.52-47.23" style="fill:#005596;stroke:#fff;stroke-linecap:round;stroke-linejoin:round;stroke-width:3px"/><polygon points="284.39 387.92 196.74 340.98 140.46 372.97 140.67 385.46 228.35 434.15 284.6 400.41 284.39 387.92" style="fill:#c1d82f"/><path d="M227.38,439.15a2.74,2.74,0,0,1-1.36-.36l-85.7-47.59a2.76,2.76,0,0,1-1.42-2.36l-.3-18a2.85,2.85,0,0,1,1.37-2.46L197.31,334a3.89,3.89,0,0,1,3.9-.07l87.08,45.95a2.68,2.68,0,0,1,.11,4.66c-9.23,5.54-52.15,31.24-58.32,34.93,0,3.6.12,16.82.12,16.82a2.75,2.75,0,0,1-.81,2,2.82,2.82,0,0,1-2,.84Z" style="fill:#fff"/><path d="M199.32,335a2.45,2.45,0,0,1,1.17.3l87.1,46a1.19,1.19,0,0,1,0,2c-9.27,5.57-52.59,31.51-58.4,35a1.32,1.32,0,0,0-.64,1.14c0,3.44.12,16.92.12,16.92a1.31,1.31,0,0,1-1.31,1.33,1.23,1.23,0,0,1-.64-.17l-85.7-47.59a1.25,1.25,0,0,1-.65-1.07l-.3-18a1.32,1.32,0,0,1,.64-1.15l57.34-34.4a2.49,2.49,0,0,1,1.24-.34m0-3a5.44,5.44,0,0,0-2.78.77L139.2,367.12a4.35,4.35,0,0,0-2.1,3.78l.3,18a4.27,4.27,0,0,0,2.19,3.64l85.7,47.59a4.3,4.3,0,0,0,2.1.55,4.36,4.36,0,0,0,3.06-1.28,4.25,4.25,0,0,0,1.25-3.07s-.07-11.48-.11-16c9.8-5.86,48.81-29.22,57.58-34.49a4.18,4.18,0,0,0-.13-7.24l0,0h0l-87.08-45.95a5.45,5.45,0,0,0-2.59-.66Z" style="fill:#005596"/><line x1="225.67" y1="417.04" x2="144.19" y2="371.8" style="fill:#fff;stroke:#005596;stroke-linecap:round;stroke-linejoin:round;stroke-width:3px"/><polygon points="285.48 379.08 212.3 339.95 163.06 368.17 163.09 369.7 236.29 410.35 285.5 380.61 285.48 379.08" style="fill:#c1d82f"/><path d="M237.34,411.53c5-3,42.5-25.44,50.51-30.26a1,1,0,0,0,0-1.77l-75.33-39.75" style="fill:#005596;stroke:#fff;stroke-linecap:round;stroke-linejoin:round;stroke-width:3px"/><polygon points="284.04 368.75 210.28 329.24 162.91 356.17 163.09 366.68 236.87 407.65 284.22 379.26 284.04 368.75" style="fill:#c1d82f"/><path d="M236.06,412.1a2.66,2.66,0,0,1-1.26-.33l-72.12-40a2.58,2.58,0,0,1-1.32-2.19l-.25-15.13a2.61,2.61,0,0,1,1.27-2.28l48.25-28.94a3.53,3.53,0,0,1,3.52-.06l73.28,38.66a2.5,2.5,0,0,1,1.31,2.16,2.46,2.46,0,0,1-1.21,2.18c-7.7,4.63-43.37,26-49,29.33,0,3.22.1,14,.1,14a2.55,2.55,0,0,1-.75,1.85A2.62,2.62,0,0,1,236.06,412.1Z" style="fill:#fff"/><path d="M212.44,324.18a2.05,2.05,0,0,1,1,.25l73.3,38.68a1,1,0,0,1,0,1.73l-49.15,29.44a1.1,1.1,0,0,0-.54,1c0,2.9.1,14.24.1,14.24a1.1,1.1,0,0,1-1.11,1.12,1.17,1.17,0,0,1-.53-.14l-72.13-40a1.07,1.07,0,0,1-.54-.91l-.25-15.12a1.09,1.09,0,0,1,.54-1l48.25-28.94a2,2,0,0,1,1-.29m0-3a5.08,5.08,0,0,0-2.58.71L161.6,350.84a4.13,4.13,0,0,0-2,3.59l.25,15.12A4.08,4.08,0,0,0,162,373l72.12,40.05a4.09,4.09,0,0,0,4.91-.7,4,4,0,0,0,1.19-2.92s-.06-9.22-.09-13.17c8.63-5.16,41-24.53,48.22-28.88a4,4,0,0,0-.12-6.92l0,0h0l-73.28-38.67a5.07,5.07,0,0,0-2.41-.61Z" style="fill:#005596"/><line x1="234.62" y1="393.26" x2="166.05" y2="355.18" style="fill:#fff;stroke:#005596;stroke-linecap:round;stroke-linejoin:round;stroke-width:3px"/></svg>