<svg id="icon" xmlns="http://www.w3.org/2000/svg" viewBox="0 0 512 512"><path d="M256,487.17A231.17,231.17,0,0,1,92.54,92.54,231.17,231.17,0,1,1,419.46,419.46,229.66,229.66,0,0,1,256,487.17Z" style="fill:#fff"/><path d="M256,28.33a227.74,227.74,0,0,1,88.62,437.45A227.73,227.73,0,0,1,167.38,46.22,226.27,226.27,0,0,1,256,28.33m0-7C126.4,21.33,21.33,126.4,21.33,256S126.4,490.67,256,490.67,490.67,385.6,490.67,256,385.6,21.33,256,21.33Z" style="fill:#005596"/><path d="M366.88,168.67a244.34,244.34,0,0,0-64.44,35.58c-34.93,27.32-46.26,33.48-61,35a57.44,57.44,0,0,1-59.27-36c-.29-.74-.57-1.48-.83-2.24a2.09,2.09,0,0,1,0-.24,40.36,40.36,0,0,1,4.14-9c8.38-13,21-23.9,34.3-29.84C254.42,146.38,286,146,309.74,150a155.39,155.39,0,0,0-77.16-6.56c-21,3.39-42.18,18.49-52.41,37.5-.32.6-.62,1.19-.89,1.79v-.06c0-.54,0-1.07-.06-1.61-.08-1.21,1.1-2.89.85-4.1,4.05-27.3,32.38-50.25,60.4-53.11C321.25,115.6,366.88,168.67,366.88,168.67Z" style="fill:#fff;stroke:#005596;stroke-linecap:round;stroke-linejoin:round;stroke-width:5px"/><path d="M180.94,174a20,20,0,0,1-1.68,7.89c0-.27,0-.54,0-.81a26.75,26.75,0,0,0-.5-3.64c-1.77-8.77-7.62-17.36-15-21.88a69.78,69.78,0,0,0-33.24-10.41,69.62,69.62,0,0,1,35.43,20.25c5.18,5.44,9,14,9.76,22.21h0a25.86,25.86,0,0,1-31.94,6.15c-5.87-3.14-9.54-7.63-19.43-25A109.81,109.81,0,0,0,103.5,143s28-14.33,60.26,2.87C173.51,151.1,181.13,163,180.94,174Z" style="fill:#fff;stroke:#005596;stroke-linecap:round;stroke-linejoin:round;stroke-width:5px"/><path d="M414.14,341.74c0,24.86-17.46,64.3-64.3,64.3v-9c40.28,0,55.3-33.92,55.3-55.3,0-5.35-.79-24.09-10.94-40.22-10.28-16.34-26.74-24.63-48.93-24.63-23.61,0-37.81,10.55-52.85,21.71-14.49,10.77-29.47,21.89-52.63,21.89-26.74,0-46.61-9.72-59-28.89-11-16.93-14.14-38.44-13.7-57.27-2.09-2.54-5.05-3.6-8.12-4.18-7.11-1.36-13.05.49-17.18,1.32a25,25,0,0,1,13.87-5.7c4.1-.3,10.42,0,13.13,3.14.72-15.94,2.33-27.28,5.36-34,.57-1.27,1.13-2.49,1.68-3.65.18-9.19-3.95-19.58-9.9-25.82a69.62,69.62,0,0,0-35.43-20.25,69.78,69.78,0,0,1,33.24,10.41c8.9,5.44,15.55,16.75,15.58,27.19-.8,1.73,0,2,0,0,.27-.6.57-1.19.89-1.79,10.23-19,31.45-34.11,52.41-37.5A155.39,155.39,0,0,1,309.74,150c-23.78-4-55.32-3.63-89.94,11.85-13.27,5.94-25.92,16.87-34.3,29.84-2,3-2.79,6-4.15,9.27-5.65,15.77-10.9,58.2,7,85.73,10.67,16.45,28,24.79,51.49,24.79,20.18,0,33.34-9.77,47.27-20.11,15.54-11.55,31.62-23.49,58.21-23.49,25.13,0,44.68,10,56.55,28.84C413.25,314.9,414.14,335.78,414.14,341.74Z" style="fill:#fff"/><path d="M414.71,323.3a83.69,83.69,0,0,0-10.77-27.9c-12.36-19.63-32.65-30-58.67-30-27.44,0-43.84,12.19-59.71,24C272,299.46,259.16,309,239.79,309c-22.6,0-39.22-8-49.39-23.65-17.65-27.21-12-68.75-6.7-83.52a2.33,2.33,0,0,0,.13-.56,1.8,1.8,0,0,0,0-.22,41.5,41.5,0,0,1,3.75-8c8.13-12.56,20.23-23.1,33.22-28.91,28.62-12.8,58.4-16.72,88.52-11.66a2.5,2.5,0,0,0,1.23-4.83A157.9,157.9,0,0,0,232.18,141c-20.1,3.25-40,16.53-51.44,34.11-2.31-8.79-8.34-17.15-15.74-21.67a72.17,72.17,0,0,0-34.44-10.78h-.07a2.53,2.53,0,0,0-2.51,2.17,2.5,2.5,0,0,0,1.93,2.77,66.81,66.81,0,0,1,34.17,19.53c4.81,5,8.37,13.18,9.08,20.7.09,1.08.13,2,.13,2.84l0,.11c-.46,1-.93,2-1.41,3.08-2.38,5.33-5.39,16.06-6.7,30.22l0,.52.4.34a14.22,14.22,0,0,1,1.33,1.28,1.14,1.14,0,0,0,.12.14,11.19,11.19,0,0,1,1.1,1.47l1.63,2.6.22-3.06c1.07-14.87,4.17-26.25,6.5-31.47.56-1.26,1.12-2.46,1.66-3.6a2.35,2.35,0,0,0,.24-1,37.06,37.06,0,0,0-.15-3.88c-.09-.87-.2-1.74-.34-2.61a2.67,2.67,0,0,0,1,.43,2.5,2.5,0,0,0,2.79-1.42c.26-.57.51-1.07.81-1.64,9.88-18.36,30.22-32.91,50.61-36.21a156.59,156.59,0,0,1,47.51-.54,159.09,159.09,0,0,0-61.71,14.2,84.67,84.67,0,0,0-35.38,30.77c-1.75,2.7-4.19,8.09-4.49,9.89,0,.09,0,.18,0,.26-5.45,15.63-11.13,59.09,7.33,87.56C197.36,305.27,215.39,314,239.79,314c21,0,34.48-10,48.78-20.62,15.21-11.3,30.93-23,56.7-23,24.22,0,43.05,9.57,54.43,27.67,11.08,17.6,11.94,37.88,11.94,43.68,0,23.27-16.12,60.39-59.3,61.76v-4c40.26-1.37,55.3-36,55.3-57.75,0-5.53-.82-24.85-11.32-41.55-10.77-17.12-27.94-25.8-51.05-25.8-24.43,0-38.95,10.79-54.37,22.23C276.75,307.13,262.12,318,239.79,318c-25.85,0-45-9.34-56.94-27.75-10.37-16-12.95-35.53-13.29-49.11l-.08-3.37-1.77,2.86a11.87,11.87,0,0,1-1.35,1.77,10.47,10.47,0,0,1-1.32,1.26l-.39.32,0,.51c.64,13.28,3.59,32.47,14,48.48,12.93,19.93,33.5,30,61.14,30,24,0,39.33-11.39,54.16-22.42s28.56-21.18,51.32-21.18c21.27,0,37,7.89,46.81,23.46s10.56,33.7,10.56,38.89c0,20.41-14.34,52.8-52.8,52.8a2.5,2.5,0,0,0-2.5,2.5v9a2.5,2.5,0,0,0,2.5,2.5c48.66,0,66.8-41,66.8-66.8A96.79,96.79,0,0,0,414.71,323.3Zm-247-159.64a76.48,76.48,0,0,0-9.1-8.15c1.29.68,2.56,1.41,3.81,2.17,6.78,4.14,12.22,12.09,13.87,20.25.1.46.18.91.24,1.36A39.93,39.93,0,0,0,167.69,163.66Z" style="fill:#005596"/><path d="M281.75,392.16a4.34,4.34,0,1,1,0-8.68h24.3v8.68Z" style="fill:#fff"/><path d="M304.55,385v5.68h-22.8a2.84,2.84,0,1,1,0-5.68h22.8m3-3h-25.8a5.84,5.84,0,1,0,0,11.68h25.8V382Z" style="fill:#005596"/><path d="M281.75,419.72a4.34,4.34,0,1,1,0-8.68h24.3v8.68Z" style="fill:#fff"/><path d="M304.55,412.54v5.68h-22.8a2.84,2.84,0,1,1,0-5.68h22.8m3-3h-25.8a5.84,5.84,0,1,0,0,11.68h25.8V409.54Z" style="fill:#005596"/><path d="M353.74,396.65v9.89a2.21,2.21,0,0,1-2.22,2.22h-7.77A21,21,0,0,1,324,422.57H309.29v5.16h-8.92V375.47h8.92v5.16H324a21,21,0,0,1,19.71,13.81h7.77A2.21,2.21,0,0,1,353.74,396.65Z" style="fill:#fff;stroke:#005596;stroke-linecap:square;stroke-linejoin:round;stroke-width:5px"/><path d="M156.64,226.44a29.59,29.59,0,0,0-14,4.61,29.51,29.51,0,0,1,17.23-1.75,14.58,14.58,0,0,1,8.22,5c0,1.07,0,2.16,0,3.25a11,11,0,0,1-8.83,7c-2.8.37-5.18-.28-12.87-3.82A46.85,46.85,0,0,0,132.76,237a29.1,29.1,0,0,1,21.52-13.88c5.39-.71,12,2.41,13.89,7.41l0,.74A14.55,14.55,0,0,0,156.64,226.44Z" style="fill:#fff"/><path d="M157.49,226.41l.63,0,.31,0,.53.05a5,5,0,0,1,.56.08l.4.06c.42.08.84.18,1.25.3l.43.13.28.09a13.73,13.73,0,0,1,1.23.47c.2.08.39.17.59.27s.34.16.51.26a8,8,0,0,1,.81.46,4,4,0,0,1,.38.24,12.55,12.55,0,0,1,1.3,1,2.11,2.11,0,0,1,.23.19c.21.18,2.6,2.37,2.61,2.35.05-.26.16-3.46.3-4.61,0-.16,0-.41,0-.57a12,12,0,0,0-1.18-1.5l-.18-.2a14.71,14.71,0,0,0-1.39-1.34A17.68,17.68,0,0,0,155.84,220a13.89,13.89,0,0,0-2,.13,31.93,31.93,0,0,0-23.79,15.47,3,3,0,0,0,2.38,4.37,43.8,43.8,0,0,1,12.57,3.52c7,3.24,9.92,4.18,12.8,4.18a12.84,12.84,0,0,0,1.71-.12,13.87,13.87,0,0,0,7.1-3.11,11.74,11.74,0,0,0,1.44-1.38,12.72,12.72,0,0,0,1.45-1.9c0-1.23-.05-2.42-.05-3.57,0-.26,0-.52,0-.77a20.16,20.16,0,0,0-1.64-2.65,11.27,11.27,0,0,0-1.28-1.35l-.47-.41-1-.75c-.25-.18-1.28-.83-1.56-1a14.05,14.05,0,0,0-1.42-.67l-.47-.18a12.82,12.82,0,0,0-1.88-.52,31.1,31.1,0,0,0-5.83-.56,28.92,28.92,0,0,0-7.66,1l-1,.29c-.65.2-1.28.42-1.87.65l-.87.35a29.59,29.59,0,0,1,14-4.61C156.92,226.42,157.2,226.41,157.49,226.41Zm-16,3a2,2,0,0,0,1.08,3.68,2,2,0,0,0,.78-.16A27.13,27.13,0,0,1,154,230.74a29.75,29.75,0,0,1,5.45.52,12.45,12.45,0,0,1,6,3.21c.2.19.42.48.59.68a6.36,6.36,0,0,1,1,4.3,8.47,8.47,0,0,1-.54.79,10.94,10.94,0,0,1-7.36,4.33,9.76,9.76,0,0,1-1.32.09c-2.37,0-5.08-.93-11.55-3.91A46.85,46.85,0,0,0,132.76,237a29.1,29.1,0,0,1,21.52-13.88,11.57,11.57,0,0,1,1.56-.1,14.87,14.87,0,0,1,9.35,3.42,16.51,16.51,0,0,0-7.7-2c-.34,0-.67,0-1,0A31.45,31.45,0,0,0,141.51,229.37Z" style="fill:#005596"/></svg>