<svg xmlns="http://www.w3.org/2000/svg" xmlns:xlink="http://www.w3.org/1999/xlink" viewBox="0 0 650.72 593.78"><defs><clipPath id="clip-path"><circle cx="235.35" cy="234.7" r="234.67" style="fill:none"/></clipPath></defs><g id="Layer_2" data-name="Layer 2"><g id="icon"><path d="M234.67,465.83A231.16,231.16,0,0,1,71.21,71.21,231.17,231.17,0,0,1,398.13,398.13,229.68,229.68,0,0,1,234.67,465.83Z" style="fill:#fff"/><path d="M234.67,7a227.73,227.73,0,0,1,88.61,437.45A227.73,227.73,0,0,1,146.05,24.89,226.23,226.23,0,0,1,234.67,7m0-7C105.06,0,0,105.06,0,234.67S105.06,469.33,234.67,469.33,469.33,364.27,469.33,234.67,364.27,0,234.67,0Z" style="fill:#005696"/><g style="clip-path:url(#clip-path)"><path d="M304.78,400.53H635.25a290,290,0,0,0,12-82.66c0-71.31-25.83-136.88-69.08-188.76H194" style="fill:none;stroke:#005696;stroke-miterlimit:10;stroke-width:7px"/><path d="M124.13,164.18V394.06a6.65,6.65,0,0,0,6.82,6.47h63.5" style="fill:none;stroke:#005696;stroke-miterlimit:10;stroke-width:7px"/><line x1="387.45" y1="203.89" x2="550.36" y2="203.89" style="fill:none;stroke:#005696;stroke-linecap:round;stroke-miterlimit:10;stroke-width:7px"/><line x1="314.02" y1="165.64" x2="550.36" y2="165.64" style="fill:none;stroke:#005696;stroke-linecap:round;stroke-miterlimit:10;stroke-width:7px"/><line x1="550.36" y1="241.68" x2="432.19" y2="241.68" style="fill:none;stroke:#005696;stroke-linecap:round;stroke-miterlimit:10;stroke-width:7px"/><path d="M249.37,149.55a46.58,46.58,0,0,1,15.32,90.56h32.58v0h45.44v-38.7a20.65,20.65,0,1,1,41.3,0v52.87a27.13,27.13,0,0,1-27.13,27.13H300.27V566.13a20.65,20.65,0,0,1-41.3,0V420.87H239.76V566.13a20.65,20.65,0,1,1-41.29,0V361.89A20.64,20.64,0,0,1,174.66,358l-27.37-27.37-10-10a27.11,27.11,0,0,1,0-38.36l32-32a34.61,34.61,0,0,1,24.47-10.13H234a46.58,46.58,0,0,1,15.33-90.56m-50.9,173.87v-44l-22,22,22,22m50.9-180.87a53.57,53.57,0,0,0-38.75,90.56H193.75a41.33,41.33,0,0,0-29.42,12.18l-32,32a34.16,34.16,0,0,0,0,48.26l10,10L169.71,363a27.46,27.46,0,0,0,19.54,8.1q1.11,0,2.22-.09V566.13a27.65,27.65,0,1,0,55.29,0V427.87H252V566.13a27.65,27.65,0,1,0,55.3,0V288.37h49.61A34.17,34.17,0,0,0,391,254.24V201.37a27.65,27.65,0,1,0-55.3,0v31.7H297.27c-.22,0-.45,0-.66,0h-8.49a53.58,53.58,0,0,0-38.75-90.56Zm-63,158.89,5.08-5.08v10.16l-5.08-5.08Z" style="fill:#005696"/><path d="M182.94,77.83a6.85,6.85,0,0,1,6.85,6.85v68.83a6.86,6.86,0,0,1-6.85,6.86H169.62v31a1.72,1.72,0,0,1-1.73,1.72,1.68,1.68,0,0,1-1.2-.51L135,160.87a1.72,1.72,0,0,0-1.21-.5H61.47a6.86,6.86,0,0,1-6.86-6.86V84.68a6.86,6.86,0,0,1,6.86-6.85H182.94m0-7H61.47A13.87,13.87,0,0,0,47.61,84.68v68.83a13.88,13.88,0,0,0,13.86,13.86h70.14l30.13,30.13a8.64,8.64,0,0,0,6.15,2.56,8.74,8.74,0,0,0,8.73-8.72v-24h6.32a13.88,13.88,0,0,0,13.85-13.86V84.68a13.87,13.87,0,0,0-13.85-13.85Z" style="fill:#005696"/><path d="M153.2,134.14c-9.38,5.36-18.89,8.66-30.76,8.66-11.7,0-20.92-4.5-30.39-8.42.61-1.74,1.36-11.85,2.25-13.43l28.81,9.1a1.12,1.12,0,0,0,.7,0l27.34-7.66C152,123.83,152.63,132.58,153.2,134.14Z" style="fill:none;stroke:#005696;stroke-linejoin:round;stroke-width:6px"/><path d="M122.1,94.63a1.34,1.34,0,0,1,.35.05l43.12,13.63,4.07,1.29a1.15,1.15,0,0,1,0,2.19L162,114.27l-10.83,3.52-27.34,8.86a1.13,1.13,0,0,1-.36.06,1,1,0,0,1-.34-.06l-28.81-9.1-11.73-3.71-6.65-2.1a1.15,1.15,0,0,1,0-2.19l3.46-1.12,42.38-13.74a1.12,1.12,0,0,1,.35-.06m0-6a7.23,7.23,0,0,0-2.2.35L77.51,102.72l-3.45,1.13a7.15,7.15,0,0,0,0,13.61l6.65,2.1,11.74,3.71,28.8,9.11a7.27,7.27,0,0,0,2.15.33,7.13,7.13,0,0,0,2.2-.35L153,123.49,163.83,120l7.67-2.48a7.15,7.15,0,0,0-.05-13.62l-4.08-1.29L124.26,89a7.41,7.41,0,0,0-2.16-.33Z" style="fill:#005696"/><polyline points="120.36 110.67 94.05 120.95 90.05 145.71" style="fill:none;stroke:#005696;stroke-linecap:round;stroke-miterlimit:10;stroke-width:6px"/></g></g></g></svg>