<svg id="icon" xmlns="http://www.w3.org/2000/svg" viewBox="0 0 512 512"><path d="M487,256a234.47,234.47,0,0,1-68.73,165.93q-6,6-12.48,11.6c-2.86,2.48-5.78,4.9-8.76,7.22a232.11,232.11,0,0,1-19.88,14q-6.48,4.1-13.25,7.75a234.32,234.32,0,0,1-36.47,15.9q-3,1-6,1.93h0c-2.13.67-4.28,1.28-6.44,1.88q-4.65,1.29-9.39,2.39c-2.79.65-5.6,1.24-8.42,1.8l-2.35.43a233.43,233.43,0,0,1-38.5,3.8c-.91,0-1.82,0-2.73,0h-1.25q-9.33,0-18.49-.72-8.2-.65-16.27-1.85-3-.44-6-1h0a232.53,232.53,0,0,1-27-6.42c-2.59-.77-5.17-1.61-7.72-2.47q-3.33-1.12-6.61-2.35a233.74,233.74,0,0,1-31.93-14.76c-2.23-1.24-4.43-2.53-6.61-3.85q-4.48-2.67-8.84-5.55c-2.23-1.49-4.44-3-6.61-4.56a235.48,235.48,0,0,1-31.92-27.37q-3.37-3.46-6.61-7.07-7.44-8.28-14.09-17.27c-4.08-5.5-7.92-11.21-11.52-17.06-1.28-2.11-2.54-4.21-3.74-6.35h0a233,233,0,0,1-27.59-77.91c-.1-.59-.19-1.17-.28-1.74q-.48-3.12-.89-6.23c-.14-1.14-.28-2.26-.4-3.41-.43-3.67-.75-7.37-1-11.09,0-.18,0-.38,0-.56-.2-3-.34-6.09-.4-9.14-.07-2-.09-4-.09-6q0-11.15,1-22c.1-1.05.2-2.12.32-3.18.37-3.55.84-7.11,1.38-10.61.17-1.11.34-2.21.53-3.3q1-6.09,2.35-12.06a230.66,230.66,0,0,1,7.62-26.65q.19-.61.42-1.2,2.62-7.33,5.71-14.43c.45-1,.91-2,1.37-3.09a234.76,234.76,0,0,1,427.07-1.79q3.73,8.06,6.85,16.45,2.1,5.59,3.89,11.32a232.72,232.72,0,0,1,9.92,50.19C486.65,242.33,487,249.14,487,256Z" style="fill:#005596"/><path d="M314.93,482.2q-4.65,1.29-9.39,2.39c-2.79.65-5.6,1.24-8.42,1.8l-2.35.43c-12-41.54-26-74-43.28-99.46q-4.92-7.28-10.19-13.81l-.57-.69a177.76,177.76,0,0,0-20.13-21V343.2a250.53,250.53,0,0,1,20.13,17.13q6.6,6.26,13,13.22,6,6.57,11.71,13.81,7.24,9.17,14,19.47,4.41,6.74,8.58,14,5.44,9.51,10.44,19.91,3.25,6.79,6.29,14Q310.2,467.78,314.93,482.2Z" style="fill:#fff"/><path d="M146.89,313.78c-32.56-13.12-73.23-20-126.46-21.38q-.48-3.12-.89-6.23c44.66,1.08,80.7,6,110.68,15.16l1,.77v.07Z" style="fill:#fff"/><path d="M418.22,421.92q-6,6-12.48,11.6Q403,427,400,420.83c-2.3-4.84-4.68-9.52-7.13-14q-5.64-10.35-11.8-19.47-4.92-7.28-10.19-13.81a173.43,173.43,0,0,0-41.84-37.62c-18.41-11.76-39.77-20.62-65.42-26.77a354.86,354.86,0,0,0-43.06-7.38v-6.22c4.26.47,8.41,1,12.48,1.58s7.85,1.16,11.64,1.83c1.42.23,2.82.48,4.21.75q4.38.79,8.61,1.71a272.11,272.11,0,0,1,28.85,7.73,201.4,201.4,0,0,1,46,21.56,252.2,252.2,0,0,1,50.9,42.83q6,6.57,11.71,13.81A274,274,0,0,1,418.22,421.92Z" style="fill:#fff"/><rect x="275.71" y="406.83" width="125.94" height="14" style="fill:#fff"/><path d="M397,440.74a232.11,232.11,0,0,1-19.88,14H286v-14Z" style="fill:#fff"/><path d="M403.11,157.49V355a18.66,18.66,0,0,1-18.57,18.56H239.18A18.67,18.67,0,0,1,220.6,355V157.49c0-10.17,8.16-21.11,18.28-23.59a310.19,310.19,0,0,1,146,0C395,136.38,403.11,147.32,403.11,157.49Z" style="fill:#c1d82f"/><path d="M242.08,387.37a99.52,99.52,0,0,1,0-74.22h169a103.45,103.45,0,0,0,0,74.22Z" style="fill:#fff"/><path d="M408.23,315.15a106.23,106.23,0,0,0,0,70.22H243.45a98.22,98.22,0,0,1,0-70.22H408.23m5.81-4H240.74a102.13,102.13,0,0,0,0,78.22H414a102.22,102.22,0,0,1,0-78.22Z" style="fill:#005596"/><circle cx="304.45" cy="228.36" r="6.13" style="fill:#005596"/><circle cx="319.35" cy="228.36" r="6.13" style="fill:#005596"/><rect x="289.7" y="157.61" width="44.4" height="49.85" rx="5.64" style="fill:#fff"/><path d="M328.46,159.61a3.64,3.64,0,0,1,3.63,3.64v38.57a3.64,3.64,0,0,1-3.63,3.64H295.34a3.64,3.64,0,0,1-3.64-3.64V163.25a3.65,3.65,0,0,1,3.64-3.64h33.12m0-4H295.34a7.64,7.64,0,0,0-7.64,7.64v38.57a7.64,7.64,0,0,0,7.64,7.64h33.12a7.64,7.64,0,0,0,7.63-7.64V163.25a7.64,7.64,0,0,0-7.63-7.64Z" style="fill:#005596"/><rect x="235.04" y="157.61" width="44.4" height="49.85" rx="5.64" style="fill:#fff"/><path d="M273.79,159.61a3.65,3.65,0,0,1,3.64,3.64v38.57a3.64,3.64,0,0,1-3.64,3.64H240.67a3.64,3.64,0,0,1-3.63-3.64V163.25a3.64,3.64,0,0,1,3.63-3.64h33.12m0-4H240.67a7.64,7.64,0,0,0-7.63,7.64v38.57a7.64,7.64,0,0,0,7.63,7.64h33.12a7.64,7.64,0,0,0,7.64-7.64V163.25a7.64,7.64,0,0,0-7.64-7.64Z" style="fill:#005596"/><circle cx="239.17" cy="296.37" r="6.13" style="fill:#005596"/><circle cx="254.07" cy="296.37" r="6.13" style="fill:#005596"/><rect x="344.36" y="157.61" width="44.4" height="49.85" rx="5.64" style="fill:#fff"/><path d="M383.12,159.61a3.65,3.65,0,0,1,3.64,3.64v38.57a3.65,3.65,0,0,1-3.64,3.64H350a3.64,3.64,0,0,1-3.64-3.64V163.25a3.65,3.65,0,0,1,3.64-3.64h33.12m0-4H350a7.64,7.64,0,0,0-7.64,7.64v38.57a7.64,7.64,0,0,0,7.64,7.64h33.12a7.64,7.64,0,0,0,7.64-7.64V163.25a7.64,7.64,0,0,0-7.64-7.64Z" style="fill:#005596"/><circle cx="369.72" cy="296.37" r="6.13" style="fill:#005596"/><circle cx="384.62" cy="296.37" r="6.13" style="fill:#005596"/><path d="M403.12,251.35v5.36l-71.41,32.81a47.79,47.79,0,0,1-39.93,0l-71.17-32.7v-5.36l73.2,33.64a42.91,42.91,0,0,0,35.88,0Z" style="fill:#fff"/><path d="M146,315l-16.25-12.07v-.06l-13.17-9.79,1.49-117,13.08-5.38.93-.45,98.64-40.59v3.91l-.8.42c-6.71,3.5-11.76,11-12.3,18.36V343.77l0,6.22v7.77a16,16,0,0,0,1.17,6,16.23,16.23,0,0,0,1.47,2.8l4.64,7.08Zm-13.69-98,3.2,0,67.74,0v-4l.05-27.09V174.68L136,191.25l-3.22.78L124,194.18,123.74,217Z" style="fill:#c1d82f"/><path d="M229.22,131.91v.77c-7.16,3.73-12.55,11.79-13.1,19.61,0,.13,0,.22,0,.35h0V343.77l0,6.22v7.77a17.41,17.41,0,0,0,1.28,6.58,17.2,17.2,0,0,0,1.6,3.07l-72.13-53.63-15.64-11.61v-.07l-1-.77-12.13-9,1.46-115.22,13.1-5.38v-.07l96.57-39.74m-107,86.54h10.09l3.21,0,69.23,0V213l.05-27.1V172.76l-69.19,17-3,.72-.25.06L122.54,193l-.32,25.45m110-91-4.14,1.7-96.57,39.74-1.86.77v.07l-11.24,4.62-1.83.75,0,2-1.46,115.22,0,1.53,1.24.91,11.94,8.88v.06l1.21.9,15.64,11.62,72.13,53.62,13.59,10.1-9.29-14.15a14.71,14.71,0,0,1-2.39-8V350l0-6.22V152.4c.52-6.69,5.33-13.86,11.49-17.06l1.61-.85v-7.06ZM125.51,195.36l7.62-1.87.23-.06,3-.72,65.48-16.12v9.26l-.05,27.09v2.46l-66.23,0-3.22,0h-7l.25-20.09Z" style="fill:#005596"/><path d="M216.13,152.29v.34h0C216.11,152.52,216.13,152.41,216.13,152.29Z" style="fill:#fff"/><polygon points="124.25 216.45 124.52 194.58 136.1 191.73 202.81 175.32 202.8 185.85 202.76 212.94 202.76 216.39 135.52 216.44 132.3 216.45 124.25 216.45" style="fill:#fff"/><path d="M200.81,177.87v8l0,27.09v1.45l-65.26.05h-9.22l.22-18.3,6.83-1.68.29-.07,3-.72,64.23-15.81m4-5.1-69.19,17-3,.73-.26.06L122.54,193l-.31,25.45h13.29l69.24-.05v-5.45l0-27.09,0-13.08Z" style="fill:#005596"/><polygon points="49.67 282.23 114.4 291.92 115.72 177.53 50.65 196.9 49.67 282.23" style="fill:#c1d82f"/><polygon points="55.6 210.29 108.11 198.1 107.88 217.97 55.43 225.11 55.6 210.29" style="fill:#fff"/><path d="M106.08,200.63l-.18,15.59-48.44,6.59.12-10.92,48.5-11.26m4.06-5Zm0,0L53.62,208.7l-.22,18.7,56.46-7.68.28-24.14Z" style="fill:#005596"/><path d="M47.64,197.08l-1.13,85-27.37.65c-.43-3.67-.75-7.37-1-11.09,0-.18,0-.38,0-.56-.2-3-.34-6.09-.4-9.14-.07-2-.09-4-.09-6q0-11.15,1-22c.1-1.05.2-2.12.32-3.18.37-3.55.84-7.11,1.38-10.61.17-1.11.34-2.21.53-3.3q1-6.09,2.35-12.06Z" style="fill:#c1d82f"/><path d="M42.26,211,42,229,18.64,234c.1-1.05.2-2.12.32-3.18.37-3.55.84-7.11,1.38-10.61.17-1.11.34-2.21.53-3.3Z" style="fill:#fff"/><path d="M20.87,216.88c-.19,1.09-.36,2.19-.53,3.3L39.21,215l-.16,11.63L19,230.79c-.12,1.06-.22,2.13-.32,3.18L42,229l.24-18Z" style="fill:#005596"/></svg>