<svg id="icon" xmlns="http://www.w3.org/2000/svg" viewBox="0 0 512 512"><path d="M256,487.17A231.17,231.17,0,0,1,92.54,92.54,231.17,231.17,0,1,1,419.46,419.46,229.66,229.66,0,0,1,256,487.17Z" style="fill:#fff"/><path d="M256,28.33a227.74,227.74,0,0,1,88.62,437.45A227.73,227.73,0,0,1,167.38,46.22,226.27,226.27,0,0,1,256,28.33m0-7C126.4,21.33,21.33,126.4,21.33,256S126.4,490.67,256,490.67,490.67,385.6,490.67,256,385.6,21.33,256,21.33Z" style="fill:#005596"/><path d="M419.87,418.25q-6,6-12.48,11.61-2.76-6.56-5.7-12.69H289.63q5.44,9.49,10.44,19.91h98.56a234.36,234.36,0,0,1-19.88,14H306.36q5.49,13,10.22,27.45-4.65,1.31-9.39,2.4c-2.79.65-5.6,1.24-8.42,1.79l-2.35.44c-12.05-41.54-26.05-74-43.28-99.46q-4.92-7.27-10.19-13.81l-.57-.69c-6.29-7.73-6.57-18.75,0-12.53q6.6,6.25,13,13.22,6,6.57,11.71,13.81,7.24,9.17,14,19.46H394.55q-5.62-10.37-11.79-19.46-4.92-7.27-10.19-13.81a173.22,173.22,0,0,0-41.84-37.62c-18.41-11.77-39.77-20.62-65.42-26.78-13.16-3.16-22.73-10.85-18.94-10.19,1.42.24,2.82.49,4.21.75q4.38.81,8.61,1.71A274.54,274.54,0,0,1,288,305.49a202.25,202.25,0,0,1,46,21.56A252.59,252.59,0,0,1,385,369.89q6,6.57,11.71,13.81A273.87,273.87,0,0,1,419.87,418.25Z" style="fill:#fff;stroke:#005596;stroke-linecap:round;stroke-linejoin:round;stroke-width:8px"/><path d="M151.18,313.86c-32.56-13.13-73.23-20-126.46-21.39q-.48-3.11-.89-6.23c44.66,1.09,80.7,6,110.68,15.17l1,.77v.06Z" style="fill:#005596"/><path d="M243.47,370.13a15.15,15.15,0,0,1-15.08-15.07V157.57c0-8.73,7.3-18.17,15.61-20.2a307,307,0,0,1,144.31,0c8.3,2,15.59,11.48,15.59,20.2V355.06a15.13,15.13,0,0,1-15.08,15.07Z" style="fill:#fff"/><path d="M316.15,132.27a303.62,303.62,0,0,1,71.31,8.5c6.77,1.66,12.94,9.66,12.94,16.8V355.06a11.62,11.62,0,0,1-11.57,11.57H243.5a11.64,11.64,0,0,1-11.61-11.57V157.57c0-7.13,6.18-15.15,12.92-16.8a304,304,0,0,1,71.34-8.5m0-7a310.43,310.43,0,0,0-73,8.7c-10.12,2.48-18.27,13.43-18.28,23.6V355.06a18.68,18.68,0,0,0,18.58,18.57H388.83a18.67,18.67,0,0,0,18.57-18.57V157.57c0-10.17-8.16-21.12-18.27-23.6a310.43,310.43,0,0,0-73-8.7Z" style="fill:#005596"/><path d="M247.39,385.94a97.89,97.89,0,0,1,0-71.21H413.22a104.82,104.82,0,0,0,0,71.21Z" style="fill:#fff"/><path d="M408.37,318.23a109.33,109.33,0,0,0,0,64.21H249.82a95.15,95.15,0,0,1,0-64.21H408.37m10-7H245a102.2,102.2,0,0,0,0,78.21H418.33a102.11,102.11,0,0,1,0-78.21Z" style="fill:#005596"/><circle cx="308.73" cy="228.44" r="4.63" style="fill:#fff"/><path d="M308.73,225.3a3.14,3.14,0,1,1-3.13,3.14,3.15,3.15,0,0,1,3.13-3.14m0-3a6.14,6.14,0,1,0,6.14,6.14,6.13,6.13,0,0,0-6.14-6.14Z" style="fill:#005596"/><path d="M323.63,233.07a4.64,4.64,0,1,1,4.64-4.63A4.64,4.64,0,0,1,323.63,233.07Z" style="fill:#fff"/><path d="M323.63,225.3a3.14,3.14,0,1,1-3.13,3.14,3.15,3.15,0,0,1,3.13-3.14m0-3a6.14,6.14,0,1,0,6.14,6.14,6.13,6.13,0,0,0-6.14-6.14Z" style="fill:#005596"/><rect x="294.48" y="158.19" width="43.4" height="48.85" rx="5.14" style="fill:#fff"/><path d="M332.74,160.69a2.64,2.64,0,0,1,2.64,2.63V201.9a2.64,2.64,0,0,1-2.64,2.64H299.62A2.65,2.65,0,0,1,297,201.9V163.32a2.64,2.64,0,0,1,2.64-2.63h33.12m0-5H299.62a7.64,7.64,0,0,0-7.64,7.63V201.9a7.64,7.64,0,0,0,7.64,7.64h33.12a7.64,7.64,0,0,0,7.64-7.64V163.32a7.64,7.64,0,0,0-7.64-7.63Z" style="fill:#005596"/><rect x="239.82" y="158.19" width="43.4" height="48.85" rx="5.14" style="fill:#fff"/><path d="M278.08,160.69a2.64,2.64,0,0,1,2.64,2.63V201.9a2.64,2.64,0,0,1-2.64,2.64H245a2.65,2.65,0,0,1-2.64-2.64V163.32a2.64,2.64,0,0,1,2.64-2.63h33.12m0-5H245a7.64,7.64,0,0,0-7.64,7.63V201.9a7.64,7.64,0,0,0,7.64,7.64h33.12a7.64,7.64,0,0,0,7.64-7.64V163.32a7.64,7.64,0,0,0-7.64-7.63Z" style="fill:#005596"/><circle cx="243.46" cy="296.44" r="4.63" style="fill:#fff"/><path d="M243.46,293.31a3.14,3.14,0,1,1-3.14,3.13,3.13,3.13,0,0,1,3.14-3.13m0-3a6.14,6.14,0,1,0,6.13,6.13,6.14,6.14,0,0,0-6.13-6.13Z" style="fill:#005596"/><path d="M258.36,301.08a4.64,4.64,0,1,1,4.63-4.64A4.64,4.64,0,0,1,258.36,301.08Z" style="fill:#fff"/><path d="M258.36,293.31a3.14,3.14,0,1,1-3.14,3.13,3.13,3.13,0,0,1,3.14-3.13m0-3a6.14,6.14,0,1,0,6.13,6.13,6.14,6.14,0,0,0-6.13-6.13Z" style="fill:#005596"/><rect x="349.15" y="158.19" width="43.4" height="48.85" rx="5.14" style="fill:#fff"/><path d="M387.4,160.69a2.64,2.64,0,0,1,2.64,2.63V201.9a2.64,2.64,0,0,1-2.64,2.64H354.28a2.64,2.64,0,0,1-2.63-2.64V163.32a2.63,2.63,0,0,1,2.63-2.63H387.4m0-5H354.28a7.63,7.63,0,0,0-7.63,7.63V201.9a7.63,7.63,0,0,0,7.63,7.64H387.4A7.64,7.64,0,0,0,395,201.9V163.32a7.64,7.64,0,0,0-7.64-7.63Z" style="fill:#005596"/><circle cx="374.01" cy="296.44" r="4.63" style="fill:#fff"/><path d="M374,293.31a3.14,3.14,0,1,1-3.14,3.13,3.13,3.13,0,0,1,3.14-3.13m0-3a6.14,6.14,0,1,0,6.13,6.13,6.14,6.14,0,0,0-6.13-6.13Z" style="fill:#005596"/><path d="M388.91,301.08a4.64,4.64,0,1,1,4.63-4.64A4.64,4.64,0,0,1,388.91,301.08Z" style="fill:#fff"/><path d="M388.91,293.31a3.14,3.14,0,1,1-3.14,3.13,3.13,3.13,0,0,1,3.14-3.13m0-3a6.14,6.14,0,1,0,6.13,6.13,6.14,6.14,0,0,0-6.13-6.13Z" style="fill:#005596"/><path d="M407.4,249.86v7.56l-71,33.08a48.87,48.87,0,0,1-40.77,0l-70.76-33V250l73.62,34.29a41.89,41.89,0,0,0,35,0Z" style="fill:#005596"/><path d="M153,311.44l-14.53-10.78-1.1-.89-1-.77-10.91-8.1,1.42-111.71,13.12-5.39v-.07l81.55-33.55a26.44,26.44,0,0,0-4.07,12v.11s0,.34,0,.44v3h0V343.84l0,6.23v7.76q0,.8.06,1.59Z" style="fill:#fff"/><path d="M215.58,145.85a26.71,26.71,0,0,0-1.15,6.09l0,.21v.14c0,.14,0,.28,0,.42v6h0V343.86l0,6.2v3.34L154.76,309l-13.22-9.81v-.05l-2.4-1.8-1-.78-9.67-7.19,1.37-108.18,9.43-3.88,3.72-1.53v-.07l72.64-29.89M233.51,132l-96.57,39.74v.07l-13.1,5.38-1.46,115.22,12.13,9,1,.77v.07l15.64,11.61,72.13,53.63a17.2,17.2,0,0,1-1.6-3.07,17.41,17.41,0,0,1-1.28-6.58v-7.77l0-6.22V152.71h0c0-.11,0-.22,0-.34.55-7.82,5.94-15.88,13.1-19.61V132Z" style="fill:#005596"/><polygon points="134.4 198.18 203.7 181.13 203.74 211.87 134.42 211.94 134.4 198.18" style="fill:#fff"/><path d="M201.21,184.32l0,25.05-64.31.07,0-9.3,64.31-15.82m5-6.38-74.31,18.28,0,18.23,74.31-.09,0-36.42Z" style="fill:#005596"/><polygon points="56.48 280.15 57.41 198.84 117.46 180.97 116.22 289.1 56.48 280.15" style="fill:#fff"/><path d="M114.92,184.33,113.75,286.2,59,278l.88-77.3,55-16.38m5.08-6.72L54.93,197l-1,85.34L118.69,292,120,177.61Z" style="fill:#005596"/><polygon points="63.85 213.55 108.34 203.22 108.21 214.55 63.77 220.59 63.85 213.55" style="fill:#fff"/><path d="M106.31,205.75l-.08,7.05-40.44,5.49,0-3.14,40.48-9.4m4.06-5.05L61.87,212l-.13,10.92,48.45-6.58.18-15.6Z" style="fill:#005596"/><path d="M25.66,280.28c-.29-2.76-.53-5.63-.73-8.7v-.12c0-.12,0-.26,0-.38-.22-3.24-.35-6.19-.4-9.09-.06-1.75-.09-3.62-.09-5.92,0-7.32.34-14.65,1-21.79.1-1,.19-2.09.31-3.13.35-3.36.81-6.89,1.37-10.52.17-1.09.33-2.17.52-3.26.6-3.58,1.28-7.11,2-10.53l19.74-6.25-1.05,79.16Z" style="fill:#fff"/><path d="M46.84,204l-1,73.28-17.94.43q-.29-3-.49-6.31v-.23c0-.09,0-.18,0-.27v-.06c-.21-3.13-.34-6.05-.39-8.92v-.08c-.06-1.68-.09-3.52-.09-5.79,0-7.24.33-14.49,1-21.56.09-1,.19-2,.31-3.13.34-3.29.8-6.79,1.35-10.37.17-1.07.33-2.14.52-3.23.51-3,1.08-6.05,1.69-9L46.84,204m5.09-6.86L27.51,204.9q-1.34,6-2.35,12c-.19,1.1-.36,2.2-.53,3.3-.54,3.51-1,7.06-1.38,10.62-.12,1.06-.22,2.12-.32,3.18q-1,10.88-1,22c0,2,0,4,.09,6,.06,3.06.2,6.11.4,9.15,0,.18,0,.37,0,.55.24,3.72.56,7.43,1,11.1l27.37-.65,1.13-85Z" style="fill:#005596"/><path d="M25,229c.29-2.55.62-5.07,1-7.53L42,217l-.12,8.43Z" style="fill:#fff"/><path d="M40.44,219l-.07,5.23L26.7,227.08c.19-1.5.39-3,.61-4.45L40.44,219m3.06-4-18.87,5.21c-.55,3.5-1,7.06-1.38,10.61l20.08-4.19L43.5,215Z" style="fill:#005596"/></svg>