<svg id="icon" xmlns="http://www.w3.org/2000/svg" viewBox="0 0 512 512"><path d="M255.43,487.09A231.16,231.16,0,0,1,92,92.47,231.17,231.17,0,0,1,418.89,419.39,229.66,229.66,0,0,1,255.43,487.09Z" style="fill:#fff"/><path d="M255.43,28.26A227.73,227.73,0,0,1,344,465.71,227.73,227.73,0,0,1,166.81,46.15a226.23,226.23,0,0,1,88.62-17.89m0-7c-129.61,0-234.67,105.06-234.67,234.67S125.82,490.59,255.43,490.59,490.09,385.53,490.09,255.93,385,21.26,255.43,21.26Z" style="fill:#005596"/><path d="M318.65,482.2q-4.65,1.29-9.39,2.39c-2.79.65-5.6,1.24-8.42,1.8l-2.35.43c-12.05-41.54-26.05-74-43.28-99.46q-4.92-7.28-10.19-13.81l-.57-.69a177.76,177.76,0,0,0-20.13-21V343.2a250.53,250.53,0,0,1,20.13,17.13q6.6,6.26,13,13.22,6,6.57,11.71,13.81,7.25,9.17,14,19.47,4.41,6.74,8.58,14,5.44,9.51,10.44,19.91,3.25,6.79,6.29,14Q313.92,467.78,318.65,482.2Z" style="fill:#005596"/><path d="M150.61,313.78c-32.56-13.12-73.23-20-126.46-21.38q-.48-3.12-.89-6.23c44.66,1.08,80.7,6,110.68,15.16l1,.77v.07Z" style="fill:#005596"/><path d="M421.94,421.92q-6,6-12.48,11.6-2.76-6.54-5.7-12.69c-2.3-4.84-4.68-9.52-7.13-14q-5.64-10.35-11.8-19.47-4.92-7.28-10.19-13.81a173.43,173.43,0,0,0-41.84-37.62c-18.41-11.76-39.77-20.62-65.42-26.77a354.86,354.86,0,0,0-43.06-7.38v-6.22c4.26.47,8.41,1,12.48,1.58s7.85,1.16,11.64,1.83c1.42.23,2.82.48,4.21.75q4.38.79,8.61,1.71a272.11,272.11,0,0,1,28.85,7.73,201.4,201.4,0,0,1,46,21.56A252.2,252.2,0,0,1,387,373.55q6,6.57,11.71,13.81A274,274,0,0,1,421.94,421.92Z" style="fill:#005596"/><rect x="279.43" y="406.83" width="125.94" height="14" style="fill:#005596"/><path d="M400.7,440.74a232.11,232.11,0,0,1-19.88,14H289.7v-14Z" style="fill:#005596"/><path d="M406.83,157.49V355a18.66,18.66,0,0,1-18.57,18.56H242.9A18.67,18.67,0,0,1,224.32,355V157.49c0-10.17,8.16-21.11,18.28-23.59a310.19,310.19,0,0,1,146,0C398.67,136.38,406.83,147.32,406.83,157.49Z" style="fill:#005596"/><path d="M246.47,386.37a98.54,98.54,0,0,1,0-72.22H413.36a104.42,104.42,0,0,0,0,72.22Z" style="fill:#fff"/><path d="M409.16,317.15a108.21,108.21,0,0,0,0,66.22H248.54a96.31,96.31,0,0,1,0-66.22H409.16m8.59-6H244.45a102.22,102.22,0,0,0,0,78.22h173.3a102.22,102.22,0,0,1,0-78.22Z" style="fill:#005596"/><circle cx="308.16" cy="228.36" r="6.13" style="fill:#fff"/><circle cx="323.06" cy="228.36" r="6.13" style="fill:#fff"/><rect x="293.41" y="157.61" width="44.4" height="49.85" rx="5.64" style="fill:#fff"/><path d="M332.17,159.61a3.65,3.65,0,0,1,3.64,3.64v38.57a3.65,3.65,0,0,1-3.64,3.64H299.05a3.64,3.64,0,0,1-3.64-3.64V163.25a3.65,3.65,0,0,1,3.64-3.64h33.12m0-4H299.05a7.64,7.64,0,0,0-7.64,7.64v38.57a7.64,7.64,0,0,0,7.64,7.64h33.12a7.64,7.64,0,0,0,7.64-7.64V163.25a7.64,7.64,0,0,0-7.64-7.64Z" style="fill:#005596"/><rect x="238.75" y="157.61" width="44.4" height="49.85" rx="5.64" style="fill:#fff"/><path d="M277.51,159.61a3.65,3.65,0,0,1,3.64,3.64v38.57a3.65,3.65,0,0,1-3.64,3.64H244.39a3.64,3.64,0,0,1-3.64-3.64V163.25a3.65,3.65,0,0,1,3.64-3.64h33.12m0-4H244.39a7.64,7.64,0,0,0-7.64,7.64v38.57a7.64,7.64,0,0,0,7.64,7.64h33.12a7.64,7.64,0,0,0,7.64-7.64V163.25a7.64,7.64,0,0,0-7.64-7.64Z" style="fill:#005596"/><circle cx="242.88" cy="296.37" r="6.13" style="fill:#fff"/><circle cx="257.79" cy="296.37" r="6.13" style="fill:#fff"/><rect x="348.07" y="157.61" width="44.4" height="49.85" rx="5.64" style="fill:#fff"/><path d="M386.83,159.61a3.65,3.65,0,0,1,3.64,3.64v38.57a3.64,3.64,0,0,1-3.64,3.64H353.71a3.64,3.64,0,0,1-3.64-3.64V163.25a3.65,3.65,0,0,1,3.64-3.64h33.12m0-4H353.71a7.64,7.64,0,0,0-7.64,7.64v38.57a7.64,7.64,0,0,0,7.64,7.64h33.12a7.64,7.64,0,0,0,7.64-7.64V163.25a7.64,7.64,0,0,0-7.64-7.64Z" style="fill:#005596"/><circle cx="373.43" cy="296.37" r="6.13" style="fill:#fff"/><circle cx="388.33" cy="296.37" r="6.13" style="fill:#fff"/><path d="M407.33,251v5.36l-71.9,33.14a47.81,47.81,0,0,1-39.94,0l-71.67-33v-5.36l73.7,34a42.91,42.91,0,0,0,35.88,0Z" style="fill:#fff"/><path d="M232.94,131.91v.77c-7.16,3.73-12.55,11.79-13.1,19.61,0,.12,0,.23,0,.34h0V343.77l0,6.22v7.77a17.41,17.41,0,0,0,1.28,6.58,17.2,17.2,0,0,0,1.6,3.07l-72.13-53.63L135,302.17v-.07l-1-.77-12.13-9,1.46-115.22,13.1-5.38v-.07Z" style="fill:#005596"/><polygon points="127.97 216.45 128.23 194.58 139.81 191.73 206.53 175.32 206.52 185.85 206.47 212.94 206.47 216.39 139.23 216.44 136.02 216.45 127.97 216.45" style="fill:#fff"/><path d="M204.52,177.87v8l-.05,27.09v1.45l-65.25.05H130l.22-18.3,6.83-1.68.29-.07,3-.72,64.23-15.81m4-5.1-69.19,17-3,.73-.25.06L126.25,193l-.31,25.45h13.29l69.24-.05v-5.45l.05-27.09V172.77Z" style="fill:#005596"/><polygon points="53.39 282.23 118.11 291.92 119.43 177.53 54.36 196.9 53.39 282.23" style="fill:#005596"/><polygon points="59.31 210.29 111.82 198.1 111.59 217.97 59.14 225.11 59.31 210.29" style="fill:#fff"/><path d="M109.79,200.63l-.18,15.59-48.44,6.59.12-10.92,48.5-11.26m4.06-5h0Zm0,0L57.33,208.7l-.21,18.7,56.45-7.68.28-24.14Z" style="fill:#005596"/><path d="M51.36,197.08l-1.13,85-27.37.65c-.43-3.67-.75-7.37-1-11.09,0-.18,0-.38-.05-.56-.19-3-.33-6.09-.39-9.14-.07-2-.1-4-.1-6q0-11.15,1-22c.09-1.05.2-2.12.32-3.18.37-3.55.83-7.11,1.38-10.61.17-1.11.33-2.21.52-3.3q1-6.09,2.36-12.06Z" style="fill:#005596"/><path d="M42.93,215l-.17,11.63-20.08,4.19c.37-3.55.83-7.11,1.38-10.61Z" style="fill:#fff"/></svg>