<svg id="icon" xmlns="http://www.w3.org/2000/svg" viewBox="0 0 512 512"><path d="M484.47,256c0,2.06,0,4.11-.08,6.16,0,.89-.05,1.8-.1,2.69,0,.24,0,.47,0,.71a1.84,1.84,0,0,1,0,.33l0,1a234.45,234.45,0,0,1-2.78,26.86c-.14.9-.28,1.78-.45,2.68q-.09.49-.18,1a1.59,1.59,0,0,1-.06.3c0,.24-.08.48-.13.72a227.92,227.92,0,0,1-5.51,23.35c-.56,1.91-1.13,3.82-1.75,5.7-.32,1-.67,2.08-1,3.13-.12.32-.23.64-.33,1-.61,1.8-1.24,3.59-1.91,5.37q-.71,2-1.47,3.9c-.16.39-.31.8-.47,1.2s-.27.69-.43,1A235.13,235.13,0,0,1,324.9,478.39q-3,1-6,1.93h0q-7.81,2.42-15.84,4.27c-2.78.65-5.59,1.24-8.41,1.8a235.85,235.85,0,0,1-34,4q-3.42.13-6.85.2c-.91,0-1.82,0-2.74,0H249.8c-1.75,0-3.5,0-5.25-.07h0c-4.44-.09-8.85-.32-13.23-.65q-8.2-.65-16.27-1.85-3-.44-6-1h0a232.53,232.53,0,0,1-27-6.42c-1.43-.43-2.85-.87-4.27-1.32-1.15-.38-2.31-.75-3.46-1.15-.37-.11-.72-.25-1.09-.37-1.85-.64-3.68-1.31-5.51-2l-1-.4c-.69-.25-1.36-.51-2-.78a231.38,231.38,0,0,1-28.88-13.58c-2.23-1.24-4.43-2.53-6.61-3.85q-4.48-2.67-8.84-5.55c-2.23-1.49-4.44-3-6.61-4.56a235.48,235.48,0,0,1-31.92-27.37q-3.37-3.46-6.61-7.07-7.44-8.28-14.09-17.27c-1.17-1.56-2.31-3.16-3.43-4.75-.92-1.3-1.82-2.63-2.71-4-.54-.78-1.06-1.59-1.59-2.38a2.56,2.56,0,0,1-.16-.25c-1.24-1.9-2.44-3.81-3.63-5.73-1.28-2.11-2.54-4.21-3.74-6.35h0A228.52,228.52,0,0,1,35.17,351c-.44-1-.87-2-1.29-3-.14-.29-.25-.57-.37-.87-.44-1-.87-2.07-1.29-3.11-1.13-2.79-2.2-5.59-3.23-8.43l-.33-.92a233.84,233.84,0,0,1-10.43-40.52c-1.21-7.39-2.08-14.89-2.56-22.47,0-.18,0-.38,0-.56-.2-3-.34-6.09-.4-9.14-.07-2-.09-4-.09-6a234,234,0,0,1,13.22-77.82q.2-.61.42-1.2,2.63-7.33,5.71-14.43c.44-1,.91-2,1.37-3.09a234.75,234.75,0,0,1,427.06-1.79q3.74,8.06,6.86,16.45,2.09,5.59,3.88,11.32a233.33,233.33,0,0,1,9.93,50.19q.57,6.56.76,13.21c0,.57,0,1.12,0,1.69s0,1,0,1.51c0,.21,0,.4,0,.59C484.46,253.74,484.47,254.88,484.47,256Z" style="fill:#005596"/><path d="M173.21,477.87l1.1.38c1.14.39,2.3.77,3.45,1.14l-.63-1.52c-1.12-2.69-2.3-5.29-3.51-7.82-1.85-3.87-3.8-7.57-5.82-11.11q-2.33-4.05-4.79-7.81-3.76-5.76-7.81-10.86-3.18-4-6.53-7.71-3.55-3.88-7.24-7.38a138.53,138.53,0,0,0-11.23-9.56v4.84a97.76,97.76,0,0,1,11.23,11.72c.11.12.21.25.32.38q2.94,3.65,5.69,7.71c6.48,9.59,12.15,21,17.21,34.45.67.27,1.35.53,2,.78Z" style="fill:#fff"/><path d="M89.07,399.22a147.71,147.71,0,0,0-31.41-8.5c-.92-1.3-1.82-2.63-2.71-4a173.3,173.3,0,0,1,24.81,5.49l.58.44v0Z" style="fill:#fff"/><path d="M260.64,490.41c-8.83-14.08-29.26-45.27-33.11-50.14q-3.18-4-6.53-7.71a140.86,140.86,0,0,0-28.4-23.9,112.71,112.71,0,0,0-25.69-12,154.59,154.59,0,0,0-16.09-4.31h0c-1.57-.33-3.17-.65-4.8-.95-.78-.15-1.56-.29-2.35-.42h0q-3.17-.56-6.48-1h0c-2.27-.33-4.58-.62-7-.88v3.47a200.72,200.72,0,0,1,24,4.11c14.31,3.44,26.23,8.38,36.5,14.95a96.54,96.54,0,0,1,23.35,21q2.94,3.65,5.69,7.71,3.43,5.09,6.58,10.86c1.37,2.5,2.7,5.11,4,7.81.42.86,2.52,5.53,5,11.11,1.13,2.5,2.33,5.2,3.51,7.82,2.33,5.21,4.53,10.13,5.68,12.73h0Z" style="fill:#fff"/><rect x="160.95" y="451.14" width="70.28" height="7.81" style="fill:#fff"/><path d="M173.21,477.87h70.57c3.84-2.42,0-4.68-4-7.82H166.68v5.45Z" style="fill:#fff"/><path d="M231.5,311.3V421.94a10.45,10.45,0,0,1-10.4,10.4H139.66a10.47,10.47,0,0,1-10.41-10.4V311.3c0-5.69,4.58-11.83,10.25-13.22a173.88,173.88,0,0,1,81.77,0C226.93,299.47,231.5,305.61,231.5,311.3Z" style="fill:#c1d82f"/><path d="M141.21,440.21a55.81,55.81,0,0,1,0-41.82h94.94a57.8,57.8,0,0,0,0,41.82Z" style="fill:#fff"/><path d="M234.71,399.39a58.7,58.7,0,0,0,0,39.82H141.89a54.83,54.83,0,0,1,0-39.82h92.82m2.91-2H140.53a57.26,57.26,0,0,0,0,43.82h97.09a57.26,57.26,0,0,1,0-43.82Z" style="fill:#005596"/><circle cx="176.22" cy="351.01" r="3.44" style="fill:#005596"/><circle cx="184.57" cy="351.01" r="3.44" style="fill:#005596"/><rect x="167.84" y="311.25" width="25.11" height="28.17" rx="3.28" style="fill:#fff"/><path d="M189.68,312.25a2.28,2.28,0,0,1,2.27,2.28v21.61a2.28,2.28,0,0,1-2.27,2.28H171.12a2.29,2.29,0,0,1-2.28-2.28V314.53a2.28,2.28,0,0,1,2.28-2.28h18.56m0-2H171.12a4.28,4.28,0,0,0-4.28,4.28v21.61a4.28,4.28,0,0,0,4.28,4.28h18.56a4.28,4.28,0,0,0,4.27-4.28V314.53a4.28,4.28,0,0,0-4.27-4.28Z" style="fill:#005596"/><rect x="137.22" y="311.25" width="25.11" height="28.17" rx="3.28" style="fill:#fff"/><path d="M159.05,312.25a2.28,2.28,0,0,1,2.28,2.28v21.61a2.29,2.29,0,0,1-2.28,2.28H140.5a2.29,2.29,0,0,1-2.28-2.28V314.53a2.28,2.28,0,0,1,2.28-2.28h18.55m0-2H140.5a4.28,4.28,0,0,0-4.28,4.28v21.61a4.28,4.28,0,0,0,4.28,4.28h18.55a4.28,4.28,0,0,0,4.28-4.28V314.53a4.28,4.28,0,0,0-4.28-4.28Z" style="fill:#005596"/><circle cx="139.66" cy="389.1" r="3.44" style="fill:#005596"/><circle cx="148" cy="389.1" r="3.44" style="fill:#005596"/><rect x="198.46" y="311.25" width="25.11" height="28.17" rx="3.28" style="fill:#fff"/><path d="M220.3,312.25a2.29,2.29,0,0,1,2.28,2.28v21.61a2.29,2.29,0,0,1-2.28,2.28H201.74a2.29,2.29,0,0,1-2.28-2.28V314.53a2.29,2.29,0,0,1,2.28-2.28H220.3m0-2H201.74a4.28,4.28,0,0,0-4.28,4.28v21.61a4.28,4.28,0,0,0,4.28,4.28H220.3a4.28,4.28,0,0,0,4.28-4.28V314.53a4.28,4.28,0,0,0-4.28-4.28Z" style="fill:#005596"/><circle cx="212.79" cy="389.1" r="3.44" style="fill:#005596"/><circle cx="221.14" cy="389.1" r="3.44" style="fill:#005596"/><path d="M231.5,363.88v3l-40,18.38a26.86,26.86,0,0,1-22.37,0L129.26,367v-3l41,18.84a24,24,0,0,0,20.1,0Z" style="fill:#fff"/><path d="M87.24,399.37l-8.89-6.59v0l-.25-.2L71,387.25l.83-65.53,7.34-3,.52-.24,55.26-22.75v2.19l-.46.24a13.35,13.35,0,0,0-6.89,10.3V423.49a8.87,8.87,0,0,0,.65,3.37,8.63,8.63,0,0,0,.82,1.57l2.63,4Zm-7.45-54.76h1.79l38,0v-2.22l0-15.17v-6.26l-39.37,9.69-.17,0-4.87,1.2L75,344.61Z" style="fill:#c1d82f"/><path d="M134.09,297v.43a14.18,14.18,0,0,0-7.35,11h0v.18h0V415.67l0,3.48v4.34a9.67,9.67,0,0,0,.72,3.69,10.72,10.72,0,0,0,.88,1.72L88,398.86l-.23-.16-8.54-6.35v0l-.47-.34-.11-.08-6.79-5.06.82-64.55,7.34-3v0L134.09,297M74.14,345.45H81.6l38.78,0v-3.07l0-15.16v-7.35L81.65,329.4l-1.66.4-.14,0-5.53,1.37-.18,14.25m61.63-51-2.32,1-54.1,22.27-1,.43v0L72,320.73l-1,.42,0,1.11-.82,64.55v.86l.69.51,6.69,5h0l.68.54L86.73,400l.24.18,40.39,30L135,436l-5.27-8a7.52,7.52,0,0,1-.73-1.41,8,8,0,0,1-.6-3.07v-115a12.43,12.43,0,0,1,6.43-9.56l.91-.48v-4Zm-55.55,37,.12,0h0l1.66-.41,36.67-9v5.2l0,15.16v1.39H75.84L76,332.52l4.24-1Z" style="fill:#005596"/><path d="M126.75,308.39v.19h0C126.74,308.51,126.75,308.46,126.75,308.39Z" style="fill:#fff"/><polygon points="74.99 344.61 75.15 331.86 81.85 330.21 119.57 320.93 119.54 344.58 81.59 344.6 79.79 344.61 74.99 344.61" style="fill:#fff"/><path d="M118.73,322v5.19l0,15.18v1.37l-37.12,0H75.84L76,332.52l4.25-1,.16,0,1.66-.41,36.68-9m1.68-2.14L81.65,329.4l-1.66.4-.14,0-5.53,1.36-.18,14.25h7.45l38.79,0v-3.05l0-15.18v-7.33Z" style="fill:#005596"/><path d="M70.49,322.53l-.73,64.08L53.2,384.14c-1.24-1.9-2.44-3.81-3.63-5.73-1.28-2.11-2.54-4.21-3.74-6.35h0A228.52,228.52,0,0,1,35.17,351c-.44-1-.87-2-1.29-3l.17-14.61Z" style="fill:#c1d82f"/><polygon points="35.59 350.47 67.22 346.17 67.37 332.64 35.7 339.99 35.59 350.47" style="fill:#fff"/><path d="M35.71,340l-.12,10.48,31.63-4.3.16-13.53Zm29.84,4.71-28.26,3.83.07-7.21,28.31-6.57Z" style="fill:#005596"/><path d="M32.36,333.49,32.22,344c-1.13-2.79-2.2-5.59-3.23-8.43l-.33-.92Z" style="fill:#c1d82f"/><path d="M360.11,346.64c0,11.18,7.25,18.74,15.78,17,8.1-1.67,14.36-11.21,14.36-21.38s-6.26-17.87-14.36-17.18C367.36,325.78,360.11,335.46,360.11,346.64Z" style="fill:#fff"/><path d="M368,345.49c0,5.59,3.59,9.49,7.9,8.72s7.53-5.65,7.53-11-3.33-9.27-7.53-8.78S368,339.89,368,345.49Z" style="fill:#fff"/><path d="M484.47,256c0,2.06,0,4.11-.08,6.16,0,.89-.05,1.8-.1,2.69,0,.24,0,.47,0,.71a1.84,1.84,0,0,1,0,.33l0,1a234.45,234.45,0,0,1-2.78,26.86c-.14.9-.28,1.78-.45,2.68q-.09.49-.18,1a1.59,1.59,0,0,1-.06.3c0,.24-.08.48-.13.72a227.92,227.92,0,0,1-5.51,23.35c-.56,1.91-1.13,3.82-1.75,5.7v3l-1,.16c-.12.32-.23.64-.33,1-.61,1.8-1.24,3.59-1.91,5.37q-.71,2-1.47,3.9l-35.41,6.53.45-.75V330l-8.34-11.13-12.74,1-9.74,13.89v18.57l.57.64L356,361.72v-.17a6.33,6.33,0,0,0,2.81-5.33l.07-124a6.43,6.43,0,0,0-2.88-5.4v-.33l128.45,26.15C484.46,253.74,484.47,254.88,484.47,256Z" style="fill:#c1d82f"/><path d="M433.67,346.7V330l-8.34-11.13-12.74,1-9.74,13.89v18.57l.57.64-17.35,3.22-21.17,3.9L356,361.72v-.17a6.33,6.33,0,0,0,2.81-5.33l.07-124a6.43,6.43,0,0,0-2.88-5.4v-.33l128.45,26.15c0-.19,0-.38,0-.59,0-.5,0-1,0-1.51l-128-26.05L354,224v4l.95.61a3.37,3.37,0,0,1,.38.28,4.49,4.49,0,0,1,1.55,3.38l-.07,124a4.43,4.43,0,0,1-1.55,3.36,3,3,0,0,1-.32.24l-.94.61v3.75l2.41-.44,10.54-2,17.26-3.19L403.79,355l3.57-.67-2.4-2.71-.06-.06V334.38l8.81-12.57,10.64-.81,7.28,9.7v15.42l-.16.27-2.38,3.91,4.5-.83,34.14-6.31c.16-.35.29-.69.43-1s.31-.81.47-1.2l-35.41,6.53Zm63.18-24.05a.15.15,0,0,0,0,.07v-.07Z" style="fill:#005596"/><polygon points="453.58 297.48 402.92 297.49 402.92 254.22 453.58 261.48 453.58 297.48" style="fill:#fff;stroke:#005596;stroke-miterlimit:10;stroke-width:2.0479170033891px"/><polygon points="385.48 343.12 385.48 250.64 397.28 252.37 397.28 341.42 385.48 343.12" style="fill:#005596"/><polygon points="368.34 345.58 368.34 248.12 381.42 250.04 381.42 343.7 368.34 345.58" style="fill:#005596"/><polygon points="473.36 263.52 473.36 330.51 472.33 330.67 466.75 331.46 466.75 262.56 473.36 263.52" style="fill:#005596"/><polygon points="457.35 332.81 457.35 261.18 464.49 262.22 464.49 331.78 457.35 332.81" style="fill:#005596"/><path d="M484.24,265.88l0,1a234.45,234.45,0,0,1-2.78,26.86c-.14.9-.28,1.78-.45,2.68q-.09.49-.18,1h-4.23v-32.7Z" style="fill:#fff"/><path d="M475.54,263.59v34.9h5.07c.05-.24.1-.48.13-.72a1.59,1.59,0,0,0,.06-.3q.09-.53.18-1h-3.39V266l6.62,1,0-1a1.84,1.84,0,0,0,0-.33c0-.24,0-.47,0-.71Z" style="fill:#005596"/><path d="M405.49,342.62c0,10.37,6.25,17.44,13.61,15.86,7-1.5,12.42-10.33,12.42-19.8s-5.43-16.65-12.42-16C411.74,323.3,405.49,332.26,405.49,342.62Z" style="fill:#fff"/><path d="M412.28,341.6c0,5.19,3.09,8.83,6.82,8.15s6.5-5.21,6.5-10.17-2.87-8.63-6.5-8.2S412.28,336.4,412.28,341.6Z" style="fill:#005596"/><path d="M356.06,231.92c0-3.6-3-6.6-6.11-6.17L283,234.93c-4.92.67-8.83,1.12-8.83,14.24v89.76c0,12,3.91,13.59,8.83,14.28l66.87,9.41c3.15.44,6.1-2.54,6.1-6.13Z" style="fill:#c1d82f"/><polygon points="345.08 307.31 282.98 306.01 282.98 255.97 345.08 249.99 345.08 307.31" style="fill:#fff;stroke:#005596;stroke-miterlimit:10;stroke-width:2px"/><path d="M341.4,242.67l-55.58,5.72c-1.57.16-2.84-1.58-2.84-3.89h0c0-2.3,1.27-4.33,2.84-4.52l55.58-6.82c2-.24,3.68,1.7,3.68,4.34h0C345.08,240.14,343.42,242.46,341.4,242.67Z" style="fill:#005596"/><polygon points="331.68 344.45 345.11 345.91 345.11 336.69 331.68 335.48 331.68 344.45" style="fill:#005596"/><polygon points="282.98 339.15 293.77 340.32 293.77 332.06 282.98 331.09 282.98 339.15" style="fill:#005596"/><path d="M330.45,251.52l-30.12,2.92L284,305.93S298,268.18,330.45,251.52Z" style="fill:#005596"/><polygon points="136.94 188.28 129.02 192.55 132.34 181.66 136.94 188.28" style="fill:#005596"/><path d="M123.48,204.76c-4.82,0-8.42-.94-10.69-2.8a7.77,7.77,0,0,1-1.89-2.24l-.06-.13,0-.13-.05-.11,0-.07c-1.08-3.38,6.88-9.5,14.24-14.31l-14.38-27.49L121,155.15l25.1,16.74c82.65-51.14,126.29-78.1,129.72-80.12,6.58-3.84,15.56-6.78,25.31-8.28a79.67,79.67,0,0,1,11.71-.95c1.08,0,2.13,0,3.12.09,5,.29,8.44,1.28,10.24,2.93a4,4,0,0,1,.68.77c5.07,6.85-5.72,22.43-15.71,30.56A142.38,142.38,0,0,1,291,130.15C260.9,146.5,168.11,192,167.18,192.5,159.45,196.76,137.55,204.76,123.48,204.76Z" style="fill:#fff"/><path d="M312.8,84c1.05,0,2.07,0,3,.09,4.38.26,7.74,1.1,9.31,2.54a3,3,0,0,1,.45.5c4.14,5.6-4.93,20-15.42,28.56a141.58,141.58,0,0,1-19.85,13.11c-30.47,16.52-123.81,62.32-123.81,62.32-7.84,4.31-29.33,12.1-43,12.1-4.16,0-7.6-.72-9.74-2.46a6,6,0,0,1-1.52-1.81,1.11,1.11,0,0,0-.07-.16c-.83-2.61,9.78-10.14,14.78-13.34l-14.11-27,7.85-1.76L146,173.68C183.8,150.3,271.65,96,276.54,93.07c7-4.07,16.18-6.77,24.77-8.09A76.28,76.28,0,0,1,312.8,84m0-3a80.19,80.19,0,0,0-11.94,1c-9.93,1.52-19.1,4.53-25.83,8.47-3.42,2-48,29.54-128.94,79.63l-23.76-15.85-1.07-.71-1.25.28-7.85,1.76-3.81.85,1.81,3.47L123,184.48c-2,1.37-4.92,3.41-7.56,5.58-5.27,4.33-7,7-6.16,9.67l.07.23.06.12,0,.12.13.25a9.17,9.17,0,0,0,2.29,2.7c2.54,2.08,6.35,3.11,11.6,3.11,14.49,0,36.24-8,44.42-12.44,2.88-1.42,94-46.16,123.86-62.35a145.33,145.33,0,0,0,20.32-13.42A61.24,61.24,0,0,0,326,101.83c4-7.06,4.73-12.72,2.07-16.4a6.49,6.49,0,0,0-.91-1c-2-1.85-5.78-3-11.13-3.29-1-.06-2.1-.09-3.21-.09Z" style="fill:#005596"/><path d="M316.33,83.79,288.56,98.9l-2.95-5.43,16.2-8.82A71.86,71.86,0,0,1,316.33,83.79Z" style="fill:#005596"/><path d="M134,203.17a59,59,0,0,1-10.49,1.09c-4.7,0-8.19-.9-10.36-2.69l-1.15-.95,7.66-4.13L87.38,179.31l9.87-3.52,39.32,11.55,68.56-37L99.43,121.58l20.45-5.44,134.33,7.68,71.07-38.37.53.47a3.4,3.4,0,0,1,.6.67c4.91,6.64-5.77,21.91-15.59,29.92a144,144,0,0,1-20,13.2c-4.75,2.57-11.26,6-18.89,9.91l49.13,39.13,3.53,13.13L229.72,161c-31.61,15.81-62.46,30.94-62.77,31.09a119,119,0,0,1-20.54,8.07l5.89,8.45-.72,9.45Z" style="fill:#c1d82f"/><path d="M325.14,86.66a3.54,3.54,0,0,1,.46.5c4.13,5.61-4.93,20-15.41,28.57a142.78,142.78,0,0,1-19.86,13.1c-5.19,2.81-12.19,6.48-20.25,10.61l50.09,39.89,3,11-93.5-30.47c-32.1,16.06-63.13,31.27-63.13,31.27-4.3,2.37-12.72,5.79-21.71,8.4l6.47,9.3-.54,7.15-16.49-13.9a58.94,58.94,0,0,1-10.77,1.16c-4.15,0-7.6-.71-9.73-2.46l8-4.31-31.88-17,7.43-2.65,39.4,11.58.26-.14L207.8,150,103.28,121.59l16.7-4.44,134.46,7.69,70.7-38.18m.29-2.42-1.24.66L254,122.81l-133.9-7.66-.31,0-.31.09-16.71,4.44-7.18,1.91,7.17,2,99.7,27.11-66,35.64L97.84,174.92l-.62-.18-.61.22-7.43,2.64-4.26,1.52,4,2.13L117.5,196.5,112.79,199l-2.62,1.41,2.3,1.89c2.36,1.94,6.06,2.92,11,2.92a59.29,59.29,0,0,0,10.2-1l15.77,13.29,3,2.51.29-3.89.55-7.15,0-.71-.4-.59-4.9-7a117.4,117.4,0,0,0,19.42-7.75c1.31-.64,31.41-15.41,62.36-30.88l92.72,30.22L326,193.4l-1-3.57-3-11-.17-.64-.52-.41-47.66-38c7.05-3.63,13.07-6.79,17.53-9.21a143.88,143.88,0,0,0,20.17-13.31C321.37,109.2,332.68,93.4,327.2,86a4.38,4.38,0,0,0-.73-.8l-1-.93Z" style="fill:#005596"/></svg>