<svg id="icon" xmlns="http://www.w3.org/2000/svg" viewBox="0 0 512 512"><path d="M255.43,487.09c-3.56,0-7.22-.09-10.88-.26h-.09a230.81,230.81,0,0,1-59.75-10.75c-2.6-.84-5.24-1.74-7.84-2.68-3.13-1.13-6.25-2.33-9.26-3.58-1.3-.53-2.58-1.07-3.85-1.62a231.78,231.78,0,0,1-96-77.33c-1-1.37-1.95-2.73-2.9-4.12-.61-.89-1.19-1.75-1.77-2.62a230.51,230.51,0,0,1-19.35-35.27c-.32-.72-.62-1.43-.93-2.13-.66-1.55-1.31-3.13-2-4.79v0l-.26-.64c-.32-.78-.63-1.57-.93-2.36-.77-2-1.52-4-2.22-6l-.15-.44A231.24,231.24,0,1,1,260.74,487C259.07,487.07,257.33,487.09,255.43,487.09Z" style="fill:#fff"/><path d="M255.43,28.26A227.67,227.67,0,0,1,418.12,415.18a226.3,226.3,0,0,1-157.5,68.34c-1.62.05-3.32.07-5.19.07-3.5,0-7.11-.08-10.72-.25h-.17a227,227,0,0,1-58.75-10.58c-2.56-.83-5.16-1.71-7.74-2.65-3.08-1.1-6.14-2.29-9.11-3.51-1.27-.52-2.54-1.06-3.79-1.61a228.18,228.18,0,0,1-94.6-76.16c-.91-1.27-1.89-2.64-2.84-4l0,0,0,0c-.59-.85-1.16-1.7-1.72-2.54a228.58,228.58,0,0,1-19.06-34.76L46,345.35c-.57-1.33-1.13-2.68-1.69-4.08v0L43.77,340c-.3-.76-.6-1.51-.91-2.31-.68-1.79-1.34-3.58-2-5.33l-.35-1a227.59,227.59,0,0,1,214.89-303m0-7c-129.61,0-234.67,105.06-234.67,234.67a234.33,234.33,0,0,0,13.17,77.7h0q1.16,3.28,2.4,6.52c.31.82.63,1.63,1,2.44h0q1.1,2.77,2.26,5.5c.31.72.62,1.44.94,2.16a234.36,234.36,0,0,0,19.64,35.81c.59.88,1.18,1.76,1.79,2.64,1,1.41,1.95,2.8,3,4.19a235.4,235.4,0,0,0,97.5,78.5q1.94.84,3.9,1.65,4.65,1.92,9.41,3.63c2.63.95,5.29,1.86,8,2.72a234,234,0,0,0,60.74,10.92h0q5.49.26,11,.26c1.8,0,3.6,0,5.39-.07,127.11-2.85,229.27-106.79,229.27-234.59C490.09,126.32,385,21.26,255.43,21.26Z" style="fill:#005596"/><path d="M113.83,200.39h0a6.1,6.1,0,0,1-1.52-1.8c0-.06,0-.1-.07-.16-.35-1.11,1.39-3.14,3.91-5.33l5.63,3Z" style="fill:#fff"/><path d="M324.24,86.78l-70.37,38L227,123.25c25.46-15.75,46.52-28.73,48.84-30.09,6.92-4,16.09-6.74,24.65-8A71.11,71.11,0,0,1,315,84.25C319.33,84.52,322.68,85.35,324.24,86.78Z" style="fill:#fff"/><path d="M207.45,149.84l-70.53,38.08h0l-.26.15-5.84-1.72-3.93-1.16.06,0-14-26.84,7.81-1.75L146,173.4l45.21-28Z" style="fill:#fff"/><path d="M315,84.25l-27.64,15-2.94-5.41,16.13-8.78A71.11,71.11,0,0,1,315,84.25Z" style="fill:#005596;stroke:#005596;stroke-miterlimit:10;stroke-width:1.93224681346218px"/><path d="M312.21,119.21a62.7,62.7,0,0,0,14.2-16.58c5.48-9.62,4.07-15.12,1.92-18l0,0,0,0a8.75,8.75,0,0,0-1-1.06C325,81.32,321,80.1,315.25,79.75c-1-.06-2.12-.09-3.23-.09a82.91,82.91,0,0,0-12.18,1c-10.08,1.55-19.4,4.61-26.24,8.62-2.57,1.5-26.87,16.5-54.41,33.52L120,117.13l-16.63,4.42,81.83,22.25L146.06,168l-22.84-15.23-1.61-1.08-1.88.43-7.81,1.75-5.73,1.28,2.72,5.21,12.06,23-23.53-6.91-7.39,2.64,21.86,11.66c-2.84,2.67-5,5.68-4,9v0a1.85,1.85,0,0,0,.11.31l.08.25.2.37a11,11,0,0,0,2.6,3.1c2.86,2.34,7,3.47,12.55,3.47a71.72,71.72,0,0,0,15.11-2l12,10.13.54-7.12-3.73-5.35a121.54,121.54,0,0,0,21-8.26c2-1,34.53-16.95,66.85-33.14l87,28.34-3-11-46-36.62c7.31-3.77,13.66-7.09,18.43-9.68A145.48,145.48,0,0,0,312.21,119.21ZM115.15,201.26a7.54,7.54,0,0,1-1.32-.87,6.1,6.1,0,0,1-1.52-1.8c0-.06,0-.1-.07-.16-.35-1.11,1.39-3.14,3.91-5.33l5.63,3-8,4.29A7.54,7.54,0,0,0,115.15,201.26Zm21.77-13.34h0l-.26.15-5.84-1.72-3.93-1.16.06,0-14-26.84,7.81-1.75L146,173.4l45.21-28,16.27,4.43Zm117-63.14L227,123.25c25.46-15.75,46.52-28.73,48.84-30.09,6.92-4,16.09-6.74,24.65-8A71.11,71.11,0,0,1,315,84.25c4.35.27,7.7,1.1,9.26,2.53Z" style="fill:#005596"/><path d="M175.68,476.69q-4.76-1.71-9.41-3.63-2-.81-3.9-1.65-2-5-4.13-9.56a148.51,148.51,0,0,0-10.68-19.36l-.76-1.14q-2.79-4.1-5.76-7.79l-.32-.39c-1.23-1.51-2.47-3-3.78-4.37h0a95.43,95.43,0,0,0-7.58-7.48v-4.9q3.54,2.7,7,5.71,2.21,1.92,4.37,4c2.48,2.36,4.93,4.84,7.32,7.47q3.39,3.7,6.62,7.79l.89,1.14q3.62,4.68,7,9.86,2.49,3.79,4.84,7.9c1.36,2.37,2.68,4.8,3.95,7.32.67,1.29,1.31,2.59,2,3.92h0C174.11,473.2,174.91,474.93,175.68,476.69Z" style="fill:#005596"/><path d="M87.73,399.8a140.44,140.44,0,0,0-22.86-6.89c-1-1.39-2-2.78-3-4.19a161,161,0,0,1,16.39,4h0l.58.44v0Z" style="fill:#005596"/><path d="M260.82,490.52c-1.79.05-3.59.07-5.39.07q-5.55,0-11-.26h0c-1.43-3.15-3.25-7.12-5-10.9-1.33-2.94-2.63-5.77-3.65-8h0l-2.15-4.73q-1.41-3.31-2.91-6.44c-1.3-2.73-2.64-5.37-4-7.9q-2.84-5.21-5.9-9.86l-.76-1.14q-2.78-4.1-5.75-7.79a98.07,98.07,0,0,0-23.63-21.25,116,116,0,0,0-32.55-14c-1.44-.4-2.9-.77-4.39-1.13A200.55,200.55,0,0,0,129.35,393v-3.51c2.41.26,4.75.55,7.05.88s4.43.66,6.57,1c.8.13,1.59.27,2.38.42h0c1.65.3,3.26.63,4.85,1a157.75,157.75,0,0,1,16.29,4.37c1.1.37,2.19.74,3.26,1.13a112.64,112.64,0,0,1,22.74,11,142.72,142.72,0,0,1,28.74,24.2q3.38,3.7,6.61,7.79c.3.38.6.76.88,1.14a154.2,154.2,0,0,1,11.66,17.41C240.58,460.21,259.81,489,260.82,490.52Z" style="fill:#005596"/><rect x="160.47" y="452.35" width="71.12" height="7.91" style="fill:#005596"/><path d="M246.29,471.41c-3.59,2.83-1.13,5.58-5,8H183.64c-2.67-.86-5.33-1.77-8-2.72q-4.76-1.71-9.41-3.63V471.5H182l53.78-.06h10.55Z" style="fill:#005596"/><path d="M232.41,311.55V423.07a10.54,10.54,0,0,1-10.48,10.49H139.84a10.56,10.56,0,0,1-10.49-10.49V311.55c0-5.74,4.61-11.93,10.32-13.33a175.35,175.35,0,0,1,82.43,0C227.81,299.62,232.41,305.81,232.41,311.55Z" style="fill:#005596"/><path d="M141.86,440.79a55.65,55.65,0,0,1,0-40.78h94.25a58.85,58.85,0,0,0,0,40.78Z" style="fill:#fff"/><path d="M233.73,401.71a60.47,60.47,0,0,0,0,37.39H143a53.92,53.92,0,0,1,0-37.39h90.7m4.85-3.39H140.72a57.69,57.69,0,0,0,0,44.17h97.86a57.78,57.78,0,0,1,0-44.17Z" style="fill:#005596"/><circle cx="176.7" cy="351.57" r="3.46" style="fill:#fff"/><circle cx="185.11" cy="351.57" r="3.46" style="fill:#fff"/><rect x="168.37" y="311.62" width="25.07" height="28.15" rx="3.18" style="fill:#fff"/><path d="M190.26,312.74a2.06,2.06,0,0,1,2.05,2.06v21.78a2.06,2.06,0,0,1-2.05,2.06H171.55a2.06,2.06,0,0,1-2.05-2.06V314.8a2.06,2.06,0,0,1,2.05-2.06h18.71m0-2.25H171.55a4.31,4.31,0,0,0-4.31,4.31v21.78a4.31,4.31,0,0,0,4.31,4.31h18.71a4.31,4.31,0,0,0,4.31-4.31V314.8a4.31,4.31,0,0,0-4.31-4.31Z" style="fill:#005596"/><rect x="137.5" y="311.62" width="25.07" height="28.15" rx="3.18" style="fill:#fff"/><path d="M159.39,312.74a2.06,2.06,0,0,1,2.05,2.06v21.78a2.06,2.06,0,0,1-2.05,2.06h-18.7a2.06,2.06,0,0,1-2.06-2.06V314.8a2.06,2.06,0,0,1,2.06-2.06h18.7m0-2.25h-18.7a4.31,4.31,0,0,0-4.32,4.31v21.78a4.31,4.31,0,0,0,4.32,4.31h18.7a4.31,4.31,0,0,0,4.31-4.31V314.8a4.31,4.31,0,0,0-4.31-4.31Z" style="fill:#005596"/><circle cx="139.84" cy="389.97" r="3.46" style="fill:#fff"/><circle cx="148.25" cy="389.97" r="3.46" style="fill:#fff"/><rect x="199.24" y="311.62" width="25.07" height="28.15" rx="3.18" style="fill:#fff"/><path d="M221.12,312.74a2.06,2.06,0,0,1,2.06,2.06v21.78a2.06,2.06,0,0,1-2.06,2.06h-18.7a2.06,2.06,0,0,1-2-2.06V314.8a2.06,2.06,0,0,1,2-2.06h18.7m0-2.25h-18.7a4.31,4.31,0,0,0-4.31,4.31v21.78a4.31,4.31,0,0,0,4.31,4.31h18.7a4.32,4.32,0,0,0,4.32-4.31V314.8a4.32,4.32,0,0,0-4.32-4.31Z" style="fill:#005596"/><circle cx="213.56" cy="389.97" r="3.46" style="fill:#fff"/><circle cx="221.97" cy="389.97" r="3.46" style="fill:#fff"/><path d="M232.42,364.55v3L192.1,386.1a27,27,0,0,1-22.56,0l-40.19-18.47v-3l41.34,19a24.15,24.15,0,0,0,20.26,0Z" style="fill:#fff"/><path d="M134.22,297.1v.44a14.28,14.28,0,0,0-7.4,11.07v.19h0V416.74l0,3.51v4.39a9.77,9.77,0,0,0,.72,3.71,10.24,10.24,0,0,0,.9,1.74L87.73,399.8l-8.83-6.55v0l-.58-.44-6.85-5.09.82-65.06,7.4-3v0Z" style="fill:#005596"/><polygon points="74.94 344.84 75.09 332.49 81.63 330.88 119.31 321.61 119.28 344.81 81.31 344.83 79.49 344.84 74.94 344.84" style="fill:#fff"/><path d="M118.18,323.05v4.51l0,15.3v.82l-36.85,0H76.09l.12-10.33,3.86-.95.16,0,1.68-.41,36.27-8.93m2.26-2.88-39.07,9.62-1.68.41-.14,0L74,331.6,73.8,346h7.51l39.09,0v-3.08l0-15.3v-7.39Z" style="fill:#005596"/><path d="M70.12,322.86l-.74,64.33c-.55-.78-1.11-1.59-1.67-2.41l0,0,0,0c-.59-.85-1.16-1.7-1.72-2.54a228.58,228.58,0,0,1-19.06-34.76l-.13-.3c-.27-.6-.52-1.19-.78-1.78-.57-1.33-1.13-2.68-1.69-4.08v0l-.22-.54-.3-.73c-.3-.76-.6-1.51-.91-2.31-.68-1.79-1.34-3.58-2-5.33l-.24-.69Z" style="fill:#005596"/><path d="M64.68,335.9l-.1,8.81-17.82,2.42c-.27-.6-.52-1.19-.78-1.78-.57-1.33-1.13-2.68-1.69-4.08v0l-.22-.54Z" style="fill:#fff"/><path d="M360.89,349c0,11.39,7.39,19.09,16.08,17.29,8.25-1.7,14.64-11.42,14.64-21.78S385.22,326.3,377,327C368.28,327.75,360.89,337.62,360.89,349Z" style="fill:#005596"/><path d="M483.09,255.93c0,.94,0,1.88,0,2.81,0,1.09,0,2.17-.06,3.25,0,.53,0,1.05-.05,1.58s0,.94,0,1.41v.16c-.05,1.28-.12,2.56-.19,3.83,0,.39,0,.79-.07,1.18,0,.6-.07,1.19-.11,1.78,0,.32-.05.64-.07,1-.08,1.16-.18,2.31-.28,3.47,0,.07,0,.15,0,.22s0,.27,0,.4c-.11,1.16-.22,2.31-.34,3.46,0,.05,0,.11,0,.16s0,.25,0,.37q-.19,1.8-.42,3.6c-.15,1.24-.32,2.47-.5,3.7,0,.31-.08.62-.13.93-.15,1-.31,2.06-.47,3.09-.2,1.26-.42,2.52-.64,3.78,0,0,0,0,0,.05h0a0,0,0,0,1,0,0c-.44,2.55-.94,5.09-1.48,7.62l0,.15c0,.11-.05.22-.07.33-.19.87-.38,1.73-.58,2.59,0,.12-.05.24-.08.36l-.21.91c-.26,1.12-.53,2.23-.81,3.34-.22.89-.45,1.78-.68,2.66l0,.13c-.17.62-.33,1.24-.5,1.85s-.29,1.06-.44,1.58-.32,1.16-.49,1.73l-.57,1.95c-.26.87-.53,1.75-.8,2.62s-.54,1.73-.83,2.6q-.31,1-.66,2c-.14.44-.29.88-.44,1.31-.29.85-.58,1.69-.88,2.53,0,0,0,0,0,.06s0,.07,0,.11l-.93,2.57c-.08.19-.15.38-.22.57q-.47,1.26-1,2.52c-.25.67-.52,1.33-.78,2-.36.9-.73,1.8-1.1,2.7l-.11.27-30.42,5.62.47-.77v-17l-8.52-11.35-13,1-9.92,14.14v18.94l.58.65-16.95,3.13L365,361.82l-8.3,1.53v-.17a6.46,6.46,0,0,0,2.86-5.43l.08-126.37a6.53,6.53,0,0,0-2.94-5.5v-.34L483,251.26l0,1.79C483.08,254,483.09,255,483.09,255.93Z" style="fill:#005596"/><path d="M435.86,348.05v-17l-8.52-11.35-13,1-9.92,14.14v18.94l.58.65-16.95,3.13L365,361.82l-8.3,1.53v-.17a6.46,6.46,0,0,0,2.86-5.43l.08-126.37a6.53,6.53,0,0,0-2.94-5.5v-.34L483,251.26c0-.95,0-1.9-.08-2.85l-125.71-25.6a2.67,2.67,0,0,0-.56-.06,2.78,2.78,0,0,0-2.78,2.79v.34a2.79,2.79,0,0,0,1.3,2.36,3.55,3.55,0,0,1,1.51,2.19.15.15,0,0,1,0,.07.19.19,0,0,1,0,.08,3.58,3.58,0,0,1,.1.8l-.07,126.37a4,4,0,0,1-.11.91s0,0,0,0a3.58,3.58,0,0,1-1.46,2.14,2.77,2.77,0,0,0-1.28,2.34v.23a2.79,2.79,0,0,0,2.78,2.73,2.94,2.94,0,0,0,.51-.05l10.25-1.89h0l18.29-3.39h0l19.77-3.65a2.77,2.77,0,0,0,1.69-4.44v-17l8.66-12.35,10.15-.77,3.68,4.9.15.19.56.77,0,0,2.62,3.49v15.29l-.06.1a2.78,2.78,0,0,0,2.38,4.23,2.18,2.18,0,0,0,.5-.05l28.62-5.29c.26-.58.51-1.18.76-1.77.19-.43.36-.86.54-1.29l-30.42,5.62Z" style="fill:#fff"/><polygon points="456.13 297.89 404.52 297.91 404.52 253.82 456.13 261.21 456.13 297.89" style="fill:#fff"/><polygon points="386.75 344.4 386.75 250.16 398.77 251.93 398.77 342.67 386.75 344.4" style="fill:#fff"/><polygon points="369.27 346.9 369.27 247.6 382.6 249.55 382.6 344.99 369.27 346.9" style="fill:#fff"/><path d="M476.29,263.29v48.17c-.22.89-.45,1.78-.68,2.66l0,.13c-.17.62-.33,1.24-.5,1.85s-.29,1.06-.44,1.58-.32,1.16-.49,1.73l-.57,1.95c-.26.87-.53,1.75-.8,2.62s-.54,1.73-.83,2.6q-.31,1-.66,2c-.14.44-.29.88-.44,1.31-.29.85-.58,1.69-.88,2.53,0,0,0,0,0,.06l-.4.06V262.3Z" style="fill:#fff"/><polygon points="459.98 333.89 459.98 260.9 467.26 261.97 467.26 332.85 459.98 333.89" style="fill:#fff"/><path d="M482.91,265v.1c-.05,1.28-.12,2.56-.19,3.83,0,.39,0,.79-.07,1.18,0,.6-.07,1.19-.11,1.78,0,.32-.05.64-.07,1-.08,1.16-.18,2.31-.28,3.47,0,.07,0,.15,0,.22s0,.27,0,.4c-.11,1.16-.22,2.31-.34,3.46,0,.05,0,.11,0,.16s0,.25,0,.37q-.19,1.8-.42,3.6c-.15,1.24-.32,2.47-.5,3.7,0,.31-.08.62-.13.93-.15,1-.31,2.06-.47,3.09-.2,1.26-.42,2.52-.64,3.78,0,0,0,0,0,.05V264.56Z" style="fill:#fff"/><path d="M407.13,343.9c0,10.56,6.37,17.76,13.87,16.15,7.13-1.52,12.65-10.52,12.65-20.17s-5.52-17-12.65-16.34C413.5,324.2,407.13,333.33,407.13,343.9Z" style="fill:#005596"/><path d="M414.05,342.85c0,5.29,3.15,9,6.95,8.31s6.63-5.31,6.63-10.37S424.7,332,421,332.44,414.05,337.56,414.05,342.85Z" style="fill:#fff"/><path d="M356.76,231.09c0-3.66-3-6.72-6.22-6.28l-68.21,9.35c-5,.68-9,1.14-9,14.5v91.48c0,12.2,4,13.84,9,14.55l68.14,9.58c3.21.45,6.22-2.58,6.22-6.24Z" style="fill:#005596"/><polygon points="345.57 307.91 282.29 306.59 282.29 255.6 345.57 249.5 345.57 307.91" style="fill:#fff;stroke:#005596;stroke-linecap:round;stroke-linejoin:round;stroke-width:2.78240200486459px"/><path d="M341.83,242l-56.64,5.83c-1.6.17-2.9-1.61-2.9-4h0c0-2.35,1.3-4.41,2.9-4.61l56.64-6.94c2.06-.26,3.74,1.72,3.74,4.42h0C345.57,239.47,343.89,241.83,341.83,242Z" style="fill:#fff"/><polygon points="331.92 345.76 345.61 347.25 345.61 337.85 331.92 336.62 331.92 345.76" style="fill:#fff"/><polygon points="282.29 340.35 293.29 341.55 293.29 333.14 282.29 332.15 282.29 340.35" style="fill:#fff"/><path d="M330.67,251.06,300,254l-16.6,52.47S297.58,268,330.67,251.06Z" style="fill:#005596"/></svg>