<svg id="icon" xmlns="http://www.w3.org/2000/svg" viewBox="0 0 512 512"><path d="M490.49,255.35a234.67,234.67,0,1,1-469.34,0c0-129.6,105.07-234.67,234.67-234.67S490.49,125.75,490.49,255.35Z" style="fill:#1e4384"/><path d="M377,263V368.72c0,8.4-7.47,15.28-16.59,15.28H151.08c-9.12,0-16.59-6.88-16.59-15.28V262.12" style="fill:#fff;stroke:#1e4384;stroke-miterlimit:10;stroke-width:6px"/><path d="M255.39,334.4a.75.75,0,0,1-.41-.12L68,219.64a.79.79,0,0,1,0-1.37l183.25-97.56a.81.81,0,0,1,.37-.09.78.78,0,0,1,.37.09l191.51,99.36a.74.74,0,0,1,.42.68.73.73,0,0,1-.38.7L255.8,334.28A.75.75,0,0,1,255.39,334.4Z" style="fill:#fff"/><path d="M251.65,123.9l187,97L255.4,331,72.83,219.1l178.82-95.2m0-6.28a3.87,3.87,0,0,0-1.78.44L66.6,215.62a3.79,3.79,0,0,0-.2,6.58l187,114.64a3.79,3.79,0,0,0,3.93,0L445.1,224a3.79,3.79,0,0,0-.21-6.61L253.38,118a3.86,3.86,0,0,0-1.75-.42Z" style="fill:#1e4384"/><path d="M286,244.29c0-14.47-7.93-21.25-23.66-26.19-11.95-3.9-14.93-5.51-14.93-10.1,0-4.37,3.44-6.78,9.65-6.78a24.91,24.91,0,0,1,12.25,3.17A7.61,7.61,0,0,0,276.59,191a38.48,38.48,0,0,0-14.39-4.65v-8.5a6.44,6.44,0,0,0-12.88,0v8.48c-13.95,1.93-23.76,10.57-23.76,23.36,0,11.71,6,19.41,24.57,25.26,11,3.34,13.79,5.63,13.79,10.91s-4,8.62-11.37,8.62a27.74,27.74,0,0,1-14.73-4.2,7.63,7.63,0,0,0-9.64,1.38l-.44.5a7.61,7.61,0,0,0,1.75,11.64,44.41,44.41,0,0,0,19.83,5.92v7.38a6.44,6.44,0,0,0,12.88,0v-8C277.26,266.53,286,257,286,244.29Z" style="fill:#b9d532;stroke:#1e4384;stroke-miterlimit:10;stroke-width:4px"/></svg>