<svg id="icon" xmlns="http://www.w3.org/2000/svg" viewBox="0 0 512 512"><path d="M490.49,255.35a234.67,234.67,0,1,1-469.34,0c0-129.6,105.07-234.67,234.67-234.67S490.49,125.75,490.49,255.35Z" style="fill:#1e4384"/><path d="M128.5,373.67h.15l-.17-.21Z" style="fill:#005696;stroke:#1e4384;stroke-miterlimit:10"/><path d="M367.37,225.75a4.15,4.15,0,0,1-4.13-3.62,18.66,18.66,0,0,1,0-5.27c.06-.76.13-1.47.13-2.14l.09-7.34H297.83a9.4,9.4,0,0,1-9.39-9.39V133.77a9.4,9.4,0,0,1,9.39-9.39H411.16a9.4,9.4,0,0,1,9.39,9.39V198a9.4,9.4,0,0,1-9.39,9.39H392.7a2.46,2.46,0,0,0-2.14.76c-1.23,1-2.47,2-3.71,3-3.4,2.75-6.92,5.6-10.16,8.59l-.37.35c-3.5,3.39-6.36,5.65-8.95,5.65Z" style="fill:#fff"/><path d="M411.16,127.38a6.39,6.39,0,0,1,6.39,6.39V198a6.39,6.39,0,0,1-6.39,6.39H392.7a5.24,5.24,0,0,0-4,1.45c-4.7,3.87-9.52,7.6-14,11.72-.78.73-5.11,5.21-7.28,5.21-.59,0-1-.33-1.18-1.16-.42-2.26.12-4.58.14-6.83l.12-9.91a1.61,1.61,0,0,0-1.13-.47H297.83a6.39,6.39,0,0,1-6.39-6.39V133.77a6.39,6.39,0,0,1,6.39-6.39H411.16m0-6H297.83a12.41,12.41,0,0,0-12.39,12.39V198a12.41,12.41,0,0,0,12.39,12.39h62.55l-.05,4.31c0,.55-.06,1.21-.12,1.9a22,22,0,0,0,.08,6.09,7.13,7.13,0,0,0,7.08,6.07c3.61,0,6.9-2.49,11-6.5l.31-.3c3.17-2.91,6.5-5.61,10-8.46l3.73-3,.1-.08h18.59A12.41,12.41,0,0,0,423.55,198V133.77a12.41,12.41,0,0,0-12.39-12.39Z" style="fill:#1e4384"/><rect x="307.91" y="145.29" width="84.59" height="3.78" rx="1.7" style="fill:#005696;stroke:#1e4384;stroke-miterlimit:10"/><rect x="307.91" y="183.78" width="79.53" height="3.78" rx="1.7" style="fill:#005696;stroke:#1e4384;stroke-miterlimit:10"/><rect x="308.54" y="164.54" width="97.2" height="3.78" rx="1.7" style="fill:#005696;stroke:#1e4384;stroke-miterlimit:10"/><path d="M178,201.43c-2.78,0-5.91-2.48-9.76-6.22l-.42-.4c-3.63-3.34-7.57-6.53-11.38-9.62-1.39-1.12-2.78-2.25-4.15-3.38a3,3,0,0,0-2.61-.93H129.05a10.16,10.16,0,0,1-10.15-10.15V98.93a10.16,10.16,0,0,1,10.15-10.15H255.78a10.16,10.16,0,0,1,10.15,10.15v71.81a10.16,10.16,0,0,1-10.15,10.15h-73.7l.1,8.57c0,.76.08,1.56.15,2.42a20.92,20.92,0,0,1,0,5.8A4.3,4.3,0,0,1,178,201.43Z" style="fill:#fff"/><path d="M255.78,91.78a7.15,7.15,0,0,1,7.15,7.15v71.81a7.15,7.15,0,0,1-7.15,7.15H180.32a1.82,1.82,0,0,0-1.27.52c0,3.7.09,7.39.13,11.08,0,2.53.63,5.12.16,7.64-.18.93-.66,1.3-1.32,1.3-2.42,0-7.27-5-8.15-5.82-5-4.62-10.4-8.79-15.66-13.12a5.9,5.9,0,0,0-4.51-1.61H129.05a7.15,7.15,0,0,1-7.15-7.15V98.93a7.15,7.15,0,0,1,7.15-7.15H255.78m0-6H129.05A13.17,13.17,0,0,0,115.9,98.93v71.81a13.17,13.17,0,0,0,13.15,13.15h21l.31.25,4.17,3.39c4,3.2,7.67,6.22,11.24,9.5l.36.35c4.5,4.36,8.05,7.06,11.85,7.06a7.27,7.27,0,0,0,7.22-6.2,23.46,23.46,0,0,0,.08-6.62c-.07-.79-.13-1.54-.14-2.19l-.06-5.53h70.66a13.17,13.17,0,0,0,13.15-13.15V98.93a13.17,13.17,0,0,0-13.15-13.15Z" style="fill:#1e4384"/><path d="M190,135.91a41.44,41.44,0,0,1,6.14-6.73,35.71,35.71,0,0,0,4.35-4.53,6.69,6.69,0,0,0,1.39-4.17,6.15,6.15,0,0,0-2.65-5.25,11.72,11.72,0,0,0-7-1.92,15.63,15.63,0,0,0-7.49,1.75,15.87,15.87,0,0,0-5.51,4.88l-10.86-6.36a25.2,25.2,0,0,1,10.18-8.89,34.32,34.32,0,0,1,15.21-3.13q10.31,0,16.55,4.39a14.11,14.11,0,0,1,6.23,12.2,16,16,0,0,1-1.21,6.46,17.2,17.2,0,0,1-3,4.71q-1.76,1.92-4.53,4.44a36.89,36.89,0,0,0-4.84,5,7.83,7.83,0,0,0-1.53,4.88H187.89A13.23,13.23,0,0,1,190,135.91Zm-1.44,27.85a7.7,7.7,0,0,1-2.47-5.78,7.49,7.49,0,0,1,2.43-5.7,9.5,9.5,0,0,1,12.37,0,7.49,7.49,0,0,1,2.43,5.7,7.74,7.74,0,0,1-2.47,5.78,9.12,9.12,0,0,1-12.29,0Z" style="fill:#1e4384"/><path d="M195.31,415.08a104.48,104.48,0,0,1-57.67-17.25l-6.54-4.67A105.58,105.58,0,0,1,107.72,368L106.36,366l30-29.77a30.17,30.17,0,0,1,15-8.15,118.61,118.61,0,0,1,14.08-2,52,52,0,0,1,26.85-94.23c.84-.06,1.75-.09,2.75-.09h.56c1,0,1.94.05,2.73.09A52,52,0,0,1,225.17,326a118.61,118.61,0,0,1,14.08,2,30,30,0,0,1,15,8.15l30,29.77L282.88,368a105.38,105.38,0,0,1-23.38,25.16L253,397.83A104.43,104.43,0,0,1,195.31,415.08Z" style="fill:#fff"/><path d="M195.59,234.67c.86,0,1.69,0,2.55.09a49,49,0,0,1,16,94h6.14A106.43,106.43,0,0,1,238.63,331a27.26,27.26,0,0,1,13.5,7.35l28.25,28a102.82,102.82,0,0,1-22.72,24.45l-6.35,4.54a102,102,0,0,1-112,0l-6.35-4.54a102.57,102.57,0,0,1-22.71-24.45l28.24-28A27.3,27.3,0,0,1,152,331a106.54,106.54,0,0,1,18.36-2.21h6.14a49,49,0,0,1,16-94c.86-.07,1.71-.09,2.57-.09h.56m0-6H195c-1.06,0-2,0-3,.1a55,55,0,0,0-34,95c-2.47.36-5,.78-7.32,1.28a33.27,33.27,0,0,0-16.47,9l-28.25,28-3.5,3.47,2.72,4.11a108.39,108.39,0,0,0,24.05,25.87l.09.07.09.07,6.35,4.54.1.07.09.06a108,108,0,0,0,118.62,0l.1-.06.09-.07,6.35-4.54.09-.07.1-.07a108.55,108.55,0,0,0,24-25.87l2.72-4.11-3.5-3.47-28.24-28a33.14,33.14,0,0,0-16.49-9c-2.33-.5-4.84-.92-7.31-1.28a55,55,0,0,0-34.05-95c-.83-.05-1.83-.1-2.92-.1Z" style="fill:#1e4384"/><path d="M387.14,370.44a2,2,0,0,1-.19.22h.17Z" style="fill:#005696;stroke:#1e4384;stroke-miterlimit:10"/><path d="M323.62,369.25l69.06-25.66a.12.12,0,0,0,0-.23c-3.22-.36-19.77-4.1-18.05-42.76,1.11-25-11.63-38.48-24.66-45.72a56.16,56.16,0,0,0-52.9-.48c-13.92,7.11-27.88,20.63-26.69,46.2,1.79,38.68-15.51,42.4-18.86,42.76a.12.12,0,0,0,0,.23l72.14,25.66" style="fill:#b9d532;stroke:#b9d532;stroke-miterlimit:10;stroke-width:6px"/><path d="M322.08,427.73A98.08,98.08,0,0,1,268,411.54l-6.14-4.39a99,99,0,0,1-21.94-23.62l-1.36-2,28.21-28a28.43,28.43,0,0,1,14.14-7.69,113,113,0,0,1,12.7-1.87,48.89,48.89,0,0,1,25.66-88.31c.79-.06,1.66-.09,2.59-.09h.52c1,0,1.84,0,2.58.09a48.89,48.89,0,0,1,25.66,88.31,112.79,112.79,0,0,1,12.71,1.87,28.38,28.38,0,0,1,14.14,7.69l28.21,28-1.36,2a99,99,0,0,1-21.95,23.62l-6.13,4.39A98.1,98.1,0,0,1,322.08,427.73Z" style="fill:#fff"/><path d="M322.34,258.53c.81,0,1.59,0,2.4.08a45.89,45.89,0,0,1,15,88.05h5.75a100.7,100.7,0,0,1,17.2,2.07,25.52,25.52,0,0,1,12.64,6.88l26.46,26.27a96.14,96.14,0,0,1-21.27,22.9L374.55,409a95.53,95.53,0,0,1-104.94,0l-5.95-4.25a96.18,96.18,0,0,1-21.28-22.9l26.46-26.27a25.63,25.63,0,0,1,12.65-6.88,100.7,100.7,0,0,1,17.2-2.07h5.75a45.89,45.89,0,0,1,15-88.05c.8-.06,1.6-.08,2.4-.08h.52m0-6h-.52c-1,0-1.91,0-2.81.1a51.89,51.89,0,0,0-32.66,89.15c-2.07.3-4.16.67-6.11,1.08a31.58,31.58,0,0,0-15.62,8.49l-26.46,26.27-3.5,3.47,2.72,4.1A101.81,101.81,0,0,0,260,409.52l.09.07.09.07,5.95,4.25.09.07.1.06a101.52,101.52,0,0,0,111.54,0l.09-.06.09-.07,6-4.25.09-.07.09-.07a101.81,101.81,0,0,0,22.61-24.33l2.72-4.1-3.5-3.47-26.46-26.26a31.42,31.42,0,0,0-15.63-8.5c-2-.41-4-.78-6.1-1.08a51.89,51.89,0,0,0-32.7-89.15c-.79,0-1.73-.1-2.77-.1Z" style="fill:#1e4384"/><circle cx="322.08" cy="302.71" r="41.7" style="fill:#fff;stroke:#fff;stroke-miterlimit:10;stroke-width:6px"/><path d="M272.52,300.57c20.27-4.28,33.75-36.36,34.88-43.53a.27.27,0,0,1,.52,0c1.7,6.46,14.29,34.27,63.32,43.56l.93-5.39a24.82,24.82,0,0,0-9-23.72l-4-3.14a72.91,72.91,0,0,0-41.59-15.67h0a37.32,37.32,0,0,0-27.4,10.1h0c-9,8.47-19.62,20.75-18.23,33.09Z" style="fill:#b9d532;stroke:#b9d532;stroke-miterlimit:10;stroke-width:6px"/><path d="M195.31,415.08a104.48,104.48,0,0,1-57.67-17.25l-6.54-4.67A105.58,105.58,0,0,1,107.72,368L106.36,366l30-29.77a30.17,30.17,0,0,1,15-8.15,118.61,118.61,0,0,1,14.08-2,52,52,0,0,1,26.85-94.23c.84-.06,1.75-.09,2.75-.09h.56c1,0,1.94.05,2.73.09A52,52,0,0,1,225.17,326a118.61,118.61,0,0,1,14.08,2,30,30,0,0,1,15,8.15l30,29.77L282.88,368a105.38,105.38,0,0,1-23.38,25.16L253,397.83A104.43,104.43,0,0,1,195.31,415.08Z" style="fill:#fff"/><path d="M195.59,234.67c.86,0,1.69,0,2.55.09a49,49,0,0,1,16,94h6.14A106.43,106.43,0,0,1,238.63,331a27.26,27.26,0,0,1,13.5,7.35l28.25,28a102.82,102.82,0,0,1-22.72,24.45l-6.35,4.54a102,102,0,0,1-112,0l-6.35-4.54a102.57,102.57,0,0,1-22.71-24.45l28.24-28A27.3,27.3,0,0,1,152,331a106.54,106.54,0,0,1,18.36-2.21h6.14a49,49,0,0,1,16-94c.86-.07,1.71-.09,2.57-.09h.56m0-6H195c-1.06,0-2,0-3,.1a55,55,0,0,0-34,95c-2.47.36-5,.78-7.32,1.28a33.27,33.27,0,0,0-16.47,9l-28.25,28-3.5,3.47,2.72,4.11a108.39,108.39,0,0,0,24.05,25.87l.09.07.09.07,6.35,4.54.1.07.09.06a108,108,0,0,0,118.62,0l.1-.06.09-.07,6.35-4.54.09-.07.1-.07a108.55,108.55,0,0,0,24-25.87l2.72-4.11-3.5-3.47-28.24-28a33.14,33.14,0,0,0-16.49-9c-2.33-.5-4.84-.92-7.31-1.28a55,55,0,0,0-34.05-95c-.83-.05-1.83-.1-2.92-.1Z" style="fill:#1e4384"/><path d="M387.14,370.44a2,2,0,0,1-.19.22h.17Z" style="fill:#005696;stroke:#1e4384;stroke-miterlimit:10"/><path d="M323.62,369.25l69.06-25.66a.12.12,0,0,0,0-.23c-3.22-.36-19.77-4.1-18.05-42.76,1.11-25-11.63-38.48-24.66-45.72a56.16,56.16,0,0,0-52.9-.48c-13.92,7.11-27.88,20.63-26.69,46.2,1.79,38.68-15.51,42.4-18.86,42.76a.12.12,0,0,0,0,.23l72.14,25.66" style="fill:#b9d532;stroke:#b9d532;stroke-miterlimit:10;stroke-width:6px"/><path d="M322.08,427.73A98.08,98.08,0,0,1,268,411.54l-6.14-4.39a99,99,0,0,1-21.94-23.62l-1.36-2,28.21-28a28.43,28.43,0,0,1,14.14-7.69,113,113,0,0,1,12.7-1.87,48.89,48.89,0,0,1,25.66-88.31c.79-.06,1.66-.09,2.59-.09h.52c1,0,1.84,0,2.58.09a48.89,48.89,0,0,1,25.66,88.31,112.79,112.79,0,0,1,12.71,1.87,28.38,28.38,0,0,1,14.14,7.69l28.21,28-1.36,2a99,99,0,0,1-21.95,23.62l-6.13,4.39A98.1,98.1,0,0,1,322.08,427.73Z" style="fill:#fff"/><path d="M322.34,258.53c.81,0,1.59,0,2.4.08a45.89,45.89,0,0,1,15,88.05h5.75a100.7,100.7,0,0,1,17.2,2.07,25.52,25.52,0,0,1,12.64,6.88l26.46,26.27a96.14,96.14,0,0,1-21.27,22.9L374.55,409a95.53,95.53,0,0,1-104.94,0l-5.95-4.25a96.18,96.18,0,0,1-21.28-22.9l26.46-26.27a25.63,25.63,0,0,1,12.65-6.88,100.7,100.7,0,0,1,17.2-2.07h5.75a45.89,45.89,0,0,1,15-88.05c.8-.06,1.6-.08,2.4-.08h.52m0-6h-.52c-1,0-1.91,0-2.81.1a51.89,51.89,0,0,0-32.66,89.15c-2.07.3-4.16.67-6.11,1.08a31.58,31.58,0,0,0-15.62,8.49l-26.46,26.27-3.5,3.47,2.72,4.1A101.81,101.81,0,0,0,260,409.52l.09.07.09.07,5.95,4.25.09.07.1.06a101.52,101.52,0,0,0,111.54,0l.09-.06.09-.07,6-4.25.09-.07.09-.07a101.81,101.81,0,0,0,22.61-24.33l2.72-4.1-3.5-3.47-26.46-26.26a31.42,31.42,0,0,0-15.63-8.5c-2-.41-4-.78-6.1-1.08a51.89,51.89,0,0,0-32.7-89.15c-.79,0-1.73-.1-2.77-.1Z" style="fill:#1e4384"/><circle cx="322.08" cy="302.71" r="41.7" style="fill:#fff;stroke:#fff;stroke-miterlimit:10;stroke-width:6px"/><path d="M272.52,300.57c20.27-4.28,33.75-36.36,34.88-43.53a.27.27,0,0,1,.52,0c1.7,6.46,14.29,34.27,63.32,43.56l.93-5.39a24.82,24.82,0,0,0-9-23.72l-4-3.14a72.91,72.91,0,0,0-41.59-15.67h0a37.32,37.32,0,0,0-27.4,10.1h0c-9,8.47-19.62,20.75-18.23,33.09Z" style="fill:#b9d532;stroke:#b9d532;stroke-miterlimit:10;stroke-width:6px"/></svg>