<svg id="icon" xmlns="http://www.w3.org/2000/svg" viewBox="0 0 512 512"><path d="M256,487.17A231.17,231.17,0,0,1,92.54,92.54,231.17,231.17,0,1,1,419.46,419.46,229.66,229.66,0,0,1,256,487.17Z" style="fill:#fff"/><path d="M256,28.33a227.74,227.74,0,0,1,88.62,437.45A227.73,227.73,0,0,1,167.38,46.22,226.27,226.27,0,0,1,256,28.33m0-7C126.4,21.33,21.33,126.4,21.33,256S126.4,490.67,256,490.67,490.67,385.6,490.67,256,385.6,21.33,256,21.33Z" style="fill:#005696"/><path d="M223.61,326.87l-4.16.68,3,3-3.25,2.36-2-3.75L215.29,333,212,330.59l3-3-4.16-.71,1.21-3.72,3.78,1.83-.59-4.22h4l-.62,4.25,3.75-1.89Z" style="fill:#fff"/><path d="M243,326.87l-4.16.68,3,3-3.25,2.36-1.95-3.75L234.68,333l-3.25-2.36,2.95-3-4.16-.71,1.21-3.72,3.78,1.83-.59-4.22h4L238,325l3.75-1.89Z" style="fill:#fff"/><path d="M262.39,326.87l-4.16.68,3,3L258,332.92,256,329.17,254.07,333l-3.25-2.36,3-3-4.16-.71,1.21-3.72L254.6,325l-.59-4.22h4L257.4,325l3.75-1.89Z" style="fill:#fff"/><path d="M281.78,326.87l-4.16.68,3,3-3.25,2.36-1.94-3.75-2,3.78-3.25-2.36,3-3-4.16-.71,1.21-3.72L274,325l-.59-4.22h4l-.62,4.25,3.75-1.89Z" style="fill:#fff"/><path d="M301.17,326.87l-4.16.68,3,3-3.25,2.36-1.94-3.75L292.85,333l-3.25-2.36,2.95-3-4.16-.71,1.21-3.72,3.78,1.83-.59-4.22h4l-.62,4.25,3.75-1.89Z" style="fill:#fff"/><rect x="102.64" y="144.88" width="306.73" height="192.05" rx="12.23" style="fill:#005696;stroke:#00659f;stroke-miterlimit:10"/><rect x="125.52" y="166.22" width="260.97" height="149.38" rx="7.26" style="fill:#fff"/><path d="M379.22,169.22a4.26,4.26,0,0,1,4.26,4.26V308.34a4.26,4.26,0,0,1-4.26,4.26H132.78a4.26,4.26,0,0,1-4.26-4.26V173.48a4.26,4.26,0,0,1,4.26-4.26H379.22m0-6H132.78a10.29,10.29,0,0,0-10.26,10.26V308.34a10.29,10.29,0,0,0,10.26,10.26H379.22a10.29,10.29,0,0,0,10.26-10.26V173.48a10.29,10.29,0,0,0-10.26-10.26Z" style="fill:#005696"/><path d="M341.7,387.1H291.14V344.32h-68V387.1H170.3c-4.83,0-8.78,3.36-8.78,7.47s3.95,7.48,8.78,7.48H341.7c4.83,0,8.78-3.37,8.78-7.48S346.53,387.1,341.7,387.1Z" style="fill:#005696"/><path d="M379,199.26A43.22,43.22,0,0,1,368.69,196l-5,7-13-9.15,5-7.13a41.93,41.93,0,0,1-6.43-8.77l-8.13,2.77-5.1-15,8.26-2.81a42.08,42.08,0,0,1,0-10.87l-8.21-2.54,4.71-15.16,8.33,2.59a42.51,42.51,0,0,1,6.35-8.82l-5.13-6.88,12.7-9.51,5.23,7a43.76,43.76,0,0,1,4.68-1.91,42.22,42.22,0,0,1,5.64-1.5l-.12-8.59,15.87-.2.12,8.72a42.5,42.5,0,0,1,10.35,3.31l4.95-7,13,9.15-5,7.12a42,42,0,0,1,6.43,8.78l8.13-2.76,5.1,15-8.26,2.81a42.08,42.08,0,0,1,.05,10.87l8.19,2.54-4.69,15.15-8.34-2.59A42.94,42.94,0,0,1,418,186.4l5.14,6.88-12.72,9.5-5.22-7a43.08,43.08,0,0,1-4.69,1.91,43.74,43.74,0,0,1-5.63,1.5l.12,8.59-15.87.21Z" style="fill:#005696"/><path d="M391.46,109.5l.11,8.26a39.92,39.92,0,0,1,14.28,4.57l4.71-6.67,8.06,5.69-4.76,6.75a39.31,39.31,0,0,1,8.85,12.11l7.74-2.64,3.18,9.34-7.84,2.66a39.38,39.38,0,0,1,.06,15l7.81,2.43-2.92,9.42L422.85,174a40.08,40.08,0,0,1-8.78,12.16l4.9,6.55-7.91,5.91L406.12,192a40.2,40.2,0,0,1-6.55,2.9,39.36,39.36,0,0,1-7.7,1.79l.11,8.18-9.86.13-.12-8.27a40.21,40.21,0,0,1-14.27-4.57L363,198.78,355,193.09l4.77-6.76a39.06,39.06,0,0,1-8.85-12.09l-7.75,2.63L340,167.52l7.84-2.66a39.38,39.38,0,0,1-.06-15l-7.82-2.42,2.93-9.42,7.89,2.45a40.26,40.26,0,0,1,8.77-12.17l-4.89-6.54,7.91-5.92,4.94,6.63a40.93,40.93,0,0,1,6.54-2.89,40.22,40.22,0,0,1,7.71-1.8l-.11-8.17,9.86-.12m5.92-6.08-6,.08-9.87.12-6,.07.09,6,0,3.15c-1.21.31-2.4.66-3.57,1.06-.92.31-1.84.66-2.75,1l-2-2.67-3.6-4.82-4.81,3.6L351,117l-4.8,3.59,3.59,4.8,1.88,2.52a44.78,44.78,0,0,0-3.89,5.4l-3.18-1-5.73-1.78-1.78,5.73-2.93,9.42-1.78,5.73,5.74,1.78,3,.93a44.87,44.87,0,0,0,0,6.66L338,161.84l-5.68,1.93,1.93,5.68,3.18,9.35,1.93,5.68,5.68-1.93,3-1a44,44,0,0,0,3.93,5.37l-1.91,2.72-3.46,4.9,4.9,3.46,8.05,5.69,4.9,3.46,3.46-4.9,1.82-2.57a46.28,46.28,0,0,0,6.34,2l.05,3.33.08,6,6-.08,9.87-.13,6-.09-.09-6,0-3.15c1.2-.3,2.38-.65,3.56-1.05.93-.32,1.85-.66,2.76-1l2,2.68,3.59,4.81,4.8-3.59,7.91-5.91,4.81-3.59-3.59-4.81-1.89-2.52a44.89,44.89,0,0,0,3.89-5.41l3.18,1,5.73,1.78,1.78-5.74,2.92-9.42,1.77-5.72-5.72-1.78-3-.93a46.26,46.26,0,0,0,0-6.66l3.15-1.08,5.68-1.93L439.31,145l-3.17-9.34L434.2,130l-5.68,1.93-3,1a46.09,46.09,0,0,0-3.94-5.38l1.91-2.71,3.46-4.9-4.9-3.46L414,110.76l-4.9-3.46-3.46,4.9-1.81,2.56a47.32,47.32,0,0,0-6.35-2l0-3.32-.08-6Z" style="fill:#fff"/><path d="M386.79,181.85a24.69,24.69,0,1,1,7.92-1.32A24.61,24.61,0,0,1,386.79,181.85Z" style="fill:#005696"/><path d="M386.8,126.7v11.77a18.77,18.77,0,1,1-6,1,18.72,18.72,0,0,1,6-1V126.7m0,0a30.51,30.51,0,1,0,28.89,20.7,30.58,30.58,0,0,0-28.89-20.7Z" style="fill:#fff"/><line x1="217.68" y1="177.9" x2="147.55" y2="248.04" style="fill:#00659f;stroke:#00659f;stroke-linecap:round;stroke-miterlimit:10;stroke-width:6px"/><line x1="182.62" y1="177.9" x2="137.5" y2="223.02" style="fill:#00659f;stroke:#00659f;stroke-linecap:round;stroke-miterlimit:10;stroke-width:6px"/><path d="M298,196.91a7,7,0,0,1,0-9.84l7.33-7.33a16.71,16.71,0,0,0-22,19.76l-70.73,70.73a16.7,16.7,0,1,0,12.09,12.08l70.73-70.72a16.71,16.71,0,0,0,19.76-22l-7.33,7.33A7,7,0,0,1,298,196.91ZM219.26,289.3l-7.87,7.87-10.76-2.88-2.88-10.75,7.88-7.87,10.75,2.88Z" style="fill:#005696"/><path d="M300.49,303.47a4.25,4.25,0,0,1-3-1.26L256,260.78l3.94-3.94-1.67-1.67-3.94,3.94-6.06-6.06,5.91-5.91-46.9-46.89-7.68-3.87L191,183.5l5.58-5.58,12.88,8.59,3.87,7.68,46.89,46.9,5.91-5.91,6.06,6.06-3.94,3.94,1.67,1.67,3.94-3.94,41.43,41.44a4.26,4.26,0,0,1,0,6l-11.81,11.81A4.23,4.23,0,0,1,300.49,303.47Z" style="fill:#005696"/><path d="M196.8,179.85l11.53,7.68,3.83,7.61h0l48.08,48.08,5.91-5.91,3.94,3.94-3.94,3.94L270,249l3.94-3.94,40.37,40.38a2.77,2.77,0,0,1,0,3.93l-11.81,11.81a2.76,2.76,0,0,1-3.93,0l-40.38-40.37,3.94-3.94-3.79-3.79L254.35,257l-3.94-3.93,5.91-5.91-48.08-48.08h0l-7.61-3.83L193,183.69l3.84-3.84m-.38-3.86-1.74,1.74-3.84,3.84-1.74,1.74,1.36,2.05,7.69,11.52.44.66.71.36,7.11,3.58,45.66,45.66-3.78,3.79-2.12,2.12,2.12,2.12,3.94,3.94,1.67,1.67h0L256,262.9l40.38,40.37a5.77,5.77,0,0,0,8.18,0l11.8-11.8a5.78,5.78,0,0,0,0-8.18L276,242.91l-1.67-1.67h0l-2.12-2.12-3.94-3.94-2.12-2.12L264,235.18,260.25,239,214.59,193.3,211,186.19l-.36-.71L210,185l-11.52-7.69L196.42,176Z" style="fill:#fff"/></svg>