<svg id="icon" xmlns="http://www.w3.org/2000/svg" viewBox="0 0 512 512"><path d="M256,487.17A231.17,231.17,0,0,1,92.54,92.54,231.17,231.17,0,1,1,419.46,419.46,229.66,229.66,0,0,1,256,487.17Z" style="fill:#fff"/><path d="M256,28.33a227.74,227.74,0,0,1,88.62,437.45A227.73,227.73,0,0,1,167.38,46.22,226.27,226.27,0,0,1,256,28.33m0-7C126.4,21.33,21.33,126.4,21.33,256S126.4,490.67,256,490.67,490.67,385.6,490.67,256,385.6,21.33,256,21.33Z" style="fill:#005596"/><path d="M430.5,237.94a40.81,40.81,0,0,0-7.65-13.2,1.7,1.7,0,0,0-.19-.19.86.86,0,0,0-.13-.14,1,1,0,0,0-1.42,0L408.57,237a29.07,29.07,0,0,0-9.95-14.41,28.9,28.9,0,0,0-35.56.07,18.3,18.3,0,0,0-1.65,1.49l-54.14,54-9.13,9.09-11.77,11.73-3.27,3.26-62.5,62.31c-.64.48-1.27,1-1.87,1.53a29.11,29.11,0,0,0-6.07,7.56,41.64,41.64,0,0,0-3.52,35.54,41.12,41.12,0,0,0,38.7,27.44,41.23,41.23,0,0,0,34-18l53.32-53.31,46.14,46.14a1,1,0,0,0,.71.29,1,1,0,0,0,.48-.12,1,1,0,0,0,.53-.88v-22h20.32a1,1,0,0,0,.92-.59A1.14,1.14,0,0,0,404,387l-20.6-20.6h31.87L398,349.06,414.09,333H367.43l54.62-54.63a35.54,35.54,0,0,0,8.66-13.77l0-.1A40.64,40.64,0,0,0,430.5,237.94ZM409.22,335l-14.07,14.06,15.26,15.27h-29l-22.58-22.58c.49-.46,1-.93,1.43-1.41s1.13-1.2,1.67-1.84l3.5-3.5Zm-46-1.53a38.66,38.66,0,0,1-2.79,3.68,44.69,44.69,0,0,1-3.41,3.62,1.32,1.32,0,0,0-.12,1.82l.42.5,43.59,43.6H382a1.05,1.05,0,0,0-.71.29,1,1,0,0,0-.29.72v20.57l-44.43-44.43-.23-.23a41.47,41.47,0,0,0,8-10.37c.65-1.19,1.23-2.42,1.76-3.67a41.3,41.3,0,0,0-2.53-36.81,42,42,0,0,0-2.95-4.34l-.29-.38c-.32-.39-.66-.8-1-1.22l-.28-.33a41.11,41.11,0,0,0-46.68-10.68l16.23-16.18c.73-.51,1.49-1,2.26-1.45s1.49-.85,2.24-1.22l.07,0a39,39,0,0,1,46.65,8.8l1.46,1.73a38.74,38.74,0,0,1,3.07,4.45A39.27,39.27,0,0,1,363.2,333.47Z" style="fill:#005596"/><path d="M430.5,237.94a40.81,40.81,0,0,0-7.65-13.2,1.7,1.7,0,0,0-.19-.19.86.86,0,0,0-.13-.14,1,1,0,0,0-1.42,0L408.57,237a29.07,29.07,0,0,0-9.95-14.41,28.9,28.9,0,0,0-35.56.07,18.3,18.3,0,0,0-1.65,1.49l-54.14,54-9.13,9.09-11.77,11.73-3.27,3.26-62.5,62.31c-.64.48-1.27,1-1.87,1.53a29.11,29.11,0,0,0-6.07,7.56,41.64,41.64,0,0,0-3.52,35.54,41.12,41.12,0,0,0,38.7,27.44,41.23,41.23,0,0,0,34-18l53.32-53.31,46.14,46.14a1,1,0,0,0,.71.29,1,1,0,0,0,.48-.12,1,1,0,0,0,.53-.88v-22h20.32a1,1,0,0,0,.92-.59A1.14,1.14,0,0,0,404,387l-20.6-20.6h31.87L398,349.06,414.09,333H367.43l54.62-54.63a35.54,35.54,0,0,0,8.66-13.77l0-.1A40.64,40.64,0,0,0,430.5,237.94Zm-67.67-12.41a16.14,16.14,0,0,1,1.48-1.34,26.72,26.72,0,0,1,12.22-5.36,27.16,27.16,0,0,1,4.35-.35,26.67,26.67,0,0,1,16.5,5.65,27,27,0,0,1,9.55,14.45L361.21,284.3a41,41,0,0,0-47.35-9.95Zm-75.19,75,.7-.43c1.08-.64,2.18-1.23,3.27-1.74l.07,0a39.06,39.06,0,0,1,45.91,9.62l-59.51,59.5a2.16,2.16,0,0,0-.35,2.87,38.79,38.79,0,0,1,6,9.64L264.5,399.12a28.92,28.92,0,0,0-26.57-40.4,29,29,0,0,0-10.78,2.08Zm-30.1,105.59-.63.62-.1.12a26.9,26.9,0,0,1-39.59-2l37.9-37.91a26.9,26.9,0,0,1,2.42,39.16Zm22.73,11.2s-1.16,1.68-1.71,2.36A39.07,39.07,0,0,1,211,408.45,39.91,39.91,0,0,1,213,377c2.75-4.64,4.14-6.87,6.87-9.35.48-.48,2-1.68,2-1.68a26.91,26.91,0,0,1,31.59-.31L215.19,404l-.08.07a1.3,1.3,0,0,0,.29,1.71A28.91,28.91,0,0,0,259,407.51L284.5,382c.07.18.13.36.19.53a38.58,38.58,0,0,1,.24,25.24A39.37,39.37,0,0,1,280.27,417.29Zm53.9-53.9a56.76,56.76,0,0,1-5.91,5.91l0,0-42.87,42.87q.83-1.86,1.47-3.81a40.64,40.64,0,0,0-.24-26.54c-.24-.67-.49-1.33-.76-2l-.06-.14a40.59,40.59,0,0,0-6.47-10.66l59.57-59.57.14.18a41.07,41.07,0,0,1,2.81,4.12,39,39,0,0,1-2.62,43.65C338.21,358.74,336.25,361.09,334.17,363.39ZM409.22,335l-14.07,14.06,15.26,15.27h-29l-22.58-22.58c.49-.46,1-.93,1.43-1.41s1.13-1.2,1.67-1.84l3.5-3.5Zm-46-1.53a38.66,38.66,0,0,1-2.79,3.68,44.69,44.69,0,0,1-3.41,3.62,1.32,1.32,0,0,0-.12,1.82l.42.5,43.59,43.6H382a1.05,1.05,0,0,0-.71.29,1,1,0,0,0-.29.72v20.57l-44.43-44.43-.23-.23a41.47,41.47,0,0,0,8-10.37c.65-1.19,1.23-2.42,1.76-3.67a41.3,41.3,0,0,0-2.53-36.81,42,42,0,0,0-2.95-4.34l-.29-.38c-.32-.39-.66-.8-1-1.22l-.28-.33a41.11,41.11,0,0,0-46.68-10.68l16.23-16.18c.73-.51,1.49-1,2.26-1.45s1.49-.85,2.24-1.22l.07,0a39,39,0,0,1,46.65,8.8l1.46,1.73a38.74,38.74,0,0,1,3.07,4.45A39.27,39.27,0,0,1,363.2,333.47Zm65.64-69.62,1,.31-1-.21a33.63,33.63,0,0,1-8.17,13l-53.16,53.16a41.28,41.28,0,0,0-1.42-39.21,40.64,40.64,0,0,0-3.22-4.69l-.3-.36,46.2-46.19.06-.07,13-13a39.12,39.12,0,0,1,7.06,37.27Z" style="fill:#fff;stroke:#fff;stroke-miterlimit:10;stroke-width:4px"/><path d="M410.41,364.33h-29l-22.58-22.58c.49-.46,1-.93,1.43-1.41s1.13-1.2,1.67-1.84l3.5-3.5h43.81l-14.07,14.06Z" style="fill:#005596;stroke:#fff;stroke-linecap:round;stroke-linejoin:round;stroke-width:4px"/><path d="M400.89,386.69H382a1.05,1.05,0,0,0-.71.29,1,1,0,0,0-.29.72v20.57l-44.43-44.43-.23-.23a41.47,41.47,0,0,0,8-10.37c.65-1.19,1.23-2.42,1.76-3.67a41.3,41.3,0,0,0-2.53-36.81,42,42,0,0,0-2.95-4.34l-.29-.38c-.32-.39-.66-.8-1-1.22l-.28-.33a41.11,41.11,0,0,0-46.68-10.68l16.23-16.18c.73-.51,1.49-1,2.26-1.45s1.49-.85,2.24-1.22l.07,0a39,39,0,0,1,46.65,8.8l1.46,1.73a38.74,38.74,0,0,1,3.07,4.45,39.27,39.27,0,0,1-1.12,41.57,38.66,38.66,0,0,1-2.79,3.68,44.69,44.69,0,0,1-3.41,3.62,1.32,1.32,0,0,0-.12,1.82l.42.5Z" style="fill:#005596;stroke:#fff;stroke-linecap:round;stroke-linejoin:round;stroke-width:4px"/><path d="M200.73,298a6.79,6.79,0,0,1-3.89-1.22l-25.68-17.82c-30.74-21.33-49.59-55.88-50.44-92.41,0-.91,0-1.82,0-2.74V155.93a6.84,6.84,0,0,1,4.08-6.26L198,117.52a6.85,6.85,0,0,1,2.75-.58,6.69,6.69,0,0,1,2.78.6l72.09,32.11a6.85,6.85,0,0,1,4.05,6.24v28.42c0,.91,0,1.81,0,2.71-.83,36.21-19.43,70.58-49.74,91.94l-25.23,17.78A6.84,6.84,0,0,1,200.73,298Z" style="fill:#005596"/><path d="M200.75,120.43a3.36,3.36,0,0,1,1.36.29l72.09,32.11a3.35,3.35,0,0,1,2,3.06v28.42c0,.88,0,1.75,0,2.63-.81,35.11-18.85,68.45-48.26,89.17l-25.24,17.78a3.33,3.33,0,0,1-3.83,0l-25.69-17.82c-29.82-20.7-48.11-54.21-48.94-89.63,0-.89,0-1.77,0-2.66V155.93a3.36,3.36,0,0,1,2-3.07l73.22-32.15a3.3,3.3,0,0,1,1.35-.28m0-7a10.33,10.33,0,0,0-4.15.87l-73.23,32.16a10.31,10.31,0,0,0-6.16,9.44v27.86q0,1.41,0,2.82c.88,38.16,20.58,73.43,51.93,95.19l25.68,17.82a10.27,10.27,0,0,0,11.82,0l25.24-17.78c31-21.81,50.34-56.84,51.21-94.7,0-.93,0-1.86,0-2.79V155.89a10.32,10.32,0,0,0-6.12-9.42L205,114.35a10.42,10.42,0,0,0-4.2-.89Z" style="fill:#fff"/><path d="M200.75,113.46a10.42,10.42,0,0,1,4.2.89L277,146.47a10.32,10.32,0,0,1,6.12,9.42v28.42c0,.93,0,1.86,0,2.79-.87,37.86-20.26,72.89-51.21,94.7l-25.24,17.78a10.27,10.27,0,0,1-11.82,0L169.17,281.8c-31.35-21.76-51-57-51.93-95.19q0-1.41,0-2.82V155.93a10.31,10.31,0,0,1,6.16-9.44l73.23-32.16a10.33,10.33,0,0,1,4.15-.87m0-6.09h0a16.27,16.27,0,0,0-6.6,1.38L120.92,140.9a16.42,16.42,0,0,0-9.81,15v27.86c0,1,0,2,0,3,.91,39.58,21.31,77,54.55,100.06l25.68,17.82a16.42,16.42,0,0,0,18.81-.06l25.23-17.78a128.66,128.66,0,0,0,38.73-43.41,124,124,0,0,0,15.07-56.14c0-1,0-2,0-2.93V155.89a16.43,16.43,0,0,0-9.73-15l-72.09-32.11a16.23,16.23,0,0,0-6.68-1.42Z" style="fill:#005596"/><path d="M249.7,187.16c.32,8.76-4.39,16.89-10.57,22.67-7.67,8.51-30.85,29.39-38.86,38.26-7.87-8.8-30.88-29.38-38.38-37.74-4.6-4.64-9.92-10.83-10.69-17.66-6-26.91,28.94-37.68,49-19.37C218.29,156.81,250.55,162.28,249.7,187.16Z" style="fill:#fff"/></svg>