<svg id="icon" xmlns="http://www.w3.org/2000/svg" viewBox="0 0 512 512"><path d="M255.43,487.09A231.16,231.16,0,0,1,92,92.47,231.17,231.17,0,0,1,418.89,419.39,229.66,229.66,0,0,1,255.43,487.09Z" style="fill:#fff"/><path d="M255.43,28.26A227.73,227.73,0,0,1,344,465.71,227.73,227.73,0,0,1,166.81,46.15a226.23,226.23,0,0,1,88.62-17.89m0-7c-129.61,0-234.67,105.06-234.67,234.67S125.82,490.59,255.43,490.59,490.09,385.53,490.09,255.93,385,21.26,255.43,21.26Z" style="fill:#005696"/><path d="M363.76,464.47,243.24,344l-.55.55-.55-.55L131.31,454.78a232.63,232.63,0,0,0,26.84,14.52l84.54-84.53L334.93,477A234,234,0,0,0,363.76,464.47Z" style="fill:#005696"/><rect x="125.56" y="220.07" width="234.25" height="146.96" rx="7.49" style="fill:#005696"/><path d="M352.32,222.57a5,5,0,0,1,5,5v132a5,5,0,0,1-5,5H133.05a5,5,0,0,1-5-5v-132a5,5,0,0,1,5-5H352.32m0-5H133.05a10,10,0,0,0-10,10v132a10,10,0,0,0,10,10H352.32a10,10,0,0,0,10-10v-132a10,10,0,0,0-10-10Z" style="fill:#fff"/><path d="M237.4,174.13a69.83,69.83,0,0,1-11.62,38.71,70.53,70.53,0,0,1-15.64,16.83q-2.12,1.65-4.37,3.12a70.21,70.21,0,0,1-77.13,0q-2.25-1.47-4.37-3.12a70.74,70.74,0,0,1-15.64-16.83A70.2,70.2,0,1,1,237.4,174.13Z" style="fill:#fff"/><path d="M212.07,174.13a44.85,44.85,0,0,1-17.42,35.5c-.9.7-1.84,1.37-2.8,2a44.89,44.89,0,0,1-49.29,0c-1-.63-1.89-1.3-2.8-2a44.87,44.87,0,1,1,72.31-35.5Z" style="fill:#005696"/><path d="M315.19,297.28l80.54,43.32a4.24,4.24,0,0,0,6.24-3.73V250.23a4.23,4.23,0,0,0-6.24-3.72l-80.54,43.32A4.23,4.23,0,0,0,315.19,297.28Z" style="fill:#005696"/><path d="M388.49,156.77a86.66,86.66,0,0,1-14.43,48.06,87.56,87.56,0,0,1-19.42,20.9c-1.75,1.37-3.56,2.66-5.43,3.89a87.22,87.22,0,0,1-95.77,0c-1.87-1.23-3.68-2.52-5.44-3.89a87.76,87.76,0,0,1-19.42-20.9,87.18,87.18,0,1,1,159.91-48.06Z" style="fill:#fff"/><path d="M362.66,156.77a61.11,61.11,0,0,1-10.15,33.82,61.9,61.9,0,0,1-13.67,14.71c-1.23,1-2.51,1.87-3.82,2.73a61.36,61.36,0,0,1-67.39,0q-2-1.29-3.82-2.73a61.9,61.9,0,0,1-13.67-14.71,61.34,61.34,0,1,1,112.52-33.82Z" style="fill:#005696"/><path d="M167.21,120.15a54,54,0,0,1,33,96.72c-1,.82-2.16,1.62-3.34,2.39a54,54,0,0,1-59.33,0c-1.15-.75-2.27-1.55-3.35-2.39a54.68,54.68,0,0,1-12-12.95,54,54,0,0,1,45.06-83.75m0-7a61,61,0,0,0-50.9,94.61,61.61,61.61,0,0,0,13.59,14.63c1.23,1,2.49,1.86,3.8,2.71a61,61,0,0,0,67,0c1.31-.85,2.57-1.76,3.8-2.71a61.61,61.61,0,0,0,13.59-14.63,61,61,0,0,0-50.89-94.61Z" style="fill:#005696"/><path d="M301.33,87.18a69.57,69.57,0,0,1,42.53,124.67q-2,1.59-4.31,3.08a69.59,69.59,0,0,1-76.47,0q-2.25-1.47-4.32-3.09a70,70,0,0,1-15.52-16.7A69.61,69.61,0,0,1,301.33,87.18m0-8.76A78.34,78.34,0,0,0,253.4,218.76q2.35,1.85,4.88,3.49a78.37,78.37,0,0,0,86.09,0c1.68-1.1,3.3-2.26,4.88-3.49A78.81,78.81,0,0,0,366.71,200,78.37,78.37,0,0,0,301.33,78.42Z" style="fill:#005696"/></svg>