<svg id="icon" xmlns="http://www.w3.org/2000/svg" xmlns:xlink="http://www.w3.org/1999/xlink" viewBox="0 0 512 512"><defs><clipPath id="clip-path"><circle cx="256" cy="-296.35" r="234.67" style="fill:none"/></clipPath></defs><path d="M255.32,487.09A231.16,231.16,0,0,1,91.86,92.47,231.17,231.17,0,0,1,418.78,419.39,229.68,229.68,0,0,1,255.32,487.09Z" style="fill:#fff"/><path d="M255.32,28.26a227.73,227.73,0,0,1,88.61,437.45A227.73,227.73,0,0,1,166.7,46.15a226.23,226.23,0,0,1,88.62-17.89m0-7c-129.61,0-234.67,105.06-234.67,234.67S125.71,490.59,255.32,490.59,490,385.53,490,255.93,384.92,21.26,255.32,21.26Z" style="fill:#005696"/><g style="clip-path:url(#clip-path)"><path d="M270-381.49a46.56,46.56,0,0,1,46.56,46.56,46.59,46.59,0,0,1-31.24,44h32.58v0h45.44v-38.71A20.65,20.65,0,0,1,384-350.33a20.65,20.65,0,0,1,20.65,20.65v52.87a27.13,27.13,0,0,1-27.13,27.13H320.92V35.09a20.65,20.65,0,0,1-20.65,20.64h0a20.64,20.64,0,0,1-20.65-20.64V-110.18H260.41V35.09a20.64,20.64,0,0,1-20.65,20.64h0a20.65,20.65,0,0,1-20.65-20.64V-169.16A20.53,20.53,0,0,1,209.9-167a20.57,20.57,0,0,1-14.59-6l-27.37-27.37-10-10a27.11,27.11,0,0,1,0-38.36l32-32a34.6,34.6,0,0,1,24.47-10.13h40.29a46.59,46.59,0,0,1-31.24-44A46.56,46.56,0,0,1,270-381.49M219.11-207.63v-44l-22,22,22,22M270-388.49a53.63,53.63,0,0,0-53.57,53.56,53.61,53.61,0,0,0,14.82,37H214.4A41.33,41.33,0,0,0,185-285.76l-32,32a34.16,34.16,0,0,0,0,48.26l10,10,27.37,27.37A27.46,27.46,0,0,0,209.9-160c.74,0,1.48,0,2.21-.09V35.09a27.65,27.65,0,0,0,55.3,0V-103.18h5.21V35.09a27.65,27.65,0,0,0,55.3,0V-242.68h49.61a34.17,34.17,0,0,0,34.13-34.13v-52.87A27.68,27.68,0,0,0,384-357.33a27.68,27.68,0,0,0-27.65,27.65V-298H317.92c-.23,0-.45,0-.67,0h-8.48a53.64,53.64,0,0,0,14.81-37A53.62,53.62,0,0,0,270-388.49ZM207-229.61l5.07-5.08v10.16L207-229.61Z" style="fill:#005696"/></g><path d="M381.6,286.23a53,53,0,0,1,32.42,95c-1,.8-2.13,1.59-3.28,2.35a53.07,53.07,0,0,1-58.29,0c-1.14-.74-2.24-1.53-3.29-2.35a53,53,0,0,1,32.44-95m0-7a60,60,0,0,0-36.72,107.55q1.8,1.41,3.74,2.67a60.05,60.05,0,0,0,66,0c1.29-.84,2.53-1.73,3.74-2.67a60.49,60.49,0,0,0,13.38-14.4,60.06,60.06,0,0,0-50.11-93.15Z" style="fill:#005696"/><path d="M426.21,372.16l-14.81-14.7a14.27,14.27,0,0,0-7.08-3.85,56.2,56.2,0,0,0-9.62-1.16h-3.22a25.69,25.69,0,0,0-8.39-49.28c-.45,0-.89-.05-1.34-.05h-.3c-.45,0-.88,0-1.34.05a25.69,25.69,0,0,0-8.38,49.28h-3.22a56.29,56.29,0,0,0-9.63,1.16,14.24,14.24,0,0,0-7.07,3.85L337,372.16" style="fill:none;stroke:#005696;stroke-miterlimit:10;stroke-width:7px"/><path d="M378.19,266.27a69.49,69.49,0,0,0-69.49,69.49" style="fill:none;stroke:#005696;stroke-linecap:round;stroke-linejoin:round;stroke-width:7px"/><path d="M376,251.31a82.21,82.21,0,0,0-82.21,82.21" style="fill:none;stroke:#005696;stroke-linecap:round;stroke-linejoin:round;stroke-width:7px"/><path d="M372.36,234.71a95.22,95.22,0,0,0-95.22,95.23" style="fill:none;stroke:#005696;stroke-linecap:round;stroke-linejoin:round;stroke-width:7px"/><path d="M129,286.23a53,53,0,0,1,32.42,95c-1,.8-2.13,1.59-3.29,2.35a53,53,0,0,1-58.28,0c-1.14-.74-2.24-1.53-3.29-2.35a53,53,0,0,1,32.44-95m0-7A60,60,0,0,0,92.3,386.78q1.82,1.41,3.74,2.67a60.05,60.05,0,0,0,66,0q1.94-1.26,3.75-2.67a60.45,60.45,0,0,0,13.37-14.4A60.06,60.06,0,0,0,129,279.23Z" style="fill:#005696"/><path d="M84.42,372.16l14.81-14.7a14.27,14.27,0,0,1,7.08-3.85,56.29,56.29,0,0,1,9.63-1.16h3.22a25.68,25.68,0,0,1,8.38-49.28c.45,0,.9-.05,1.35-.05h.29c.45,0,.89,0,1.34.05a25.68,25.68,0,0,1,8.38,49.28h3.22a56.29,56.29,0,0,1,9.63,1.16,14.32,14.32,0,0,1,7.08,3.85l14.81,14.7" style="fill:none;stroke:#005696;stroke-miterlimit:10;stroke-width:7px"/><path d="M132.45,266.27a69.49,69.49,0,0,1,69.48,69.49" style="fill:none;stroke:#005696;stroke-linecap:round;stroke-linejoin:round;stroke-width:7px"/><path d="M134.68,251.31a82.21,82.21,0,0,1,82.21,82.21" style="fill:none;stroke:#005696;stroke-linecap:round;stroke-linejoin:round;stroke-width:7px"/><path d="M138.27,234.71a95.22,95.22,0,0,1,95.22,95.23" style="fill:none;stroke:#005696;stroke-linecap:round;stroke-linejoin:round;stroke-width:7px"/><path d="M255.32,55.28a53,53,0,0,1,32.42,95c-1,.8-2.13,1.59-3.29,2.35a53.07,53.07,0,0,1-58.29,0c-1.14-.74-2.24-1.53-3.29-2.35a53,53,0,0,1,32.45-95m0-7a60,60,0,0,0-36.73,107.55c1.21.94,2.45,1.83,3.74,2.67a60.05,60.05,0,0,0,66,0q1.93-1.26,3.74-2.67a60.49,60.49,0,0,0,13.38-14.4,60.06,60.06,0,0,0-50.1-93.15Z" style="fill:#005696"/><path d="M210.71,141.21l14.81-14.7a14.27,14.27,0,0,1,7.08-3.85,56.2,56.2,0,0,1,9.62-1.16h3.22a25.69,25.69,0,0,1,8.39-49.28c.45,0,.89,0,1.34,0h.3c.45,0,.88,0,1.33,0a25.69,25.69,0,0,1,8.39,49.28h3.22a56.09,56.09,0,0,1,9.62,1.16,14.23,14.23,0,0,1,7.08,3.85l14.81,14.7" style="fill:none;stroke:#005696;stroke-miterlimit:10;stroke-width:7px"/><path d="M304.45,161.2a69.5,69.5,0,0,1-98.27,0" style="fill:none;stroke:#005696;stroke-linecap:round;stroke-linejoin:round;stroke-width:7px"/><path d="M313.44,173.36a82.2,82.2,0,0,1-116.25,0" style="fill:none;stroke:#005696;stroke-linecap:round;stroke-linejoin:round;stroke-width:7px"/><path d="M322.65,187.63a95.22,95.22,0,0,1-134.67,0" style="fill:none;stroke:#005696;stroke-linecap:round;stroke-linejoin:round;stroke-width:7px"/></svg>