<svg id="icon" xmlns="http://www.w3.org/2000/svg" xmlns:xlink="http://www.w3.org/1999/xlink" viewBox="0 0 512 512"><defs><clipPath id="clip-path"><circle cx="256" cy="-296.35" r="234.67" style="fill:none"/></clipPath></defs><path d="M255.43,487.09A231.16,231.16,0,0,1,92,92.47,231.17,231.17,0,0,1,418.89,419.39,229.66,229.66,0,0,1,255.43,487.09Z" style="fill:#fff"/><path d="M255.43,28.26A227.73,227.73,0,0,1,344,465.71,227.73,227.73,0,0,1,166.81,46.15a226.23,226.23,0,0,1,88.62-17.89m0-7c-129.61,0-234.67,105.06-234.67,234.67S125.82,490.59,255.43,490.59,490.09,385.53,490.09,255.93,385,21.26,255.43,21.26Z" style="fill:#005696"/><g style="clip-path:url(#clip-path)"><path d="M379.34-350.33h0a20.65,20.65,0,0,0-20.65,20.65V-291H313.25v0H280.68a46.59,46.59,0,0,0,31.24-44,46.56,46.56,0,0,0-46.57-46.56,46.56,46.56,0,0,0-46.57,46.56,46.59,46.59,0,0,0,31.24,44H209.74a34.64,34.64,0,0,0-24.48,10.13l-32,32a27.13,27.13,0,0,0,0,38.36l10,10L190.64-173a20.63,20.63,0,0,0,23.81,3.88V35.09A20.64,20.64,0,0,0,235.1,55.73h0a20.64,20.64,0,0,0,20.64-20.64V-110.18H275V35.09A20.65,20.65,0,0,0,295.6,55.73h0a20.64,20.64,0,0,0,20.65-20.64V-249.68h56.61A27.12,27.12,0,0,0,400-276.81v-52.87A20.64,20.64,0,0,0,379.34-350.33ZM192.47-229.61l22-22v44Z" style="fill:#005696"/></g><path d="M382.28,395.82a56.24,56.24,0,0,1-31-9.29c-1.23-.81-2.41-1.65-3.52-2.51a56.55,56.55,0,1,1,91.12-44.75,56.25,56.25,0,0,1-9.36,31.18A56.82,56.82,0,0,1,416.87,384q-1.68,1.31-3.51,2.51A56.29,56.29,0,0,1,382.28,395.82Z" style="fill:#fff"/><path d="M382.28,286.23a53,53,0,0,1,32.43,95c-1,.8-2.13,1.59-3.29,2.35a53.07,53.07,0,0,1-58.29,0c-1.13-.74-2.23-1.53-3.29-2.35A53.41,53.41,0,0,1,338,368.51a53,53,0,0,1,44.26-82.28m0-7a60,60,0,0,0-36.72,107.55c1.21.94,2.45,1.83,3.74,2.67a60.05,60.05,0,0,0,66,0q1.94-1.26,3.75-2.67a60.65,60.65,0,0,0,13.37-14.4,60.06,60.06,0,0,0-50.11-93.15Z" style="fill:#005696"/><path d="M337.68,368.16A53.8,53.8,0,0,0,349.59,381l3.33,2.38a53.45,53.45,0,0,0,58.73,0L415,381a54,54,0,0,0,11.91-12.82l-14.81-14.7a14.32,14.32,0,0,0-7.08-3.85,56.4,56.4,0,0,0-9.63-1.16h-3.22a25.69,25.69,0,0,0-8.38-49.28c-.46,0-.9-.05-1.35-.05h-.29c-.45,0-.89,0-1.34.05a25.69,25.69,0,0,0-8.39,49.28h-3.22a56.2,56.2,0,0,0-9.62,1.16,14.23,14.23,0,0,0-7.08,3.85Z" style="fill:#005696"/><path d="M378.87,266.27a69.49,69.49,0,0,0-69.48,69.49" style="fill:none;stroke:#005696;stroke-linecap:round;stroke-linejoin:round;stroke-width:7px"/><path d="M376.63,251.31a82.21,82.21,0,0,0-82.2,82.21" style="fill:none;stroke:#005696;stroke-linecap:round;stroke-linejoin:round;stroke-width:7px"/><path d="M373.05,234.71a95.23,95.23,0,0,0-95.23,95.23" style="fill:none;stroke:#005696;stroke-linecap:round;stroke-linejoin:round;stroke-width:7px"/><path d="M129.72,395.82a56.3,56.3,0,0,1-31.07-9.29q-1.84-1.21-3.51-2.51a57.14,57.14,0,0,1-12.62-13.57A56.58,56.58,0,1,1,164.3,384c-1.12.87-2.3,1.71-3.52,2.51A56.22,56.22,0,0,1,129.72,395.82Z" style="fill:#fff"/><path d="M129.72,286.23a53,53,0,0,1,32.41,95c-1,.8-2.13,1.59-3.28,2.35a53.07,53.07,0,0,1-58.29,0c-1.14-.74-2.24-1.53-3.29-2.35a53,53,0,0,1,32.45-95m0-7a60.06,60.06,0,0,0-50.11,93.15A60.65,60.65,0,0,0,93,386.78q1.81,1.41,3.75,2.67a60.05,60.05,0,0,0,66,0c1.29-.84,2.53-1.73,3.74-2.67a60.49,60.49,0,0,0,13.38-14.4,60.06,60.06,0,0,0-50.1-93.15Z" style="fill:#005696"/><path d="M174.32,368.16A53.8,53.8,0,0,1,162.41,381l-3.33,2.38a53.45,53.45,0,0,1-58.73,0L97,381A54,54,0,0,1,85.1,368.16l14.81-14.7a14.32,14.32,0,0,1,7.08-3.85,56.4,56.4,0,0,1,9.63-1.16h3.22a25.69,25.69,0,0,1,8.38-49.28c.46,0,.9-.05,1.35-.05h.29c.45,0,.89,0,1.34.05a25.69,25.69,0,0,1,8.39,49.28h3.22a56.2,56.2,0,0,1,9.62,1.16,14.23,14.23,0,0,1,7.08,3.85Z" style="fill:#005696"/><path d="M133.13,266.27a69.49,69.49,0,0,1,69.48,69.49" style="fill:none;stroke:#005696;stroke-linecap:round;stroke-linejoin:round;stroke-width:7px"/><path d="M135.37,251.31a82.21,82.21,0,0,1,82.2,82.21" style="fill:none;stroke:#005696;stroke-linecap:round;stroke-linejoin:round;stroke-width:7px"/><path d="M139,234.71a95.23,95.23,0,0,1,95.23,95.23" style="fill:none;stroke:#005696;stroke-linecap:round;stroke-linejoin:round;stroke-width:7px"/><path d="M256,164.87a56.27,56.27,0,0,1-31.06-9.29c-1.23-.81-2.41-1.65-3.51-2.51a56.58,56.58,0,1,1,69.16,0c-1.12.87-2.3,1.71-3.52,2.51A56.23,56.23,0,0,1,256,164.87Z" style="fill:#fff"/><path d="M256,55.28a53,53,0,0,1,32.42,95c-1,.8-2.13,1.59-3.29,2.35a53,53,0,0,1-58.28,0c-1.14-.74-2.24-1.53-3.29-2.35a53,53,0,0,1,32.44-95m0-7a60,60,0,0,0-36.73,107.55q1.81,1.41,3.74,2.67a60.07,60.07,0,0,0,66,0q1.92-1.26,3.74-2.67A60.05,60.05,0,0,0,256,48.28Z" style="fill:#005696"/><path d="M300.61,137.21A53.8,53.8,0,0,1,288.7,150l-3.33,2.38a53.46,53.46,0,0,1-58.74,0L223.3,150a53.8,53.8,0,0,1-11.91-12.82l14.81-14.7a14.32,14.32,0,0,1,7.08-3.85,56.4,56.4,0,0,1,9.63-1.16h3.22a25.68,25.68,0,0,1,8.38-49.28c.45,0,.9,0,1.35,0h.29c.45,0,.89,0,1.34,0a25.68,25.68,0,0,1,8.38,49.28h3.22a56.29,56.29,0,0,1,9.63,1.16,14.32,14.32,0,0,1,7.08,3.85Z" style="fill:#005696"/><path d="M305.13,161.2a69.49,69.49,0,0,1-98.26,0" style="fill:none;stroke:#005696;stroke-linecap:round;stroke-linejoin:round;stroke-width:7px"/><path d="M314.13,173.36a82.22,82.22,0,0,1-116.26,0" style="fill:none;stroke:#005696;stroke-linecap:round;stroke-linejoin:round;stroke-width:7px"/><path d="M323.33,187.63a95.21,95.21,0,0,1-134.66,0" style="fill:none;stroke:#005696;stroke-linecap:round;stroke-linejoin:round;stroke-width:7px"/></svg>