<?xml version="1.0" encoding="UTF-8"?><svg id="Layer_2" xmlns="http://www.w3.org/2000/svg" viewBox="0 0 1846 62.99"><defs><style>.cls-1{stroke-width:0px;}</style></defs><g id="Layer_2-2"><g id="Layer_1-2"><path class="cls-1" d="M802.96,0c-54.83,0-110.08,2.83-165.26,6.2-80.32,4.9-160.48,10.91-238.91,10.91-30,0-59.74-.88-89.15-3.04-9-.66-17.82-1.43-26.59-2.24-19.96-1.84-39.65-3.82-60.58-4.99-16.09-.89-32.26-1.27-48.49-1.27-44.31,0-89.07,2.84-133.77,5.84C26.8,12.31,13.39,13.23,0,14.08v48.91s1846,0,1846,0V21.86c-13.58.6-27.37.88-41.66.88-14.29,0-28.6-.29-42.45-.83-23.4-.91-46.1-2.4-68.53-4.11-32.53-2.49-64.49-5.47-97.2-7.85-64.17-4.67-131.77-7.03-199.35-7.03-47.52,0-95.01,1.16-141.33,3.51-16.71.85-33.41,1.85-50.12,2.84-42.3,2.52-84.7,5.03-127.65,5.03-7.79,0-15.58-.08-23.41-.26-19.13-.44-37.68-1.45-55.95-2.73-2.58-.18-5.16-.37-7.73-.56-41.13-3.06-81.12-7.3-123.63-9.3C845.74.44,824.38,0,802.97,0"/></g></g></svg>