<svg id="icon" xmlns="http://www.w3.org/2000/svg" xmlns:xlink="http://www.w3.org/1999/xlink" viewBox="0 0 512 512"><defs><clipPath id="clip-path"><circle cx="255.42" cy="142.36" r="86.55" style="fill:none"/></clipPath><clipPath id="clip-path-2"><circle cx="132" cy="260.18" r="58.84" style="fill:none"/></clipPath><clipPath id="clip-path-3"><circle cx="380" cy="260.18" r="58.84" style="fill:none"/></clipPath></defs><path d="M256,487.17A231.17,231.17,0,0,1,92.54,92.54,231.17,231.17,0,1,1,419.46,419.46,229.66,229.66,0,0,1,256,487.17Z" style="fill:#fff"/><path d="M256,28.33a227.74,227.74,0,0,1,88.62,437.45A227.73,227.73,0,0,1,167.38,46.22,226.27,226.27,0,0,1,256,28.33m0-7C126.4,21.33,21.33,126.4,21.33,256S126.4,490.67,256,490.67,490.67,385.6,490.67,256,385.6,21.33,256,21.33Z" style="fill:#005696"/><g style="clip-path:url(#clip-path)"><path d="M332.73,192.9a93.22,93.22,0,0,1-20.64,22.22l-5.77,4.12a92.67,92.67,0,0,1-101.8,0l-5.77-4.12a93.22,93.22,0,0,1-20.64-22.22l25.67-25.48a24.72,24.72,0,0,1,12.27-6.67,96.74,96.74,0,0,1,16.68-2h5.58a44.51,44.51,0,0,1,14.53-85.41c.78-.06,1.55-.09,2.33-.09h.51c.78,0,1.54,0,2.32.09a44.51,44.51,0,0,1,14.53,85.41h5.58a96.73,96.73,0,0,1,16.69,2,24.65,24.65,0,0,1,12.26,6.67Z" style="fill:#005696"/></g><circle cx="255.42" cy="142.36" r="88.97" style="fill:none;stroke:#005696;stroke-miterlimit:10;stroke-width:7px"/><g style="clip-path:url(#clip-path-2)"><path d="M184.56,294.54a63.37,63.37,0,0,1-14,15.1l-3.92,2.81a63,63,0,0,1-69.21,0l-3.92-2.81a63.41,63.41,0,0,1-14-15.1l17.45-17.32a16.89,16.89,0,0,1,8.34-4.54,66.47,66.47,0,0,1,11.35-1.36h3.79a30.27,30.27,0,0,1,9.88-58.07c.53,0,1.05-.06,1.59-.06h.34c.53,0,1,0,1.58.06a30.27,30.27,0,0,1,9.88,58.07h3.79a66.26,66.26,0,0,1,11.34,1.36,16.8,16.8,0,0,1,8.34,4.54Z" style="fill:#005696"/></g><circle cx="132" cy="260.18" r="60.48" style="fill:none;stroke:#005696;stroke-miterlimit:10;stroke-width:7px"/><g style="clip-path:url(#clip-path-3)"><path d="M432.56,294.54a63.41,63.41,0,0,1-14,15.1l-3.92,2.81a63,63,0,0,1-69.21,0l-3.92-2.81a63.37,63.37,0,0,1-14-15.1l17.45-17.32a16.84,16.84,0,0,1,8.34-4.54,66.37,66.37,0,0,1,11.34-1.36h3.79a30.27,30.27,0,0,1,9.88-58.07q.79-.06,1.59-.06h.34c.53,0,1.05,0,1.58.06a30.27,30.27,0,0,1,9.88,58.07h3.79a66.47,66.47,0,0,1,11.35,1.36,16.84,16.84,0,0,1,8.34,4.54Z" style="fill:#005696"/></g><circle cx="380" cy="260.18" r="60.48" style="fill:none;stroke:#005696;stroke-miterlimit:10;stroke-width:7px"/><path d="M256.76,455.11a10.68,10.68,0,0,1-6.09-1.9l-35.28-24.5c-42.57-29.54-68.68-77.39-69.86-128,0-1.26,0-2.52,0-3.79V258.64a10.66,10.66,0,0,1,6.38-9.77l100.62-44.18a10.69,10.69,0,0,1,8.63,0l99.06,44.12a10.68,10.68,0,0,1,6.33,9.75v39.05c0,1.26,0,2.51,0,3.75-1.16,50.17-26.91,97.77-68.89,127.35l-34.67,24.43A10.6,10.6,0,0,1,256.76,455.11Z" style="fill:#005696"/><path d="M256.78,207.28a7,7,0,0,1,2.92.63L358.76,252a7.18,7.18,0,0,1,4.25,6.55v39.06c0,1.22,0,2.45,0,3.66a154.83,154.83,0,0,1-18.84,70.15,161.21,161.21,0,0,1-48.57,54.42L260.89,450.3a7.17,7.17,0,0,1-8.22,0l-35.29-24.49c-41.65-28.91-67.2-75.72-68.35-125.21,0-1.24,0-2.48,0-3.71V258.64a7.16,7.16,0,0,1,4.29-6.57L253.9,207.89a7.12,7.12,0,0,1,2.88-.61m0-7a14.16,14.16,0,0,0-5.7,1.2L150.46,245.66a14.16,14.16,0,0,0-8.47,13v38.28c0,1.29,0,2.58,0,3.87,1.22,52.43,28.28,100.89,71.36,130.8l35.29,24.49a14.16,14.16,0,0,0,16.24-.06l34.67-24.43c42.54-30,69.18-78.11,70.38-130.12,0-1.28,0-2.56,0-3.83V258.58a14.17,14.17,0,0,0-8.4-12.94l-99.06-44.13a14.18,14.18,0,0,0-5.77-1.23Z" style="fill:#fff"/><rect x="201.11" y="295.06" width="109.79" height="81.56" rx="20.02" style="fill:#fff"/><path d="M256,253.79a22.87,22.87,0,0,1,22.84,22.84v48.42a22.84,22.84,0,0,1-45.68,0V276.63A22.87,22.87,0,0,1,256,253.79M256,237a39.6,39.6,0,0,0-39.6,39.6v48.42a39.6,39.6,0,0,0,79.2,0V276.63A39.6,39.6,0,0,0,256,237Z" style="fill:#fff"/><path d="M264.49,349.26a3.53,3.53,0,0,1-3.42,4.43h-11.3a3.51,3.51,0,0,1-3.4-4.43l3.86-14.58a9.39,9.39,0,1,1,10.4,0Z" style="fill:#005696"/><path d="M219.64,397l-4.67.76,3.35,3.38-3.65,2.65-2.19-4.21-2.18,4.24-3.65-2.65,3.32-3.38L205.3,397l1.35-4.18,4.24,2.06-.66-4.74h4.51l-.7,4.77,4.21-2.12Z" style="fill:#fff"/><path d="M241.41,397l-4.67.76,3.34,3.38-3.64,2.65-2.19-4.21-2.19,4.24-3.64-2.65,3.31-3.38-4.67-.79,1.36-4.18,4.24,2.06-.66-4.74h4.5l-.69,4.77,4.21-2.12Z" style="fill:#fff"/><path d="M263.17,397l-4.67.76,3.35,3.38-3.65,2.65L256,399.61l-2.19,4.24-3.64-2.65,3.31-3.38-4.67-.79,1.36-4.18,4.24,2.06-.67-4.74h4.51l-.7,4.77,4.21-2.12Z" style="fill:#fff"/><path d="M284.94,397l-4.67.76,3.34,3.38L280,403.82l-2.19-4.21-2.18,4.24L272,401.2l3.31-3.38-4.67-.79,1.36-4.18,4.24,2.06-.66-4.74H280l-.7,4.77,4.21-2.12Z" style="fill:#fff"/><path d="M306.7,397l-4.67.76,3.35,3.38-3.64,2.65-2.19-4.21-2.19,4.24-3.64-2.65,3.31-3.38-4.67-.79,1.36-4.18,4.24,2.06-.66-4.74h4.5l-.69,4.77,4.2-2.12Z" style="fill:#fff"/></svg>