<svg id="icon" xmlns="http://www.w3.org/2000/svg" viewBox="0 0 512 512"><path d="M490.66,256A234.75,234.75,0,0,1,381.92,454q-7,4.47-14.35,8.45a234,234,0,0,1-36.48,15.9q-3,1-6,1.93h0c-5.2,1.61-10.49,3-15.83,4.27-2.79.65-5.6,1.24-8.42,1.8A234.83,234.83,0,0,1,260,490.62c-.9,0-1.82,0-2.72,0H256q-9.34,0-18.49-.73-8.22-.63-16.28-1.84c-2-.29-4-.62-6-1h0a233,233,0,0,1-27-6.42c-2.58-.78-5.17-1.61-7.71-2.47-2.23-.75-4.42-1.54-6.61-2.35A233.74,233.74,0,0,1,142,461.14c-2.24-1.24-4.44-2.53-6.62-3.85-1.77-1.06-3.53-2.13-5.27-3.26-1.2-.75-2.38-1.52-3.56-2.3-2.24-1.48-4.44-3-6.61-4.54A237,237,0,0,1,88,419.81q-3.37-3.46-6.6-7.07-7.45-8.28-14.1-17.27c-4.07-5.5-7.92-11.21-11.51-17.06-1.29-2.11-2.55-4.21-3.74-6.35h0a232.83,232.83,0,0,1-27.6-77.91c-1.2-7.39-2.08-14.89-2.56-22.47,0-.18,0-.38,0-.56-.2-3-.35-6.09-.41-9.14-.07-2-.08-4-.08-6a234,234,0,0,1,13.21-77.82c.13-.41.28-.81.42-1.2q2.63-7.33,5.71-14.43l1.37-3.09A234.72,234.72,0,0,1,256,21.33c94.47,0,175.91,55.85,213.12,136.33q3.72,8.06,6.84,16.45c1.41,3.73,2.69,7.5,3.89,11.33a232.51,232.51,0,0,1,9.92,50.18C490.36,242.33,490.66,249.14,490.66,256Z" style="fill:#005596"/><path d="M252.53,142.25v40.88c-.47,30.76-25.54,69-56.41,69s-55.87-38.19-56.4-68.88v-41c.44-.35.88-.68,1.33-1a92.25,92.25,0,0,1,110.14,0C251.63,141.56,252.09,141.9,252.53,142.25Z" style="fill:#fff"/><path d="M222.61,216A27.09,27.09,0,0,0,169,221.61v.06a2,2,0,0,0,3.63,1.24,29.92,29.92,0,0,1,46.92,0,2,2,0,0,0,3.63-1.28A27,27,0,0,0,222.61,216Z" style="fill:#005596"/><path d="M209.47,158.67a13.06,13.06,0,0,0,25.59,4.46v0a1,1,0,0,0-1.52-1.06,14.42,14.42,0,0,1-21.76-6.17,1,1,0,0,0-1.85.11A12.93,12.93,0,0,0,209.47,158.67Z" style="fill:#005596"/><path d="M184.33,158.67a13.06,13.06,0,0,1-25.59,4.46v0a1,1,0,0,1,1.52-1.06A14.42,14.42,0,0,0,182,155.87a1,1,0,0,1,1.85.11A12.93,12.93,0,0,1,184.33,158.67Z" style="fill:#005596"/><path d="M135.67,305.11c-32.47,0-59.32-39.56-59.89-72.32,0,0,0-.3,0-56.77a5.64,5.64,0,0,1,8.89-4.6c14,9.88,31.2,14.89,51,14.89s37-5,51-14.89a5.63,5.63,0,0,1,8.9,4.6v56.59C195.08,265.48,168.25,305.11,135.67,305.11Z" style="fill:#c1d82f"/><path d="M189.94,173.88a2.13,2.13,0,0,1,2.15,2.14c0,14.24,0,56.34,0,56.59-.47,30.74-25.54,69-56.41,69s-55.85-38.18-56.39-68.88c0-.27,0-42.44,0-56.71a2.13,2.13,0,0,1,2.14-2.13,2.1,2.1,0,0,1,1.24.4c15,10.55,33.29,15.52,53,15.52s38-5,53-15.53a2.1,2.1,0,0,1,1.24-.4m0-7a9.16,9.16,0,0,0-5.27,1.67c-13.43,9.46-29.92,14.26-49,14.26s-35.56-4.8-49-14.25A9.14,9.14,0,0,0,72.27,176c0,50.25,0,56,0,56.84h0c.29,16.69,7.12,35.4,18.27,50.06,12.6,16.57,28.62,25.69,45.12,25.69s32.57-9.14,45.18-25.74c11.16-14.69,18-33.44,18.22-50.15a.41.41,0,0,0,0-.11V176a9.13,9.13,0,0,0-9.15-9.14Z" style="fill:#005596"/><path d="M162.17,258.21a27.09,27.09,0,0,1-53.58-5.65v-.06a2,2,0,0,1,3.63-1.24,29.91,29.91,0,0,0,46.91,0,2,2,0,0,1,3.64,1.27A27.61,27.61,0,0,1,162.17,258.21Z" style="fill:#005596"/><path d="M98.18,221A13.06,13.06,0,0,1,124,223.68v0a1,1,0,0,1-1.75.6,14.43,14.43,0,0,0-22.62,0,1,1,0,0,1-1.75-.62A12.76,12.76,0,0,1,98.18,221Z" style="fill:#005596"/><path d="M147.63,221a13.06,13.06,0,0,1,25.83,2.72v0a1,1,0,0,1-1.75.6,14.43,14.43,0,0,0-22.62,0,1,1,0,0,1-1.75-.62A12.76,12.76,0,0,1,147.63,221Z" style="fill:#005596"/><path d="M365.9,237.79c3.44-2.09,10.15-2,15.17.21s6.67,6,3.21,8.25-10.68,2.15-15.8-.3S362.42,239.92,365.9,237.79ZM324,323.9c-5.27,3.87-14.27,3.18-19.81-1.46-5.34-4.48-5.29-10.87-.15-14.32s13.35-2.89,18.82,1.2C328.54,313.56,329.18,320.11,324,323.9Zm42.64-1.15c-4.89,3.93-14.29,3.23-20.71-1.47-6.17-4.52-7.05-11-2.24-14.47s13.38-2.92,19.62,1.21C369.81,312.29,371.44,318.92,366.65,322.75Zm24-68.48c3.55-2.42,11-2.25,16.85.42,6,2.74,8.25,7.14,4.7,9.79s-11.61,2.43-17.64-.54C388.71,261.05,387.07,256.74,390.66,254.27Zm12.49,57.41c-4.39,3.71-13.85,3.1-20.8-1.3-6.69-4.23-8.34-10.32-4-13.64s13-2.82,19.68,1C405,301.79,407.44,308,403.15,311.68Zm16.61-22.23c-3.93,3.24-12.83,2.8-19.59-.91-6.55-3.6-8.46-8.84-4.55-11.76s12.06-2.57,18.61.73C421,280.91,423.59,286.28,419.76,289.45Z" style="fill:#fff"/><path d="M273.39,330.25l-5.59,18.17c-.62,2-10.41,31.38-12.45,30.77-1-.31.5-7.93,2.34-15.72s4-15.77,4.33-16.79l5.62-19,.3.17A38.31,38.31,0,0,0,273.39,330.25Z" style="fill:#c1d82f"/><path d="M281.42,281.15c2.59,1.34,4.67,2.85,5.63,4.79l-2.36,7.66a24,24,0,0,1-7.58,2.1Z" style="fill:#c1d82f"/><path d="M346.55,343.63c-29.32,0-58.83-6-73.85-11.5A39.47,39.47,0,0,1,267,329.6l-.28-.15c-6.56-3.74-17.66-11-18.57-17.69a12.47,12.47,0,0,1,2.18-9.65c4.29-5.57,13.5-6.72,21.63-7.73,1.73-.22,3.36-.42,4.9-.66a23.38,23.38,0,0,0,6.91-1.87,3,3,0,0,0,1.49-1.43,4.14,4.14,0,0,0,.05-3.59c-.65-1.31-2.2-2.58-4.76-3.9-1.83-.95-3.93-1.81-6.16-2.72-6.94-2.84-14.81-6-15.59-13.14-1.59-14.46,21.6-27.27,26.26-29.69a95.31,95.31,0,0,1,9.35-4.21c2.83-1.09,5.76-2.08,8.7-2.92a131.89,131.89,0,0,1,36.78-5,150.11,150.11,0,0,1,57.58,11.43A107.75,107.75,0,0,1,411,243.63c19.65,12,29.66,27.81,28.18,44.68-1,11.67-7.75,23.42-19.46,34-10.77,9.72-32.21,21.32-73.2,21.32Zm-56.64-88.95a20.42,20.42,0,0,0-9,2.2c-2.65,1.44-4.24,3.43-4.37,5.46s1,3.79,3.21,5.38a16.84,16.84,0,0,0,5,2.36,23.32,23.32,0,0,0,6.35.94h.35a20.09,20.09,0,0,0,10.14-2.5c2.5-1.5,3.89-3.41,3.91-5.39s-1.45-4.11-4-5.7a17.94,17.94,0,0,0-4.89-2,23.85,23.85,0,0,0-6-.74Z" style="fill:#fff"/><path d="M339.84,227.27a147.1,147.1,0,0,1,56.8,11.27,105,105,0,0,1,13.37,6.8c18.69,11.37,28.63,26.63,27.22,42.8-1,10.79-7,22-18.81,32.68-17.4,15.72-44.94,20.81-71.87,20.81-30.23,0-59.7-6.42-73.16-11.38a38.31,38.31,0,0,1-5.45-2.39l-.3-.17c-6.55-3.72-16.81-10.67-17.56-16.2-1.91-14.06,15.36-14,27-15.79a24,24,0,0,0,7.58-2.1,4.9,4.9,0,0,0,2.39-2.46,6.16,6.16,0,0,0,0-5.2c-1-1.94-3-3.45-5.63-4.79-7.67-4-19.81-6.44-20.68-14.3-1.18-10.72,14.07-21.92,25.2-27.7a93.36,93.36,0,0,1,9.14-4.11c2.77-1.08,5.62-2,8.53-2.87a130.84,130.84,0,0,1,36.23-4.9M291.41,273a22,22,0,0,0,11.16-2.79c6.63-4,6.41-10.48-.08-14.5a19.87,19.87,0,0,0-5.44-2.26,26.22,26.22,0,0,0-6.46-.8h-.73a22.4,22.4,0,0,0-9.92,2.44c-6.57,3.57-7.36,9.9-1.38,14.22a18.89,18.89,0,0,0,5.57,2.66,25.47,25.47,0,0,0,6.9,1h.38m48.43-49.75a133.67,133.67,0,0,0-37.34,5.06c-3,.86-6,1.86-8.86,3a99.25,99.25,0,0,0-9.54,4.3c-4.87,2.53-29.07,15.94-27.33,31.69.9,8.27,9.36,11.72,16.82,14.77,2.18.9,4.24,1.74,6,2.65,2.66,1.37,3.58,2.39,3.88,3,.13.25.37.74-.11,2h0a2.6,2.6,0,0,1-.58.4c-1.72,1-5.14,1.48-6.26,1.65-1.52.24-3.14.44-4.85.65-8.52,1.07-18.17,2.27-23,8.5-2.3,3-3.17,6.75-2.58,11.14.54,4,4.37,10.5,19.55,19.14h0l0,0,.24.13A42.14,42.14,0,0,0,272,334c15.17,5.59,45,11.62,74.53,11.62,33,0,58.74-7.55,74.56-21.84,12.09-10.92,19-23.13,20.1-35.3,1.55-17.67-8.8-34.21-29.13-46.56a107.91,107.91,0,0,0-13.88-7.07,152.16,152.16,0,0,0-58.36-11.59ZM291.41,269h-.32a21.19,21.19,0,0,1-5.81-.86,14.46,14.46,0,0,1-4.38-2.07c-.93-.67-2.49-2-2.39-3.63.09-1.3,1.34-2.74,3.34-3.83a18.34,18.34,0,0,1,8.11-1.95h.63a22.19,22.19,0,0,1,5.46.67,15.76,15.76,0,0,1,4.34,1.8c1.92,1.19,3.07,2.67,3.06,4s-1.08,2.58-2.93,3.69a18.09,18.09,0,0,1-9.11,2.22Z" style="fill:#005596"/><path d="M384.28,246.25c-3.51,2.3-10.68,2.15-15.8-.3s-6.06-6-2.58-8.16,10.15-2,15.17.21S387.74,244,384.28,246.25Z" style="fill:#c1d82f;stroke:#005596;stroke-miterlimit:10;stroke-width:4px"/><path d="M412.21,264.48c-3.6,2.69-11.61,2.43-17.64-.54-5.86-2.89-7.5-7.2-3.91-9.67s11-2.25,16.85.42C413.55,257.43,415.76,261.83,412.21,264.48Z" style="fill:#c1d82f;stroke:#005596;stroke-miterlimit:10;stroke-width:4px"/><path d="M419.76,289.45c-3.93,3.24-12.83,2.8-19.59-.91-6.55-3.6-8.46-8.84-4.55-11.76s12.06-2.57,18.61.73C421,280.91,423.59,286.28,419.76,289.45Z" style="fill:#c1d82f;stroke:#005596;stroke-miterlimit:10;stroke-width:4px"/><path d="M403.15,311.68c-4.39,3.71-13.85,3.1-20.8-1.3-6.69-4.23-8.34-10.32-4-13.64s13-2.82,19.68,1C405,301.79,407.44,308,403.15,311.68Z" style="fill:#c1d82f;stroke:#005596;stroke-miterlimit:10;stroke-width:4px"/><path d="M366.65,322.75c-4.89,3.93-14.29,3.23-20.71-1.47-6.17-4.52-7.05-11-2.24-14.47s13.38-2.92,19.62,1.21C369.81,312.29,371.44,318.92,366.65,322.75Z" style="fill:#c1d82f;stroke:#005596;stroke-miterlimit:10;stroke-width:4px"/><path d="M324,323.9c-5.27,3.87-14.27,3.18-19.81-1.46-5.34-4.48-5.29-10.87-.15-14.32s13.35-2.89,18.82,1.2C328.54,313.56,329.18,320.11,324,323.9Z" style="fill:#c1d82f;stroke:#005596;stroke-miterlimit:10;stroke-width:4px"/><path d="M292.33,270.72a26.63,26.63,0,0,1-7.45-1.1l-1.91-.57,22.34-75.46L316.54,197l-22.72,73.76Z" style="fill:#c1d82f"/><path d="M306.66,196.09l7.38,2.23-9.11,29.56-6.56,21.3-6,19.54a25.14,25.14,0,0,1-6.9-1l5.73-19.31,5.22-17.65,10.26-34.65m-2.69-5L302.83,195l-10.26,34.66-5.23,17.64-5.72,19.32-1.13,3.83,3.82,1.14a29,29,0,0,0,8,1.18l3,0,.88-2.86,6-19.55,6.57-21.3,9.1-29.56,1.18-3.84-3.85-1.16-7.37-2.23L304,191.1Z" style="fill:#005596"/><circle cx="312.97" cy="189.38" r="4.04" style="fill:#c1d82f"/><path d="M327.58,174.94a10.11,10.11,0,0,1-12.29,6.8,9.12,9.12,0,0,1-5.63-5.19,13,13,0,0,1-.63-8.27c3.65-15.56,18.05-19.23,18.05-19.23C319.76,167.08,330.68,164.67,327.58,174.94Z" style="fill:#fff"/><path d="M405.74,146V191a7.8,7.8,0,1,1-3.15-6.27V158.94l-35.22,5.89v32.82a7.82,7.82,0,1,1-7.82-7.81,7.73,7.73,0,0,1,4.67,1.55V152.7Z" style="fill:#c1d82f"/><path d="M164.39,323.37V372a9.83,9.83,0,1,0,4,7.88V344.51l44.32-7.42v26.54a9.84,9.84,0,1,0,4,7.88V315Zm4,17.86v-2.61l44.32-7.41v2.87Z" style="fill:#c1d82f"/><path d="M302.21,115c-1.5-6.09-7.82-6.21-11.34-11.55v36.91a7.41,7.41,0,1,1-3-5.93V97.77h3v0c.79,3.18,3,5.17,5.43,7,1,.74,2,1.43,2.94,2.21C303,110.17,302.81,114.5,302.21,115Z" style="fill:#c1d82f"/><path d="M306.83,390.21c-1.68-6.84-8.78-7-12.73-13v41.42a8.29,8.29,0,1,1-3.34-6.66V370.88h3.34v0c.89,3.57,3.39,5.8,6.1,7.85,1.09.84,2.24,1.61,3.29,2.48C307.74,384.79,307.5,389.65,306.83,390.21Z" style="fill:#c1d82f"/><path d="M343.87,376.6c-1.3-5.28-6.77-5.38-9.82-10v31.94a6.41,6.41,0,1,1-2.58-5.13V361.69h2.58v0c.68,2.75,2.61,4.47,4.7,6.06.84.64,1.73,1.24,2.54,1.91C344.56,372.41,344.38,376.17,343.87,376.6Z" style="fill:#c1d82f"/></svg>