<svg id="icon" xmlns="http://www.w3.org/2000/svg" viewBox="0 0 512 512"><path d="M256,487.09A231.16,231.16,0,0,1,92.54,92.47,231.17,231.17,0,1,1,419.46,419.39,229.65,229.65,0,0,1,256,487.09Z" style="fill:#fff"/><path d="M256,28.26a227.74,227.74,0,0,1,88.62,437.45A227.73,227.73,0,0,1,167.38,46.15,226.27,226.27,0,0,1,256,28.26m0-7c-129.6,0-234.67,105.06-234.67,234.67S126.4,490.59,256,490.59,490.67,385.53,490.67,255.93,385.6,21.26,256,21.26Z" style="fill:#005596"/><path d="M190.77,305.15a67.66,67.66,0,1,1-10.93-36.83A67.5,67.5,0,0,1,190.77,305.15Z" style="fill:#fff;stroke:#005596;stroke-miterlimit:10;stroke-width:5px"/><path d="M143.92,352a66.75,66.75,0,0,1-2.5,18.22,67.6,67.6,0,0,1-83.3-83.29A67.56,67.56,0,0,1,143.92,352Z" style="fill:none;stroke:#005596;stroke-miterlimit:10;stroke-width:5px"/><path d="M170.42,353.47A67.57,67.57,0,1,1,88.08,247.41a174.77,174.77,0,0,1,61.75,59A173,173,0,0,1,170.42,353.47Z" style="fill:none;stroke:#005596;stroke-miterlimit:10;stroke-width:5px"/><path d="M179.84,268.32a172.67,172.67,0,0,1-17.09,24.28,171.89,171.89,0,0,1-12.92,13.8,177.34,177.34,0,0,1-14.56,12.51A173.37,173.37,0,0,1,72.2,349.46a67.56,67.56,0,1,1,107.64-81.14Z" style="fill:none;stroke:#005596;stroke-miterlimit:10;stroke-width:5px"/><path d="M190.77,305.15a67.5,67.5,0,0,1-.85,10.71,67.6,67.6,0,0,1-38.79-61.16A67.28,67.28,0,0,1,152,244a67.66,67.66,0,0,1,38.79,61.15Z" style="fill:none;stroke:#005596;stroke-miterlimit:10;stroke-width:5px"/><path d="M451.17,187.49l-.07,74a39.9,39.9,0,0,1-3.85,17.05S434.73,305.29,434.31,306a19.21,19.21,0,0,0-3.23,10.24L431,401.58q-4,4.77-8.25,9.35l.09-94.73a19.2,19.2,0,0,0-3.23-10.26c-.41-.66-12.88-27.39-12.88-27.39a39.89,39.89,0,0,1-3.8-17.05l.06-74.05a16.53,16.53,0,0,1,.75-4.95c.1-.32.21-.65.34-1l0-.08c0-.09.07-.18.11-.27a.14.14,0,0,1,0-.06c.12-.31.26-.61.4-.9a16.71,16.71,0,0,1,5.05-6.13c.43-.32.87-.62,1.33-.9a16.6,16.6,0,0,1,8.64-2.41h11.73C442.31,170.81,451.18,176.55,451.17,187.49Z" style="fill:#fff"/><path d="M431.39,165.8H419.66A21.7,21.7,0,0,0,398,187.44l-.06,74.05a44.49,44.49,0,0,0,4.28,19.19c12.59,27,13,27.59,13.18,27.94a14.16,14.16,0,0,1,2.45,7.58l-.09,99.93q2.55-2.56,5-5.2l.09-94.73a19.2,19.2,0,0,0-3.23-10.26c-.41-.66-12.88-27.39-12.88-27.39a39.89,39.89,0,0,1-3.8-17.05l.06-74.05a16.53,16.53,0,0,1,.75-4.95c.1-.32.21-.65.34-1l0-.08c0-.09.07-.18.11-.27a.14.14,0,0,1,0-.06c.12-.31.26-.61.4-.9a16.71,16.71,0,0,1,5.05-6.13c.43-.32.87-.62,1.33-.9a16.6,16.6,0,0,1,8.64-2.41h11.73c10.92,0,19.79,5.75,19.78,16.69l-.07,74a39.9,39.9,0,0,1-3.85,17.05S434.73,305.29,434.31,306a19.21,19.21,0,0,0-3.23,10.24L431,401.58c1.71-2.05,3.37-4.12,5-6.22l.07-79.16a14.21,14.21,0,0,1,2.45-7.57c.23-.35.59-.93,13.25-27.95a45.2,45.2,0,0,0,4.32-19.17l.07-74C456.18,174.53,446.22,165.82,431.39,165.8Z" style="fill:#005596"/><path d="M317.43,150.7c-26.13,6.33-51.91-10.26-57.95-34.86s9.3-51.39,35.5-57.73C320.71,51.87,347,68,352.84,93,359.13,118,343.25,144.46,317.43,150.7Z" style="fill:#fff;stroke:#005596;stroke-miterlimit:10;stroke-width:2px"/><path d="M352.84,93C347,68,320.71,51.87,295,58.11c-26.2,6.34-41.56,33-35.5,57.73S291.3,157,317.43,150.7C343.25,144.46,359.13,118,352.84,93Zm-13,40.24A42.11,42.11,0,0,1,326,143.91a66.68,66.68,0,0,0-6.13-21.21,90.24,90.24,0,0,0-11.75-18.63,82.27,82.27,0,0,1,7.79-15.63C328,101.31,335.43,116.48,339.84,133.28Zm9.57-22.15a6.33,6.33,0,0,1,.12,2.77,43,43,0,0,1-6.4,15c-.15.21-.28.41-.44.62a1.74,1.74,0,0,1-.28.15c-4.78-16.55-12.44-31.5-24.43-44,1.19-2.33,6.8-9,9.11-10.73,2.21,2.56,4.5,5.06,6.62,7.7A98.2,98.2,0,0,1,348,107.24,27.81,27.81,0,0,1,349.41,111.13Zm-2.79-25.69a43.92,43.92,0,0,1,4.17,18.92,112.58,112.58,0,0,0-21.35-31.68l4.18-3.22C339,74,343.66,79,346.62,85.44Zm-16-18c-12.05,9.38-20.31,21.36-25.72,35.52A94.94,94.94,0,0,1,287.4,104a102.65,102.65,0,0,1,27.37-43.1A43.64,43.64,0,0,1,330.63,67.39ZM293.76,62A43.07,43.07,0,0,1,307.5,60.2l3,.08a104.24,104.24,0,0,0-16,20.21c-4.41,7.33-8.25,14.92-10.53,23.31a68.65,68.65,0,0,1-13.82-2.48c.69-2.13,1.31-4.19,2-6.21a91,91,0,0,1,10.67-21.44c2.46-3.6,5.23-7,8-10.31A5.93,5.93,0,0,1,293.76,62ZM262.17,98.32a40.89,40.89,0,0,1,2.42-9.5A43.84,43.84,0,0,1,280.92,68a33.87,33.87,0,0,1,3-1.72l0,0v0h0a21.51,21.51,0,0,1-1.21,1.88,86.53,86.53,0,0,0-11.57,20.47c-1.47,3.56-2.59,7.26-3.88,10.9-.07.23-.16.46-.28.77Zm-.45,3.5a66.69,66.69,0,0,0,21.61,5.37,95.13,95.13,0,0,0,22.13-.89c2.45,2.53,8.19,11.23,9.48,14.4-17.12,4-34.05,2.86-50.88-1.71C262.3,115.33,260.94,105.62,261.72,101.82Zm14.76,35.6a42.22,42.22,0,0,1-7.54-8.73c-1.15-1.78-2.29-3.58-3.33-5.57,17,4,33.9,4.85,51.19.6,1.59,4.33,3.14,8.61,4.76,13-.74.21-1.18.37-1.64.48A98.46,98.46,0,0,1,300.38,140a94.29,94.29,0,0,1-22.05-1.63A4.13,4.13,0,0,1,276.48,137.42Zm18.71,10a37.6,37.6,0,0,1-10.95-4.47l-.34-.24.42.1c4.19.23,8.39.62,12.59.64a99,99,0,0,0,24-2.91l1.19-.29c.23,1.81.45,3.47.7,5.41-2.71.75-5.33,1.66-8,2.19A43.94,43.94,0,0,1,295.19,147.37Z" style="fill:#005596"/><path d="M256,486.59c-5.82,0-11.69-.22-17.45-.64-1.7-.13-3.39-.27-5.07-.43a231.87,231.87,0,0,1-34.65-6l-2.26-.58V359.61a37.07,37.07,0,0,1,37.07-37h33.13l-.21,3.2c0,.22,0,.45,0,.68v9.69c0,12.31,10.78,22.32,24,22.32H302.1c13.25,0,24-10,24-22.32V326.5c0-.23,0-.46,0-.68l-.22-3.2h33.2a37,37,0,0,1,37,37v79.61l-1.19.9a228.29,228.29,0,0,1-34.64,21.63c-1.63.83-3.33,1.67-5.07,2.5-3.21,1.53-6.38,2.95-9.4,4.22A229.2,229.2,0,0,1,256,486.59Z" style="fill:#fff"/><path d="M359.09,325.62a34,34,0,0,1,34,34v78.12a225.44,225.44,0,0,1-34.19,21.35q-2.47,1.26-5,2.46c-3.05,1.45-6.15,2.85-9.28,4.17A226.17,226.17,0,0,1,256,483.59q-8.67,0-17.23-.63c-1.67-.13-3.34-.27-5-.43a226.33,226.33,0,0,1-34.2-6V359.61a34,34,0,0,1,34.07-34h29.92c0,.29,0,.58,0,.88v9.69c0,13.93,12.16,25.32,27,25.32H302.1c14.87,0,27-11.39,27-25.32V326.5c0-.3,0-.59,0-.88h30m0-6H322.68l.44,6.41c0,.16,0,.31,0,.47v9.69c0,10.65-9.43,19.32-21,19.32H290.56c-11.59,0-21-8.67-21-19.32V326.5c0-.16,0-.31,0-.47l.44-6.41H233.64a40.08,40.08,0,0,0-40.07,40V481.22l4.52,1.15a232.7,232.7,0,0,0,35.11,6.13c1.52.15,3.19.29,5.11.44,5.85.43,11.8.65,17.69.65A232.32,232.32,0,0,0,347,471.24c3.07-1.3,6.27-2.74,9.52-4.28,1.76-.84,3.49-1.69,5.14-2.53a231.89,231.89,0,0,0,35.09-21.92l2.38-1.8v-81.1a40,40,0,0,0-40-40Z" style="fill:#005596"/><path d="M328.33,320.45a1,1,0,0,1,0,.17c.17.65.31,1.31.43,2l0,.21c.08.54.15,1.09.2,1.65,0,.07,0,.14,0,.21,0,.31,0,.63.05.95s0,.58,0,.88v9.69c0,13.93-12.15,25.32-27,25.32H290.56c-14.86,0-27-11.39-27-25.32V326.5c0-.3,0-.59,0-.88s0-.64.05-.95c0-.08,0-.16,0-.23.05-.55.11-1.1.2-1.63a1.57,1.57,0,0,1,0-.23c.11-.66.25-1.32.42-2a1,1,0,0,1,0-.17H233.77V482.53c1.66.16,3.33.3,5,.43V325.45h19.79v.17c0,.28,0,.58,0,.88v9.69c0,16.72,14.36,30.32,32,30.32H302.1c17.66,0,32-13.6,32-30.32V326.5c0-.3,0-.6,0-.88v-.17h19.79V461.54q2.52-1.2,5-2.46V320.45Z" style="fill:#005596"/><circle cx="296.34" cy="259.51" r="71.14" style="fill:#fff;stroke:#005596;stroke-miterlimit:10;stroke-width:7px"/><path d="M329.1,325.62c0,.29,0,.58,0,.88v9.69c0,13.93-12.15,25.32-27,25.32H290.56c-14.86,0-27-11.39-27-25.32V326.5c0-.3,0-.59,0-.88Z" style="fill:#fff"/><path d="M366.05,245.65H226.61a57.3,57.3,0,0,1,12.27-26.54H353.59A57.15,57.15,0,0,1,366.05,245.65Z" style="fill:#fff;stroke:#005596;stroke-miterlimit:10;stroke-width:5px"/><path d="M226.88,145.06a58,58,0,0,1-2.07,16.1C218.87,183.57,199.05,201,176.44,204c-46.13,7-82.63-41.89-60.87-84.86C143.56,64.94,225.51,83.62,226.88,145.06Z" style="fill:#fff;stroke:#005596;stroke-miterlimit:10;stroke-width:3px"/><path d="M173.73,90.51a59.44,59.44,0,0,1,22.11,7.07,67.56,67.56,0,0,0-17.42-3.31h-.06l-1-.88a46,46,0,0,0-3.65-2.88m-45.25,15.67-.07.11-.07,0,.14-.15m37.92,4.45,6.3,9.81,6.41,10-.36.39-15.47,16.44-2.26,2.4-22.5-9.2c.56-4,1.11-7.92,1.67-11.89s1.12-8,1.7-12.13l24.24-5.73.27-.06m47.46,13c1.44.94,3,2,4.16,2.54l2.95,1.51a59.31,59.31,0,0,1,2.91,17.42,55.2,55.2,0,0,1-1.71,14.34l-1,.09-2.82.23-7.5.62h-.17A99.4,99.4,0,0,0,204.48,137l.48-.64c3.17-4.21,5.88-8.16,8.9-12.71m-101.56,27a87.52,87.52,0,0,0,8.26,5.66l.57.36a84.34,84.34,0,0,0,6.1,22.46c.07.15.13.3.21.45a24,24,0,0,0-2,1.42l-.36.27a59.48,59.48,0,0,1-4.62-6.5,55.61,55.61,0,0,1-8.16-24.12m56.37,26.47a91.41,91.41,0,0,0,22.47,4.41c-.28,1.92-.61,4.13-.95,6.41-.4,2.65-.82,5.39-1.18,7.91l-.25,1.78a52.59,52.59,0,0,1-12.71,3.4H176a56.27,56.27,0,0,1-8.37.64c-1.11,0-2.21,0-3.3-.1L161.85,199l-.56-.58c-2.76-2.84-5.55-5.69-7.62-7.47l4.42-4.08c3.48-3.22,6.95-6.43,10.45-9.65l.13-.12m-1.36-90c-20.14,0-40.38,10-51.74,32-20.35,40.19,10.26,85.53,52.05,85.53a59.1,59.1,0,0,0,8.82-.67c22.61-3,42.43-20.41,48.37-42.82a58.33,58.33,0,0,0,2.07-16.1c-.81-36.5-30.08-57.92-59.57-57.92ZM140.8,113.59l-9-7.19a71.73,71.73,0,0,1,4.71-7.13c.76-.51,1.52-1,2.31-1.47a56.15,56.15,0,0,1,28.33-8.14,81.57,81.57,0,0,1,8.18,6c-3.46,4.23-6.7,8.2-9.94,12.14l-24.64,5.82Zm61.76,20.94c-6.93-1.62-13.67-3.21-20.31-4.78l-13.51-21c2.81-3.73,6-7.49,9.54-11.46A71.24,71.24,0,0,1,199.57,102c1.12.42,1.05.29,1.73,1.27a112.11,112.11,0,0,1,10.61,17.83c-3.08,4.65-6,8.89-9.35,13.4Zm16.82-11c-1.25-.64-3.54-2.16-4.39-2.71-.46-.85-6.61-11.87-9.1-16.36a56,56,0,0,1,11.39,14.73q1.16,2.11,2.1,4.34Zm-97.25,30.25a79,79,0,0,1-10.2-7.28,56.08,56.08,0,0,1,9.67-32.27,34,34,0,0,1,3.86-2.61,45.48,45.48,0,0,1,4.62-2.78c3,2.35,6.07,4.73,8.87,6.93-1.22,8.7-2.36,16.89-3.54,25.3-4.21,4-8.62,8.25-13.28,12.71Zm70.09,24.83a88.21,88.21,0,0,1-23-4.45c-2-7.28-4-14.55-6.18-22.24l17.9-19a89.71,89.71,0,0,1,20.55,4.7,97.57,97.57,0,0,1,6.35,24.26,102,102,0,0,1-15.61,16.75Zm-41,10.56c-7.53-1.86-13.62-5.15-19.47-9a5.18,5.18,0,0,1-1.76-2.21,81.27,81.27,0,0,1-6-22.18l13.15-12.62,23.09,9.44c2.08,7.47,4.1,14.73,6.23,22.43-5.12,4.71-10.18,9.4-15.29,14.12ZM192,196.26c.7-4.89,1.6-10.62,2.2-14.82l16.89-18.08,10.32-.85a54,54,0,0,1-2.84,7.24A55.77,55.77,0,0,1,192,196.26Zm-32.29,4.83a56.28,56.28,0,0,1-32.88-17.39,26.49,26.49,0,0,1,2.39-1.7,73.23,73.23,0,0,0,9.26,5.39c5.07,2.38,10.75,4.07,11.76,4.68,1.93,1.18,7.12,6.6,9.47,9Z" style="fill:#005596"/></svg>