<svg id="icon" xmlns="http://www.w3.org/2000/svg" viewBox="0 0 512 512"><path d="M490.67,255.92a233.58,233.58,0,0,1-45.94,139.49q-4.47,6-9.3,11.76l-.08.09q-2.42,2.87-4.93,5.64-1.64,1.83-3.32,3.63c-1.61,1.72-3.26,3.42-4.93,5.09s-3.31,3.28-5,4.87a236.3,236.3,0,0,1-49.6,35.93q-4.57,2.47-9.25,4.75c-1,.49-2,1-3.05,1.43q-1,.48-1.95.9c-.9.42-1.81.82-2.72,1.23l-2.73,1.19-2.95,1.24-3.09,1.23c-.32.14-.65.27-1,.39-.93.35-1.86.71-2.79,1.05S336,476.6,335,477c-1.28.45-2.57.9-3.85,1.33-2,.68-4,1.32-6,1.94h0c-5.2,1.6-10.47,3-15.82,4.28q-4.2,1-8.43,1.78A234.61,234.61,0,0,1,260,490.55l-2.73,0c-.41,0-.83,0-1.25,0q-5.83,0-11.61-.29l-3.85-.21-2.35-.18c-.24,0-.45,0-.69-.05-1.44-.11-2.88-.24-4.31-.37q-6-.58-11.95-1.46c-2-.3-4-.62-6-1h0c-5.49-1-10.92-2.11-16.25-3.45-3.63-.89-7.23-1.88-10.77-2.95q-3.9-1.19-7.72-2.48-3.33-1.12-6.62-2.36A231.37,231.37,0,0,1,142,461.06q-3.33-1.86-6.6-3.83-4.49-2.69-8.85-5.56c-2.22-1.49-4.44-3-6.61-4.56A234.08,234.08,0,0,1,88,419.74c-2.25-2.31-4.47-4.67-6.61-7.07q-7.44-8.3-14.09-17.26c-4.09-5.5-7.92-11.22-11.53-17.08-1.27-2.1-2.53-4.2-3.74-6.34h0a233.13,233.13,0,0,1-27.58-77.92,224.89,224.89,0,0,1-2.56-22.46c0-.18,0-.37-.05-.56-.19-3-.33-6.09-.39-9.15-.07-2-.1-4-.1-6A234,234,0,0,1,34.56,178.1c.13-.41.26-.81.42-1.19q2.63-7.35,5.71-14.43c.44-1,.91-2.06,1.37-3.1a234.76,234.76,0,0,1,427.07-1.8c2.49,5.39,4.76,10.87,6.85,16.46,1.4,3.74,2.69,7.5,3.89,11.32a232.84,232.84,0,0,1,9.92,50.19Q490.66,245.61,490.67,255.92Z" style="fill:#005596"/><path d="M190.19,305.15a67.62,67.62,0,1,1-10.92-36.83A67.5,67.5,0,0,1,190.19,305.15Z" style="fill:#fff;stroke:#005596;stroke-miterlimit:10;stroke-width:5px"/><path d="M143.34,352a67.13,67.13,0,0,1-2.49,18.22,67.58,67.58,0,0,1-83.3-83.29A67.56,67.56,0,0,1,143.34,352Z" style="fill:none;stroke:#005596;stroke-miterlimit:10;stroke-width:5px"/><path d="M169.84,353.47A67.57,67.57,0,1,1,87.5,247.41a174.89,174.89,0,0,1,61.76,59A172.94,172.94,0,0,1,169.84,353.47Z" style="fill:none;stroke:#005596;stroke-miterlimit:10;stroke-width:5px"/><path d="M179.27,268.32a174.34,174.34,0,0,1-17.09,24.28,171.89,171.89,0,0,1-12.92,13.8,177.49,177.49,0,0,1-14.57,12.51,173.33,173.33,0,0,1-63.06,30.55,67.56,67.56,0,1,1,107.64-81.14Z" style="fill:none;stroke:#005596;stroke-miterlimit:10;stroke-width:5px"/><path d="M190.19,305.15a67.5,67.5,0,0,1-.84,10.71A67.72,67.72,0,0,1,151.4,244a67.62,67.62,0,0,1,38.79,61.15Z" style="fill:none;stroke:#005596;stroke-miterlimit:10;stroke-width:5px"/><path d="M450.6,187.49l-.07,74a39.9,39.9,0,0,1-3.85,17.05S434.16,305.29,433.74,306a19.21,19.21,0,0,0-3.23,10.24l-.09,96.71q-1.64,1.83-3.32,3.63c-1.61,1.72-3.26,3.42-4.93,5.09l.1-105.42A19.2,19.2,0,0,0,419,305.94c-.41-.66-12.88-27.39-12.88-27.39a39.89,39.89,0,0,1-3.8-17.05l.06-74.05a16.53,16.53,0,0,1,.75-4.95,17.29,17.29,0,0,1,.9-2.27,16.71,16.71,0,0,1,5.05-6.13c.43-.32.87-.62,1.33-.9a16.6,16.6,0,0,1,8.64-2.41h11.73C441.74,170.81,450.61,176.55,450.6,187.49Z" style="fill:#005596"/><path d="M430.82,165.8H419.09a21.7,21.7,0,0,0-21.67,21.65l-.06,74.05a44.49,44.49,0,0,0,4.28,19.19c12.59,27,13,27.59,13.18,27.94a14.16,14.16,0,0,1,2.45,7.58l-.1,110.29c1.69-1.59,3.36-3.22,5-4.87l.1-105.42A19.2,19.2,0,0,0,419,305.94c-.41-.66-12.88-27.39-12.88-27.39a39.89,39.89,0,0,1-3.8-17.05l.06-74.05a16.45,16.45,0,0,1,1.65-7.22,16.71,16.71,0,0,1,5.05-6.13c.43-.32.87-.62,1.33-.9a16.6,16.6,0,0,1,8.64-2.41h11.73c10.92,0,19.79,5.75,19.78,16.69l-.07,74a39.9,39.9,0,0,1-3.85,17.05S434.16,305.29,433.74,306a19.21,19.21,0,0,0-3.23,10.24l-.09,96.71q2.52-2.77,4.93-5.64l.08-.09.08-91a14.21,14.21,0,0,1,2.45-7.57c.23-.35.59-.93,13.25-27.95a45.2,45.2,0,0,0,4.32-19.17l.07-74C455.61,174.53,445.65,165.82,430.82,165.8Z" style="fill:#fff"/><path d="M316.86,150.7c-26.13,6.33-51.92-10.26-58-34.85s9.31-51.4,35.51-57.74c25.72-6.24,52,9.87,57.86,34.93C358.56,118,342.68,144.46,316.86,150.7Z" style="fill:#fff;stroke:#005596;stroke-miterlimit:10;stroke-width:2px"/><path d="M352.27,93c-5.9-25.06-32.14-41.17-57.86-34.93-26.2,6.34-41.56,33-35.51,57.74s31.83,41.18,58,34.85C342.68,144.46,358.56,118,352.27,93Zm-13,40.24a42.11,42.11,0,0,1-13.84,10.63,67,67,0,0,0-6.13-21.21,90.67,90.67,0,0,0-11.75-18.63,82.27,82.27,0,0,1,7.79-15.63C327.45,101.31,334.86,116.48,339.27,133.28Zm9.57-22.15a6.18,6.18,0,0,1,.11,2.77,42.8,42.8,0,0,1-6.4,15l-.43.62c0,.05-.11.06-.28.15-4.78-16.55-12.44-31.5-24.43-44,1.19-2.33,6.8-9,9.11-10.73,2.21,2.56,4.5,5.06,6.61,7.7a98.12,98.12,0,0,1,14.31,24.57A27.24,27.24,0,0,1,348.84,111.13Zm-2.79-25.69a43.77,43.77,0,0,1,4.16,18.92,112.16,112.16,0,0,0-21.35-31.68l4.19-3.22C338.46,74,343.09,79,346.05,85.44Zm-16-18c-12,9.38-20.31,21.36-25.71,35.52A94.13,94.13,0,0,1,286.83,104a102.63,102.63,0,0,1,27.36-43.1A43.57,43.57,0,0,1,330.05,67.39ZM293.18,62a43.14,43.14,0,0,1,13.74-1.75l3,.08A104.19,104.19,0,0,0,294,80.49c-4.41,7.33-8.25,14.92-10.54,23.31a68.68,68.68,0,0,1-13.81-2.48c.69-2.13,1.31-4.19,2-6.21a91,91,0,0,1,10.67-21.44c2.45-3.6,5.22-7,8-10.31A5.9,5.9,0,0,1,293.18,62ZM261.6,98.32a40.4,40.4,0,0,1,2.42-9.5A43.84,43.84,0,0,1,280.35,68a33.87,33.87,0,0,1,3-1.72l0,0v0h0a21.51,21.51,0,0,1-1.21,1.88,86.57,86.57,0,0,0-11.58,20.47c-1.47,3.56-2.59,7.26-3.87,10.9-.08.23-.17.46-.29.77Zm-.45,3.5a66.37,66.37,0,0,0,21.61,5.37,95.15,95.15,0,0,0,22.13-.89c2.45,2.53,8.19,11.23,9.48,14.4-17.13,4-34.05,2.86-50.88-1.71C261.73,115.33,260.36,105.62,261.15,101.82Zm14.76,35.6a41.63,41.63,0,0,1-7.54-8.73c-1.16-1.78-2.29-3.58-3.33-5.57,17,4,33.9,4.85,51.19.6,1.59,4.33,3.14,8.61,4.76,13-.74.21-1.19.37-1.65.48A98.26,98.26,0,0,1,299.81,140a94.29,94.29,0,0,1-22.05-1.63A4,4,0,0,1,275.91,137.42Zm18.71,10a38.22,38.22,0,0,1-11-4.47l-.33-.25.41.1c4.2.23,8.4.62,12.59.64a99,99,0,0,0,24-2.91l1.19-.29c.23,1.81.45,3.47.7,5.41-2.72.75-5.33,1.66-8,2.19A44.09,44.09,0,0,1,294.62,147.38Z" style="fill:#005596"/><path d="M358.52,325.62h-30c0,.29,0,.58,0,.88v9.69c0,13.93-12.15,25.32-27,25.32H290c-14.86,0-27-11.39-27-25.32V326.5c0-.3,0-.59,0-.88H233.07a34,34,0,0,0-34.07,34V483.76q8,2,16.25,3.45h0c2,.35,4,.68,6,1q5.92.88,11.95,1.47c1.44.13,2.88.26,4.32.37l.68.05,2.35.17c1.28.08,2.57.16,3.86.22q5.76.29,11.6.28h1.25q1.37,0,2.73,0a234.72,234.72,0,0,0,40.85-4.24c2.82-.55,5.63-1.14,8.42-1.79q8-1.86,15.83-4.27h0c2-.62,4-1.26,6-1.94,1.29-.43,2.57-.88,3.85-1.34,1-.37,2.08-.75,3.11-1.14s1.86-.7,2.79-1.06l1-.38,3.08-1.24,2.95-1.24c.91-.39,1.83-.78,2.73-1.19l2.72-1.22c.66-.29,1.31-.59,2-.9,1-.47,2-.95,3-1.44q4.68-2.26,9.25-4.74A234.29,234.29,0,0,0,392.51,447V359.61A34,34,0,0,0,358.52,325.62Z" style="fill:#fff"/><path d="M328.53,325.62c0,.29,0,.58,0,.88v9.69c0,13.93-12.15,25.32-27,25.32H290c-14.86,0-27-11.39-27-25.32V326.5c0-.3,0-.59,0-.88Z" style="fill:#fff"/><path d="M358.32,325.62V467.31c-1,.49-2,1-3,1.44-.65.31-1.3.61-2,.9l-2.72,1.22c-.9.41-1.82.8-2.73,1.19l-2.95,1.24-3.08,1.24-1,.38c-.93.36-1.86.72-2.79,1.06s-2.07.77-3.11,1.14c-1.28.46-2.56.91-3.85,1.34-2,.68-4,1.32-6,1.94h0q-7.8,2.4-15.83,4.27c-2.79.65-5.6,1.24-8.42,1.79A234.72,234.72,0,0,1,260,490.7q-1.37,0-2.73,0H256q-5.83,0-11.6-.28c-1.29-.06-2.58-.14-3.86-.22l-2.35-.17-.68-.05c-1.44-.11-2.88-.24-4.32-.37v-164H263c0,.29,0,.58,0,.88v9.69c0,13.93,12.16,25.32,27,25.32h11.54c14.87,0,27-11.39,27-25.32V326.5c0-.3,0-.59,0-.88Z" style="fill:#c1d82f"/><path d="M327.76,320.45c.19.7.34,1.42.47,2.15l0,.21c.08.54.15,1.09.2,1.65,0,.07,0,.14,0,.21,0,.31,0,.63,0,.95s0,.58,0,.88v9.69c0,13.93-12.15,25.32-27,25.32H290c-14.86,0-27-11.39-27-25.32V326.5c0-.3,0-.59,0-.88s0-.64.05-.95c0-.08,0-.16,0-.23.05-.55.11-1.1.2-1.63a1.57,1.57,0,0,1,0-.23c.12-.72.27-1.43.46-2.13H233.2v169.2c1.44.13,2.88.26,4.32.37l.68.05V325.45H258v.17c0,.28,0,.58,0,.88v9.69c0,16.72,14.36,30.32,32,30.32h11.54c17.66,0,32-13.6,32-30.32V326.5c0-.3,0-.6,0-.88v-.17h19.79v144.2c.66-.29,1.31-.59,2-.9,1-.47,2-.95,3-1.44V320.45Z" style="fill:#005596"/><circle cx="295.76" cy="259.52" r="71.14" style="fill:#fff"/><path d="M223.67,247.65l.4-2.34a59.53,59.53,0,0,1,12.69-27.47l.6-.73H354l.6.73a59.39,59.39,0,0,1,12.88,27.46l.41,2.35Z" style="fill:#c1d82f"/><path d="M353,219.11a57.13,57.13,0,0,1,12.45,26.54H226a57.2,57.2,0,0,1,12.27-26.54H353m1.89-4H236.41l-1.2,1.47A61.5,61.5,0,0,0,222.1,245l-.8,4.67H370.23l-.82-4.69a61.49,61.49,0,0,0-13.3-28.4l-1.2-1.45Z" style="fill:#005596"/><path d="M226.31,145.06a58.37,58.37,0,0,1-2.07,16.1C218.3,183.57,198.48,201,175.87,204c-46.13,7-82.63-41.89-60.87-84.86C143,64.94,224.94,83.62,226.31,145.06Z" style="fill:#005596;stroke:#fff;stroke-miterlimit:10;stroke-width:3px"/><path d="M115,119.12c-21.76,43,14.74,91.83,60.87,84.86,22.61-3,42.43-20.41,48.37-42.82a58.33,58.33,0,0,0,2.07-16.1C224.94,83.62,143,64.94,115,119.12Zm101.71,0q1.15,2.11,2.1,4.34c-1.25-.64-3.54-2.16-4.39-2.71-.46-.85-6.61-11.87-9.1-16.36A56,56,0,0,1,216.71,119.15ZM199,102c1.12.42,1.05.29,1.73,1.27a112.11,112.11,0,0,1,10.61,17.83c-3.08,4.65-6,8.89-9.35,13.4-6.93-1.62-13.67-3.21-20.31-4.78l-13.51-21c2.81-3.73,6-7.49,9.54-11.46A71.24,71.24,0,0,1,199,102Zm-63-2.76c.76-.51,1.52-1,2.31-1.47a56.15,56.15,0,0,1,28.33-8.14,81.57,81.57,0,0,1,8.18,6c-3.46,4.23-6.7,8.2-9.94,12.14l-24.64,5.82-8.95-7.19A71.73,71.73,0,0,1,136,99.27Zm-24.63,47.19A56.08,56.08,0,0,1,121,114.19a34,34,0,0,1,3.86-2.61,45.48,45.48,0,0,1,4.62-2.78c3,2.35,6.07,4.73,8.87,6.93-1.22,8.7-2.36,16.89-3.54,25.3-4.21,4-8.62,8.25-13.28,12.71A79,79,0,0,1,111.36,146.46Zm14.88,37.24a26.49,26.49,0,0,1,2.39-1.7,73.23,73.23,0,0,0,9.26,5.39c5.07,2.38,10.75,4.07,11.76,4.68,1.93,1.18,7.12,6.6,9.47,9A56.28,56.28,0,0,1,126.24,183.7Zm24.41,5.43c-7.53-1.86-13.62-5.15-19.47-9a5.18,5.18,0,0,1-1.76-2.21,81.27,81.27,0,0,1-5.95-22.18l13.15-12.62,23.09,9.44c2.08,7.47,4.1,14.73,6.23,22.43C160.82,179.72,155.76,184.41,150.65,189.13Zm18-15c-2-7.28-4-14.55-6.18-22.24l17.9-19a89.71,89.71,0,0,1,20.55,4.7,97.57,97.57,0,0,1,6.35,24.26,102,102,0,0,1-15.61,16.75A88.21,88.21,0,0,1,168.64,174.12ZM218,169.75a55.77,55.77,0,0,1-26.57,26.51c.7-4.89,1.6-10.62,2.2-14.82l16.89-18.08,10.32-.85A54,54,0,0,1,218,169.75Z" style="fill:#fff"/></svg>