<svg id="icon" xmlns="http://www.w3.org/2000/svg" viewBox="0 0 512 512"><path d="M256,487.17c-7.32,0-14.69-.35-21.9-1a230.59,230.59,0,0,1-32-5.29c-.61-.13-1.15-.26-1.69-.4-1.68-.42-3.33-.84-5-1.28C95,452,24.83,360.22,24.83,256A231.17,231.17,0,0,1,419.46,92.54a231.16,231.16,0,0,1,13.86,311.77c-1.56,1.87-3.22,3.79-4.93,5.71-2.62,2.93-5.35,5.83-8.13,8.63-1.65,1.67-3.3,3.29-4.92,4.82A230.4,230.4,0,0,1,396,440c-1.73,1.33-3.34,2.52-4.91,3.64a230.07,230.07,0,0,1-135,43.54Z" style="fill:#fff"/><path d="M256,28.33A227.57,227.57,0,0,1,430.62,402.08c-1.51,1.82-3.14,3.71-4.85,5.61-2.57,2.89-5.26,5.74-8,8.51-1.63,1.64-3.26,3.24-4.86,4.75a227.08,227.08,0,0,1-19.07,16.26q-2.52,1.92-4.85,3.59a228.56,228.56,0,0,1-33.17,19.88,225.51,225.51,0,0,1-99.81,23c-7.22,0-14.48-.34-21.58-1A228,228,0,0,1,203,477.45l-.06,0h-.06c-.51-.11-1-.23-1.51-.36h-.09c-1.63-.41-3.26-.82-4.84-1.25a227.79,227.79,0,0,1-29-429.57A226.23,226.23,0,0,1,256,28.33m0-7C126.39,21.33,21.33,126.4,21.33,256c0,108.34,73.43,199.53,173.24,226.53q2.49.69,5,1.29c.58.16,1.16.29,1.75.43a232.44,232.44,0,0,0,32.45,5.36q11,1,22.24,1.05a233.51,233.51,0,0,0,137.07-44.19c1.69-1.2,3.35-2.44,5-3.7A233.28,233.28,0,0,0,417.74,426c1.69-1.6,3.37-3.24,5-4.9q4.26-4.28,8.25-8.77c1.71-1.89,3.38-3.83,5-5.79A233.73,233.73,0,0,0,490.67,256C490.67,126.4,385.61,21.33,256,21.33Z" style="fill:#005596"/><path d="M190.77,305.22a67.66,67.66,0,1,1-10.93-36.82A67.4,67.4,0,0,1,190.77,305.22Z" style="fill:#fff;stroke:#005596;stroke-miterlimit:10;stroke-width:5px"/><path d="M143.92,352.08a66.86,66.86,0,0,1-2.5,18.22A67.59,67.59,0,0,1,58.13,287a67.57,67.57,0,0,1,85.79,65.08Z" style="fill:none;stroke:#005596;stroke-miterlimit:10;stroke-width:5px"/><path d="M170.42,353.55A67.57,67.57,0,1,1,88.08,247.49a174.8,174.8,0,0,1,61.76,59A173,173,0,0,1,170.42,353.55Z" style="fill:none;stroke:#005596;stroke-miterlimit:10;stroke-width:5px"/><path d="M179.84,268.4a173.26,173.26,0,0,1-17.09,24.28,177.12,177.12,0,0,1-12.91,13.8A181.17,181.17,0,0,1,135.27,319,173.62,173.62,0,0,1,72.2,349.54,67.56,67.56,0,1,1,179.84,268.4Z" style="fill:none;stroke:#005596;stroke-miterlimit:10;stroke-width:5px"/><path d="M190.77,305.22a67.4,67.4,0,0,1-.85,10.71,67.57,67.57,0,0,1-38.79-61.16,67.24,67.24,0,0,1,.85-10.69,67.66,67.66,0,0,1,38.79,61.14Z" style="fill:none;stroke:#005596;stroke-miterlimit:10;stroke-width:5px"/><path d="M451.17,187.57l-.06,74a39.78,39.78,0,0,1-3.86,17.06S434.73,305.37,434.31,306a19.27,19.27,0,0,0-3.23,10.24L431,401.62l-.38.46c-1.51,1.83-3.14,3.71-4.85,5.62-1,1.11-2,2.21-3,3.31l.1-94.73A19.18,19.18,0,0,0,419.61,306c-.41-.67-12.88-27.4-12.88-27.4a40,40,0,0,1-3.8-17l.06-74a16.53,16.53,0,0,1,.75-4.95c.11-.32.21-.65.34-1a.13.13,0,0,0,0-.08,1.59,1.59,0,0,1,.12-.27.15.15,0,0,1,0-.07c.12-.3.26-.6.4-.89a16.71,16.71,0,0,1,5.05-6.13c.43-.32.87-.62,1.33-.9a16.52,16.52,0,0,1,8.65-2.41h11.72C442.31,170.89,451.18,176.63,451.17,187.57Z" style="fill:#005596"/><path d="M431.39,165.88H419.67A21.7,21.7,0,0,0,398,187.52l-.06,74a44.49,44.49,0,0,0,4.28,19.19c12.59,27,13,27.59,13.18,27.94a14.17,14.17,0,0,1,2.46,7.58l-.1,99.92h0q2.53-2.56,5-5.19l.1-94.73A19.18,19.18,0,0,0,419.61,306c-.41-.67-12.88-27.4-12.88-27.4a40,40,0,0,1-3.8-17l.06-74a16.53,16.53,0,0,1,.75-4.95c.11-.32.21-.65.34-1a.13.13,0,0,0,0-.08,1.59,1.59,0,0,1,.12-.27.15.15,0,0,1,0-.07c.12-.3.26-.6.4-.89a16.71,16.71,0,0,1,5.05-6.13c.43-.32.87-.62,1.33-.9a16.52,16.52,0,0,1,8.65-2.41h11.72c10.92,0,19.79,5.75,19.78,16.69l-.06,74a39.78,39.78,0,0,1-3.86,17.06S434.73,305.37,434.31,306a19.27,19.27,0,0,0-3.23,10.24L431,401.62q2.56-3.08,5-6.23l.07-79.11a14.29,14.29,0,0,1,2.46-7.58c.22-.35.58-.92,13.25-27.94a45.21,45.21,0,0,0,4.32-19.18l.06-74C456.18,174.61,446.23,165.9,431.39,165.88Z" style="fill:#fff"/><path d="M317.44,150.77c-26.14,6.34-51.92-10.25-58-34.85s9.3-51.39,35.5-57.74c25.73-6.24,52,9.88,57.86,34.94C359.14,118.07,343.25,144.53,317.44,150.77Z" style="fill:#fff;stroke:#005596;stroke-miterlimit:10;stroke-width:2px"/><path d="M352.85,93.12C346.94,68.06,320.7,52,295,58.18c-26.19,6.35-41.56,33-35.5,57.75s31.82,41.18,57.95,34.85C343.25,144.54,359.13,118.08,352.85,93.12ZM314.76,61a43.59,43.59,0,0,1,15.86,6.48c-12,9.38-20.31,21.36-25.7,35.51a93.39,93.39,0,0,1-17.52,1.12A102.72,102.72,0,0,1,314.76,61Zm-21,1a43.14,43.14,0,0,1,13.74-1.75l3,.08a103.89,103.89,0,0,0-15.95,20.21c-4.41,7.33-8.25,14.91-10.54,23.31a69.51,69.51,0,0,1-13.81-2.48c.69-2.13,1.31-4.2,2-6.22a90.93,90.93,0,0,1,10.66-21.44c2.46-3.59,5.22-7,8-10.31A6,6,0,0,1,293.75,62ZM264.6,88.9a43.76,43.76,0,0,1,16.32-20.81,33.87,33.87,0,0,1,3-1.72c-.4.62-.75,1.29-1.21,1.87a86.63,86.63,0,0,0-11.58,20.48c-1.47,3.56-2.59,7.25-3.87,10.9-.07.23-.17.46-.29.77l-4.78-2A40.78,40.78,0,0,1,264.6,88.9Zm-2.87,13a66.51,66.51,0,0,0,21.6,5.37,95.13,95.13,0,0,0,22.13-.89c2.46,2.53,8.19,11.23,9.48,14.4-17.13,4-34.05,2.86-50.88-1.71C262.3,115.41,260.93,105.7,261.73,101.9Zm14.75,35.59a41.33,41.33,0,0,1-7.54-8.72c-1.15-1.79-2.29-3.59-3.33-5.57,17,4,33.9,4.85,51.19.6,1.59,4.33,3.14,8.61,4.76,13-.74.21-1.19.36-1.64.48A99.1,99.1,0,0,1,300.38,140a94.33,94.33,0,0,1-22.05-1.63A4,4,0,0,1,276.48,137.49Zm38.27,10.39a44,44,0,0,1-19.56-.43,37.94,37.94,0,0,1-11-4.47c-.06,0-.12-.08-.33-.25l.41.11c4.2.23,8.4.61,12.59.63a99,99,0,0,0,24-2.9l1.19-.29c.23,1.81.45,3.46.7,5.4C320.05,146.43,317.44,147.35,314.75,147.88ZM326,144a66.88,66.88,0,0,0-6.13-21.2,90.24,90.24,0,0,0-11.75-18.63,81.45,81.45,0,0,1,7.8-15.63c12.1,12.87,19.51,28,23.93,44.84A41.89,41.89,0,0,1,326,144Zm23.52-30a42.77,42.77,0,0,1-6.4,15.06c-.14.2-.27.4-.43.62,0,0-.11,0-.27.15-4.79-16.56-12.44-31.5-24.44-44,1.19-2.34,6.81-9,9.12-10.73,2.2,2.56,4.5,5.06,6.6,7.7A97.76,97.76,0,0,1,348,107.33a28.94,28.94,0,0,1,1.41,3.87A6.34,6.34,0,0,1,349.52,114ZM329.43,72.76l4.19-3.22c5.42,4.53,10.05,9.57,13,16a43.77,43.77,0,0,1,4.17,18.91A112.28,112.28,0,0,0,329.43,72.76Z" style="fill:#005596"/><path d="M256,487.17c-5.8,0-11.69-.23-17.49-.67-1.46-.1-2.94-.22-4.41-.36l-.72-.08a228.19,228.19,0,0,1-31.13-5.18l-.11,0-.11,0-1.49-.37-1.81-.44-2.65-.66V359.68a37.56,37.56,0,0,1,37.57-37.48h33.67l-.26,3.74c0,.21,0,.42,0,.64v9.68c0,12,10.56,21.82,23.53,21.82h11.54c13,0,23.51-9.78,23.51-21.82v-9.68c0-.22,0-.44,0-.65l-.25-3.73h33.73a37.52,37.52,0,0,1,37.49,37.48v79.84l-1.38,1.05c-1.55,1.18-2.92,2.19-4.2,3.09a229.51,229.51,0,0,1-30.52,18.6c-1,.53-2.07,1.05-3.13,1.56l-1.93.94A229.06,229.06,0,0,1,256,487.17Z" style="fill:#fff"/><path d="M359.1,325.7a34,34,0,0,1,34,34v78.1c-1.41,1.06-2.78,2.08-4.1,3a226.45,226.45,0,0,1-30.09,18.36c-1,.52-2,1-3.07,1.53l-1.93.92A225.33,225.33,0,0,1,256,483.67c-5.76,0-11.53-.22-17.23-.65-1.45-.1-2.9-.23-4.34-.36-.22,0-.44,0-.66-.08A224.94,224.94,0,0,1,203,477.45l-.12,0-1.5-.37-.05,0h0l-1.67-.42V359.69a34,34,0,0,1,34.07-34h29.92c0,.29,0,.58,0,.88v9.69c0,13.93,12.16,25.31,27,25.31h11.55c14.86,0,27-11.38,27-25.31v-9.69c0-.3,0-.59,0-.88h30m-88-7H233.64a41.08,41.08,0,0,0-41.07,41v122.4l5.31,1.33.87.21.8.2h0l.06,0,.12,0h0l1.47.36.23.05.1,0A230.78,230.78,0,0,0,233,489.54l.81.09c1.45.14,3,.26,4.49.37,5.85.44,11.82.67,17.71.67a232.46,232.46,0,0,0,100.91-22.75l1-.47,1-.47c1-.49,2.05-1,3.19-1.6a234.2,234.2,0,0,0,31-18.89c1.31-.92,2.7-1.94,4.27-3.13l2.76-2.1V359.69a41,41,0,0,0-41-41H321.61l.51,7.48c0,.12,0,.26,0,.4v9.69c0,10.1-9,18.31-20,18.31H290.56c-11,0-20-8.21-20-18.31v-9.69c0-.14,0-.27,0-.41l.52-7.48Z" style="fill:#005596"/><path d="M358.89,323.7V459.14c-1,.52-2,1-3.07,1.54l-1.93.92A225.46,225.46,0,0,1,256,483.66c-5.76,0-11.52-.21-17.23-.64-1.45-.11-2.9-.23-4.34-.36-.22,0-.44,0-.66-.08V323.7h29.79c0,.19,0,1.21,0,2v10.57c0,13.93,12.16,25.31,27,25.31h11.55c14.87,0,27-11.38,27-25.31V325.7c0-.79,0-1.81,0-2Z" style="fill:#005596"/><circle cx="296.34" cy="259.59" r="71.14" style="fill:#fff;stroke:#005596;stroke-miterlimit:10;stroke-width:7px"/><path d="M329.1,325.7c0,.29,0,.58,0,.88v9.69c0,13.93-12.15,25.32-27,25.32H290.56c-14.86,0-27-11.39-27-25.32v-9.69c0-.3,0-.59,0-.88Z" style="fill:#fff"/><path d="M225.43,246.72l.2-1.17a58.48,58.48,0,0,1,12.48-27l.3-.37H354.07l.3.37a58.5,58.5,0,0,1,12.66,27l.21,1.17Z" style="fill:#005596"/><path d="M353.6,219.18a57.32,57.32,0,0,1,12.45,26.54H226.61a57.39,57.39,0,0,1,12.27-26.54H353.6m.94-2H237.93l-.6.74a59.59,59.59,0,0,0-12.69,27.47l-.39,2.33H368.43l-.41-2.34a59.52,59.52,0,0,0-12.88-27.47l-.6-.73Z" style="fill:#005596"/><path d="M226.88,145.14a58.36,58.36,0,0,1-2.06,16.1c-5.95,22.41-25.77,39.8-48.38,42.82-46.13,7-82.62-41.89-60.87-84.87C143.56,65,225.51,83.7,226.88,145.14Z" style="fill:#fff;stroke:#fff;stroke-miterlimit:10;stroke-width:3px"/><path d="M115.57,119.2c-21.76,43,14.74,91.83,60.87,84.86,22.61-3,42.43-20.41,48.37-42.83a58.21,58.21,0,0,0,2.07-16.09C225.51,83.7,143.55,65,115.57,119.2Zm101.72,0q1.14,2.13,2.09,4.35c-1.25-.64-3.53-2.16-4.39-2.71-.45-.85-6.61-11.88-9.1-16.37A56.36,56.36,0,0,1,217.29,119.22Zm-17.72-17.11c1.12.42,1.05.29,1.73,1.27a112.47,112.47,0,0,1,10.62,17.82c-3.09,4.66-6,8.9-9.36,13.41l-20.31-4.78-13.51-21c2.81-3.73,6-7.49,9.55-11.46A70.94,70.94,0,0,1,199.57,102.11Zm-63-2.76c.76-.51,1.52-1,2.31-1.47a56.26,56.26,0,0,1,28.33-8.15,83.17,83.17,0,0,1,8.18,6c-3.46,4.23-6.7,8.21-9.94,12.15l-24.64,5.81-8.94-7.19A71,71,0,0,1,136.56,99.35Zm-24.63,47.19a56,56,0,0,1,9.68-32.27,33.88,33.88,0,0,1,3.85-2.61,46.61,46.61,0,0,1,4.62-2.78c3,2.34,6.07,4.73,8.87,6.93-1.22,8.7-2.35,16.89-3.53,25.3l-13.29,12.71A79.68,79.68,0,0,1,111.93,146.54Zm14.88,37.24a26.49,26.49,0,0,1,2.39-1.7,74.05,74.05,0,0,0,9.26,5.39c5.08,2.38,10.75,4.07,11.77,4.68,1.92,1.18,7.12,6.59,9.46,9A56.27,56.27,0,0,1,126.81,183.78Zm24.42,5.42c-7.54-1.85-13.62-5.14-19.48-9A5.23,5.23,0,0,1,130,178a81.63,81.63,0,0,1-6-22.18l13.15-12.62,23.1,9.44c2.07,7.47,4.09,14.73,6.22,22.43C161.39,179.8,156.33,184.48,151.23,189.2Zm18-15c-2-7.29-4-14.55-6.17-22.25q8.91-9.47,17.89-19a90.13,90.13,0,0,1,20.55,4.71,97.46,97.46,0,0,1,6.35,24.26,102.8,102.8,0,0,1-15.6,16.75A89,89,0,0,1,169.21,174.2Zm49.34-4.37A55.81,55.81,0,0,1,192,196.34c.7-4.89,1.6-10.62,2.2-14.82,5.68-6.09,11.07-11.84,16.89-18.09l10.32-.84A54.55,54.55,0,0,1,218.55,169.83Z" style="fill:#005596;stroke:#005596;stroke-miterlimit:10"/></svg>