<svg id="icon" xmlns="http://www.w3.org/2000/svg" viewBox="0 0 512 512"><path d="M256,487.17A231.17,231.17,0,0,1,92.54,92.54,231.17,231.17,0,1,1,419.46,419.46,229.66,229.66,0,0,1,256,487.17Z" style="fill:#fff"/><path d="M256,28.33a227.74,227.74,0,0,1,88.62,437.45A227.73,227.73,0,0,1,167.38,46.22,226.27,226.27,0,0,1,256,28.33m0-7C126.4,21.33,21.33,126.4,21.33,256S126.4,490.67,256,490.67,490.67,385.6,490.67,256,385.6,21.33,256,21.33Z" style="fill:#005596"/><path d="M206.34,354.38a2,2,0,0,1-2-2v-.24a2,2,0,0,1,.92-1.69,7.38,7.38,0,0,0,3.2-6.12l.1-181.67a7.46,7.46,0,0,0-3.28-6.22,2,2,0,0,1-.94-1.69v-.49a2,2,0,0,1,2-2,1.75,1.75,0,0,1,.4,0l218,44.37c4.53.92,7.94,7.7,7.94,15.76v86c0,8.08-3.43,14.79-8,15.63l-8.6,1.6a2.31,2.31,0,0,1-.37,0,2,2,0,0,1-2-2V294.94l-6.12-11-8.1.62-7.1,13.4.05,20.41a2,2,0,0,1-1.64,2L320.52,333.3a1.47,1.47,0,0,1-.36,0,2,2,0,0,1-1.28-.47,2,2,0,0,1-.72-1.53V306.61L307,291.7,290.34,293,277,312l0,27.69a2,2,0,0,1-1.63,2l-68.62,12.68Z" style="fill:#005596"/><path d="M206.34,154.26l218,44.37c3.54.72,6.34,6.9,6.34,13.8v86c0,6.9-2.8,13-6.34,13.66l-8.61,1.6v-19.3l-7-12.57-10.48.81-7.85,14.81.05,20.92-70.28,12.95v-25.4l-12.24-16.32-18.67,1.43L275,311.38l0,28.32-68.63,12.68v-.24a9.36,9.36,0,0,0,4.12-7.81l.1-181.67a9.4,9.4,0,0,0-4.22-7.91v-.49m0-4a4,4,0,0,0-4,4v.49a4,4,0,0,0,1.87,3.39,5.37,5.37,0,0,1,2.35,4.52l-.1,181.67a5.36,5.36,0,0,1-2.28,4.44,4,4,0,0,0-1.84,3.37v.24a4,4,0,0,0,4,4,4.49,4.49,0,0,0,.73-.06l68.62-12.68a4,4,0,0,0,3.28-3.93V312.65l12.45-17.76,14.6-1.11,10.12,13.5v24.06a4,4,0,0,0,4,4,4.39,4.39,0,0,0,.72-.07l70.28-12.95a4,4,0,0,0,3.28-3.94l-.05-19.92,6.35-12,5.73-.44,5.24,9.42v18.26a4,4,0,0,0,4,4,3.54,3.54,0,0,0,.73-.07l8.61-1.6c6.31-1.15,9.61-9.72,9.61-17.59v-86c0-7.84-3.28-16.44-9.54-17.72l-218-44.37a3.56,3.56,0,0,0-.8-.08Z" style="fill:#fff"/><polygon points="349.3 258.27 275.1 258.3 275.1 194.91 349.3 205.54 349.3 258.27" style="fill:#fff"/><polygon points="249.55 325.13 249.55 189.66 266.83 192.19 266.83 322.65 249.55 325.13" style="fill:#fff"/><polygon points="224.43 328.74 224.43 185.97 243.59 188.78 243.59 325.99 224.43 328.74" style="fill:#fff"/><polygon points="368.59 308.06 368.59 207.11 378.28 208.53 378.28 306.67 368.59 308.06" style="fill:#fff"/><polygon points="354.83 310.03 354.83 205.1 365.29 206.63 365.29 308.53 354.83 310.03" style="fill:#fff"/><polygon points="427.16 258.25 382.97 258.26 382.97 210.36 427.16 216.69 427.16 258.25" style="fill:#fff"/><path d="M392.51,307.21c0,11.24,5.05,19.27,11.06,18,5.78-1.24,10.32-10.73,10.32-21.23s-4.54-18.61-10.32-18.1C397.56,286.4,392.51,296,392.51,307.21Z" style="fill:#005596"/><path d="M398,306.38c0,5.66,2.52,9.79,5.58,9.23s5.38-5.42,5.38-10.89-2.39-9.62-5.38-9.27S398,300.71,398,306.38Z" style="fill:#fff"/><path d="M278.86,324.41c0,15.19,9.15,25.54,19.93,23.23C309,345.45,317,332.5,317,318.64s-7.94-24.4-18.19-23.49C288,296.1,278.86,309.22,278.86,324.41Z" style="fill:#005596"/><path d="M288.8,322.91c0,7.6,4.53,12.94,10,11.94,5.31-1,9.53-7.64,9.53-14.9s-4.22-12.64-9.53-12C293.33,308.59,288.8,315.3,288.8,322.91Z" style="fill:#fff"/><path d="M206.44,162.24c0-5.27-4.33-9.67-8.94-9L99.44,166.65c-7.21,1-12.94,1.64-12.94,20.85V319c0,17.55,5.73,19.91,12.94,20.92l98,13.78c4.61.65,8.93-3.71,8.94-9Z" style="fill:#005596"/><polygon points="190.36 272.68 99.39 270.78 99.39 197.48 190.36 188.71 190.36 272.68" style="fill:#fff;stroke:#005596;stroke-linecap:round;stroke-linejoin:round;stroke-width:4px"/><path d="M185,178l-81.42,8.39c-2.3.24-4.16-2.31-4.16-5.7h0c0-3.38,1.86-6.34,4.16-6.63l81.42-10c3-.36,5.39,2.48,5.39,6.35h0C190.36,174.29,187.94,177.68,185,178Z" style="fill:#fff"/><polygon points="170.73 327.09 190.41 329.23 190.41 315.72 170.73 313.94 170.73 327.09" style="fill:#fff"/><polygon points="99.39 319.32 115.2 321.04 115.2 308.94 99.39 307.52 99.39 319.32" style="fill:#fff"/><path d="M168.93,191l-44.12,4.28-23.87,75.43S121.36,215.36,168.93,191Z" style="fill:#005596"/></svg>