<svg id="icon" xmlns="http://www.w3.org/2000/svg" viewBox="0 0 512 512"><path d="M255.82,26.68a228.74,228.74,0,0,1,197,344.81A228.52,228.52,0,0,1,255.82,484,226.41,226.41,0,0,1,155.2,460.75,228.66,228.66,0,0,1,255.82,26.68m0-6c-129.6,0-234.67,105.07-234.67,234.67a234.67,234.67,0,1,0,469.34,0c0-129.6-105.07-234.67-234.67-234.67Z" style="fill:#1e4384"/><rect x="130.31" y="106.3" width="251.03" height="298.1" rx="11.72" style="fill:#fff;stroke:#1e4384;stroke-miterlimit:10;stroke-width:6px"/><rect x="152.59" y="165.56" width="74.67" height="5.1" rx="1.85" style="fill:#1e4384"/><rect x="153.15" y="186.27" width="85.8" height="5.1" rx="1.85" style="fill:#1e4384"/><rect x="153.15" y="256.49" width="157.71" height="5.1" rx="2.19" style="fill:#1e4384"/><rect x="153.71" y="295.21" width="195.98" height="5.1" rx="2.55" style="fill:#1e4384"/><rect x="153.15" y="333.93" width="196.54" height="5.1" rx="2.55" style="fill:#1e4384"/><rect x="153.15" y="372.65" width="196.54" height="5.1" rx="2.55" style="fill:#1e4384"/><rect x="258.4" y="127.47" width="104.92" height="95.99" rx="10.39" style="fill:#fff;stroke:#1e4384;stroke-miterlimit:10;stroke-width:6px"/><path d="M270.8,223.54l-.93-1.6a3.08,3.08,0,0,1,.1-3.13l6.7-10.44.19-.2a18,18,0,0,1,9.07-5.31c1.68-.38,3.53-.7,5.27-.94a33.94,33.94,0,0,1-10.52-27.07c1-16.22,13.24-29.22,28.39-30.23.57-.05,1.18-.06,1.64-.06H311c.54,0,1.08,0,1.63.06,15.13,1,27.34,14,28.39,30.23a33.92,33.92,0,0,1-10.53,27.07c1.75.24,3.59.56,5.27.94a18,18,0,0,1,9.08,5.32l.18.19,7.65,11.93-.85,1.64a3.08,3.08,0,0,1-2.7,1.6Z" style="fill:#fff"/><path d="M311,147.56c.48,0,1,0,1.43.05,13.58.91,24.65,12.77,25.6,27.43.85,13.16-6.26,24.65-16.65,29.41h3.44a56,56,0,0,1,10.27,1.33,15,15,0,0,1,7.56,4.44l6.54,10.2a.08.08,0,0,1-.07.12H272.57a.08.08,0,0,1-.07-.12l6.55-10.2a15,15,0,0,1,7.56-4.44,56.06,56.06,0,0,1,10.28-1.33h3.43c-10.38-4.76-17.5-16.25-16.64-29.41.94-14.66,12-26.52,25.59-27.43.48,0,1-.05,1.44-.05H311m0-6h-.31c-.47,0-1.16,0-1.91.07-16.61,1.14-30,15.33-31.11,33a37.29,37.29,0,0,0,7.63,25.26l-.06,0a20.94,20.94,0,0,0-10.59,6.18l-.38.4L274,207l-6.55,10.2a6.08,6.08,0,0,0,5.12,9.36h76.57a6.07,6.07,0,0,0,5.11-9.37L347.72,207l-.3-.45-.37-.4a20.93,20.93,0,0,0-10.6-6.19l-.05,0A37.27,37.27,0,0,0,344,174.66c-1.14-17.72-14.55-31.92-31.18-33-.68,0-1.27-.07-1.83-.07Z" style="fill:#1e4384"/></svg>