<svg id="icon" xmlns="http://www.w3.org/2000/svg" viewBox="0 0 512 512"><path d="M223.61,326.87l-4.16.68,3,3-3.25,2.36-2-3.75L215.29,333,212,330.59l3-3-4.16-.71,1.21-3.72,3.78,1.83-.59-4.22h4l-.62,4.25,3.75-1.89Z" style="fill:#fff"/><path d="M243,326.87l-4.16.68,3,3-3.25,2.36-1.95-3.75L234.68,333l-3.25-2.36,2.95-3-4.16-.71,1.21-3.72,3.78,1.83-.59-4.22h4L238,325l3.75-1.89Z" style="fill:#fff"/><path d="M262.39,326.87l-4.16.68,3,3L258,332.92,256,329.17,254.07,333l-3.25-2.36,3-3-4.16-.71,1.21-3.72L254.6,325l-.59-4.22h4L257.4,325l3.75-1.89Z" style="fill:#fff"/><path d="M281.78,326.87l-4.16.68,3,3-3.25,2.36-1.94-3.75-2,3.78-3.25-2.36,3-3-4.16-.71,1.21-3.72L274,325l-.59-4.22h4l-.62,4.25,3.75-1.89Z" style="fill:#fff"/><path d="M301.17,326.87l-4.16.68,3,3-3.25,2.36-1.94-3.75L292.85,333l-3.25-2.36,2.95-3-4.16-.71,1.21-3.72,3.78,1.83-.59-4.22h4l-.62,4.25,3.75-1.89Z" style="fill:#fff"/><path d="M256,487.17A231.17,231.17,0,0,1,92.54,92.54,231.17,231.17,0,1,1,419.46,419.46,229.66,229.66,0,0,1,256,487.17Z" style="fill:#fff"/><path d="M256,28.33a227.74,227.74,0,0,1,88.62,437.45A227.73,227.73,0,0,1,167.38,46.22,226.27,226.27,0,0,1,256,28.33m0-7C126.4,21.33,21.33,126.4,21.33,256S126.4,490.67,256,490.67,490.67,385.6,490.67,256,385.6,21.33,256,21.33Z" style="fill:#005696"/><rect x="102.64" y="117.15" width="306.73" height="192.05" rx="12.23" style="fill:none;stroke:#00659f;stroke-miterlimit:10;stroke-width:6px"/><rect x="125.52" y="138.48" width="260.97" height="149.38" rx="7.26" style="fill:#fff"/><path d="M379.22,141.48a4.26,4.26,0,0,1,4.26,4.26V280.6a4.26,4.26,0,0,1-4.26,4.26H132.78a4.26,4.26,0,0,1-4.26-4.26V145.74a4.26,4.26,0,0,1,4.26-4.26H379.22m0-6H132.78a10.29,10.29,0,0,0-10.26,10.26V280.6a10.28,10.28,0,0,0,10.26,10.26H379.22a10.28,10.28,0,0,0,10.26-10.26V145.74a10.29,10.29,0,0,0-10.26-10.26Z" style="fill:#00659f"/><line x1="217.68" y1="150.17" x2="147.55" y2="220.3" style="fill:#00659f;stroke:#00659f;stroke-linecap:round;stroke-miterlimit:10;stroke-width:6px"/><line x1="182.62" y1="150.17" x2="137.5" y2="195.28" style="fill:#00659f;stroke:#00659f;stroke-linecap:round;stroke-miterlimit:10;stroke-width:6px"/><path d="M256,439.86a134.55,134.55,0,0,1-74.25-22.21l-8.42-6a135.82,135.82,0,0,1-30.1-32.4l-1.36-2.05,38.36-38.07a38.25,38.25,0,0,1,19-10.32,151,151,0,0,1,20.66-2.8,66.48,66.48,0,0,1,32.25-121.93c1.08-.09,2.24-.13,3.51-.13h.72c1.27,0,2.48.06,3.49.13A66.48,66.48,0,0,1,292.11,326a151.31,151.31,0,0,1,20.67,2.8,38.13,38.13,0,0,1,19,10.32l38.36,38.07-1.36,2.05a135.82,135.82,0,0,1-30.1,32.4l-8.42,6A134.51,134.51,0,0,1,256,439.86Z" style="fill:#fff"/><path d="M256.37,206.93c1.11,0,2.19,0,3.31.12A63.49,63.49,0,0,1,280.4,328.86h8a138.67,138.67,0,0,1,23.79,2.86,35.25,35.25,0,0,1,17.5,9.52l36.6,36.33a132.82,132.82,0,0,1-29.43,31.69l-8.23,5.88a132.16,132.16,0,0,1-145.18,0l-8.23-5.88a132.82,132.82,0,0,1-29.43-31.69l36.6-36.33a35.34,35.34,0,0,1,17.5-9.52,138.89,138.89,0,0,1,23.79-2.86h8a63.49,63.49,0,0,1,20.72-121.81c1.12-.09,2.21-.12,3.33-.12h.72m0-6h-.72c-1.33,0-2.56,0-3.75.13a69.49,69.49,0,0,0-40.09,122.66c-4.32.51-9,1.24-13.21,2.13A41.3,41.3,0,0,0,178.13,337l-36.61,36.34-3.5,3.46,2.72,4.11A138.84,138.84,0,0,0,171.51,414l.09.07.09.07,8.24,5.88.09.07.09.06a138.16,138.16,0,0,0,151.78,0l.09-.06.09-.07,8.24-5.88.09-.07.09-.07a138.84,138.84,0,0,0,30.77-33.11l2.72-4.11-3.5-3.46L333.88,337a41.31,41.31,0,0,0-20.48-11.13c-4.21-.89-8.89-1.62-13.21-2.13a69.54,69.54,0,0,0-40.14-122.66c-1.06-.06-2.32-.13-3.68-.13Z" style="fill:#005696"/></svg>