<svg id="icon" xmlns="http://www.w3.org/2000/svg" viewBox="0 0 512 512"><path d="M255.43,487.09A231.16,231.16,0,0,1,92,92.47,231.17,231.17,0,0,1,418.89,419.39,229.66,229.66,0,0,1,255.43,487.09Z" style="fill:#fff"/><path d="M255.43,28.26A227.73,227.73,0,0,1,344,465.71,227.73,227.73,0,0,1,166.81,46.15a226.23,226.23,0,0,1,88.62-17.89m0-7c-129.61,0-234.67,105.06-234.67,234.67S125.82,490.59,255.43,490.59,490.09,385.53,490.09,255.93,385,21.26,255.43,21.26Z" style="fill:#005596"/><path d="M396.33,218a29.65,29.65,0,0,1-5.57,3.09h2.61l4.07-2.55Z" style="fill:#005596"/><path d="M393,220.63a29.83,29.83,0,0,0,3.36-2l0,0-3.18,2Z" style="fill:#005596"/><path d="M396.33,218a29.65,29.65,0,0,1-5.57,3.09h2.61l4.07-2.55-1.11-.54Z" style="fill:#b9d532"/><path d="M379,135.06a71.56,71.56,0,0,0-65.49,42.67l-63.89-31.09a61,61,0,1,0-120.79-12,60.59,60.59,0,0,0,10.1,33.62,61.36,61.36,0,0,0,13.58,14.63q1.84,1.44,3.8,2.71a60.7,60.7,0,0,0,33.51,10l1.57,0,5.69,55.8a94.78,94.78,0,0,0-47.29,169.21q2.86,2.24,5.91,4.23a94.87,94.87,0,0,0,104.18,0q3-2,5.9-4.23a94.82,94.82,0,0,0,18.49-131L331.35,260q1.88,1.68,3.87,3.22,2.16,1.68,4.46,3.19a71.58,71.58,0,0,0,78.62,0q2.29-1.51,4.46-3.19A71.56,71.56,0,0,0,379,135.06ZM190.67,188.57c-.28,0-.57,0-.86,0a53.78,53.78,0,0,1-29.67-8.88c-1.16-.76-2.28-1.56-3.35-2.4a53.57,53.57,0,0,1-11.06-11.54l13.81-13.71a14.47,14.47,0,0,1,7.19-3.91,56.42,56.42,0,0,1,9.78-1.18h3.27a26.09,26.09,0,0,1,8.52-50.06c.46,0,.91,0,1.37,0H190c.46,0,.9,0,1.36,0a26.11,26.11,0,0,1,23.54,32.81,25.8,25.8,0,0,1-4.41,9A26.09,26.09,0,0,1,199.84,147h3.27a56.31,56.31,0,0,1,9.78,1.18,14.47,14.47,0,0,1,7.19,3.91l13.81,13.71a53.74,53.74,0,0,1-11.08,11.56c-1.05.82-2.17,1.62-3.35,2.39a53.33,53.33,0,0,1-18.85,7.78A52.24,52.24,0,0,1,190.67,188.57ZM259,411.91c-1.63,1.27-3.37,2.52-5.2,3.71a83.83,83.83,0,0,1-92.1,0c-1.8-1.17-3.54-2.42-5.2-3.71A84,84,0,0,1,139.33,394l21.39-21.23a22.57,22.57,0,0,1,11.18-6.09,88.67,88.67,0,0,1,15.2-1.83h5.09A40.55,40.55,0,0,1,205.43,287c.71-.05,1.41-.08,2.12-.08H208c.71,0,1.4,0,2.12.08l.62,0a40.85,40.85,0,0,1,34.94,26.67,39.58,39.58,0,0,1,2.3,10.85,40.54,40.54,0,0,1-24.62,40.25h5.08a88.56,88.56,0,0,1,15.2,1.83,22.53,22.53,0,0,1,11.18,6.09L276.23,394A84.27,84.27,0,0,1,259,411.91Zm18.86-130.19a94.58,94.58,0,0,0-70.09-31h-.73l-5.73-56.27a60.52,60.52,0,0,0,22-8.94q2-1.27,3.8-2.71a61.36,61.36,0,0,0,13.58-14.63,59.88,59.88,0,0,0,6.1-11.83l63.3,30.8a71.73,71.73,0,0,0,9.18,58.88,70.86,70.86,0,0,0,4.94,6.6Zm140-24.8c-1.24,1-2.56,1.91-3.94,2.82a63.57,63.57,0,0,1-69.84,0q-2.06-1.34-3.94-2.82c-.56-.44-1.12-.88-1.67-1.34a65,65,0,0,1-11.34-12.21l16.37-16.25a17,17,0,0,1,8.43-4.59,67.41,67.41,0,0,1,11.48-1.38h3.83a30.65,30.65,0,0,1-14.83-13.35,30.31,30.31,0,0,1-3.77-13,30.6,30.6,0,0,1,28.6-32.42c.53,0,1.06-.06,1.6-.06h.35c.53,0,1.06,0,1.59.06A30.61,30.61,0,0,1,396.33,218l1.11.54-4.07,2.55h1.22a67.09,67.09,0,0,1,11.47,1.38,17,17,0,0,1,8.44,4.59l16.37,16.25A64,64,0,0,1,417.84,256.92Z" style="fill:#005596"/><path d="M233.89,165.77a53.74,53.74,0,0,1-11.08,11.56c-1.05.82-2.17,1.62-3.35,2.39a53.33,53.33,0,0,1-18.85,7.78,52.24,52.24,0,0,1-9.94,1.07c-.28,0-.57,0-.86,0a53.78,53.78,0,0,1-29.67-8.88c-1.16-.76-2.28-1.56-3.35-2.4a53.57,53.57,0,0,1-11.06-11.54l13.81-13.71a14.47,14.47,0,0,1,7.19-3.91,56.42,56.42,0,0,1,9.78-1.18h3.27a26.09,26.09,0,0,1,8.52-50.06c.46,0,.91,0,1.37,0H190c.46,0,.9,0,1.36,0a26.11,26.11,0,0,1,23.54,32.81,25.8,25.8,0,0,1-4.41,9A26.09,26.09,0,0,1,199.84,147h3.27a56.31,56.31,0,0,1,9.78,1.18,14.47,14.47,0,0,1,7.19,3.91Z" style="fill:#fff"/><path d="M276.23,394a84.27,84.27,0,0,1-17.22,18c-1.63,1.27-3.37,2.52-5.2,3.71a83.83,83.83,0,0,1-92.1,0c-1.8-1.17-3.54-2.42-5.2-3.71A84,84,0,0,1,139.33,394l21.39-21.23a22.57,22.57,0,0,1,11.18-6.09,88.67,88.67,0,0,1,15.2-1.83h5.09A40.55,40.55,0,0,1,205.43,287c.71-.05,1.41-.08,2.12-.08H208c.71,0,1.4,0,2.12.08l.62,0a40.85,40.85,0,0,1,34.94,26.67,39.58,39.58,0,0,1,2.3,10.85,40.54,40.54,0,0,1-24.62,40.25h5.08a88.56,88.56,0,0,1,15.2,1.83,22.53,22.53,0,0,1,11.18,6.09Z" style="fill:#fff"/><path d="M430.87,243.35a64,64,0,0,1-13,13.57c-1.24,1-2.56,1.91-3.94,2.82a63.57,63.57,0,0,1-69.84,0q-2.06-1.34-3.94-2.82c-.56-.44-1.12-.88-1.67-1.34a65,65,0,0,1-11.34-12.21l16.37-16.25a17,17,0,0,1,8.43-4.59,67.41,67.41,0,0,1,11.48-1.38h3.83a30.65,30.65,0,0,1-14.83-13.35,30.31,30.31,0,0,1-3.77-13,30.6,30.6,0,0,1,28.6-32.42c.53,0,1.06-.06,1.6-.06h.35c.53,0,1.06,0,1.59.06A30.61,30.61,0,0,1,396.33,218a29.65,29.65,0,0,1-5.57,3.09h3.83a67.09,67.09,0,0,1,11.47,1.38,17,17,0,0,1,8.44,4.59Z" style="fill:#fff"/></svg>