<svg id="icon" xmlns="http://www.w3.org/2000/svg" viewBox="0 0 512 512"><path d="M255.43,28.26A227.73,227.73,0,0,1,344,465.71,227.73,227.73,0,0,1,166.81,46.15a226.23,226.23,0,0,1,88.62-17.89m0-7c-129.61,0-234.67,105.06-234.67,234.67S125.82,490.59,255.43,490.59,490.09,385.53,490.09,255.93,385,21.26,255.43,21.26Z" style="fill:#005696"/><rect x="85.54" y="152.54" width="216.89" height="194.78" rx="5.83" style="fill:#005696"/><rect x="90.43" y="195.32" width="207.11" height="146.67" rx="5.83" style="fill:#fff"/><rect x="100.65" y="204.54" width="35.11" height="35.11" rx="4.5" style="fill:#005696"/><rect x="151.54" y="204.54" width="35.11" height="35.11" rx="4.5" style="fill:#005696"/><rect x="202.43" y="204.54" width="35.11" height="35.11" rx="4.5" style="fill:#005696"/><rect x="252.21" y="204.54" width="35.11" height="35.11" rx="4.5" style="fill:#005696"/><rect x="100.65" y="250.76" width="35.11" height="35.11" rx="4.5" style="fill:#005696"/><rect x="151.54" y="250.76" width="35.11" height="35.11" rx="4.5" style="fill:#005696"/><rect x="202.43" y="250.76" width="35.11" height="35.11" rx="4.5" style="fill:#005696"/><rect x="252.21" y="250.76" width="35.11" height="35.11" rx="4.5" style="fill:#005696"/><rect x="100.65" y="296.98" width="35.11" height="35.11" rx="4.5" style="fill:#005696"/><rect x="151.54" y="296.98" width="35.11" height="35.11" rx="4.5" style="fill:#005696"/><rect x="202.43" y="296.98" width="35.11" height="35.11" rx="4.5" style="fill:#005696"/><rect x="252.21" y="296.98" width="35.11" height="35.11" rx="4.5" style="fill:#005696"/><rect x="248.21" y="127.32" width="25.56" height="46.67" rx="12.78" style="fill:#fff"/><rect x="252.21" y="131.76" width="17.56" height="37.78" rx="8.78" style="fill:#005696"/><rect x="114.21" y="127.32" width="25.56" height="46.67" rx="12.78" style="fill:#fff"/><rect x="118.21" y="131.76" width="17.56" height="37.78" rx="8.78" style="fill:#005696"/><rect x="223.01" y="313.35" width="173.61" height="95.91" rx="9.36" style="fill:#fff"/><path d="M387.26,316.85a5.85,5.85,0,0,1,5.86,5.85v77.2a5.85,5.85,0,0,1-5.86,5.85H232.37a5.85,5.85,0,0,1-5.86-5.85V322.7a5.85,5.85,0,0,1,5.86-5.85H387.26m0-7H232.37a12.87,12.87,0,0,0-12.86,12.85v77.2a12.87,12.87,0,0,0,12.86,12.85H387.26a12.86,12.86,0,0,0,12.86-12.85V322.7a12.86,12.86,0,0,0-12.86-12.85Z" style="fill:#005696"/><path d="M393.12,326.08l-82.23,41.28a2.92,2.92,0,0,1-2.64,0l-81.74-41v6.58l81.71,41a3,3,0,0,0,2.64,0l82.26-41.28Z" style="fill:#005696"/><path d="M426.46,186.73a72.38,72.38,0,0,1-12,40.07,73.31,73.31,0,0,1-16.19,17.42q-2.19,1.71-4.53,3.24a72.7,72.7,0,0,1-79.84,0q-2.34-1.53-4.53-3.24a73.31,73.31,0,0,1-16.19-17.42,72.67,72.67,0,1,1,133.31-40.07Z" style="fill:#fff"/><path d="M403.71,227.08a60.26,60.26,0,0,1-13.33,14.35l-3.73,2.66a59.79,59.79,0,0,1-65.72,0l-3.73-2.66a60.26,60.26,0,0,1-13.33-14.35l16.58-16.44a16,16,0,0,1,7.92-4.32A62.65,62.65,0,0,1,339.14,205h3.6a28.74,28.74,0,0,1,9.39-55.15q.75-.06,1.5-.06H354c.5,0,1,0,1.5.06A28.74,28.74,0,0,1,364.84,205h3.6a62.43,62.43,0,0,1,10.77,1.29,16,16,0,0,1,7.93,4.32Z" style="fill:#005696"/><path d="M353.8,123.82a62.9,62.9,0,0,1,38.44,112.7c-1.22,1-2.53,1.89-3.9,2.79a62.93,62.93,0,0,1-69.12,0c-1.35-.88-2.66-1.81-3.91-2.79A62.91,62.91,0,0,1,353.8,123.82m0-4.28a67.18,67.18,0,0,0-41.11,120.35q2,1.58,4.19,3a67.17,67.17,0,0,0,73.82,0q2.16-1.41,4.19-3A67.19,67.19,0,0,0,353.8,119.54Z" style="fill:#005696"/><circle cx="393.74" cy="235.22" r="17.45" style="fill:#005696;stroke:#fff;stroke-miterlimit:10;stroke-width:5px"/></svg>