<svg id="icon" xmlns="http://www.w3.org/2000/svg" viewBox="0 0 512 512"><circle cx="256" cy="256" r="234.67" style="fill:#005596"/><path d="M206,338.61,183.09,114.26,397.44,218.58Zm-11.1-207.5,19.41,190.48L376.85,219.68Z" style="fill:#c1d82f"/><path d="M207.78,434.89a88.85,88.85,0,0,1-49.07-14.68c-1.94-1.27-3.8-2.6-5.55-4a89.85,89.85,0,0,1-19.92-21.44,89.34,89.34,0,1,1,129.17,21.43c-1.77,1.37-3.63,2.7-5.56,4A88.88,88.88,0,0,1,207.78,434.89Z" style="fill:#005596"/><path d="M207.78,261.76A83.8,83.8,0,0,1,259,411.91c-1.63,1.27-3.37,2.52-5.2,3.71a83.83,83.83,0,0,1-92.1,0c-1.8-1.17-3.54-2.42-5.2-3.71a83.82,83.82,0,0,1,51.27-150.13m0-11a94.79,94.79,0,0,0-58,169.82q2.86,2.24,5.91,4.23a94.87,94.87,0,0,0,104.18,0q3-2,5.9-4.23a94.81,94.81,0,0,0-58-169.82Z" style="fill:#b9d532"/><path d="M278.22,395.93a84.83,84.83,0,0,1-18.81,20.24l-5.26,3.76a84.41,84.41,0,0,1-92.75,0l-5.26-3.76a84.83,84.83,0,0,1-18.81-20.24l23.39-23.21a22.57,22.57,0,0,1,11.18-6.09,88.67,88.67,0,0,1,15.2-1.83h5.09A40.56,40.56,0,0,1,205.43,287c.71-.05,1.41-.08,2.12-.08H208c.71,0,1.4,0,2.12.08a40.56,40.56,0,0,1,13.24,77.82h5.08a88.56,88.56,0,0,1,15.2,1.83,22.53,22.53,0,0,1,11.18,6.09Z" style="fill:#fff"/><path d="M207.78,261.76A83.8,83.8,0,0,1,259,411.91c-1.63,1.27-3.37,2.52-5.2,3.71a83.83,83.83,0,0,1-92.1,0c-1.8-1.17-3.54-2.42-5.2-3.71a83.82,83.82,0,0,1,51.27-150.13m0-11a94.79,94.79,0,0,0-58,169.82q2.86,2.24,5.91,4.23a94.87,94.87,0,0,0,104.18,0q3-2,5.9-4.23a94.81,94.81,0,0,0-58-169.82Z" style="fill:#c1d82f"/><path d="M189.81,195.09a60.24,60.24,0,0,1-33.23-9.94c-1.31-.86-2.58-1.77-3.77-2.7A61,61,0,0,1,139.33,168a60.49,60.49,0,1,1,101,0,61,61,0,0,1-13.48,14.5c-1.19.93-2.46,1.84-3.77,2.7A60.24,60.24,0,0,1,189.81,195.09Z" style="fill:#005596"/><path d="M189.81,74.61A60,60,0,0,1,226.5,182.06c-1.18.92-2.44,1.82-3.73,2.67a60,60,0,0,1-65.92,0c-1.29-.85-2.55-1.75-3.73-2.67A60,60,0,0,1,189.81,74.61m0-1A61,61,0,0,0,152.5,182.85q1.84,1.44,3.8,2.71a61,61,0,0,0,67,0q2-1.27,3.8-2.71a61.36,61.36,0,0,0,13.58-14.63,61,61,0,0,0-50.89-94.61Z" style="fill:#b9d532"/><path d="M235.12,167A54.51,54.51,0,0,1,223,180l-3.38,2.42a54.34,54.34,0,0,1-59.66,0L156.6,180a54.51,54.51,0,0,1-12.1-13l15-14.93a14.47,14.47,0,0,1,7.19-3.91,56.42,56.42,0,0,1,9.78-1.18h3.27a26.09,26.09,0,0,1,8.52-50.06c.46,0,.91,0,1.37,0H190c.46,0,.9,0,1.36,0A26.09,26.09,0,0,1,199.84,147h3.27a56.31,56.31,0,0,1,9.78,1.18,14.47,14.47,0,0,1,7.19,3.91Z" style="fill:#fff"/><path d="M189.81,80.61a54,54,0,0,1,33,96.72c-1.05.82-2.17,1.62-3.35,2.39a54,54,0,0,1-59.32,0c-1.16-.76-2.28-1.56-3.35-2.4a54,54,0,0,1,33-96.7m0-7A61,61,0,0,0,152.5,182.85q1.84,1.44,3.8,2.71a61,61,0,0,0,67,0q2-1.27,3.8-2.71a61.36,61.36,0,0,0,13.58-14.63,61,61,0,0,0-50.89-94.61Z" style="fill:#c1d82f"/><path d="M379,277.68A70.77,70.77,0,0,1,340,266c-1.53-1-3-2.07-4.42-3.16a71.12,71.12,0,1,1,86.92,0c-1.4,1.1-2.89,2.16-4.42,3.17A70.77,70.77,0,0,1,379,277.68Z" style="fill:#005596"/><path d="M379,136.06a70.54,70.54,0,0,1,43.15,126.38c-1.38,1.08-2.86,2.14-4.39,3.14a70.56,70.56,0,0,1-77.52,0c-1.53-1-3-2.06-4.4-3.14A70.56,70.56,0,0,1,379,136.06m0-1a71.55,71.55,0,0,0-43.77,128.17q2.16,1.68,4.46,3.19a71.58,71.58,0,0,0,78.62,0q2.29-1.51,4.46-3.19A71.56,71.56,0,0,0,379,135.06Z" style="fill:#b9d532"/><path d="M432.15,244.62A64.26,64.26,0,0,1,418,259.9l-4,2.84a63.74,63.74,0,0,1-70,0l-4-2.84a64.26,64.26,0,0,1-14.19-15.28l17.65-17.52a17,17,0,0,1,8.43-4.59,67.41,67.41,0,0,1,11.48-1.38h3.83a30.61,30.61,0,0,1,10-58.73c.53,0,1.06-.06,1.6-.06h.35c.53,0,1.06,0,1.59.06a30.61,30.61,0,0,1,10,58.73h3.83a67.09,67.09,0,0,1,11.47,1.38,17,17,0,0,1,8.44,4.59Z" style="fill:#fff"/><path d="M379,143.06a63.55,63.55,0,0,1,38.85,113.86c-1.24,1-2.56,1.91-3.94,2.82a63.57,63.57,0,0,1-69.84,0q-2.06-1.34-3.94-2.82A63.55,63.55,0,0,1,379,143.06m0-8a71.55,71.55,0,0,0-43.77,128.17q2.16,1.68,4.46,3.19a71.58,71.58,0,0,0,78.62,0q2.29-1.51,4.46-3.19A71.56,71.56,0,0,0,379,135.06Z" style="fill:#c1d82f"/></svg>