<svg id="icon" xmlns="http://www.w3.org/2000/svg" viewBox="0 0 512 512"><circle cx="256" cy="255.96" r="234.67" style="fill:#005696"/><rect x="87.51" y="152.54" width="216.89" height="194.78" rx="5.83" style="fill:#c1d730"/><rect x="92.4" y="195.32" width="207.11" height="146.67" rx="5.83" style="fill:#005696"/><rect x="102.62" y="204.54" width="35.11" height="35.11" rx="4.5" style="fill:#c1d730"/><rect x="153.51" y="204.54" width="35.11" height="35.11" rx="4.5" style="fill:#c1d730"/><rect x="204.4" y="204.54" width="35.11" height="35.11" rx="4.5" style="fill:#c1d730"/><rect x="254.18" y="204.54" width="35.11" height="35.11" rx="4.5" style="fill:#c1d730"/><rect x="102.62" y="250.76" width="35.11" height="35.11" rx="4.5" style="fill:#c1d730"/><rect x="153.51" y="250.76" width="35.11" height="35.11" rx="4.5" style="fill:#c1d730"/><rect x="204.4" y="250.76" width="35.11" height="35.11" rx="4.5" style="fill:#c1d730"/><rect x="254.18" y="250.76" width="35.11" height="35.11" rx="4.5" style="fill:#c1d730"/><rect x="102.62" y="296.98" width="35.11" height="35.11" rx="4.5" style="fill:#c1d730"/><rect x="153.51" y="296.98" width="35.11" height="35.11" rx="4.5" style="fill:#c1d730"/><rect x="204.4" y="296.98" width="35.11" height="35.11" rx="4.5" style="fill:#c1d730"/><rect x="254.18" y="296.98" width="35.11" height="35.11" rx="4.5" style="fill:#c1d730"/><rect x="250.18" y="127.32" width="25.56" height="46.67" rx="12.78" style="fill:#005696"/><rect x="254.18" y="131.76" width="17.56" height="37.78" rx="8.78" style="fill:#fff"/><rect x="116.18" y="127.32" width="25.56" height="46.67" rx="12.78" style="fill:#005696"/><rect x="120.18" y="131.76" width="17.56" height="37.78" rx="8.78" style="fill:#fff"/><rect x="225.98" y="314.35" width="171.61" height="93.91" rx="8.36" style="fill:#fff"/><path d="M389.24,316.85a5.86,5.86,0,0,1,5.86,5.85v77.2a5.86,5.86,0,0,1-5.86,5.85H234.34a5.85,5.85,0,0,1-5.86-5.85V322.7a5.85,5.85,0,0,1,5.86-5.85h154.9m0-5H234.34a10.87,10.87,0,0,0-10.86,10.85v77.2a10.87,10.87,0,0,0,10.86,10.85h154.9A10.87,10.87,0,0,0,400.1,399.9V322.7a10.87,10.87,0,0,0-10.86-10.85Z" style="fill:#005696"/><path d="M395.1,326.08l-82.24,41.28a2.92,2.92,0,0,1-2.64,0l-81.74-41v6.58l81.72,41a3,3,0,0,0,2.63,0l82.27-41.28Z" style="fill:#005696"/><path d="M428.43,186.73a72.38,72.38,0,0,1-12,40.07,73.31,73.31,0,0,1-16.19,17.42q-2.19,1.71-4.53,3.24a72.7,72.7,0,0,1-79.84,0c-1.56-1-3.06-2.1-4.53-3.24a73.31,73.31,0,0,1-16.19-17.42,72.67,72.67,0,1,1,133.31-40.07Z" style="fill:#005696"/><path d="M405.68,227.08a60.06,60.06,0,0,1-13.33,14.35l-3.72,2.66a59.8,59.8,0,0,1-65.73,0l-3.73-2.66a60.26,60.26,0,0,1-13.33-14.35l16.58-16.44a16,16,0,0,1,7.92-4.32A62.65,62.65,0,0,1,341.11,205h3.6a28.74,28.74,0,0,1,9.39-55.15q.75-.06,1.5-.06h.33c.5,0,1,0,1.5.06A28.74,28.74,0,0,1,366.81,205h3.6a62.64,62.64,0,0,1,10.78,1.29,16,16,0,0,1,7.92,4.32Z" style="fill:#fff"/><path d="M355.77,123.82a62.89,62.89,0,0,1,38.44,112.7q-1.83,1.44-3.89,2.79a62.94,62.94,0,0,1-69.13,0c-1.35-.88-2.66-1.81-3.91-2.79a62.91,62.91,0,0,1,38.49-112.68m0-4.28a67.18,67.18,0,0,0-41.11,120.35q2,1.58,4.19,3a67.17,67.17,0,0,0,73.82,0q2.16-1.41,4.19-3a67.19,67.19,0,0,0-41.09-120.35Z" style="fill:#c1d730"/><circle cx="395.71" cy="235.22" r="17.45" style="fill:#c1d730;stroke:#005696;stroke-miterlimit:10;stroke-width:5px"/></svg>