<svg id="icon" xmlns="http://www.w3.org/2000/svg" viewBox="0 0 512 512"><path d="M256,487.13A231.17,231.17,0,0,1,92.54,92.5,231.17,231.17,0,1,1,419.46,419.42,229.66,229.66,0,0,1,256,487.13Z" style="fill:#fff"/><path d="M256,28.3a227.73,227.73,0,0,1,88.62,437.44A227.73,227.73,0,0,1,167.38,46.19,226.27,226.27,0,0,1,256,28.3m0-7C126.4,21.3,21.33,126.36,21.33,256S126.4,490.63,256,490.63,490.67,385.57,490.67,256,385.6,21.3,256,21.3Z" style="fill:#005596"/><path d="M416,428A235.21,235.21,0,0,1,375.84,458l-42.53-39L322,407.12s4.65,40.67,7.84,71.84c-1.45.49-2.9,1-4.36,1.4h0q-7.8,2.4-15.83,4.27c-2.79.65-5.6,1.24-8.42,1.79a234.72,234.72,0,0,1-40.85,4.24l-2.73,0h-1.25q-9.33,0-18.49-.72-8.2-.63-16.27-1.84c-2-.29-4-.62-6-1h0a232.51,232.51,0,0,1-27-6.41q-1.89-.57-3.78-1.17c3.2-31.25,7.92-72.47,7.92-72.47L181.39,419,138.1,458.74c-.8-.45-1.6-.93-2.39-1.41q-4.49-2.67-8.84-5.56c-2.23-1.48-4.44-3-6.61-4.55A236.24,236.24,0,0,1,97.75,429l20.76-22.55,58.12-56.69,4.77-4.06.06.08a37.64,37.64,0,0,1,23.7-8.34H309.51a37.66,37.66,0,0,1,23.73,8.34l.06-.08,4.76,4.06,58.13,56.69Z" style="fill:#005596"/><path d="M304.63,78.62,292.15,117a3.46,3.46,0,0,1-3.3,2.39,3.37,3.37,0,0,1-1.07-.17,3.47,3.47,0,0,1-2.22-4.37L298,76.48a3.47,3.47,0,0,1,6.6,2.14Z" style="fill:#005596"/><path d="M344.86,98.1a3.46,3.46,0,0,1-.66,2L320.46,132.8a3.44,3.44,0,0,1-2.26,1.39,3.39,3.39,0,0,1-.55,0,3.47,3.47,0,0,1-2.8-5.51l23.74-32.66a3.47,3.47,0,0,1,6.27,2Z" style="fill:#005596"/><path d="M376.61,130a3.48,3.48,0,0,1-1.43,2.81l-32.66,23.73a3.44,3.44,0,0,1-2,.67,3.51,3.51,0,0,1-.55-.05,3.47,3.47,0,0,1-1.49-6.23l32.66-23.73A3.48,3.48,0,0,1,376,128,3.52,3.52,0,0,1,376.61,130Z" style="fill:#005596"/><path d="M396.57,171.75a3.46,3.46,0,0,1-2,1.73L356.15,186a3.67,3.67,0,0,1-1.07.17,3.47,3.47,0,0,1-1.08-6.77l38.4-12.48a3.47,3.47,0,0,1,4.17,4.87Z" style="fill:#005596"/><path d="M403.87,214.66a3.47,3.47,0,0,1-3.47,3.47H360a3.47,3.47,0,0,1,0-6.94H400.4A3.47,3.47,0,0,1,403.87,214.66Z" style="fill:#005596"/><path d="M396.54,260.18a3.44,3.44,0,0,1-1.72,2,3.49,3.49,0,0,1-1.57.38,3.64,3.64,0,0,1-1.08-.17l-38.4-12.48a3.44,3.44,0,0,1-2-1.72,3.47,3.47,0,0,1,4.16-4.88l38.41,12.48a3.46,3.46,0,0,1,2,1.72A3.4,3.4,0,0,1,396.54,260.18Z" style="fill:#005596"/><path d="M375.51,301.21a3.46,3.46,0,0,1-4.85.76L338,278.24a3.47,3.47,0,0,1,4.08-5.61l32.67,23.73A3.48,3.48,0,0,1,375.51,301.21Z" style="fill:#005596"/><path d="M176,275.37a3.46,3.46,0,0,1-1.39,2.26l-32.66,23.74a3.47,3.47,0,0,1-4.08-5.62L170.5,272a3.46,3.46,0,0,1,2.59-.62,3.42,3.42,0,0,1,2.26,1.39A3.48,3.48,0,0,1,176,275.37Z" style="fill:#005596"/><path d="M161,247.49a3.41,3.41,0,0,1-2,1.72l-38.4,12.48a3.37,3.37,0,0,1-1.07.17,3.48,3.48,0,0,1-3.31-2.4,3.56,3.56,0,0,1-.17-1.06,3.49,3.49,0,0,1,2.4-3.31l38.4-12.47a3.47,3.47,0,0,1,4.37,2.22A3.44,3.44,0,0,1,161,247.49Z" style="fill:#005596"/><path d="M156.46,213.91a3.47,3.47,0,0,1-3.46,3.47H112.62a3.47,3.47,0,1,1,0-6.94H153A3.47,3.47,0,0,1,156.46,213.91Z" style="fill:#005596"/><path d="M161.48,183a3.47,3.47,0,0,1-3.3,2.4,3.57,3.57,0,0,1-1.07-.17L118.7,172.76a3.47,3.47,0,0,1-.5-6.39,3.49,3.49,0,0,1,2.65-.21l38.4,12.48A3.47,3.47,0,0,1,161.48,183Z" style="fill:#005596"/><path d="M175.79,155.18A3.46,3.46,0,0,1,173,156.6a3.4,3.4,0,0,1-2-.66l-32.67-23.73a3.46,3.46,0,0,1-.77-4.84,3.44,3.44,0,0,1,2.27-1.39,3.4,3.4,0,0,1,2.58.62L175,150.33A3.48,3.48,0,0,1,175.79,155.18Z" style="fill:#005596"/><path d="M199.4,130.86a3.47,3.47,0,0,1-6.24,1.5L169.43,99.69A3.47,3.47,0,0,1,175,95.61l23.74,32.67A3.49,3.49,0,0,1,199.4,130.86Z" style="fill:#005596"/><path d="M228,117.3a3.48,3.48,0,0,1-2,1.72,3.57,3.57,0,0,1-1.07.17,3.49,3.49,0,0,1-3.3-2.4L209.1,78.39A3.47,3.47,0,0,1,211.33,74a3.57,3.57,0,0,1,1.07-.17,3.47,3.47,0,0,1,3.3,2.4l12.48,38.4A3.44,3.44,0,0,1,228,117.3Z" style="fill:#005596"/><path d="M260.36,70.39v40.38a3.47,3.47,0,0,1-6.94,0V70.39a3.47,3.47,0,0,1,6.94,0Z" style="fill:#005596"/><rect x="232.72" y="344.3" width="48.44" height="5.77" rx="2.88" style="fill:#fff"/><rect x="232.72" y="354.12" width="48.44" height="5.77" rx="2.88" style="fill:#fff"/><path d="M281.17,366.82a2.89,2.89,0,0,1-2.88,2.88H235.6a2.88,2.88,0,1,1,0-5.76h42.69A2.89,2.89,0,0,1,281.17,366.82Z" style="fill:#fff"/><path d="M264.73,374.35a7.79,7.79,0,0,1-15.58,0,2.32,2.32,0,0,1,0-.6h15.48A2.32,2.32,0,0,1,264.73,374.35Z" style="fill:#fff"/><path d="M312.76,267.36c-15.95,16.26-25.88,37.5-29.52,60h0a2.54,2.54,0,0,1-2.51,2.15H233.15a2.54,2.54,0,0,1-2.51-2.13l-.28-1.64c-3.64-22.45-14.56-42.85-30.2-59.38a78.18,78.18,0,0,1,61.89-131.72c38.24,2.44,69.6,33.11,72.76,71.3A78.06,78.06,0,0,1,312.76,267.36Z" style="fill:#005596"/><path d="M251.5,285.27l-.1,0,.25-.07Zm-1,.34.16-.08-.32.14A1,1,0,0,1,250.53,285.61Z" style="fill:#fff"/><path d="M262.37,285.27a8.58,8.58,0,0,1,1.87.78v0A6.69,6.69,0,0,0,262.37,285.27Zm-3.63-.29h1.52a7.93,7.93,0,0,1,2.09.28,7.57,7.57,0,0,0-2.08-.29Zm-5.15,0a6.39,6.39,0,0,0-1.06.08,7.59,7.59,0,0,1,1.07-.07h0Zm-4,1.07c.22-.13.44-.24.67-.35a6.08,6.08,0,0,0-.68.33Z" style="fill:#fff"/><path d="M303,199.64c-5.94-2.34-12.82,2.33-15.58,10.22-.24.71-6.83,18.21-6.83,18.21a43.75,43.75,0,0,1-19.54-8.21c4.57-4,7.6-8.38,7.52-15.16.25-7.57-4.89-15.53-11.5-15.29-6.61-.22-11.72,7.67-11.5,15.29-.1,6.76,3,11.4,7.79,15.21a43.37,43.37,0,0,1-20,8.53s-6.73-17.6-6.93-18.16a17.78,17.78,0,0,0-6.12-8.6c-7.42-5.58-16.12.07-16,9.19.12,13.44,11.28,23.32,25.11,22.8l18.36,47.78A12.86,12.86,0,0,0,240.68,293V329.5h4.9V293a8,8,0,0,1,4-7,6.08,6.08,0,0,1,.68-.33l.08,0,.32-.14.33-.12a2.72,2.72,0,0,1,.38-.11l.25-.07a6.51,6.51,0,0,1,.88-.17,6.39,6.39,0,0,1,1.06-.08h6.68a7.57,7.57,0,0,1,2.08.29h0a6.69,6.69,0,0,1,1.88.76,8.05,8.05,0,0,1,4,7V329.5h4.89V293A12.85,12.85,0,0,0,266,281.44l18.53-48.23c11.36.27,21.58-6.17,24.21-17C310.69,210.2,309,201.63,303,199.64Zm-81.56,27.94a17.49,17.49,0,0,1-12.1-15.16c-.32-3.74,1-7,3.4-7.84a5.37,5.37,0,0,1,4.71,1.08,12.83,12.83,0,0,1,4.38,6.22c.22.63,5.73,16.81,5.73,16.81A21.94,21.94,0,0,1,221.46,227.58Zm29.22-22.88c0-13.49,12.83-13.47,12.83,0,0,6.64-6.42,11.35-6.42,11.35S250.68,211.38,250.68,204.7Zm10,75.38a1.63,1.63,0,0,0-.37,0h-6.68a1.42,1.42,0,0,0-.34,0l-18-46.92a49.87,49.87,0,0,0,22-10,48.68,48.68,0,0,0,21.6,9.56ZM304.57,212a9,9,0,0,1-.14,1.15c-1.23,8.85-9.24,15-18,15.14,0,0,5.38-16,5.65-16.83C295.28,202,305.31,201,304.57,212Z" style="fill:#fff"/></svg>