<svg id="icon" xmlns="http://www.w3.org/2000/svg" viewBox="0 0 512 512"><path d="M256,487.17A231.17,231.17,0,0,1,92.54,92.54,231.17,231.17,0,1,1,419.46,419.46,229.66,229.66,0,0,1,256,487.17Z" style="fill:#fff"/><path d="M256,28.33a227.74,227.74,0,0,1,88.62,437.45A227.73,227.73,0,0,1,167.38,46.22,226.27,226.27,0,0,1,256,28.33m0-7C126.4,21.33,21.33,126.4,21.33,256S126.4,490.67,256,490.67,490.67,385.6,490.67,256,385.6,21.33,256,21.33Z" style="fill:#005596"/><path d="M483.66,256a227.95,227.95,0,0,1-139,209.78q-9,3.81-18.2,6.8l-2.56.82-2.62.8a226.2,226.2,0,0,1-49.37,8.93c-1,.07-2.09.14-3.13.19l-3.18.15c-3.17.13-6.36.2-9.55.2q-11.5,0-22.84-1.13c-.83-.08-1.66-.16-2.49-.26s-1.67-.18-2.5-.29a226.8,226.8,0,0,1-122-54.53l-2.13-1.89c-.71-.64-1.42-1.28-2.12-1.94Q98.42,420.39,95,417q-4.85-4.85-9.36-9.92c-.87-1-1.74-2-2.6-3s-1.67-2-2.49-2.95a227.11,227.11,0,0,1-46.85-95.65c-.23-1-.45-2-.65-3s-.42-2.05-.62-3.08A227.71,227.71,0,1,1,483.66,256Z" style="fill:#fff"/><path d="M322.84,472.26l-19.47-26.71-50.43-61.87-4.26-4.43a37,37,0,0,0-22.22-10.81l-23.1-2.65c2.51-.75,5-1.65,7.46-2.63a72.72,72.72,0,0,0,28.92-22.08c.25-.39.57-.67.8-1.05a0,0,0,0,0,0,0A70.71,70.71,0,0,0,254,308.68h0c.17-1,.33-2.08.45-3.13h0c.24-1.88.39-3.78.48-5.68l0-.87a70.29,70.29,0,0,0-4.56-27.63h0c-.52-1.37-1.09-2.73-1.71-4.07-.15-.34-.31-.67-.47-1,0,0,0,0,0,0a72.17,72.17,0,0,0-10.35-16.05C202.06,207.86,135,220.68,115.7,271.25a23.7,23.7,0,0,0-8.06-16.6,24,24,0,0,0-33.78,2.1L30.2,305.09c.2,1,.42,2,.65,3,3,13.36,7.33,24.57,12.7,37.29A219.08,219.08,0,0,0,77.39,401c.82,1,1.65,2,2.49,3l17.7,2.53,4.38.74,2.6,16.2s-1.46,3.6-1.78,5c.71.63,2.59,2.24,3.3,2.87,18.25,16,37.7,26.85,60.11,36.33,19.51,8.25,40.72,15.08,61.65,17.61.83.11,2-.31,2.87-.22.13-23.31.09-47.09.09-47.09l9.75,12.89,30.16,34.93c1-.05,2.09-.12,3.13-.19a226.2,226.2,0,0,0,49.37-8.93l2.62-.8C325.51,475.43,323.19,472.63,322.84,472.26Zm-266.35-124,53.23-59.79a23.57,23.57,0,0,0,2.22-2.91,72.78,72.78,0,0,0,0,22.63s0,0,0,0a72.56,72.56,0,0,0,29.07,47c2.12,1.52,4.35,2.92,6.61,4.22l-23.07-2.65a31,31,0,0,0-3.58-.22h-.07l-19.45-2.17Z" style="fill:#fff;stroke:#005596;stroke-linecap:round;stroke-miterlimit:10;stroke-width:7px"/><path d="M348.26,103.24l7.43,163.13h47.68l7.44-163.13Zm31.28,197a33.71,33.71,0,1,0,33.88,33.52A33.61,33.61,0,0,0,379.54,300.25Z" style="fill:#fff;stroke:#005596;stroke-linecap:round;stroke-linejoin:round;stroke-width:7px"/><path d="M344.31,304.28l-6.55-6.85,8.27-7.88,6.62,6.92a46.45,46.45,0,0,1,15.72-7.39l-1.26-9.37,11.33-1.53,1.28,9.49A45.31,45.31,0,0,1,396.78,291l4.5-8.35L411.34,288l-4.55,8.44a45.42,45.42,0,0,1,11.88,12.68l8.54-4.1,5,10.29-8.63,4.15a46.25,46.25,0,0,1,2.16,17.25l9.32,1.69L433,349.68,423.53,348a46.89,46.89,0,0,1-3.27,7.62,45.33,45.33,0,0,1-5.12,7.6l6.55,6.85-8.27,7.9L406.8,371a46.61,46.61,0,0,1-15.72,7.38l1.26,9.38L381,389.29l-1.28-9.49a45.45,45.45,0,0,1-17.05-3.29l-4.5,8.35-10.07-5.43,4.54-8.44a45.63,45.63,0,0,1-11.87-12.67l-8.54,4.11-4.95-10.31,8.63-4.14a46.25,46.25,0,0,1-2.16-17.24l-9.31-1.7,2-11.26,9.43,1.72a45.88,45.88,0,0,1,3.26-7.61A46.5,46.5,0,0,1,344.31,304.28Z" style="fill:#fff;stroke:#005596;stroke-miterlimit:10;stroke-width:7px"/><path d="M395.51,307.47a30.65,30.65,0,1,0,10.47,42A30.49,30.49,0,0,0,395.51,307.47Zm5.14,21a21.57,21.57,0,1,0-2.45,16.33A21.44,21.44,0,0,0,400.65,328.52Zm0,0a21.57,21.57,0,1,0-2.45,16.33A21.44,21.44,0,0,0,400.65,328.52Z" style="fill:#fff;stroke:#005596;stroke-miterlimit:10;stroke-width:5px"/><path d="M159.67,311.53l-5.5,5.31-6.39-6.65,5.57-5.36a37.29,37.29,0,0,1-6-12.66l-7.56,1.05-1.27-9.13,7.65-1.07a36.5,36.5,0,0,1,2.6-13.78l-6.75-3.6,4.34-8.14,6.82,3.65a36.51,36.51,0,0,1,10.19-9.62L160,244.65l8.29-4,3.37,6.95a37.52,37.52,0,0,1,13.91-1.79l1.34-7.53,9.08,1.62-1.36,7.61a37.06,37.06,0,0,1,6.16,2.61,36,36,0,0,1,6.15,4.11l5.5-5.31,6.41,6.64-5.57,5.37a37.53,37.53,0,0,1,6,12.66l7.57-1.05,1.27,9.13-7.66,1.07a36.44,36.44,0,0,1-2.59,13.77l6.75,3.6-4.34,8.14-6.83-3.64a36.62,36.62,0,0,1-10.18,9.62l3.34,6.88-8.29,4-3.38-7a37.5,37.5,0,0,1-13.9,1.8l-1.34,7.52-9.09-1.61,1.36-7.61a37.71,37.71,0,0,1-12.31-6.72Z" style="fill:#fff;stroke:#005596;stroke-miterlimit:10;stroke-width:4px"/><path id="_" data-name="?" d="M184.92,257.58A20.82,20.82,0,0,0,168,264.91l7.13,5.74c2.64-2.88,5.54-4.25,8.48-4.21,3.15.07,5,1.62,4.93,4.2-.12,5.88-11.5,4.8-11.76,17.2l0,2.22,10.31.21,0-1.79c.17-8,13.06-7,13.29-18.6C200.52,263.5,195.4,257.8,184.92,257.58Zm-3,39.11a6.5,6.5,0,1,0,6.31,6.6A6.47,6.47,0,0,0,181.91,296.69Z" style="fill:#fff;stroke:#005596;stroke-miterlimit:10;stroke-width:4px"/><path d="M318.22,285a35.07,35.07,0,0,0-.85-13.41l6.87-2.8-3.34-8.18-6.79,2.77A35,35,0,0,0,305.55,253l3.9-6.3L301.94,242l-3.86,6.22a35.82,35.82,0,0,0-13-3.33l-.54-7.38-8.82.63.54,7.31a36.39,36.39,0,0,0-6.8,2,35.89,35.89,0,0,0-5.69,2.93L259,244.75l-6.76,5.71,4.72,5.59a36,36,0,0,0-7.19,11.35l-7.19-1.77-2.12,8.59,7.13,1.75a35.2,35.2,0,0,0,.84,13.4l-6.86,2.8,3.34,8.2,6.79-2.77A35.1,35.1,0,0,0,260.23,308l-3.91,6.29,7.51,4.67,3.86-6.22a36,36,0,0,0,13,3.33l.55,7.39,8.82-.65-.54-7.3a35.45,35.45,0,0,0,6.8-2,36.06,36.06,0,0,0,5.7-2.94l4.78,5.67,6.76-5.71-4.74-5.59A36.06,36.06,0,0,0,316,293.51l7.19,1.77,2.1-8.58Zm-25,20.83q-1.27.51-2.55.9t-2.58.63a27.62,27.62,0,0,1-5.18.5,27.3,27.3,0,0,1-8.85-1.48c-.63-.21-1.25-.45-1.86-.71a27.14,27.14,0,0,1-4.38-2.35c-.56-.37-1.1-.75-1.63-1.16a26.91,26.91,0,0,1-3-2.68c-.47-.49-.92-1-1.36-1.52s-.85-1.06-1.24-1.62a27.33,27.33,0,0,1,31.14-41.7c.62.21,1.24.45,1.85.71a27.2,27.2,0,0,1,9.7,6.94c.45.5.89,1,1.3,1.57a27.35,27.35,0,0,1-11.37,42Z" style="fill:#fff;stroke:#005596;stroke-miterlimit:10;stroke-width:4px"/><path d="M282.9,295.09a14.64,14.64,0,1,1,5.51-1.09A14.59,14.59,0,0,1,282.9,295.09Z" style="fill:#fff"/><path d="M282.88,267.53a12.93,12.93,0,0,1,4.88,24.9,12.76,12.76,0,0,1-4.86,1,12.93,12.93,0,0,1,0-25.86m0-3.39a16.32,16.32,0,0,0,0,32.64A16.33,16.33,0,0,0,298,274.31a16.26,16.26,0,0,0-15.12-10.17Z" style="fill:#005596"/><path d="M291.27,165.09,301.84,163l-2.49-12.61-10.45,2.07a51.18,51.18,0,0,0-9.35-17.15l7.32-7.9-9.43-8.73-7.23,7.8a52.07,52.07,0,0,0-17.65-8.36l1.28-10.69-12.76-1.54-1.26,10.58a52.3,52.3,0,0,0-19.2,3.6l-5.24-9.41-11.23,6.28,5.19,9.29a52.06,52.06,0,0,0-13.41,14.2l-9.77-4.53-5.4,11.66,9.68,4.48a51.17,51.17,0,0,0-2.51,19.36l-10.57,2.09,2.49,12.61L190.31,184a51,51,0,0,0,9.34,17.14l-7.32,7.89,9.42,8.74L209,210a52.5,52.5,0,0,0,17.64,8.36l-1.28,10.69,12.77,1.53L239.37,220a52.2,52.2,0,0,0,10.26-1,53.34,53.34,0,0,0,8.94-2.62l5.25,9.41,11.23-6.26-5.2-9.3a52.09,52.09,0,0,0,13.42-14.2l9.77,4.52,5.39-11.66-9.67-4.48A51.14,51.14,0,0,0,291.27,165.09Zm-44,42.14a39.74,39.74,0,1,1,31.28-46.69A39.74,39.74,0,0,1,247.3,207.23Z" style="fill:#fff;stroke:#005596;stroke-miterlimit:10;stroke-width:4px"/><path d="M239.57,193.5a25.27,25.27,0,1,1,4.92-.48A25.3,25.3,0,0,1,239.57,193.5Z" style="fill:#fff"/><path d="M239.63,141v4h0a23.34,23.34,0,1,1-4.54.45,23.29,23.29,0,0,1,4.54-.45v-4m0,0a27.26,27.26,0,1,0,26.71,22,27.53,27.53,0,0,0-26.71-22Z" style="fill:#005596"/></svg>