<svg id="icon" xmlns="http://www.w3.org/2000/svg" viewBox="0 0 512 512"><path d="M490.67,256q0,4-.13,7.95l-.25,5.34A234.9,234.9,0,0,1,386.58,451q-4.31,2.91-8.75,5.6c-.78.49-1.56,1-2.34,1.42s-1.62,1-2.44,1.42c-1.81,1.05-3.65,2.07-5.48,3.07q-6.88,3.72-14,7c-2.89,1.32-5.79,2.58-8.73,3.78q-3.24,1.34-6.52,2.56c-2.39.89-4.78,1.74-7.19,2.56-.55.19-1.09.37-1.64.54l-1.13.37c-.29.1-.59.2-.88.28-.78.26-1.57.5-2.35.75h0c-1.41.44-2.84.86-4.27,1.26q-5.71,1.67-11.55,3-3.09.74-6.21,1.35h0l-1.48.31c-.24.05-.48.08-.73.14-.85.17-1.71.33-2.57.47-.45.09-.89.17-1.34.24-1.56.29-3.12.54-4.69.78-4.21.65-8.43,1.2-12.71,1.62-1.9.19-3.82.35-5.75.51-4.56.33-9.15.55-13.78.62l-2.73,0H256q-9.33,0-18.49-.72-3.69-.29-7.35-.69c-3-.32-6-.71-8.92-1.16-2-.28-4-.61-6-1h0a232,232,0,0,1-27-6.41l-3.78-1.17-3.94-1.3c-2.22-.75-4.43-1.54-6.61-2.36-3.88-1.45-7.73-3-11.51-4.66-.74-.31-1.45-.64-2.18-.95l-3.38-1.55-2.63-1.25q-6.22-3-12.24-6.35c-1.41-.8-2.81-1.59-4.21-2.43-.8-.45-1.6-.93-2.39-1.41l-.8-.48q-4.09-2.44-8-5.08-3.34-2.22-6.62-4.55c-1.82-1.3-3.61-2.62-5.39-4Q108.06,438.35,102,433c-.87-.74-1.74-1.51-2.6-2.28-.68-.6-1.33-1.2-2-1.8l-1.08-1-1.89-1.77c-2.19-2.09-4.35-4.2-6.44-6.36-1.73-1.78-3.44-3.58-5.12-5.42h0c-.5-.55-1-1.09-1.49-1.64Q77,407.89,73,402.81c-1.95-2.4-3.83-4.85-5.67-7.33q-4.29-5.81-8.23-11.87c-1.12-1.71-2.21-3.45-3.29-5.2-1.28-2.1-2.54-4.2-3.75-6.34h0l0-.07c-1.63-2.86-3.21-5.76-4.71-8.7-.25-.46-.48-.93-.71-1.38s-.46-.9-.67-1.36A232.73,232.73,0,0,1,27.3,308.73q-1.66-7.22-2.87-14.59a224.75,224.75,0,0,1-2.56-22.47,5.09,5.09,0,0,1,0-.56c-.2-3-.34-6.08-.4-9.14q-.11-3-.1-6a234.07,234.07,0,0,1,13.23-77.83c.13-.4.27-.81.42-1.19q2.63-7.35,5.71-14.43c.45-1,.91-2.06,1.37-3.09A234.7,234.7,0,0,1,402.58,72.75l1,.81a235.6,235.6,0,0,1,35.86,36.13c1,1.19,1.9,2.39,2.81,3.59.71.9,1.38,1.8,2.06,2.72,1.57,2.08,3.09,4.2,4.57,6.33A233.52,233.52,0,0,1,466,151.24c.73,1.43,1.44,2.86,2.12,4.32.34.7.66,1.4,1,2.1.47,1,.94,2.05,1.39,3.08,1.16,2.59,2.27,5.23,3.33,7.87.73,1.83,1.45,3.67,2.13,5.5q2.1,5.59,3.89,11.33c1.45,4.61,2.77,9.28,3.93,14,.32,1.27.62,2.54.91,3.82s.65,2.83.94,4.27q.87,4.07,1.56,8.19,1.73,9.81,2.58,19.9C490.37,242.33,490.67,249.14,490.67,256Z" style="fill:#005596"/><path d="M327.45,479.58c-.78.26-1.57.5-2.35.75h0c-1.41.44-2.84.86-4.27,1.26q-5.71,1.67-11.55,3-3.09.74-6.21,1.35h0l-1.48.31c-.24.05-.48.08-.73.14-.85.17-1.71.33-2.57.47-.45.09-.89.17-1.34.24-1.56.29-3.12.54-4.69.78-4.21.65-8.43,1.2-12.71,1.62-1.9.19-3.82.35-5.75.51L240.1,451.15l-9.75-12.89s0,25.21-.18,51c-3-.32-6-.71-8.92-1.16-2-.28-4-.61-6-1h0a232,232,0,0,1-27-6.41l-3.78-1.17-3.94-1.3c-2.22-.75-4.43-1.54-6.61-2.36-3.88-1.45-7.73-3-11.51-4.66-.74-.31-1.45-.64-2.18-.95l-3.38-1.55-2.63-1.25q-6.22-3-12.24-6.35c-1.41-.8-2.81-1.59-4.21-2.43-.8-.45-1.6-.93-2.39-1.41l-.8-.48q-4.09-2.44-8-5.08-3.34-2.22-6.62-4.55c-1.82-1.3-3.61-2.62-5.39-4Q108.06,438.35,102,433c1.31-5.73,2.12-9.24,2.12-9.24l-2.6-16.21-6.68-41.64,5.1-3.43,0,.08a37,37,0,0,1,20.47-5.74h.07a33.39,33.39,0,0,1,3.58.22l23.07,2.66a77.08,77.08,0,0,1-6.61-4.22,72.56,72.56,0,0,1-29.07-47s0,0,0,0a73.24,73.24,0,0,1,2.44-33.17c.41-1.26.85-2.51,1.31-3.75,19.3-50.56,86.36-63.38,122.15-21.07a72.3,72.3,0,0,1,10.35,16.05s0,0,0,0c.16.34.31.67.47,1A71.2,71.2,0,0,1,253.55,309h0a70.78,70.78,0,0,1-13.44,31.32s0,0,0,0c-.22.39-.54.67-.79,1.06a72.72,72.72,0,0,1-28.92,22.08c-2.41,1-5,1.88-7.47,2.63L226,368.78a37.05,37.05,0,0,1,22.22,10.8l.06-.06,4.2,4.5,50.43,61.87,19.47,26.7A35.58,35.58,0,0,1,327.45,479.58Z" style="fill:#fff"/><path d="M166.08,407.28a37.08,37.08,0,0,1-23.87,6.6V414l-6.13-.59-34.57-5.8-4.38-.74-24.17-4c-1.95-2.4-3.83-4.85-5.67-7.33q-4.29-5.81-8.23-11.87c-1.12-1.71-2.21-3.45-3.29-5.2-1.28-2.1-2.54-4.2-3.75-6.34h0l0-.07c-1.63-2.86-3.21-5.76-4.71-8.7-.25-.46-.48-.93-.71-1.38s-.46-.9-.67-1.36A232.73,232.73,0,0,1,27.3,308.73l46.1-51.65A24,24,0,0,1,107.19,255a23.87,23.87,0,0,1,2.08,33.79L56,348.57l45,6.12,19.45,2.16h.07l24.27,2.72Z" style="fill:#fff"/><path d="M160.11,311.53l-5.5,5.31-6.39-6.65,5.57-5.36a37.48,37.48,0,0,1-6-12.66l-7.56,1.05-1.27-9.13,7.65-1.07a36.5,36.5,0,0,1,2.6-13.78l-6.75-3.6,4.34-8.14,6.82,3.65a36.51,36.51,0,0,1,10.19-9.62l-3.34-6.88,8.29-4,3.37,6.95A37.52,37.52,0,0,1,186,245.77l1.34-7.53,9.08,1.62-1.36,7.61a37.51,37.51,0,0,1,6.17,2.61,36.33,36.33,0,0,1,6.14,4.11l5.5-5.31,6.41,6.64-5.57,5.37a37.55,37.55,0,0,1,6,12.66l7.56-1.05,1.27,9.13-7.65,1.07a36.64,36.64,0,0,1-2.6,13.77l6.75,3.6-4.34,8.14-6.82-3.64a36.66,36.66,0,0,1-10.19,9.62l3.35,6.88-8.3,4-3.38-7a37.48,37.48,0,0,1-13.9,1.8l-1.34,7.52-9.08-1.61,1.35-7.61a38.58,38.58,0,0,1-6.15-2.61A37.53,37.53,0,0,1,160.11,311.53Z" style="fill:#005596"/><path id="_" data-name="?" d="M185.36,257.58a20.84,20.84,0,0,0-16.93,7.33l7.14,5.74c2.63-2.88,5.53-4.25,8.47-4.21,3.15.07,5,1.62,4.93,4.2-.12,5.88-11.5,4.8-11.76,17.2l0,2.22,10.31.21,0-1.79c.17-8,13.06-7,13.3-18.6C201,263.5,195.84,257.8,185.36,257.58Zm-3,39.11a6.5,6.5,0,1,0,6.31,6.6A6.47,6.47,0,0,0,182.35,296.69Z" style="fill:#c1d82f"/><path d="M282.29,314.86l-1.07-.06a34.7,34.7,0,0,1-12.57-3.22l-1-.46-3.79,6.1-5.43-3.37,3.82-6.16-.83-.68a34.14,34.14,0,0,1-8.26-10l-.52-1L246,298.77l-2.42-5.93,6.73-2.74-.27-1a33.81,33.81,0,0,1-.82-12.94l.14-1.09-7-1.72,1.53-6.21,7,1.74.4-1a34.48,34.48,0,0,1,6.95-11l.74-.79-4.63-5.49,4.88-4.14,4.68,5.55.9-.57a34.72,34.72,0,0,1,12.07-4.79l1.07-.2-.53-7.17,6.38-.46.53,7.23,1.07.07A34.38,34.38,0,0,1,298,249.34l1,.46,3.78-6.1,5.44,3.37-3.82,6.17.82.68a33.77,33.77,0,0,1,8.27,10l.52,1,6.67-2.71,2.42,5.92-6.73,2.74.27,1a33.82,33.82,0,0,1,.82,12.94l-.14,1.09,7,1.72-1.53,6.21-7-1.74-.39,1a34.46,34.46,0,0,1-7,11l-.74.8,4.64,5.49-4.89,4.13-4.68-5.55-.9.57a34.77,34.77,0,0,1-12.06,4.79l-1.08.2.53,7.18-6.38.46Z" style="fill:#c1d82f"/><path d="M282.7,240.14l.36,4.94.16,2.14,2.13.13a33.24,33.24,0,0,1,12.13,3.1l2,.92,1.15-1.85,2.57-4.14,3.36,2.09-2.62,4.21-1.13,1.82,1.66,1.36a32.81,32.81,0,0,1,8,9.64l1,1.92,2-.83,4.52-1.84,1.49,3.66-4.6,1.87-2,.81.54,2.07a32.82,32.82,0,0,1,.79,12.48L316,286.8l2.12.52,4.75,1.17-.94,3.84-4.82-1.19-2.07-.51-.79,2a33.16,33.16,0,0,1-6.71,10.58L306,304.78l1.41,1.67,3.15,3.73-3,2.54-3.2-3.79L303,307.3l-1.8,1.14a33.77,33.77,0,0,1-11.64,4.62l-2.15.4.16,2.18.36,4.87-3.94.28-.37-5-.15-2.13-2.13-.13a33.31,33.31,0,0,1-12.13-3.11l-2-.92-1.14,1.85-2.58,4.14-3.35-2.08,2.62-4.22,1.12-1.82-1.65-1.36a32.46,32.46,0,0,1-8-9.63l-1-1.92-2,.83-4.52,1.84-1.5-3.66,4.61-1.88,2-.81-.54-2.07a32.58,32.58,0,0,1-.79-12.47l.28-2.17-2.12-.52-4.75-1.17.95-3.84,4.81,1.19,2.08.51.78-2a33.33,33.33,0,0,1,6.71-10.58l1.48-1.59-1.4-1.66-3.14-3.73,3-2.55,3.2,3.79,1.38,1.64,1.8-1.15a34.11,34.11,0,0,1,5.3-2.74,34.62,34.62,0,0,1,6.35-1.88l2.13-.41-.16-2.17-.36-4.86,3.94-.28m2.26-2.62-8.81.63.53,7.31a36.39,36.39,0,0,0-6.8,2,35.11,35.11,0,0,0-5.69,2.94l-4.78-5.67-6.76,5.71,4.72,5.6a35.85,35.85,0,0,0-7.19,11.35L243,265.63l-2.12,8.59L248,276a35.26,35.26,0,0,0,.84,13.41L242,292.17l3.34,8.2,6.79-2.77A35,35,0,0,0,260.67,308l-3.91,6.29,7.51,4.67,3.87-6.22a35.92,35.92,0,0,0,13,3.33l.54,7.39,8.82-.64-.54-7.31a34.75,34.75,0,0,0,6.8-2,36.06,36.06,0,0,0,5.7-2.94l4.78,5.67,6.76-5.7-4.74-5.6a35.77,35.77,0,0,0,7.21-11.36l7.19,1.78,2.11-8.58L318.66,285a35,35,0,0,0-.85-13.4l6.87-2.8-3.34-8.19-6.79,2.77A35,35,0,0,0,306,253l3.9-6.29L302.38,242l-3.86,6.21a35.81,35.81,0,0,0-13-3.32l-.54-7.39Z" style="fill:#005596"/><path d="M283.34,303.76a23.31,23.31,0,1,1,8.78-1.73A23.2,23.2,0,0,1,283.34,303.76Z" style="fill:#c1d82f"/><path d="M283.32,261.21a19.26,19.26,0,1,1-7.25,1.43,19.19,19.19,0,0,1,7.25-1.43h0m0-8.1a27.35,27.35,0,1,0,25.33,17,27.2,27.2,0,0,0-25.33-17Z" style="fill:#005596"/><path d="M240.27,116.47l1.25-10.58,12.76,1.54L253,118.12a52.07,52.07,0,0,1,17.65,8.36l7.23-7.8,9.43,8.73-7.32,7.9a51.18,51.18,0,0,1,9.35,17.15l10.45-2.07L302.28,163l-10.57,2.09a50.94,50.94,0,0,1-2.51,19.35l9.67,4.48-5.39,11.66-9.77-4.52a52.09,52.09,0,0,1-13.42,14.2l5.2,9.3-11.23,6.26L259,216.41a53.73,53.73,0,0,1-8.95,2.62,52.1,52.1,0,0,1-10.25,1l-1.26,10.57-12.77-1.53,1.28-10.69A52.59,52.59,0,0,1,209.43,210l-7.24,7.8-9.41-8.74,7.31-7.89A51,51,0,0,1,190.75,184l-10.46,2.06-2.49-12.61,10.57-2.09A51.17,51.17,0,0,1,190.88,152l-9.68-4.48,5.4-11.66,9.77,4.53a52.21,52.21,0,0,1,13.41-14.2l-5.18-9.29,11.22-6.28,5.25,9.41a52.19,52.19,0,0,1,19.2-3.6Z" style="fill:#c1d82f"/><path d="M240,202.1a33.89,33.89,0,1,1,6.6-.65A33.92,33.92,0,0,1,240,202.1Z" style="fill:#c1d82f"/><path d="M240.09,128.5v11.77a28.07,28.07,0,1,1-5.47.54,28,28,0,0,1,5.47-.54V128.5m0,0A39.75,39.75,0,0,0,240,208a40.2,40.2,0,0,0,7.74-.76,39.74,39.74,0,0,0-7.66-78.73Z" style="fill:#005596"/><path d="M379,300.18a33.71,33.71,0,1,0,33.88,33.52A33.61,33.61,0,0,0,379,300.18Zm-31.28-197,7.43,163.13h47.68l7.44-163.13Z" style="fill:#fff"/><path d="M379,300.18a33.71,33.71,0,1,0,33.88,33.52A33.61,33.61,0,0,0,379,300.18Z" style="fill:#005596"/><path d="M343.73,304.21l-6.54-6.85,8.27-7.88,6.61,6.92A46.59,46.59,0,0,1,367.8,289l-1.27-9.37,11.33-1.53,1.29,9.49a45.49,45.49,0,0,1,17.06,3.28l4.5-8.34L410.77,288l-4.55,8.44a45.53,45.53,0,0,1,11.87,12.68l8.54-4.11,5,10.3L423,319.42a46.45,46.45,0,0,1,2.15,17.25l9.33,1.69-2.05,11.25L423,347.89a46.89,46.89,0,0,1-3.27,7.62,45.94,45.94,0,0,1-5.12,7.6l6.55,6.85-8.27,7.9-6.63-6.93a46.52,46.52,0,0,1-15.72,7.38l1.26,9.38-11.32,1.52-1.28-9.49a45.49,45.49,0,0,1-17.06-3.28l-4.49,8.35-10.08-5.43,4.55-8.44a45.53,45.53,0,0,1-11.87-12.68l-8.55,4.12-5-10.31,8.64-4.15a46.43,46.43,0,0,1-2.17-17.24l-9.3-1.69,2-11.26,9.43,1.72a45.88,45.88,0,0,1,3.26-7.61A46.66,46.66,0,0,1,343.73,304.21Z" style="fill:#fff"/><path d="M379.12,359.77a26.11,26.11,0,1,1,22.4-12.66A26.12,26.12,0,0,1,379.12,359.77Z" style="fill:#c1d82f"/><path d="M379.18,312.09h0a21.57,21.57,0,1,1-18.51,10.45,21.55,21.55,0,0,1,18.51-10.45m0-9.08a30.65,30.65,0,1,0,15.76,4.39A30.63,30.63,0,0,0,379.18,303Z" style="fill:#005596"/></svg>