<svg id="icon" xmlns="http://www.w3.org/2000/svg" viewBox="0 0 512 512"><path d="M256,487.17A231.17,231.17,0,0,1,92.54,92.54,231.17,231.17,0,1,1,419.46,419.46,229.66,229.66,0,0,1,256,487.17Z" style="fill:#fff"/><path d="M256,28.33a227.74,227.74,0,0,1,88.62,437.45A227.73,227.73,0,0,1,167.38,46.22,226.27,226.27,0,0,1,256,28.33m0-7C126.4,21.33,21.33,126.4,21.33,256S126.4,490.67,256,490.67,490.67,385.6,490.67,256,385.6,21.33,256,21.33Z" style="fill:#005596"/><path d="M327.45,478.66c-.35-.59-.72-1.17-1.1-1.74a36.59,36.59,0,0,0-3.39-4.26L303.49,446l-50.43-61.87-4.2-4.5-.06.06a37.05,37.05,0,0,0-22.22-10.8l-23.11-2.66.16-.05-.19,0c2.51-.75,5.05-1.64,7.46-2.62a72.72,72.72,0,0,0,28.92-22.08c.25-.39.57-.67.8-1.06a0,0,0,0,0,0,0,70.62,70.62,0,0,0,13.42-31.21s0-.07,0-.11h0a71.17,71.17,0,0,0-5.27-41.33l0-.08c-.15-.33-.31-.66-.47-1,0,0,0,0,0,0-.67-1.41-1.38-2.81-2.15-4.19-.38-.69-.78-1.39-1.19-2.07a.16.16,0,0,0,0-.07q-.77-1.29-1.59-2.55a71.55,71.55,0,0,0-5.34-7.1c-35.79-42.31-102.85-29.49-122.15,21.07,0,0,0-.09,0-.14a23.7,23.7,0,0,0-8-16.45A24,24,0,0,0,74,257.15L27.87,308.8a232.73,232.73,0,0,0,18.59,51.82c.21.46.44.91.67,1.36s.46.92.71,1.38c1.5,2.94,3.08,5.83,4.71,8.7l0,.07h0c1.21,2.14,2.47,4.24,3.75,6.34,1.08,1.75,2.17,3.49,3.29,5.2q3.93,6.07,8.23,11.87c1.84,2.48,3.72,4.93,5.67,7.33l24.17,4,4.35.74h0l2.6,16.21s-.81,3.5-2.11,9.21c4,3.54,8.2,6.91,12.47,10.15q2.67,2,5.4,4c2.17,1.55,4.38,3.07,6.61,4.55q4,2.63,8,5.08l.8.48c.79.48,1.59,1,2.39,1.41,1.4.84,2.8,1.63,4.22,2.43q6,3.35,12.23,6.35l2.64,1.25,3.38,1.55,2.17.95c3.78,1.66,7.63,3.21,11.51,4.66q3.28,1.23,6.61,2.36l3.94,1.3,3.78,1.17a234.57,234.57,0,0,0,27,6.41h0c2,.35,4,.68,6,1,2.95.45,5.93.84,8.92,1.16.18-25.79.18-51,.18-51l9.75,12.89L274.31,490c1.92-.16,3.84-.32,5.75-.51q6.4-.63,12.7-1.63c1.57-.23,3.13-.48,4.69-.77.45-.07.89-.15,1.34-.24.86-.14,1.72-.3,2.58-.47.24-.06.48-.09.72-.14l1.48-.31h0q3.12-.62,6.21-1.35,5.83-1.33,11.55-3c1.43-.4,2.86-.82,4.28-1.26h0c.78-.25,1.57-.49,2.35-.75C327.81,479.27,327.63,479,327.45,478.66ZM124.67,357.15a33.39,33.39,0,0,0-3.58-.22H121l-.69-.08h0l-18.73-2.08-45-6.12,53.23-59.79A23,23,0,0,0,112,286l.06-.09a72.84,72.84,0,0,0,0,22.64s0,0,0,0a70.47,70.47,0,0,0,3.56,13.46c.24.63.48,1.25.73,1.87.44,1.09.91,2.18,1.41,3.25a72.48,72.48,0,0,0,6.09,10.7c1.17,1.71,2.42,3.37,3.72,5,1,1.19,2,2.36,3.06,3.49v0a70,70,0,0,0,10.45,9.16c2.12,1.52,4.35,2.92,6.61,4.22h-.1l.14.08Z" style="fill:#005596"/><path d="M379.55,300.25a33.71,33.71,0,1,0,33.88,33.52A33.61,33.61,0,0,0,379.55,300.25Zm-31.28-197,7.43,163.13h47.68l7.44-163.13Z" style="fill:#005596"/><path d="M344.31,304.28l-6.55-6.85,8.27-7.88,6.62,6.92a46.45,46.45,0,0,1,15.72-7.39l-1.26-9.37,11.33-1.53,1.28,9.49A45.31,45.31,0,0,1,396.78,291l4.5-8.35L411.34,288l-4.55,8.44a45.42,45.42,0,0,1,11.88,12.68l8.54-4.1,5,10.29-8.63,4.15a46.25,46.25,0,0,1,2.16,17.25l9.32,1.69L433,349.68,423.53,348a46.89,46.89,0,0,1-3.27,7.62,45.33,45.33,0,0,1-5.12,7.6l6.55,6.85-8.27,7.9L406.8,371a46.61,46.61,0,0,1-15.72,7.38l1.26,9.38L381,389.29l-1.28-9.49a45.45,45.45,0,0,1-17.05-3.29l-4.5,8.35-10.07-5.43,4.54-8.44a45.63,45.63,0,0,1-11.87-12.67l-8.54,4.11-4.95-10.31,8.63-4.14a46.25,46.25,0,0,1-2.16-17.24l-9.31-1.7,2-11.26,9.43,1.72a45.88,45.88,0,0,1,3.26-7.61A46.5,46.5,0,0,1,344.31,304.28Z" style="fill:#005596"/><path d="M379.75,312.16h0a21.57,21.57,0,1,1-18.51,10.46,21.52,21.52,0,0,1,18.51-10.46m0-9.07a30.63,30.63,0,1,0,15.77,4.38,30.61,30.61,0,0,0-15.77-4.38Z" style="fill:#fff"/><path d="M159.67,311.53l-5.5,5.31-6.39-6.65,5.57-5.36a37.29,37.29,0,0,1-6-12.66l-7.56,1.05-1.27-9.13,7.65-1.07a36.5,36.5,0,0,1,2.6-13.78l-6.75-3.6,4.34-8.14,6.82,3.65a36.51,36.51,0,0,1,10.19-9.62L160,244.65l8.29-4,3.37,6.95a37.52,37.52,0,0,1,13.91-1.79l1.34-7.53,9.08,1.62-1.36,7.61a37.06,37.06,0,0,1,6.16,2.61,36,36,0,0,1,6.15,4.11l5.5-5.31,6.41,6.64-5.57,5.37a37.53,37.53,0,0,1,6,12.66l7.57-1.05,1.27,9.13-7.66,1.07a36.44,36.44,0,0,1-2.59,13.77l6.75,3.6-4.34,8.14-6.83-3.64a36.62,36.62,0,0,1-10.18,9.62l3.34,6.88-8.29,4-3.38-7a37.5,37.5,0,0,1-13.9,1.8l-1.34,7.52-9.09-1.61,1.36-7.61a37.71,37.71,0,0,1-12.31-6.72Z" style="fill:#fff"/><path id="_" data-name="?" d="M184.92,257.58A20.82,20.82,0,0,0,168,264.91l7.13,5.74c2.64-2.88,5.54-4.25,8.48-4.21,3.15.07,5,1.62,4.93,4.2-.12,5.88-11.5,4.8-11.76,17.2l0,2.22,10.31.21,0-1.79c.17-8,13.06-7,13.29-18.6C200.52,263.5,195.4,257.8,184.92,257.58Zm-3,39.11a6.5,6.5,0,1,0,6.31,6.6A6.47,6.47,0,0,0,181.91,296.69Z" style="fill:#005596"/><path d="M281.84,314.86l-1.06-.06a34.65,34.65,0,0,1-12.57-3.22l-1-.46-3.79,6.1L258,313.85l3.82-6.16L261,307a33.83,33.83,0,0,1-8.26-10l-.52-1-6.67,2.71-2.42-5.93,6.72-2.74-.27-1a33.81,33.81,0,0,1-.81-12.94l.14-1.09-7-1.72,1.53-6.21,7,1.74.39-1a34.83,34.83,0,0,1,6.95-11l.75-.79-4.64-5.49,4.89-4.14L263.5,252l.9-.57a34.72,34.72,0,0,1,12.07-4.79l1.07-.2-.53-7.17,6.38-.46.53,7.23,1.07.07a34.43,34.43,0,0,1,12.57,3.21l1,.46,3.78-6.1,5.44,3.37L304,253.24l.82.68a33.77,33.77,0,0,1,8.27,10l.52,1,6.67-2.71,2.41,5.92-6.72,2.74.27,1a34,34,0,0,1,.82,12.94l-.14,1.09,7,1.72-1.53,6.21-7-1.74-.39,1a34.46,34.46,0,0,1-7,11l-.74.8,4.64,5.49L307,314.45l-4.68-5.55-.9.57a34.93,34.93,0,0,1-12.07,4.79l-1.07.2.53,7.18-6.38.46Z" style="fill:#005596"/><path d="M282.26,240.14l.36,4.94.16,2.14,2.13.13a33.29,33.29,0,0,1,12.13,3.1l2,.92,1.15-1.85,2.57-4.14,3.35,2.09-2.61,4.21-1.13,1.82,1.65,1.36a32.5,32.5,0,0,1,8,9.64l1.05,1.92,2-.83,4.53-1.84,1.49,3.66-4.6,1.87-2,.81.54,2.07a32.61,32.61,0,0,1,.78,12.48l-.28,2.16,2.12.52,4.75,1.17-.95,3.84-4.81-1.19-2.07-.51-.79,2a33.33,33.33,0,0,1-6.71,10.58l-1.49,1.59,1.41,1.67,3.15,3.73-3,2.54-3.2-3.79-1.38-1.63-1.8,1.14a33.77,33.77,0,0,1-11.64,4.62l-2.15.4.16,2.18.36,4.87-3.94.28-.37-5-.15-2.13-2.14-.13a33.31,33.31,0,0,1-12.12-3.11l-2-.92-1.14,1.85L263,315.54l-3.35-2.08,2.61-4.22,1.13-1.82-1.65-1.36a32.46,32.46,0,0,1-8-9.63l-1-1.92-2,.83-4.52,1.84-1.5-3.66,4.6-1.88,2-.81-.54-2.07a32.58,32.58,0,0,1-.79-12.47l.28-2.17-2.12-.52-4.75-1.17,1-3.84,4.81,1.19,2.08.51.78-2a33.33,33.33,0,0,1,6.71-10.58l1.48-1.59-1.4-1.66-3.14-3.73,3-2.55,3.2,3.79,1.37,1.64,1.81-1.15a34.11,34.11,0,0,1,5.3-2.74,34.75,34.75,0,0,1,6.34-1.88l2.14-.41-.16-2.17-.36-4.86,3.94-.28m2.26-2.62-8.82.63.54,7.31a36.39,36.39,0,0,0-6.8,2,35.11,35.11,0,0,0-5.69,2.94L259,244.75l-6.76,5.71,4.72,5.6a35.85,35.85,0,0,0-7.19,11.35l-7.19-1.78-2.12,8.59,7.12,1.75a35.27,35.27,0,0,0,.85,13.41l-6.86,2.79,3.34,8.2,6.79-2.77A35,35,0,0,0,260.23,308l-3.91,6.29,7.51,4.67,3.86-6.22a36,36,0,0,0,13,3.33l.55,7.39,8.82-.64-.54-7.31a34.75,34.75,0,0,0,6.8-2,36.06,36.06,0,0,0,5.7-2.94l4.78,5.67,6.76-5.7-4.74-5.6A36,36,0,0,0,316,293.51l7.19,1.78,2.1-8.58L318.22,285a35.2,35.2,0,0,0-.85-13.4l6.87-2.8-3.34-8.19-6.79,2.77A35,35,0,0,0,305.55,253l3.9-6.29L301.94,242l-3.86,6.21a35.86,35.86,0,0,0-13-3.32l-.54-7.39Z" style="fill:#fff"/><path d="M282.9,303.76a23.31,23.31,0,1,1,8.78-1.73A23.2,23.2,0,0,1,282.9,303.76Z" style="fill:#005596"/><path d="M282.88,261.21a19.25,19.25,0,1,1-7.26,1.43,19.19,19.19,0,0,1,7.26-1.43h0m0-8.1a27.35,27.35,0,1,0,25.33,17,27.2,27.2,0,0,0-25.33-17Z" style="fill:#fff"/><path d="M239.82,116.47l1.26-10.58,12.76,1.54-1.28,10.69a52.07,52.07,0,0,1,17.65,8.36l7.23-7.8,9.43,8.73-7.32,7.9a51.18,51.18,0,0,1,9.35,17.15l10.45-2.07L301.84,163l-10.57,2.09a51.14,51.14,0,0,1-2.51,19.35l9.67,4.48L293,200.58l-9.77-4.52a52.09,52.09,0,0,1-13.42,14.2l5.2,9.3-11.23,6.26-5.25-9.41a53.34,53.34,0,0,1-8.94,2.62,52.2,52.2,0,0,1-10.26,1l-1.25,10.57-12.77-1.53,1.28-10.69A52.5,52.5,0,0,1,209,210l-7.24,7.8-9.42-8.74,7.32-7.89A51,51,0,0,1,190.31,184l-10.46,2.06-2.49-12.61,10.57-2.09A51.17,51.17,0,0,1,190.44,152l-9.68-4.48,5.4-11.66,9.77,4.53a52.06,52.06,0,0,1,13.41-14.2l-5.19-9.29,11.23-6.28,5.24,9.41a52.3,52.3,0,0,1,19.2-3.6Z" style="fill:#005596"/><path d="M239.56,202.1a33.89,33.89,0,1,1,6.6-.65A33.9,33.9,0,0,1,239.56,202.1Z" style="fill:#005596"/><path d="M239.64,128.5v11.77a28,28,0,1,1-23.27,12.4,28.07,28.07,0,0,1,23.27-12.4V128.5m0,0a39.75,39.75,0,0,0-.08,79.49,40.2,40.2,0,0,0,7.74-.76,39.74,39.74,0,0,0-7.66-78.73Z" style="fill:#fff"/></svg>