<svg id="icon" xmlns="http://www.w3.org/2000/svg" viewBox="0 0 512 512"><path d="M490.66,256A234.65,234.65,0,0,1,331.09,478.38c-2,.69-4,1.33-6,1.94h0c-5.2,1.6-10.49,3-15.83,4.27-2.8.66-5.61,1.25-8.42,1.79A234.84,234.84,0,0,1,260,490.63l-2.72,0H256q-9.34,0-18.49-.71c-5.48-.42-10.91-1.05-16.28-1.84-2-.29-4-.62-6-1h0a230.46,230.46,0,0,1-27-6.4c-2.58-.78-5.17-1.62-7.71-2.47-2.23-.75-4.42-1.54-6.61-2.37A230.32,230.32,0,0,1,142,461.13q-3.35-1.86-6.61-3.83c-3-1.78-5.94-3.65-8.83-5.56-2.24-1.48-4.44-3-6.62-4.56A235.3,235.3,0,0,1,88,419.82c-2.25-2.31-4.46-4.68-6.6-7.07q-7.45-8.29-14.1-17.27c-4.07-5.5-7.92-11.21-11.51-17.08-1.29-2.09-2.55-4.19-3.75-6.33h0a232.78,232.78,0,0,1-27.6-77.93c-1.21-7.37-2.08-14.87-2.56-22.47,0-.17,0-.36,0-.54-.2-3-.35-6.09-.41-9.15-.07-2-.08-4-.08-6a234.16,234.16,0,0,1,13.21-77.84c.13-.39.28-.79.42-1.18q2.63-7.33,5.71-14.43l1.37-3.09a234.77,234.77,0,0,1,427.08-1.81q3.72,8.08,6.84,16.47c1.41,3.73,2.69,7.5,3.89,11.31a232.93,232.93,0,0,1,9.92,50.2Q490.65,245.7,490.66,256Z" style="fill:#005596"/><polygon points="430.89 304.66 234.78 182.03 92.54 251.17 92.31 255.42 288.18 382.31 430.65 308.92 430.89 304.66" style="fill:#c1d82f"/><path d="M290.88,385.8c14.54-7.41,123-62.7,146.18-74.58a2.86,2.86,0,0,0,.25-4.94l-202-124.79" style="fill:#005596;stroke:#fff;stroke-linecap:round;stroke-linejoin:round;stroke-width:7.27105593681336px"/><polygon points="428.83 275.67 231.19 151.86 94.38 217.78 92.88 247.03 290.31 374.94 427.33 304.93 428.83 275.67" style="fill:#c1d82f"/><path d="M287.71,386.48a6.53,6.53,0,0,1-3.58-1.07l-193-125a6.47,6.47,0,0,1-2.92-5.74l2.16-42.1A6.58,6.58,0,0,1,94,207l139.66-71.36a9.23,9.23,0,0,1,4.15-1,9.12,9.12,0,0,1,5,1.47L439.2,257.53a6.27,6.27,0,0,1-.48,10.9c-23.24,11.89-134.71,68.73-142,72.46-.5,8.43-2.4,39.4-2.4,39.4a6.61,6.61,0,0,1-6.58,6.19Z" style="fill:#fff"/><path d="M237.79,138.18a5.56,5.56,0,0,1,3.06.91L437.36,260.51a2.77,2.77,0,0,1-.24,4.8C414.55,276.87,309,330.67,294.88,337.88a3.1,3.1,0,0,0-1.67,2.56c-.48,8.07-2.41,39.63-2.41,39.63a3.09,3.09,0,0,1-4.77,2.41l-193-125a3,3,0,0,1-1.34-2.62l2.16-42.1a3.1,3.1,0,0,1,1.68-2.59L235.22,138.8a5.56,5.56,0,0,1,2.57-.62m0-7a12.8,12.8,0,0,0-5.76,1.38L92.38,203.92a10.11,10.11,0,0,0-5.49,8.47l-2.16,42.09a10,10,0,0,0,4.52,8.85l193,125a10.07,10.07,0,0,0,15.55-7.84c0-.3,1.66-27,2.29-37.42,19-9.67,118.54-60.44,140.24-71.55a9.78,9.78,0,0,0,.86-16.91l-.06,0-.07,0L244.58,133.16a12.65,12.65,0,0,0-6.79-2Z" style="fill:#005596"/><line x1="286.77" y1="334.47" x2="103.3" y2="215.62" style="fill:#fff;stroke:#005596;stroke-linecap:round;stroke-linejoin:round;stroke-width:7px"/><path d="M251.83,391.61,243.7,403a1.94,1.94,0,0,1-2.52.75L66.63,290.63c1.18-1.73,9.69-13.58,10.45-14.68L251.63,389.1A1.75,1.75,0,0,1,251.83,391.61Z" style="fill:#c1d82f;stroke:#005596;stroke-miterlimit:10;stroke-width:4.94217956342504px"/><line x1="243.85" y1="394.86" x2="71.79" y2="283.35" style="fill:none;stroke:#005596;stroke-miterlimit:10;stroke-width:3.70663467256878px"/><path d="M53.37,271.31h0c-2.89,4.05-2.2,9.32,1.56,11.76l13.4,8.73,10.48-14.66-13.4-8.73C61.65,266,56.26,267.26,53.37,271.31Z" style="fill:#fff;stroke:#005596;stroke-miterlimit:10;stroke-width:3.70663467256878px"/><path d="M53.37,271.31h0c-2.88,4.06-2.53,9.08.78,11.23l6,3.88,10.44-14.69-6-3.88C61.27,265.71,56.25,267.26,53.37,271.31Z" style="fill:#c1d82f;stroke:#005596;stroke-miterlimit:10;stroke-width:3.70663467256878px"/><path d="M240.7,403.16l2.67-8.61,7.5-5.67c.11-.16.58,0,.84.27l21.89,23.6c.95,1,.08,2.25-1.27,1.78l-31.06-10.72C240.9,403.68,240.59,403.33,240.7,403.16Z" style="fill:#fff;stroke:#005596;stroke-miterlimit:10;stroke-width:3.70663467256878px"/><path d="M271.71,415.48a4.27,4.27,0,0,1-1.71-.39l-12.16-5.34,5.68-8.3,9.62,9a3.11,3.11,0,0,1,1.05,3.41A2.57,2.57,0,0,1,271.71,415.48Z" style="fill:#c1d82f"/><path d="M263.82,404.29l8.05,7.55c1,.94.76,1.78-.16,1.78a2.45,2.45,0,0,1-1-.23L260.63,409l3.19-4.66m-.61-5.67-2.44,3.57-3.2,4.67-2.52,3.69,4.09,1.8,10.12,4.43a6,6,0,0,0,2.45.55,4.46,4.46,0,0,0,4.21-2.75,4.91,4.91,0,0,0-1.51-5.44l-8.05-7.56-3.15-3Z" style="fill:#005596"/><path d="M289.7,244.64a28.6,28.6,0,0,1-7.05-.91l-5.18-1.33a10.62,10.62,0,0,0-2.25-.24,10.34,10.34,0,0,0-2.28.25L268,243.69a28.43,28.43,0,0,1-7.16.93,25.46,25.46,0,0,1-7.17-1c-11-3.25-16.68-12.33-26.1-27.37l-1.92-3.07A73.72,73.72,0,0,1,212,168.32c-.42-19.39,6.19-30.32,11.82-36.08a30.42,30.42,0,0,1,21.9-9.31,34.66,34.66,0,0,1,16.1,4.1,27.79,27.79,0,0,0,13.14,3.4h.63a27.86,27.86,0,0,0,13.15-3.4,34.66,34.66,0,0,1,16.1-4.1,30.42,30.42,0,0,1,21.9,9.31c5.63,5.76,12.24,16.69,11.81,36.08a73.65,73.65,0,0,1-13.64,44.85l-1.88,3c-9.71,15.52-15.58,24.9-27.4,27.77A24.66,24.66,0,0,1,289.7,244.64Z" style="fill:#c1d82f"/><path d="M304.83,126.43c16.34,0,30.84,14.32,30.21,41.89A70.36,70.36,0,0,1,322,211.24c-10.57,16.83-16.05,26.59-27.19,29.3a21.34,21.34,0,0,1-5.09.6,24.83,24.83,0,0,1-6.18-.8L278.28,239a14.34,14.34,0,0,0-3.06-.33,14.63,14.63,0,0,0-3.09.34l-5,1.3a24.71,24.71,0,0,1-6.28.82,22,22,0,0,1-6.18-.87c-10.41-3.08-15.86-12.74-26.1-29a70.49,70.49,0,0,1-13.06-42.92c-.63-27.56,13.88-41.89,30.22-41.89a31.24,31.24,0,0,1,14.48,3.71A31.21,31.21,0,0,0,275,133.93h.63a31.28,31.28,0,0,0,14.77-3.79,31.24,31.24,0,0,1,14.48-3.71m0-7h0a38,38,0,0,0-17.72,4.5,24.22,24.22,0,0,1-11.53,3H275a24.19,24.19,0,0,1-11.52-3,38.1,38.1,0,0,0-17.72-4.5,34,34,0,0,0-24.41,10.36c-11,11.27-13.05,27.14-12.81,38.53a77.15,77.15,0,0,0,14.23,46.79c.64,1,1.27,2,1.87,3,9.53,15.2,15.82,25.24,28.07,28.86a28.86,28.86,0,0,0,8.17,1.16,32.08,32.08,0,0,0,8-1l4.88-1.27a7.26,7.26,0,0,1,1.47-.15,7.16,7.16,0,0,1,1.46.15l5.1,1.31a31.76,31.76,0,0,0,7.92,1,29,29,0,0,0,6.75-.79c13.21-3.22,19.7-13.61,29.54-29.33.59-.94,1.2-1.92,1.83-2.91a77.22,77.22,0,0,0,14.23-46.79c.23-11.4-1.81-27.26-12.82-38.53a33.92,33.92,0,0,0-24.4-10.36Z" style="fill:#005596"/><path d="M279.61,146.09q-3.92-.61-7.72-1.24c-7.84-13.16,18.43-26.33,8.39-39.5h0c4.45.68,9.79,4.22,9.12,7.89C288,124.19,271.27,135.14,279.61,146.09Z" style="fill:#c1d82f"/><path d="M263.62,102.49h17.26a0,0,0,0,1,0,0v1a16.23,16.23,0,0,1-16.23,16.23H247.39a0,0,0,0,1,0,0v-1A16.23,16.23,0,0,1,263.62,102.49Z" transform="translate(206.12 -169.52) rotate(55.51)" style="fill:#c1d82f"/></svg>