<svg id="icon" xmlns="http://www.w3.org/2000/svg" viewBox="0 0 512 512"><path d="M255.32,487.09A231.16,231.16,0,0,1,91.86,92.47,231.17,231.17,0,0,1,418.78,419.39,229.68,229.68,0,0,1,255.32,487.09Z" style="fill:#fff"/><path d="M255.32,28.26a227.73,227.73,0,0,1,88.61,437.45A227.73,227.73,0,0,1,166.7,46.15a226.23,226.23,0,0,1,88.62-17.89m0-7c-129.61,0-234.67,105.06-234.67,234.67S125.71,490.59,255.32,490.59,490,385.53,490,255.93,384.92,21.26,255.32,21.26Z" style="fill:#005596"/><path d="M253.82,358l4.2,2.81,124.91,83.81a227.8,227.8,0,0,1-255.52-.38l53.82-36.72,39.93-27.24L253.82,358m0-8.45-36.57,25-39.93,27.24-62.1,42.37a234.7,234.7,0,0,0,280.06.34L261.92,355l-8.13-5.45Z" style="fill:#005596"/><path d="M184.24,443.75a19.48,19.48,0,0,1-19.46-19.47V313.19c-.06-.64-.09-1.29-.09-1.93V295.78a14.26,14.26,0,0,1-2.08,2.18,15.21,15.21,0,0,1-2.12,1.51l-.1.06c-.35.19-.69.37-1,.54s-.79.35-1.25.52-.79.26-1.19.37a14.27,14.27,0,0,1-3.72.49,14.44,14.44,0,0,1-4.54-.73c-.45-.15-.92-.33-1.4-.54a14.38,14.38,0,0,1-5.08-3.82l-11.25-13.12-.08.07-6.86-8a18.45,18.45,0,0,1,2-26l49.12-42,.28.38a21.14,21.14,0,0,1,3.49-1.51,36.67,36.67,0,0,1,21-64.69c.77-.06,1.62-.09,2.58-.09a36.7,36.7,0,0,1,24.78,63.75h44.62V165.75a14.49,14.49,0,0,1,29,0v49.87a18.5,18.5,0,0,1-18.48,18.48h-38v64.27h5.9l3.5-.09h8.12a21.84,21.84,0,0,1,21.81,21.81v63.29A16.75,16.75,0,0,1,267,400.09a18.12,18.12,0,0,1-12.12-4.8,16.09,16.09,0,0,1-5.42-11.91V337.29h-45.7v87A19.5,19.5,0,0,1,184.24,443.75Zm-20-166.22.49.6v-23.8l-11.76,10Z" style="fill:#fff"/><path d="M202.47,144.87a33.19,33.19,0,0,1,12.94,63.75h60V165.75a11,11,0,0,1,22,0v49.87a15,15,0,0,1-15,15H240.84v71.27h12.9v-.09h8.12a18.31,18.31,0,0,1,18.31,18.31v63.29a11.76,11.76,0,0,1-.1,1.58A13.22,13.22,0,0,1,267,396.59a14.55,14.55,0,0,1-9.75-3.87,12.73,12.73,0,0,1-4.29-9.34V333.79h-52.7v90.49a16,16,0,0,1-31.93,0V313a17.14,17.14,0,0,1-.09-1.76V246.74L148,264l13.55,15.82a11,11,0,0,1-1.2,15.5,12.19,12.19,0,0,1-1.64,1.16l-.87.45a8.93,8.93,0,0,1-.9.37c-.3.11-.61.21-.91.29a11,11,0,0,1-6.26-.18,11.12,11.12,0,0,1-1.09-.42,11,11,0,0,1-3.83-2.88l-13.56-15.83-.08.07L126.64,273a15,15,0,0,1,1.66-21.11l46.29-39.54,0,0a17,17,0,0,1,10.74-3.78h4.17A33.19,33.19,0,0,1,200.13,145c.79-.06,1.57-.08,2.34-.08m0-7c-1,0-2,0-2.85.1a40.16,40.16,0,0,0-27,66.9L170,207l-46.29,39.54a22,22,0,0,0-2.44,31l4.57,5.34,4.61,5.39.08-.08,9,10.45a17.85,17.85,0,0,0,6.25,4.7h0a16.57,16.57,0,0,0,1.75.68,17.92,17.92,0,0,0,10.28.28,14.94,14.94,0,0,0,1.45-.46,13.31,13.31,0,0,0,1.56-.65l.33-.15v8.19c0,.7,0,1.4.09,2.09V424.28a23,23,0,1,0,45.93,0V340.79h38.7v42.59a19.55,19.55,0,0,0,6.55,14.49A21.69,21.69,0,0,0,267,403.59,20.21,20.21,0,0,0,287,385.84a17.84,17.84,0,0,0,.16-2.46V320.09a25.34,25.34,0,0,0-25.31-25.31h-14V237.6h34.53a22,22,0,0,0,22-22V165.75a18,18,0,0,0-36,0v35.87H235a40.2,40.2,0,0,0-32.56-63.75ZM157.86,264.76l3.33-2.84v6.72l-3.33-3.88Z" style="fill:#005596"/><g id="Base"><path d="M343.48,136.75l9.21.85,10.77,11.63-37,34.26L315.7,171.86l-.15-9.25,5.9-5.46,16.15-15,5.88-5.45m-2.11-6.22-2,1.82-5.88,5.45-16.14,14.95-5.9,5.46-2,1.82,0,2.68.15,9.25,0,2.29,1.56,1.69,10.77,11.63,4.08,4.4,4.4-4.08,37-34.26,4.4-4.07-4.08-4.4-10.77-11.63-1.56-1.69-2.29-.21-9.21-.85-2.66-.25Z" style="fill:#005596"/></g><g id="R_Handle" data-name="R Handle"><path d="M327.85,86.2a19.68,19.68,0,0,1-5.55,15c-.17.18-.34.34-.52.51l-1.45,1.35L319,104.32l-.32-1.79a31.29,31.29,0,0,0-1.2-4.56l-.2-.6.45-.44a12.86,12.86,0,0,0,2.18-2.77c3.56-6,2.31-14.77-3.46-21l-12-12.92-7.2,6.68-1.69,1.56-.73.68-.68-.74-2.91-3.14-.68-.73.74-.68L293,62.3l10.62-9.84.73-.68.68.73,15.56,16.8A26.56,26.56,0,0,1,327.85,86.2Z" style="fill:#005596"/></g><g id="L_Handle" data-name="L Handle"><path d="M286.43,135.05l-1.33,1.24-1.45,1.34c-.18.17-.36.33-.55.48a19.49,19.49,0,0,1-12.75,4.54,26.11,26.11,0,0,1-19-8.69l-15.56-16.79-.68-.74.74-.68,10.63-9.84,1.68-1.56.73-.68.68.74,2.91,3.14.68.73-.73.68-1.68,1.56-7.22,6.68,12,12.92a19.58,19.58,0,0,0,14.18,6.53,14.51,14.51,0,0,0,6.51-1.47,13.22,13.22,0,0,0,2.92-2l.48-.43.58.26a32.07,32.07,0,0,0,4.45,1.54Z" style="fill:#005596"/></g><path d="M320.67,167.73l-.91-1.16c-2-2.63-2.47-6.52-1.14-10.39a13,13,0,0,1,1.28-2.74,61.72,61.72,0,0,0-5.19-7.4,14.76,14.76,0,0,0-11.11-5.75,11.32,11.32,0,0,0-1.43.09,30.4,30.4,0,0,1-4.24.28A46.11,46.11,0,0,1,286.29,139l-.88-.25a35.5,35.5,0,0,1-4.13-1.48c-.51-.22-1-.47-1.56-.74l-.67-.35c-.4-.21-.79-.43-1.19-.67a51.47,51.47,0,0,1-11-8.91L238,95.45l44.49-41.2,28.87,31.18a51.9,51.9,0,0,1,8.06,11.71,27,27,0,0,1,1.48,3.51,36.3,36.3,0,0,1,1.16,4.27c0,.19.1.46.15.73l0,.12a41.41,41.41,0,0,1,0,16.26c-1,4.35.83,9.48,4.65,13.09a62.4,62.4,0,0,0,6.69,5.48,13.3,13.3,0,0,1,3.26-1.3,13.77,13.77,0,0,1,3.47-.45,9.9,9.9,0,0,1,6.79,2.39l1,.9v1.32c0,1.32,0,1.32-4.54,5.54-2.15,2-5,4.66-7.88,7.31l-7.9,7.31c-4.45,4.11-4.45,4.11-5.64,4.11Zm-37.93-61.92,3.45,5.28,2.1-6,6.09-1.65-5-3.83.31-6.31-5.19,3.59-5.91-2.25,1.81,6.06-4,4.91Z" style="fill:#fff"/><path d="M282.3,58.49l7.5,8.1,4.27,4.61,15.07,16.27a48.69,48.69,0,0,1,7.56,11A24.82,24.82,0,0,1,318,101.6a32.55,32.55,0,0,1,1.07,3.92c.06.26.11.53.16.79a38.32,38.32,0,0,1,.06,15c-1.25,5.45,1,11.65,5.52,15.94a59.08,59.08,0,0,0,8.82,6.94l.11-.1a9.07,9.07,0,0,1,3.83-1.94,11.33,11.33,0,0,1,2.72-.35,7,7,0,0,1,4.77,1.61s-22.92,21.27-23,21.27c-1.57-2-1.55-5-.68-7.58a9.23,9.23,0,0,1,2-3.46,60.33,60.33,0,0,0-6.43-9.54,17.83,17.83,0,0,0-13.44-6.86,14.21,14.21,0,0,0-1.84.12,28.32,28.32,0,0,1-3.83.25,43,43,0,0,1-10.87-1.53l-.77-.22a32.44,32.44,0,0,1-3.83-1.37c-.65-.28-1.32-.61-2-1h0c-.34-.18-.68-.37-1-.58a48.58,48.58,0,0,1-10.37-8.39L254,108.32l-4.27-4.61-7.5-8.1L282.3,58.49m1.78,35.08L274,89.72l3.09,10.37-6.78,8.42,10.81.26,5.91,9,3.59-10.2L301,104.8l-8.59-6.57.54-10.8-8.9,6.14M282.63,50l-4.4,4.08L238.15,91.21l-4.4,4.08,4.07,4.4,7.5,8.1,4.27,4.61,15.07,16.27a54.79,54.79,0,0,0,11.68,9.46c.4.24.83.48,1.3.73l1.32.7H279c.36.18.72.34,1.07.49a38.4,38.4,0,0,0,4.49,1.61l.93.27a49.59,49.59,0,0,0,12.42,1.73,34.83,34.83,0,0,0,4.65-.3,6.9,6.9,0,0,1,1-.07,11.93,11.93,0,0,1,8.79,4.65,59.86,59.86,0,0,1,4.05,5.6,15,15,0,0,0-.67,1.7c-1.65,4.8-1,9.74,1.63,13.17l1.8,2.32h2.93c2.35,0,3.55-1.1,5.07-2.5l2.61-2.41,7.9-7.31c2.87-2.65,5.73-5.31,7.88-7.31l2.61-2.42c1.55-1.45,2.89-2.7,2.89-5.32v-2.65l-2-1.79a13,13,0,0,0-8.81-3.17,17.2,17.2,0,0,0-6.42,1.27,62.68,62.68,0,0,1-4.95-4.19c-3-2.84-4.53-7-3.78-10.23a44.36,44.36,0,0,0,0-17.48l0-.14c-.05-.27-.11-.55-.17-.83a37.62,37.62,0,0,0-1.25-4.57,30.3,30.3,0,0,0-1.64-3.88,54.58,54.58,0,0,0-8.53-12.4L298.48,67.13l-4.27-4.61-7.5-8.1L282.63,50Zm2.27,50.29,1.48-1-.09,1.81,1.44,1.1-1.75.47-.6,1.71-1-1.51-1.81,0,1.13-1.41-.52-1.75,1.71.65Z" style="fill:#005596"/><polygon points="301.03 104.8 290.59 107.62 287 117.82 281.09 108.77 270.28 108.51 277.06 100.09 273.97 89.72 284.08 93.57 292.98 87.43 292.44 98.23 301.03 104.8" style="fill:#fff;stroke:#005596;stroke-miterlimit:10;stroke-width:5px"/></svg>