<svg id="icon" xmlns="http://www.w3.org/2000/svg" viewBox="0 0 512 512"><path d="M256,487.17A231.17,231.17,0,0,1,92.54,92.54,231.17,231.17,0,1,1,419.46,419.46,229.66,229.66,0,0,1,256,487.17Z" style="fill:#fff"/><path d="M256,28.33a227.74,227.74,0,0,1,88.62,437.45A227.73,227.73,0,0,1,167.38,46.22,226.27,226.27,0,0,1,256,28.33m0-7C126.4,21.33,21.33,126.4,21.33,256S126.4,490.67,256,490.67,490.67,385.6,490.67,256,385.6,21.33,256,21.33Z" style="fill:#005596"/><rect x="84.12" y="250.41" width="140.32" height="9.16" rx="2" style="fill:#fff"/><path d="M222.44,252.41v5.16H86.12v-5.16H222.44m0-4H86.12a4,4,0,0,0-4,4v5.16a4,4,0,0,0,4,4H222.44a4,4,0,0,0,4-4v-5.16a4,4,0,0,0-4-4Z" style="fill:#005596"/><path d="M87.6,380.15l5.93-29a11.83,11.83,0,0,1-6.32-14.45L134.1,192.67l1.7,1.35a29.51,29.51,0,0,0,7.22,4.22,25.64,25.64,0,0,0,2.81,1c.42.13.8.24,1.18.33l1.58.38L112,312.21,90.5,380.9Z" style="fill:#005596"/><path d="M134.86,195.19a31,31,0,0,0,7.59,4.44,27.45,27.45,0,0,0,3,1c.4.13.82.25,1.24.35L110.59,311.75l-21.52,68.7,6.18-30.22a10.34,10.34,0,0,1-6.62-13l46.23-142m-1.51-5L132,194.26l-46.23,142a13.34,13.34,0,0,0,6,15.72l-5.7,27.87,5.8,1.5,21.52-68.7L149.51,202l1-3.1-3.16-.75c-.33-.08-.67-.17-1-.28l0,0-.06,0a23.17,23.17,0,0,1-2.64-.92,27.82,27.82,0,0,1-6.87-4l-3.38-2.69Z" style="fill:#fff"/><path d="M196.58,312.33,160,199.94l1.58-.38c.39-.09.77-.2,1.15-.32a26.76,26.76,0,0,0,2.85-1,29.43,29.43,0,0,0,7.22-4.22l1.69-1.35,46.9,144.05A11.86,11.86,0,0,1,215,351.17l5.93,29-2.9.75Z" style="fill:#005596"/><path d="M173.71,195.19l46.23,142a10.35,10.35,0,0,1-6.63,13.05l6.18,30.22L198,311.88,161.91,201c.42-.1.84-.22,1.25-.35a28.22,28.22,0,0,0,3-1,30.91,30.91,0,0,0,7.58-4.44m1.52-5-3.38,2.69a28,28,0,0,1-6.85,4,25.88,25.88,0,0,1-2.67.94h-.07c-.38.12-.73.22-1,.29l-3.17.75,1,3.1,36.1,110.86,21.47,68.54,5.8-1.5L216.73,352a13.34,13.34,0,0,0,6.06-15.73l-46.23-142-1.33-4.11Z" style="fill:#fff"/><path d="M154.29,204a33.6,33.6,0,0,1-8.11-1c-.45-.11-.92-.24-1.37-.38a27.31,27.31,0,0,1-3.13-1.11,32.26,32.26,0,0,1-8.06-4.72,33.09,33.09,0,0,1-12.68-26.14,33.45,33.45,0,0,1,28.73-33,26.79,26.79,0,0,1,3.33-.29c.42,0,.84,0,1.29,0s.87,0,1.3,0a27,27,0,0,1,3.32.29,33.32,33.32,0,0,1,16,59.15,32.3,32.3,0,0,1-8.07,4.73,27,27,0,0,1-3.17,1.11c-.39.13-.86.26-1.33.37A33.32,33.32,0,0,1,154.29,204Zm-4-55.09a22.1,22.1,0,0,0-11.6,37.43,21.8,21.8,0,0,0,6.71,4.56,19.77,19.77,0,0,0,2.7,1c.42.13.82.23,1.23.32a21.26,21.26,0,0,0,4.94.56,20.93,20.93,0,0,0,4.89-.56c.47-.1.87-.2,1.25-.31a18.82,18.82,0,0,0,2.69-1,22.09,22.09,0,0,0-4.85-42l-.15,0-.29,0-.24-.05a24.42,24.42,0,0,0-3.3-.24,23,23,0,0,0-3.33.25Z" style="fill:#fff"/><path d="M154.29,139.28c.42,0,.82,0,1.23,0a26.24,26.24,0,0,1,3.11.27,31.33,31.33,0,0,1,15.08,55.61,30.72,30.72,0,0,1-7.58,4.44,28.22,28.22,0,0,1-3,1c-.4.13-.82.25-1.24.35a31.44,31.44,0,0,1-15.26,0c-.42-.1-.84-.22-1.24-.35a27.45,27.45,0,0,1-3-1,30.72,30.72,0,0,1-7.58-4.44A31.31,31.31,0,0,1,150,139.58a26.24,26.24,0,0,1,3.11-.27q.6,0,1.23,0m0,55.44a22.62,22.62,0,0,0,5.37-.62c.45-.09.91-.2,1.34-.33a19.73,19.73,0,0,0,3-1.09,24.09,24.09,0,0,0-5.33-45.76c-.22-.06-.45-.09-.68-.13a24.06,24.06,0,0,0-7.32,0l-.68.11a24.11,24.11,0,0,0-5.33,45.8,22.5,22.5,0,0,0,2.95,1.07c.44.13.89.24,1.35.34a23.15,23.15,0,0,0,5.37.61m0-59.44c-.47,0-.92,0-1.37,0a30.86,30.86,0,0,0-3.54.31,35.32,35.32,0,0,0-17,62.71,34.87,34.87,0,0,0,8.56,5,30.09,30.09,0,0,0,3.31,1.16c.46.15,1,.28,1.46.41a35.46,35.46,0,0,0,17.17,0c.48-.12,1-.25,1.43-.4a30.34,30.34,0,0,0,3.35-1.18,34.6,34.6,0,0,0,8.54-5,35.32,35.32,0,0,0-17-62.69,30.09,30.09,0,0,0-3.55-.31c-.42,0-.87,0-1.34,0Zm-3,15.45a23,23,0,0,1,3-.22,21.22,21.22,0,0,1,3,.23l.2,0,.13,0,.12,0,.16,0A20.09,20.09,0,0,1,162.36,189h0l0,0a16.14,16.14,0,0,1-2.37.87h-.06c-.32.09-.65.17-.95.23l-.09,0-.1,0a18.53,18.53,0,0,1-4.42.51,19.58,19.58,0,0,1-4.45-.5h-.07q-.54-.12-1.05-.27h-.05a17.39,17.39,0,0,1-2.42-.88,20.1,20.1,0,0,1,4.41-38.2l.23,0,.39-.07Z" style="fill:#005596"/><path d="M154.28,278.47a5.33,5.33,0,0,1-5.33-5.33v-36.3a5.34,5.34,0,0,1,10.67,0v36.3A5.34,5.34,0,0,1,154.28,278.47Z" style="fill:#005596"/><path d="M154.28,233a3.84,3.84,0,0,1,3.84,3.83v36.3a3.84,3.84,0,0,1-3.84,3.83h0a3.84,3.84,0,0,1-3.83-3.83v-36.3a3.84,3.84,0,0,1,3.83-3.83h0m0-3a6.84,6.84,0,0,0-6.83,6.83v36.3a6.84,6.84,0,0,0,13.67,0v-36.3a6.84,6.84,0,0,0-6.84-6.83Z" style="fill:#fff"/><path d="M158.63,117.6v22a28.53,28.53,0,0,0-3.11-.27c-.41,0-.81,0-1.23,0s-.83,0-1.23,0a28.53,28.53,0,0,0-3.11.27v-22a4.34,4.34,0,1,1,8.68,0Z" style="fill:#005596"/><path d="M323.22,353.36l-3.78,11.87-14.32-4.59,3.83-12a61,61,0,0,1-18.43-13.51l-10,7.36-8.9-12.12,10.15-7.45a59.8,59.8,0,0,1-6.95-21.78l-12.47.06-.07-15,12.61-.06a59.68,59.68,0,0,1,7.16-21.7l-10.11-7.28,8.77-12.2,10.22,7.36A60.94,60.94,0,0,1,309.46,239l-3.91-11.84,14.28-4.72,3.95,12a61.69,61.69,0,0,1,10.86-1,60.07,60.07,0,0,1,12,1.13l3.79-11.87,14.33,4.57-3.83,12a61.07,61.07,0,0,1,18.41,13.51l10.05-7.37,8.89,12.12-10.15,7.46a59.82,59.82,0,0,1,6.94,21.76l12.47-.06.08,15.05-12.62.06a59.7,59.7,0,0,1-7.16,21.69L398,330.69l-8.78,12.21L379,335.54a61.19,61.19,0,0,1-18.55,13.35l3.91,11.82L350,365.44l-3.95-12a61,61,0,0,1-22.86-.1Z" style="fill:#005596"/><path d="M334.93,333.53a39.62,39.62,0,0,1-.19-79.23h.2a39.62,39.62,0,0,1,.18,79.23Z" style="fill:#005596"/><path d="M334.94,261.19a32.73,32.73,0,0,1,.15,65.45h-.16a32.73,32.73,0,0,1-.16-65.45h.17m0-13.77h-.24a46.5,46.5,0,0,0,.23,93h.23a46.5,46.5,0,0,0-.22-93Z" style="fill:#fff"/><rect x="244.59" y="137.18" width="180.69" height="40.26" transform="translate(669.86 314.61) rotate(180)" style="fill:#005596"/><rect x="406.39" y="136.93" width="3.54" height="8.8" style="fill:#fff"/><rect x="364.36" y="136.93" width="3.54" height="8.8" style="fill:#fff"/><rect x="322.32" y="136.93" width="3.54" height="8.8" style="fill:#fff"/><rect x="280.29" y="136.93" width="3.54" height="8.8" style="fill:#fff"/><rect x="385.62" y="136.93" width="3.05" height="6.51" style="fill:#fff"/><rect x="343.59" y="136.93" width="3.05" height="6.51" style="fill:#fff"/><rect x="301.55" y="136.93" width="3.05" height="6.51" style="fill:#fff"/><rect x="259.52" y="136.93" width="3.05" height="6.51" style="fill:#fff"/></svg>