<svg id="icon" xmlns="http://www.w3.org/2000/svg" viewBox="0 0 512 512"><path d="M256,487.17A231.17,231.17,0,0,1,92.54,92.54,231.17,231.17,0,1,1,419.46,419.46,229.66,229.66,0,0,1,256,487.17Z" style="fill:#fff"/><path d="M256,28.33a227.74,227.74,0,0,1,88.62,437.45A227.73,227.73,0,0,1,167.38,46.22,226.27,226.27,0,0,1,256,28.33m0-7C126.4,21.33,21.33,126.4,21.33,256S126.4,490.67,256,490.67,490.67,385.6,490.67,256,385.6,21.33,256,21.33Z" style="fill:#005596"/><rect x="84.12" y="250.41" width="140.32" height="9.16" rx="2" style="fill:#fff"/><path d="M222.44,252.41v5.16H86.12v-5.16H222.44m0-4H86.12a4,4,0,0,0-4,4v5.16a4,4,0,0,0,4,4H222.44a4,4,0,0,0,4-4v-5.16a4,4,0,0,0-4-4Z" style="fill:#005596"/><path d="M89.07,384a3.24,3.24,0,0,1-.87-.11,3.5,3.5,0,0,1-2.56-4.09l5.63-27.52a13.79,13.79,0,0,1-6.65-11.83,13.63,13.63,0,0,1,.69-4.3l46.22-142a3.5,3.5,0,0,1,5.51-1.66,27.56,27.56,0,0,0,6.73,3.94,24.05,24.05,0,0,0,2.61.91l.12,0c.32.1.65.2,1,.28a3.44,3.44,0,0,1,2.23,1.69,3.49,3.49,0,0,1,.28,2.79L113.92,312.83,92.41,381.5A3.5,3.5,0,0,1,89.07,384Z" style="fill:#fff"/><path d="M134.86,195.19a31,31,0,0,0,7.59,4.44,27.45,27.45,0,0,0,3,1c.4.13.82.25,1.24.35L110.59,311.75l-21.52,68.7,6.18-30.22a10.34,10.34,0,0,1-6.62-13l46.23-142m0-7a7.06,7.06,0,0,0-2,.3,7,7,0,0,0-4.63,4.53L82,335a17.34,17.34,0,0,0,5.41,18.74l-5.18,25.29a7,7,0,0,0,5.11,8.18,7.13,7.13,0,0,0,1.76.22,7,7,0,0,0,6.67-4.91l21.51-68.66,36.06-110.69a7,7,0,0,0-5-9c-.22-.05-.46-.12-.7-.2l-.24-.07a22,22,0,0,1-2.22-.78,24,24,0,0,1-5.9-3.45,7,7,0,0,0-4.36-1.52Z" style="fill:#005596"/><path d="M219.49,384a3.5,3.5,0,0,1-3.34-2.45l-21.48-68.57L158.58,202.1a3.5,3.5,0,0,1,2.52-4.48c.34-.08.67-.18,1-.29a24.5,24.5,0,0,0,2.7-.94,27.25,27.25,0,0,0,6.73-3.94,3.5,3.5,0,0,1,5.51,1.66l46.23,142a13.84,13.84,0,0,1-6,16.13l5.63,27.52a3.5,3.5,0,0,1-2.55,4.09A3.37,3.37,0,0,1,219.49,384Z" style="fill:#fff"/><path d="M173.71,195.19l46.23,142a10.35,10.35,0,0,1-6.63,13.05l6.18,30.22L198,311.88,161.91,201c.42-.1.84-.22,1.25-.35a28.22,28.22,0,0,0,3-1,30.91,30.91,0,0,0,7.58-4.44m0-7a7,7,0,0,0-4.35,1.52,24.1,24.1,0,0,1-5.87,3.44,21.88,21.88,0,0,1-2.26.79l-.18.06c-.28.09-.54.16-.76.21a7,7,0,0,0-5,9L191.34,314l21.47,68.53a7,7,0,0,0,13.54-3.49l-5.17-25.29a17.48,17.48,0,0,0,4.4-5.52,17.18,17.18,0,0,0,1-13.24L180.37,193a7,7,0,0,0-6.66-4.83Z" style="fill:#005596"/><path d="M158.63,117.6v22a28.53,28.53,0,0,0-3.11-.27c-.41,0-.81,0-1.23,0s-.83,0-1.23,0a28.53,28.53,0,0,0-3.11.27v-22a4.34,4.34,0,1,1,8.68,0Z" style="fill:#fff;stroke:#005596;stroke-miterlimit:10;stroke-width:4px"/><path d="M154.29,205.46a34.74,34.74,0,0,1-8.48-1.05c-.45-.11-.94-.24-1.41-.39a30.78,30.78,0,0,1-3.3-1.16,35,35,0,0,1-21.66-32.25,35,35,0,0,1,30-34.5,31.45,31.45,0,0,1,3.49-.3c.42,0,.87,0,1.33,0s.91,0,1.36,0a29.91,29.91,0,0,1,3.47.31,34.82,34.82,0,0,1,16.76,61.81,34.09,34.09,0,0,1-8.44,4.94,29.22,29.22,0,0,1-3.26,1.15c-.47.15-1,.28-1.45.4A34.65,34.65,0,0,1,154.29,205.46Zm-3.7-55.12A20.61,20.61,0,0,0,146,189.49a19.33,19.33,0,0,0,2.51.91c.4.12.76.21,1.14.3a20.26,20.26,0,0,0,4.62.52,19,19,0,0,0,4.54-.52l.16,0c.33-.06.68-.15,1-.24a17.53,17.53,0,0,0,2.49-.92A20.59,20.59,0,0,0,158,150.36l-.13,0-.14,0-.32-.05a21.19,21.19,0,0,0-3.12-.24,22.52,22.52,0,0,0-3.09.23Z" style="fill:#fff"/><path d="M154.29,139.28c.42,0,.82,0,1.23,0a26.24,26.24,0,0,1,3.11.27,31.33,31.33,0,0,1,15.08,55.61,30.72,30.72,0,0,1-7.58,4.44,28.22,28.22,0,0,1-3,1c-.4.13-.82.25-1.24.35a31.44,31.44,0,0,1-15.26,0c-.42-.1-.84-.22-1.24-.35a27.45,27.45,0,0,1-3-1,30.72,30.72,0,0,1-7.58-4.44A31.31,31.31,0,0,1,150,139.58a26.24,26.24,0,0,1,3.11-.27q.6,0,1.23,0m0,55.44a22.62,22.62,0,0,0,5.37-.62c.45-.09.91-.2,1.34-.33a19.73,19.73,0,0,0,3-1.09,24.09,24.09,0,0,0-5.33-45.76c-.22-.06-.45-.09-.68-.13a24.06,24.06,0,0,0-7.32,0l-.68.11a24.11,24.11,0,0,0-5.33,45.8,22.5,22.5,0,0,0,2.95,1.07c.44.13.89.24,1.35.34a23.15,23.15,0,0,0,5.37.61m0-62.44c-.5,0-1,0-1.45,0a33.77,33.77,0,0,0-3.88.34,38.47,38.47,0,0,0-33,38,38.08,38.08,0,0,0,14.59,30.07,37.42,37.42,0,0,0,9.26,5.42,34.23,34.23,0,0,0,3.6,1.27c.51.16,1.05.31,1.6.45a38.5,38.5,0,0,0,18.6,0c.55-.14,1.09-.29,1.6-.45a34.23,34.23,0,0,0,3.6-1.27,37.6,37.6,0,0,0,9.29-5.44,38.33,38.33,0,0,0-18.49-68,32.7,32.7,0,0,0-3.85-.34c-.48,0-1,0-1.45,0Zm-2.53,21.42a17.36,17.36,0,0,1,2.53-.19,18.79,18.79,0,0,1,2.54.19l.17,0,.1,0,.28.06a17.09,17.09,0,0,1,3.78,32.46l-.07,0-.07,0a13.3,13.3,0,0,1-1.94.71H159a5.83,5.83,0,0,1-.66.17l-.16,0-.17,0a15.73,15.73,0,0,1-3.71.42,16.5,16.5,0,0,1-3.77-.42h-.11c-.28-.07-.56-.14-.82-.22h-.09a14.36,14.36,0,0,1-2-.74h-.05a17.1,17.1,0,0,1,3.78-32.49l.17,0,.39-.06Z" style="fill:#005596"/><path d="M154.28,278.47a5.33,5.33,0,0,1-5.33-5.33v-36.3a5.34,5.34,0,0,1,10.67,0v36.3A5.34,5.34,0,0,1,154.28,278.47Z" style="fill:#005596"/><path d="M154.28,233a3.84,3.84,0,0,1,3.84,3.83v36.3a3.84,3.84,0,0,1-7.67,0v-36.3a3.84,3.84,0,0,1,3.83-3.83m0-3a6.84,6.84,0,0,0-6.83,6.83v36.3a6.84,6.84,0,0,0,13.67,0v-36.3a6.84,6.84,0,0,0-6.84-6.83Z" style="fill:#fff"/><path d="M323.22,353.36l-3.78,11.87-14.32-4.59,3.83-12a61,61,0,0,1-18.43-13.51l-10,7.36-8.9-12.12,10.15-7.45a59.8,59.8,0,0,1-6.95-21.78l-12.47.06-.07-15,12.61-.06a59.68,59.68,0,0,1,7.16-21.7l-10.11-7.28,8.77-12.2,10.22,7.36A60.94,60.94,0,0,1,309.46,239l-3.91-11.84,14.28-4.72,3.95,12a61.69,61.69,0,0,1,10.86-1,60.07,60.07,0,0,1,12,1.13l3.79-11.87,14.33,4.57-3.83,12a61.07,61.07,0,0,1,18.41,13.51l10.05-7.37,8.89,12.12-10.15,7.46a59.82,59.82,0,0,1,6.94,21.76l12.47-.06.08,15.05-12.62.06a59.7,59.7,0,0,1-7.16,21.69L398,330.69l-8.78,12.21L379,335.54a61.19,61.19,0,0,1-18.55,13.35l3.91,11.82L350,365.44l-3.95-12a61,61,0,0,1-22.86-.1Z" style="fill:#fff;stroke:#005596;stroke-miterlimit:10;stroke-width:7px"/><circle cx="334.93" cy="293.92" r="37.75" style="fill:#fff;stroke:#005596;stroke-miterlimit:10;stroke-width:8px"/><rect x="244.59" y="137.18" width="180.69" height="40.26" transform="translate(669.86 314.61) rotate(180)" style="fill:#fff;stroke:#005596;stroke-linecap:round;stroke-linejoin:round;stroke-width:7px"/><rect x="406.39" y="138.93" width="3.54" height="8.8" style="fill:#005596"/><rect x="364.36" y="138.93" width="3.54" height="8.8" style="fill:#005596"/><rect x="322.32" y="138.93" width="3.54" height="8.8" style="fill:#005596"/><rect x="280.29" y="138.93" width="3.54" height="8.8" style="fill:#005596"/><rect x="385.62" y="138.93" width="3.05" height="6.51" style="fill:#005596"/><rect x="343.59" y="138.93" width="3.05" height="6.51" style="fill:#005596"/><rect x="301.55" y="138.93" width="3.05" height="6.51" style="fill:#005596"/><rect x="259.52" y="138.93" width="3.05" height="6.51" style="fill:#005596"/></svg>