<svg id="icon" xmlns="http://www.w3.org/2000/svg" viewBox="0 0 512 512"><path d="M256,487.17A231.17,231.17,0,0,1,92.54,92.54,231.17,231.17,0,1,1,419.46,419.46,229.66,229.66,0,0,1,256,487.17Z" style="fill:#fff"/><path d="M256,28.33a227.74,227.74,0,0,1,88.62,437.45A227.73,227.73,0,0,1,167.38,46.22,226.27,226.27,0,0,1,256,28.33m0-7C126.4,21.33,21.33,126.4,21.33,256S126.4,490.67,256,490.67,490.67,385.6,490.67,256,385.6,21.33,256,21.33Z" style="fill:#005596"/><path d="M303.05,271.62a1.92,1.92,0,0,1-.66-.12c-5.47-1.91-8.73-3.42-8.86-3.49a2,2,0,0,1-.89-.81c-.19-.33-19.12-33.83,2.25-71.62,8.9-15.74,25.51-24.88,41.57-33.71,10.69-5.89,20.8-11.45,28.64-18.75,21-19.54,21.83-19.54,22.93-19.54a2.09,2.09,0,0,1,1.9,1.26c.66,1.57.86,2-18.61,21.87-7.85,8-18.37,14.42-28.54,20.62-15.18,9.25-30.87,18.82-38.54,33.93-16.2,31.87-4.17,58.74-.1,66.22l.63,1.12a2,2,0,0,1-1.72,3Z" style="fill:#fff"/><path d="M388,125.58c.79,0-5.72,7.08-18.14,19.73-19.26,19.63-54.25,29.08-67.44,55-16.82,33.11-3.79,61.26-.06,68.09.28.52.51.91.66,1.18-5.43-1.9-8.68-3.42-8.68-3.42s-18.79-32.4,2.26-69.64c14.34-25.35,49.72-33.23,69.83-52,14-13.06,20.85-19,21.57-19m0-4c-2,0-2.75,0-24.3,20.08-7.65,7.13-17.65,12.63-28.24,18.45-16.3,9-33.16,18.25-42.34,34.48A78,78,0,0,0,283.66,246a70.47,70.47,0,0,0,7.25,22.23,4,4,0,0,0,1.77,1.61c.14.07,3.49,1.63,9.05,3.57a4.08,4.08,0,0,0,1.32.23,4,4,0,0,0,3.44-6.05c-.14-.23-.34-.58-.59-1-4-7.26-15.63-33.36.12-64.37,7.42-14.6,22.86-24,37.8-33.12,10.28-6.27,20.9-12.75,28.93-20.92,5.95-6.07,10.58-10.88,13.74-14.31,4.69-5.08,6.45-7,5.29-9.75a4,4,0,0,0-3.75-2.48Z" style="fill:#005596"/><path d="M288.1,174.84c-20.46,32.4-1.06,66-1.06,66s63.87,32,96.1-19.74c40.43-64.91,6.46-135.85,6.46-135.85s-9.35,23-36.77,46.12C334,147.28,302,152.79,288.1,174.84Z" style="fill:#005596"/><path d="M294.37,266.2s3.25,1.52,8.68,3.42c-.2-.35-.52-.9-.92-1.66-4-7.59-16.13-35.22.32-67.61,13.19-26,48.18-35.41,67.44-55,23.8-24.24,21.77-50.65,20.62-58-.56-1.3-.9-2-.9-2s6.16,32-23.15,59.29c-20.11,18.75-55.49,26.63-69.83,52C275.58,233.8,294.37,266.2,294.37,266.2Z" style="fill:#fff"/><path d="M284.87,364.94a68,68,0,0,0,10.16-24,71.64,71.64,0,0,0-4-43c-5.84-14.42-18.31-24.4-32.79-35l-3-2.22c-3.67-2.68-7.46-5.46-11-8.27l-1.2-1,.6-1.41q.66-1.55,1.26-3.12l1-2.47L248,246c4.41,3.31,9.23,6.53,13.89,9.64l.38.25c15.3,10.18,31.09,20.69,38.64,37.12a75.53,75.53,0,0,1,6,45.95v.59l-.15.17c-2.91,15-9.39,24.46-9.67,24.86l-.36.52-.6.22c-.14.05-3.51,1.28-9.12,2.72l-5.35,1.38Z" style="fill:#fff"/><path d="M246.76,247.6c4.57,3.43,9.45,6.68,14.36,10,15.17,10.09,30.62,20.36,37.93,36.29a73.73,73.73,0,0,1,5.85,44.93s0,0,0,0c-2.81,15.13-9.45,24.64-9.45,24.64s-3.36,1.23-8.94,2.67A70.12,70.12,0,0,0,297,341.35a73.82,73.82,0,0,0-4.06-44.21c-6.17-15.21-19.69-25.78-33.46-35.9-4.73-3.48-9.5-6.9-14-10.45.45-1.06.88-2.12,1.29-3.19m-1.84-6.38-1.9,4.95c-.38,1-.79,2-1.23,3.05l-1.2,2.82,2.4,1.89c3.59,2.83,7.4,5.62,11.08,8.31l3,2.22c14.23,10.46,26.47,20.25,32.12,34.18a69.73,69.73,0,0,1,3.86,41.85,65.83,65.83,0,0,1-9.83,23.28l-6.45,9L287.5,370c5.7-1.47,9.17-2.73,9.31-2.79l1.19-.43.72-1c.28-.41,6.81-9.89,9.86-25l.31-.31v-1.3a77.41,77.41,0,0,0-6.22-47c-7.78-16.95-23.81-27.62-39.32-37.94L263,254c-4.86-3.24-9.44-6.3-13.81-9.58l-4.24-3.18Z" style="fill:#005596"/><path d="M304.9,338.78s0,0,0,0h0s-3,1.18-7.89,2.54c-18.41,5.06-64.3,12.51-86.21-30.31-.16-.31-.32-.62-.46-.93a126.72,126.72,0,0,1-6.64-15.73c1.43-.68,2.84-1.41,4.23-2.17a85.52,85.52,0,0,0,27.21-23.57c.64-.85,1.25-1.7,1.86-2.55q2.28-3.3,4.22-6.72a84.56,84.56,0,0,0,4.27-8.58c.45-1.06.88-2.12,1.29-3.19,0,0,0,0,0,0,.42-1.09.81-2.19,1.18-3.3.12-.37.25-.76.37-1.14a80.89,80.89,0,0,0,2.16-8.15c.32-1.53.61-3.06.85-4.6.17-1.07.31-2.14.44-3.21a116.7,116.7,0,0,0,15.48,10.94c15.92,9.81,33.75,18.68,42.14,34.83C326.75,306.37,305.61,337.74,304.9,338.78Z" style="fill:#005596"/><path d="M304.9,338.78s0,0,0,0c-2.81,15.13-9.45,24.64-9.45,24.64s-3.36,1.23-8.94,2.67A70.12,70.12,0,0,0,297,341.35a73.82,73.82,0,0,0-4.06-44.21c-6.17-15.21-19.69-25.78-33.46-35.9-4.73-3.48-9.5-6.9-14-10.45.45-1.06.88-2.12,1.29-3.19,4.57,3.43,9.45,6.68,14.36,10,15.17,10.09,30.62,20.36,37.93,36.29A73.73,73.73,0,0,1,304.9,338.78Z" style="fill:#fff"/><path d="M373.88,320.44a4,4,0,0,0-3.71-2.41h0c-2.1,0-2.81,0-23.45,20.72-7.39,7.41-17.17,13.28-27.53,19.49-7.84,4.71-15.95,9.57-23.1,15.25-2.31,1.83-4.48,3.73-6.46,5.64a59,59,0,0,0-11.48,15.15,77.36,77.36,0,0,0-8.37,46.94c0,.1,0,.21.05.31a78.48,78.48,0,0,0,5.73,20.33,75.76,75.76,0,0,0,11.33,19.74c1.54-.21,3.08-.43,4.62-.68a72.48,72.48,0,0,1-12.25-20.6,73.56,73.56,0,0,1-5.5-19.59h0a73.62,73.62,0,0,1,8-44.61A55,55,0,0,1,292.4,382a78,78,0,0,1,6.17-5.39c16.12-12.8,37.38-21.4,51-35.05C362.87,328.19,369.47,322,370.17,322s-5.32,7.15-17.16,20.14C336.33,360.5,306.57,371,291.9,392.28a49.4,49.4,0,0,0-4.25,7.39,75.74,75.74,0,0,0-7.12,28.78,73.33,73.33,0,0,0,.22,9.22,1.83,1.83,0,0,1,0,.21c.06.73.13,1.45.22,2.16.06.44.1.87.16,1.3a.53.53,0,0,1,0,.16c.13.73.26,1.45.4,2.16a73.68,73.68,0,0,0,18.18,35.81c1.55-.29,3.09-.61,4.63-1a70,70,0,0,1-18.88-35.64c-.15-.7-.27-1.37-.39-2.05a1.77,1.77,0,0,0,0-.2l-.06-.47c0-.21,0-.41-.08-.62-.07-.61-.14-1.25-.19-1.89a3.33,3.33,0,0,0,0-.41,69.63,69.63,0,0,1,6.57-35.89,44.94,44.94,0,0,1,3.89-6.78c7.75-11.23,20.4-19.61,32.64-27.71,10-6.64,20.43-13.52,28.14-22,5.66-6.21,10.06-11.14,13.05-14.65C373.55,324.92,375.08,323.14,373.88,320.44Z" style="fill:#005596"/><path d="M272.37,374.72c-19.25,33.14,1.39,66,1.39,66s65,29.62,95.3-23.3c38-66.36,1.41-136,1.41-136s-8.49,23.29-35,47.45C317.23,345.48,285.47,352.17,272.37,374.72Z" style="fill:#005596"/><path d="M353,342.18C336.33,360.5,306.57,371,291.9,392.27a49.6,49.6,0,0,0-4.25,7.41,75.61,75.61,0,0,0-7.12,28.77,73.49,73.49,0,0,0,.22,9.23,1.5,1.5,0,0,1,0,.2c.06.74.13,1.45.22,2.15.06.44.1.89.16,1.31a.53.53,0,0,1,0,.16c.13.72.26,1.45.4,2.17a73.65,73.65,0,0,0,18.19,35.8h0q-4.11.81-8.27,1.45a72.25,72.25,0,0,1-12.25-20.6,73.53,73.53,0,0,1-5.5-19.6,0,0,0,0,1,0,0,73.55,73.55,0,0,1,8-44.59A54.91,54.91,0,0,1,292.4,382a77.93,77.93,0,0,1,6.17-5.38c16.12-12.81,37.38-21.42,51-35.06,27.69-27.8,21.21-58.8,20.95-60.06.07.12.3.58.64,1.31a5.45,5.45,0,0,1,.32.64s0,0,0,.05C372.89,290.84,375.84,317.12,353,342.18Z" style="fill:#fff"/><path d="M268.11,200.8c-6.32-2.45-12.69-4.78-19-7.16-17.23-6.45-34-13.13-47.79-22.65a299.63,299.63,0,0,1-46.07-39c-5.06-5.27-9.46-10.26-13.22-14.83a101.49,101.49,0,0,0-15.14,5c-.8.32-1.58.67-2.37,1a99.16,99.16,0,0,0-10.25,5.27c-1.26,7-2.43,14.78-3.35,23.24-4.19,38.69-2.92,91.25,20.1,143.5a241.7,241.7,0,0,0,10.92,21.76,103.36,103.36,0,0,0,74.23-9.77,101.9,101.9,0,0,0,32.57-28.23c.52-.66,1-1.33,1.47-2q2.72-3.76,5-7.68c.43-.72.85-1.44,1.24-2.16.28-.48.54-1,.79-1.46s.41-.76.6-1.14c.33-.59.63-1.2.94-1.81s.71-1.47,1.06-2.21.59-1.27.86-1.91.45-1,.66-1.55l.57-1.37c.05-.14.11-.28.16-.41h0c.51-1.26,1-2.53,1.44-3.82v0c.3-.86.58-1.72.87-2.58q.33-1,.63-2c.44-1.47.85-2.94,1.23-4.42.17-.69.33-1.37.49-2.05.71-3.06,1.27-6.15,1.68-9.24A103,103,0,0,0,268.11,200.8ZM157.42,179.34q-1.57-1.76-3.08-3.53a64.67,64.67,0,0,1-2.84-20.27c.43-1.42.69-2.24.69-2.24S151.4,164.84,157.42,179.34Zm-29,30c.14-.13.75-.67,1.73-1.52a68.72,68.72,0,0,1,38.68-5.65c1.41.19,2.85.42,4.32.73.83.15,1.66.32,2.51.52,2.1,1.63,4.28,3.2,6.5,4.73q-2.72-1-5.37-1.76T171.35,205C147,199.88,129.25,208.9,128.39,209.34Z" style="fill:#005596"/><path d="M266.29,242.31c-.38,1.48-.79,2.95-1.23,4.42s-1,3.11-1.51,4.64c-4.47-2.58-9.05-5.05-13.69-7.44-.51-.28-1-.54-1.54-.8-.94-.49-1.89-1-2.84-1.44-2.49-1.26-5-2.5-7.53-3.73q-6.31-3.11-12.66-6.15l-5-2.42-5.16-2.54c-1.74-.86-3.46-1.72-5.19-2.6l-2.65-1.37a236.37,236.37,0,0,1-25.15-14.72h0c-2.22-1.53-4.4-3.1-6.5-4.73-1.31-1-2.59-2-3.86-3.09s-2.67-2.3-4-3.45c-2.76-2.46-5.36-5-7.79-7.47a133.51,133.51,0,0,1-30.94-49.59,124,124,0,0,1-4.55-16.69c.79-.36,1.57-.71,2.37-1A127.74,127.74,0,0,0,132,138.44a132.32,132.32,0,0,0,22.3,37.37q1.5,1.77,3.08,3.53a151.87,151.87,0,0,0,20.69,19,166.39,166.39,0,0,0,26,15.89c1.07.55,2.15,1.09,3.24,1.61C221.16,222.6,236,228.56,250.48,235c4.92,2.18,9.83,4.43,14.64,6.78Z" style="fill:#fff"/><path d="M207.37,215.83c-1.09-.52-2.17-1.06-3.24-1.61a67.79,67.79,0,0,1-6.83-30.58c.42-1.42.69-2.24.69-2.24S196.87,197.64,207.37,215.83Z" style="fill:#fff;stroke:#fff;stroke-miterlimit:10;stroke-width:1.05061817169189px"/><path d="M182.13,208.15c-29.78-11-52.76.69-53.74,1.19.14-.13.75-.67,1.73-1.52,5.53-2.71,22.85-9.67,45.51-4.4C177.73,205.05,179.91,206.62,182.13,208.15Z" style="fill:#fff;stroke:#fff;stroke-miterlimit:10;stroke-width:1.05061817169189px"/><path d="M266.39,241.87c0,.14-.07.29-.1.44-.38,1.48-.79,2.95-1.23,4.42-5.07-.8-10.15-1.81-15.2-2.8-12.49-2.47-24.82-4.92-36.36-4.32-41.37,2.15-58.14,31.16-58.65,32.06,0-.14.25-.94.63-2.22,4-6.69,20.23-29.31,55.76-32.74,8.49-.82,17.51,0,26.71,1.25,9,1.22,18.13,2.86,27.17,3.79Z" style="fill:#fff;stroke:#fff;stroke-miterlimit:10;stroke-width:1.05061817169189px"/><path d="M157.42,179.34q-1.57-1.76-3.08-3.53a64.67,64.67,0,0,1-2.84-20.27c.43-1.42.69-2.24.69-2.24S151.4,164.84,157.42,179.34Z" style="fill:#fff;stroke:#fff;stroke-miterlimit:10;stroke-width:0.787963628768921px"/><path d="M60.5,378.54c-.38-.6-.77-1.23-1.18-1.9-1.12-1.83-2.44-4-3.67-6.21l-1-1.79h0c-2.87-5.14-5.52-10.33-7.9-15.47-1.71-3.7-3.35-7.51-4.88-11.33l20.5-27.22,14.5-4.76,18.45-24.48,15.6,11.75L92.46,321.61l-.58,15.24Z" style="fill:#fff"/><path d="M96,290.28l10,7.54-1,1.31-14.69,19.5L89,320.38l-.09,2.19-.49,13.05L60.8,372.32c-.69-1.16-1.41-2.38-2.1-3.61l-1.79-3.19c-2.52-4.59-4.87-9.23-7-13.83-1.42-3.05-2.78-6.18-4.07-9.33L64.5,317.6l12.41-4.07,2.09-.69,1.32-1.75,15.62-20.74,0-.07m-1.37-9.8-4.27,5.66L74.73,306.88l-14.5,4.76L37.89,341.3q2.64,6.78,5.68,13.34,4.14,9,9,17.49h0c1.2,2.14,2.46,4.24,3.74,6.34s2.58,4.14,3.94,6.18l35.06-46.58.58-15.24,14.69-19.5,5.2-6.9-21.19-16Z" style="fill:#005596"/><path d="M268.11,200.8a103,103,0,0,0-141.22-78.7c-.79.32-1.58.67-2.37,1a99,99,0,0,0-10.24,5.27,102,102,0,0,0-29.9,26.72A102.84,102.84,0,0,0,104.67,299.2c1.94,1.46,3.92,2.85,5.93,4.14h0a101.83,101.83,0,0,0,27.15,12.45c1.38.4,2.78.78,4.18,1.11a103.4,103.4,0,0,0,68.38-6.79q3-1.39,5.86-3a101.85,101.85,0,0,0,32.56-28.23c.52-.66,1-1.33,1.48-2,1.8-2.51,3.47-5.08,5-7.68.42-.73.84-1.44,1.24-2.17.27-.48.53-1,.78-1.46s.41-.75.6-1.13c.33-.6.63-1.21.94-1.82s.46-.94.68-1.4l.38-.81c.29-.64.59-1.27.86-1.91.14-.32.28-.64.41-1s.17-.39.25-.58l.57-1.38a3.56,3.56,0,0,0,.17-.41q.76-1.89,1.44-3.81v0c.3-.87.59-1.73.87-2.59.22-.68.43-1.35.63-2,.44-1.47.85-2.94,1.23-4.42.17-.68.34-1.37.49-2.05s.32-1.43.47-2.15c.49-2.35.9-4.71,1.21-7.08A103.1,103.1,0,0,0,268.11,200.8Zm-16.78,29.58c-.24,1.54-.53,3.07-.85,4.6a80.89,80.89,0,0,1-2.16,8.15c-.12.38-.25.77-.37,1.14-.37,1.11-.76,2.21-1.18,3.3,0,0,0,0,0,0-.41,1.07-.84,2.13-1.29,3.19a84.56,84.56,0,0,1-4.27,8.58q-1.94,3.42-4.22,6.72c-.61.85-1.22,1.7-1.86,2.55a85.52,85.52,0,0,1-27.21,23.57c-1.39.76-2.8,1.49-4.23,2.17a86.15,86.15,0,0,1-72.66.77c-1.88-.87-3.75-1.79-5.59-2.8A85.94,85.94,0,0,1,98,165.37a87,87,0,0,1,12.92-13.73q3-2.56,6.25-4.82c.56-.41,1.15-.81,1.74-1.19.38-.26.75-.5,1.13-.74,1.1-.72,2.19-1.38,3.3-2,1.87-1.09,3.79-2.1,5.73-3,1-.48,2-.93,3-1.37A86.91,86.91,0,0,1,155.25,132a85.68,85.68,0,0,1,93.86,61.68,86.91,86.91,0,0,1,3,30.16q-.14,1.68-.33,3.36C251.64,228.24,251.5,229.31,251.33,230.38Z" style="fill:#fff;stroke:#005596;stroke-miterlimit:10;stroke-width:7px"/></svg>