<svg id="icon" xmlns="http://www.w3.org/2000/svg" viewBox="0 0 512 512"><path d="M490.67,256A234.75,234.75,0,0,1,343.38,473.85q-3.92,1.56-7.87,3c-1.46.53-2.94,1-4.41,1.53-2,.68-4,1.32-6,1.94h0q-7.8,2.42-15.82,4.28c-1.26.28-2.53.58-3.81.84-1.52.33-3.07.64-4.62.94l-3.95.74A234.67,234.67,0,0,1,260,490.63l-2.73,0c-.41,0-.83,0-1.25,0q-9.33,0-18.5-.73-8.19-.63-16.26-1.83c-2-.3-4-.62-6-1h0a232,232,0,0,1-27-6.4c-2.6-.79-5.17-1.61-7.72-2.48q-3.33-1.12-6.62-2.36A231.37,231.37,0,0,1,142,461.13c-2.22-1.24-4.42-2.51-6.6-3.83q-4.49-2.69-8.85-5.56c-2.22-1.49-4.44-3-6.61-4.55A234.86,234.86,0,0,1,88,419.81c-2.25-2.31-4.47-4.67-6.61-7.06q-7.44-8.31-14.09-17.27c-.46-.61-.91-1.23-1.34-1.84-2.16-2.95-4.25-6-6.25-9.06-1.35-2-2.65-4.09-3.94-6.18s-2.53-4.2-3.74-6.34h0q-4.86-8.54-9-17.5-3.06-6.56-5.68-13.33a231.86,231.86,0,0,1-12.89-47.1,224.89,224.89,0,0,1-2.56-22.46c0-.18,0-.37-.05-.55-.19-3.05-.33-6.1-.39-9.16q-.11-3-.1-6a234,234,0,0,1,13.23-77.83c.13-.41.26-.8.42-1.19q2.63-7.35,5.71-14.43c.44-1,.91-2.06,1.37-3.1a234.76,234.76,0,0,1,427.07-1.8c2.49,5.39,4.76,10.87,6.85,16.47q2.1,5.59,3.89,11.32a232.72,232.72,0,0,1,9.92,50.19Q490.66,245.68,490.67,256Z" style="fill:#005596"/><path d="M287.47,176.73c-19.24,33.13,1.39,66,1.39,66s65,29.62,95.31-23.29c38-66.36,1.41-136,1.41-136s-8.5,23.3-35,47.46C332.33,147.48,300.57,154.18,287.47,176.73Z" style="fill:#c1d82f"/><path d="M297.13,267.79s3.3,1.4,8.8,3.09c-2.38-3.69-19.93-32.93-3.17-69.19,12.22-26.44,46.84-37.18,65.36-57.5C391,119.08,388,92.76,386.57,85.47l-1-2s7.34,31.73-20.93,60.12c-19.41,19.47-54.47,28.66-67.85,54.53C277.15,236.11,297.13,267.79,297.13,267.79Z" style="fill:#fff"/><path d="M304.32,338.7v0h0a81.92,81.92,0,0,1-7.89,2.53C278,346.33,232.12,353.79,210.2,311c-.15-.31-.32-.61-.45-.92a126.48,126.48,0,0,1-6.64-15.73c1.43-.68,2.84-1.42,4.22-2.18a85.45,85.45,0,0,0,27.22-23.57c.64-.85,1.25-1.69,1.85-2.55,1.53-2.2,2.93-4.44,4.23-6.71a83.6,83.6,0,0,0,4.26-8.59c.46-1.06.88-2.11,1.3-3.19a0,0,0,0,1,0,0c.42-1.1.81-2.19,1.18-3.31.12-.37.25-.75.37-1.13a81,81,0,0,0,2.15-8.16c.33-1.52.61-3.05.86-4.59.17-1.07.31-2.14.44-3.21A117.63,117.63,0,0,0,266.68,238c15.92,9.81,33.75,18.67,42.14,34.83C326.18,306.3,305,337.67,304.32,338.7Z" style="fill:#c1d82f"/><path d="M304.32,338.7v0c-2.81,15.13-9.45,24.64-9.45,24.64s-3.36,1.23-8.94,2.67a70.4,70.4,0,0,0,10.49-24.77,73.82,73.82,0,0,0-4.06-44.21c-6.17-15.2-19.69-25.77-33.47-35.89-4.72-3.48-9.5-6.91-14-10.46.46-1.06.88-2.11,1.3-3.19,4.57,3.43,9.44,6.68,14.36,10,15.16,10.08,30.62,20.36,37.93,36.28A73.79,73.79,0,0,1,304.32,338.7Z" style="fill:#fff"/><path d="M271.79,374.65c-19.24,33.13,1.39,66,1.39,66s65,29.62,95.31-23.29c38-66.36,1.41-136,1.41-136s-8.49,23.3-35,47.46C316.66,345.4,284.89,352.1,271.79,374.65Z" style="fill:#c1d82f"/><path d="M352.44,342.11C335.76,360.43,306,371,291.33,392.2a49.6,49.6,0,0,0-4.25,7.41A75.61,75.61,0,0,0,280,428.38a73.49,73.49,0,0,0,.22,9.23,1.5,1.5,0,0,1,0,.2c.06.74.13,1.45.22,2.15.06.44.1.89.16,1.31a.53.53,0,0,1,0,.16c.13.72.26,1.45.4,2.17a73.91,73.91,0,0,0,24.43,41.84c-1.52.33-3.07.64-4.62.94l-3.95.74a82.47,82.47,0,0,1-23.7-46.47h0a73.55,73.55,0,0,1,8-44.59,54.91,54.91,0,0,1,10.7-14.11,77.93,77.93,0,0,1,6.17-5.38c16.12-12.81,37.38-21.42,51-35.06,27.69-27.8,21.21-58.8,20.95-60.06.07.12.3.58.64,1.31a5.45,5.45,0,0,1,.32.64s0,0,0,.05C372.32,290.77,375.27,317.05,352.44,342.11Z" style="fill:#fff"/><path d="M280,428.16a72.09,72.09,0,0,0,.61,13.12c-.12-.72-.23-1.45-.34-2.18A47.22,47.22,0,0,1,280,428.16Z" style="fill:#fff"/><path d="M267.53,200.73c-6.31-2.45-12.68-4.78-19-7.16-17.23-6.45-34-13.13-47.8-22.65a300.54,300.54,0,0,1-46.06-39c-5.06-5.27-9.46-10.27-13.22-14.84a101.49,101.49,0,0,0-15.14,5c-.8.33-1.59.68-2.38,1a100.11,100.11,0,0,0-10.24,5.28c-1.26,7-2.44,14.78-3.35,23.24-4.19,38.69-2.92,91.24,20.1,143.5a241.57,241.57,0,0,0,10.91,21.76,103.38,103.38,0,0,0,74.24-9.77,102,102,0,0,0,32.57-28.23c.51-.66,1-1.34,1.47-2q2.72-3.76,5-7.68c.42-.72.84-1.44,1.24-2.16.27-.49.54-1,.79-1.46s.41-.76.6-1.14c.32-.6.63-1.21.93-1.82s.72-1.47,1.06-2.2.59-1.27.87-1.91.45-1,.66-1.55l.57-1.37c.05-.14.11-.28.15-.41h0c.52-1.26,1-2.54,1.44-3.82,0,0,0,0,0,0,.31-.86.59-1.72.88-2.58.22-.69.43-1.36.63-2,.44-1.47.85-2.94,1.22-4.42.17-.69.34-1.37.5-2.05.7-3.06,1.27-6.15,1.68-9.24A102.69,102.69,0,0,0,267.53,200.73ZM156.85,179.27q-1.57-1.76-3.08-3.53a65.13,65.13,0,0,1-2.85-20.28l.7-2.23S150.83,164.76,156.85,179.27Zm-29,30c.14-.13.75-.68,1.72-1.53a68.79,68.79,0,0,1,38.69-5.64c1.41.19,2.85.42,4.32.73.83.14,1.66.32,2.51.52,2.1,1.63,4.27,3.2,6.5,4.73-1.82-.67-3.6-1.26-5.37-1.77s-3.63-1-5.41-1.35C146.4,199.81,128.67,208.83,127.82,209.27Z" style="fill:#c1d82f"/><path d="M265.71,242.24c-.37,1.48-.78,2.95-1.22,4.42s-1,3.11-1.52,4.64c-4.46-2.58-9-5.05-13.69-7.45l-1.53-.8c-.95-.48-1.89-1-2.85-1.43q-3.74-1.91-7.52-3.73c-4.21-2.07-8.45-4.11-12.66-6.15l-5-2.43q-2.59-1.26-5.16-2.53c-1.74-.86-3.47-1.72-5.19-2.6l-2.66-1.37a237.21,237.21,0,0,1-25.14-14.72h0c-2.23-1.53-4.4-3.1-6.5-4.73-1.32-1-2.6-2-3.86-3.1s-2.68-2.29-4-3.44c-2.76-2.46-5.36-5-7.8-7.47a133.8,133.8,0,0,1-30.94-49.59,124.47,124.47,0,0,1-4.55-16.7c.79-.35,1.58-.7,2.38-1a127.86,127.86,0,0,0,5.15,16.35,132.32,132.32,0,0,0,22.3,37.37q1.5,1.77,3.08,3.53a152.51,152.51,0,0,0,20.69,19,166.68,166.68,0,0,0,26,15.89c1.07.55,2.14,1.08,3.24,1.61,13.79,6.77,28.6,12.72,43.1,19.14,4.93,2.18,9.84,4.43,14.65,6.78Z" style="fill:#fff"/><path d="M206.8,215.76c-1.1-.53-2.17-1.06-3.24-1.61a67.51,67.51,0,0,1-6.83-30.58c.42-1.42.68-2.24.68-2.24S196.3,197.56,206.8,215.76Z" style="fill:#fff;stroke:#fff;stroke-miterlimit:10;stroke-width:1.05061817169189px"/><path d="M181.56,208.08c-29.78-11-52.76.68-53.74,1.19.14-.13.75-.68,1.72-1.53,5.54-2.71,22.86-9.66,45.52-4.39C177.16,205,179.33,206.55,181.56,208.08Z" style="fill:#fff;stroke:#fff;stroke-miterlimit:10;stroke-width:1.05061817169189px"/><path d="M265.82,241.79c0,.15-.07.3-.11.45-.37,1.48-.78,2.95-1.22,4.42-5.07-.8-10.15-1.81-15.21-2.81-12.48-2.47-24.81-4.91-36.35-4.31-41.37,2.15-58.14,31.16-58.65,32.06,0-.15.25-1,.63-2.23,4-6.68,20.23-29.3,55.75-32.73,8.5-.82,17.52,0,26.72,1.25,9,1.21,18.12,2.85,27.17,3.79Z" style="fill:#fff;stroke:#fff;stroke-miterlimit:10;stroke-width:1.05061817169189px"/><path d="M156.85,179.27q-1.57-1.76-3.08-3.53a65.13,65.13,0,0,1-2.85-20.28l.7-2.23S150.83,164.76,156.85,179.27Z" style="fill:#fff;stroke:#fff;stroke-miterlimit:10;stroke-width:0.787963628768921px"/><path d="M115.24,296.37l-5.2,6.89-14.69,19.5L94.76,338,59.7,384.58c-1.35-2-2.65-4.09-3.94-6.18s-2.53-4.2-3.74-6.34h0q-4.86-8.54-9-17.5-3.06-6.56-5.68-13.33l22.33-29.67,14.5-4.75,15.62-20.75,4.28-5.66Z" style="fill:#fff"/><path d="M267.54,200.73A103,103,0,0,0,126.32,122c-.8.33-1.58.67-2.37,1a101.08,101.08,0,0,0-10.25,5.26A102.94,102.94,0,0,0,89.77,286.06a103.46,103.46,0,0,0,14.33,13.07C106,300.58,108,302,110,303.26h0a101.21,101.21,0,0,0,27.15,12.45c1.38.41,2.77.79,4.18,1.11A103.4,103.4,0,0,0,209.75,310q3-1.4,5.86-3a102,102,0,0,0,32.56-28.24c.52-.65,1-1.32,1.47-2q2.72-3.76,5-7.68c.42-.72.85-1.44,1.24-2.16.28-.48.54-1,.79-1.47s.4-.75.59-1.13c.34-.59.63-1.2.94-1.82.24-.46.47-.93.68-1.39l.38-.81c.3-.65.6-1.28.86-1.92.14-.31.29-.63.42-.95s.16-.39.25-.59q.29-.67.57-1.38a4.34,4.34,0,0,0,.17-.4c.51-1.26,1-2.54,1.44-3.81v0c.3-.87.58-1.73.87-2.6.21-.68.43-1.34.63-2,.44-1.46.84-2.94,1.22-4.41.17-.68.35-1.37.49-2.05s.32-1.44.48-2.15c.49-2.35.89-4.72,1.2-7.09A103,103,0,0,0,267.54,200.73Zm-16.78,29.58c-.25,1.54-.53,3.07-.86,4.59a81,81,0,0,1-2.15,8.16c-.12.38-.25.76-.37,1.13-.37,1.12-.76,2.21-1.18,3.31a0,0,0,0,0,0,0c-.42,1.08-.84,2.13-1.3,3.19a83.6,83.6,0,0,1-4.26,8.59c-1.3,2.27-2.7,4.51-4.23,6.71-.6.86-1.21,1.7-1.85,2.55a85.45,85.45,0,0,1-27.22,23.57c-1.38.76-2.79,1.5-4.22,2.18a86.16,86.16,0,0,1-72.66.76c-1.88-.87-3.75-1.78-5.59-2.8a84.78,84.78,0,0,1-10.5-6.78,85.9,85.9,0,0,1-4-133.93c2-1.7,4.1-3.31,6.25-4.81.55-.42,1.15-.81,1.73-1.19l1.13-.75c1.11-.71,2.19-1.37,3.3-2,1.87-1.1,3.8-2.1,5.74-3,1-.49,2-.94,3-1.37a86.53,86.53,0,0,1,23.22-6.49,85.7,85.7,0,0,1,93.86,61.68,86.72,86.72,0,0,1,3,30.17c-.08,1.12-.2,2.24-.32,3.36S250.93,229.24,250.76,230.31Z" style="fill:#fff;stroke:#005596;stroke-miterlimit:10;stroke-width:7px"/></svg>