<svg id="icon" xmlns="http://www.w3.org/2000/svg" viewBox="0 0 512 512"><path d="M255.42,380.64a124.41,124.41,0,0,1-43.27-7.72" style="fill:none;stroke:#005696;stroke-linecap:round;stroke-linejoin:round;stroke-width:7px"/><path d="M254.85,487.17A231.17,231.17,0,0,1,91.39,92.54,231.17,231.17,0,1,1,418.31,419.46,229.66,229.66,0,0,1,254.85,487.17Z" style="fill:#fff"/><path d="M254.85,28.33a227.73,227.73,0,0,1,88.61,437.45A227.73,227.73,0,0,1,166.23,46.22a226.27,226.27,0,0,1,88.62-17.89m0-7C125.25,21.33,20.18,126.4,20.18,256S125.25,490.67,254.85,490.67,489.52,385.6,489.52,256,384.45,21.33,254.85,21.33Z" style="fill:#005696"/><rect x="112.51" y="272.41" width="90.71" height="126.6" rx="4.79" style="fill:#fff"/><path d="M198.43,273.75a3.45,3.45,0,0,1,3.44,3.45v117a3.44,3.44,0,0,1-3.44,3.45H117.3a3.44,3.44,0,0,1-3.45-3.45v-117a3.45,3.45,0,0,1,3.45-3.45h81.13m0-2.69H117.3a6.15,6.15,0,0,0-6.14,6.14v117a6.14,6.14,0,0,0,6.14,6.14h81.13a6.14,6.14,0,0,0,6.13-6.14v-117a6.15,6.15,0,0,0-6.13-6.14Z" style="fill:#005696"/><path d="M157.86,389.5a33.65,33.65,0,1,1,33.64-33.65A33.68,33.68,0,0,1,157.86,389.5Z" style="fill:#fff"/><path d="M157.86,323.56a32.3,32.3,0,1,1-32.3,32.3,32.3,32.3,0,0,1,32.3-32.3m0-2.69a35,35,0,1,0,35,35,35,35,0,0,0-35-35Z" style="fill:#005696"/><path d="M157.86,379.26a23.41,23.41,0,1,1,23.4-23.4A23.43,23.43,0,0,1,157.86,379.26Zm0-41.43a18,18,0,1,0,18,18A18,18,0,0,0,157.86,337.83Z" style="fill:#005696"/><circle cx="157.86" cy="355.86" r="9.39" style="fill:#005696"/><circle cx="177.5" cy="336.22" r="1.74" style="fill:#005696"/><circle cx="177.5" cy="375.49" r="1.74" style="fill:#005696"/><circle cx="138.23" cy="375.49" r="1.74" style="fill:#005696"/><circle cx="138.23" cy="336.22" r="1.74" style="fill:#005696"/><circle cx="185.63" cy="355.86" r="1.74" style="fill:#005696"/><circle cx="130.09" cy="355.86" r="1.74" style="fill:#005696"/><rect x="150.74" y="383.27" width="13.02" height="13.02" style="fill:#fff"/><path d="M162.42,384.61V395H152.08V384.61h10.34m2.69-2.69H149.39v15.71h15.72V381.92Z" style="fill:#005696"/><circle cx="157.25" cy="389.78" r="2.83" style="fill:#005696"/><path d="M157.25,328.47A24.72,24.72,0,1,1,182,303.75,24.74,24.74,0,0,1,157.25,328.47Z" style="fill:#fff"/><path d="M157.25,280.38a23.37,23.37,0,1,1-23.37,23.37,23.37,23.37,0,0,1,23.37-23.37m0-2.68a26.06,26.06,0,1,0,26.06,26.05,26.08,26.08,0,0,0-26.06-26.05Z" style="fill:#005696"/><circle cx="157.25" cy="303.75" r="7.51" style="fill:#005696"/><circle cx="167.01" cy="293.99" r="1.79" style="fill:#005696"/><circle cx="167.01" cy="313.51" r="1.79" style="fill:#005696"/><circle cx="147.49" cy="313.51" r="1.79" style="fill:#005696"/><circle cx="147.49" cy="293.99" r="1.79" style="fill:#005696"/><polyline points="318.48 334.53 266.76 334.53 266.76 388.05 320.71 388.05" style="fill:#fff;stroke:#005696;stroke-miterlimit:10;stroke-width:2.44480660314302px"/><polyline points="368.5 334.53 395.84 334.53 395.84 388.05 366.27 388.05" style="fill:#fff;stroke:#005696;stroke-miterlimit:10;stroke-width:2.44480660314302px"/><path d="M323.33,330.57H266.76v-8.72a1.69,1.69,0,0,1,1.69-1.68H394.16a1.68,1.68,0,0,1,1.68,1.68v8.72H363.65" style="fill:#fff;stroke:#005696;stroke-miterlimit:10;stroke-width:2.44480660314302px"/><path d="M360.2,392.09h35.64v5.74a1.68,1.68,0,0,1-1.68,1.68H268.45a1.69,1.69,0,0,1-1.69-1.68v-5.74h60" style="fill:#fff;stroke:#005696;stroke-miterlimit:10;stroke-width:2.44480660314302px"/><path d="M272.1,310.62h21.35A1.57,1.57,0,0,1,295,312.2v4a0,0,0,0,1,0,0H270.53a0,0,0,0,1,0,0v-4A1.57,1.57,0,0,1,272.1,310.62Z" style="fill:#fff;stroke:#005696;stroke-miterlimit:10;stroke-width:2.44480660314302px"/><path d="M297.78,306.47h19.88a1.68,1.68,0,0,1,1.68,1.68v8.09a0,0,0,0,1,0,0H296.09a0,0,0,0,1,0,0v-8.09A1.68,1.68,0,0,1,297.78,306.47Z" style="fill:#fff;stroke:#005696;stroke-miterlimit:10;stroke-width:2.44480660314302px"/><path d="M370,306.47h19.88a1.68,1.68,0,0,1,1.68,1.68v8.09a0,0,0,0,1,0,0H368.28a0,0,0,0,1,0,0v-8.09A1.68,1.68,0,0,1,370,306.47Z" style="fill:#fff;stroke:#005696;stroke-miterlimit:10;stroke-width:2.44480660314302px"/><path d="M366.59,316.24H320.41l8.07-14.94a1.69,1.69,0,0,1,1.48-.89H357a1.67,1.67,0,0,1,1.48.89Z" style="fill:#fff;stroke:#005696;stroke-miterlimit:10;stroke-width:2.44480660314302px"/><path d="M343.5,396.21a35.93,35.93,0,1,1,35.92-35.92A36,36,0,0,1,343.5,396.21Zm0-65.8a29.88,29.88,0,1,0,29.88,29.88A29.91,29.91,0,0,0,343.5,330.41Z" style="fill:#fff;stroke:#005696;stroke-miterlimit:10;stroke-width:2.44480660314302px"/><path d="M366.89,360.29a23.39,23.39,0,1,1-12.46-20.68,8,8,0,1,0,9.75,9.74A23.29,23.29,0,0,1,366.89,360.29Z" style="fill:#fff;stroke:#005696;stroke-miterlimit:10;stroke-width:2.44480660314302px"/><path d="M126.11,151.4v-7.6a30.38,30.38,0,0,1,7.74-20.71v17.78h6.43V118a22,22,0,0,1,7.13-2.41v25.24h6.44V115.63A21.93,21.93,0,0,1,161,118v22.83h6.43V123.1l.5.55a30.62,30.62,0,0,1,7.23,20.15v7.6Z" style="fill:#fff"/><path d="M146.27,117v25H155V117a20.73,20.73,0,0,1,4.84,1.73V142h8.73V126.32A29.85,29.85,0,0,1,174,143.8v6.46H127.26V143.8a29.82,29.82,0,0,1,5.44-17.49V142h8.73V118.73a20.86,20.86,0,0,1,4.84-1.72m6.43-2.68v25.39h-4.14V114.33a23,23,0,0,0-9.42,3v22.35H135V120.37a31.23,31.23,0,0,0-10,23.43v8.75H176.3V143.8a31.84,31.84,0,0,0-7.51-20.9,26.17,26.17,0,0,0-2.52-2.53v19.35h-4.13V117.37a23.11,23.11,0,0,0-9.44-3Z" style="fill:#005696"/><path d="M147.41,194.94a21.71,21.71,0,0,1-7.13-2.4V169.72h-6.43v17.76a30.35,30.35,0,0,1-7.74-20.69v-7.62h49v7.62a30.39,30.39,0,0,1-7.73,20.69V169.72H161v22.82a21.84,21.84,0,0,1-7.14,2.4V169.72h-6.44Z" style="fill:#fff"/><path d="M174,160.32v6.47a29.83,29.83,0,0,1-5.44,17.48v-15.7h-8.73v23.27a21.06,21.06,0,0,1-4.84,1.73v-25h-8.73v25a20.89,20.89,0,0,1-4.84-1.73V168.57H132.7v15.7a29.83,29.83,0,0,1-5.44-17.48v-6.47H174M176.3,158H125v8.76a31.22,31.22,0,0,0,10,23.42V170.86h4.15v22.35a23,23,0,0,0,9.42,3V170.86h4.14v25.38a23.1,23.1,0,0,0,9.44-3V170.86h4.13v19.35a31.19,31.19,0,0,0,10-23.42V158Z" style="fill:#005696"/><path d="M187.05,159v13c0,18.5-13.52,33.83-31,36.17v8.27h10.49a6.06,6.06,0,0,1,5.77,6.3H129a6.59,6.59,0,0,1,1.69-4.46,5.49,5.49,0,0,1,4.07-1.84h10.5v-8.27c-17.47-2.34-31-17.67-31-36.17V159a6.36,6.36,0,0,1,6.06-6.62V172a29.77,29.77,0,0,0,29.63,29.86h1.48A29.76,29.76,0,0,0,181,172V152.38a5.8,5.8,0,0,1,4.29,1.94A6.94,6.94,0,0,1,187.05,159Z" style="fill:#fff;stroke:#005696;stroke-miterlimit:10;stroke-width:2.29482289814389px"/><path d="M391.84,230.38a1.1,1.1,0,0,1-.47-.1L308.19,194a1.17,1.17,0,0,1-.71-1.08v-75.4a1.18,1.18,0,0,1,1.18-1.18,1.1,1.1,0,0,1,.47.1l83.18,36.25a1.17,1.17,0,0,1,.71,1.08v75.4A1.18,1.18,0,0,1,391.84,230.38Z" style="fill:#fff"/><path d="M309.52,118.86,391,154.36v73.53l-81.46-35.5V118.86m-.86-4.53a3.22,3.22,0,0,0-3.22,3.22V193a3.22,3.22,0,0,0,1.93,3l83.18,36.25a3.32,3.32,0,0,0,1.29.27,3.22,3.22,0,0,0,3.21-3.22V153.8a3.2,3.2,0,0,0-1.93-3L309.94,114.6a3.27,3.27,0,0,0-1.28-.27Z" style="fill:#005696"/><path d="M387.71,156.08v67a.22.22,0,0,1-.21.22l-.08,0-74.5-32.47a.19.19,0,0,1-.14-.19v-67c0-.2.22-.22.22-.22l.09,0,74.49,32.46A.23.23,0,0,1,387.71,156.08Z" style="fill:#fff;stroke:#005696;stroke-miterlimit:10;stroke-width:2.44480660314302px"/><path d="M393.58,242.43l-55.07,29.13a1.87,1.87,0,0,1-1.63.06l-87.65-38.19a1.88,1.88,0,0,1-1.13-1.73v-2.33a1.88,1.88,0,0,1,1-1.67l55.07-29.13a1.9,1.9,0,0,1,1.63-.06l87.66,38.2a1.88,1.88,0,0,1,1.12,1.72v2.34A1.88,1.88,0,0,1,393.58,242.43Z" style="fill:#fff;stroke:#005696;stroke-miterlimit:10;stroke-width:4.07467767190503px"/><path d="M336.58,265.67,251.8,228.26a1.05,1.05,0,0,1-.07-1.9l52.56-27.46a1.06,1.06,0,0,1,.92,0l85.45,36.55a1.06,1.06,0,0,1,.07,1.91l-53.24,28.3A1,1,0,0,1,336.58,265.67Z" style="fill:#fff;stroke:#005696;stroke-miterlimit:10;stroke-width:2.44480660314302px"/><polygon points="286.61 218.44 286.61 218.31 308.39 206.19 374.13 235.81 374.13 235.94 352.36 248.05 286.61 218.44" style="fill:#fff"/><path d="M308.44,207.57,371.53,236l-19.22,10.7-63.1-28.41,19.23-10.7m-.06-2.6a1.21,1.21,0,0,0-.58.16L286,217.24a1.31,1.31,0,0,0,.09,2.32l65.76,29.61a1.24,1.24,0,0,0,.49.11,1.27,1.27,0,0,0,.59-.16L374.72,237a1.31,1.31,0,0,0-.09-2.31l-65.76-29.62a1.24,1.24,0,0,0-.49-.11Z" style="fill:#005696"/><polygon points="284.05 237.09 296.62 230.67 323.53 242.13 310.99 248.54 284.05 237.09" style="fill:#fff"/><path d="M296.65,232l24,10.2-9.71,5-24-10.2,9.71-5m-.06-2.6a1.07,1.07,0,0,0-.46.11l-13.05,6.67a1,1,0,0,0,.07,1.82l27.45,11.68a1.1,1.1,0,0,0,.4.08,1,1,0,0,0,.45-.11L324.5,243a1,1,0,0,0-.06-1.82L297,229.51a1,1,0,0,0-.39-.08Z" style="fill:#005696"/><polygon points="312.87 175.12 313 163.39 350.16 139.68 361 144.32 312.87 175.12" style="fill:#fff;stroke:#005696;stroke-miterlimit:10;stroke-width:2.44480660314302px"/><path d="M195.81,146.52a124.94,124.94,0,0,1,100.74-8.21" style="fill:none;stroke:#005696;stroke-linecap:round;stroke-linejoin:round;stroke-width:7px"/><path d="M132.6,234.67A126,126,0,0,0,130.79,256c0,2.75.08,5.49.26,8.2" style="fill:none;stroke:#005696;stroke-linecap:round;stroke-linejoin:round;stroke-width:7.7468px"/><path d="M379.74,264.94a124.25,124.25,0,0,1-5.65,29.28" style="fill:none;stroke:#005696;stroke-linecap:round;stroke-linejoin:round;stroke-width:7px"/></svg>