<svg id="icon" xmlns="http://www.w3.org/2000/svg" viewBox="0 0 512 512"><path d="M490.66,256A234.65,234.65,0,0,1,331.09,478.38c-2,.69-4,1.33-6,1.94h0c-5.2,1.6-10.49,3-15.83,4.27-2.8.66-5.61,1.25-8.42,1.79A234.84,234.84,0,0,1,260,490.63l-2.72,0H256q-9.34,0-18.49-.71c-5.48-.42-10.91-1.05-16.28-1.84-2-.29-4-.62-6-1h0a230.46,230.46,0,0,1-27-6.4c-2.58-.78-5.17-1.62-7.71-2.47-2.23-.75-4.42-1.54-6.61-2.37A230.32,230.32,0,0,1,142,461.13q-3.35-1.86-6.61-3.83c-3-1.78-5.94-3.65-8.83-5.56-2.24-1.48-4.44-3-6.62-4.56A235.3,235.3,0,0,1,88,419.82c-2.25-2.31-4.46-4.68-6.6-7.07q-7.45-8.29-14.1-17.27c-4.07-5.5-7.92-11.21-11.51-17.08-1.29-2.09-2.55-4.19-3.75-6.33h0a232.78,232.78,0,0,1-27.6-77.93c-1.21-7.37-2.08-14.87-2.56-22.47,0-.17,0-.36,0-.54-.2-3-.35-6.09-.41-9.15-.07-2-.08-4-.08-6a234.16,234.16,0,0,1,13.21-77.84c.13-.39.28-.79.42-1.18q2.63-7.33,5.71-14.43l1.37-3.09a234.77,234.77,0,0,1,427.08-1.81q3.72,8.08,6.84,16.47c1.41,3.73,2.69,7.5,3.89,11.31a232.93,232.93,0,0,1,9.92,50.2Q490.65,245.7,490.66,256Z" style="fill:#005596"/><rect x="209.5" y="113.62" width="178.14" height="291.53" style="fill:#c1d82f"/><rect x="226.11" y="130.01" width="24.58" height="22.8" style="fill:#005596"/><rect x="226.11" y="156.04" width="24.58" height="22.8" style="fill:#005596"/><rect x="266.22" y="130.01" width="24.58" height="22.8" style="fill:#005596"/><rect x="266.22" y="156.04" width="24.58" height="22.8" style="fill:#005596"/><rect x="306.34" y="130.01" width="24.58" height="22.8" style="fill:#005596"/><rect x="306.34" y="156.04" width="24.58" height="22.8" style="fill:#005596"/><rect x="346.45" y="130.01" width="24.58" height="22.8" style="fill:#005596"/><rect x="346.45" y="156.04" width="24.58" height="22.8" style="fill:#005596"/><rect x="226.11" y="192.14" width="24.58" height="22.8" style="fill:#005596"/><rect x="226.11" y="218.17" width="24.58" height="22.8" style="fill:#005596"/><rect x="266.22" y="192.14" width="24.58" height="22.8" style="fill:#005596"/><rect x="266.22" y="218.17" width="24.58" height="22.8" style="fill:#005596"/><rect x="306.34" y="192.14" width="24.58" height="22.8" style="fill:#005596"/><rect x="306.34" y="218.17" width="24.58" height="22.8" style="fill:#005596"/><rect x="346.45" y="192.14" width="24.58" height="22.8" style="fill:#005596"/><rect x="346.45" y="218.17" width="24.58" height="22.8" style="fill:#005596"/><rect x="226.11" y="254.28" width="24.58" height="22.8" style="fill:#005596"/><rect x="226.11" y="280.31" width="24.58" height="22.8" style="fill:#005596"/><rect x="266.22" y="254.28" width="24.58" height="22.8" style="fill:#005596"/><rect x="266.22" y="280.31" width="24.58" height="22.8" style="fill:#005596"/><rect x="306.34" y="254.28" width="24.58" height="22.8" style="fill:#005596"/><rect x="306.34" y="280.31" width="24.58" height="22.8" style="fill:#005596"/><rect x="346.45" y="254.28" width="24.58" height="22.8" style="fill:#005596"/><rect x="346.45" y="280.31" width="24.58" height="22.8" style="fill:#005596"/><rect x="226.11" y="317.09" width="24.58" height="22.8" style="fill:#005596"/><rect x="226.11" y="343.13" width="24.58" height="22.8" style="fill:#005596"/><rect x="266.22" y="317.09" width="24.58" height="22.8" style="fill:#005596"/><rect x="266.22" y="343.13" width="24.58" height="22.8" style="fill:#005596"/><rect x="306.34" y="317.09" width="24.58" height="22.8" style="fill:#005596"/><rect x="306.34" y="343.13" width="24.58" height="22.8" style="fill:#005596"/><rect x="346.45" y="317.09" width="24.58" height="22.8" style="fill:#005596"/><rect x="346.45" y="343.13" width="24.58" height="22.8" style="fill:#005596"/><rect x="198.57" y="105.05" width="199.99" height="9.33" style="fill:#fff"/><rect x="225.09" y="97.16" width="146.97" height="11.07" style="fill:#fff"/><path d="M101.87,408.65l16.58-24.75h8.68v-114h-12.8a4.61,4.61,0,0,1-1.8-8.86l78.52-33,78.51,33a4.61,4.61,0,0,1-1.78,8.86H255v114h8.67l16.58,24.75Z" style="fill:#fff"/><path d="M191.05,231.86l77.16,32.39a1.11,1.11,0,0,1-.43,2.13h-16.3v121h10.3l11.89,17.75H108.43l11.89-17.75h10.31v-121h-16.3a1.11,1.11,0,0,1-.43-2.13l77.15-32.39m0-7.6-2.71,1.14-77.15,32.39a8.11,8.11,0,0,0,3.14,15.59h9.3v107h-7l-2.08,3.1-11.89,17.75-7.3,10.9H286.78l-7.3-10.9L267.59,383.5l-2.08-3.1h-7v-107h9.3a8.11,8.11,0,0,0,3.16-15.58l-77.18-32.4-2.71-1.14Z" style="fill:#005596"/><path d="M228,274h0a12.37,12.37,0,0,1,12.37,12.37v23.3a0,0,0,0,1,0,0H215.61a0,0,0,0,1,0,0v-23.3A12.37,12.37,0,0,1,228,274Z" style="fill:#005596"/><path d="M191.15,274h0a12.37,12.37,0,0,1,12.37,12.37v23.3a0,0,0,0,1,0,0H178.78a0,0,0,0,1,0,0v-23.3A12.37,12.37,0,0,1,191.15,274Z" style="fill:#005596"/><path d="M154.12,274h0a12.37,12.37,0,0,1,12.37,12.37v23.3a0,0,0,0,1,0,0H141.75a0,0,0,0,1,0,0v-23.3A12.37,12.37,0,0,1,154.12,274Z" style="fill:#005596"/><path d="M228,331.85h0a12.37,12.37,0,0,1,12.37,12.37v23.3a0,0,0,0,1,0,0H215.61a0,0,0,0,1,0,0v-23.3A12.37,12.37,0,0,1,228,331.85Z" style="fill:#005596"/><path d="M154.12,331.85h0a12.37,12.37,0,0,1,12.37,12.37v23.3a0,0,0,0,1,0,0H141.75a0,0,0,0,1,0,0v-23.3a12.37,12.37,0,0,1,12.37-12.37Z" style="fill:#005596"/><rect x="176.71" y="342.33" width="28.68" height="62.82" style="fill:#c1d82f"/></svg>