<svg id="icon" xmlns="http://www.w3.org/2000/svg" viewBox="0 0 512 512"><path d="M490.67,256a234.67,234.67,0,1,1-469.34,0C21.33,126.4,126.4,21.33,256,21.33S490.67,126.4,490.67,256Z" style="fill:#005596"/><path d="M373,395a5.43,5.43,0,0,1-3.87-1.61l-56.26-56.26H184.32a13,13,0,0,1-13-13V210.41a23.64,23.64,0,0,1,23.62-23.62H400.75a13,13,0,0,1,13,13V324.15a13,13,0,0,1-13,13H378.47v52.37a5.45,5.45,0,0,1-1.73,4A5.57,5.57,0,0,1,373,395Z" style="fill:#fff"/><path d="M400.75,189.79a10,10,0,0,1,10,10V324.15a10,10,0,0,1-10,10H378a2.49,2.49,0,0,0-2.5,2.5v52.87A2.5,2.5,0,0,1,373,392a2.43,2.43,0,0,1-1.75-.73l-57.14-57.14H184.32a10,10,0,0,1-10-10V210.41a20.62,20.62,0,0,1,20.62-20.62H400.75m0-6H194.94a26.65,26.65,0,0,0-26.62,26.62V324.15a16,16,0,0,0,16,16H311.57L367,395.53a8.43,8.43,0,0,0,6,2.49,8.52,8.52,0,0,0,8.52-8.5V340.15h19.28a16,16,0,0,0,16-16V199.79a16,16,0,0,0-16-16Z" style="fill:#005596"/><rect x="200.39" y="223.1" width="156.62" height="7" rx="3.14" style="fill:#005596"/><rect x="200.39" y="294.37" width="147.25" height="7" rx="3.14" style="fill:#005596"/><rect x="200.39" y="258.73" width="179.97" height="7" rx="3.14" style="fill:#005596"/><path d="M133.2,291.08a5.55,5.55,0,0,1-3.79-1.49,5.47,5.47,0,0,1-1.73-4V243.39H111.25a13,13,0,0,1-13-13V130a13,13,0,0,1,13-13H288.46a13,13,0,0,1,13,13V230.39a13,13,0,0,1-13,13H183.14l-46.07,46.08A5.45,5.45,0,0,1,133.2,291.08Z" style="fill:#b9d532"/><path d="M288.46,120a10,10,0,0,1,10,10V230.39a10,10,0,0,1-10,10H182.94a2.53,2.53,0,0,0-1.77.73L135,287.34a2.46,2.46,0,0,1-1.75.74,2.5,2.5,0,0,1-2.52-2.5V240.39H111.25a10,10,0,0,1-10-10V130a10,10,0,0,1,10-10H288.46m0-6H111.25a16,16,0,0,0-16,16V230.39a16,16,0,0,0,16,16h13.43v39.19a8.52,8.52,0,0,0,8.52,8.5,8.4,8.4,0,0,0,6-2.49l45.2-45.2H288.46a16,16,0,0,0,16-16V130a16,16,0,0,0-16-16Z" style="fill:#005596"/><path d="M196.94,183.93a50.14,50.14,0,0,1,7.39-8.09,42.93,42.93,0,0,0,5.24-5.44,8.15,8.15,0,0,0,1.67-5,7.4,7.4,0,0,0-3.18-6.31,14.07,14.07,0,0,0-8.47-2.32,18.84,18.84,0,0,0-9,2.1,19.22,19.22,0,0,0-6.63,5.88l-13.06-7.66a30.22,30.22,0,0,1,12.25-10.68,41.24,41.24,0,0,1,18.28-3.77q12.41,0,19.9,5.28a17,17,0,0,1,7.5,14.68,19.32,19.32,0,0,1-1.45,7.76,20.93,20.93,0,0,1-3.56,5.67c-1.41,1.54-3.22,3.32-5.45,5.33a45.61,45.61,0,0,0-5.83,6,9.49,9.49,0,0,0-1.83,5.88H194.41A16,16,0,0,1,196.94,183.93Zm-1.72,33.5a9.29,9.29,0,0,1-3-7,9,9,0,0,1,2.92-6.85,11.44,11.44,0,0,1,14.88,0,9.05,9.05,0,0,1,2.91,6.85,9.32,9.32,0,0,1-3,7,11,11,0,0,1-14.78,0Z" style="fill:#005596"/></svg>