<svg id="icon" xmlns="http://www.w3.org/2000/svg" viewBox="0 0 512 512"><circle cx="256" cy="256" r="234.67" style="fill:#005596"/><path d="M143.65,385.21a40.46,40.46,0,0,1-40.41-40.41v-5a5.87,5.87,0,0,1,5.87-5.86H402.89a5.87,5.87,0,0,1,5.87,5.86v5a40.46,40.46,0,0,1-40.41,40.41Z" style="fill:#fff"/><path d="M402.89,337.34a2.51,2.51,0,0,1,2.5,2.5v5a37.15,37.15,0,0,1-37,37.05H143.65a37.15,37.15,0,0,1-37-37.05v-5a2.51,2.51,0,0,1,2.5-2.5H402.89m0-6.72H109.11a9.24,9.24,0,0,0-9.23,9.22v5a43.83,43.83,0,0,0,43.77,43.77h224.7a43.83,43.83,0,0,0,43.77-43.77v-5a9.24,9.24,0,0,0-9.23-9.22Z" style="fill:#005596"/><path d="M213.28,357.62a17.46,17.46,0,0,1-17.44-17.45A6.19,6.19,0,0,1,202,334H310a6.19,6.19,0,0,1,6.19,6.19,17.46,17.46,0,0,1-17.44,17.45Z" style="fill:#fff"/><path d="M310,337.34a2.84,2.84,0,0,1,2.83,2.83,14.12,14.12,0,0,1-14.08,14.08H213.28a14.12,14.12,0,0,1-14.08-14.08,2.84,2.84,0,0,1,2.83-2.83H310m0-6.72H202a9.56,9.56,0,0,0-9.55,9.55A20.83,20.83,0,0,0,213.28,361h85.44a20.83,20.83,0,0,0,20.8-20.81,9.56,9.56,0,0,0-9.55-9.55Z" style="fill:#005596"/><rect x="103.24" y="126.79" width="305.51" height="193.47" rx="13.36" style="fill:#b9d532"/><path d="M395.39,130.15a10,10,0,0,1,10,10V306.9a10,10,0,0,1-10,10H116.61a10,10,0,0,1-10-10V140.15a10,10,0,0,1,10-10H395.39m0-6.72H116.61a16.74,16.74,0,0,0-16.73,16.72V306.9a16.74,16.74,0,0,0,16.73,16.72H395.39a16.75,16.75,0,0,0,16.73-16.72V140.15a16.75,16.75,0,0,0-16.73-16.72Z" style="fill:#005596"/><polygon points="197.87 291.69 197.87 193.73 255.82 159.78 314.13 193.73 314.13 291.69 197.87 291.69" style="fill:#fff"/><path d="M255.83,163.68l54.94,32v92.67H201.23V195.66l54.6-32m0-7.79-3.38,2-54.6,32-3.33,1.95V295.05h123V191.79l-3.34-1.94-55-32-3.4-2Z" style="fill:#005596"/><rect x="295.91" y="151.99" width="18.26" height="37.29" rx="5" style="fill:#fff"/><path d="M309.17,155.35a1.65,1.65,0,0,1,1.64,1.64v27.29a1.65,1.65,0,0,1-1.64,1.64h-8.26a1.65,1.65,0,0,1-1.64-1.64V157a1.65,1.65,0,0,1,1.64-1.64h8.26m0-6.72h-8.26a8.37,8.37,0,0,0-8.36,8.36v27.29a8.37,8.37,0,0,0,8.36,8.36h8.26a8.38,8.38,0,0,0,8.37-8.36V157a8.38,8.38,0,0,0-8.37-8.36Z" style="fill:#005596"/><path d="M188.52,201.18a3.4,3.4,0,0,1-1.79-.51,3.36,3.36,0,0,1-1.57-2.85v-9.45a3.36,3.36,0,0,1,1.91-3L254.54,153a3.38,3.38,0,0,1,1.46-.33,3.34,3.34,0,0,1,1.45.33l67.48,32.39a3.36,3.36,0,0,1,1.91,3v9.45a3.36,3.36,0,0,1-1.57,2.85,3.4,3.4,0,0,1-3.25.18l-66-31.69-66,31.69A3.38,3.38,0,0,1,188.52,201.18Z" style="fill:#fff"/><path d="M256,156l67.48,32.39v9.45L256,165.43l-67.48,32.39v-9.45L256,156m0-6.72a6.73,6.73,0,0,0-2.91.66l-67.48,32.39a6.73,6.73,0,0,0-3.81,6.06v9.45a6.71,6.71,0,0,0,6.72,6.72,6.62,6.62,0,0,0,2.91-.66l64.57-31,64.57,31a6.74,6.74,0,0,0,6.49-.37,6.71,6.71,0,0,0,3.14-5.69v-9.45a6.73,6.73,0,0,0-3.81-6.06l-67.48-32.39a6.73,6.73,0,0,0-2.91-.66Z" style="fill:#005596"/><path d="M260.23,291.09v-86.5a2.8,2.8,0,0,1,2.8-2.8h28.24a2.8,2.8,0,0,1,2.8,2.8v86.5" style="fill:#fff;stroke:#005596;stroke-linecap:round;stroke-linejoin:round;stroke-width:6.72369360923767px"/><line x1="201.27" y1="272.69" x2="262.61" y2="272.69" style="fill:none;stroke:#005596;stroke-miterlimit:10;stroke-width:6.72369360923767px"/><line x1="292.65" y1="272.69" x2="310.81" y2="272.69" style="fill:none;stroke:#005596;stroke-miterlimit:10;stroke-width:6.72369360923767px"/><path d="M214.38,237.69V200.28a2.81,2.81,0,0,1,2.8-2.8h23.48a2.81,2.81,0,0,1,2.8,2.8v37.41" style="fill:#b9d532;stroke:#005596;stroke-miterlimit:10;stroke-width:6.72369360923767px"/><line x1="206.56" y1="239.57" x2="251.29" y2="239.57" style="fill:none;stroke:#005596;stroke-linecap:round;stroke-linejoin:round;stroke-width:6.72369360923767px"/><line x1="214.1" y1="217.58" x2="243.75" y2="217.58" style="fill:none;stroke:#005596;stroke-miterlimit:10;stroke-width:6.72369360923767px"/><line x1="228.92" y1="197.53" x2="228.92" y2="237.93" style="fill:none;stroke:#005596;stroke-miterlimit:10;stroke-width:6.72369360923767px"/><line x1="182.88" y1="291.7" x2="329.12" y2="291.7" style="fill:none;stroke:#005596;stroke-linecap:round;stroke-linejoin:round;stroke-width:6.72369360923767px"/><circle cx="269.59" cy="246.44" r="2.8" style="fill:#005596"/></svg>