<svg id="icon" xmlns="http://www.w3.org/2000/svg" viewBox="0 0 512 512"><path d="M490.67,256A234.61,234.61,0,0,1,372.94,459.51,235.2,235.2,0,0,1,168.48,473.8q-8-3.23-15.75-7A234.67,234.67,0,0,1,21.33,256C21.33,126.4,126.4,21.33,256,21.33S490.67,126.4,490.67,256Z" style="fill:#005596"/><path d="M303.89,151.91A47.89,47.89,0,1,1,256,104,47.8,47.8,0,0,1,303.89,151.91Z" style="fill:#fff"/><path d="M361.38,252.81c0,1.39-.23,15.69-.23,15.69l-210.3,0s-.23-14.28-.23-15.66c0-25.91,27.35-48.08,66.08-57.21a61.62,61.62,0,0,0,78.6,0C334,204.73,361.38,226.91,361.38,252.81Z" style="fill:#b9d532"/><path d="M263.15,249.28l-2,35.12L251.83,283l-2.49-35.09a15.85,15.85,0,0,0,7.06,1.61C258.94,249.47,261.32,248.85,263.15,249.28Z" style="fill:#005596"/><path d="M270.74,237.07a14.71,14.71,0,0,1-5.26,11.39,14.27,14.27,0,0,1-2.81,1.86,14.65,14.65,0,0,1-6.57,1.59,14.5,14.5,0,0,1-6.58-1.5,14.3,14.3,0,0,1-2.84-1.82,14.74,14.74,0,1,1,24.06-11.52Z" style="fill:#005596"/><path d="M346.64,371.14l2-46.43a3.5,3.5,0,0,0-1-2.59,3.09,3.09,0,0,0-2.25-1H166.53a3.09,3.09,0,0,0-2.25,1,3.5,3.5,0,0,0-1,2.59l2,46.43H124.71c-8,0-14.86-7.4-15.93-17.21l-7.19-66.24c-.71-6.54,1.22-13.07,5.16-17.46a14.44,14.44,0,0,1,10.76-5.08h277a14.44,14.44,0,0,1,10.76,5.08c3.94,4.39,5.87,10.92,5.16,17.46l-7.19,66.24c-1.07,9.81-7.91,17.21-15.93,17.21Z" style="fill:#fff"/><path d="M394.49,268.15c7.94,0,14,9.06,12.94,19.22l-7.2,66.23c-.9,8.34-6.42,14.54-12.94,14.54H349.77l1.9-43.3a6.31,6.31,0,0,0-6.2-6.7H166.53a6.31,6.31,0,0,0-6.2,6.7l1.9,43.3H124.71c-6.52,0-12-6.2-12.94-14.54l-7.2-66.23c-1.1-10.16,5-19.22,12.94-19.22h277m0-6h-277a17.4,17.4,0,0,0-13,6.08c-4.51,5-6.72,12.41-5.92,19.79l7.2,66.23c1.25,11.52,9.2,19.89,18.91,19.89h43.78l-.27-6.27-1.9-43.29a.45.45,0,0,1,.13-.38s.06-.06.08-.06H345.47s0,0,.08.06a.45.45,0,0,1,.13.38l-1.9,43.29-.27,6.27h43.78c9.71,0,17.66-8.37,18.91-19.89L413.4,288c.8-7.38-1.41-14.77-5.92-19.79a17.4,17.4,0,0,0-13-6.08Z" style="fill:#005596"/><path d="M337,326.49h-162a6.27,6.27,0,0,0-6.21,6.59L170.61,375l.18,4.42,2.83,96.39A235.59,235.59,0,0,0,339,475.57L341.51,375l1.73-41.91A6.27,6.27,0,0,0,337,326.49Z" style="fill:#fff"/></svg>