<svg id="icon" xmlns="http://www.w3.org/2000/svg" viewBox="0 0 512 512"><circle cx="256" cy="256" r="234.67" style="fill:#005596"/><path d="M189.87,226.84,73,294.55A2.54,2.54,0,0,0,73,299l166.8,94.84s88.61-82.37,91.09-90L192.32,226.85A2.57,2.57,0,0,0,189.87,226.84Z" style="fill:#1a325c"/><polygon points="323.6 90.44 326.6 277.62 436.15 343.82 439.15 342.1 439.15 153.21 326.6 88.73 323.6 90.44" style="fill:#1a325c"/><path d="M440.33,149.85c-11.44-6.62-96.71-55.95-115-66.48a2.31,2.31,0,0,0-3.47,2L326,277.47" style="fill:#1a325c;stroke:#005596;stroke-linecap:round;stroke-linejoin:round;stroke-width:6.16638368548911px"/><polygon points="304.81 104.6 307.68 293.34 412.66 357.26 433.2 345.41 433.2 155.01 325.35 92.74 304.81 104.6" style="fill:#fff"/><path d="M408.21,363.15a5.56,5.56,0,0,1-2.75-.74L295.54,299a7.59,7.59,0,0,1-3.79-6.56l-4-186.85a5.23,5.23,0,0,1,7.86-4.61c18.41,10.61,106.23,61.41,111.64,64.54C413.32,162,435,149.81,435,149.81a5.48,5.48,0,0,1,8.2,4.79V340.7a5.38,5.38,0,0,1-2.69,4.65L411,362.41A5.5,5.5,0,0,1,408.21,363.15Z" style="fill:#fff"/><path d="M293,103.22a2.2,2.2,0,0,1,1.11.31c17.79,10.25,100.77,58.24,111.89,64.68a2.55,2.55,0,0,0,1.25.34,2.5,2.5,0,0,0,1.23-.33c5.69-3.23,28-15.8,28-15.8a2.55,2.55,0,0,1,1.23-.33,2.51,2.51,0,0,1,2.5,2.51V340.7a2.35,2.35,0,0,1-1.19,2.05l-29.55,17.06a2.4,2.4,0,0,1-1.25.34,2.45,2.45,0,0,1-1.25-.34L297,296.35a4.58,4.58,0,0,1-2.29-4l-4-186.91a2.26,2.26,0,0,1,2.26-2.26m0-6h0a8.26,8.26,0,0,0-8.26,8.26v.13l4,186.86a10.55,10.55,0,0,0,5.28,9.07L404,365a8.49,8.49,0,0,0,8.5,0L442,348a8.4,8.4,0,0,0,4.19-7.25V154.6a8.49,8.49,0,0,0-12.67-7.41L407.28,162c-19-11-93.54-54.1-110.16-63.68A8.18,8.18,0,0,0,293,97.22Z" style="fill:#005596"/><line x1="407.27" y1="175.22" x2="407.27" y2="352.15" style="fill:#fff;stroke:#005596;stroke-linecap:round;stroke-linejoin:round;stroke-width:6px"/><path d="M419.89,344.81l12.58-7.26a8.92,8.92,0,0,0,4.45-7.72v-160a4.48,4.48,0,0,0-6.73-3.88l-12,6.94a7.57,7.57,0,0,0-3.79,6.55V341.63A3.67,3.67,0,0,0,419.89,344.81Z" style="fill:#b9d532"/><polygon points="275.99 124.15 278.99 311.32 388.55 377.52 391.54 375.81 391.54 186.92 278.99 122.44 275.99 124.15" style="fill:#1a325c"/><path d="M392.72,183.55c-11.44-6.61-96.71-55.94-115-66.48a2.31,2.31,0,0,0-3.46,2l4.11,192.1" style="fill:#1a325c;stroke:#005596;stroke-linecap:round;stroke-linejoin:round;stroke-width:6.16638368548911px"/><polygon points="257.2 138.31 260.07 327.05 365.06 390.97 385.59 379.11 385.59 188.72 277.74 126.45 257.2 138.31" style="fill:#fff"/><path d="M360.61,396.86a5.5,5.5,0,0,1-2.75-.74L247.93,332.65a7.58,7.58,0,0,1-3.78-6.55l-4-186.85a5.27,5.27,0,0,1,5.25-5.32,5.21,5.21,0,0,1,2.61.7c18.28,10.54,106.22,61.41,111.64,64.54l27.74-15.66a5.58,5.58,0,0,1,2.7-.71,5.51,5.51,0,0,1,5.5,5.5V374.4a5.39,5.39,0,0,1-2.69,4.66l-29.54,17.06A5.56,5.56,0,0,1,360.61,396.86Z" style="fill:#fff"/><path d="M245.4,136.93a2.24,2.24,0,0,1,1.12.3c17.78,10.25,100.76,58.25,111.88,64.69a2.53,2.53,0,0,0,2.48,0c5.69-3.23,28-15.8,28-15.8a2.38,2.38,0,0,1,1.22-.33,2.5,2.5,0,0,1,2.5,2.5V374.4a2.36,2.36,0,0,1-1.19,2.06l-29.54,17.06a2.55,2.55,0,0,1-1.25.34,2.5,2.5,0,0,1-1.25-.34L249.43,330.05a4.56,4.56,0,0,1-2.28-3.95l-4-186.92a2.25,2.25,0,0,1,2.25-2.25m0-6h0a8.26,8.26,0,0,0-8.25,8.25v.13l4,186.87a10.59,10.59,0,0,0,5.28,9.07l109.93,63.47a8.49,8.49,0,0,0,8.5,0l29.54-17.06a8.39,8.39,0,0,0,4.19-7.26V188.3a8.49,8.49,0,0,0-12.67-7.4c-.21.12-18.8,10.6-26.25,14.82-19-11-93.36-54-110.16-63.69a8.24,8.24,0,0,0-4.11-1.1Z" style="fill:#005596"/><line x1="359.66" y1="208.93" x2="359.66" y2="385.86" style="fill:#fff;stroke:#005596;stroke-linecap:round;stroke-linejoin:round;stroke-width:6px"/><path d="M372.28,378.52l12.58-7.26a8.92,8.92,0,0,0,4.45-7.72v-160a4.48,4.48,0,0,0-6.72-3.89l-12,6.95a7.55,7.55,0,0,0-3.78,6.55V375.34A3.67,3.67,0,0,0,372.28,378.52Z" style="fill:#b9d532"/><polygon points="227.79 159.24 230.78 346.41 340.34 412.61 343.33 410.9 343.33 222.01 230.78 157.53 227.79 159.24" style="fill:#1a325c"/><path d="M344.51,218.64c-11.43-6.61-96.71-55.94-115-66.48a2.31,2.31,0,0,0-3.46,2l4.11,192.1" style="fill:#1a325c;stroke:#005596;stroke-linecap:round;stroke-linejoin:round;stroke-width:6.16638368548911px"/><polygon points="209 173.4 211.87 362.13 316.85 426.06 337.39 414.2 337.39 223.81 229.53 161.54 209 173.4" style="fill:#fff"/><path d="M312.4,432a5.53,5.53,0,0,1-2.75-.74L199.72,367.74a7.57,7.57,0,0,1-3.78-6.55l-4-186.85a5.25,5.25,0,0,1,7.87-4.62c18.4,10.61,106.22,61.41,111.64,64.54l27.74-15.66a5.5,5.5,0,0,1,8.2,4.79v186.1a5.39,5.39,0,0,1-2.69,4.66l-29.55,17.06A5.5,5.5,0,0,1,312.4,432Z" style="fill:#fff"/><path d="M197.19,172a2.19,2.19,0,0,1,1.12.3C216.1,182.57,299.07,230.57,310.2,237a2.5,2.5,0,0,0,1.24.33,2.54,2.54,0,0,0,1.23-.32c5.7-3.23,28-15.8,28-15.8a2.44,2.44,0,0,1,1.22-.33,2.51,2.51,0,0,1,2.51,2.5v186.1a2.39,2.39,0,0,1-1.19,2.06l-29.55,17.06a2.47,2.47,0,0,1-2.5,0L201.22,365.14a4.56,4.56,0,0,1-2.28-3.95l-4-186.92a2.25,2.25,0,0,1,2.25-2.25m0-6h0a8.26,8.26,0,0,0-8.25,8.25v.13l4,186.87a10.61,10.61,0,0,0,5.28,9.07l109.93,63.47a8.49,8.49,0,0,0,8.5,0l29.55-17.06a8.41,8.41,0,0,0,4.19-7.26V223.39a8.5,8.5,0,0,0-12.68-7.4c-.2.12-18.8,10.6-26.25,14.82-19-11-93.36-54-110.15-63.68a8.21,8.21,0,0,0-4.12-1.11Z" style="fill:#005596"/><line x1="311.45" y1="244.02" x2="311.45" y2="420.95" style="fill:#fff;stroke:#005596;stroke-linecap:round;stroke-linejoin:round;stroke-width:6px"/><path d="M324.08,413.61l12.57-7.26a8.93,8.93,0,0,0,4.46-7.72v-160a4.49,4.49,0,0,0-6.73-3.89l-12,6.95a7.56,7.56,0,0,0-3.78,6.55V410.43A3.68,3.68,0,0,0,324.08,413.61Z" style="fill:#b9d532"/></svg>