<svg id="icon" xmlns="http://www.w3.org/2000/svg" viewBox="0 0 512 512"><circle cx="256" cy="256" r="234.67" style="fill:#005596"/><path d="M378.46,116.74V395.26a14.42,14.42,0,0,1-14.12,14.62H147.66a14.42,14.42,0,0,1-14.12-14.62V157.75l53.73-55.63H364.34A14.42,14.42,0,0,1,378.46,116.74Z" style="fill:#fff"/><path d="M187.27,102.12V140c0,9.75-7.7,17.73-17.11,17.73H133.54Z" style="fill:#b9d532"/><circle cx="155.35" cy="172.78" r="7.44" style="fill:#b9d532"/><rect x="182.62" y="165.34" width="180.34" height="6.15" rx="3.08" style="fill:#005596;stroke:#fff;stroke-miterlimit:10"/><rect x="182.62" y="178.95" width="180.34" height="6.15" rx="3.08" style="fill:#005596;stroke:#fff;stroke-miterlimit:10"/><rect x="182.62" y="192.55" width="180.34" height="6.15" rx="3.08" style="fill:#005596;stroke:#fff;stroke-miterlimit:10"/><circle cx="155.35" cy="258" r="7.44" style="fill:#b9d532"/><rect x="182.62" y="250.56" width="180.34" height="6.15" rx="3.08" style="fill:#005596;stroke:#fff;stroke-miterlimit:10"/><rect x="182.62" y="264.17" width="180.34" height="6.15" rx="3.08" style="fill:#005596;stroke:#fff;stroke-miterlimit:10"/><rect x="182.62" y="277.77" width="180.34" height="6.15" rx="3.08" style="fill:#005596;stroke:#fff;stroke-miterlimit:10"/><circle cx="155.35" cy="343.22" r="7.44" style="fill:#b9d532"/><rect x="182.62" y="335.78" width="180.34" height="6.15" rx="3.08" style="fill:#005596;stroke:#fff;stroke-miterlimit:10"/><rect x="182.62" y="349.39" width="180.34" height="6.15" rx="3.08" style="fill:#005596;stroke:#fff;stroke-miterlimit:10"/><rect x="182.62" y="362.99" width="180.34" height="6.15" rx="3.08" style="fill:#005596;stroke:#fff;stroke-miterlimit:10"/></svg>