<svg id="icon" xmlns="http://www.w3.org/2000/svg" viewBox="0 0 512 512"><circle cx="256" cy="256" r="234.67" style="fill:#005596"/><path d="M351.58,140.92H365.1a8.23,8.23,0,0,1,8.23,8.23v23.42a2.48,2.48,0,0,1-2.48,2.48h-25a2.48,2.48,0,0,1-2.48-2.48V149.14A8.23,8.23,0,0,1,351.58,140.92Z" transform="translate(199.58 -200.01) rotate(42.29)" style="fill:#b9d532"/><path d="M293.85,105v6.57a8.94,8.94,0,0,1-8.94,8.94H269v20H243v-20h-15.9a8.94,8.94,0,0,1-8.94-8.94V105a8.94,8.94,0,0,1,8.94-8.94h57.82A8.94,8.94,0,0,1,293.85,105Z" style="fill:#b9d532"/><circle cx="256" cy="272.73" r="131.27" transform="translate(-117.87 260.9) rotate(-45)" style="fill:#fff"/><path d="M256,129.52c-79,0-143.21,64.26-143.21,143.21S177,415.94,256,415.94,399.21,351.7,399.21,272.73,335,129.52,256,129.52ZM256,404c-72.38,0-131.27-58.89-131.27-131.27S183.62,141.46,256,141.46s131.27,58.89,131.27,131.27S328.38,404,256,404Z" style="fill:#b9d532"/><circle cx="256" cy="272.73" r="117" transform="translate(-117.87 260.9) rotate(-45)" style="fill:#fff"/><path d="M256,155.73a117,117,0,1,0,117,117A117.14,117.14,0,0,0,256,155.73ZM256,380A107.24,107.24,0,1,1,363.24,272.73,107.36,107.36,0,0,1,256,380Z" style="fill:#005596;stroke:#005596;stroke-miterlimit:10;stroke-width:2.42795705795288px"/><line x1="256" y1="164.18" x2="256" y2="181.58" style="fill:none;stroke:#005596;stroke-linecap:round;stroke-linejoin:round;stroke-width:8.49784970283508px"/><line x1="256" y1="364.53" x2="256" y2="381.93" style="fill:none;stroke:#005596;stroke-linecap:round;stroke-linejoin:round;stroke-width:8.49784970283508px"/><line x1="364.88" y1="273.06" x2="347.48" y2="273.06" style="fill:none;stroke:#005596;stroke-linecap:round;stroke-linejoin:round;stroke-width:8.49784970283508px"/><line x1="164.52" y1="273.06" x2="147.12" y2="273.06" style="fill:none;stroke:#005596;stroke-linecap:round;stroke-linejoin:round;stroke-width:8.49784970283508px"/><line x1="287.81" y1="215.55" x2="265.53" y2="254.57" style="fill:none;stroke:#005596;stroke-linecap:round;stroke-linejoin:round;stroke-width:8.49784970283508px"/><circle cx="256" cy="272.73" r="20.51" style="fill:none;stroke:#005596;stroke-linecap:round;stroke-linejoin:round;stroke-width:8.49784970283508px"/></svg>