<svg id="icon" xmlns="http://www.w3.org/2000/svg" viewBox="0 0 512 512"><path d="M490.67,256a234.67,234.67,0,1,1-469.34,0C21.33,126.4,126.4,21.33,256,21.33S490.67,126.4,490.67,256Z" style="fill:#005596"/><path d="M275.43,178.39V333.61a2.5,2.5,0,0,0,4.27,1.76l77.59-77.6a2.5,2.5,0,0,0,0-3.54l-77.59-77.6A2.5,2.5,0,0,0,275.43,178.39Z" style="fill:#b9d532;stroke:#fff;stroke-miterlimit:10;stroke-width:13.7702083587646px"/><rect x="46.71" y="242.6" width="206.55" height="26.79" rx="1.86" style="fill:#fff"/><path d="M144.88,314.62V365c0,7.22,3.94,13.07,8.82,13.07H399.63c4.87,0,8.82-5.85,8.82-13.07V147c0-7.22-3.95-13.07-8.82-13.07H153.7c-4.88,0-8.82,5.85-8.82,13.07V191.3" style="fill:none;stroke:#fff;stroke-linecap:round;stroke-linejoin:round;stroke-width:14.7888139584461px"/></svg>