<svg id="icon" xmlns="http://www.w3.org/2000/svg" viewBox="0 0 512 512"><path d="M277.82,176.52a46,46,0,0,0-21,7.36h0a46,46,0,0,0-21-7.36l-22.59-3.41a2.55,2.55,0,0,0-2.93,2.51v48.14a2.55,2.55,0,0,0,2,2.48c5.46,1.23,20.67,4.27,30.09,5.37l.21,0a28.86,28.86,0,0,1,10.3,3.3l.16.09a7.78,7.78,0,0,0,7.49,0h0a29.67,29.67,0,0,1,10.66-3.41h0c9.4-1.1,24.2-4.13,29.56-5.37a2.54,2.54,0,0,0,2-2.47V175.63a2.54,2.54,0,0,0-2.93-2.51Z" style="fill:none;stroke:#005696;stroke-miterlimit:10;stroke-width:7px"/><path d="M192.91,198.12H225.2a17.22,17.22,0,0,1,17.23,17.22h0a17.23,17.23,0,0,1-17.23,17.23H181.09a22.63,22.63,0,0,1-22.63-22.63V194.66a34.45,34.45,0,0,1,34.45-34.45H320.78a34.45,34.45,0,0,1,34.45,34.45v15.28a22.63,22.63,0,0,1-22.63,22.63H288.49a17.24,17.24,0,0,1-17.23-17.23h0a17.23,17.23,0,0,1,17.23-17.22h32.29" style="fill:#fff;stroke:#005696;stroke-miterlimit:10;stroke-width:7px"/><path d="M256.24,486.68A230.48,230.48,0,0,1,85.5,411.35V307.57h341V411.88a230.5,230.5,0,0,1-170.26,74.8Z" style="fill:#fff"/><path d="M423,311.07v99.44A227.5,227.5,0,0,1,89,410V311.07H423m7-7H82V412.7a234.67,234.67,0,0,0,348,.54V304.07Z" style="fill:#005696"/><rect x="62.83" y="284.05" width="386.33" height="24.1" style="fill:#fff"/><path d="M445.67,287.55v17.11H66.33V287.55H445.67m7-7H59.33v31.11H452.67V280.55Z" style="fill:#005696"/><path d="M358.82,253.59h69.74a6.92,6.92,0,0,1,6.92,6.93v3.68a6.93,6.93,0,0,1-6.92,6.93H358.82" style="fill:#fff;stroke:#005696;stroke-miterlimit:10;stroke-width:6px"/><path d="M162.48,271.13H92.74a6.93,6.93,0,0,1-6.92-6.93v-3.68a6.92,6.92,0,0,1,6.92-6.93h69.74" style="fill:#fff;stroke:#005696;stroke-miterlimit:10;stroke-width:6px"/><path d="M150.12,253.56H102.87a4.69,4.69,0,0,1-4.69-4.69v-2.5a4.69,4.69,0,0,1,4.69-4.69h47.25" style="fill:#fff;stroke:#005696;stroke-miterlimit:10;stroke-width:6px"/><polyline points="209.45 232.57 209.45 280.55 301.88 280.55 301.88 231.61" style="fill:none;stroke:#005696;stroke-miterlimit:10;stroke-width:7px"/><path d="M255.32,28.26a227.73,227.73,0,0,1,88.61,437.45A227.73,227.73,0,0,1,166.7,46.15a226.23,226.23,0,0,1,88.62-17.89m0-7c-129.61,0-234.67,105.06-234.67,234.67S125.71,490.59,255.32,490.59,490,385.53,490,255.93,384.92,21.26,255.32,21.26Z" style="fill:#005696"/><path d="M302.46,201.22V175.53a2.51,2.51,0,0,0-2.93-2.41l-22,3.26a47.34,47.34,0,0,0-21,7.08h0a47.25,47.25,0,0,0-21-7.08l-22.6-3.27a2.5,2.5,0,0,0-2.92,2.41v25.1" style="fill:none;stroke:#005696;stroke-miterlimit:10;stroke-width:7px"/><path d="M242.09,231.61l.21,0a28.8,28.8,0,0,1,10.3,3.3l.17.09a7.77,7.77,0,0,0,7.48,0h0a29.8,29.8,0,0,1,10.66-3.41h0" style="fill:none;stroke:#005696;stroke-miterlimit:10;stroke-width:7px"/><circle cx="256" cy="116.66" r="43.43" style="fill:none;stroke:#005696;stroke-miterlimit:10;stroke-width:7px"/></svg>