<svg id="icon" xmlns="http://www.w3.org/2000/svg" viewBox="0 0 512 512"><circle cx="256" cy="255.52" r="234.67" style="fill:#005696"/><circle cx="256" cy="112.66" r="46.22" style="fill:#fff"/><rect x="205.48" y="156.31" width="101.04" height="179.4" style="fill:#fff"/><path d="M205.48,335.71h41a0,0,0,0,1,0,0V479.88A20.49,20.49,0,0,1,226,500.37h0a20.49,20.49,0,0,1-20.49-20.49V335.71A0,0,0,0,1,205.48,335.71Z" style="fill:#fff"/><path d="M265.53,335.71h41a0,0,0,0,1,0,0V479.88A20.49,20.49,0,0,1,286,500.37h0a20.49,20.49,0,0,1-20.49-20.49V335.71a0,0,0,0,1,0,0Z" style="fill:#fff"/><rect x="196.58" y="156.31" width="118.84" height="43.3" style="fill:#fff"/><path d="M277.25,176.52a46,46,0,0,0-21,7.36h0a46,46,0,0,0-21-7.36l-22.6-3.41a2.55,2.55,0,0,0-2.92,2.51v48.14a2.54,2.54,0,0,0,2,2.48c5.47,1.23,20.68,4.27,30.1,5.37l.2,0a28.74,28.74,0,0,1,10.3,3.3l.17.09a7.78,7.78,0,0,0,7.49,0h0a29.67,29.67,0,0,1,10.66-3.41h0c9.4-1.1,24.2-4.13,29.56-5.37a2.54,2.54,0,0,0,2-2.47V175.63a2.54,2.54,0,0,0-2.93-2.51Z" style="fill:#c1d730"/><path d="M353.58,211.4a25.06,25.06,0,0,1-25.07,25.06H279.65a19.08,19.08,0,0,1-19.08-19.08h0a19.08,19.08,0,0,1,19.08-19.08h35.77v-42h0a38.16,38.16,0,0,1,38.16,38.16Z" style="fill:#fff"/><path d="M158.42,211.4a25.06,25.06,0,0,0,25.07,25.06h48.86a19.08,19.08,0,0,0,19.08-19.08h0a19.08,19.08,0,0,0-19.08-19.08H196.58v-42h0a38.16,38.16,0,0,0-38.16,38.16Z" style="fill:#fff"/><path d="M81.76,412.7a234.67,234.67,0,0,0,348,.54V304.07h-348Z" style="fill:#c1d730"/><rect x="59.1" y="280.55" width="393.33" height="31.1" style="fill:#c1d730;stroke:#005696;stroke-miterlimit:10;stroke-width:7px"/><path d="M358.82,257.59h69.74a6.92,6.92,0,0,1,6.92,6.93v3.68a6.93,6.93,0,0,1-6.92,6.93H358.82" style="fill:#fff;stroke:#c1d730;stroke-miterlimit:10;stroke-width:6px"/><path d="M162.48,275.13H92.74a6.93,6.93,0,0,1-6.92-6.93v-3.68a6.92,6.92,0,0,1,6.92-6.93h69.74" style="fill:#fff;stroke:#c1d730;stroke-miterlimit:10;stroke-width:6px"/><path d="M150.12,257.56H102.87a4.69,4.69,0,0,1-4.69-4.69v-2.5a4.69,4.69,0,0,1,4.69-4.69h47.25" style="fill:#fff;stroke:#c1d730;stroke-miterlimit:10;stroke-width:6px"/></svg>