<svg id="icon" xmlns="http://www.w3.org/2000/svg" viewBox="0 0 512 512"><path d="M490.49,255.35a234.67,234.67,0,1,1-469.34,0c0-129.6,105.07-234.67,234.67-234.67S490.49,125.75,490.49,255.35Z" style="fill:#1e4384"/><rect x="384.99" y="187.28" width="17.24" height="197.19" rx="7.47" style="fill:#fff;stroke:#1e4384;stroke-miterlimit:10;stroke-width:6px"/><rect x="98.62" y="354.53" width="42.1" height="29.95" rx="9.25" style="fill:#b9d532;stroke:#1e4384;stroke-miterlimit:10;stroke-width:6px"/><rect x="310.23" y="354.53" width="42.1" height="29.95" rx="9.25" style="fill:#b9d532;stroke:#1e4384;stroke-miterlimit:10;stroke-width:6px"/><path d="M337.49,256.28c-7.72-9.51-13.16-22.74-13.16-22.74a245.1,245.1,0,0,0-14.1-31.9c-9.65-18.56-23.39-16.81-23.39-16.81h-124s-13.74-1.75-23.39,16.81a245.1,245.1,0,0,0-14.1,31.9s-5.44,13.23-13.16,22.74c-6.7,8.26-17.48,14.28-21,24.79-1.74,5.14-1,10.75-1,16.05V350.3a8.92,8.92,0,0,0,8.92,8.91H350.58a8.92,8.92,0,0,0,8.92-8.91q0-17.71,0-35.43l0-17.93c0-5.3.64-10.87-1.09-16-3.56-10.52-14.34-16.54-21-24.8" style="fill:#fff;stroke:#1e4384;stroke-miterlimit:10;stroke-width:6px"/><circle cx="126.18" cy="306.16" r="18.23" style="fill:#b9d532;stroke:#1e4384;stroke-miterlimit:10;stroke-width:6px"/><circle cx="323.62" cy="306.16" r="18.23" style="fill:#b9d532;stroke:#1e4384;stroke-miterlimit:10;stroke-width:6px"/><path d="M279.64,332H170.24a7.56,7.56,0,0,1-7.44-8.94l1.14-6.19a7.58,7.58,0,0,1,7.44-6.19H278.5a7.57,7.57,0,0,1,7.43,6.19l1.15,6.19A7.56,7.56,0,0,1,279.64,332Z" style="fill:#1e4384;stroke:#1e4384;stroke-miterlimit:10;stroke-width:6px"/><path d="M225,195q26.2,0,52.4.54c3.86.07,7.72.15,11.58.27,13.84.4,28.81,45.66,24.08,48-2,1-5.06.69-7.17.78-4.93.22-9.87.25-14.81.26-26.82.1-53.65,0-80.48,0-12.78,0-25.56-.23-38.35-.2-6.32,0-14.9.08-21.22.26a65.62,65.62,0,0,1-14.1-1.1c-5.19-1,10.25-47.61,24.08-48C182.34,195.21,203.68,195,225,195Z" style="fill:#b9d532;stroke:#1e4384;stroke-miterlimit:10;stroke-width:6px"/><path d="M126.18,227.44c-.53,0-17.51-1.55-19.07-1.36a24.61,24.61,0,0,0-11.76,4.73c-2.2,1.66-8.09,6.59-5.31,9.48,1.8,1.86,20.25,4.61,30.44,2.92C120.48,243.21,129.63,227.72,126.18,227.44Z" style="fill:#fff;stroke:#1e4384;stroke-miterlimit:10;stroke-width:6px"/><path d="M323.81,227.44c.53,0,17.51-1.55,19.07-1.36a24.57,24.57,0,0,1,11.75,4.73c2.2,1.66,8.1,6.59,5.31,9.48-1.79,1.86-20.24,4.61-30.43,2.92C329.51,243.21,320.36,227.72,323.81,227.44Z" style="fill:#fff;stroke:#1e4384;stroke-miterlimit:10;stroke-width:6px"/><path d="M263.23,328.85H186.65a5.3,5.3,0,0,1-5.21-6.26l.8-4.34a5.3,5.3,0,0,1,5.21-4.33h75a5.3,5.3,0,0,1,5.21,4.33l.8,4.34A5.3,5.3,0,0,1,263.23,328.85Z" style="fill:#fff"/><circle cx="393.61" cy="168.82" r="42.59" style="fill:#b9d532;stroke:#1e4384;stroke-miterlimit:10;stroke-width:6px"/><path d="M415.75,160.58c0,11.27-8,16.52-19.18,16.52h-4.08a1.17,1.17,0,0,0-1.17,1.18v13.83a1.18,1.18,0,0,1-1.17,1.17H381a1.17,1.17,0,0,1-1.17-1.17V145.93a1.17,1.17,0,0,1,1.17-1.17h14.51C408.05,144.76,415.75,149.94,415.75,160.58Zm-11.83,0c0-5.18-2.87-7.63-8.54-7.63h-2.89a1.17,1.17,0,0,0-1.17,1.17v13.55a1.17,1.17,0,0,0,1.17,1.17h3.1C400.77,168.84,403.92,166.67,403.92,160.58Z" style="fill:#1e4384"/></svg>