<svg id="icon" xmlns="http://www.w3.org/2000/svg" viewBox="0 0 512 512"><path d="M255.43,487.09A231.16,231.16,0,0,1,92,92.47,231.17,231.17,0,0,1,418.89,419.39,229.66,229.66,0,0,1,255.43,487.09Z" style="fill:#fff"/><path d="M255.43,28.26A227.73,227.73,0,0,1,344,465.71,227.73,227.73,0,0,1,166.81,46.15a226.23,226.23,0,0,1,88.62-17.89m0-7c-129.61,0-234.67,105.06-234.67,234.67S125.82,490.59,255.43,490.59,490.09,385.53,490.09,255.93,385,21.26,255.43,21.26Z" style="fill:#005596"/><path d="M95,335.47c.62.51.62.52,0,0a9.76,9.76,0,0,1-2.36-2.8c0-.09-.07-.16-.1-.25-.55-1.73,2.16-4.87,6.06-8.28l8.75,4.66Z" style="fill:#fff"/><path d="M421.65,159.09l-109.26,59-41.66-2.38C310.27,191.26,343,171.1,346.56,169c10.74-6.29,25-10.46,38.27-12.5a110.5,110.5,0,0,1,22.44-1.33C414,155.57,419.23,156.87,421.65,159.09Z" style="fill:#fff"/><path d="M240.32,257l-109.5,59.13h0l-.4.22-9.07-2.67-6.1-1.79.09-.06-21.8-41.68,12.13-2.72,39.2,26.15,70.2-43.45Z" style="fill:#fff"/><path d="M407.27,155.16l-42.91,23.36-4.57-8.4,25-13.63A110.5,110.5,0,0,1,407.27,155.16Z" style="fill:#005596;stroke:#005596;stroke-miterlimit:10;stroke-width:3px"/><path d="M403,209.43a97.19,97.19,0,0,0,22-25.74c8.51-14.94,6.32-23.47,3-28l0,0,0-.06a14.59,14.59,0,0,0-1.49-1.64c-3.66-3.35-9.78-5.23-18.73-5.78-1.61-.09-3.29-.14-5-.14a127.69,127.69,0,0,0-18.9,1.54C368.12,152,353.65,156.73,343,163c-4,2.33-41.71,25.62-84.47,52.05l-154-8.8-25.81,6.87,127,34.54c-24.35,15.06-46.48,28.75-60.83,37.64L109.54,261.6l-2.49-1.67-2.92.66L92,263.31l-8.9,2,4.23,8.08,18.72,35.8L69.52,298.45,58,302.54,92,320.64c-4.41,4.15-7.78,8.82-6.15,13.92l0,0v0c.06.18.12.34.17.47l.13.4.32.57a16.82,16.82,0,0,0,4,4.81c4.44,3.63,10.81,5.39,19.49,5.39a110.49,110.49,0,0,0,23.45-3L152.12,359l.84-11-5.79-8.31c13.54-4.07,25.9-9.17,32.58-12.82,3.15-1.54,53.61-26.32,103.79-51.45l135,44-4.59-17-71.39-56.85c11.35-5.85,21.21-11,28.62-15A225.59,225.59,0,0,0,403,209.43ZM97,336.83A11.81,11.81,0,0,1,95,335.48a9.76,9.76,0,0,1-2.36-2.8c0-.09-.07-.16-.1-.25-.55-1.73,2.16-4.87,6.06-8.28l8.75,4.66L95,335.47A12.46,12.46,0,0,0,97,336.83Zm33.8-20.71h0l-.4.22-9.07-2.67-6.1-1.79.09-.06-21.8-41.68,12.13-2.72,39.2,26.15,70.2-43.45L240.32,257Zm181.57-98-41.66-2.38C310.27,191.26,343,171.1,346.56,169c10.74-6.29,25-10.46,38.27-12.5a110.5,110.5,0,0,1,22.44-1.33c6.75.41,12,1.71,14.38,3.93Z" style="fill:#005596"/></svg>