<svg id="icon" xmlns="http://www.w3.org/2000/svg" viewBox="0 0 512 512"><path d="M490.66,256A234.65,234.65,0,0,1,331.09,478.38c-2,.69-4,1.33-6,1.94h0c-5.2,1.6-10.49,3-15.83,4.27-2.8.66-5.61,1.25-8.42,1.79A234.84,234.84,0,0,1,260,490.63l-2.72,0H256q-9.34,0-18.49-.71c-5.48-.42-10.91-1.05-16.28-1.84-2-.29-4-.62-6-1h0a230.46,230.46,0,0,1-27-6.4c-2.58-.78-5.17-1.62-7.71-2.47-2.23-.75-4.42-1.54-6.61-2.37A230.32,230.32,0,0,1,142,461.13q-3.35-1.86-6.61-3.83c-3-1.78-5.94-3.65-8.83-5.56-2.24-1.48-4.44-3-6.62-4.56A235.3,235.3,0,0,1,88,419.82c-2.25-2.31-4.46-4.68-6.6-7.07q-7.45-8.29-14.1-17.27c-4.07-5.5-7.92-11.21-11.51-17.08-1.29-2.09-2.55-4.19-3.75-6.33h0a232.78,232.78,0,0,1-27.6-77.93c-1.21-7.37-2.08-14.87-2.56-22.47,0-.17,0-.36,0-.54-.2-3-.35-6.09-.41-9.15-.07-2-.08-4-.08-6a234.16,234.16,0,0,1,13.21-77.84c.13-.39.28-.79.42-1.18q2.63-7.33,5.71-14.43l1.37-3.09a234.77,234.77,0,0,1,427.08-1.81q3.72,8.08,6.84,16.47c1.41,3.73,2.69,7.5,3.89,11.31a232.93,232.93,0,0,1,9.92,50.2Q490.65,245.7,490.66,256Z" style="fill:#005596"/><polygon points="130.81 316.12 118.58 322.73 123.7 305.9 130.81 316.12" style="fill:#005596"/><polygon points="173.78 312.86 120.22 321.19 93.53 270.14 105.66 267.42 173.78 312.86" style="fill:#fff"/><path d="M398.54,204a219.71,219.71,0,0,1-30.69,20.25c-47.07,25.54-191.34,96.31-191.34,96.31-15.78,8.69-67.39,26.51-81.55,14.91a9.47,9.47,0,0,1-2.36-2.8c0-.09-.07-.16-.1-.25-1.52-4.76,21.63-20.13,26-22.55,0,0,218.39-135.22,228.05-140.89,10.74-6.29,25-10.46,38.27-12.5a109.72,109.72,0,0,1,22.44-1.32c6.76.4,12,1.7,14.38,3.92a5.42,5.42,0,0,1,.7.77C428.74,168.52,414.74,190.8,398.54,204Z" style="fill:#fff"/><path d="M407.72,154.92l-43.36,23.6-4.57-8.4L386,155.88A101.12,101.12,0,0,1,407.72,154.92Z" style="fill:#005596"/><path d="M126.07,339.63A91.55,91.55,0,0,1,110,341.28c-7.38,0-12.86-1.43-16.31-4.26l-2.3-1.89,11.69-6.31-50-26.64,16.36-5.83,60.72,17.84L235,257.61,71.09,213.05l33.31-8.86,207.54,11.86,110-59.38,1,.93a6.91,6.91,0,0,1,1,1.11c7.73,10.48-8.87,34.36-24.19,46.85a220.7,220.7,0,0,1-31,20.46c-7.2,3.9-17,9.06-28.57,15l75.49,60.12,5.72,21.24-147.21-48c-48.79,24.4-96.36,47.73-96.84,48-5.84,3.22-17.62,8.19-31.22,12.31L155,347.36,153.82,363Z" style="fill:#c1d82f"/><path d="M421.65,159.09a4.52,4.52,0,0,1,.7.77c6.39,8.66-7.61,30.94-23.81,44.15a220.61,220.61,0,0,1-30.69,20.25c-8,4.34-18.84,10-31.29,16.39L414,302.29l4.59,17L274.07,272.24c-49.61,24.81-97.56,48.32-97.56,48.32-6.65,3.66-19.66,8.95-33.56,13l10,14.37-.84,11-25.48-21.47A91.87,91.87,0,0,1,110,339.28c-6.43,0-11.75-1.1-15-3.81l12.35-6.66L58,302.54l11.48-4.09,60.89,17.89.4-.22L240.32,257,78.79,213.07l25.81-6.87,207.79,11.88,109.26-59m.57-4.85-2.47,1.33L311.49,214,104.83,202.21l-.64,0-.62.17-25.81,6.87L63.39,213l14.35,3.9,151.87,41.3L130,312l-59.3-17.42-1.25-.37-1.22.44L56.7,298.78l-8.53,3,8,4.26,42.69,22.76L93.06,332l-5.24,2.83,4.6,3.79c3.87,3.17,9.62,4.71,17.58,4.71a91.9,91.9,0,0,0,15.5-1.52l24,20.26,6,5,.59-7.79.84-11,.11-1.42-.82-1.17-6.86-9.86c12.56-4,23.32-8.56,29-11.66,2.27-1.11,48.46-23.77,96-47.55l142.92,46.58,7,2.29-1.92-7.14-4.59-17-.34-1.27-1-.82-72.56-57.78c10.37-5.35,19.23-10,25.86-13.6a224.47,224.47,0,0,0,31.32-20.66c15.58-12.71,33.26-37.66,24.53-49.6a8.45,8.45,0,0,0-1.29-1.41l-2.09-1.87Z" style="fill:#005596"/></svg>