<svg xmlns="http://www.w3.org/2000/svg" viewBox="0 0 469.37 469.33"><g id="Layer_2" data-name="Layer 2"><g id="icon"><circle cx="234.67" cy="234.67" r="234.67" style="fill:#005596"/><path d="M468.48,214.36l-13.53,1-7.72.59L323,225.56l-1.38.11-2.87.22-.31,0L34.59,247.78l-9.1.7-4.79.37-11.88.91L5.94,250l-.76.06-4.62.36h0l0-.55c-.09-1.25-.16-2.51-.22-3.77q-.07-1.47-.12-2.94c0-.81,0-1.62-.07-2.43-.07-2-.09-4-.09-6A234.06,234.06,0,0,1,13.25,156.9c.13-.4.27-.8.42-1.19l18.8-8.82,3.72-1.75h0l2.7-1.27,5.88-2.76,2.19-1,4.21-2,15.47-7.26L118,106.75l61.39-28.81a107,107,0,0,1,90.91,0l39.48,18.53L323,89.73a8.94,8.94,0,0,1,8.15,0l70.81,36.18,23.55,12,1.42.72.64.33.88.44h0l7.33,3.75,7.06,3.61.13.06,11.72,6c.35.93.69,1.87,1,2.81s.61,1.72.91,2.59c.39,1.13.77,2.26,1.14,3.4q.42,1.26.81,2.52c.29.93.58,1.86.86,2.8.42,1.38.82,2.76,1.21,4.15.17.59.34,1.2.5,1.8.25.92.5,1.85.74,2.78.15.57.29,1.13.43,1.7s.31,1.23.46,1.85q.67,2.81,1.29,5.62c.14.66.28,1.32.41,2,.1.44.19.87.27,1.31.14.67.27,1.33.39,2,.18.88.34,1.75.49,2.62.11.58.21,1.17.31,1.75.27,1.51.51,3,.74,4.55.09.55.17,1.1.25,1.65l.24,1.71q.21,1.47.39,2.94l.21,1.76c.05.4.1.81.14,1.22.1.91.2,1.82.29,2.73,0,0,0,0,0,.06C468.29,212.21,468.39,213.29,468.48,214.36Z" style="fill:#fff"/><path d="M435.4,239.63a232.08,232.08,0,0,1-13.6,54c-3.64,8.52-6.77,18.15-12.09,25.54a14.11,14.11,0,0,0-3.44.21c-12.7,1.48-58.93,8.92-114.67,17.89l-7.12,1.14-8.7,1.4-27.84,4.48c-37.2,6-75.76,12.1-109.67,17.27l-11.93,1.81-4,.61-5.54.83c-31,4.62-56.27,8.1-70.1,9.37a4.73,4.73,0,0,1-.28-.39c-.78-1.05-1.54-2.11-2.3-3.17l-.63-.88q-3.54-5-6.81-10.24c-.49-.77-1-1.54-1.45-2.32-1.28-2.1-2.54-4.2-3.74-6.34-.43-.75-.86-1.5-1.28-2.26L29,346.32l-1.21-2.26Q23.6,336.13,20,327.85q-2-4.73-3.89-9.57c-.7-1.83-1.37-3.68-2-5.53Q10.84,303.57,8.36,294c0-.17-.09-.35-.14-.53-.5-1.93-1-3.87-1.42-5.82-.19-.81-.37-1.62-.55-2.44q-.09-.35-.15-.69a51510534187.32,51510534187.32,0,0,0,0-.06q-.42-2-.81-3.9c-.5-2.56-1-5.13-1.39-7.72-.14-.85-.28-1.7-.41-2.56q-1-6.31-1.58-12.73c0-.25,0-.51-.07-.76-.06-.63-.11-1.27-.17-1.9-.07-.92-.15-1.84-.21-2.76l-.12-1.76h0c0-.18,0-.36,0-.54-.08-1.26-.16-2.52-.21-3.78Q1,244.6,1,243.13c0-.81,0-1.62-.07-2.43-.07-2-.09-4-.09-6A234.06,234.06,0,0,1,14,156.9c.13-.4.27-.8.42-1.19q2.63-7.34,5.71-14.43l.26-.59a120.8,120.8,0,0,1,13.52-.34,73.23,73.23,0,0,1,16,2.72c11.71,3.12,24.24,8.23,33,11.52a85.31,85.31,0,0,0,10.89,2.52c.87.16,1.74.29,2.59.41,4.39.61,8.68.91,13,1.11l3.64.14c12.5.42,25.55.36,42.17,4.44l2.13.53.07,0a74.12,74.12,0,0,0,16.56,2.35c.75,0,1.49,0,2.23,0,1.22,0,2.44,0,3.65-.07.94,0,1.88-.07,2.82-.13,22.42-1.42,45-10.06,74.18-10.29,27.37-1.34,53.06,17.71,72.77,21.37l.23,0c.82.16,1.64.3,2.47.44l3.68.59c.4.06.8.13,1.21.18,5.92.87,12,1.52,18.21,2.07,1.79.17,3.59.33,5.4.46,25.24,2.07,51.81,3.08,75.8,10.72A229.48,229.48,0,0,1,435.4,239.63Z" style="fill:#005596"/><path d="M469.37,234.55v.78c0,.88,0,1.76,0,2.63,0,1.76-.08,3.52-.14,5.27,0,1.31-.11,2.63-.17,3.94,0,.14,0,.28,0,.42,0,.36,0,.72-.07,1.08q-.21,3.48-.51,6.94l-.15,1.67c-.12,1.21-.24,2.42-.38,3.63,0,.33-.06.66-.1,1-.15,1.34-.32,2.68-.49,4q-.46,3.59-1.07,7.15-.44,2.7-.95,5.37c-.14.74-.28,1.49-.43,2.24a236.54,236.54,0,0,1-14.06,45.67q-1.35,3.19-2.8,6.34c-.62,1.36-1.26,2.7-1.9,4-.34.72-.69,1.44-1.05,2.15l-1,2c-.34.68-.69,1.36-1,2-1.08,2.1-2.2,4.17-3.36,6.23-.41.73-.82,1.46-1.24,2.18-.27.47-.54.93-.82,1.39-.64,1.12-1.3,2.22-2,3.33-.16.25-.31.5-.46.75l-1,1.68a1.74,1.74,0,0,0-.11.18c-.68,1.08-1.36,2.15-2.05,3.21-.15.23-.29.47-.44.69l-.84,1.29c-1.39,2.09-2.8,4.17-4.25,6.21l-1.33,1.85c0,.09-.06.17-.18.25-1.36.94-10.41,1.59-24.88,2-21.61.66-55.34.85-93.56.8H297l-12.54,0c-12.12,0-24.53-.1-37-.17-26.45-.15-53.2-.35-78.18-.54l-5.62,0-14.11-.11-3.26,0-7.69-.06c-52.14-.38-90.77-.56-92,.19,0,0,0,0,0,0h0c-1.11-1.14-2.17-2.36-3.18-3.63a99.22,99.22,0,0,1-7.44-11.12c-1.76-2.93-3.45-5.87-5.19-8.66-.43-.75-.86-1.5-1.28-2.26l-1.22-2.22L27,344.06q-4.18-7.9-7.77-16.21-2-4.73-3.89-9.57c-.69-1.83-1.37-3.68-2-5.53Q10.1,303.54,7.61,294c0-.17-.09-.35-.14-.53-.49-1.93-1-3.87-1.42-5.82-.19-.81-.37-1.62-.55-2.44-.06-.24-.11-.48-.16-.72a0,0,0,0,1,0,0q-.42-2-.81-3.9c-.27-1.37-.53-2.76-.78-4.14-.16-.91-.31-1.81-.47-2.72,0-.29-.1-.57-.14-.86-.14-.85-.28-1.7-.41-2.56q-1-6.35-1.58-12.73c0-.25,0-.51-.07-.76-.06-.63-.11-1.27-.17-1.9-.07-.92-.15-1.84-.21-2.76q2.24-1.11,4.5-2.12c1-.48,2.08-.94,3.13-1.38A227.36,227.36,0,0,1,38.9,238.51q2.63-.7,5.25-1.36l1.32-.33c1.94-.49,3.89-1,5.83-1.43q5.49-1.3,11-2.56l6.54-1.52,6.26-1.47,3.31-.8,2-.51c5.6-1.39,11.1-2.86,16.43-4.5q3-.9,5.9-1.9l1.49-.5a60.85,60.85,0,0,0,7.56-3.31c5.4-2.77,11.07-6.37,17-10.1l3.44-2.14h0q2.16-1.34,4.36-2.64l1.14-.68c10.76-6.32,22.44-12,35.15-13.28,23.53-3.41,43.55-.64,62.25-.57,12.8.05,25-1.17,37.27-6.48,1.63-.71,3.24-1.37,4.81-2h0c.81-.31,1.62-.62,2.42-.91,3-1.11,5.94-2.06,8.77-2.89,1.06-.31,2.1-.6,3.14-.88,2.27-.61,4.5-1.15,6.67-1.64q2.65-.58,5.22-1.09c3.73-.75,7.34-1.39,10.89-2,1.8-.33,3.58-.66,5.36-1s3.46-.71,5.18-1.12,3.18-.77,4.77-1.21c.77-.22,1.55-.44,2.33-.68,1.94-.58,3.88-1.23,5.85-2,2.25-.84,4.52-1.8,6.83-2.9l6.17-3.51,2.75-1.57,1.72-1c2.85-1.6,5.85-3.25,8.92-4.87,9.06-4.73,18.69-9.09,26.66-10.56,9.84-1.92,22.07-2.31,34.55-2.66,7.61-.22,15.31-.43,22.61-.95.21.47.43.93.63,1.4l0,0c.22.48.43,1,.64,1.43s.3.67.44,1c.28.63.55,1.26.82,1.89.75,1.76,1.49,3.54,2.19,5.33.31.79.63,1.59.93,2.38s.61,1.6.91,2.4.69,1.87,1,2.81.61,1.72.91,2.59c.39,1.13.77,2.26,1.14,3.4q.42,1.26.81,2.52c.29.93.58,1.86.86,2.8.42,1.38.82,2.76,1.21,4.15.17.59.34,1.2.5,1.8.25.92.5,1.85.74,2.78.15.57.29,1.13.43,1.7s.31,1.23.46,1.85q.68,2.81,1.29,5.62c.14.66.28,1.32.41,2,.1.44.19.87.27,1.31.14.67.27,1.33.39,2,.18.88.34,1.75.49,2.62.11.58.21,1.17.31,1.75.27,1.51.51,3,.74,4.55.09.55.17,1.1.25,1.65l.24,1.71q.21,1.47.39,2.94l.21,1.76c.05.4.1.81.14,1.22.1.91.2,1.82.29,2.73,0,0,0,0,0,.06.11,1.06.21,2.14.3,3.21.14,1.68.27,3.36.38,5s.2,3.14.26,4.72c0,.16,0,.32,0,.47.07,1.66.13,3.33.16,5,0,.7,0,1.41,0,2.12C469.36,232.66,469.37,233.61,469.37,234.55Z" style="fill:#c1d82f"/><path d="M277.76,413.21a2.83,2.83,0,0,0,3.13-2.1l46-178.13,12.18-47.16a.6.6,0,0,0-1.13-.41L233.7,403.92a2.53,2.53,0,0,0,2,3.6Z" style="fill:#fff"/><path d="M306.57,413.42c7.07-14.69,28.23-60.8,24.11-171.23C318.32,351,300.39,412.8,300.39,412.8Z" style="fill:#fff"/><path d="M306.4,423.76c-.09.32-.2.64-.31,1a22.76,22.76,0,0,1-21.68,15.16h-35.5a22.77,22.77,0,0,1-21.68-15.16c-.1-.32-.21-.64-.31-1a1.54,1.54,0,0,1,1.46-2H305A1.53,1.53,0,0,1,306.4,423.76Z" style="fill:#fff"/><path d="M174.8,392.48a1.22,1.22,0,0,1-.07.17,13.48,13.48,0,0,1-12.57,8.19H137.38a13.51,13.51,0,0,1-12.58-8.19l-.06-.17a1.29,1.29,0,0,1,1.22-1.75h47.62A1.3,1.3,0,0,1,174.8,392.48Z" style="fill:#fff"/><path d="M140.72,381.93l1.6-117.3a.24.24,0,0,1,.47,0c2.15,18.21,12.44,99.67,26,117.3a1.08,1.08,0,0,1-.82,1.74c-9.55.27-21.34.06-25.6,0A1.64,1.64,0,0,1,140.72,381.93Z" style="fill:#fff"/><path d="M132.63,382.28c-.81-6.48-4-37.32,1.89-84.93-11.73,37.69-11.84,76-11.7,84.5a1.74,1.74,0,0,0,1.75,1.71h6.92A1.14,1.14,0,0,0,132.63,382.28Z" style="fill:#fff"/></g></g></svg>