<svg xmlns="http://www.w3.org/2000/svg" viewBox="0 0 469.37 469.33"><g id="Layer_2" data-name="Layer 2"><g id="icon"><path d="M234.67,465.83A231.16,231.16,0,0,1,71.21,71.21,231.17,231.17,0,0,1,398.13,398.13,229.68,229.68,0,0,1,234.67,465.83Z" style="fill:#fff"/><path d="M234.67,7a227.73,227.73,0,0,1,88.61,437.45A227.73,227.73,0,0,1,146.05,24.89,226.23,226.23,0,0,1,234.67,7m0-7C105.06,0,0,105.06,0,234.67S105.06,469.33,234.67,469.33,469.33,364.27,469.33,234.67,364.27,0,234.67,0Z" style="fill:#005596"/><path d="M3.81,245.91q-.08-1.46-.12-2.88c0-.82,0-1.62-.07-2.41-.06-1.73-.09-3.59-.09-5.89a230.54,230.54,0,0,1,13-76.47L37,148.64l11.48-5.39,4.2-2L180.87,81.11a103.42,103.42,0,0,1,87.93,0l41,19.26,14.72-7.52a5.45,5.45,0,0,1,5,0l95.39,48.73v1.35h2.66l24.28,12.41c.19.5.37,1,.55,1.5.3.85.6,1.69.89,2.54.39,1.12.76,2.22,1.12,3.34.28.85.55,1.66.8,2.48s.57,1.84.85,2.76c.42,1.38.81,2.73,1.19,4.1.17.59.33,1.18.49,1.76.25.92.5,1.83.73,2.75.15.57.29,1.11.42,1.66s.31,1.24.46,1.84c.44,1.84.87,3.68,1.27,5.54.14.64.27,1.27.4,1.91l0,.1c.09.39.17.77.24,1.16.15.73.27,1.35.39,2,.18.93.34,1.77.48,2.6.11.55.19,1,.28,1.54l0,.21c.27,1.5.51,3,.73,4.48.09.57.17,1.1.25,1.63l.23,1.69c.14,1,.27,1.92.39,2.88l.21,1.75c0,.39.09.76.13,1.14.06.61.13,1.21.19,1.79h0l.07.65L447,212.5l-124.2,9.57-4.25.33-.26,0L20.43,245.36,3.84,246.64Z" style="fill:#fff"/><path d="M224.83,74.8a100.65,100.65,0,0,1,42.49,9.48l39.48,18.53,3.1,1.46,3.05-1.56L326.16,96a1.86,1.86,0,0,1,.89-.22,1.89,1.89,0,0,1,.89.22l70.81,36.18,22.68,11.58v2.71h5.31l5.83,3,7.06,3.61.13.06.14.06,9.14,4.68.08.2.87,2.5c.38,1.09.75,2.18,1.1,3.28v.05c.26.79.52,1.58.77,2.39s.56,1.8.84,2.75c.38,1.24.76,2.55,1.17,4v.05c.15.55.31,1.11.47,1.7.24.89.48,1.79.72,2.73.14.53.27,1,.4,1.59l0,0v.05c.15.57.29,1.14.43,1.71.44,1.84.86,3.69,1.25,5.48.13.61.26,1.22.38,1.84l0,.1,0,.1c.07.34.14.67.2,1l0,.09,0,.08c.12.61.24,1.2.35,1.81l0,.08v.09c.15.72.3,1.51.45,2.4v.12c.09.47.18.95.26,1.43l0,.25c.28,1.58.53,3.16.71,4.36v.09c.09.5.16,1,.23,1.49v.08l.23,1.65c.13.93.26,1.86.37,2.78l.18,1.5,0,.21-6.38.49-7.73.59-124.21,9.58-1.36.1-2.83.22-.26,0h-.1L34.05,240.8l-9.1.7-4.78.37-11.88.91-1.1.09c0-.78-.05-1.56-.07-2.34v-.07C7.06,238.81,7,237,7,234.73A226.93,226.93,0,0,1,19.31,160.8l16.14-7.57,2.31-1.09h0l1.41-.66,2.7-1.27,5.88-2.76,2.18-1,4.22-2,15.47-7.26L121,113.09l61.39-28.81a100.56,100.56,0,0,1,42.47-9.48m0-7a106.9,106.9,0,0,0-45.45,10.14L118,106.75l-51.34,24.1-15.47,7.26-4.21,2-2.19,1-5.88,2.76-2.7,1.27h0l-3.72,1.75-18.8,8.82c-.15.39-.29.79-.42,1.19A234.06,234.06,0,0,0,0,234.73c0,2,0,4,.09,6,0,.81,0,1.62.07,2.43q0,1.47.12,2.94c.06,1.26.13,2.52.22,3.77l0,.55h0L5.18,250l.76-.06,2.88-.22,11.88-.91,4.79-.37,9.1-.7,283.88-21.87.31,0,2.87-.22,1.38-.11L447.23,216l7.72-.59,13.53-1c-.09-1.07-.19-2.15-.3-3.21,0,0,0,0,0-.06-.09-.91-.19-1.82-.29-2.73,0-.41-.09-.82-.14-1.22l-.21-1.76q-.18-1.47-.39-2.94l-.24-1.71c-.08-.55-.16-1.1-.25-1.65-.23-1.52-.47-3-.74-4.55-.1-.58-.2-1.17-.31-1.75-.15-.87-.31-1.74-.49-2.62-.12-.67-.25-1.33-.39-2-.08-.44-.17-.87-.27-1.31-.13-.66-.27-1.32-.41-2q-.62-2.82-1.29-5.62c-.15-.62-.3-1.24-.46-1.85s-.28-1.13-.43-1.7c-.24-.93-.49-1.86-.74-2.78-.16-.6-.33-1.21-.5-1.8-.39-1.39-.79-2.77-1.21-4.15-.28-.94-.57-1.87-.86-2.8s-.53-1.68-.81-2.52c-.37-1.14-.75-2.27-1.14-3.4-.3-.87-.6-1.73-.91-2.59s-.68-1.88-1-2.81l-11.72-6-.13-.06-7.06-3.61-7.33-3.75h0l-.88-.44-.64-.33-1.42-.72-23.55-12L331.12,89.73a9,9,0,0,0-8.15,0l-13.2,6.74L270.29,77.94A106.94,106.94,0,0,0,224.83,67.8Z" style="fill:#005596"/><path d="M48.35,370.47,47,368.55l-.64-.9c-2.31-3.27-4.56-6.66-6.68-10l-1.44-2.3c-1.11-1.84-2.43-4-3.66-6.22-.45-.78-.87-1.5-1.27-2.24l-1.22-2.22-1.19-2.21c-2.78-5.3-5.36-10.67-7.64-16-1.36-3.14-2.65-6.32-3.84-9.42-.62-1.63-1.27-3.41-2-5.45-2.12-6-4-12.17-5.65-18.44,0-.13-.09-.35-.15-.57-.54-2.07-1-3.94-1.38-5.67-.2-.82-.37-1.61-.55-2.42,0,0-.06-.26-.08-.32v-1l-.22-.24v-.05l-.06-.06c-.21-1-.4-1.92-.59-2.87-.54-2.75-1-5.24-1.37-7.6-.14-.86-.28-1.69-.41-2.52-.63-4.19-1.16-8.41-1.55-12.54,0-.27,0-.47-.06-.66l-.18-2-.07-.88c-.05-.59-.09-1.18-.13-1.77l-.12-1.65v-.08l0-.2c0-.12,0-.23,0-.35-.08-1.26-.16-2.49-.21-3.72-.05-1-.09-2-.12-2.91s0-1.61-.07-2.41c-.06-1.74-.09-3.59-.09-5.89a230.4,230.4,0,0,1,13-76.66c.13-.43.25-.77.38-1.1,1.59-4.43,3.28-8.75,5.07-12.93,2.8-.17,5.32-.25,7.64-.25,1.17,0,2.3,0,3.37.06A69.83,69.83,0,0,1,49,146.46c9.51,2.53,19.63,6.42,27.76,9.55,1.72.66,3.34,1.29,4.86,1.86l.11,0,.11,0a91,91,0,0,0,11.34,2.62c.85.16,1.77.29,2.66.42,3.92.54,8,.9,13.33,1.14l3.69.14,4.14.13c11.24.33,22.87.67,37.31,4.21l1.73.43,0,0,.38.1a77.08,77.08,0,0,0,17.33,2.46c.82,0,1.58,0,2.34,0h.59c1.12,0,2.21,0,3.24-.08s1.88-.07,2.87-.13c9.75-.62,19.4-2.55,29.61-4.58,13.72-2.74,27.91-5.58,44.37-5.71H257c.85,0,1.73-.06,2.6-.06,15.31,0,30.53,6.56,43.95,12.34,9,3.89,17.52,7.56,25.33,9l.37.07c.82.16,1.64.3,2.46.44l3.73.59.37.06,1,.14c5.29.78,11.14,1.44,18.32,2.08,1.8.17,3.63.33,5.46.47,3.64.29,7.35.57,11.07.85,20.74,1.57,42.16,3.18,61.68,9a230.17,230.17,0,0,1-14.7,98.09c-.87,2-1.71,4.14-2.53,6.19-2.4,6-4.87,12.14-8.18,17.2-.49,0-1.13.1-2,.2-12.78,1.49-57.79,8.73-114.78,17.9l-43.71,7c-31.87,5.11-73.13,11.7-109.64,17.26l-15.94,2.42-1.87.28-3.68.56C83.55,366.19,61.28,369.19,48.35,370.47Z" style="fill:#fff"/><path d="M30.42,147.29c1.12,0,2.2,0,3.22.06h.06a66.49,66.49,0,0,1,14.41,2.49c9.32,2.48,19.35,6.34,27.4,9.44l4.88,1.86.22.09.23.07A93.5,93.5,0,0,0,92.56,164c1,.19,2,.33,2.82.45,4,.56,8.22.92,13.68,1.17l3.69.14,4.16.13c11.06.32,22.5.66,36.59,4.12l1.35.33h0l.7.19a81.15,81.15,0,0,0,18.12,2.57h.07c.78,0,1.56,0,2.34,0h.63c1.13,0,2.24,0,3.3-.08.89,0,1.82-.06,3-.14,10-.63,19.75-2.58,30.08-4.64,13.56-2.71,27.58-5.51,43.71-5.64h.29c.79,0,1.61-.06,2.43-.06,14.59,0,28.81,6.13,42.57,12.06,9.17,4,17.84,7.69,26,9.23l.48.09c.84.16,1.68.3,2.48.44l3.79.61.33.05,1,.14c5.42.8,11.32,1.47,18.49,2.1,2.2.21,3.9.36,5.53.47,3.68.31,7.44.59,11.08.86,19.73,1.49,40.07,3,58.62,8.21A226.88,226.88,0,0,1,415.32,291c-.88,2.05-1.72,4.16-2.54,6.21a108.54,108.54,0,0,1-7,15.18l-.33,0c-12.84,1.5-57.87,8.74-114.87,17.92h-.1l-7.11,1.14-4.92.79-3.79.61-5.15.83-22.69,3.65c-31.89,5.12-73.18,11.71-109.6,17.26l-7,1.06-5,.76-2.94.45-1,.15-1.81.27-3.73.56c-31,4.63-52.64,7.56-65.76,8.93l-.18-.25,0,0h0l-.28-.39-.3-.43c-2.29-3.25-4.51-6.59-6.62-10-.47-.74-.93-1.49-1.38-2.21-1.11-1.82-2.4-4-3.61-6.12l0,0v0c-.42-.72-.83-1.43-1.23-2.17l-.6-1.08-.6-1.1-.58-1.08L34,340.81c-2.75-5.23-5.29-10.53-7.54-15.73-1.34-3.11-2.61-6.24-3.78-9.3-.62-1.61-1.26-3.36-2-5.37-2.08-5.85-3.94-11.93-5.54-18.08-.05-.21-.11-.42-.17-.64-.53-2.05-1-3.87-1.35-5.55v-.05c-.18-.78-.35-1.55-.53-2.34v-2.07l-.46-.48,0-.08L12.5,281l-.36-1.76c-.53-2.73-1-5.18-1.35-7.51-.13-.82-.27-1.65-.4-2.48-.62-4.13-1.14-8.29-1.53-12.34v-.18c0-.14,0-.28,0-.47v-.11c0-.29,0-.59-.08-.89s-.05-.64-.08-1l-.07-.89c-.05-.57-.09-1.15-.13-1.75l-.1-1.48V250l-.05-.38v-.3c-.08-1.24-.16-2.4-.2-3.56v-.08c0-.93-.08-1.87-.11-2.85,0-.78,0-1.56-.07-2.34v-.07c-.06-1.66-.09-3.47-.09-5.73a226.86,226.86,0,0,1,12.83-75.5l0-.08,0-.08q.15-.47.3-.84l0-.08,0-.08c1.29-3.6,2.67-7.17,4.12-10.65,1.89-.09,3.63-.13,5.28-.13m0-7c-3.18,0-6.54.15-10,.4l-.26.59q-3.09,7.09-5.71,14.43c-.15.39-.29.79-.42,1.19A234.06,234.06,0,0,0,.79,234.73c0,2,0,4,.09,6,0,.81,0,1.62.07,2.43q0,1.47.12,2.94c.05,1.26.13,2.52.21,3.78,0,.18,0,.36,0,.54h0l.12,1.76c.06.92.14,1.84.21,2.76.06.63.11,1.27.17,1.9,0,.25,0,.51.07.76q.62,6.42,1.58,12.73c.13.86.27,1.71.41,2.56.42,2.59.89,5.16,1.39,7.72q.39,1.95.81,3.9a51510534187.32,51510534187.32,0,0,1,0,.06q.06.34.15.69c.18.82.36,1.63.55,2.44.44,1.95.92,3.89,1.42,5.82,0,.18.1.36.14.53q2.48,9.53,5.73,18.72c.65,1.85,1.32,3.7,2,5.53Q18,323.13,20,327.85q3.59,8.28,7.77,16.21L29,346.32l1.22,2.22c.42.76.85,1.51,1.28,2.26,1.2,2.14,2.46,4.24,3.74,6.34.48.78,1,1.55,1.45,2.32q3.27,5.22,6.81,10.24l.63.88c.76,1.06,1.52,2.12,2.3,3.17a4.73,4.73,0,0,0,.28.39c13.83-1.27,39.09-4.75,70.1-9.37l5.54-.83,4-.61,11.93-1.81c33.91-5.17,72.47-11.3,109.67-17.27l27.84-4.48,8.7-1.4,7.12-1.14c55.74-9,102-16.41,114.67-17.89,1.5-.16,2.53-.25,3.05-.25a.92.92,0,0,1,.39,0c5.32-7.39,8.45-17,12.09-25.54a232.08,232.08,0,0,0,13.6-54,229.48,229.48,0,0,0,1.16-48.09c-24-7.64-50.56-8.65-75.8-10.72-1.81-.13-3.61-.29-5.4-.46-6.19-.55-12.29-1.2-18.21-2.07-.41,0-.81-.12-1.21-.18l-3.68-.59c-.83-.14-1.65-.28-2.47-.44l-.23,0c-19-3.53-43.66-21.44-70-21.43-.92,0-1.85,0-2.78.06-29.2.23-51.76,8.87-74.18,10.29-.94.06-1.88.11-2.82.13s-2,.08-3,.08h-.6c-.74,0-1.48,0-2.23,0a74.12,74.12,0,0,1-16.56-2.35l-.07,0-2.13-.53c-16.62-4.08-29.67-4-42.17-4.44l-3.64-.14c-4.32-.2-8.61-.5-13-1.11-.85-.12-1.72-.25-2.59-.41a85.31,85.31,0,0,1-10.89-2.52c-8.71-3.29-21.24-8.4-32.95-11.52a73.23,73.23,0,0,0-16-2.72c-1.14,0-2.31-.06-3.5-.06Z" style="fill:#005596"/><path d="M297,371.5l-12.53,0c-12.12,0-24.52-.1-37-.17-26-.14-51.8-.34-78.18-.54l-30.67-.23c-23.45-.17-47.54-.32-64.91-.32-15.85,0-22.66.1-25.81.33-.6-.67-1.2-1.38-1.79-2.12a99.45,99.45,0,0,1-7.18-10.74l-1.83-3.09c-1.09-1.84-2.22-3.75-3.36-5.57-.41-.72-.82-1.43-1.22-2.16l-1.22-2.22-1.18-2.21c-2.72-5.13-5.29-10.5-7.65-15.95-1.36-3.16-2.65-6.33-3.83-9.43-.75-2-1.4-3.77-2-5.45-2.11-6-4-12.2-5.65-18.44a4.48,4.48,0,0,0-.15-.57c-.46-1.84-.94-3.76-1.38-5.68-.19-.81-.37-1.6-.54-2.41-.07-.29-.11-.48-.15-.67l-.21-1h0c-.21-1-.41-1.94-.6-2.9-.26-1.35-.52-2.71-.76-4.08-.16-.89-.31-1.78-.46-2.68l-.15-.84c-.14-.84-.27-1.67-.4-2.52-.65-4.2-1.17-8.41-1.56-12.53,0-.28,0-.48-.06-.67l-.2-2.32c.76-.36,1.52-.7,2.25-1,1-.48,2.05-.92,3.06-1.35a222,222,0,0,1,30.13-10q2.61-.71,5.2-1.35l1.32-.33c1.78-.45,3.57-.88,5.35-1.31l.45-.11c3.64-.87,7.3-1.72,11-2.55l6.56-1.53,6.26-1.47,3.34-.81,2.06-.51c6.33-1.57,11.77-3.06,16.61-4.55,2.13-.64,4.1-1.28,6-1.94.45-.14,1-.32,1.49-.5a64.2,64.2,0,0,0,8-3.5c5.11-2.62,10.34-5.89,15.88-9.36l1.42-.89,2.66-1.65.78-.48q2.13-1.32,4.3-2.6l1.11-.67c9-5.28,20.93-11.49,33.76-12.82l.14,0a168.9,168.9,0,0,1,24.87-1.66c6.84,0,13.44.3,19.83.58,5.89.27,11.46.52,17,.54h.75c10.37,0,24.05-.77,37.93-6.77,1.6-.7,3.17-1.34,4.67-1.92l2.11-.8.25-.1c2.82-1,5.62-2,8.56-2.82l3.07-.86c2.05-.55,4.19-1.07,6.53-1.6q2.6-.57,5.13-1.07c2.74-.55,5.44-1,8.05-1.53l2.8-.52c1.82-.33,3.62-.66,5.43-1s3.59-.74,5.28-1.14,3.33-.81,4.89-1.24l.28-.08,2.15-.63c2.05-.61,4-1.28,6.05-2,2.36-.88,4.75-1.9,7.1-3l.11-.05.11-.06,4.93-2.8,1.82-1,2.17-1.24,1.73-1c3.22-1.81,6.11-3.39,8.82-4.82,10.92-5.7,19.32-9,25.66-10.21,9.88-1.93,22.7-2.29,34-2.61l.81,0c6.47-.19,13.13-.38,19.51-.77l.7,1.57.82,1.9c.86,2,1.54,3.68,2.15,5.23l.25.64c.23.57.45,1.14.67,1.71.31.81.61,1.59.9,2.38s.68,1.85,1,2.77l.89,2.55c.38,1.11.76,2.21,1.12,3.33.28.85.54,1.66.79,2.48s.58,1.84.85,2.76c.42,1.38.82,2.73,1.2,4.1.17.59.33,1.18.49,1.76.25.92.49,1.83.73,2.75.15.57.28,1.11.42,1.66s.31,1.24.46,1.84c.44,1.84.86,3.68,1.27,5.54.13.64.27,1.28.39,1.91l0,.1c.08.39.16.77.23,1.16.16.73.28,1.35.39,2,.19.93.35,1.77.49,2.6.1.53.18,1,.27,1.5l0,.25c.27,1.5.5,3,.73,4.48.09.56.17,1.09.24,1.62l.24,1.7c.14,1,.27,1.92.38,2.88l.21,1.75c.05.39.1.77.13,1.14.07.64.14,1.23.2,1.81h0l.09.81v0l0,.13c.1,1,.2,2.1.29,3.15.14,1.65.27,3.31.38,5s.2,3.18.25,4.63c0,.17,0,.25,0,.33v.15c.07,1.63.13,3.28.16,4.92,0,.72,0,1.41,0,2.1,0,.92,0,1.86,0,2.78v.78c0,.87,0,1.74,0,2.59,0,1.73-.08,3.46-.14,5.18,0,1.3-.1,2.6-.17,3.89l0,.42-.06,1.06c-.14,2.26-.31,4.56-.51,6.83,0,0-.11,1.28-.14,1.65-.12,1.19-.24,2.38-.38,3.57l-.1,1c-.15,1.34-.32,2.66-.48,4-.3,2.26-.64,4.56-1.05,7-.28,1.7-.58,3.43-.94,5.3l-.06.33-.36,1.88a232.76,232.76,0,0,1-13.86,45c-.89,2.13-1.82,4.23-2.75,6.24-.62,1.35-1.25,2.67-1.88,4-.33.71-.67,1.4-1,2.08l-1,2.06c-.33.66-.67,1.32-1,2-1,2-2.12,4-3.31,6.14-.42.74-.81,1.44-1.21,2.13l-.82,1.39c-.64,1.1-1.28,2.19-1.94,3.28l-1.48,2.43-.09.13c-.67,1.07-1.34,2.12-2,3.17l-.43.68-.84,1.27c-1.55,2.35-2.88,4.3-4.18,6.12l-.85,1.19c-1.59.33-6.67,1-22.79,1.48-17.75.54-44.62.8-82.14.8Z" style="fill:#fff"/><path d="M443.69,144.28c.17.41.35.81.52,1.21.85,2,1.52,3.62,2.11,5.14l.25.64.67,1.71c.3.77.58,1.53.87,2.29l0,0h0c.34.9.67,1.81,1,2.72s.59,1.66.88,2.5c.38,1.09.74,2.18,1.1,3.27v.06c.26.79.52,1.58.77,2.39s.56,1.8.84,2.75c.38,1.24.76,2.55,1.18,4.05.16.55.32,1.11.47,1.7.25.89.49,1.79.73,2.72.14.54.27,1.06.4,1.59v.06l0,.05c.15.57.28,1.14.42,1.71.45,1.86.87,3.7,1.25,5.44v0c.13.61.26,1.22.38,1.83l0,.1,0,.1c.08.34.15.67.21,1l0,.1,0,.09c.12.6.24,1.2.35,1.8v.08l0,.09c.15.72.3,1.51.45,2.4v.12c.09.47.17.94.25,1.41l.05.27c.22,1.23.44,2.58.71,4.36v.08c.08.51.16,1,.23,1.5l.24,1.72c.13.94.26,1.87.37,2.79l.21,1.79c0,.34.09.69.12,1v.14c0,.23.05.46.07.69h0l.21,2c.1,1,.2,2.05.28,3.07.16,1.87.28,3.43.38,5s.19,3.1.24,4.5v.5c.09,1.95.13,3.44.16,4.83v.07c0,.67,0,1.35,0,2,0,.91,0,1.84,0,2.75v.78c0,.86,0,1.71,0,2.53,0,1.61-.07,3.28-.14,5.13,0,1.18-.09,2.43-.16,3.82l0,.29v.14l0,.49c0,.18,0,.36,0,.53-.13,2.23-.29,4.5-.49,6.74l-.05.54c0,.36-.06.71-.1,1.07-.11,1.17-.23,2.35-.37,3.53,0,.17,0,.34-.05.52s0,.29,0,.46c-.14,1.3-.31,2.6-.47,3.88-.29,2.23-.63,4.48-1,6.94-.27,1.65-.57,3.34-.92,5.18l-.06.32c-.11.61-.23,1.23-.36,1.85a229.49,229.49,0,0,1-13.64,44.32c-.88,2.09-1.8,4.15-2.72,6.16-.59,1.3-1.2,2.57-1.86,4-.34.73-.66,1.37-1,2l-.49,1c-.18.35-.37.71-.54,1.06-.32.65-.66,1.29-1,2-1,2-2.06,3.92-3.25,6-.39.69-.77,1.38-1.19,2.09l-.45.78-.35.59c-.64,1.1-1.28,2.19-1.9,3.21l-.18.29-.28.46-.48.79-.51.84-.1.16c-.66,1-1.32,2.08-2,3.12l-.24.37-.17.27-.83,1.26c-1.54,2.32-2.84,4.24-4.12,6-2.35.31-7.9.79-20.9,1.2-17.71.54-44.56.8-82.07.8H297l-6.14,0-6.39,0c-11,0-23.15-.09-37-.17-26-.14-51.81-.34-78.18-.54l-2.83,0-2.77,0-6.74,0c-2.48,0-4.94,0-7.37-.06h-3.27l-7.69-.06c-23.44-.17-47.54-.32-64.93-.32-13.13,0-20.23.05-24.29.23-.2-.23-.39-.47-.58-.71a92.37,92.37,0,0,1-6.91-10.36c-.61-1-1.22-2-1.82-3.06-1.09-1.84-2.22-3.75-3.36-5.59-.39-.68-.78-1.36-1.17-2.06L35,344.07l-.6-1.09-.59-1.09-.59-1.1c-2.67-5.05-5.2-10.34-7.53-15.71-1.34-3.11-2.61-6.24-3.76-9.27-.74-1.95-1.38-3.72-2-5.38-2.07-5.88-3.93-12-5.54-18.1-.05-.19-.1-.4-.16-.62-.56-2.18-1-4-1.38-5.63-.18-.78-.35-1.55-.53-2.34l0-.1,0-.1c0-.14-.06-.28-.1-.45l-.42-2h0c-.12-.62-.25-1.24-.37-1.85-.26-1.34-.52-2.69-.76-4-.16-.88-.3-1.76-.45-2.63l-.08-.46c0-.12,0-.24-.06-.38l0-.11c-.13-.78-.26-1.57-.38-2.38C9,265.13,8.49,261,8.11,256.93v-.19l0-.31h0l0,0c1-.46,2-.88,2.94-1.29a219,219,0,0,1,29.65-9.84c1.54-.41,3.22-.84,5.14-1.33l1.33-.33c1.74-.44,3.48-.86,5.22-1.28l.52-.13c3.18-.75,6.56-1.54,11-2.55l2.51-.58,4-.94,6.32-1.48,1.4-.34,2-.47,1.37-.34.66-.17c6.5-1.61,11.84-3.08,16.77-4.59,2.18-.66,4.17-1.3,6.09-2,.53-.17,1-.35,1.59-.54a65.9,65.9,0,0,0,8.44-3.69c5.24-2.68,10.53-6,16.13-9.5l1.44-.9,1.71-1.07h0l1.69-1c1.48-.92,2.87-1.76,4.24-2.57l.07,0,0,0,1-.61c8.67-5.09,20.17-11.09,32.33-12.35l.14,0,.14,0a166.36,166.36,0,0,1,24.37-1.62c6.76,0,13.32.29,19.67.58,5.93.27,11.54.52,17.18.54H236c10.7,0,24.84-.81,39.32-7.07,1.54-.67,3.06-1.29,4.52-1.85l1.78-.68.55-.21c2.73-1,5.46-1.9,8.32-2.74,1-.28,1.94-.55,3-.84,2-.53,4.09-1.05,6.35-1.56,1.59-.35,3.25-.7,5.1-1.06,2.7-.55,5.39-1,8-1.52l2.77-.51c1.85-.34,3.65-.67,5.49-1.06s3.69-.76,5.38-1.16,3.43-.83,5.05-1.28h.05l.29-.08,2.15-.63c2.15-.64,4.2-1.33,6.27-2.11,2.46-.92,5-2,7.39-3.14l.22-.1.21-.12,4.85-2.76,1.36-.77.52-.3c.71-.41,1.44-.83,2.18-1.24l.07,0,1.65-.93c3.19-1.8,6-3.36,8.73-4.77,10.62-5.54,18.69-8.78,24.69-9.88h.07c9.55-1.86,22.22-2.22,33.41-2.53l.86,0c5.66-.17,11.47-.33,17.14-.64M448.1,137c-7.3.52-15,.73-22.61.95-12.48.35-24.71.74-34.55,2.66-8,1.47-17.6,5.83-26.66,10.56-3.07,1.62-6.07,3.27-8.92,4.87l-1.72,1-2.75,1.57-6.17,3.51c-2.31,1.1-4.58,2.06-6.83,2.9-2,.74-3.91,1.39-5.85,2-.78.24-1.56.46-2.33.68-1.59.44-3.18.84-4.77,1.21s-3.45.78-5.18,1.12-3.56.7-5.36,1c-3.55.66-7.16,1.3-10.89,2q-2.56.51-5.22,1.09c-2.17.49-4.4,1-6.67,1.64-1,.28-2.08.57-3.14.88-2.83.83-5.75,1.78-8.77,2.89-.8.29-1.61.6-2.42.91h0c-1.57.6-3.18,1.26-4.81,2-12,5.21-24,6.49-36.53,6.49h-.74c-11.61,0-23.73-1.12-36.88-1.12A175.57,175.57,0,0,0,173,189.48c-12.71,1.32-24.39,7-35.15,13.28l-1.14.68q-2.21,1.31-4.36,2.64h0l-3.44,2.14c-6,3.73-11.64,7.33-17,10.1a60.85,60.85,0,0,1-7.56,3.31l-1.49.5q-2.91,1-5.9,1.9c-5.33,1.64-10.83,3.11-16.43,4.5l-2,.51-3.31.8-6.26,1.47-6.54,1.52q-5.49,1.26-11,2.56c-1.94.47-3.89.94-5.83,1.43l-1.32.33q-2.62.66-5.25,1.36A227.36,227.36,0,0,0,8.32,248.66c-1.05.44-2.09.9-3.13,1.38q-2.27,1-4.5,2.12c.06.92.14,1.84.21,2.76.06.63.11,1.27.17,1.9,0,.25,0,.51.07.76q.6,6.38,1.58,12.73c.13.86.27,1.71.41,2.56,0,.29.1.57.14.86.16.91.31,1.81.47,2.72.25,1.38.51,2.77.78,4.14s.53,2.6.81,3.9a0,0,0,0,0,0,0c0,.24.1.48.16.72.18.82.36,1.63.55,2.44.45,1.95.93,3.89,1.42,5.82,0,.18.1.36.14.53q2.49,9.5,5.73,18.72c.65,1.85,1.33,3.7,2,5.53q1.84,4.85,3.89,9.57,3.59,8.29,7.77,16.21l1.21,2.26,1.22,2.22c.42.76.85,1.51,1.28,2.26,1.74,2.79,3.43,5.73,5.19,8.66a99.22,99.22,0,0,0,7.44,11.12c1,1.27,2.07,2.49,3.18,3.63h0s0,0,0,0c.62-.37,10.67-.51,27.13-.51s38.92.13,64.88.32l7.69.06,3.26,0,14.11.11,5.62,0c25,.19,51.73.39,78.18.54,12.47.07,24.88.13,37,.17L297,375h20.77c33.54,0,62.83-.21,82.29-.81,14.47-.45,23.52-1.1,24.88-2,.12-.08.18-.16.18-.25l1.33-1.85c1.45-2,2.86-4.12,4.25-6.21l.84-1.29c.15-.22.29-.46.44-.69.69-1.06,1.37-2.13,2.05-3.21a1.74,1.74,0,0,1,.11-.18l1-1.68c.15-.25.3-.5.46-.75.66-1.11,1.32-2.21,2-3.33.28-.46.55-.92.82-1.39.42-.72.83-1.45,1.24-2.18,1.16-2.06,2.28-4.13,3.36-6.23.35-.67.7-1.35,1-2l1-2c.36-.71.71-1.43,1.05-2.15.64-1.34,1.28-2.68,1.9-4q1.46-3.15,2.8-6.34a236.54,236.54,0,0,0,14.06-45.67c.15-.75.29-1.5.43-2.24q.51-2.67.95-5.37.6-3.57,1.07-7.15c.17-1.33.34-2.67.49-4,0-.32.07-.65.1-1,.14-1.21.27-2.42.38-3.63l.15-1.67c.2-2.31.38-4.62.51-6.94,0-.36.05-.72.07-1.08,0-.14,0-.28,0-.42.06-1.31.12-2.63.17-3.94.06-1.75.11-3.51.14-5.27,0-.87,0-1.75,0-2.63v-.78c0-.94,0-1.89,0-2.83,0-.71,0-1.42,0-2.12,0-1.67-.09-3.34-.16-5,0-.15,0-.31,0-.47-.06-1.58-.15-3.15-.26-4.72s-.24-3.37-.38-5c-.09-1.07-.19-2.15-.3-3.21,0,0,0,0,0-.06-.09-.91-.19-1.82-.29-2.73,0-.41-.09-.82-.14-1.22l-.21-1.76q-.18-1.47-.39-2.94l-.24-1.71c-.08-.55-.16-1.1-.25-1.65-.23-1.52-.47-3-.74-4.55-.1-.58-.2-1.17-.31-1.75-.15-.87-.31-1.74-.49-2.62-.12-.67-.25-1.33-.39-2-.08-.44-.17-.87-.27-1.31-.13-.66-.27-1.32-.41-2q-.62-2.82-1.29-5.62c-.15-.62-.3-1.24-.46-1.85s-.28-1.13-.43-1.7c-.24-.93-.49-1.86-.74-2.78-.16-.6-.33-1.21-.5-1.8-.39-1.39-.79-2.77-1.21-4.15-.28-.94-.57-1.87-.86-2.8s-.53-1.68-.81-2.52c-.37-1.14-.75-2.27-1.14-3.4-.3-.87-.6-1.73-.91-2.59s-.68-1.88-1-2.81-.6-1.6-.91-2.4-.62-1.59-.93-2.38c-.7-1.79-1.44-3.57-2.19-5.33-.27-.63-.54-1.26-.82-1.89-.14-.33-.29-.66-.44-1s-.42-.95-.64-1.43l0,0c-.2-.47-.42-.93-.63-1.4Z" style="fill:#005596"/><path d="M279.15,418.35a7.59,7.59,0,0,1-1.07-.07L236,412.59a7.64,7.64,0,0,1-5.88-10.87L334.35,183.2a5.66,5.66,0,0,1,5.15-3.26,5.8,5.8,0,0,1,4.54,2.23,5.69,5.69,0,0,1,1,4.93l-58.2,225.29a8,8,0,0,1-7.7,6Z" style="fill:#fff"/><path d="M339.5,185.06a.61.61,0,0,1,.6.76L327.91,233l-46,178.13a2.84,2.84,0,0,1-2.75,2.13,2.56,2.56,0,0,1-.39,0l-42.11-5.69a2.53,2.53,0,0,1-2-3.6L339,185.41a.58.58,0,0,1,.54-.35m0-10.23a10.74,10.74,0,0,0-9.77,6.17L225.47,399.51a12.77,12.77,0,0,0,9.81,18.15l42.11,5.69a12.9,12.9,0,0,0,1.76.12,13.06,13.06,0,0,0,12.65-9.8l46-178.13L350,188.38a10.74,10.74,0,0,0-1.91-9.34,10.93,10.93,0,0,0-8.59-4.21Z" style="fill:#fff"/><path d="M303.87,431.9a5.15,5.15,0,0,1-4.19-2.17l-1.07-.1a5.13,5.13,0,0,1-4.4-6.52c.19-.64,18.87-65.93,31.65-178.4a5.12,5.12,0,0,1,5.08-4.53h.24a5.12,5.12,0,0,1,4.88,5c2.27,110.12-15.88,160.78-25.35,179.52a5.14,5.14,0,0,1-1.59,4.21c-.33.3-.6.56-.83.78C307.16,430.78,306,431.9,303.87,431.9Z" style="fill:#fff"/><path d="M331,245.29c2.57,124.93-21.32,170.9-26.23,179.81l-5.6-.56S318,359.59,331,245.29M304.72,425.1l.9.09a16.48,16.48,0,0,1-1.75,1.59c-.1,0,.22-.53.85-1.68m26.22-190a10.23,10.23,0,0,0-10.16,9.08c-10.18,89.56-25,155.3-31.48,177.55a10.22,10.22,0,0,0,8,12.9,10.24,10.24,0,0,0,6.61,2.42,11,11,0,0,0,7.95-3.61l.79-.75a10.21,10.21,0,0,0,3.21-6.72c7.17-14.51,12-32.21,14.81-45,8.1-36.51,11.65-82.21,10.54-135.84a10.23,10.23,0,0,0-9.75-10Z" style="fill:#fff"/><path d="M157.2,388.89c-6.31,0-12.1-.11-15-.18a6.78,6.78,0,0,1-6.61-6.85l1.6-117.3a5.35,5.35,0,0,1,10.67-.56c5.31,44.88,15,101.86,24.93,114.79a6.19,6.19,0,0,1-4.74,10C164.93,388.84,161.27,388.89,157.2,388.89Z" style="fill:#fff"/><path d="M142.56,264.4a.22.22,0,0,1,.23.2c2.15,18.21,12.44,99.67,26,117.3a1.08,1.08,0,0,1-.82,1.74c-3.44.1-7.16.13-10.72.13-6.34,0-12.15-.11-14.88-.17a1.64,1.64,0,0,1-1.6-1.67l1.6-117.3a.23.23,0,0,1,.24-.23m0-10.23a10.51,10.51,0,0,0-10.47,10.33l-1.6,117.29a11.92,11.92,0,0,0,11.6,12c2.91.06,8.73.17,15.11.17,4.12,0,7.82,0,11-.14a11.3,11.3,0,0,0,8.65-18.18c-2.14-2.8-7.93-13.67-15.29-54-4.45-24.43-7.51-48.87-8.62-58.24a10.46,10.46,0,0,0-10.39-9.23Z" style="fill:#fff"/><path d="M124.57,388.68a6.89,6.89,0,0,1-6.86-6.75c-.13-7.59-.13-47.38,11.93-86.1a5.12,5.12,0,0,1,10,2.15c-5.81,47.32-2.6,78-1.89,83.67a6.26,6.26,0,0,1-6.22,7Z" style="fill:#fff"/><path d="M134.52,297.35h0m0,0c-5.85,47.61-2.7,78.45-1.89,84.93a1.14,1.14,0,0,1-1.14,1.28h-6.92a1.74,1.74,0,0,1-1.75-1.71c-.14-8.46,0-46.81,11.7-84.5m0-10.23a10.24,10.24,0,0,0-1.84.17,10.1,10.1,0,0,0-4.44,2,10.27,10.27,0,0,0-2.56,2.92,10.67,10.67,0,0,0-1,2.33c-11.91,38.39-12.26,76.64-12.09,87.47a12,12,0,0,0,12,11.78h6.92A11.36,11.36,0,0,0,142.78,381c-.69-5.55-3.83-35.58,1.86-82.15a10.77,10.77,0,0,0,.11-1.52,10.23,10.23,0,0,0-9.43-10.2l-.81,0Zm0,20.46Z" style="fill:#fff"/><path d="M277.76,413.21a2.83,2.83,0,0,0,3.13-2.1l46-178.13,12.18-47.16a.6.6,0,0,0-1.13-.41L233.7,403.92a2.53,2.53,0,0,0,2,3.6Z" style="fill:#fff;stroke:#005596;stroke-linecap:round;stroke-linejoin:round;stroke-width:5.11507272720337px"/><path d="M306.57,413.42c7.07-14.69,28.23-60.8,24.11-171.23C318.32,351,300.39,412.8,300.39,412.8Z" style="fill:#fff;stroke:#005596;stroke-linecap:round;stroke-linejoin:round;stroke-width:4.86878511312866px"/><path d="M306.4,423.76c-.09.32-.2.64-.31,1a22.74,22.74,0,0,1-21.68,15.16h-35.5a22.76,22.76,0,0,1-21.68-15.16c-.1-.32-.21-.64-.31-1a1.54,1.54,0,0,1,1.46-2H305A1.53,1.53,0,0,1,306.4,423.76Z" style="fill:#fff;stroke:#005596;stroke-linecap:round;stroke-linejoin:round;stroke-width:5.11507272720337px"/><path d="M174.8,392.48l-.06.17a13.51,13.51,0,0,1-12.58,8.19H137.38a13.51,13.51,0,0,1-12.58-8.19l-.06-.17a1.29,1.29,0,0,1,1.22-1.75h47.62A1.3,1.3,0,0,1,174.8,392.48Z" style="fill:#fff;stroke:#005596;stroke-linecap:round;stroke-linejoin:round;stroke-width:4.0920581817627px"/><path d="M140.72,381.93l1.6-117.3a.24.24,0,0,1,.47,0c2.15,18.21,12.44,99.67,26,117.3a1.08,1.08,0,0,1-.82,1.74c-9.55.27-21.34.06-25.6,0A1.64,1.64,0,0,1,140.72,381.93Z" style="fill:#fff;stroke:#005596;stroke-linecap:round;stroke-linejoin:round;stroke-width:4.0920581817627px"/><path d="M132.63,382.28c-.81-6.48-4-37.32,1.89-84.93-11.73,37.69-11.84,76-11.7,84.5a1.75,1.75,0,0,0,1.75,1.71h6.92A1.14,1.14,0,0,0,132.63,382.28Z" style="fill:#fff;stroke:#005596;stroke-linecap:round;stroke-linejoin:round;stroke-width:4.0920581817627px"/></g></g></svg>