<svg id="icon" xmlns="http://www.w3.org/2000/svg" viewBox="0 0 512 512"><path d="M255.43,487.09A231.16,231.16,0,0,1,92,92.47,231.17,231.17,0,0,1,418.89,419.39,229.66,229.66,0,0,1,255.43,487.09Z" style="fill:#fff"/><path d="M255.43,28.26A227.73,227.73,0,0,1,344,465.71,227.73,227.73,0,0,1,166.81,46.15a226.23,226.23,0,0,1,88.62-17.89m0-7c-129.61,0-234.67,105.06-234.67,234.67S125.82,490.59,255.43,490.59,490.09,385.53,490.09,255.93,385,21.26,255.43,21.26Z" style="fill:#005696"/><rect x="133.21" y="197.14" width="245.57" height="130.29" rx="7.49" style="fill:#005696"/><path d="M371.3,199.64a5,5,0,0,1,5,5V319.94a5,5,0,0,1-5,5H140.7a5,5,0,0,1-5-5V204.62a5,5,0,0,1,5-5H371.3m0-5H140.7a10,10,0,0,0-10,10V319.94a10,10,0,0,0,10,10H371.3a10,10,0,0,0,10-10V204.62a10,10,0,0,0-10-10Z" style="fill:#fff"/><path d="M168.1,251.76a15.4,15.4,0,1,1,15.4-15.4A15.42,15.42,0,0,1,168.1,251.76Z" style="fill:#005696"/><path d="M168.1,224.47a11.9,11.9,0,1,1-11.89,11.89,11.89,11.89,0,0,1,11.89-11.89m0-7A18.9,18.9,0,1,0,187,236.36a18.92,18.92,0,0,0-18.9-18.89Z" style="fill:#fff"/><rect x="186.55" y="136.84" width="138.91" height="58.66" style="fill:#005696"/><path d="M323,139.34V193H189.05V139.34H323m5-5H184.05V198H328V134.34Z" style="fill:#fff"/><path d="M156.07,385.13l32.33-98.26a19,19,0,0,1,18.09-13.09h99a19,19,0,0,1,18.09,13.09l32.33,98.26Z" style="fill:#fff"/><path d="M305.51,277.28A15.55,15.55,0,0,1,320.28,288l30.82,93.66H160.9L191.72,288a15.55,15.55,0,0,1,14.77-10.69h99m0-7h-99a22.51,22.51,0,0,0-21.42,15.5l-30.81,93.66-3,9.19H360.77l-3-9.19-30.81-93.66a22.51,22.51,0,0,0-21.42-15.5Z" style="fill:#005696"/></svg>