<svg id="icon" xmlns="http://www.w3.org/2000/svg" viewBox="0 0 512 512"><path d="M255.32,28.26a227.73,227.73,0,0,1,88.61,437.45A227.73,227.73,0,0,1,166.7,46.15a226.23,226.23,0,0,1,88.62-17.89m0-7c-129.61,0-234.67,105.06-234.67,234.67S125.71,490.59,255.32,490.59,490,385.53,490,255.93,384.92,21.26,255.32,21.26Z" style="fill:#005696"/><path d="M365.64,202.52a5,5,0,0,1,5,5V316.93a5,5,0,0,1-5,5H146.36a5,5,0,0,1-5-5V207.51a5,5,0,0,1,5-5H365.64m0-7H146.36a12,12,0,0,0-12,12V316.93a12,12,0,0,0,12,12H365.64a12,12,0,0,0,12-12V207.51a12,12,0,0,0-12-12Z" style="fill:#005696"/><path d="M172.24,251.85a14.33,14.33,0,1,1,14.33-14.33A14.35,14.35,0,0,1,172.24,251.85Z" style="fill:#fff"/><path d="M172.24,226.19a11.33,11.33,0,1,1-11.34,11.33,11.33,11.33,0,0,1,11.34-11.33m0-6a17.33,17.33,0,1,0,17.33,17.33,17.35,17.35,0,0,0-17.33-17.33Z" style="fill:#005696"/><rect x="190.93" y="143.79" width="130.14" height="53.67" style="fill:#fff"/><path d="M317.57,147.29V194H194.43V147.29H317.57m7-7H187.43V201H324.57V140.29Z" style="fill:#005696"/><path d="M156.07,385.13l32.33-98.26a19,19,0,0,1,18.09-13.09h99a19,19,0,0,1,18.09,13.09l32.33,98.26Z" style="fill:#fff"/><path d="M305.51,277.28A15.55,15.55,0,0,1,320.28,288l30.82,93.66H160.9L191.72,288a15.55,15.55,0,0,1,14.77-10.69h99m0-7h-99a22.51,22.51,0,0,0-21.42,15.5l-30.81,93.66-3,9.19H360.77l-3-9.19-30.81-93.66a22.51,22.51,0,0,0-21.42-15.5Z" style="fill:#005696"/></svg>