<svg id="icon" xmlns="http://www.w3.org/2000/svg" viewBox="0 0 512 512"><circle cx="256" cy="255.96" r="234.67" style="fill:#005696"/><rect x="138.87" y="200.02" width="234.25" height="124.4" rx="7.49" style="fill:#c1d730"/><path d="M365.64,202.52a5,5,0,0,1,5,5V316.93a5,5,0,0,1-5,5H146.36a5,5,0,0,1-5-5V207.51a5,5,0,0,1,5-5H365.64m0-5H146.36a10,10,0,0,0-10,10V316.93a10,10,0,0,0,10,10H365.64a10,10,0,0,0,10-10V207.51a10,10,0,0,0-10-10Z" style="fill:#005696"/><path d="M157.45,384.13l31.9-96.95a18,18,0,0,1,17.14-12.4h99a18,18,0,0,1,17.14,12.4l31.9,96.95Z" style="fill:#fff"/><path d="M305.51,277.28A15.55,15.55,0,0,1,320.28,288l30.82,93.66H160.9L191.72,288a15.55,15.55,0,0,1,14.77-10.69h99m0-5h-99A20.51,20.51,0,0,0,187,286.4l-30.81,93.67L154,386.63H358l-2.16-6.56L325,286.4a20.51,20.51,0,0,0-19.52-14.12Z" style="fill:#005696"/><path d="M172.24,251.35a13.83,13.83,0,1,1,13.83-13.83A13.85,13.85,0,0,1,172.24,251.35Z" style="fill:#fff"/><path d="M172.24,226.19a11.33,11.33,0,1,1-11.34,11.33,11.33,11.33,0,0,1,11.34-11.33m0-5a16.33,16.33,0,1,0,16.33,16.33,16.35,16.35,0,0,0-16.33-16.33Z" style="fill:#005696"/><rect x="189.93" y="142.79" width="132.14" height="55.67" style="fill:#fff"/><path d="M319.57,145.29V196H192.43V145.29H319.57m5-5H187.43V201H324.57V140.29Z" style="fill:#005696"/></svg>