<svg id="icon" xmlns="http://www.w3.org/2000/svg" viewBox="0 0 512 512"><path d="M490.66,256c0,111.3-77.45,204.49-181.4,228.61a235.22,235.22,0,0,1-49.28,6c-1.32,0-2.64,0-4,0q-9.34,0-18.49-.72a233.45,233.45,0,0,1-49.3-9.22C91.66,451.64,21.34,362,21.34,256,21.34,126.39,126.4,21.34,256,21.34S490.66,126.39,490.66,256Z" style="fill:#005596"/><path d="M384.35,304.21,375.11,315l-.14-.13L350.9,343a19.56,19.56,0,0,1-33.61-7.16v-3.1l.63-9.81a19.62,19.62,0,0,1,3.29-5.38l24-28-23.5-26.07-4.13-4.58-8.26,72.57,0,46.71-.07,106.45a235.22,235.22,0,0,1-49.28,6l.15-77H237.39l.13,76.32a233.45,233.45,0,0,1-49.3-9.22l-.08-149.28-8.26-72.57-4.14,4.58-23.5,26.07,24,28a19.62,19.62,0,0,1,3.29,5.38l.63,9.81v3.1A19.56,19.56,0,0,1,146.59,343l-24.06-28.1-.15.13-9.24-10.83a26.79,26.79,0,0,1,1.49-36.42l17-16.94L180.3,202.6a32.81,32.81,0,0,1,16.25-8.86,129.43,129.43,0,0,1,22.11-2.66h7.42A59,59,0,0,1,245.33,77.87c1-.07,2-.11,3.08-.11h.68c1,0,2,.06,3.07.11a59,59,0,0,1,19.25,113.21h7.42a129.11,129.11,0,0,1,22.1,2.66,30.61,30.61,0,0,1,3.73,1,32.87,32.87,0,0,1,12.52,7.83l48.64,48.25,17,16.94A26.78,26.78,0,0,1,384.35,304.21Z" style="fill:#fff"/><path d="M320.75,386.81a14.15,14.15,0,0,1-8.08-2.52l-26.54-18.43c-33.63-23.34-54.26-61.17-55.19-101.19,0-1,0-2,0-3v-28.8a14.16,14.16,0,0,1,8.47-13l75.69-33.23a13.94,13.94,0,0,1,5.69-1.2,14.09,14.09,0,0,1,5.76,1.23L401,219.9a14.17,14.17,0,0,1,8.4,12.94v29.38c0,1,0,2,0,3-.91,39.67-21.26,77.3-54.42,100.67L328.9,384.23A14.09,14.09,0,0,1,320.75,386.81Z" style="fill:#c1d82f"/><path d="M320.76,189a10.59,10.59,0,0,1,4.34.93l74.52,33.19a10.65,10.65,0,0,1,6.32,9.74v29.38q0,1.44,0,2.88C405,304.23,385,340.45,353,363l-26.08,18.38a10.68,10.68,0,0,1-12.22,0L288.12,363c-32.41-22.49-52.76-59-53.68-98.39q0-1.45,0-2.91v-28.8a10.66,10.66,0,0,1,6.37-9.76l75.7-33.24a10.61,10.61,0,0,1,4.28-.9m0-7a17.52,17.52,0,0,0-7.1,1.49L238,216.71a17.64,17.64,0,0,0-10.56,16.17v28.8c0,1,0,2.05,0,3.07,1,41.14,22.15,80,56.69,104l26.55,18.42a17.67,17.67,0,0,0,20.24-.07L357,368.71c34.07-24,55-62.67,55.91-103.45,0-1,0-2,0-3V232.84a17.67,17.67,0,0,0-10.47-16.13L328,183.51a17.65,17.65,0,0,0-7.19-1.53Z" style="fill:#005596"/><rect x="284.16" y="271.92" width="72.04" height="53.52" rx="13.13" style="fill:#005596"/><path d="M320.18,244.84a15,15,0,0,1,15,15v31.77a15,15,0,1,1-30,0V259.82a15,15,0,0,1,15-15m0-11h0a26,26,0,0,0-26,26v31.77a26,26,0,0,0,26,26h0a26,26,0,0,0,26-26V259.82a26,26,0,0,0-26-26Z" style="fill:#005596"/><path d="M325.75,307.48a2.32,2.32,0,0,1-2.25,2.91h-7.41a2.31,2.31,0,0,1-2.24-2.91l2.54-9.56a6.17,6.17,0,1,1,6.82,0Z" style="fill:#fff"/></svg>