<svg id="icon" xmlns="http://www.w3.org/2000/svg" viewBox="0 0 512 512"><path d="M256,487.17A231.17,231.17,0,0,1,92.54,92.54,231.17,231.17,0,1,1,419.46,419.46,229.66,229.66,0,0,1,256,487.17Z" style="fill:#fff"/><path d="M256,28.33a227.74,227.74,0,0,1,88.62,437.45A227.73,227.73,0,0,1,167.38,46.22,226.27,226.27,0,0,1,256,28.33m0-7C126.4,21.33,21.33,126.4,21.33,256S126.4,490.67,256,490.67,490.67,385.6,490.67,256,385.6,21.33,256,21.33Z" style="fill:#005596"/><path d="M256.29,417.12H240.56l.13,67.6-3.78-.29a237.7,237.7,0,0,1-50-9.36l-2.48-.75-.1-142.68L177,267l-20.37,22.6,22,25.71a22.88,22.88,0,0,1,3.87,6.34l.21.53.68,10.48v3.7l-.14.48a23,23,0,0,1-39.62,8.47l-21.93-25.61-.17.12-11.37-13.31a30.48,30.48,0,0,1,1.69-41.19l17-16.93,48.63-48.26a36.25,36.25,0,0,1,18-9.79,144.22,144.22,0,0,1,17.26-2.47,62.5,62.5,0,0,1,32-113.47q1.49-.12,3.3-.12h.68c1.07,0,2.08,0,3.28.12a62.5,62.5,0,0,1,32,113.47,144.51,144.51,0,0,1,17.26,2.47,34.56,34.56,0,0,1,4.14,1.15,36.61,36.61,0,0,1,13.85,8.64L368,248.37,385,265.3a30.45,30.45,0,0,1,1.69,41.19L375.18,320l-.15-.13-21.8,25.45a23.06,23.06,0,0,1-39.63-8.47l-.14-.48v-3.7l.68-10.48.21-.53a23.09,23.09,0,0,1,3.86-6.34l22-25.71L319.88,267l-7.36,64.66-.1,146.73-2.7.63a239,239,0,0,1-50,6.12l-3.56.05Z" style="fill:#fff"/><path d="M248.76,77.77c1,0,2,0,3.07.11a59,59,0,0,1,19.25,113.2h7.41a128.27,128.27,0,0,1,22.11,2.67,31.6,31.6,0,0,1,3.73,1,33.19,33.19,0,0,1,12.52,7.83l48.63,48.25,17,16.94A26.8,26.8,0,0,1,384,304.21L374.78,315l-.14-.12L350.57,343A19.54,19.54,0,0,1,323,345.11a19.3,19.3,0,0,1-6-9.26v-3.1l.63-9.81a19.74,19.74,0,0,1,3.28-5.38l24-28-23.5-26.06-4.13-4.58L309,331.44l0,46.71-.07,97.44a234.47,234.47,0,0,1-49.27,6l.14-68H237.05l.13,67.32a233.24,233.24,0,0,1-49.29-9.22l-.09-140.28-8.26-72.56-4.13,4.58-23.5,26.06,24,28a19.74,19.74,0,0,1,3.28,5.38l.63,9.81v3.1a19.59,19.59,0,0,1-18.73,14A19.56,19.56,0,0,1,146.26,343l-24.06-28.1L122,315l-9.24-10.83a26.81,26.81,0,0,1,1.49-36.42l17-16.94L180,202.6a32.79,32.79,0,0,1,16.25-8.85,128.49,128.49,0,0,1,22.11-2.67h7.41A59,59,0,0,1,245,77.88c1-.09,2-.11,3.09-.11h.68m0-7h-.68c-1.28,0-2.46,0-3.57.12A66,66,0,0,0,204.05,185.3c-3.12.43-6.32,1-9.28,1.6A39.71,39.71,0,0,0,175,197.63l-48.63,48.26-17,16.93a33.84,33.84,0,0,0-1.88,45.94l9.24,10.82,4.27,5,.17-.13L141,347.57a26.53,26.53,0,0,0,37.49,2.85,27.38,27.38,0,0,0,2.38-2.31l.07,123.61v5.2l5,1.5a241.29,241.29,0,0,0,50.77,9.5l7.56.58,0-7.58-.11-60.3h8.71l-.13,61v7.13l7.13-.11a243.25,243.25,0,0,0,50.74-6.21l5.41-1.26v-5.56l.07-97.43,0-30.05a27.38,27.38,0,0,0,2.38,2.31,26.54,26.54,0,0,0,37.5-2.85l19.51-22.78.15.13,4.56-5.34,9.24-10.82a33.81,33.81,0,0,0-1.88-45.94l-17.05-16.93-48.63-48.26a40.25,40.25,0,0,0-15.17-9.47,37.82,37.82,0,0,0-4.56-1.26c-3-.63-6.16-1.17-9.28-1.6A66.05,66.05,0,0,0,252.27,70.89c-1.11-.07-2.28-.12-3.51-.12ZM318.57,309.5l3.91-34.4,13.11,14.54-17,19.86ZM161.23,289.64l13.12-14.54,3.91,34.4-17-19.86Z" style="fill:#005596"/><path d="M320.42,386.81a14.13,14.13,0,0,1-8.08-2.52L285.8,365.86c-33.63-23.34-54.26-61.17-55.19-101.19,0-1,0-2,0-3v-28.8a14.16,14.16,0,0,1,8.47-13l75.69-33.23a13.94,13.94,0,0,1,5.69-1.2,14.09,14.09,0,0,1,5.76,1.23l74.52,33.19a14.17,14.17,0,0,1,8.4,12.94v29.38c0,1,0,2,0,3-.91,39.67-21.26,77.3-54.42,100.67l-26.09,18.38A14.09,14.09,0,0,1,320.42,386.81Z" style="fill:#fff"/><path d="M320.43,189a10.59,10.59,0,0,1,4.34.93l74.52,33.19a10.65,10.65,0,0,1,6.32,9.74v29.38q0,1.44,0,2.88c-.9,39.13-20.94,75.35-52.94,97.89l-26.08,18.38a10.68,10.68,0,0,1-12.22,0L287.79,363c-32.41-22.49-52.76-59-53.68-98.39q0-1.45,0-2.91v-28.8a10.66,10.66,0,0,1,6.37-9.76l75.7-33.24a10.61,10.61,0,0,1,4.28-.9m0-7a17.52,17.52,0,0,0-7.1,1.49l-75.69,33.24a17.64,17.64,0,0,0-10.56,16.17v28.8c0,1,0,2.05,0,3.07,1,41.14,22.15,80,56.69,104l26.55,18.42a17.67,17.67,0,0,0,20.24-.07l26.08-18.38c34.07-24,55-62.67,55.91-103.45,0-1,0-2,0-3V232.84a17.67,17.67,0,0,0-10.47-16.13l-74.52-33.2a17.65,17.65,0,0,0-7.19-1.53Z" style="fill:#005596"/><path d="M319.85,244.84a15,15,0,0,1,15,15v31.77a15,15,0,1,1-30,0V259.82a15,15,0,0,1,15-15m0-11h0a26,26,0,0,0-26,26v31.77a26,26,0,0,0,26,26h0a26,26,0,0,0,26-26V259.82a26,26,0,0,0-26-26Z" style="fill:#005596"/><rect x="288.83" y="276.92" width="62.04" height="43.52" rx="8.13" style="fill:#fff"/><path d="M342.73,281.92a3.14,3.14,0,0,1,3.14,3.13V312.3a3.15,3.15,0,0,1-3.14,3.14H297a3.15,3.15,0,0,1-3.14-3.14V285.05a3.14,3.14,0,0,1,3.14-3.13h45.77m0-10H297a13.14,13.14,0,0,0-13.14,13.13V312.3A13.15,13.15,0,0,0,297,325.44h45.77a13.14,13.14,0,0,0,13.14-13.14V285.05a13.13,13.13,0,0,0-13.14-13.13Z" style="fill:#005596"/><path d="M325.42,307.48a2.32,2.32,0,0,1-2.25,2.91h-7.41a2.31,2.31,0,0,1-2.24-2.91l2.54-9.56a6.17,6.17,0,1,1,6.82,0Z" style="fill:#005596"/></svg>