<svg id="icon" xmlns="http://www.w3.org/2000/svg" viewBox="0 0 512 512"><path d="M256,487.17A231.17,231.17,0,0,1,92.54,92.54,231.17,231.17,0,1,1,419.46,419.46,229.66,229.66,0,0,1,256,487.17Z" style="fill:#fff"/><path d="M256,28.33a227.74,227.74,0,0,1,88.62,437.45A227.73,227.73,0,0,1,167.38,46.22,226.27,226.27,0,0,1,256,28.33m0-7C126.4,21.33,21.33,126.4,21.33,256S126.4,490.67,256,490.67,490.67,385.6,490.67,256,385.6,21.33,256,21.33Z" style="fill:#005596"/><path d="M356.17,258.87a94.21,94.21,0,0,1-18.12,42.8l-4.19-12.42a13.67,13.67,0,0,0-13-9.31h-1.65a66.6,66.6,0,0,0-73.56-99.72V151.69a94.71,94.71,0,0,1,31.4-.48,94.26,94.26,0,0,1,79.09,107.66Z" style="fill:#005596"/><rect x="189.81" y="281.61" width="33.42" height="14.91" style="fill:#005596"/><path d="M231.09,111.64v12.22H182V111.64a6.77,6.77,0,0,1,6.77-6.77h35.6A6.77,6.77,0,0,1,231.09,111.64Z" style="fill:#005596"/><rect x="159.03" y="332.74" width="106.81" height="8.1" style="fill:#005596"/><path d="M274.34,373.67V292.32a3.89,3.89,0,0,1,3.89-3.88h42.66a5.18,5.18,0,0,1,4.92,3.52l5.34,15.83,24.09,65.88Z" style="fill:#fff"/><path d="M320.89,291.94a1.68,1.68,0,0,1,1.6,1.14l5.34,15.83,0,.09,0,.08,22.34,61.09H277.84V292.32a.38.38,0,0,1,.39-.38h42.66m0-7H278.23a7.38,7.38,0,0,0-7.39,7.38v84.85h89.41l-25.78-70.49-5.34-15.83a8.7,8.7,0,0,0-8.24-5.91Z" style="fill:#005596"/><path d="M179.17,273.05a3.33,3.33,0,0,1-3.32-3.33V135a3.32,3.32,0,0,1,3.32-3.32h54.7a3.32,3.32,0,0,1,3.32,3.32V269.72a3.33,3.33,0,0,1-3.32,3.33Z" style="fill:#fff"/><path d="M233.69,135.21V269.55H179.35V135.21h54.34m.18-7h-54.7a6.82,6.82,0,0,0-6.82,6.82V269.72a6.82,6.82,0,0,0,6.82,6.83h54.7a6.82,6.82,0,0,0,6.82-6.83V135a6.82,6.82,0,0,0-6.82-6.82Z" style="fill:#005596"/><path d="M383.64,396.1v6H145.23v-6a13.86,13.86,0,0,1,13.86-13.85h210.7A13.85,13.85,0,0,1,383.64,396.1Z" style="fill:#005596"/><path d="M310.05,321.29a12.37,12.37,0,1,1,12.37-12.37A12.39,12.39,0,0,1,310.05,321.29Z" style="fill:#005596"/><path d="M310.05,298.05a10.87,10.87,0,1,1-10.87,10.87,10.89,10.89,0,0,1,10.87-10.87m0-3a13.87,13.87,0,1,0,13.87,13.87,13.87,13.87,0,0,0-13.87-13.87Z" style="fill:#fff"/></svg>