<svg id="icon" xmlns="http://www.w3.org/2000/svg" viewBox="0 0 512 512"><path d="M490.66,256A234.65,234.65,0,0,1,331.09,478.38c-2,.69-4,1.33-6,1.94h0c-5.2,1.6-10.49,3-15.83,4.27-2.8.66-5.61,1.25-8.42,1.79A234.84,234.84,0,0,1,260,490.63l-2.72,0H256q-9.34,0-18.49-.71c-5.48-.42-10.91-1.05-16.28-1.84-2-.29-4-.62-6-1h0a230.46,230.46,0,0,1-27-6.4c-2.58-.78-5.17-1.62-7.71-2.47-2.23-.75-4.42-1.54-6.61-2.37A230.32,230.32,0,0,1,142,461.13q-3.35-1.86-6.61-3.83c-3-1.78-5.94-3.65-8.83-5.56-2.24-1.48-4.44-3-6.62-4.56A235.3,235.3,0,0,1,88,419.82c-2.25-2.31-4.46-4.68-6.6-7.07q-7.45-8.29-14.1-17.27c-4.07-5.5-7.92-11.21-11.51-17.08-1.29-2.09-2.55-4.19-3.75-6.33h0a232.78,232.78,0,0,1-27.6-77.93c-1.21-7.37-2.08-14.87-2.56-22.47,0-.17,0-.36,0-.54-.2-3-.35-6.09-.41-9.15-.07-2-.08-4-.08-6a234.16,234.16,0,0,1,13.21-77.84c.13-.39.28-.79.42-1.18q2.63-7.33,5.71-14.43l1.37-3.09a234.77,234.77,0,0,1,427.08-1.81q3.72,8.08,6.84,16.47c1.41,3.73,2.69,7.5,3.89,11.31a232.93,232.93,0,0,1,9.92,50.2Q490.65,245.7,490.66,256Z" style="fill:#005596"/><path d="M356.16,258.87a94.05,94.05,0,0,1-19.72,44.84l-5.34-15.83a8.7,8.7,0,0,0-8.24-5.91h-4.95a66.6,66.6,0,0,0-72.24-101.75V151.69a94.71,94.71,0,0,1,31.4-.48,94.26,94.26,0,0,1,79.09,107.66Z" style="fill:#fff"/><rect x="189.81" y="281.61" width="33.42" height="14.91" style="fill:#fff"/><path d="M231.09,111.64v12.22H182V111.64a6.77,6.77,0,0,1,6.77-6.77h35.6A6.77,6.77,0,0,1,231.09,111.64Z" style="fill:#fff"/><rect x="159.02" y="332.74" width="117.73" height="8.09" style="fill:#fff"/><path d="M268.83,379.16V292.32a9.4,9.4,0,0,1,9.39-9.38h42.66A10.69,10.69,0,0,1,331,290.21L336.36,306l26.74,73.12Z" style="fill:#c1d82f"/><path d="M320.88,284.94a8.7,8.7,0,0,1,8.24,5.91l5.34,15.83,25.78,70.48H270.83V292.32a7.38,7.38,0,0,1,7.39-7.38h42.66m0-4H278.22a11.39,11.39,0,0,0-11.39,11.38v88.84H366l-2-5.37-25.76-70.44-5.33-15.78a12.68,12.68,0,0,0-12-8.63Z" style="fill:#005596"/><path d="M240.69,135V269.72a6.82,6.82,0,0,1-6.82,6.83h-54.7a6.82,6.82,0,0,1-6.82-6.83V135a6.82,6.82,0,0,1,6.82-6.82h54.7A6.82,6.82,0,0,1,240.69,135Z" style="fill:#c1d82f"/><path d="M159.08,382.25h210.7a13.85,13.85,0,0,1,13.85,13.85v6a0,0,0,0,1,0,0H145.23a0,0,0,0,1,0,0v-6A13.85,13.85,0,0,1,159.08,382.25Z" style="fill:#fff"/><circle cx="310.05" cy="307.92" r="13.87" style="fill:#fff;stroke:#005596;stroke-miterlimit:10;stroke-width:5px"/></svg>