<svg id="icon" xmlns="http://www.w3.org/2000/svg" viewBox="0 0 512 512"><path d="M256,487.17A231.17,231.17,0,0,1,92.54,92.54,231.17,231.17,0,1,1,419.46,419.46,229.66,229.66,0,0,1,256,487.17Z" style="fill:#fff"/><path d="M256,28.33a227.74,227.74,0,0,1,88.62,437.45A227.73,227.73,0,0,1,167.38,46.22,226.27,226.27,0,0,1,256,28.33m0-7C126.4,21.33,21.33,126.4,21.33,256S126.4,490.67,256,490.67,490.67,385.6,490.67,256,385.6,21.33,256,21.33Z" style="fill:#005696"/><path d="M274,69.35C369.1,78.4,443.5,158.51,443.5,256c0,100.2-78.6,182-177.5,187.24" style="fill:none;stroke:#005696;stroke-linecap:round;stroke-linejoin:round;stroke-width:7px"/><polygon points="286.97 82.28 276.04 69.53 288.79 58.62 278.75 57.84 266 68.76 276.92 81.5 286.97 82.28" style="fill:#005696"/><path d="M238,442.65C142.9,433.6,68.5,353.49,68.5,256,68.5,155.8,147.09,74,246,68.76" style="fill:none;stroke:#005696;stroke-linecap:round;stroke-linejoin:round;stroke-width:7px"/><polygon points="225.04 429.72 235.96 442.47 223.21 453.38 233.26 454.16 246 443.24 235.08 430.5 225.04 429.72" style="fill:#005696"/><path d="M249.48,368.81,218,347c-38.38-26.64-62.48-69.81-63.57-116.52,0-1.15,0-2.29,0-3.44V192.92A12.63,12.63,0,0,1,162,181.36L251.62,142a12.61,12.61,0,0,1,10.21,0l88.25,39.31a12.63,12.63,0,0,1,7.49,11.53v34.79c0,1.14,0,2.28,0,3.41-1.07,46.34-24.8,89.23-62.69,115.93L264,368.76A12.62,12.62,0,0,1,249.48,368.81Z" style="fill:none;stroke:#005696;stroke-miterlimit:10;stroke-width:7px"/><rect x="207.1" y="236.03" width="97.81" height="72.66" rx="17.83" style="fill:none;stroke:#005696;stroke-miterlimit:10;stroke-width:7px"/><path d="M291.28,236.53V219.61a35.28,35.28,0,1,0-70.56,0v16.92m14.93-.5V219.61a20.35,20.35,0,0,1,40.69,0V236" style="fill:none;stroke:#005696;stroke-miterlimit:10;stroke-width:7px"/><path d="M263.56,284.32a3.14,3.14,0,0,1-3,3.94H250.45a3.13,3.13,0,0,1-3-3.94l3.44-13a8.37,8.37,0,1,1,9.26,0Z" style="fill:none;stroke:#005696;stroke-miterlimit:10;stroke-width:7px"/><path d="M223.61,326.87l-4.16.68,3,3-3.25,2.36-2-3.75L215.29,333,212,330.59l3-3-4.16-.71,1.21-3.72,3.78,1.83-.59-4.22h4l-.62,4.25,3.75-1.89Z" style="fill:#fff"/><path d="M243,326.87l-4.16.68,3,3-3.25,2.36-1.95-3.75L234.68,333l-3.25-2.36,2.95-3-4.16-.71,1.21-3.72,3.78,1.83-.59-4.22h4L238,325l3.75-1.89Z" style="fill:#fff"/><path d="M262.39,326.87l-4.16.68,3,3L258,332.92,256,329.17,254.07,333l-3.25-2.36,3-3-4.16-.71,1.21-3.72L254.6,325l-.59-4.22h4L257.4,325l3.75-1.89Z" style="fill:#fff"/><path d="M281.78,326.87l-4.16.68,3,3-3.25,2.36-1.94-3.75-2,3.78-3.25-2.36,3-3-4.16-.71,1.21-3.72L274,325l-.59-4.22h4l-.62,4.25,3.75-1.89Z" style="fill:#fff"/><path d="M301.17,326.87l-4.16.68,3,3-3.25,2.36-1.94-3.75L292.85,333l-3.25-2.36,2.95-3-4.16-.71,1.21-3.72,3.78,1.83-.59-4.22h4l-.62,4.25,3.75-1.89Z" style="fill:#fff"/><line x1="336.25" y1="117.02" x2="318.75" y2="147.33" style="fill:none;stroke:#005696;stroke-linecap:round;stroke-linejoin:round;stroke-width:7px"/><line x1="416.45" y1="256.05" x2="381.45" y2="256.05" style="fill:none;stroke:#005696;stroke-linecap:round;stroke-linejoin:round;stroke-width:7px"/><line x1="336.16" y1="395.03" x2="318.66" y2="364.72" style="fill:none;stroke:#005696;stroke-linecap:round;stroke-linejoin:round;stroke-width:7px"/><line x1="175.65" y1="394.99" x2="193.15" y2="364.68" style="fill:none;stroke:#005696;stroke-linecap:round;stroke-linejoin:round;stroke-width:7px"/><line x1="95.43" y1="255.97" x2="130.43" y2="255.96" style="fill:none;stroke:#005696;stroke-linecap:round;stroke-linejoin:round;stroke-width:7px"/><line x1="175.71" y1="116.98" x2="193.21" y2="147.29" style="fill:none;stroke:#005696;stroke-linecap:round;stroke-linejoin:round;stroke-width:7px"/></svg>