<svg id="icon" xmlns="http://www.w3.org/2000/svg" viewBox="0 0 512 512"><path d="M256,487.17c-6.14,0-12.27-.24-18.22-.72-5.24-.4-10.63-1-16-1.8-1.88-.28-3.85-.6-5.88-1l-.32-.06c-5.54-1-11-2.16-16.33-3.5-.65-.15-1.2-.29-1.76-.44l-.77-.21c-2.69-.71-5.14-1.4-7.46-2.1-2.62-.8-5.18-1.62-7.61-2.44-2-.66-4.09-1.42-6.51-2.33-5.43-2-10.88-4.3-16.22-6.77l-.28-.13c-2.67-1.23-5.36-2.55-8-3.92q-1.19-.6-2.31-1.2-2.37-1.24-4.64-2.51l-.2-.12a1.71,1.71,0,0,1-.23-.13l-.11-.07-.14-.08-.36-.18c-2.09-1.19-3.83-2.21-5.46-3.2-2.84-1.69-5.77-3.54-8.74-5.49-2.37-1.58-4.5-3-6.5-4.47-6.14-4.38-12.1-9.09-17.71-14l-.13-.11-.53-.47-1.19-1c-4.12-3.67-8.12-7.5-11.87-11.35-2.28-2.34-4.47-4.68-6.51-7a233,233,0,0,1-20.28-26.11A231.17,231.17,0,0,1,419.46,92.54a231.4,231.4,0,0,1,54.32,241.13l0,.14c-.08.25-.18.51-.27.76-.48,1.31-.94,2.56-1.42,3.8l-.67,1.72c-.56,1.46-1.15,2.9-1.74,4.34l-.24.59c-.2.46-.39.93-.59,1.39a229.3,229.3,0,0,1-14.76,28.86c-.65,1.11-1.31,2.19-2.05,3.33l-.23.38-.26.41c-.9,1.42-1.77,2.76-2.65,4.09s-1.76,2.63-2.67,3.93a230.71,230.71,0,0,1-31.84,37c-.38.37-.72.69-1.07,1-1.32,1.24-2.63,2.44-3.95,3.6A229.5,229.5,0,0,1,330,475.06c-1.85.64-3.68,1.22-5.41,1.76L324,477c-5.16,1.59-10.4,3-15.58,4.21-1.74.4-3.5.79-5.26,1.15-1.5.32-3,.61-4.5.89-2.2.41-4.34.77-6.37,1.08-1.35.22-2.66.42-4,.61l-.4.05-.65.08a231,231,0,0,1-27.39,2.08C258.63,487.15,257.31,487.17,256,487.17Z" style="fill:#fff"/><path d="M256,28.33A227.81,227.81,0,0,1,470.49,332.5l-.05.13,0,.13c-.06.2-.14.4-.21.59l0,0v0c-.41,1.14-.89,2.45-1.38,3.71l-.66,1.71c-.56,1.45-1.15,2.9-1.71,4.26l-.25.59c-.18.44-.36.88-.55,1.31l0,.05,0,0a225.06,225.06,0,0,1-14.51,28.38l0,0,0,0c-.6,1-1.24,2.07-1.95,3.16l0,0,0,0-.23.36a3.45,3.45,0,0,1-.2.32l0,.06,0,.07c-.85,1.34-1.72,2.68-2.57,4s-1.76,2.62-2.64,3.88A228.12,228.12,0,0,1,412,421.84l0,0,0,0-1,.92,0,0,0,0q-1.85,1.74-3.83,3.48a226.16,226.16,0,0,1-78.13,45.36h-.05c-1.6.55-3.22,1.07-4.77,1.55h0l-1,.31c-5.08,1.57-10.24,3-15.34,4.15-1.7.4-3.45.78-5.2,1.14-1.44.3-2.92.59-4.42.87-2.15.4-4.25.75-6.25,1.06h-.07c-1.17.19-2.43.39-3.89.59l-.29,0-.69.09a225.24,225.24,0,0,1-27,2.05c-1.28,0-2.59,0-3.87,0-6,0-12.09-.24-18-.71-5.16-.4-10.46-1-15.8-1.78-1.83-.26-3.76-.58-5.74-.94l-.63-.11h0c-5.35-.95-10.65-2.1-15.77-3.39l-.07,0-.08,0c-.53-.12-1.05-.25-1.57-.39l-.05,0h0l-.23-.06-.43-.12c-2.68-.71-5.09-1.39-7.34-2.07-2.6-.79-5.13-1.59-7.52-2.4-1.92-.65-4-1.4-6.42-2.3-5.34-2-10.7-4.23-16-6.67h0l-.3-.13c-2.59-1.2-5.22-2.49-7.81-3.83h0l0,0c-.8-.4-1.52-.78-2.2-1.14l0,0,0,0c-1.51-.79-3-1.61-4.46-2.42l-.26-.15-.11-.06-.17-.11-.24-.12-.37-.2c-2-1.16-3.72-2.15-5.32-3.12-2.77-1.65-5.66-3.47-8.58-5.39-2.36-1.57-4.45-3-6.41-4.41-6.06-4.32-11.93-8.95-17.45-13.77l-.19-.17,0,0-.43-.38-1.18-1c-4.08-3.63-8-7.39-11.7-11.17-2.23-2.3-4.38-4.6-6.41-6.87a229.29,229.29,0,0,1-20-25.7A227.58,227.58,0,0,1,256,28.33m0-7C126.39,21.33,21.33,126.4,21.33,256A234.35,234.35,0,0,0,81.38,412.75c2.14,2.39,4.36,4.76,6.61,7.07q5.83,6,12.09,11.55l1.8,1.59,0,0q8.63,7.53,18,14.2c2.17,1.55,4.39,3.07,6.61,4.55q4.36,2.86,8.85,5.56c1.87,1.13,3.75,2.22,5.65,3.3l.31.16c.2.13.43.25.64.37,1.55.87,3.12,1.72,4.69,2.54.78.42,1.57.83,2.36,1.23q4,2.07,8.12,4l.3.13q8.07,3.75,16.46,6.88c2.19.82,4.4,1.62,6.62,2.37q3.83,1.29,7.72,2.47c2.52.76,5.06,1.47,7.62,2.15l.72.19c.6.16,1.19.31,1.8.45q8.32,2.12,16.88,3.61h0q3,.54,6,1,8.06,1.18,16.26,1.83,9.17.74,18.5.73c1.32,0,2.66,0,4,0a232.8,232.8,0,0,0,27.87-2.12l1-.13c1.33-.19,2.66-.39,4-.61q3.24-.5,6.47-1.1c1.53-.28,3.06-.58,4.58-.9q2.68-.56,5.34-1.17,8-1.86,15.83-4.28h0c2-.62,4-1.25,6-1.94a234.26,234.26,0,0,0,80.53-46.75q2-1.78,4-3.64c.38-.35.75-.69,1.12-1.05a234.2,234.2,0,0,0,32.31-37.52c.93-1.33,1.83-2.66,2.72-4s1.77-2.71,2.64-4.08c.18-.27.35-.56.52-.83.73-1.13,1.43-2.26,2.11-3.42a232.1,232.1,0,0,0,15-29.26c.3-.68.58-1.37.87-2.06.6-1.46,1.2-2.93,1.77-4.41l.66-1.71c.49-1.26,1-2.54,1.43-3.83.12-.32.24-.64.34-1A234.26,234.26,0,0,0,490.67,256C490.67,126.4,385.61,21.33,256,21.33Z" style="fill:#005596"/><path d="M483.67,256a227.32,227.32,0,0,1-13.18,76.5l-.05.13,0,.13c-.06.2-.14.39-.21.59l0,0v0c-.39,1.09-.85,2.34-1.32,3.55l-.06.16-.66,1.71q-.5,1.29-1,2.55l-.69,1.71-.25.59c-.18.44-.36.88-.55,1.31l0,.05,0,0a225.06,225.06,0,0,1-14.51,28.38l0,0,0,0c-.6,1-1.24,2.07-1.95,3.16l0,0,0,0-.23.36-.19.32-.05.06,0,.07c-.85,1.34-1.72,2.67-2.57,4s-1.75,2.62-2.64,3.88A228.12,228.12,0,0,1,412,421.84l0,0,0,0-1,.92,0,0,0,0q-1.85,1.74-3.83,3.48a226.16,226.16,0,0,1-78.13,45.36h-.05c-1.6.55-3.22,1.07-4.77,1.55h0l-1,.31c-5.08,1.57-10.24,3-15.34,4.15-1.24.29-2.5.57-3.77.83l-1.43.31c-1,.21-2.08.42-3.15.62l-1.27.25c-2.15.4-4.25.75-6.25,1.06h-.07c-1.17.19-2.43.39-3.89.59l-.29,0-.69.09a225.24,225.24,0,0,1-27,2.05c-1.28,0-2.59,0-3.87,0-6,0-12.09-.24-18-.71-5.16-.4-10.46-1-15.8-1.78-1.83-.26-3.76-.58-5.74-.94l-.63-.11h0c-4.4-.78-8.76-1.7-13-2.72-.93-.21-1.85-.44-2.76-.67l-.07,0-.08,0c-.53-.12-1.05-.25-1.57-.39l-.05,0h0l-.23-.06-.43-.12-1.76-.47c-2-.54-3.83-1.07-5.58-1.6-2.6-.79-5.13-1.59-7.52-2.4-1.92-.65-4-1.4-6.42-2.3-5.34-2-10.7-4.23-16-6.67h0l-.3-.13c-2.59-1.2-5.22-2.49-7.81-3.83h0l0,0c-.8-.4-1.52-.78-2.2-1.14l-.08,0c-1.51-.79-3-1.61-4.46-2.42l-.26-.15-.11-.06-.17-.11-.24-.12-.37-.2c-2-1.16-3.72-2.15-5.32-3.12-2.78-1.65-5.66-3.47-8.59-5.39-2.35-1.57-4.44-3-6.4-4.41-6.06-4.32-11.93-8.95-17.45-13.77l-.19-.17,0,0-.44-.38c-.38-.35-.77-.69-1.17-1-4.08-3.63-8-7.39-11.7-11.17-2.23-2.29-4.38-4.6-6.41-6.87a229.29,229.29,0,0,1-20-25.7c-2-3-4-6.09-5.82-9.19q-3.72-6.15-7-12.49A227.72,227.72,0,1,1,483.67,256Z" style="fill:#fff"/><path d="M190.77,278.37h-30.1a57.47,57.47,0,0,0,28.9-25.05,55.25,55.25,0,0,0,3-6.07h0c.49-1.16.94-2.33,1.36-3.52.6-1.77,1.12-3.56,1.56-5.39,0,0,0,0,0,0,.09-.32.16-.65.24-1,0,0,0,0,0,0v0a3,3,0,0,0,.07-.32s0,0,0-.05.07-.31.09-.47c.18-.84.33-1.7.47-2.54,0,0,0,0,0,0a57.63,57.63,0,0,0,.64-11.73,55.41,55.41,0,0,0-1.2-9.18c-.11-.47-.21-.94-.32-1.4,0,0,0,0,0-.05a.43.43,0,0,0,0-.11c0-.05,0-.08,0-.13a0,0,0,0,0,0,0h0c-6-24.06-27.35-42.43-52.82-43.73-1-.05-2-.07-2.94-.07A57.28,57.28,0,0,0,98.8,184.53l-.84.86a57.34,57.34,0,0,0-9.11,12.69c-.38.71-.74,1.44-1.09,2.17A57.07,57.07,0,0,0,83.45,213s0,0,0,0,0,0,0,.06,0,0,0,0a.11.11,0,0,0,0,.05,1.49,1.49,0,0,0,0,.18,57.16,57.16,0,0,0-1.17,11.56,57.85,57.85,0,0,0,1.15,11.46,0,0,0,0,1,0,0s0,0,0,.06a57.47,57.47,0,0,0,35.25,41.9H88.55A27.71,27.71,0,0,0,60.8,306.06v67.12c1.85,3.1,3.8,6.17,5.82,9.19a229.29,229.29,0,0,0,20,25.7c2,2.27,4.18,4.58,6.41,6.87,3.69,3.78,7.62,7.54,11.7,11.17.4.35.79.69,1.17,1l.44.38,0,0,.19.17c5.52,4.82,11.39,9.45,17.45,13.77,2,1.4,4.05,2.84,6.4,4.41,2.93,1.92,5.81,3.74,8.59,5.39,1.6,1,3.29,2,5.32,3.12l.37.2.24.12.17.11.11.06.26.15c1.44.81,2.95,1.63,4.46,2.42l.08,0c.68.36,1.4.74,2.2,1.14l0,0h0c2.59,1.34,5.22,2.63,7.81,3.83l.3.13h0c5.25,2.44,10.61,4.68,16,6.67,2.4.9,4.5,1.65,6.42,2.3,2.39.81,4.92,1.61,7.52,2.4,1.75.53,3.59,1.06,5.58,1.6v-19.3a22.62,22.62,0,0,0,22.61-22.62V306.06A27.67,27.67,0,0,0,190.77,278.37Z" style="fill:#fff"/><path d="M190.77,271.37h-6.48a64.54,64.54,0,0,0,11.36-14.58A63.55,63.55,0,0,0,199,250l.55-1.31v0c.33-.84.65-1.7,1-2.57l0,0v0c.15-.44.3-.88.43-1.33.4-1.24.75-2.49,1.07-3.73l.67-.67v-1.1l1-2.45-.1-.11,1.27-1.24-1.31-2.64a64.93,64.93,0,0,0,.4-10.89,62.75,62.75,0,0,0-1.35-10.34v-.11c-.05-.19-.09-.38-.13-.57l-.06-.24v-6.29h-1.78A65,65,0,0,0,143,160.53c-1.1-.06-2.21-.08-3.3-.08a64.44,64.44,0,0,0-62.62,49.06l-.62.62v.1l-2.93,3,2.36,2.32a64.79,64.79,0,0,0,.49,21.62v0l0,.23c0,.12,0,.24.07.36l.4,2,0,0c.15.65.32,1.3.49,2h0a64,64,0,0,0,17.49,29.59H88.55A34.76,34.76,0,0,0,53.8,306.06v54.63q3.29,6.35,7,12.49V306.06a27.71,27.71,0,0,1,27.75-27.69h30.07a57.47,57.47,0,0,1-35.25-41.9s0,0,0-.06a0,0,0,0,0,0,0,57.85,57.85,0,0,1-1.15-11.46,57.16,57.16,0,0,1,1.17-11.56,1.49,1.49,0,0,1,0-.18.11.11,0,0,1,0-.05s0,0,0,0,0,0,0-.06,0,0,0,0a57.07,57.07,0,0,1,4.31-12.78c.35-.73.71-1.46,1.09-2.17A57.34,57.34,0,0,1,98,185.39l.84-.86a57.28,57.28,0,0,1,40.89-17.08c1,0,2,0,2.94.07,25.47,1.3,46.85,19.67,52.82,43.73h0a0,0,0,0,1,0,0s0,.08,0,.13a.43.43,0,0,1,0,.11s0,0,0,.05c.11.46.21.93.32,1.4a55.41,55.41,0,0,1,1.2,9.18,57.63,57.63,0,0,1-.64,11.73s0,0,0,0c-.14.84-.29,1.7-.47,2.54,0,.16-.06.31-.09.47s0,0,0,.05a3,3,0,0,1-.07.32v0s0,0,0,0c-.08.33-.15.66-.24,1,0,0,0,0,0,0-.44,1.83-1,3.62-1.56,5.39-.42,1.19-.87,2.36-1.36,3.52h0a55.25,55.25,0,0,1-3,6.07,57.47,57.47,0,0,1-28.9,25.05h30.1a27.67,27.67,0,0,1,27.69,27.69V433.71a22.62,22.62,0,0,1-22.61,22.62v19.3l1.76.47.43.12.23.06h0l.05,0c.52.14,1,.27,1.57.39l.08,0,.07,0c.91.23,1.83.46,2.76.67V462.5a29.65,29.65,0,0,0,22.61-28.79V306.06A34.73,34.73,0,0,0,190.77,271.37Z" style="fill:#005596"/><path d="M143.43,269.15a9.73,9.73,0,0,1-9.72-9.73v-1.1a9.73,9.73,0,0,1,9.72-9.71h7.67a9.68,9.68,0,0,1,6,2c16.39-1.6,30.54-7.69,36.75-15.8V218.79a51.82,51.82,0,0,0-17-35.25,55.27,55.27,0,0,0-37.27-14.17c-28.45,0-51.71,20.7-54.17,48.19v23l-1.83,1.59a16.12,16.12,0,0,1-10.61,4,16.36,16.36,0,0,1-16.34-16.33V218.66A16.44,16.44,0,0,1,68.38,203a63.32,63.32,0,0,1,24.23-39.08c12.74-9.69,29.41-15,46.93-15s34.19,5.33,46.93,15A63.31,63.31,0,0,1,210.7,203a16.42,16.42,0,0,1,11.89,15.7v11.11a16.35,16.35,0,0,1-16.33,16.33,14.67,14.67,0,0,1-1.75-.1c-9.66,10.87-26.76,18.33-46.47,20.22a9.71,9.71,0,0,1-6.94,2.93Z" style="fill:#fff"/><path d="M139.54,152.4c33.88,0,62.91,20.3,68.13,53.53a12.86,12.86,0,0,1,11.42,12.73v11.11a12.84,12.84,0,0,1-12.83,12.83,12.59,12.59,0,0,1-3.12-.4c-8.76,11-26.19,19-46.87,20.66a6.21,6.21,0,0,1-5.17,2.79h-7.67a6.24,6.24,0,0,1-6.22-6.23v-1.1a6.22,6.22,0,0,1,6.22-6.21h7.67a6.17,6.17,0,0,1,4.71,2.18c19.13-1.53,34.94-8.7,41.51-18.29V218.68c-1.89-30.2-27.28-52.81-57.78-52.81-29.8,0-55.11,22-57.67,51.54v21.53l-.63.54a12.57,12.57,0,0,1-8.31,3.12,12.86,12.86,0,0,1-12.84-12.83V218.66a12.9,12.9,0,0,1,11.33-12.72c5.22-33.24,34.24-53.54,68.12-53.54m0-7c-18.28,0-35.7,5.58-49,15.73a66.66,66.66,0,0,0-25.13,39.22,19.89,19.89,0,0,0-6.44,4.32,19.68,19.68,0,0,0-5.83,14v11.11A19.86,19.86,0,0,0,72.93,249.6a19.63,19.63,0,0,0,12.92-4.84l.61-.53,2.41-2.09V217.72a48.49,48.49,0,0,1,16.26-31.92,52.43,52.43,0,0,1,69.33.33,48.37,48.37,0,0,1,15.86,32.78v14.71c-5.8,6.74-18,11.82-32.33,13.43a13.15,13.15,0,0,0-6.89-1.94h-7.67a13.23,13.23,0,0,0-13.22,13.21v1.1a13.24,13.24,0,0,0,13.22,13.23h7.67a13.22,13.22,0,0,0,8.45-3.06c19.32-2.08,36.2-9.39,46.4-20h.31a19.85,19.85,0,0,0,19.83-19.83V218.66a19.66,19.66,0,0,0-5.81-14,20,20,0,0,0-6.55-4.35,66.65,66.65,0,0,0-25.14-39.19C175.24,151,157.82,145.4,139.54,145.4Z" style="fill:#005596"/><path d="M405.58,314.79c.85,0,1.83,0,3,.08l8.08.71h.11c4.4.52,9.25,1.23,13.64,2.19a35.63,35.63,0,0,1,12.23,5.1l.06,0,4.28,3.25.05,0L294.62,390.79l.06-7.27-25.51,18.42-21.86,15.78a30,30,0,0,1-17.56,5.67c-.92,0-1.85,0-2.76-.12s-1.74-.2-2.6-.36c-.39-.07-.79-.15-1.18-.24l-.91-.22-.39-.1-.76-.22c-.91-.26-1.81-.58-2.69-.93a29.67,29.67,0,0,1-11.73-8.5l-10.29-12.2.16-.14-26.69-31.79a21.19,21.19,0,0,1-2.83-4.33,22,22,0,0,1,5.27-26.34,2,2,0,0,1,.3-.24,23.65,23.65,0,0,1,13.81-4.53h.21a23.86,23.86,0,0,1,10.59,2.43,22,22,0,0,1,4.15,2.67,22.5,22.5,0,0,1,2.1,2.15l2.7,3.23,9.36,11.14,2.89,3.44,11.69,13.93,33.13-21.23,5.83-3.73,27.32-20.66a36.33,36.33,0,0,1,16.92-8.73c4.5-1,9.44-1.7,13.89-2.22h0c2.95-.32,5.71-.54,7.92-.68,1.12-.05,2.13-.08,2.95-.08h67.45m0-7H338.13c-.88,0-1.95,0-3.26.09h-.13c-1.81.12-4.62.33-7.85.67h0l-.42.05c-3.67.43-9.16,1.18-14.54,2.32A43.36,43.36,0,0,0,292,321.1l-26.85,20.31-5.6,3.58-27.95,17.92-7.74-9.22-2.89-3.44-9.36-11.14-2.69-3.22a30.79,30.79,0,0,0-2.77-2.85l-.12-.11-.12-.1a28.9,28.9,0,0,0-5.46-3.52h0l0,0a31.11,31.11,0,0,0-13.69-3.15h-.28A30.48,30.48,0,0,0,168.6,332a9,9,0,0,0-.95.76,28.94,28.94,0,0,0-6.85,34.62,28.15,28.15,0,0,0,3.75,5.74l22.28,26.54-.17.15,4.43,5.25,10.29,12.2a36.54,36.54,0,0,0,14.46,10.48c1.18.47,2.25.84,3.29,1.14l.87.26.61.15,1.06.26c.44.1,1,.21,1.49.3,1,.19,2.1.34,3.19.44s2.27.15,3.4.15a36.82,36.82,0,0,0,21.65-7l21.87-15.78,14.3-10.33,0,4.11,9.82-4.17L449.73,332.6l15.72-6.66-15-5.95-3.52-2.67-.92-.71-.33-.1a42.11,42.11,0,0,0-13.8-5.58c-4-.88-8.84-1.66-14.29-2.3l-.41-.05h-.21l-7.78-.68-.15,0h-.15c-1.35-.06-2.39-.09-3.28-.09Z" style="fill:#fff"/><path d="M300.4,472.39,291.12,391v-.56l-41.76,30.15a33.37,33.37,0,0,1-19.61,6.33c-1,0-2.06,0-3.07-.13-.41,0-.84-.09-1.25-.15l-.43-.06c-.46-.06-.89-.13-1.3-.21l-1.28-.26-1-.23-.51-.13-.81-.24c-.94-.27-1.91-.61-3-1a32.51,32.51,0,0,1-3.24-1.5,33.38,33.38,0,0,1-9.88-8l-12.49-14.82.16-.15-24.49-29.17a24.48,24.48,0,0,1-3.3-5.05A25.44,25.44,0,0,1,170,335.31a5.51,5.51,0,0,1,.64-.51,27,27,0,0,1,15.8-5.17h.24a27.65,27.65,0,0,1,12.14,2.79,25.69,25.69,0,0,1,4.83,3.11l.12.1a26.69,26.69,0,0,1,2.42,2.49l2.72,3.25,12.24,14.57,9.71,11.57,30.54-19.57,5.72-3.65,27.08-20.49a39.89,39.89,0,0,1,18.44-9.46c5.24-1.11,10.62-1.85,14.2-2.27l.21,0h0c3.26-.35,6.08-.56,7.89-.67l1.15-.05c-1-.59-1.93-1.2-2.87-1.86-.61-.39-1.18-.78-1.74-1.2a68.79,68.79,0,1,1,80.72,0c-.64.47-1.25.88-1.76,1.21-.91.62-1.86,1.24-2.84,1.83l1.16.05,8,.7H417l.2,0c5.35.64,10.05,1.39,14,2.25a38.88,38.88,0,0,1,13,5.34l.12.05.52.36,3.9,3,.42.3,22.22,16.82-1,2.48c-.23.59-.47,1.17-.7,1.75l-.27.63c-.17.42-.36.89-.57,1.35l-.06.15a227.19,227.19,0,0,1-14.7,28.72l-.07.12c-.59,1-1.2,2-1.87,3v0l-.3.46-.3.5-.06.07c-.66,1.05-1.34,2.09-2,3.12l-.55.85c-1.08,1.64-1.92,2.86-2.72,4a231.64,231.64,0,0,1-31.8,36.93l-.12.11-.94.88-.08.08c-1.2,1.13-2.52,2.33-3.92,3.56a229.63,229.63,0,0,1-79.21,46l-.14.05c-1.47.51-3.07,1-4.87,1.58l-.51.16h0l-.5.16c-5.21,1.61-10.46,3-15.58,4.21-1.26.3-2.56.58-3.86.85l-4.2.86Z" style="fill:#fff"/><path d="M371.92,187.23a65.32,65.32,0,0,1,38.25,118.22c-.55.41-1.07.76-1.61,1.11a62.51,62.51,0,0,1-6.06,3.66,63.67,63.67,0,0,1-8.62,3.82l-2.22.75h13.92c.85,0,1.83,0,3,.08l8.08.71h.11c4.4.52,9.25,1.23,13.64,2.19a35.63,35.63,0,0,1,12.23,5.1l.06,0,4.28,3.25.05,0,20.1,15.22-.69,1.71-.25.59c-.18.44-.36.88-.55,1.31l0,.05,0,0a225.06,225.06,0,0,1-14.51,28.38l0,0,0,0c-.6,1-1.24,2.07-1.95,3.16l0,0,0,0-.23.36-.19.32-.05.06,0,.07c-.85,1.34-1.72,2.67-2.57,4s-1.75,2.62-2.64,3.88A228.12,228.12,0,0,1,412,421.84l0,0,0,0-1,.92,0,0,0,0q-1.85,1.74-3.83,3.48a226.16,226.16,0,0,1-78.13,45.36h-.05c-1.6.55-3.22,1.07-4.77,1.55h0l-1,.31c-5.08,1.57-10.24,3-15.34,4.15-1.24.29-2.5.57-3.77.83v-6.42l-9.28-81.4.06-7.27-25.51,18.42-21.86,15.78a30,30,0,0,1-17.56,5.67c-.92,0-1.85,0-2.76-.12-.36,0-.72-.07-1.07-.12l-.46-.07c-.36-.05-.72-.1-1.07-.17s-.79-.15-1.18-.24l-.91-.22-.39-.1-.76-.22c-.91-.26-1.81-.58-2.69-.93a29.67,29.67,0,0,1-11.73-8.5l-10.29-12.2.16-.14-26.69-31.79a21.19,21.19,0,0,1-2.83-4.33,22,22,0,0,1,5.27-26.34,2,2,0,0,1,.3-.24,23.65,23.65,0,0,1,13.81-4.53h.21a23.86,23.86,0,0,1,10.59,2.43,22,22,0,0,1,4.15,2.67,22.5,22.5,0,0,1,2.1,2.15l2.7,3.23,9.36,11.14,2.89,3.44,7,8.34,4.69,5.59,33.13-21.23,5.83-3.73,27.32-20.66a36.33,36.33,0,0,1,16.92-8.73c4.5-1,9.44-1.7,13.89-2.22h0c2.95-.32,5.71-.54,7.92-.68,1.12-.05,2.13-.08,2.95-.08h14c-.71-.22-1.43-.47-2.14-.72a60.55,60.55,0,0,1-8.73-3.85c-.68-.36-1.35-.73-2-1.12-1.39-.79-2.73-1.63-4-2.54-.55-.35-1.06-.7-1.58-1.09a65.32,65.32,0,0,1,38.32-118.24m0-7a72.31,72.31,0,0,0-45.71,128.39c-3.66.43-9,1.18-14.32,2.3A43.19,43.19,0,0,0,292,321.1l-26.86,20.31-5.6,3.58-27.95,17.92-.74-.88-7-8.34-2.89-3.44-9.36-11.14-2.69-3.22A29.69,29.69,0,0,0,206.1,333l-.11-.11-.12-.1a28.9,28.9,0,0,0-5.46-3.52h0l0,0a31.11,31.11,0,0,0-13.69-3.15h-.28A30.48,30.48,0,0,0,168.6,332a9,9,0,0,0-.95.76,28.94,28.94,0,0,0-6.85,34.62,28.15,28.15,0,0,0,3.75,5.74l22.28,26.54-.17.15,4.43,5.25,10.29,12.2a36.54,36.54,0,0,0,14.46,10.48c1.18.47,2.25.84,3.29,1.14l.88.26.6.15,1.06.26c.43.1.91.2,1.42.29s1,.17,1.4.22l.09,0,.38.05c.47.07,1,.12,1.45.17,1.07.09,2.21.14,3.34.14a36.82,36.82,0,0,0,21.65-7l21.87-15.78,15-10.83,8.64,75.8v14.6l8.4-1.72c1.26-.26,2.55-.54,4-.87,5.19-1.2,10.52-2.64,15.81-4.28h0l1-.31c1.84-.57,3.47-1.1,5-1.62l.43-.15h0a233.27,233.27,0,0,0,80.11-46.61c1.41-1.24,2.76-2.46,4-3.63l.19-.17.73-.69h0l.21-.2A234.54,234.54,0,0,0,449,389.45c.83-1.17,1.67-2.42,2.74-4v0l0,0,.54-.83c.63-1,1.26-1.94,1.89-2.92l.08-.1.28-.46.17-.28.07-.12,0-.05.24-.36,0-.07c.64-1,1.25-2,1.83-3l.07-.11A232,232,0,0,0,471.93,348l0-.07.09-.23q.3-.66.57-1.35l.23-.55,0,0,0,0c.24-.59.48-1.18.72-1.79l2-4.95-4.24-3.21-20.1-15.22-.77-.58h0l-3.52-2.67-.92-.7-.33-.11a42.11,42.11,0,0,0-13.8-5.58c-4-.88-8.84-1.66-14.29-2.3h0a71.43,71.43,0,0,0,17-19.92,72.33,72.33,0,0,0-62.57-108.47Z" style="fill:#005596"/><path d="M285.18,154.11a5.24,5.24,0,0,0-3.68-1.53H209.16a3.35,3.35,0,0,1-3.35-3.35V80.4a3.35,3.35,0,0,1,3.35-3.35H330.63A3.36,3.36,0,0,1,334,80.4v68.83a3.36,3.36,0,0,1-3.36,3.35H313.81v30.16Z" style="fill:#fff"/><path d="M330.49,80.55v68.53H310.31v25.21l-22.65-22.65a8.66,8.66,0,0,0-6.16-2.56H209.31V80.55H330.49m.14-7H209.16a6.85,6.85,0,0,0-6.85,6.85v68.83a6.85,6.85,0,0,0,6.85,6.85H281.5a1.69,1.69,0,0,1,1.21.51l31.68,31.68a1.71,1.71,0,0,0,2.92-1.22v-31h13.32a6.86,6.86,0,0,0,6.86-6.85V80.4a6.85,6.85,0,0,0-6.86-6.85Z" style="fill:#005596"/><path d="M284.61,92.69c-3.43-2.41-8-3.62-13.65-3.62a28.26,28.26,0,0,0-12.52,2.58A20.77,20.77,0,0,0,250,99l9,5.26a13.08,13.08,0,0,1,4.55-4,12.93,12.93,0,0,1,6.18-1.44,9.56,9.56,0,0,1,5.8,1.59,5.05,5.05,0,0,1,2.18,4.32,5.54,5.54,0,0,1-1.15,3.43,29,29,0,0,1-3.58,3.74,33.77,33.77,0,0,0-5.07,5.54,10.94,10.94,0,0,0-1.74,6.36h11.17a6.53,6.53,0,0,1,1.25-4,31.77,31.77,0,0,1,4-4.1,51.16,51.16,0,0,0,3.74-3.66,13.94,13.94,0,0,0,2.43-3.88,13.18,13.18,0,0,0,1-5.32A11.65,11.65,0,0,0,284.61,92.69Zm-7.73,38.19a7.81,7.81,0,0,0-10.19,0,6.19,6.19,0,0,0-2,4.69,6.35,6.35,0,0,0,2,4.77,7.5,7.5,0,0,0,10.13,0,6.34,6.34,0,0,0,2-4.77A6.18,6.18,0,0,0,276.88,130.88Z" style="fill:#005596"/></svg>