<svg id="icon" xmlns="http://www.w3.org/2000/svg" viewBox="0 0 512 512"><path d="M256,487.13A231.17,231.17,0,0,1,92.54,92.5,231.17,231.17,0,1,1,419.46,419.42,229.66,229.66,0,0,1,256,487.13Z" style="fill:#fff"/><path d="M256,28.3a227.73,227.73,0,0,1,88.62,437.44A227.73,227.73,0,0,1,167.38,46.19,226.27,226.27,0,0,1,256,28.3m0-7C126.4,21.3,21.33,126.36,21.33,256S126.4,490.63,256,490.63,490.67,385.57,490.67,256,385.6,21.3,256,21.3Z" style="fill:#005596"/><path d="M288,288.57H126.44a43.82,43.82,0,0,0-43.86,43.78v81.13q2.92,3.24,6,6.37a235.48,235.48,0,0,0,31.92,27.37c2.17,1.55,4.38,3.07,6.61,4.55q4.35,2.88,8.84,5.56,3.27,2,6.61,3.84a231.37,231.37,0,0,0,31.93,14.76q3.28,1.23,6.61,2.36c2.55.86,5.13,1.69,7.72,2.47a232.51,232.51,0,0,0,27,6.41h0c2,.35,4,.68,6,1q8.06,1.2,16.27,1.84,9.15.72,18.49.72h1.25l2.73,0a234.72,234.72,0,0,0,40.85-4.24c2.82-.55,5.63-1.14,8.42-1.79q8-1.86,15.83-4.27h0c2-.62,4-1.26,6-1.94l.1,0v-146A43.78,43.78,0,0,0,288,288.57Z" style="fill:#005596"/><polygon points="207.17 375.81 276.92 287.02 137.43 287.02 207.17 375.81" style="fill:#fff"/><path d="M298.17,205.83a91.32,91.32,0,1,1-177.45-30.41c22.59,14.71,52.58,23.69,85.5,23.69,33.4,0,63.81-9.24,86.51-24.37A91,91,0,0,1,298.17,205.83Z" style="fill:#005596"/><path d="M292.73,174.74c-22.71,15.13-53.11,24.37-86.52,24.37-24.72,0-47.79-5.06-67.31-13.82-2.2-1-4.34-2-6.44-3.08a131.29,131.29,0,0,1-11.74-6.79,89.94,89.94,0,0,1,6.35-14.06l5.39,1.7,6.44,2L208.09,187a3.22,3.22,0,0,0,1,.15,3.17,3.17,0,0,0,1-.16L287,162A88.22,88.22,0,0,1,292.73,174.74Z" style="fill:#fff"/><path d="M297.43,173a94.14,94.14,0,0,0-6.07-13.43l-2-3.61-3.93,1.27L209.06,182,138.9,159.86l-6.44-2-3.88-1.23-3.88-1.23-2,3.55A94.39,94.39,0,0,0,116,173.76l-1.3,3.71,3.29,2.14a134.84,134.84,0,0,0,14.47,8.19v-5.59a131.29,131.29,0,0,1-11.74-6.79,89.94,89.94,0,0,1,6.35-14.06l5.39,1.7,6.44,2L208.09,187a3.22,3.22,0,0,0,1,.15,3.17,3.17,0,0,0,1-.16L287,162a88.22,88.22,0,0,1,5.75,12.71c-22.71,15.13-53.11,24.37-86.52,24.37-24.72,0-47.79-5.06-67.31-13.82v5.45c20.23,8.71,43.42,13.37,67.31,13.37,33.18,0,64.89-9,89.29-25.21l3.27-2.17Z" style="fill:#005596"/><path d="M339,145.15l-21.56,7L287,162,210.07,187a3.31,3.31,0,0,1-2,0l-81-25.61-33-10.44L75.35,145a3.23,3.23,0,0,1,0-6.15l9.72-3.16L204.28,97.05a3.23,3.23,0,0,1,2,0l121.28,38.34L339,139A3.23,3.23,0,0,1,339,145.15Z" style="fill:#fff"/><path d="M205.27,96.89a3.28,3.28,0,0,1,1,.15l121.28,38.34L339,139a3.23,3.23,0,0,1,0,6.15l-21.56,7L287,162,210.07,187a3.49,3.49,0,0,1-1,.16,3.11,3.11,0,0,1-1-.15l-81-25.61-33-10.44L75.35,145a3.23,3.23,0,0,1,0-6.15l9.72-3.16L204.28,97.05a3.06,3.06,0,0,1,1-.16Zm0-5a8.06,8.06,0,0,0-2.53.4L83.51,131l-9.72,3.15a8.24,8.24,0,0,0,0,15.68l18.71,5.91,33,10.44,81,25.6a7.83,7.83,0,0,0,2.47.39,8.48,8.48,0,0,0,2.54-.4l76.93-24.94L319,156.89l21.56-7a8.24,8.24,0,0,0-.05-15.68L329,130.61,207.75,92.27a8.21,8.21,0,0,0-2.48-.38Z" style="fill:#005596"/><path d="M147.42,256.76h-23.7c0-.45.06-.86.12-1.31l3-17.45c1.67-9.85,15.82-9.85,17.49,0l3,17.45A9.63,9.63,0,0,1,147.42,256.76Z" style="fill:#fff"/><path d="M138.91,231.38h-6.45V155.77a8.42,8.42,0,0,1,6.6-8.26l72.57-16.45a3.23,3.23,0,0,1,3.85,2.43h0a3.22,3.22,0,0,1-2.43,3.86L140.48,153.8a2,2,0,0,0-1.57,2Z" style="fill:#005596"/><circle cx="135.57" cy="217.54" r="7.45" style="fill:#fff"/><path d="M138.9,185.29v48.09h-6.44V182.21C134.56,183.28,136.7,184.31,138.9,185.29Z" style="fill:#fff"/><path d="M215.56,134.21a3.23,3.23,0,0,1-2.51,3.14L140.48,153.8a2,2,0,0,0-1.58,2v29.52c-2.2-1-4.34-2-6.44-3.08V155.77a8.41,8.41,0,0,1,6.59-8.25l72.58-16.45a3.21,3.21,0,0,1,3.85,2.43A3.43,3.43,0,0,1,215.56,134.21Z" style="fill:#005596"/><polygon points="358.28 328.67 375.59 317.56 386.14 334.96 409.07 233.53 381.21 227.23 358.28 328.67" style="fill:#005596"/><polygon points="442.79 328.67 425.48 317.56 414.94 334.96 392.01 233.53 419.87 227.23 442.79 328.67" style="fill:#005596"/><polygon points="393.26 271.8 384.58 274.66 379.49 267.07 370.36 266.96 368 258.13 359.4 255.06 360.04 245.95 352.9 240.25 356.47 231.84 351.57 224.13 357.67 217.33 355.54 208.44 363.52 204 364.39 194.9 373.38 193.28 377.15 184.97 386.18 186.36 392.45 179.72 400.54 183.96 408.63 179.72 414.9 186.36 423.93 184.97 427.7 193.28 436.69 194.9 437.56 204 445.54 208.44 443.41 217.33 449.51 224.13 444.61 231.84 448.17 240.25 441.04 245.95 441.67 255.06 433.07 258.13 430.72 266.96 421.59 267.07 416.49 274.66 407.82 271.8 400.54 277.32 393.26 271.8" style="fill:#fff"/><path d="M408.11,182.81,414,189l8.45-1.3,3.54,7.78,8.41,1.52.82,8.51,7.46,4.17-2,8.31,5.71,6.36-4.58,7.22,3.33,7.88-6.68,5.33.6,8.53L431,256.22l-2.21,8.26-8.55.11-4.77,7.1L407.35,269l-6.81,5.16L393.72,269l-8.12,2.67-4.77-7.1-8.54-.11-2.21-8.26L362,253.34l.6-8.53L356,239.48l3.33-7.88-4.58-7.22,5.71-6.36-2-8.31,7.47-4.17.82-8.51,8.41-1.52,3.54-7.78,8.45,1.3,5.87-6.22,7.57,4,7.57-4m1-6.19-3.35,1.76-5.25,2.76-5.25-2.76-3.36-1.76-2.6,2.76-4.07,4.31-5.86-.9-3.74-.58-1.57,3.45-2.45,5.4-5.83,1.05-3.73.67-.36,3.77-.57,5.9L356,205.34l-3.31,1.85.88,3.68,1.38,5.76-4,4.42-2.53,2.82,2,3.19,3.17,5-2.31,5.46L349.86,241l3,2.36,4.63,3.7L357,253l-.26,3.78,3.57,1.28,5.58,2,1.52,5.72,1,3.66,3.79.05,5.93.08,3.3,4.92,2.12,3.14,3.6-1.18,5.63-1.85,4.72,3.58,3,2.29,3-2.29,4.72-3.58,5.63,1.85,3.6,1.18,2.11-3.14,3.31-4.92,5.93-.08,3.79-.05,1-3.66,1.53-5.72,5.58-2,3.57-1.28L444,253l-.42-5.91,4.63-3.7,3-2.36-1.48-3.49-2.31-5.46,3.18-5,2-3.19-2.53-2.82-4-4.42,1.39-5.76.88-3.68-3.31-1.85-5.18-2.89-.56-5.9-.36-3.77-3.73-.67-5.84-1.05-2.45-5.4-1.56-3.45-3.75.58-5.86.9-4.07-4.31-2.6-2.76Z" style="fill:#005596"/><path d="M400.54,260.21a31.72,31.72,0,1,1,31.72-31.71A31.75,31.75,0,0,1,400.54,260.21Z" style="fill:#fff"/><path d="M400.54,199.28a29.22,29.22,0,1,1-29.22,29.22,29.26,29.26,0,0,1,29.22-29.22m0-5a34.22,34.22,0,1,0,34.22,34.22,34.22,34.22,0,0,0-34.22-34.22Z" style="fill:#005596"/></svg>