<svg id="icon" xmlns="http://www.w3.org/2000/svg" viewBox="0 0 512 512"><path d="M490.66,256A234.79,234.79,0,0,1,331.2,478.35l-.11,0q-3,1-6,1.93h0c-5.2,1.6-10.49,3-15.83,4.27-2.79.65-5.61,1.24-8.42,1.8A234.83,234.83,0,0,1,260,490.62c-.9,0-1.82,0-2.72,0H256q-9.34,0-18.49-.73-8.22-.63-16.28-1.84c-2-.29-4-.62-6-1h0a235.09,235.09,0,0,1-27-6.42c-2.58-.78-5.17-1.61-7.71-2.47-2.23-.75-4.42-1.54-6.61-2.35A233.18,233.18,0,0,1,142,461.14c-2.24-1.24-4.44-2.53-6.62-3.85q-4.48-2.67-8.83-5.56c-2.24-1.48-4.44-3-6.62-4.55A236.7,236.7,0,0,1,88,419.81c-2-2.08-4-4.21-6-6.37-.22-.23-.42-.47-.63-.7q-7.45-8.3-14.1-17.27c-4.07-5.5-7.92-11.21-11.51-17.06-1.29-2.11-2.55-4.21-3.74-6.35h0a232.83,232.83,0,0,1-27.6-77.91c-1.2-7.39-2.08-14.89-2.56-22.47,0-.19,0-.38,0-.56-.2-3-.35-6.09-.41-9.15-.07-2-.08-4-.08-6a234.05,234.05,0,0,1,13.21-77.83c.13-.4.28-.8.42-1.19q2.63-7.33,5.71-14.43l1.37-3.09a234.77,234.77,0,0,1,427.08-1.8q3.72,8.07,6.84,16.46c1.41,3.73,2.69,7.5,3.89,11.32a232.72,232.72,0,0,1,9.92,50.19C490.36,242.33,490.66,249.14,490.66,256Z" style="fill:#005596"/><path d="M287.41,288.53H125.86A43.83,43.83,0,0,0,82,332.31v81.13c1.95,2.16,3.95,4.29,6,6.37a236.7,236.7,0,0,0,31.92,27.37c2.18,1.55,4.38,3.07,6.62,4.55q4.33,2.89,8.83,5.56c2.18,1.32,4.38,2.61,6.62,3.85A233.18,233.18,0,0,0,173.9,475.9c2.19.81,4.38,1.6,6.61,2.35,2.54.86,5.13,1.69,7.71,2.47a235.09,235.09,0,0,0,27,6.42h0c2,.34,4,.67,6,1q8.06,1.22,16.28,1.84,9.14.72,18.49.73h1.25c.9,0,1.82,0,2.72,0a234.83,234.83,0,0,0,40.86-4.23c2.81-.56,5.63-1.15,8.42-1.8,5.34-1.24,10.63-2.67,15.83-4.27h0q3-.93,6-1.93l.11,0v-146A43.79,43.79,0,0,0,287.41,288.53Z" style="fill:#fff"/><polygon points="206.6 375.77 276.35 286.98 136.85 286.98 206.6 375.77" style="fill:#005596"/><path d="M297.59,205.79a91.32,91.32,0,1,1-177.44-30.41c22.59,14.72,52.58,23.69,85.49,23.69,33.41,0,63.81-9.24,86.52-24.37A91.24,91.24,0,0,1,297.59,205.79Z" style="fill:#fff"/><path d="M205.64,201.57c-32.16,0-63-8.56-86.86-24.09l-1.64-1.07.65-1.86a91.66,91.66,0,0,1,6.53-14.45l1-1.77,83,26.22.21,0a.66.66,0,0,0,.23,0L287.6,159l1,1.81a92.34,92.34,0,0,1,5.91,13.07l.67,1.84-1.63,1.09C269.55,192.77,238.33,201.57,205.64,201.57Z" style="fill:#c1d82f"/><path d="M126.5,161.32l81,25.61a3.22,3.22,0,0,0,1,.15,3.17,3.17,0,0,0,1-.16L286.41,162a88.22,88.22,0,0,1,5.75,12.71c-22.71,15.13-53.11,24.37-86.52,24.37-32.91,0-62.9-9-85.49-23.69a89.94,89.94,0,0,1,6.35-14.06m-2.37-6-2,3.55a94.39,94.39,0,0,0-6.71,14.84l-1.3,3.71,3.29,2.14c24.25,15.8,55.58,24.5,88.22,24.5,33.18,0,64.89-8.95,89.29-25.21l3.27-2.17L296.86,173a94.14,94.14,0,0,0-6.07-13.43l-2-3.61-3.93,1.27L208.49,182,128,156.56l-3.88-1.23Z" style="fill:#005596"/><path d="M208.49,189.58a5.7,5.7,0,0,1-1.74-.27L74,147.36a5.73,5.73,0,0,1,0-10.91l9.72-3.16L202.93,94.63a6,6,0,0,1,1.77-.28,5.86,5.86,0,0,1,1.71.26l132.76,42a5.73,5.73,0,0,1,0,10.91l-21.56,7-30.47,9.88L210.26,189.3A5.65,5.65,0,0,1,208.49,189.58Z" style="fill:#c1d82f"/><path d="M204.7,96.85a3.17,3.17,0,0,1,1,.15L327,135.34,338.42,139a3.24,3.24,0,0,1,0,6.16l-21.56,7L286.41,162l-76.92,24.93a3.17,3.17,0,0,1-1,.16,3.22,3.22,0,0,1-1-.15l-81-25.61-33-10.44L74.78,145a3.23,3.23,0,0,1,0-6.16l9.72-3.15L203.7,97a3.17,3.17,0,0,1,1-.16m0-5a8.36,8.36,0,0,0-2.53.4L82.94,130.91l-9.72,3.16a8.23,8.23,0,0,0,0,15.67L92,155.65l33,10.44,81,25.61a8.24,8.24,0,0,0,5,0L288,166.74l30.47-9.88,21.56-7a8.23,8.23,0,0,0-.05-15.67l-11.46-3.63L207.18,92.23a8.54,8.54,0,0,0-2.48-.38Z" style="fill:#005596"/><path d="M146.85,256.72H123.14a11.45,11.45,0,0,1,.13-1.3l3-17.45c1.67-9.86,15.82-9.86,17.49,0l3,17.45A9.5,9.5,0,0,1,146.85,256.72Z" style="fill:#c1d82f"/><path d="M138.33,231.34h-6.44V155.73a8.41,8.41,0,0,1,6.59-8.25L211.06,131a3.21,3.21,0,0,1,3.85,2.43h0a3.23,3.23,0,0,1-2.43,3.85l-72.57,16.45a2,2,0,0,0-1.58,2Z" style="fill:#005596"/><circle cx="134.99" cy="217.5" r="7.45" style="fill:#c1d82f"/><polygon points="357.71 328.63 375.02 317.53 385.57 334.93 408.49 233.49 380.63 227.2 357.71 328.63" style="fill:#fff"/><polygon points="442.22 328.63 424.91 317.53 414.36 334.93 391.44 233.49 419.3 227.2 442.22 328.63" style="fill:#fff"/><polygon points="392.69 271.77 384.01 274.62 378.92 267.04 369.79 266.92 367.43 258.1 358.83 255.02 359.47 245.91 352.33 240.21 355.89 231.8 351 224.09 357.1 217.29 354.97 208.41 362.94 203.96 363.81 194.87 372.8 193.25 376.58 184.93 385.61 186.32 391.88 179.68 399.97 183.92 408.05 179.68 414.32 186.32 423.35 184.93 427.13 193.25 436.12 194.87 436.99 203.96 444.96 208.41 442.83 217.29 448.93 224.09 444.04 231.8 447.6 240.21 440.46 245.91 441.1 255.02 432.5 258.1 430.15 266.92 421.01 267.04 415.92 274.62 407.25 271.77 399.97 277.28 392.69 271.77" style="fill:#fff"/><path d="M407.54,182.77l5.87,6.22,8.45-1.3,3.53,7.79,8.42,1.51.81,8.51,7.47,4.17-2,8.31,5.71,6.37-4.59,7.21,3.34,7.88-6.68,5.34.59,8.53-8.05,2.88-2.2,8.26-8.55.11-4.77,7.09L406.78,269,400,274.15,393.15,269,385,271.65l-4.77-7.09-8.55-.11-2.2-8.26-8.05-2.88.59-8.53-6.68-5.34,3.34-7.88-4.59-7.21,5.71-6.37-2-8.31,7.47-4.17.81-8.51,8.42-1.51,3.53-7.79,8.45,1.3,5.87-6.22,7.58,4,7.57-4m1-6.18-3.36,1.76L400,181.1l-5.25-2.75-3.36-1.76-2.6,2.75-4.07,4.31-5.86-.9-3.74-.58-1.57,3.45-2.45,5.4-5.83,1-3.73.67-.36,3.77-.57,5.9-5.18,2.89-3.3,1.85.88,3.68,1.38,5.77-4,4.41-2.53,2.82,2,3.2,3.18,5-2.31,5.46L349.29,241l3,2.36,4.63,3.7-.41,5.92-.27,3.78,3.57,1.27,5.58,2,1.53,5.73,1,3.66,3.79.05,5.92.07,3.31,4.92,2.11,3.15,3.6-1.19,5.63-1.85,4.73,3.58,3,2.29,3-2.29,4.72-3.58,5.63,1.85,3.6,1.19,2.11-3.15,3.31-4.92,5.92-.07,3.79-.05,1-3.66,1.53-5.73,5.58-2,3.57-1.27-.27-3.78-.41-5.92,4.63-3.7,3-2.36-1.48-3.49L446.85,232l3.18-5,2-3.2L449.53,221l-4-4.41,1.38-5.77.89-3.68-3.31-1.85-5.18-2.89-.56-5.9-.37-3.77-3.73-.67-5.83-1-2.45-5.4-1.56-3.45-3.75.58-5.86.9-4.07-4.31-2.6-2.75Z" style="fill:#005596"/><path d="M400,260.18a31.72,31.72,0,1,1,31.71-31.72A31.76,31.76,0,0,1,400,260.18Z" style="fill:#c1d82f"/><path d="M400,199.24a29.22,29.22,0,1,1-29.22,29.22A29.25,29.25,0,0,1,400,199.24m0-5a34.22,34.22,0,1,0,34.21,34.22A34.22,34.22,0,0,0,400,194.24Z" style="fill:#005596"/></svg>