<svg id="icon" xmlns="http://www.w3.org/2000/svg" viewBox="0 0 512 512"><path d="M256,487.17A231.17,231.17,0,0,1,92.54,92.54,231.17,231.17,0,1,1,419.46,419.46,229.66,229.66,0,0,1,256,487.17Z" style="fill:#fff"/><path d="M256,28.33a227.74,227.74,0,0,1,88.62,437.45A227.73,227.73,0,0,1,167.38,46.22,226.27,226.27,0,0,1,256,28.33m0-7C126.4,21.33,21.33,126.4,21.33,256S126.4,490.67,256,490.67,490.67,385.6,490.67,256,385.6,21.33,256,21.33Z" style="fill:#005596"/><path d="M288,288.61H275.7l-68.53,87.24-68.52-87.24H126.44a43.82,43.82,0,0,0-43.86,43.78v75.14q5.92,7,12.44,13.46a226.92,226.92,0,0,0,161,66.68c26.09,0,51.51-5.34,75.77-13.9V332.39A43.78,43.78,0,0,0,288,288.61Z" style="fill:#fff;stroke:#005596;stroke-miterlimit:10;stroke-width:7px"/><path d="M298.17,205.86a91.32,91.32,0,1,1-177.45-30.4c22.59,14.71,52.58,23.68,85.5,23.68,33.4,0,63.81-9.24,86.51-24.37A91,91,0,0,1,298.17,205.86Z" style="fill:#fff;stroke:#005596;stroke-miterlimit:10;stroke-width:7px"/><path d="M292.73,174.77c-22.71,15.13-53.11,24.37-86.52,24.37-24.72,0-47.79-5.06-67.31-13.82-2.2-1-4.34-2-6.44-3.08a131.29,131.29,0,0,1-11.74-6.79,89.94,89.94,0,0,1,6.35-14.06l5.39,1.7,6.44,2L208.09,187a3.22,3.22,0,0,0,1,.15,3.17,3.17,0,0,0,1-.16L287,162.06A88.22,88.22,0,0,1,292.73,174.77Z" style="fill:#fff"/><path d="M297.43,173.07a94.14,94.14,0,0,0-6.07-13.43l-2-3.61-3.93,1.27-76.38,24.76L138.9,159.89l-6.44-2-3.88-1.23-3.88-1.23-2,3.55A94.39,94.39,0,0,0,116,173.79l-1.3,3.71,3.29,2.14a134.84,134.84,0,0,0,14.47,8.19v-5.59a131.29,131.29,0,0,1-11.74-6.79,89.94,89.94,0,0,1,6.35-14.06l5.39,1.7,6.44,2L208.09,187a3.22,3.22,0,0,0,1,.15,3.17,3.17,0,0,0,1-.16L287,162.06a88.22,88.22,0,0,1,5.75,12.71c-22.71,15.13-53.11,24.37-86.52,24.37-24.72,0-47.79-5.06-67.31-13.82v5.45c20.23,8.71,43.42,13.37,67.31,13.37,33.18,0,64.89-8.95,89.29-25.21l3.27-2.17Z" style="fill:#005596"/><path d="M339,145.19l-21.56,7L287,162.06,210.07,187a3.16,3.16,0,0,1-2,0l-81-25.6L94.06,151l-18.71-5.91a3.23,3.23,0,0,1,0-6.15l9.72-3.16L204.28,97.08a3.23,3.23,0,0,1,2,0l121.28,38.34L339,139A3.23,3.23,0,0,1,339,145.19Z" style="fill:#fff"/><path d="M205.27,96.93a3.27,3.27,0,0,1,1,.14l121.28,38.34L339,139a3.23,3.23,0,0,1,0,6.16l-21.56,7L287,162.06,210.07,187a3.18,3.18,0,0,1-1,.16,3.11,3.11,0,0,1-1-.15l-81-25.6L94.06,151l-18.71-5.91a3.23,3.23,0,0,1,0-6.15l9.72-3.16L204.28,97.08a3.35,3.35,0,0,1,1-.15Zm0-5a8.35,8.35,0,0,0-2.53.39L83.51,131l-9.72,3.16a8.24,8.24,0,0,0,0,15.68l18.71,5.9,33,10.44,81,25.61a8.24,8.24,0,0,0,5,0l76.93-24.94L319,156.93l21.56-7a8.23,8.23,0,0,0-.05-15.67L329,130.65,207.75,92.3a8.52,8.52,0,0,0-2.48-.37Z" style="fill:#005596"/><path d="M147.42,256.79h-23.7c0-.44.06-.85.12-1.3l3-17.45c1.67-9.86,15.82-9.86,17.49,0l3,17.45A9.61,9.61,0,0,1,147.42,256.79Z" style="fill:#fff;stroke:#005596;stroke-miterlimit:10;stroke-width:5px"/><path d="M138.91,231.41h-6.45V155.8a8.41,8.41,0,0,1,6.6-8.25l72.57-16.45a3.22,3.22,0,0,1,3.85,2.43h0a3.21,3.21,0,0,1-2.43,3.85l-72.57,16.45a2,2,0,0,0-1.57,2Z" style="fill:#005596"/><circle cx="135.57" cy="217.57" r="7.45" style="fill:#fff;stroke:#005596;stroke-miterlimit:10;stroke-width:5px"/><path d="M215.56,134.24a3.23,3.23,0,0,1-2.51,3.14l-72.57,16.45a2,2,0,0,0-1.58,2v29.52c-2.2-1-4.34-2-6.44-3.08V155.8a8.41,8.41,0,0,1,6.59-8.25l72.58-16.45a3.21,3.21,0,0,1,3.85,2.43A3.43,3.43,0,0,1,215.56,134.24Z" style="fill:#005596"/><polygon points="358.28 328.7 375.59 317.6 386.14 335 409.07 233.56 381.21 227.27 358.28 328.7" style="fill:#fff;stroke:#005596;stroke-miterlimit:10;stroke-width:5px"/><polygon points="442.79 328.7 425.48 317.6 414.94 335 392.01 233.56 419.87 227.27 442.79 328.7" style="fill:#fff;stroke:#005596;stroke-miterlimit:10;stroke-width:5px"/><polygon points="393.26 271.84 384.58 274.69 379.49 267.11 370.36 266.99 368 258.17 359.4 255.09 360.04 245.98 352.9 240.28 356.47 231.87 351.57 224.16 357.67 217.36 355.54 208.48 363.52 204.03 364.39 194.94 373.38 193.32 377.15 185 386.18 186.39 392.45 179.75 400.54 184 408.63 179.75 414.9 186.39 423.93 185 427.7 193.32 436.69 194.94 437.56 204.03 445.54 208.48 443.41 217.36 449.51 224.16 444.61 231.87 448.17 240.28 441.04 245.98 441.67 255.09 433.07 258.17 430.72 266.99 421.59 267.11 416.49 274.69 407.82 271.84 400.54 277.35 393.26 271.84" style="fill:#fff"/><path d="M408.11,182.85l5.87,6.21,8.45-1.3,3.54,7.79,8.41,1.51.82,8.51,7.46,4.17-2,8.32,5.71,6.36-4.58,7.22,3.33,7.87-6.68,5.34.6,8.53L431,256.26l-2.21,8.26-8.55.11-4.77,7.1-8.12-2.68-6.81,5.17-6.82-5.17-8.12,2.68-4.77-7.1-8.54-.11-2.21-8.26L362,253.38l.6-8.53L356,239.51l3.33-7.87-4.58-7.22,5.71-6.36-2-8.32,7.47-4.17.82-8.51,8.41-1.51,3.54-7.79,8.45,1.3,5.87-6.21,7.57,4,7.57-4m1-6.19-3.35,1.76-5.25,2.75-5.25-2.75-3.36-1.76-2.6,2.75-4.07,4.31-5.85-.9-3.75-.58-1.57,3.46-2.45,5.39-5.83,1-3.73.67-.36,3.78-.57,5.9L356,205.37l-3.31,1.85.88,3.69,1.38,5.76-4,4.41-2.53,2.82,2,3.2,3.17,5-2.31,5.46-1.48,3.49,3,2.37,4.63,3.7L357,253l-.26,3.78,3.57,1.28,5.58,2,1.52,5.73,1,3.66,3.79,0,5.93.07,3.3,4.92,2.12,3.15,3.6-1.19,5.63-1.85,4.72,3.58,3,2.29,3-2.29,4.72-3.58,5.63,1.85,3.6,1.19,2.11-3.15,3.31-4.92,5.93-.07,3.79,0,1-3.66,1.53-5.73,5.58-2,3.57-1.28L444,253l-.42-5.91,4.63-3.7,3-2.37-1.48-3.49-2.31-5.46,3.18-5,2-3.2-2.53-2.82-4-4.41,1.38-5.76.88-3.69-3.31-1.85-5.18-2.88-.56-5.9-.36-3.78-3.73-.67-5.84-1L427,185.7l-1.56-3.46-3.75.58-5.86.9-4.07-4.31-2.6-2.75Z" style="fill:#005596"/><path d="M400.54,260.25a31.72,31.72,0,1,1,31.72-31.72A31.76,31.76,0,0,1,400.54,260.25Z" style="fill:#fff"/><path d="M400.54,199.31a29.22,29.22,0,1,1-29.22,29.22,29.26,29.26,0,0,1,29.22-29.22m0-5a34.22,34.22,0,1,0,34.22,34.22,34.22,34.22,0,0,0-34.22-34.22Z" style="fill:#005596"/></svg>