<svg id="icon" xmlns="http://www.w3.org/2000/svg" viewBox="0 0 512 512"><path d="M490,255A234.77,234.77,0,0,1,330.41,477.37c-2,.68-4,1.32-6,1.94h0q-7.8,2.4-15.83,4.27c-2.79.65-5.6,1.24-8.42,1.79a234.72,234.72,0,0,1-40.85,4.24l-2.73,0h-1.25q-9.33,0-18.49-.72-8.21-.63-16.27-1.84c-2-.29-4-.62-6-1h0a232.51,232.51,0,0,1-27-6.41c-2.59-.78-5.17-1.61-7.72-2.47q-3.33-1.12-6.61-2.36a231.37,231.37,0,0,1-31.93-14.76q-3.34-1.86-6.61-3.84-4.48-2.67-8.84-5.56c-2.23-1.48-4.44-3-6.61-4.55A235.48,235.48,0,0,1,87.3,418.8q-3.37-3.46-6.61-7.07-7.44-8.3-14.09-17.27c-4.08-5.5-7.92-11.21-11.52-17.07-1.28-2.1-2.54-4.2-3.74-6.34h0a233,233,0,0,1-27.59-77.92c-1.21-7.38-2.08-14.88-2.56-22.47,0-.18,0-.37,0-.55-.2-3-.34-6.09-.4-9.15-.07-2-.09-4-.09-6a234.06,234.06,0,0,1,13.22-77.83c.13-.4.27-.8.42-1.19q2.63-7.34,5.71-14.43c.45-1,.91-2.06,1.37-3.09a234.76,234.76,0,0,1,427.07-1.8q3.74,8.07,6.85,16.46,2.1,5.6,3.89,11.32a232.72,232.72,0,0,1,9.92,50.19Q490,244.68,490,255Z" style="fill:#005596"/><path d="M240.2,238.16a57.46,57.46,0,0,1-63-51.31c-3.22-31.56,30.45-60.85,62-64.08,80.78-8.26,126.41,44.82,126.41,44.82a244.17,244.17,0,0,0-64.44,35.58C266.25,230.49,254.93,236.65,240.2,238.16Z" style="fill:#c1d82f"/><path d="M142.45,192.67a25.84,25.84,0,0,0,35-10.63c6.72-12.59-2.31-30.52-14.9-37.23-32.22-17.2-60.26-2.88-60.26-2.88A110,110,0,0,1,123,167.72C132.91,185,136.57,189.54,142.45,192.67Z" style="fill:#c1d82f"/><path d="M156.92,243.48a11,11,0,0,0,9.45-12.3c-.79-6-8.33-10-14.34-9.18a29.09,29.09,0,0,0-21.51,13.89,46.61,46.61,0,0,1,13.53,3.77C151.75,243.2,154.12,243.85,156.92,243.48Z" style="fill:#c1d82f"/><path d="M412.89,340.66c0,24.86-17.46,64.3-64.3,64.3v-9c40.28,0,55.3-33.92,55.3-55.3,0-5.36-.79-24.09-10.94-40.22-10.28-16.35-26.74-24.63-48.93-24.63-23.62,0-37.82,10.54-52.85,21.71-14.49,10.76-29.47,21.89-52.63,21.89-26.74,0-46.61-9.72-59-28.9-11-16.92-14.14-38.43-13.7-57.26a14.57,14.57,0,0,0-8.22-5A29.49,29.49,0,0,0,140.35,230a29.62,29.62,0,0,1,14-4.61,14.59,14.59,0,0,1,11.51,4.8c.72-16,3.93-29.61,7-36.38a.42.42,0,0,0,0-.1v0c2.22-9.93-1.3-22-8.28-29.35a69.67,69.67,0,0,0-35.42-20.25,69.93,69.93,0,0,1,33.24,10.41c8.9,5.44,15.55,16.77,15.58,27.22,9.9-19.7,31.69-35.51,53.19-39a155.12,155.12,0,0,1,77.15,6.56c-23.77-4-55.31-3.64-89.93,11.85-18.94,8.47-35.61,28.42-41.11,49.09h0c-4,19.64-5.05,52.62,9.72,75.41,10.67,16.45,28,24.79,51.49,24.79,20.18,0,33.34-9.77,47.26-20.11,15.55-11.55,31.63-23.49,58.22-23.49,25.13,0,44.68,10,56.55,28.83C412,313.82,412.89,334.69,412.89,340.66Z" style="fill:#fff"/><path d="M290.48,373.91h0a2.84,2.84,0,0,1,2.84,2.84v22.8a0,0,0,0,1,0,0h-5.68a0,0,0,0,1,0,0v-22.8a2.84,2.84,0,0,1,2.84-2.84Z" transform="translate(-96.26 677.21) rotate(-90)" style="fill:#fff"/><path d="M290.48,401.47h0a2.84,2.84,0,0,1,2.84,2.84v22.8a0,0,0,0,1,0,0h-5.68a0,0,0,0,1,0,0v-22.8A2.84,2.84,0,0,1,290.48,401.47Z" transform="translate(-123.82 704.77) rotate(-90)" style="fill:#fff"/><path d="M299.12,374.39H308v5.16h14.75a21,21,0,0,1,0,41.93H308v5.17h-8.92Z" style="fill:#c1d82f"/><rect x="338.16" y="393.35" width="14.33" height="14.33" rx="2.22" transform="translate(-55.19 745.84) rotate(-90)" style="fill:#c1d82f"/></svg>