<svg id="icon" xmlns="http://www.w3.org/2000/svg" viewBox="0 0 512 512"><path d="M256,487.17A231.17,231.17,0,0,1,92.54,92.54,231.17,231.17,0,1,1,419.46,419.46,229.66,229.66,0,0,1,256,487.17Z" style="fill:#fff"/><path d="M256,28.33a227.74,227.74,0,0,1,88.62,437.45A227.73,227.73,0,0,1,167.38,46.22,226.27,226.27,0,0,1,256,28.33m0-7C126.4,21.33,21.33,126.4,21.33,256S126.4,490.67,256,490.67,490.67,385.6,490.67,256,385.6,21.33,256,21.33Z" style="fill:#005596"/><path d="M415,324.87c-.09-.52-.19-1-.3-1.57-.43-2.12-.94-4.34-1.57-6.62-.32-1.14-.66-2.3-1-3.46a79.13,79.13,0,0,0-7.1-16.06c-.34-.59-.7-1.17-1.07-1.76-12.36-19.63-32.64-30-58.67-30A77.51,77.51,0,0,0,311.08,273c-1.19.57-2.36,1.16-3.5,1.76l-1.71.93c-1.69.94-3.33,1.93-4.95,2.94l-1.61,1c-1.06.7-2.11,1.4-3.14,2.1h0c-1,.72-2.06,1.44-3.07,2.16-2.55,1.82-5,3.67-7.52,5.51-2.13,1.58-4.23,3.14-6.35,4.65-.84.61-1.68,1.21-2.53,1.79-.43.3-.86.6-1.29.88-1.6,1.08-3.21,2.13-4.85,3.12-1.09.66-2.2,1.3-3.32,1.91q-2.52,1.38-5.16,2.54-2.11.93-4.33,1.71a53.64,53.64,0,0,1-18,3c-18.35,0-32.77-5.25-43-15.64q-1.77-1.8-3.37-3.8c-1.06-1.34-2.08-2.74-3-4.21-.56-.87-1.1-1.75-1.62-2.65s-.95-1.69-1.39-2.56-.81-1.63-1.2-2.46c-5.92-12.78-7.86-27.56-7.73-41,0-.38,0-.77,0-1.15,0-.56,0-1.12,0-1.67q0-1.44.12-2.85c.15-3,.39-5.84.71-8.58l.15-1.21.18-1.42c0-.19.05-.38.08-.57.06-.45.13-.9.2-1.34.17-1.14.35-2.25.55-3.32.08-.46.16-.91.25-1.36l.06-.33c.07-.38.15-.76.23-1.13s.19-.95.3-1.41a.19.19,0,0,0,0-.07c0-.25.1-.49.16-.74s.06-.29.1-.43,0-.24.08-.36.13-.52.19-.77a0,0,0,0,0,0,0l.18-.72v0c.07-.24.13-.48.19-.71.14-.53.28-1.05.43-1.54l.06-.21s0-.05,0-.07a57.44,57.44,0,0,0,58.67,34.57c14.73-1.51,26.06-7.67,61-35a244.34,244.34,0,0,1,64.44-35.58s-45.63-53.07-126.41-44.81c-26.53,2.71-53.34,23.42-59.55,48.79-.42-10.58-7.81-21.76-17.16-26.76C131.54,128.69,103.5,143,103.5,143a109.81,109.81,0,0,1,20.77,25.78c9.89,17.33,13.56,21.82,19.43,25a25.84,25.84,0,0,0,28.1-2.45,23.17,23.17,0,0,1-.34,3.38c-.18.44-.36.9-.54,1.37l-.47,1.3s0,0,0,0l-.3.89c0,.11-.08.22-.11.33l-.21.65-.21.68c-.14.47-.28.94-.42,1.44q-.1.36-.21.75l-.21.77-.21.8c-.05.2-.1.4-.16.61a.24.24,0,0,1,0,.08c-.08.32-.16.64-.23,1a.25.25,0,0,0,0,.07c-.18.74-.35,1.49-.52,2.27-.12.58-.25,1.18-.37,1.79,0,.22-.08.43-.13.65-.1.5-.19,1-.28,1.51-.75,4.15-1.35,8.69-1.75,13.48l0,0A15.79,15.79,0,0,0,153.9,222a29.86,29.86,0,0,0-22.28,14.41l-.68,1.31,1.48.14a46.54,46.54,0,0,1,13.22,3.7c6.49,3,9.38,4,12,4a11.83,11.83,0,0,0,7-2.38l.05,0c.54,13.37,3,27.37,8.56,39.79.18.42.38.84.57,1.26.33.7.67,1.4,1,2.09.17.35.35.7.54,1s.5,1,.77,1.43.43.77.65,1.15.59,1,.9,1.52.63,1,1,1.51c12.93,19.93,33.5,30,61.14,30a68,68,0,0,0,30.52-7.07c1.08-.53,2.15-1.08,3.19-1.64a113.79,113.79,0,0,0,10.56-6.54c.85-.58,1.68-1.17,2.52-1.76,1.25-.88,2.48-1.78,3.71-2.69s2.45-1.81,3.66-2.72c2.57-1.91,5.11-3.8,7.69-5.61l0,0c1-.72,2.06-1.43,3.1-2.13.53-.36,1.05-.71,1.58-1.05l0,0q1.39-.92,2.82-1.77c.47-.3.95-.58,1.44-.87l1.24-.72a71.48,71.48,0,0,1,12.68-5.73c1-.32,1.93-.62,2.92-.89a65.22,65.22,0,0,1,17.81-2.37c13.57,0,24.89,3.21,33.85,9.59.7.48,1.38,1,2.05,1.53a46.5,46.5,0,0,1,5.89,5.61c.73.82,1.43,1.67,2.11,2.55h0c.51.66,1,1.34,1.49,2s1,1.41,1.42,2.14c.61,1,1.18,1.95,1.72,2.94,8.16,14.85,8.83,31.09,8.83,35.95a52.57,52.57,0,0,1-1.58,12.46c-.17.73-.37,1.46-.58,2.19-.42,1.47-.91,2.95-1.46,4.43-.27.74-.56,1.47-.88,2.21h0c-.3.73-.63,1.46-1,2.19s-.7,1.46-1.08,2.19c-.76,1.44-1.58,2.87-2.49,4.27q-.33.53-.69,1.05c-.26.39-.53.78-.81,1.16s-.69,1-1.06,1.43c-.54.71-1.1,1.4-1.69,2.08s-1.19,1.35-1.82,2c-.33.35-.67.69-1,1s-.7.68-1.06,1h0c-1,.9-2,1.75-3,2.57-.36.28-.71.55-1.07.81-1.08.8-2.2,1.56-3.37,2.28-.4.24-.8.48-1.2.7q-1.2.69-2.46,1.32a54.25,54.25,0,0,1-24.48,5.38,2.5,2.5,0,0,0-2.5,2.5v9a2.5,2.5,0,0,0,2.5,2.5c27.38,0,45.09-13,55.35-28.9.57-.88,1.11-1.78,1.64-2.68l.77-1.36c.5-.91,1-1.83,1.44-2.75.23-.46.45-.92.67-1.38.43-.93.84-1.86,1.24-2.79.59-1.39,1.13-2.8,1.62-4.2.33-.93.63-1.87.92-2.8s.55-1.87.8-2.79.47-1.85.68-2.77.39-1.83.56-2.74.31-1.8.44-2.69a62.9,62.9,0,0,0,.67-8.95A95.66,95.66,0,0,0,415,324.87ZM393.36,386.4c-.52.53-1.06,1.06-1.6,1.57s-1.11,1-1.68,1.52-1.33,1.14-2,1.68c-.51.4-1,.8-1.56,1.19-.83.61-1.68,1.2-2.56,1.77-.52.34-1.06.68-1.6,1s-1.09.65-1.65.95l-.4.22c-1.09.6-2.21,1.16-3.37,1.69-1.5.69-3,1.32-4.65,1.89-.4.14-.8.29-1.21.42-1.22.41-2.48.78-3.76,1.11s-2.31.57-3.51.81-2.42.44-3.66.62q-.93.14-1.89.24-2.14.24-4.38.36l-1.51.07v-4c1.18,0,2.34-.11,3.47-.2s2.25-.22,3.35-.37c.55-.07,1.09-.15,1.63-.24.81-.14,1.6-.28,2.38-.44s1.55-.34,2.3-.52c1-.26,2-.53,3-.82s1.91-.62,2.84-1a51.39,51.39,0,0,0,5.34-2.3h0c.91-.46,1.79-.93,2.65-1.42s1.7-1,2.52-1.54q1.83-1.2,3.53-2.52h0a52.92,52.92,0,0,0,4.27-3.72c12.73-12.34,18-29.8,18-42.7a87.21,87.21,0,0,0-5.73-30.39c-.41-1.07-.86-2.13-1.34-3.2s-1-2.14-1.54-3.21q-1.23-2.4-2.71-4.75c-.67-1.07-1.37-2.11-2.09-3.11q-1.64-2.26-3.42-4.3c-.8-.9-1.62-1.77-2.47-2.61-10.58-10.48-25-15.78-43.07-15.78a70.31,70.31,0,0,0-20.34,2.85c-1.2.37-2.38.75-3.53,1.17h0A83.55,83.55,0,0,0,304,287.34c-3,1.93-5.85,4-8.73,6.09l-4.28,3.17c-1.77,1.32-3.55,2.64-5.35,3.94-.91.66-1.82,1.32-2.75,2s-1.8,1.27-2.72,1.88l0,0c-.91.62-1.84,1.23-2.77,1.82l0,0c-.95.61-1.9,1.2-2.87,1.76s-1.93,1.13-2.92,1.67a70.6,70.6,0,0,1-13.57,5.72c-.73.22-1.48.43-2.23.62a63,63,0,0,1-15.89,2c-21,0-37.58-6.17-49.46-18.36-.46-.46-.91-.94-1.36-1.43-.88-1-1.74-2-2.57-3q-1.87-2.35-3.55-4.94a70.87,70.87,0,0,1-5.59-10.55c-.46-1.05-.89-2.12-1.29-3.19-.2-.54-.4-1.08-.59-1.62s-.39-1.09-.56-1.63l-.45-1.38c-.2-.64-.39-1.28-.58-1.92-.32-1.11-.62-2.22-.9-3.34-.15-.56-.29-1.13-.41-1.69-.25-1.08-.49-2.17-.71-3.27s-.41-2.17-.59-3.23c-.13-.77-.25-1.55-.36-2.32-.07-.47-.14-.94-.2-1.4q-.47-3.4-.72-6.8c-.05-.63-.1-1.27-.13-1.9-.13-1.89-.2-3.77-.23-5.63,0-.49,0-1,0-1.46s0-.82,0-1.23c-.14-.19-.41-.66-.74-1.24a21.68,21.68,0,0,0-2.15-3.24,14,14,0,0,0-7-4A29.51,29.51,0,0,0,142.34,231a29.59,29.59,0,0,1,14-4.61,14.43,14.43,0,0,1,8.44,2.21,12.56,12.56,0,0,1,1.86,1.37c.28.25,1.35,1.2,2.17,2l.72.68a139.82,139.82,0,0,1,1.55-16.5,107.12,107.12,0,0,1,3.11-14.21,48.2,48.2,0,0,1,2-5.57l.08-.2c0-.08.07-.16.1-.23.2-.44.39-.87.59-1.3-.18-1.27-.77-5.24-1.1-7.48-1.16-8-4.93-16.39-10-21.71a69.62,69.62,0,0,0-35.43-20.25,69.78,69.78,0,0,1,33.24,10.41c7.28,4.44,13,12.83,14.93,21.44a65.29,65.29,0,0,1,1.48,7.58c.56-1.22,1.19-2.56,1.38-2.91,10-18.62,30.65-33.38,51.33-36.73a155.51,155.51,0,0,1,59.59,1.64c-24.89-1.37-49.44,3.29-73.22,13.92a83.65,83.65,0,0,0-34.95,30.4,49.59,49.59,0,0,0-3.68,6c-1.15,2.68-2.89,8.32-4,12a.19.19,0,0,0,0,.07c-.56,2.58-1.09,5.44-1.53,8.51l-.27,2-.18,1.42a1.1,1.1,0,0,0,0,.18c-.08.65-.16,1.3-.22,2s-.12,1.16-.17,1.75c-1.71,18.53-.23,42.15,10.31,60.48.55.95,1.13,1.9,1.73,2.83a56,56,0,0,0,7,8.77,48.9,48.9,0,0,0,4,3.72c10.77,8.93,25,13.43,42.55,13.43a58.8,58.8,0,0,0,19.33-3.16c1.05-.36,2.09-.75,3.1-1.16q2.28-.93,4.47-2c1.46-.71,2.89-1.48,4.3-2.29a174.8,174.8,0,0,0,17.56-12c2.86-2.12,5.74-4.26,8.7-6.33.88-.62,1.78-1.24,2.68-1.84,2.1-1.41,4.25-2.78,6.47-4.08,1.06-.61,2.13-1.21,3.22-1.79h0c.9-.48,1.81-.94,2.73-1.39.76-.37,1.53-.74,2.31-1.09l1.75-.76c1.17-.5,2.37-1,3.59-1.41l1.86-.64c1.25-.41,2.52-.8,3.83-1.15a74.66,74.66,0,0,1,19.57-2.5c18.92,0,34.55,5.84,45.91,17,.46.44.91.9,1.35,1.36s.66.7,1,1.06c.65.72,1.28,1.45,1.89,2.21a59.89,59.89,0,0,1,4.31,6q1,1.65,2,3.33c.62,1.11,1.19,2.23,1.73,3.36a75.59,75.59,0,0,1,3.44,8.41c.13.38.25.75.37,1.12s.23.71.34,1.05c.29.93.56,1.84.8,2.75.3,1.08.57,2.15.82,3.2s.47,2.05.66,3,.36,1.88.51,2.78a2.93,2.93,0,0,1,.05.29c.15.87.28,1.71.39,2.53s.24,1.86.34,2.73c.06.58.12,1.13.16,1.67.1,1,.17,1.92.22,2.77,0,.32,0,.64.05.94.08,1.54.1,2.8.1,3.71C411.64,355.2,406.25,373.27,393.36,386.4Z" style="fill:#005596"/><path d="M281.75,392.16a4.34,4.34,0,1,1,0-8.68h24.3v8.68Z" style="fill:#fff"/><path d="M304.55,385v5.68h-22.8a2.84,2.84,0,1,1,0-5.68h22.8m3-3h-25.8a5.84,5.84,0,1,0,0,11.68h25.8V382Z" style="fill:#005596"/><path d="M281.75,419.72a4.34,4.34,0,1,1,0-8.68h24.3v8.68Z" style="fill:#fff"/><path d="M304.55,412.54v5.68h-22.8a2.84,2.84,0,1,1,0-5.68h22.8m3-3h-25.8a5.84,5.84,0,1,0,0,11.68h25.8V409.54Z" style="fill:#005596"/><path d="M353.74,396.65v9.89a2.21,2.21,0,0,1-2.22,2.22h-7.77A21,21,0,0,1,324,422.57H309.29v5.16h-8.92V375.47h8.92v5.16H324a21,21,0,0,1,19.71,13.81h7.77A2.21,2.21,0,0,1,353.74,396.65Z" style="fill:#005596;stroke:#005596;stroke-miterlimit:10;stroke-width:4px"/><path d="M411.64,341.74c0,13.46-5.39,31.53-18.28,44.66-.52.53-1.06,1.06-1.6,1.57s-1.11,1-1.68,1.52-1.33,1.14-2,1.68c-.51.4-1,.8-1.56,1.19-.83.61-1.68,1.2-2.56,1.77-.52.34-1.06.68-1.6,1s-1.09.65-1.65.95l-.4.22c-1.09.6-2.21,1.16-3.37,1.69-1.5.69-3,1.32-4.65,1.89-.4.14-.8.29-1.21.42-1.22.41-2.48.78-3.76,1.11s-2.31.57-3.51.81-2.42.44-3.66.62q-.93.14-1.89.24-2.14.24-4.38.36l-1.51.07v-4c1.18,0,2.34-.11,3.47-.2s2.25-.22,3.35-.37c.55-.07,1.09-.15,1.63-.24.81-.14,1.6-.28,2.38-.44s1.55-.34,2.3-.52c1-.26,2-.53,3-.82s1.91-.62,2.84-1a51.39,51.39,0,0,0,5.34-2.3h0c.91-.46,1.79-.93,2.65-1.42s1.7-1,2.52-1.54q1.83-1.2,3.53-2.52h0a52.92,52.92,0,0,0,4.27-3.72c12.73-12.34,18-29.8,18-42.7a87.21,87.21,0,0,0-5.73-30.39c-.41-1.07-.86-2.13-1.34-3.2s-1-2.14-1.54-3.21q-1.23-2.4-2.71-4.75c-.67-1.07-1.37-2.11-2.09-3.11q-1.64-2.26-3.42-4.3c-.8-.9-1.62-1.77-2.47-2.61-10.58-10.48-25-15.78-43.07-15.78a70.31,70.31,0,0,0-20.34,2.85c-1.2.37-2.38.75-3.53,1.17h0A83.55,83.55,0,0,0,304,287.34c-3,1.93-5.85,4-8.73,6.09l-4.28,3.17c-1.77,1.32-3.55,2.64-5.35,3.94-.91.66-1.82,1.32-2.75,2s-1.8,1.27-2.72,1.88l0,0c-.91.62-1.84,1.23-2.77,1.82l0,0c-.95.61-1.9,1.2-2.87,1.76s-1.93,1.13-2.92,1.67a70.6,70.6,0,0,1-13.57,5.72c-.73.22-1.48.43-2.23.62a63,63,0,0,1-15.89,2c-21,0-37.58-6.17-49.46-18.36-.46-.46-.91-.94-1.36-1.43-.88-1-1.74-2-2.57-3q-1.87-2.35-3.55-4.94a70.87,70.87,0,0,1-5.59-10.55c-.46-1.05-.89-2.12-1.29-3.19-.2-.54-.4-1.08-.59-1.62s-.39-1.09-.56-1.63l-.45-1.38c-.2-.64-.39-1.28-.58-1.92-.32-1.11-.62-2.22-.9-3.34-.15-.56-.29-1.13-.41-1.69-.25-1.08-.49-2.17-.71-3.27s-.41-2.17-.59-3.23c-.13-.77-.25-1.55-.36-2.32-.07-.47-.14-.94-.2-1.4q-.47-3.4-.72-6.8c-.05-.63-.1-1.27-.13-1.9-.13-1.89-.2-3.77-.23-5.63,0-.49,0-1,0-1.46s0-.82,0-1.23c-.14-.19-.41-.66-.74-1.24a21.68,21.68,0,0,0-2.15-3.24,14,14,0,0,0-7-4A29.51,29.51,0,0,0,142.34,231a29.59,29.59,0,0,1,14-4.61,14.43,14.43,0,0,1,8.44,2.21,12.56,12.56,0,0,1,1.86,1.37c.28.25,1.35,1.2,2.17,2l.72.68a139.82,139.82,0,0,1,1.55-16.5,107.12,107.12,0,0,1,3.11-14.21,48.2,48.2,0,0,1,2-5.57l.08-.2c0-.08.07-.16.1-.23.2-.44.39-.87.59-1.3-.18-1.27-.77-5.24-1.1-7.48-1.16-8-4.93-16.39-10-21.71a69.62,69.62,0,0,0-35.43-20.25,69.78,69.78,0,0,1,33.24,10.41c7.28,4.44,13,12.83,14.93,21.44a65.29,65.29,0,0,1,1.48,7.58c.56-1.22,1.19-2.56,1.38-2.91,10-18.62,30.65-33.38,51.33-36.73a155.51,155.51,0,0,1,59.59,1.64c-24.89-1.37-49.44,3.29-73.22,13.92a83.65,83.65,0,0,0-34.95,30.4,49.59,49.59,0,0,0-3.68,6c-1.15,2.68-2.89,8.32-4,12a.19.19,0,0,0,0,.07c-.56,2.58-1.09,5.44-1.53,8.51l-.27,2-.18,1.42a1.1,1.1,0,0,0,0,.18c-.08.65-.16,1.3-.22,2s-.12,1.16-.17,1.75c-1.71,18.53-.23,42.15,10.31,60.48.55.95,1.13,1.9,1.73,2.83a56,56,0,0,0,7,8.77,48.9,48.9,0,0,0,4,3.72c10.77,8.93,25,13.43,42.55,13.43a58.8,58.8,0,0,0,19.33-3.16c1.05-.36,2.09-.75,3.1-1.16q2.28-.93,4.47-2c1.46-.71,2.89-1.48,4.3-2.29a174.8,174.8,0,0,0,17.56-12c2.86-2.12,5.74-4.26,8.7-6.33.88-.62,1.78-1.24,2.68-1.84,2.1-1.41,4.25-2.78,6.47-4.08,1.06-.61,2.13-1.21,3.22-1.79h0c.9-.48,1.81-.94,2.73-1.39.76-.37,1.53-.74,2.31-1.09l1.75-.76c1.17-.5,2.37-1,3.59-1.41l1.86-.64c1.25-.41,2.52-.8,3.83-1.15a74.66,74.66,0,0,1,19.57-2.5c18.92,0,34.55,5.84,45.91,17,.46.44.91.9,1.35,1.36s.66.7,1,1.06c.65.72,1.28,1.45,1.89,2.21a59.89,59.89,0,0,1,4.31,6q1,1.65,2,3.33c.62,1.11,1.19,2.23,1.73,3.36a75.59,75.59,0,0,1,3.44,8.41c.13.38.25.75.37,1.12s.23.71.34,1.05c.29.93.56,1.84.8,2.75.3,1.08.57,2.15.82,3.2s.47,2.05.66,3,.36,1.88.51,2.78a2.93,2.93,0,0,1,.05.29c.15.87.28,1.71.39,2.53s.24,1.86.34,2.73c.06.58.12,1.13.16,1.67.1,1,.17,1.92.22,2.77,0,.32,0,.64.05.94C411.62,339.57,411.64,340.83,411.64,341.74Z" style="fill:#fff"/></svg>