<svg xmlns="http://www.w3.org/2000/svg" xmlns:xlink="http://www.w3.org/1999/xlink" viewBox="0 0 646.54 591.75"><defs><clipPath id="clip-path"><circle cx="234.67" cy="234.67" r="234.67" style="fill:none"/></clipPath></defs><g id="Layer_2" data-name="Layer 2"><g id="icon"><circle cx="234.67" cy="234.67" r="234.67" style="fill:#005696"/><g style="clip-path:url(#clip-path)"><path d="M123.45,135.55V394a6.65,6.65,0,0,0,6.81,6.47H634.57a290.41,290.41,0,0,0,12-82.66c0-71.31-25.83-136.88-69.08-188.76H130.26A6.64,6.64,0,0,0,123.45,135.55Z" style="fill:#c1d730"/><line x1="357.65" y1="203.85" x2="549.67" y2="203.85" style="fill:none;stroke:#005696;stroke-linecap:round;stroke-miterlimit:10;stroke-width:5px"/><line x1="313.33" y1="165.6" x2="549.67" y2="165.6" style="fill:none;stroke:#005696;stroke-linecap:round;stroke-miterlimit:10;stroke-width:5px"/><line x1="549.67" y1="241.65" x2="431.5" y2="241.65" style="fill:none;stroke:#005696;stroke-linecap:round;stroke-miterlimit:10;stroke-width:5px"/><path d="M274.27,589.25a23.18,23.18,0,0,1-23.15-23.15V423.34H236.91V566.1a23.15,23.15,0,0,1-46.3,0V365.53a23.44,23.44,0,0,1-6.71,1,23,23,0,0,1-16.36-6.77l-37.39-37.4a29.62,29.62,0,0,1,0-41.9l32-32a36.87,36.87,0,0,1,26.24-10.87h29.39a49.07,49.07,0,1,1,52.45,0h21.29l.39,0h42.94V201.33a23.15,23.15,0,0,1,46.3,0v52.88a29.66,29.66,0,0,1-29.63,29.63H297.42V566.1A23.18,23.18,0,0,1,274.27,589.25Zm-83.66-271.9V285.46L174.67,301.4Z" style="fill:#fff"/><path d="M244,149.52a46.57,46.57,0,0,1,15.32,90.55h32.58v0h45.44V201.33a20.65,20.65,0,0,1,41.3,0v52.88a27.13,27.13,0,0,1-27.13,27.13H294.92V566.1a20.65,20.65,0,0,1-41.3,0V420.84H234.41V566.1a20.65,20.65,0,0,1-41.3,0V361.86a20.67,20.67,0,0,1-23.8-3.88l-27.37-27.37-10-10a27.12,27.12,0,0,1,0-38.37l32-32a34.61,34.61,0,0,1,24.47-10.14h40.29A46.57,46.57,0,0,1,244,149.52M193.11,323.38V279.43l-22,22,22,22M244,144.52a51.57,51.57,0,0,0-33.77,90.55H188.4a39.33,39.33,0,0,0-28,11.6l-32,32a32.15,32.15,0,0,0,0,45.43l10,10,27.37,27.37A25.43,25.43,0,0,0,183.9,369a25.81,25.81,0,0,0,4.21-.35V566.1a25.65,25.65,0,0,0,51.3,0V425.84h9.21V566.1a25.65,25.65,0,0,0,51.3,0V286.34h51.61a32.17,32.17,0,0,0,32.13-32.13V201.33a25.65,25.65,0,0,0-51.3,0V235H291.92a5.12,5.12,0,0,0-.56,0H277.78A51.57,51.57,0,0,0,244,144.52ZM178.21,301.4l9.9-9.9v19.81l-9.9-9.91Z" style="fill:#005696"/><path d="M167.21,196.52a5.16,5.16,0,0,1-3.68-1.53l-31.15-31.16H60.78a10.36,10.36,0,0,1-10.35-10.35V84.65A10.36,10.36,0,0,1,60.78,74.3H182.25a10.37,10.37,0,0,1,10.36,10.35v68.83a10.37,10.37,0,0,1-10.36,10.35h-9.82V191.3a5.15,5.15,0,0,1-1.64,3.81,5.24,5.24,0,0,1-3.58,1.41Z" style="fill:#fff"/><path d="M182.25,77.8a6.85,6.85,0,0,1,6.86,6.85v68.83a6.86,6.86,0,0,1-6.86,6.85H168.93v31a1.71,1.71,0,0,1-2.92,1.22l-31.68-31.69a1.72,1.72,0,0,0-1.21-.5H60.78a6.85,6.85,0,0,1-6.85-6.85V84.65a6.85,6.85,0,0,1,6.85-6.85H182.25m0-7H60.78A13.86,13.86,0,0,0,46.93,84.65v68.83a13.86,13.86,0,0,0,13.85,13.85h70.15l30.13,30.14a8.71,8.71,0,0,0,14.87-6.17v-24h6.32a13.87,13.87,0,0,0,13.86-13.85V84.65A13.87,13.87,0,0,0,182.25,70.8Z" style="fill:#005696"/><path d="M152.51,134.11c-9.37,5.35-18.88,8.66-30.75,8.66-11.71,0-20.92-4.51-30.4-8.42.61-1.74,1.37-11.85,2.26-13.44l28.8,9.11a1.12,1.12,0,0,0,.7,0l27.35-7.66C151.26,123.79,152,132.54,152.51,134.11Z" style="fill:#c1d730;stroke:#c1d730;stroke-linejoin:round;stroke-width:6px"/><path d="M122.76,129.67a3.86,3.86,0,0,1-1.26-.2l-47.17-14.9a4.15,4.15,0,0,1,0-7.91L120.14,91.8a4,4,0,0,1,1.28-.2,4.26,4.26,0,0,1,1.23.18l47.21,14.93a4.15,4.15,0,0,1,0,7.9l-45.84,14.86A4.34,4.34,0,0,1,122.76,129.67Z" style="fill:#c1d730"/><path d="M121.42,94.6a1.06,1.06,0,0,1,.35.05l43.11,13.63,4.08,1.29a1.14,1.14,0,0,1,0,2.18l-7.66,2.49-10.83,3.51-27.35,8.87a1.34,1.34,0,0,1-.35,0,1.06,1.06,0,0,1-.35,0l-28.8-9.1-11.74-3.71-6.65-2.1a1.15,1.15,0,0,1,0-2.19l3.45-1.12,42.39-13.75a1.34,1.34,0,0,1,.35-.05m0-6a7.12,7.12,0,0,0-2.2.34L76.83,102.69l-3.46,1.12a7.15,7.15,0,0,0,0,13.62l6.65,2.1,11.74,3.71,28.81,9.1a7.13,7.13,0,0,0,4.35,0l27.35-8.86L163.15,120l7.66-2.49a7.14,7.14,0,0,0,0-13.61l-4.08-1.29L123.57,88.93a7,7,0,0,0-2.15-.33Z" style="fill:#fff"/><polyline points="119.68 110.64 93.62 120.91 89.59 145.68" style="fill:none;stroke:#005696;stroke-linecap:round;stroke-linejoin:round;stroke-width:6px"/></g></g></g></svg>