<svg xmlns="http://www.w3.org/2000/svg" xmlns:xlink="http://www.w3.org/1999/xlink" viewBox="0 0 650.61 586.78"><defs><clipPath id="clip-path"><circle cx="235.24" cy="234.7" r="234.67" style="fill:none"/></clipPath></defs><g id="Layer_2" data-name="Layer 2"><g id="icon"><path d="M234.67,465.83A231.16,231.16,0,0,1,71.21,71.21,231.17,231.17,0,0,1,398.13,398.13,229.68,229.68,0,0,1,234.67,465.83Z" style="fill:#fff"/><path d="M234.67,7a227.73,227.73,0,0,1,88.61,437.45A227.73,227.73,0,0,1,146.05,24.89,226.23,226.23,0,0,1,234.67,7m0-7C105.06,0,0,105.06,0,234.67S105.06,469.33,234.67,469.33,469.33,364.27,469.33,234.67,364.27,0,234.67,0Z" style="fill:#005696"/><g style="clip-path:url(#clip-path)"><path d="M124,165.07v229a6.65,6.65,0,0,0,6.82,6.47h504.3a290.36,290.36,0,0,0,12-82.66c0-71.31-25.83-136.88-69.08-188.76H193" style="fill:none;stroke:#005696;stroke-miterlimit:10;stroke-width:7px"/><line x1="358.23" y1="203.89" x2="550.25" y2="203.89" style="fill:none;stroke:#005696;stroke-linecap:round;stroke-miterlimit:10;stroke-width:7px"/><line x1="313.91" y1="165.64" x2="550.25" y2="165.64" style="fill:none;stroke:#005696;stroke-linecap:round;stroke-miterlimit:10;stroke-width:7px"/><line x1="550.25" y1="241.68" x2="432.08" y2="241.68" style="fill:none;stroke:#005696;stroke-linecap:round;stroke-miterlimit:10;stroke-width:7px"/><path d="M358.58,180.72h0a20.65,20.65,0,0,0-20.65,20.65v38.7H292.49v0H259.92a46.57,46.57,0,1,0-30.66,0H189a34.62,34.62,0,0,0-24.48,10.13l-32,32a27.13,27.13,0,0,0,0,38.36l10,10L169.88,358a20.66,20.66,0,0,0,23.81,3.88V566.13a20.64,20.64,0,0,0,20.65,20.65h0A20.64,20.64,0,0,0,235,566.13V420.87h19.21V566.13a20.65,20.65,0,0,0,20.65,20.65h0a20.64,20.64,0,0,0,20.65-20.65V281.37H352.1a27.12,27.12,0,0,0,27.13-27.13V201.37A20.64,20.64,0,0,0,358.58,180.72ZM171.71,301.44l22-22v44Z" style="fill:#005696"/><path d="M167.78,196.56A5.19,5.19,0,0,1,164.1,195L133,163.87H61.36A10.37,10.37,0,0,1,51,153.51V84.68A10.37,10.37,0,0,1,61.36,74.33H182.82a10.37,10.37,0,0,1,10.36,10.35v68.83a10.37,10.37,0,0,1-10.36,10.36H173v27.47a5.15,5.15,0,0,1-1.65,3.8,5.24,5.24,0,0,1-3.58,1.42Z" style="fill:#005696"/><path d="M182.82,77.83a6.86,6.86,0,0,1,6.86,6.85v68.83a6.86,6.86,0,0,1-6.86,6.86H169.51v31a1.72,1.72,0,0,1-1.73,1.72,1.68,1.68,0,0,1-1.2-.51L134.9,160.87a1.72,1.72,0,0,0-1.21-.5H61.36a6.86,6.86,0,0,1-6.86-6.86V84.68a6.86,6.86,0,0,1,6.86-6.85H182.82m0-7H61.36A13.87,13.87,0,0,0,47.5,84.68v68.83a13.88,13.88,0,0,0,13.86,13.86H131.5l30.13,30.13a8.64,8.64,0,0,0,6.15,2.56,8.74,8.74,0,0,0,8.73-8.72v-24h6.31a13.88,13.88,0,0,0,13.86-13.86V84.68a13.87,13.87,0,0,0-13.86-13.85Z" style="fill:#005696"/><path d="M152.08,134.71c-9.24,5.28-18.62,8.54-30.32,8.54-11.54,0-20.63-4.44-30-8.3.6-1.72,1.35-11.68,2.22-13.25l28.4,9a1.09,1.09,0,0,0,.69,0l27-7.55C150.85,124.54,151.52,133.17,152.08,134.71Z" style="fill:none;stroke:#fff;stroke-linejoin:round;stroke-width:6px"/><path d="M121.43,95.75a1.06,1.06,0,0,1,.34.06l42.51,13.43,4,1.27a1.13,1.13,0,0,1,0,2.16l-7.55,2.45-10.68,3.46-27,8.74a1,1,0,0,1-.35.06,1.33,1.33,0,0,1-.34,0l-28.4-9-11.57-3.66-6.55-2.07a1.13,1.13,0,0,1,0-2.15l3.4-1.11,41.8-13.55a1,1,0,0,1,.35-.06m0-6a7.13,7.13,0,0,0-2.2.35l-41.8,13.55L74,104.76a7.13,7.13,0,0,0,0,13.58l6.56,2.07,11.57,3.66,28.41,9a6.89,6.89,0,0,0,2.14.33A7.13,7.13,0,0,0,125,133l27-8.74,10.68-3.46,7.55-2.45a7.13,7.13,0,0,0,0-13.59l-4-1.27L123.57,90.08a7.28,7.28,0,0,0-2.14-.33Z" style="fill:#fff"/><polyline points="119.71 111.57 93.79 121.7 89.79 146.12" style="fill:none;stroke:#fff;stroke-linecap:round;stroke-miterlimit:10;stroke-width:6px"/></g></g></g></svg>