<svg id="icon" xmlns="http://www.w3.org/2000/svg" viewBox="0 0 512 512"><path d="M256,487.17c-3.56,0-7.22-.09-10.87-.26H245a230.54,230.54,0,0,1-59.76-10.75c-2.58-.83-5.22-1.73-7.84-2.68-3.13-1.12-6.25-2.33-9.26-3.57-1.29-.53-2.57-1.07-3.84-1.63a231.57,231.57,0,0,1-96-77.33c-.93-1.29-1.93-2.68-2.9-4.11-.62-.89-1.2-1.76-1.78-2.62a232.27,232.27,0,0,1-19.34-35.27c-.32-.72-.63-1.43-.93-2.14-.66-1.53-1.32-3.14-2-4.78v0l-.26-.65c-.32-.78-.63-1.56-.93-2.35-.78-2-1.52-4-2.23-6l-.14-.42A231.24,231.24,0,1,1,261.32,487.1C259.64,487.14,257.91,487.17,256,487.17Z" style="fill:#fff"/><path d="M256,28.33A227.67,227.67,0,0,1,418.69,415.26,226.3,226.3,0,0,1,261.2,483.6c-1.62,0-3.32.07-5.19.07-3.51,0-7.11-.09-10.72-.26h-.17a227,227,0,0,1-58.76-10.58c-2.55-.82-5.15-1.71-7.74-2.64-3.08-1.11-6.14-2.29-9.11-3.52-1.26-.52-2.53-1.05-3.79-1.6A228.23,228.23,0,0,1,71.13,388.9c-.92-1.27-1.89-2.64-2.85-4l0,0v0c-.59-.85-1.16-1.7-1.72-2.54A227.39,227.39,0,0,1,47.46,347.5c-.31-.69-.61-1.39-.9-2.07-.57-1.33-1.13-2.68-1.7-4.09v0L44.35,340c-.33-.8-.62-1.55-.91-2.31-.69-1.78-1.35-3.57-2-5.33l-.35-1A227.6,227.6,0,0,1,256,28.33m0-7C126.4,21.33,21.34,126.39,21.34,256a234.16,234.16,0,0,0,13.17,77.7h0q1.16,3.29,2.4,6.52c.31.82.62,1.63,1,2.44h0c.73,1.86,1.48,3.68,2.26,5.5.31.72.62,1.44,1,2.17a234.26,234.26,0,0,0,19.64,35.8c.58.89,1.18,1.76,1.78,2.64,1,1.42,2,2.81,3,4.19a235.33,235.33,0,0,0,97.5,78.5c1.28.56,2.58,1.12,3.89,1.66q4.66,1.92,9.42,3.62,3.94,1.42,8,2.72A233,233,0,0,0,245,490.4h0q5.47.27,11,.27c1.79,0,3.6,0,5.39-.07C388.51,487.75,490.67,383.8,490.67,256,490.67,126.39,385.61,21.33,256,21.33Z" style="fill:#005596"/><path d="M331.07,91.3a15.33,15.33,0,0,0,0-1.91C330,76,310.63,78.86,300.66,80c-10.1,1.55-19.45,4.62-26.31,8.64C272,90,251.26,102.76,226.52,118.06l-105.85-6L120,112l-.7.19c-8.11,2.17-24.77,6.58-32.89,8.75l94.15,25.6-34,21.05-22.89-15.27L122,151.2l-15.47,3.47,11.91,22.77L99,171.74l-1.41-.41L79.2,177.89l30.05,16c-2.39,3.39-1,7.24,2.09,9.58,6.17,4.68,14.75,3.64,22,2.61l21.58,18.19c.36-4.73,1-12.84,1.34-17.54-.62-.88-3.2-4.6-3.86-5.55,11.4-3.67,19.89-8.62,30.56-13.74C198,180,214.4,171.92,230.2,164l99.45,32.41-5.52-20.5L323,175l-44.51-35.45C299.19,128.53,326,116,331.07,91.3Zm-67.94,9.46c11.25-7.26,22.19-13.94,35.56-15.89l-14.16,7.7,3,5.42,26.64-14.5a40.57,40.57,0,0,1,5.41.47l-66,35.64-19.17-1.1Zm-149.87,57L121.1,156l25.31,16.88,40.07-24.8L196,150.7l-59.39,32.06-12.09-3.55ZM310.2,115.1l-.8.64-.22.17-.21.16-.45.35-.47.36c-.32.25-.65.49-1,.75q-3.41,2.56-7,4.84l-.4.26-.57.36-.17.11c-3.38,2.14-6.86,4.13-10.37,6.05l-.25.14c-2.65,1.45-5.32,2.85-8,4.23q-1.47.78-2.94,1.53l-.75.39-.76.39-.07,0-1.21.63,0,0-.12.06-1.28.66-.88.46-1,.53h0l-1,.53,3.87,3.09,46.09,36.7,3,11L236,161.15l-6.12-2-1.49.75-1.51.75-1.49.75c-.14.07-.28.13-.42.21l-7.7,3.84-.38.18a3.14,3.14,0,0,1-.37.18l-1.46.73-.32.16-1.26.63-1.31.65-1.17.58-.62.31-1.05.52-1.4.7-1.66.82-1.12.55-.23.12-1.14.57-.68.33-.68.34-1.34.66-2,1-1.13.56-.81.4-.38.18-.59.3-2.8,1.38-1.66.82-.87.43-.42.21-.25.13-2.53,1.24-1.28.63-2.16,1.07-.53.26-.52.26-.25.12-.75.37-.12.06-.55.28-.27.13-.33.16-.66.33h0l-.39.19-.22.1-.08,0-.21.1,0,0s0,0,0,0l-.24.11-1.15.58-1.2.59-1,.48-.68.33-2.12,1h0l-.65.32-.24.12-1,.47-.82.4-.18.09-.07,0-.35.18-.56.27c-.14.07-.28.13-.4.2l-.52.25,0,0-.08,0-.31.15s0,0,0,0l-.44.21-.06,0-.1,0,0,0-.06,0h-.09l-.36.19-.38.2c-.19.11-.4.21-.61.32l-.44.22-.5.24-1.08.51-.12.06,0,0-.51.23-.48.21,0,0h0l-.11,0-.43.19-.57.25h0l0,0-.2.08-.92.39-.61.25-.22.09-1.38.55c-.47.19-1,.37-1.44.55l-1.24.47-1,.35-.27.09-.19.07-.36.13-1.9.66-.86.29-.31.09-.91.31-.26.08-1.39.43-.51.16h0l-.32.1-.77.23h0l-.49.15-.35.1,2.72,3.91,2.7,3.87.73,1.05.31.45-.54,7.13-.67-.56L139,205l-4.39-3.71-.13,0-.38.07-.44.08h-.06l-.3,0-.32.06h-.09l-.31,0h0l-.61.1-.18,0-.28,0-.62.09-.11,0-.73.09-.36.05h-.17l-.22,0-.23,0-.54.06-.37,0-.4,0-.18,0-.8.06h-.24l-.42,0h-.26l-.59,0-1.35,0h-1.15l-.32,0-.39,0-.43,0-.21,0h-.1a2.85,2.85,0,0,1-.41,0h-.26l-.22,0-.21,0-.23,0-.46-.07h0l-.25,0a8.11,8.11,0,0,1-1.39-.31h0l-.21-.06a2.73,2.73,0,0,1-1.3-.86l0,0a1.44,1.44,0,0,1-.19-1.21,0,0,0,0,0,0,0c0-.06,0-.13.07-.2a.36.36,0,0,1,0-.11l.06-.14a.43.43,0,0,1,.11-.17,5.47,5.47,0,0,1,1-.71l.44-.25c.78-.46,1.73-1,2.55-1.37l1-.54c.37-.19.63-.33.73-.4l-5.65-3-4.25-2.27L90.35,178.71l7.42-2.64L121.35,183l1.83.54,2.94.86,1.17.34,3.93,1.16,5.86,1.72.26-.14,23-12.41,4-2.15L208,149.3l-16.31-4.43-6-1.62-82-22.3,16.67-4.44,40,2.29,7.35.42,52.06,3,7.87.46,8.81.5,1.93.11,16.16.92L325.12,86.1a6,6,0,0,1,1.46,4.21.38.38,0,0,1,0,.15c0,.12,0,.24,0,.36s0,.41-.06.62c-.37,3.45-2.44,7.69-5.42,11.9-.14.22-.3.44-.46.66l-.86,1.14a65.08,65.08,0,0,1-8.75,9.28Z" style="fill:#005596;stroke:#005596;stroke-miterlimit:10;stroke-width:0.25px"/><path d="M196,150.7l-59.39,32.06-12.09-3.55-11.21-21.42L121.1,156l25.31,16.88,40.07-24.8Z" style="fill:#fff"/><path d="M319.53,84l-66,35.64-19.17-1.1,28.74-17.74c11.25-7.26,22.19-13.94,35.56-15.89l-14.16,7.7,3,5.42,26.64-14.5A40.57,40.57,0,0,1,319.53,84Z" style="fill:#fff"/><path d="M229.42,442.82c-1-1.43-1.84-2.55-2.4-3.26l-.57-.71c-1.38-1.72-2.77-3.39-4.19-5-.63-.72-1.26-1.42-1.89-2.12s-1.14-1.24-1.72-1.85a143.57,143.57,0,0,0-27.16-22.46q-4.19-2.67-8.72-5-4.14-2.15-8.62-4-4.23-1.76-8.78-3.25-6.47-2.13-13.63-3.78L150,391l-1-.23-2.22-.46L145,390l-.93-.18-.58-.11-1.81-.31c-.7-.12-.6.25.11.87a11.76,11.76,0,0,0,1.47,1.08,31.14,31.14,0,0,0,9.17,3.83q6,1.44,11.53,3.25t10.55,4a105.52,105.52,0,0,1,15,8,98,98,0,0,1,22.21,19.5c.51.61,1,1.22,1.53,1.85s1.12,1.4,1.67,2.12c1.24,1.62,2.45,3.28,3.63,5,.17.23.33.47.49.71.72,1.07,1.43,2.15,2.13,3.26q2.35,3.72,4.56,7.78H161.4q-2.66-4.05-5.44-7.78c-.82-1.11-1.66-2.19-2.5-3.26l-.57-.71c-1.37-1.72-2.77-3.39-4.18-5-.63-.72-1.26-1.42-1.89-2.12s-1.15-1.24-1.73-1.85c-1.44-1.54-2.91-3-4.39-4.45-.41-.41-.82-.8-1.24-1.2-3.26-3.08-3.55,1.3-1.19,5.38a13,13,0,0,0,1.19,1.73l.32.39c.56.7,1.11,1.4,1.66,2.12.37.48.73,1,1.09,1.45.86,1.16,1.71,2.34,2.54,3.56.17.23.33.47.49.71.72,1.06,1.43,2.15,2.13,3.26a153,153,0,0,1,9.91,18.53c1,.51,2.09,1,3.14,1.48q2.47,1.16,5,2.23l2,.83,1.83.77,1.4.57q-2.24-4.5-4.64-8.68h63.59c.48,1,2.71,5.86,5.19,11.3H177.72l.9.33c1.87.67,3.75,1.32,5.61,1.94l2.13.7c3,1,6,1.87,9.1,2.7s5.95,1.58,8.95,2.27h34.24c.91,2,1.76,3.87,2.44,5.39l2.56.14,1.47.08h.17c2.94.14,5.86.22,8.74.25h2.69C250.68,474,236,452,229.42,442.82Zm-62.57,30.31-2-.81,2,.82c1.34.55,2.68,1.09,4,1.6C169.52,474.22,168.18,473.69,166.85,473.13Z" style="fill:#fff"/><path d="M237.12,468.91c-1.7-3.72-4.63-10.14-5.22-11.35a2.27,2.27,0,0,0-2-1.28H166.27a2.27,2.27,0,0,0-2,3.4q1.74,3,3.38,6.21l1.83.77,1.4.57c2.23.91,4.52,1.79,6.81,2.62l.9.33c1.87.67,3.75,1.32,5.61,1.94h50.82a2.27,2.27,0,0,0,2.07-3.21Zm-63.5-1.33c-1.12-2.29-2.29-4.55-3.48-6.76h58.28c.64,1.38,1.7,3.69,3.1,6.76Zm63.5,1.33c-1.7-3.72-4.63-10.14-5.22-11.35a2.27,2.27,0,0,0-2-1.28H166.27a2.27,2.27,0,0,0-2,3.4q1.74,3,3.38,6.21l1.83.77,1.4.57c2.23.91,4.52,1.79,6.81,2.62l.9.33c1.87.67,3.75,1.32,5.61,1.94h50.82a2.27,2.27,0,0,0,2.07-3.21Zm-63.5-1.33c-1.12-2.29-2.29-4.55-3.48-6.76h58.28c.64,1.38,1.7,3.69,3.1,6.76Zm54.18-18.06c-1.24-2.29-2.54-4.53-3.88-6.7-.83-1.35-1.68-2.68-2.55-4l-.37-.56c-1-1.51-2.08-3-3.16-4.45-.9-1.21-1.81-2.4-2.74-3.55l-.35-.42H211.8c.51.61,1,1.22,1.53,1.85s1.12,1.4,1.67,2.12h-2.89c1.29,1.62,2.55,3.29,3.76,5,.46.65.92,1.31,1.37,2l1.32,2q1.74,2.67,3.37,5.51H162.62c-1.24-1.86-2.52-3.71-3.84-5.51q-1.47-2-3-4l-.54-.7q-1.71-2.16-3.54-4.31h-3c-.63-.72-1.26-1.42-1.89-2.12s-1.15-1.24-1.73-1.85H142c1.1,1.12,2.17,2.25,3.19,3.38.18.19.35.39.52.59,1.48,1.64,2.92,3.32,4.31,5,.58.7,1.15,1.41,1.71,2.12s1,1.23,1.43,1.85c2.23,2.91,4.37,5.93,6.39,9a2.27,2.27,0,0,0,1.9,1h64.41a2.27,2.27,0,0,0,1.95-1.11A2.24,2.24,0,0,0,227.8,449.52Zm9.32,19.39c-1.7-3.72-4.63-10.14-5.22-11.35a2.27,2.27,0,0,0-2-1.28H166.27a2.27,2.27,0,0,0-2,3.4q1.74,3,3.38,6.21l1.83.77,1.4.57c2.23.91,4.52,1.79,6.81,2.62l.9.33c1.87.67,3.75,1.32,5.61,1.94h50.82a2.27,2.27,0,0,0,2.07-3.21Zm-63.5-1.33c-1.12-2.29-2.29-4.55-3.48-6.76h58.28c.64,1.38,1.7,3.69,3.1,6.76Zm63.5,1.33c-1.7-3.72-4.63-10.14-5.22-11.35a2.27,2.27,0,0,0-2-1.28H166.27a2.27,2.27,0,0,0-2,3.4q1.74,3,3.38,6.21l1.83.77,1.4.57c2.23.91,4.52,1.79,6.81,2.62l.9.33c1.87.67,3.75,1.32,5.61,1.94h50.82a2.27,2.27,0,0,0,2.07-3.21Zm-63.5-1.33c-1.12-2.29-2.29-4.55-3.48-6.76h58.28c.64,1.38,1.7,3.69,3.1,6.76Zm54.18-18.06c-1.24-2.29-2.54-4.53-3.88-6.7-.83-1.35-1.68-2.68-2.55-4l-.37-.56c-1-1.51-2.08-3-3.16-4.45-.9-1.21-1.81-2.4-2.74-3.55l-.35-.42H211.8c.51.61,1,1.22,1.53,1.85s1.12,1.4,1.67,2.12h-2.89c1.29,1.62,2.55,3.29,3.76,5,.46.65.92,1.31,1.37,2l1.32,2q1.74,2.67,3.37,5.51H162.62c-1.24-1.86-2.52-3.71-3.84-5.51q-1.47-2-3-4l-.54-.7q-1.71-2.16-3.54-4.31h-3c-.63-.72-1.26-1.42-1.89-2.12s-1.15-1.24-1.73-1.85H142c1.1,1.12,2.17,2.25,3.19,3.38.18.19.35.39.52.59,1.48,1.64,2.92,3.32,4.31,5,.58.7,1.15,1.41,1.71,2.12s1,1.23,1.43,1.85c2.23,2.91,4.37,5.93,6.39,9a2.27,2.27,0,0,0,1.9,1h64.41a2.27,2.27,0,0,0,1.95-1.11A2.24,2.24,0,0,0,227.8,449.52Zm9.32,19.39c-1.7-3.72-4.63-10.14-5.22-11.35a2.27,2.27,0,0,0-2-1.28H166.27a2.27,2.27,0,0,0-2,3.4q1.74,3,3.38,6.21l1.83.77,1.4.57c2.23.91,4.52,1.79,6.81,2.62l.9.33c1.87.67,3.75,1.32,5.61,1.94h50.82a2.27,2.27,0,0,0,2.07-3.21Zm-63.5-1.33c-1.12-2.29-2.29-4.55-3.48-6.76h58.28c.64,1.38,1.7,3.69,3.1,6.76Zm63.5,1.33c-1.7-3.72-4.63-10.14-5.22-11.35a2.27,2.27,0,0,0-2-1.28H166.27a2.27,2.27,0,0,0-2,3.4q1.74,3,3.38,6.21l1.83.77,1.4.57c2.23.91,4.52,1.79,6.81,2.62l.9.33c1.87.67,3.75,1.32,5.61,1.94h50.82a2.27,2.27,0,0,0,2.07-3.21Zm-63.5-1.33c-1.12-2.29-2.29-4.55-3.48-6.76h58.28c.64,1.38,1.7,3.69,3.1,6.76Zm54.18-18.06c-1.24-2.29-2.54-4.53-3.88-6.7-.83-1.35-1.68-2.68-2.55-4l-.37-.56c-1-1.51-2.08-3-3.16-4.45-.9-1.21-1.81-2.4-2.74-3.55l-.35-.42H211.8c.51.61,1,1.22,1.53,1.85s1.12,1.4,1.67,2.12h-2.89c1.29,1.62,2.55,3.29,3.76,5,.46.65.92,1.31,1.37,2l1.32,2q1.74,2.67,3.37,5.51H162.62c-1.24-1.86-2.52-3.71-3.84-5.51q-1.47-2-3-4l-.54-.7q-1.71-2.16-3.54-4.31h-3c-.63-.72-1.26-1.42-1.89-2.12s-1.15-1.24-1.73-1.85H142c1.1,1.12,2.17,2.25,3.19,3.38.18.19.35.39.52.59,1.48,1.64,2.92,3.32,4.31,5,.58.7,1.15,1.41,1.71,2.12s1,1.23,1.43,1.85c2.23,2.91,4.37,5.93,6.39,9a2.27,2.27,0,0,0,1.9,1h64.41a2.27,2.27,0,0,0,1.95-1.11A2.24,2.24,0,0,0,227.8,449.52ZM245,461.62c-4.74-7.09-9.53-14.12-12.83-18.8-1.17-1.65-2.15-3-2.87-4l-.54-.7q-1.87-2.37-3.8-4.61c-1-1.15-2-2.27-2.95-3.35l-.3-.32a146.51,146.51,0,0,0-29-24.37c-1.68-1.07-3.4-2.11-5.15-3.09-2.5-1.42-5.08-2.74-7.74-4A128,128,0,0,0,166.08,393c-4.46-1.46-9.23-2.78-14.2-3.92h0l-2.33-.52h-.07l-1.28-.26h0c-.77-.17-1.55-.32-2.34-.47l-1.3-.25c-.81-.15-1.62-.3-2.41-.43H142a2.51,2.51,0,0,0-2.8,1.35,3.27,3.27,0,0,0-.17.53,3.11,3.11,0,0,0,1.19,2.77,11,11,0,0,0,1.57,1.27,36.73,36.73,0,0,0,10.15,4.32c1.38.33,2.74.67,4.08,1a129,129,0,0,1,12.46,4,105.36,105.36,0,0,1,19.89,9.87,95.09,95.09,0,0,1,20.43,17.59q1.41,1.59,2.76,3.27c.19.23.37.47.55.7,1.29,1.62,2.55,3.29,3.76,5,.46.65.92,1.31,1.37,2l1.32,2q1.74,2.67,3.37,5.51H162.62c-1.24-1.86-2.52-3.71-3.84-5.51q-1.47-2-3-4l-.54-.7q-1.71-2.16-3.54-4.31-1.56-1.84-3.2-3.65l-.3-.32c-2.24-2.44-4.65-4.9-7.18-7.3-.18-.17-.35-.32-.52-.46-1.73-1.39-3.08-1.33-3.95-1a3.26,3.26,0,0,0-1,.6c-1.25,1.16-1.36,3.27-.75,5.52a15.4,15.4,0,0,0,2.89,5.57l.15.18.13.16.44.56h0c1.83,2.29,3.59,4.69,5.23,7.12.44.65.88,1.31,1.32,2a145.26,145.26,0,0,1,9.36,16.95c1.07.54,2.15,1.07,3.24,1.58s2.09,1,3.14,1.48a160.86,160.86,0,0,0-10.37-20q-1.26-2-2.56-4l-.37-.56q-1.53-2.25-3.16-4.45-1.35-1.81-2.77-3.59l-.2-.24-.09-.11,0,0a11.23,11.23,0,0,1-1.33-2.1l1.28,1.28c.27.27.54.54.8.82,1.1,1.12,2.17,2.25,3.19,3.38.18.19.35.39.52.59,1.48,1.64,2.92,3.32,4.31,5,.58.7,1.15,1.41,1.71,2.12s1,1.23,1.43,1.85c2.23,2.91,4.37,5.93,6.39,9a2.27,2.27,0,0,0,1.9,1h64.41a2.27,2.27,0,0,0,1.95-1.11,2.24,2.24,0,0,0,0-2.24c-1.24-2.29-2.54-4.53-3.88-6.7-.83-1.35-1.68-2.68-2.55-4l-.37-.56c-1-1.51-2.08-3-3.16-4.45-.9-1.21-1.81-2.4-2.74-3.55l-.35-.42q-2-2.49-4.17-4.82c1.68,1.57,3.33,3.17,4.92,4.82q1.63,1.67,3.19,3.38c.18.2.36.39.53.59q2.17,2.4,4.31,5c.57.7,1.14,1.4,1.71,2.12.36.45.83,1.08,1.39,1.85,5.65,7.76,20.7,30.22,27.4,40.84h2.69l2.65,0C256.47,478.92,250.79,470.22,245,461.62Zm-4.32,15.23a2.28,2.28,0,0,0-2.07-1.33H195.46q4.46,1.23,8.95,2.27,5.44,1.26,11,2.25l.12,0h21.71c.49,1.08.93,2.05,1.32,2.93l2.58.19,2.56.14C242.75,481.31,241.54,478.67,240.72,476.85Zm-3.6-7.94c-1.7-3.72-4.63-10.14-5.22-11.35a2.27,2.27,0,0,0-2-1.28H166.27a2.27,2.27,0,0,0-2,3.4q1.74,3,3.38,6.21l1.83.77,1.4.57c2.23.91,4.52,1.79,6.81,2.62l.9.33c1.87.67,3.75,1.32,5.61,1.94h50.82a2.27,2.27,0,0,0,2.07-3.21Zm-63.5-1.33c-1.12-2.29-2.29-4.55-3.48-6.76h58.28c.64,1.38,1.7,3.69,3.1,6.76Zm54.18-18.06c-1.24-2.29-2.54-4.53-3.88-6.7-.83-1.35-1.68-2.68-2.55-4l-.37-.56c-1-1.51-2.08-3-3.16-4.45-.9-1.21-1.81-2.4-2.74-3.55l-.35-.42H211.8c.51.61,1,1.22,1.53,1.85s1.12,1.4,1.67,2.12h-2.89c1.29,1.62,2.55,3.29,3.76,5,.46.65.92,1.31,1.37,2l1.32,2q1.74,2.67,3.37,5.51H162.62c-1.24-1.86-2.52-3.71-3.84-5.51q-1.47-2-3-4l-.54-.7q-1.71-2.16-3.54-4.31h-3c-.63-.72-1.26-1.42-1.89-2.12s-1.15-1.24-1.73-1.85H142c1.1,1.12,2.17,2.25,3.19,3.38.18.19.35.39.52.59,1.48,1.64,2.92,3.32,4.31,5,.58.7,1.15,1.41,1.71,2.12s1,1.23,1.43,1.85c2.23,2.91,4.37,5.93,6.39,9a2.27,2.27,0,0,0,1.9,1h64.41a2.27,2.27,0,0,0,1.95-1.11A2.24,2.24,0,0,0,227.8,449.52Zm9.32,19.39c-1.7-3.72-4.63-10.14-5.22-11.35a2.27,2.27,0,0,0-2-1.28H166.27a2.27,2.27,0,0,0-2,3.4q1.74,3,3.38,6.21l1.83.77,1.4.57c2.23.91,4.52,1.79,6.81,2.62l.9.33c1.87.67,3.75,1.32,5.61,1.94h50.82a2.27,2.27,0,0,0,2.07-3.21Zm-63.5-1.33c-1.12-2.29-2.29-4.55-3.48-6.76h58.28c.64,1.38,1.7,3.69,3.1,6.76Zm63.5,1.33c-1.7-3.72-4.63-10.14-5.22-11.35a2.27,2.27,0,0,0-2-1.28H166.27a2.27,2.27,0,0,0-2,3.4q1.74,3,3.38,6.21l1.83.77,1.4.57c2.23.91,4.52,1.79,6.81,2.62l.9.33c1.87.67,3.75,1.32,5.61,1.94h50.82a2.27,2.27,0,0,0,2.07-3.21Zm-63.5-1.33c-1.12-2.29-2.29-4.55-3.48-6.76h58.28c.64,1.38,1.7,3.69,3.1,6.76Zm54.18-18.06c-1.24-2.29-2.54-4.53-3.88-6.7-.83-1.35-1.68-2.68-2.55-4l-.37-.56c-1-1.51-2.08-3-3.16-4.45-.9-1.21-1.81-2.4-2.74-3.55l-.35-.42H211.8c.51.61,1,1.22,1.53,1.85s1.12,1.4,1.67,2.12h-2.89c1.29,1.62,2.55,3.29,3.76,5,.46.65.92,1.31,1.37,2l1.32,2q1.74,2.67,3.37,5.51H162.62c-1.24-1.86-2.52-3.71-3.84-5.51q-1.47-2-3-4l-.54-.7q-1.71-2.16-3.54-4.31h-3c-.63-.72-1.26-1.42-1.89-2.12s-1.15-1.24-1.73-1.85H142c1.1,1.12,2.17,2.25,3.19,3.38.18.19.35.39.52.59,1.48,1.64,2.92,3.32,4.31,5,.58.7,1.15,1.41,1.71,2.12s1,1.23,1.43,1.85c2.23,2.91,4.37,5.93,6.39,9a2.27,2.27,0,0,0,1.9,1h64.41a2.27,2.27,0,0,0,1.95-1.11A2.24,2.24,0,0,0,227.8,449.52Zm9.32,19.39c-1.7-3.72-4.63-10.14-5.22-11.35a2.27,2.27,0,0,0-2-1.28H166.27a2.27,2.27,0,0,0-2,3.4q1.74,3,3.38,6.21l1.83.77,1.4.57c2.23.91,4.52,1.79,6.81,2.62l.9.33c1.87.67,3.75,1.32,5.61,1.94h50.82a2.27,2.27,0,0,0,2.07-3.21Zm-63.5-1.33c-1.12-2.29-2.29-4.55-3.48-6.76h58.28c.64,1.38,1.7,3.69,3.1,6.76Zm63.5,1.33c-1.7-3.72-4.63-10.14-5.22-11.35a2.27,2.27,0,0,0-2-1.28H166.27a2.27,2.27,0,0,0-2,3.4q1.74,3,3.38,6.21l1.83.77,1.4.57c2.23.91,4.52,1.79,6.81,2.62l.9.33c1.87.67,3.75,1.32,5.61,1.94h50.82a2.27,2.27,0,0,0,2.07-3.21Zm-63.5-1.33c-1.12-2.29-2.29-4.55-3.48-6.76h58.28c.64,1.38,1.7,3.69,3.1,6.76Z" style="fill:#005596"/><path d="M65.6,393.19h0l-.15-.21-.33-.47.34.47Z" style="fill:#005596"/><path d="M76.46,396h0c-1.21-1.54-2.38-3.08-3.55-4.66q2.73.72,5.34,1.52l.58.44v0l8.88,6.6C84.14,398.49,80.4,397.18,76.46,396Z" style="fill:#005596"/><path d="M233.1,311.24V423.31a10.58,10.58,0,0,1-10.54,10.53H140.08a10.6,10.6,0,0,1-10.55-10.53V311.24c0-5.77,4.63-12,10.38-13.39a176.2,176.2,0,0,1,82.82,0C228.47,299.26,233.1,305.47,233.1,311.24Z" style="fill:#fff"/><path d="M213.33,431.72c-.51-.63-1-1.24-1.53-1.85H145.09c.58.61,1.16,1.22,1.73,1.85s1.26,1.4,1.89,2.12H215C214.45,433.12,213.89,432.42,213.33,431.72Zm0,0c-.51-.63-1-1.24-1.53-1.85H145.09c.58.61,1.16,1.22,1.73,1.85s1.26,1.4,1.89,2.12H215C214.45,433.12,213.89,432.42,213.33,431.72Zm0,0c-.51-.63-1-1.24-1.53-1.85H145.09c.58.61,1.16,1.22,1.73,1.85s1.26,1.4,1.89,2.12H215C214.45,433.12,213.89,432.42,213.33,431.72Zm0,0c-.51-.63-1-1.24-1.53-1.85H145.09c.58.61,1.16,1.22,1.73,1.85s1.26,1.4,1.89,2.12H215C214.45,433.12,213.89,432.42,213.33,431.72Zm0,0c-.51-.63-1-1.24-1.53-1.85H145.09c.58.61,1.16,1.22,1.73,1.85s1.26,1.4,1.89,2.12H215C214.45,433.12,213.89,432.42,213.33,431.72Zm9.4-133.87c-1.06-.26-2.13-.5-3.2-.74s-2.13-.47-3.2-.68-2.14-.43-3.22-.62-2.14-.39-3.22-.56l-2-.32-1.23-.18h0l-1.85-.25-.69-.09-1.2-.16-2.16-.25-.73-.08-3-.3q-7.8-.71-15.62-.7t-15.62.7c-1,.09-2,.19-3,.3l-.73.08-2.16.25-1.23.16-2.64.36-.76.11-1.95.31h-.06l-.9.15-1.5.25-1.13.21a.78.78,0,0,0-.21,0c-1,.18-2.06.38-3.08.59s-1.93.4-2.89.61l-.18,0-.15,0-1.51.34c-.56.12-1.12.26-1.67.39-5.75,1.41-10.37,7.62-10.38,13.39V423.31c0,.21,0,.41,0,.61s0,.41,0,.61h0c0,.18.05.35.08.52s.08.44.13.65c0,0,0,0,0,.06s0,.19.07.29a8.63,8.63,0,0,0,.28.86l.15.39c.06.13.11.25.18.38s.13.29.21.43a4.36,4.36,0,0,0,.23.42c.07.13.15.26.23.38s.16.25.25.37a3.32,3.32,0,0,0,.26.36c.09.12.18.24.28.35s.39.45.6.66l.32.31a3.08,3.08,0,0,0,.33.3l.4.33.28.21c.23.17.47.33.72.49l0,0,.34.19a2.21,2.21,0,0,0,.34.18l.2.1.36.17c.12.06.24.1.37.15s.57.21.86.3.55.15.83.21h.09l.4.07.19,0a5.6,5.6,0,0,0,.59.07h.07a6.79,6.79,0,0,0,.78,0h82.48a4.87,4.87,0,0,0,.54,0l.39,0a2.66,2.66,0,0,0,.28,0l.34,0,.37-.07.52-.11.5-.13.49-.16.24-.09.24-.09.47-.2.46-.23.63-.35.35-.23.47-.33a7.79,7.79,0,0,0,.63-.51c.22-.19.42-.38.62-.59a2.39,2.39,0,0,0,.22-.23l.08-.09c.1-.1.19-.21.28-.32l.24-.29c.18-.24.36-.5.53-.76s.25-.41.37-.62h0c.12-.21.23-.43.33-.65s.2-.45.28-.67.19-.53.27-.8a.29.29,0,0,0,0-.09,3.54,3.54,0,0,0,.11-.44l0-.08,0-.15c.05-.2.08-.4.11-.6s.06-.5.08-.75,0-.5,0-.75V311.24C233.1,305.47,228.47,299.26,222.73,297.85Zm6.4,125.46a6.59,6.59,0,0,1-6.57,6.56H140.09a6.46,6.46,0,0,1-1.82-.27,5.84,5.84,0,0,1-1.1-.43,6.37,6.37,0,0,1-2.33-1.94,6.44,6.44,0,0,1-1.33-3.92V311.24c0-4.05,3.5-8.59,7.33-9.53a172,172,0,0,1,80.95,0c3.84.94,7.34,5.48,7.34,9.53Zm-15.8,8.41c-.51-.63-1-1.24-1.53-1.85H145.09c.58.61,1.16,1.22,1.73,1.85s1.26,1.4,1.89,2.12H215C214.45,433.12,213.89,432.42,213.33,431.72Zm0,0c-.51-.63-1-1.24-1.53-1.85H145.09c.58.61,1.16,1.22,1.73,1.85s1.26,1.4,1.89,2.12H215C214.45,433.12,213.89,432.42,213.33,431.72Zm0,0c-.51-.63-1-1.24-1.53-1.85H145.09c.58.61,1.16,1.22,1.73,1.85s1.26,1.4,1.89,2.12H215C214.45,433.12,213.89,432.42,213.33,431.72Z" style="fill:#005596"/><path d="M239.3,442.82H141a58,58,0,0,1,0-44.39H239.3A58,58,0,0,0,239.3,442.82Z" style="fill:#fff"/><path d="M217.24,440.83c-.45-.67-.91-1.33-1.37-2H155.78q1.53,1.95,3,4h59.78Zm22.06-42.4H141c-.18.44-.36.89-.53,1.34s-.34.89-.5,1.35-.23.65-.34,1-.14.39-.2.59c-.13.38-.25.76-.36,1.15s-.24.8-.35,1.21-.21.77-.31,1.16q-.33,1.29-.6,2.58l-.18.91q-.15.75-.27,1.5c-.2,1.16-.35,2.33-.47,3.5,0,.45-.09.89-.12,1.33s0,.68-.07,1c0,.79-.08,1.57-.1,2.36,0,.56,0,1.13,0,1.7s0,1.35,0,2,.05,1.15.1,1.73c0,.24,0,.49.06.74a1.1,1.1,0,0,0,0,.18c0,.35.06.69.1,1,0,.18,0,.36.05.53.07.56.14,1.12.22,1.68,0,.05,0,.09,0,.14l.06.37.06.36c.06.4.13.79.21,1.18.11.64.24,1.27.38,1.9,0,.22.09.43.14.65s.16.69.25,1,.19.76.3,1.14c0,.14.07.27.11.41.09.33.19.66.29,1,.17.58.36,1.15.55,1.73.13.4.27.79.41,1.19.32.9.66,1.79,1,2.68H239.3A58,58,0,0,1,239.3,398.43Zm-7.85,30.51a61,61,0,0,0,2.2,9.91h-90c-.42-1.18-.81-2.37-1.15-3.56l-.39-1.45c-.32-1.27-.6-2.55-.83-3.83,0-.05,0-.1,0-.14,0-.28-.1-.55-.14-.82q-.28-1.82-.45-3.63c-.1-1.1-.17-2.21-.2-3.31a53.85,53.85,0,0,1,3.18-19.7h90c-.19.62-.38,1.25-.55,1.88A61.13,61.13,0,0,0,231.45,428.94Zm-14.21,11.89c-.45-.67-.91-1.33-1.37-2H155.78q1.53,1.95,3,4h59.78Z" style="fill:#005596"/><circle cx="177.11" cy="351.45" r="3.48" style="fill:#fff"/><path d="M177.11,348a3.49,3.49,0,1,0,3.48,3.48A3.48,3.48,0,0,0,177.11,348Zm0,5.26a1.78,1.78,0,1,1,1.78-1.78A1.78,1.78,0,0,1,177.11,353.23Z" style="fill:#005596"/><circle cx="185.57" cy="351.45" r="3.48" style="fill:#fff"/><path d="M185.57,348a3.49,3.49,0,1,0,3.48,3.48A3.48,3.48,0,0,0,185.57,348Zm0,5.26a1.78,1.78,0,1,1,1.77-1.78A1.78,1.78,0,0,1,185.57,353.23Z" style="fill:#005596"/><rect x="167.61" y="310.17" width="27.46" height="30.56" rx="4.33" style="fill:#fff"/><path d="M190.74,310.17h-18.8a4.33,4.33,0,0,0-4.33,4.34V336.4a4.33,4.33,0,0,0,4.33,4.33h18.8a4.33,4.33,0,0,0,4.33-4.33V314.51A4.33,4.33,0,0,0,190.74,310.17Zm1.49,26.23a1.49,1.49,0,0,1-1.49,1.49h-18.8a1.5,1.5,0,0,1-1.5-1.49V314.51a1.5,1.5,0,0,1,1.5-1.5h18.8a1.5,1.5,0,0,1,1.49,1.5Z" style="fill:#005596"/><rect x="136.59" y="310.17" width="27.46" height="30.56" rx="4.33" style="fill:#fff"/><path d="M159.72,310.17h-18.8a4.33,4.33,0,0,0-4.33,4.34V336.4a4.33,4.33,0,0,0,4.33,4.33h18.8a4.33,4.33,0,0,0,4.33-4.33V314.51A4.33,4.33,0,0,0,159.72,310.17Zm1.49,26.23a1.49,1.49,0,0,1-1.49,1.49h-18.8a1.49,1.49,0,0,1-1.49-1.49V314.51a1.5,1.5,0,0,1,1.49-1.5h18.8a1.5,1.5,0,0,1,1.49,1.5Z" style="fill:#005596"/><circle cx="140.07" cy="390.05" r="3.48" style="fill:#fff"/><path d="M143.53,389.71v0a2.2,2.2,0,0,0-.06-.37,3.62,3.62,0,0,0-.13-.47l-.1-.24,0-.08-.15-.28a2,2,0,0,0-.16-.24l0-.06a3.47,3.47,0,0,0-.25-.29l-.14-.14-.18-.16a1.94,1.94,0,0,0-.27-.21h0a3.44,3.44,0,0,0-1.93-.59,3.49,3.49,0,0,0,0,7l.34,0,.21,0,.26-.05.18-.05h0l.21-.07.14-.06.34-.17a3.51,3.51,0,0,0,.4-.27,2.74,2.74,0,0,0,.36-.32,1.37,1.37,0,0,0,.2-.22l.14-.18.14-.21a3.2,3.2,0,0,0,.27-.52q0-.12.09-.27l.06-.21a.8.8,0,0,0,0-.15,3,3,0,0,0,.07-.67C143.55,389.94,143.54,389.82,143.53,389.71Zm-3.31,2.09a.39.39,0,0,1-.15,0,1.77,1.77,0,0,1-.87-3.32,1.71,1.71,0,0,1,.87-.23,1.77,1.77,0,0,1,1.65,1.13,1.57,1.57,0,0,1,.13.65.82.82,0,0,1,0,.22A1.74,1.74,0,0,1,140.22,391.8Z" style="fill:#005596"/><circle cx="148.53" cy="390.05" r="3.48" style="fill:#fff"/><path d="M152,389.67l0-.22v0c0-.07,0-.14,0-.21a.36.36,0,0,0,0-.1l0-.09a2.2,2.2,0,0,0-.13-.36c0-.09-.08-.18-.13-.27l-.18-.3a2.86,2.86,0,0,0-.35-.43,2.89,2.89,0,0,0-.32-.29.48.48,0,0,0-.15-.11s0,0,0,0l0,0c-.12-.08-.24-.16-.37-.23a2.53,2.53,0,0,0-.33-.16l-.27-.09-.26-.07h-.05l-.36-.06-.36,0-.36,0a.69.69,0,0,0-.2,0l-.25.05a.55.55,0,0,0-.17,0,.66.66,0,0,0-.2.06,2,2,0,0,0-.34.14,2.68,2.68,0,0,0-.33.18,2.48,2.48,0,0,0-.26.19,2.22,2.22,0,0,0-.33.28,2,2,0,0,0-.24.26l0,0a2,2,0,0,0-.17.23,1.58,1.58,0,0,0-.15.24,2.15,2.15,0,0,0-.14.26,2.44,2.44,0,0,0-.1.24c0,.09-.07.19-.09.28a3,3,0,0,0-.12.6c0,.1,0,.21,0,.31v.05a3.48,3.48,0,0,0,3.49,3.48l.36,0,.22,0h0l.18,0h0a2.64,2.64,0,0,0,.4-.12l.05,0,.24-.11a.94.94,0,0,0,.22-.12l.27-.17a1,1,0,0,0,.2-.15l.17-.15a1.45,1.45,0,0,0,.21-.22,1.64,1.64,0,0,0,.21-.25h0a1.53,1.53,0,0,0,.14-.21.36.36,0,0,0,.07-.1,3,3,0,0,0,.2-.4,3.53,3.53,0,0,0,.27-1.35C152,389.92,152,389.8,152,389.67Zm-3.46,2.15a1.76,1.76,0,0,1-1.75-1.49,1.27,1.27,0,0,1,0-.28,1.75,1.75,0,0,1,1.42-1.74h0a1.27,1.27,0,0,1,.34,0A1.78,1.78,0,0,1,150,391,1.76,1.76,0,0,1,148.53,391.82Z" style="fill:#005596"/><rect x="198.62" y="310.17" width="27.46" height="30.56" rx="4.33" style="fill:#fff"/><path d="M221.75,310.17H203a4.34,4.34,0,0,0-4.34,4.34V336.4a4.34,4.34,0,0,0,4.34,4.33h18.79a4.33,4.33,0,0,0,4.34-4.33V314.51A4.34,4.34,0,0,0,221.75,310.17Zm1.5,26.23a1.5,1.5,0,0,1-1.5,1.49H203a1.5,1.5,0,0,1-1.5-1.49V314.51A1.5,1.5,0,0,1,203,313h18.79a1.5,1.5,0,0,1,1.5,1.5Z" style="fill:#005596"/><circle cx="214.15" cy="390.05" r="3.48" style="fill:#fff"/><path d="M214.15,386.56a3.49,3.49,0,1,0,3.48,3.49A3.48,3.48,0,0,0,214.15,386.56Zm0,5.26a1.78,1.78,0,1,1,1.78-1.77A1.78,1.78,0,0,1,214.15,391.82Z" style="fill:#005596"/><circle cx="222.61" cy="390.05" r="3.48" style="fill:#fff"/><path d="M222.61,386.56a3.49,3.49,0,1,0,3.48,3.49A3.49,3.49,0,0,0,222.61,386.56Zm0,5.26a1.78,1.78,0,1,1,1.77-1.77A1.78,1.78,0,0,1,222.61,391.82Z" style="fill:#005596"/><path d="M232.1,364.5v3l-39.52,18.62a27.12,27.12,0,0,1-22.66,0L130.54,367.6v-3l40.53,19.09a24.3,24.3,0,0,0,20.36,0Z" style="fill:#005596"/><path d="M229.13,365.28,191.2,383.13a23.79,23.79,0,0,1-19.89,0l-37.8-17.8L130,363.67V368l3.54,1.67,36.18,17.05a27.77,27.77,0,0,0,23.14,0l36.3-17.1,3.54-1.67v-4.29Zm2.4,1.9-2.4,1.13-36.78,17.34a26.64,26.64,0,0,1-22.19,0l-36.65-17.27-2.41-1.14v-1.78l2.41,1.13,37.32,17.57a24.88,24.88,0,0,0,20.84,0l37.46-17.63,2.4-1.13Z" style="fill:#005596"/><path d="M134.43,296.72v.44A14.38,14.38,0,0,0,127,308.29v.19h0v116.4a9.93,9.93,0,0,0,.73,3.74,10.28,10.28,0,0,0,.91,1.74L87.71,399.92l-8.88-6.58v0l-.58-.44-6.88-5.11.82-65.39,7.44-3.05v0Z" style="fill:#fff"/><path d="M79.63,319.27v0l-7.44,3.05-.82,65.39,6.88,5.11.58.44v0l8.88,6.58,40.93,30.44a10.28,10.28,0,0,1-.91-1.74,9.93,9.93,0,0,1-.73-3.74V308.29a14.38,14.38,0,0,1,7.44-11.13v-.44Zm44-11.22v.2c0,.07,0,.15,0,.23V422.37L89.74,397.19l-7.5-5.57v0l-1.37-1-.59-.44-5.49-4.08.78-61.39,5.35-2.2,2.11-.91,41.22-17A15.3,15.3,0,0,0,123.6,308.05Z" style="fill:#005596"/><polygon points="118.93 322.8 118.95 343.47 76.78 343.52 76.76 333.17 118.93 322.8" style="fill:#fff"/><path d="M118.93,322.8,76.76,333.17l0,10.35,42.17,0ZM79.61,340.68V335.4l36.5-9v14.21Z" style="fill:#005596"/><path d="M35.19,335.61c-.24-.63-.47-1.27-.69-1.9h0C34.74,334.34,35,335,35.19,335.61Z" style="fill:#fff"/><path d="M37.38,341.45l-.48-1.22c-.35-.9-.69-1.81-1-2.72-.1-.27-.2-.54-.29-.81.09.26.19.53.29.79.34.92.68,1.83,1,2.74C37.06,340.64,37.22,341.05,37.38,341.45Z" style="fill:#fff"/><path d="M37.86,342.68h0c-.09-.23-.19-.46-.27-.69L40,347.89C39.27,346.17,38.56,344.44,37.86,342.68Z" style="fill:#fff"/><path d="M46.55,361.94c-1.93-3.81-3.77-7.67-5.49-11.59-.16-.37-.32-.73-.47-1.09.15.36.31.72.48,1.09Q43.66,356.23,46.55,361.94Z" style="fill:#fff"/><path d="M60.78,386.25h0l-.06-.1c-.68-1-1.36-2-2-3.09s-1.42-2.22-2.11-3.33c.7,1.12,1.4,2.23,2.13,3.34s1.33,2.06,2,3.08A.61.61,0,0,0,60.78,386.25Z" style="fill:#fff"/><path d="M70,322.61l-.74,63.7-1-1.45,0,0v0c-.59-.85-1.16-1.7-1.72-2.54l0-.06a227.43,227.43,0,0,1-19-34.71c-.09-.2-.18-.39-.26-.59l-.64-1.48-.29-.68c-.31-.74-.63-1.49-.93-2.25-.17-.38-.32-.77-.48-1.16v0l-.37-.92-.14-.35c-.33-.8-.62-1.55-.91-2.31-.49-1.27-1-2.55-1.43-3.82-.19-.51-.37-1-.55-1.51l-.35-1-.06-.16Z" style="fill:#fff"/><path d="M41.05,331.23l.06.16.35,1c.18.5.36,1,.55,1.51l25.12-7.47-.64,55.78,0,.06c.56.84,1.13,1.69,1.72,2.54v0l0,0,1,1.45.74-63.7Zm-6.54,2.48h0c.22.63.45,1.27.69,1.9C35,335,34.74,334.34,34.51,333.71Zm1.08,3c.09.27.19.54.29.81v0C35.78,337.23,35.68,337,35.59,336.7Zm25.12,49.45c-.68-1-1.36-2-2-3.08h0c.66,1,1.34,2.07,2,3.09l.06.1h0A.61.61,0,0,1,60.71,386.15Z" style="fill:#005596"/><path d="M37.86,342.68h0c-.09-.23-.19-.46-.27-.69L40,347.89C39.27,346.17,38.56,344.44,37.86,342.68Z" style="fill:#fff"/><path d="M64.55,335.72l-.1,8.85L47.2,346.91l-.64-1.48-.29-.68c-.31-.74-.63-1.49-.93-2.25-.17-.38-.32-.77-.48-1.16v0l-.37-.92Z" style="fill:#fff"/><path d="M44.49,340.38l.37.92v0c.16.39.31.78.48,1.16l16.91-3.92,0,4-15.93,2.17.29.68.64,1.48,17.25-2.34.1-8.85ZM40,347.89,37.59,342c.08.23.18.46.27.69h0C38.56,344.44,39.27,346.17,40,347.89Z" style="fill:#005596"/><path d="M365.05,365.45l.13.11.13.11.55.39.22.14.09.05a6.44,6.44,0,0,0,.66.4c.29.16.59.31.89.44.15.07.31.14.48.2l.07,0,.57.21.29.09.55.15.59.13.26.05.52.07c.21,0,.41.05.62.06s.53,0,.8,0a12.35,12.35,0,0,0,2.53-.26,14,14,0,0,0,1.54-.42l.72-.26h0l.63-.27.2-.1c.28-.13.55-.27.82-.42h0l.5-.29.52-.33.44-.3.05,0,0,0c.22-.15.43-.31.64-.48l.12-.09c.31-.25.61-.5.9-.77s.7-.66,1-1l.49-.54.48-.56Z" style="fill:#005596"/><path d="M474.83,340.94l-.72,1.83h0C474.35,342.17,474.59,341.56,474.83,340.94Z" style="fill:#fff"/><path d="M483.47,265.68c.13-3.21.2-6.44.2-9.67,0-.57,0-1.15,0-1.72l-123.28-25.1a9.72,9.72,0,0,1,.19,1.87l-.07,109.73v18.54h0a6.28,6.28,0,0,0,.27.59c.07.16.14.31.22.46l.36.66,5.26-1,14.81-2.74,6.23-1.15,12.64-2.34V336a2.47,2.47,0,0,1,.46-1.44l10-14.31a2.48,2.48,0,0,1,1.85-1.05l13.14-1a2.48,2.48,0,0,1,2.19,1l8.61,11.49a2.46,2.46,0,0,1,.5,1.5v14.88l30-5.55c1.09-2.67,2.12-5.35,3.09-8.06l-1.54.22v-71l6.82,1v53.22q2.49-9,4.23-18.23h-.93v-33.7Zm-102.78,80.6-13.48,1.94V247.76l13.48,2Zm16.36-2.34-7.27,1-4.9.7V250.35l12.17,1.78Zm58-45.31-52.22,0v-44.6l52.22,7.48ZM466.33,334,459,335.06V261.21l7.36,1.08Z" style="fill:#fff"/><polygon points="402.86 254.05 455.08 261.53 455.08 298.63 402.86 298.65 402.86 254.05" style="fill:#fff"/><polygon points="458.97 261.21 466.33 262.29 466.33 334 458.97 335.06 458.97 261.21" style="fill:#fff"/><path d="M468.65,262.63l6.82,1v53.22c-.66,2.41-1.37,4.82-2.11,7.2s-1.54,4.78-2.37,7.15c-.26.75-.52,1.5-.8,2.25l-1.54.22Z" style="fill:#fff"/><path d="M483.47,265.68c0,1-.09,2-.15,3q-.46,8.52-1.55,16.92-.86,6.56-2.07,13h-.93v-33.7Z" style="fill:#fff"/><path d="M474.1,342.77h0l.72-1.83C474.59,341.56,474.35,342.17,474.1,342.77Zm-41.83-3.39c0-.16,0-.32,0-.48s0-.33-.05-.49l-.12-1v7.38c.09-.61.16-1.22.2-1.84,0-.13,0-.27,0-.4a.28.28,0,0,0,0-.09c0-.07,0-.13,0-.2v-.06q0-.57,0-1.14C432.33,340.52,432.31,340,432.27,339.38Z" style="fill:#005596"/><path d="M437.06,332.18a2.46,2.46,0,0,0-.5-1.5L428,319.19a2.48,2.48,0,0,0-2.19-1l-13.14,1a2.48,2.48,0,0,0-1.85,1.05l-10,14.31a2.47,2.47,0,0,0-.46,1.44v17.84l-12.64,2.34-6.23,1.15-14.81,2.74-5.26,1-.36-.66c-.08-.15-.15-.3-.22-.46a6.28,6.28,0,0,1-.27-.59h0V340.79l.07-109.73a9.72,9.72,0,0,0-.19-1.87l123.28,25.1q0-1.28,0-2.55c0-.86,0-1.72-.06-2.57l-127.3-25.92a7.34,7.34,0,0,0-4.84-1l-69.08,9.47c-6.55.89-11.18,2.64-11.18,17.14v92.54c0,9.64,1.88,15.88,11.25,17.19l68.94,9.7a6.73,6.73,0,0,0,1,.07,7.32,7.32,0,0,0,4.15-1.3l8.53-1.58h0l19.13-3.54,19.65-3.63a2.49,2.49,0,0,0,1.45-4.07V336.8l8.91-12.7,10.58-.81,7.29,9.72v4.45l.12,1c0,.16,0,.32.05.49s0,.32,0,.48c0,.57.06,1.14.06,1.73q0,.57,0,1.14v.06c0,.07,0,.13,0,.2a.28.28,0,0,1,0,.09c0,.13,0,.27,0,.4,0,.62-.11,1.23-.2,1.84v3.83l-.11.18a2.5,2.5,0,0,0,2.59,3.76L464.78,347c.41-.92.8-1.84,1.19-2.76s.77-1.84,1.13-2.76l-30,5.55Zm-81.57,27.29a4.2,4.2,0,0,1-1.39,3.14,2.75,2.75,0,0,1-1.72.72,1.83,1.83,0,0,1-.33,0l-68.93-9.7c-3.58-.5-6.95-1-6.95-12.24V248.83c0-11.25,2.29-11.56,6.94-12.19l69-9.46a1.46,1.46,0,0,1,.29,0,2.77,2.77,0,0,1,1.76.73,4.24,4.24,0,0,1,1.41,3.16Z" style="fill:#005596"/><path d="M402.86,254.05v44.6l52.22,0v-37.1Zm48.22,40.58-44.22,0v-36L451.08,265Z" style="fill:#005596"/><path d="M384.88,250.35v95.33l4.9-.7,7.27-1V252.13Zm9.35,91.15-4.7.67-1.83.26V253.61l6.53.95Z" style="fill:#005596"/><polygon points="394.23 254.56 394.23 341.5 389.53 342.17 387.7 342.43 387.7 253.61 394.23 254.56" style="fill:#fff"/><path d="M367.21,247.76V348.22l13.48-1.94V249.73Zm10.66,96.08L370,345V251l7.85,1.16Z" style="fill:#005596"/><polygon points="377.87 252.17 377.87 343.84 370.02 344.97 370.02 251.01 377.87 252.17" style="fill:#fff"/><path d="M468.65,262.63v71l1.54-.22c.28-.75.54-1.5.8-2.25l-.23,0V265.08l2.6.38v58.59c.74-2.38,1.45-4.79,2.11-7.2V263.63Z" style="fill:#005596"/><path d="M459,261.21v73.85l7.36-1.06V262.29Zm5.25,71-3.14.45v-69l3.14.46Z" style="fill:#005596"/><path d="M478.77,264.92v33.7h.93q1.21-6.45,2.07-13V268.44l1.55.25c.06-1,.11-2,.15-3Z" style="fill:#005596"/><path d="M432.33,341.11q0,.57,0,1.14v.06c0,.07,0,.13,0,.2a.28.28,0,0,1,0,.09c0,.13,0,.27,0,.4,0,.62-.11,1.23-.2,1.84v.06c-.06.43-.13.85-.22,1.27s-.18.85-.29,1.28c0,.06,0,.12,0,.18s-.1.38-.16.57l-.15.5c-.12.39-.25.78-.38,1.16l-.06.15c-.13.38-.28.74-.43,1.1s-.32.74-.49,1.11l0,.06s0,0,0,0l-.15.28-.34.65-.11.21c-.18.32-.37.64-.56.95a0,0,0,0,0,0,0l-.36.57c-.2.3-.41.59-.62.87l-.05.06c-.09.12-.17.24-.27.35l-.27.34c-.18.22-.36.43-.55.63a7.81,7.81,0,0,1-.56.59l-.07.08-.38.36c-.19.18-.39.36-.59.52l-.42.35a13.3,13.3,0,0,1-2.38,1.49,6.28,6.28,0,0,1-.59.27c-.21.09-.43.18-.65.25s-.44.15-.66.21-.44.12-.67.17a10.15,10.15,0,0,1-2.1.23l-.62,0-.55-.05a9.79,9.79,0,0,1-1.31-.26l-.51-.16a8,8,0,0,1-1.14-.47c-.18-.08-.35-.17-.53-.27l-.45-.27-.44-.29c-.15-.1-.29-.21-.43-.32l-.42-.34-.37-.32c-.13-.12-.26-.24-.38-.37l-.45-.47h0c-.29-.33-.57-.67-.84-1-.13-.18-.27-.37-.39-.56-.26-.39-.5-.79-.73-1.21q-.21-.37-.39-.78c-.07-.15-.15-.31-.22-.47a14.77,14.77,0,0,1-.6-1.58,12.07,12.07,0,0,1-.41-1.37.07.07,0,0,1,0-.06c-.06-.2-.11-.41-.16-.62l0-.14c-.06-.3-.12-.6-.17-.9s-.12-.72-.16-1.08-.07-.58-.09-.87c0-.11,0-.22,0-.34,0-.34,0-.69-.05-1s0-.6,0-.9c0-10.68,6.44-19.92,14-20.59.29,0,.58,0,.86,0a3.85,3.85,0,0,1,.48,0l.34,0h.09a5.67,5.67,0,0,1,.72.1l.28.05a3.89,3.89,0,0,1,.49.12l.2.05a6,6,0,0,1,.6.2l.29.11.17.07.52.23c.23.11.45.23.67.36l.57.37a1.79,1.79,0,0,1,.28.2,5.9,5.9,0,0,1,.58.44c.33.27.64.57.95.88s.36.38.54.59l.22.27c.18.22.36.45.53.69a8.27,8.27,0,0,1,.46.69l.2.31c.16.25.31.52.45.79s.37.73.53,1.11.26.59.38.9.22.59.32.9l.12.39c.09.3.18.61.26.92s.12.51.18.78.11.51.16.77l.09.58.12,1c0,.16,0,.32.05.49s0,.32,0,.48C432.31,340,432.33,340.52,432.33,341.11Z" style="fill:#fff"/><path d="M432.27,339.38c0-.16,0-.32,0-.48s0-.33-.05-.49l-.12-1-.09-.58c-.05-.26-.1-.52-.16-.77s-.12-.53-.18-.78-.17-.62-.26-.92l-.12-.39c-.1-.31-.21-.61-.32-.9s-.24-.61-.38-.9-.34-.75-.53-1.11-.29-.54-.45-.79l-.2-.31a8.27,8.27,0,0,0-.46-.69c-.17-.24-.35-.47-.53-.69l-.22-.27c-.18-.21-.36-.4-.54-.59s-.62-.61-.95-.88a5.9,5.9,0,0,0-.58-.44,1.79,1.79,0,0,0-.28-.2l-.57-.37c-.22-.13-.44-.25-.67-.36l-.52-.23-.17-.07-.29-.11a6,6,0,0,0-.6-.2l-.2-.05a3.89,3.89,0,0,0-.49-.12l-.28-.05a5.67,5.67,0,0,0-.72-.1h-.09l-.34,0a3.85,3.85,0,0,0-.48,0c-.28,0-.57,0-.86,0-7.58.67-14,9.91-14,20.59,0,.3,0,.6,0,.9s0,.7.05,1c0,.12,0,.23,0,.34q0,.44.09.87c0,.36.1.72.16,1.08s.11.6.17.9l0,.14c.05.21.1.42.16.62a.07.07,0,0,0,0,.06,12.07,12.07,0,0,0,.41,1.37,14.77,14.77,0,0,0,.6,1.58c.07.16.15.32.22.47s.25.53.39.78c.23.42.47.82.73,1.21.12.19.26.38.39.56.27.37.55.71.84,1h0l.45.47c.12.13.25.25.38.37l.37.32.42.34c.14.11.28.22.43.32l.44.29.45.27c.18.1.35.19.53.27a8,8,0,0,0,1.14.47l.51.16a9.79,9.79,0,0,0,1.31.26l.55.05.62,0a10.15,10.15,0,0,0,2.1-.23c.23,0,.45-.1.67-.17s.44-.13.66-.21.44-.16.65-.25a6.28,6.28,0,0,0,.59-.27,13.3,13.3,0,0,0,2.38-1.49l.42-.35c.2-.16.4-.34.59-.52l.38-.36.07-.08a7.81,7.81,0,0,0,.56-.59c.19-.2.37-.41.55-.63l.27-.34c.1-.11.18-.23.27-.35l.05-.06c.21-.28.42-.57.62-.87l.36-.57a0,0,0,0,1,0,0c.19-.31.38-.63.56-.95l.11-.21.34-.65.15-.28s0,0,0,0l0-.06c.17-.37.33-.73.49-1.11s.3-.72.43-1.1l.06-.15c.13-.38.26-.77.38-1.16l.15-.5c.06-.19.11-.38.16-.57s0-.12,0-.18c.11-.43.21-.85.29-1.28s.16-.84.22-1.27v-.06c.09-.61.16-1.22.2-1.84,0-.13,0-.27,0-.4a.28.28,0,0,0,0-.09c0-.07,0-.13,0-.2v-.06q0-.57,0-1.14C432.33,340.52,432.31,340,432.27,339.38ZM418.5,356.7a4.94,4.94,0,0,1-1.07.12c-3.92,0-7-5.12-7-11.65a20.34,20.34,0,0,1,3.31-11.26c1.79-2.62,4.06-4.23,6.23-4.42l.42,0c3.87,0,7,5.22,7,11.64C427.41,349.3,422.8,355.78,418.5,356.7Z" style="fill:#005596"/><path d="M426.21,341.15c0-.3,0-.58-.09-.86s-.09-.56-.15-.83a7,7,0,0,0-.2-.79c-.07-.25-.16-.5-.25-.74s-.2-.48-.3-.7-.23-.44-.35-.65a6.17,6.17,0,0,0-.39-.6c-.14-.19-.28-.37-.43-.54s-.31-.33-.47-.48a4,4,0,0,0-.39-.33l-.22-.16a0,0,0,0,1,0,0c-.14-.09-.27-.18-.42-.26a4.78,4.78,0,0,0-2.41-.65l-.6,0c-3.84.46-7,5.18-7,10.53,0,.23,0,.46,0,.68s0,.45.05.67a10,10,0,0,0,.2,1.26c.06.27.13.53.21.79h0c.08.25.16.5.25.74s.16.4.25.59l.24.47c.08.15.17.3.26.44l.3.44c.14.19.28.37.43.54s.3.32.47.47l.17.15.16.13a4.37,4.37,0,0,0,.44.31l.3.18.32.16.32.14a4,4,0,0,0,.67.2l.27.06.15,0,.17,0h.07a.66.66,0,0,0,.2,0h.19a4.84,4.84,0,0,0,.92-.08c3.74-.69,6.71-5.37,6.71-10.48C426.24,341.74,426.23,341.44,426.21,341.15Zm-7.31,7.91-.29,0c-1.25,0-2.59-2-2.59-5,0-3.7,2.11-6.82,3.93-7h.18c1.22,0,2.59,2,2.59,5C422.72,345.65,420.7,348.73,418.9,349.06Z" style="fill:#005596"/><path d="M316.46,255.22a95.55,95.55,0,0,0-23.12,25.09l6-23.43Z" style="fill:#fff"/><polygon points="296.41 257.01 285.2 300.77 285.2 258.09 296.41 257.01" style="fill:#fff"/><path d="M344.29,252.4v53.85L285.2,305v-2.5l.55-1.4.31-.76c.31-.77.66-1.6,1-2.46s.79-1.77,1.23-2.72l.93-1.94c.33-.66.67-1.34,1-2q1.06-2.08,2.33-4.29c.2-.35.4-.7.61-1.05.72-1.24,1.5-2.51,2.32-3.8l.53-.81c.27-.43.56-.86.86-1.3s.76-1.12,1.16-1.68.8-1.13,1.21-1.7.84-1.13,1.27-1.69.77-1,1.17-1.5l.25-.31c.42-.53.85-1.05,1.29-1.57s.95-1.12,1.44-1.68.83-.93,1.25-1.4l.3-.32c.49-.53,1-1.06,1.51-1.59s1.07-1.09,1.62-1.63l.83-.8.84-.79c.28-.27.56-.52.85-.78l.88-.78h0c.58-.51,1.18-1,1.78-1.51a.08.08,0,0,1,0,0l.18-.14c.24-.21.49-.41.74-.6s.61-.5.93-.74c.62-.48,1.25-1,1.9-1.43l.05,0c.64-.46,1.3-.92,2-1.38s1.32-.88,2-1.31l.06,0Z" style="fill:#fff"/><path d="M354.16,227.89a2.77,2.77,0,0,0-1.76-.73,1.46,1.46,0,0,0-.29,0l-69,9.46c-4.65.63-6.94.94-6.94,12.19v92.54c0,11.26,3.37,11.74,6.95,12.24l68.93,9.7a1.83,1.83,0,0,0,.33,0,2.75,2.75,0,0,0,1.72-.72,4.2,4.2,0,0,0,1.39-3.14l.08-128.42A4.24,4.24,0,0,0,354.16,227.89Zm-68.49,11.47,57.29-7a.55.55,0,0,1,.18,0h.18a2.37,2.37,0,0,1,.7.1,1.61,1.61,0,0,1,.29.09.21.21,0,0,1,.1,0c.09,0,.17.08.26.12l.3.18.28.22a3.19,3.19,0,0,1,.26.26,3.33,3.33,0,0,1,.25.28,5.29,5.29,0,0,1,1,3.21c0,2.72-1.7,5.11-3.79,5.32L285.67,248h-.21a2.1,2.1,0,0,1-.56-.08,2.34,2.34,0,0,1-.51-.23,2.21,2.21,0,0,1-.46-.36,2.68,2.68,0,0,1-.4-.48,3.08,3.08,0,0,1-.33-.59,1.86,1.86,0,0,1-.1-.25.5.5,0,0,1-.05-.13s0-.08,0-.12a4.94,4.94,0,0,1-.15-.55h0a2.93,2.93,0,0,1-.05-.29,2.43,2.43,0,0,1,0-.3c0-.2,0-.41,0-.62C282.74,241.65,284,239.56,285.67,239.36Zm8.19,103.44-11.12-1.21v-8.3l11.12,1Zm52.93,5.77-13.85-1.51v-9.25l13.85,1.25Zm2.42-39.8a2.44,2.44,0,0,1-2.46,2.46h-.05l-64-1.34a2.45,2.45,0,0,1-2.41-2.46V255.85a2.46,2.46,0,0,1,2.23-2.45l64-6.17a2.45,2.45,0,0,1,2.69,2.45Z" style="fill:#fff"/><path d="M348.41,247.86a2.47,2.47,0,0,0-1.89-.63l-64,6.17a2.46,2.46,0,0,0-2.23,2.45v51.58a2.45,2.45,0,0,0,2.41,2.46l64,1.34h.05a2.44,2.44,0,0,0,2.46-2.46V249.68A2.48,2.48,0,0,0,348.41,247.86Zm-32,7.36a95.55,95.55,0,0,0-23.12,25.09l6-23.43Zm-31.26,2.87L296.41,257,285.2,300.77Zm59.09,48.16L285.2,305v-2.5c.17-.44.35-.91.55-1.4l.31-.76c.31-.77.66-1.6,1-2.46s.79-1.77,1.23-2.72c.29-.63.61-1.28.93-1.94s.67-1.34,1-2q1.06-2.08,2.33-4.29c.2-.35.4-.7.61-1.05.72-1.24,1.5-2.51,2.32-3.8l.53-.81c.27-.43.56-.86.86-1.3s.76-1.12,1.16-1.68.8-1.13,1.21-1.7.84-1.13,1.27-1.69.77-1,1.17-1.5l.25-.31c.42-.53.85-1.05,1.29-1.57s.94-1.12,1.44-1.68.82-.93,1.25-1.4l.3-.32c.49-.53,1-1.06,1.51-1.59s1.07-1.1,1.62-1.63l.83-.8.84-.79c.28-.27.56-.52.85-.78l.88-.78h0c.58-.51,1.18-1,1.78-1.51a.08.08,0,0,1,0,0l.18-.14c.24-.22.49-.41.74-.6s.61-.5.93-.74c.62-.48,1.25-1,1.9-1.43l.05,0c.64-.46,1.3-.92,2-1.38s1.32-.88,2-1.31l.06,0,21.81-2.1Z" style="fill:#005596"/><path d="M346.75,236.81c0,2.72-1.7,5.11-3.79,5.32L285.67,248h-.21a2.1,2.1,0,0,1-.56-.08,2.34,2.34,0,0,1-.51-.23,2.21,2.21,0,0,1-.46-.36,2.68,2.68,0,0,1-.4-.48,4.75,4.75,0,0,1-.33-.59,1.86,1.86,0,0,1-.1-.25.5.5,0,0,1-.05-.13s0-.08,0-.12a4.94,4.94,0,0,1-.15-.55h0a2.93,2.93,0,0,1-.05-.29,2.43,2.43,0,0,1,0-.3c0-.2,0-.41,0-.62,0-2.38,1.3-4.47,2.93-4.67l57.29-7a.55.55,0,0,1,.18,0h.09a2.56,2.56,0,0,1,.79.09,1.61,1.61,0,0,1,.29.09.21.21,0,0,1,.1,0c.09,0,.17.08.26.12l.3.18.28.22a3.19,3.19,0,0,1,.26.26,3.33,3.33,0,0,1,.25.28A5.29,5.29,0,0,1,346.75,236.81Z" style="fill:#fff"/><path d="M345.76,233.6a3.33,3.33,0,0,0-.25-.28,3.19,3.19,0,0,0-.26-.26l-.28-.22-.3-.18c-.09,0-.17-.09-.26-.12a.21.21,0,0,0-.1,0,1.61,1.61,0,0,0-.29-.09,2.37,2.37,0,0,0-.7-.1h-.18a.55.55,0,0,0-.18,0l-57.29,7c-1.63.2-2.93,2.29-2.93,4.67,0,.21,0,.42,0,.62a2.43,2.43,0,0,0,0,.3,2.93,2.93,0,0,0,.05.29h0a4.94,4.94,0,0,0,.15.55s0,.08,0,.12a.5.5,0,0,0,.05.13,1.86,1.86,0,0,0,.1.25,4.75,4.75,0,0,0,.33.59,2.68,2.68,0,0,0,.4.48,2.28,2.28,0,0,0,.46.36,2.34,2.34,0,0,0,.51.23,2.1,2.1,0,0,0,.56.08h.21l57.29-5.9c2.09-.21,3.79-2.6,3.79-5.32A5.29,5.29,0,0,0,345.76,233.6Zm-3.09,5.73-56.88,5.86a2.51,2.51,0,0,1-.24-1.16,2.78,2.78,0,0,1,.61-1.89l57.14-7h0c.12,0,.62.56.62,1.68A2.64,2.64,0,0,1,342.67,239.33Z" style="fill:#005596"/><polygon points="346.79 339.06 346.79 348.57 332.94 347.06 332.94 337.81 346.79 339.06" style="fill:#fff"/><path d="M332.94,337.81v9.25l13.85,1.51v-9.51Zm11,7.62-8.22-.9v-3.64l8.22.74Z" style="fill:#005596"/><polygon points="293.86 334.29 293.86 342.8 282.74 341.59 282.74 333.29 293.86 334.29" style="fill:#fff"/><path d="M282.74,333.29v8.3l11.12,1.21v-8.51Zm8.31,6.37-5.5-.6v-2.69l5.5.49Z" style="fill:#005596"/></svg>