<svg id="icon" xmlns="http://www.w3.org/2000/svg" viewBox="0 0 512 512"><path d="M255.82,26.68a228.74,228.74,0,0,1,197,344.81A228.52,228.52,0,0,1,255.82,484,226.41,226.41,0,0,1,155.2,460.75,228.66,228.66,0,0,1,255.82,26.68m0-6c-129.6,0-234.67,105.07-234.67,234.67a234.67,234.67,0,1,0,469.34,0c0-129.6-105.07-234.67-234.67-234.67Z" style="fill:#005696"/><path d="M130.6,373.67h.15l-.17-.21Z" style="fill:#005696;stroke:#1e4384;stroke-miterlimit:10"/><path d="M369.46,225.75a4.15,4.15,0,0,1-4.12-3.62,19.06,19.06,0,0,1,0-5.27c.07-.76.13-1.47.14-2.14l.08-7.34H299.93a9.4,9.4,0,0,1-9.39-9.39V133.77a9.4,9.4,0,0,1,9.39-9.39H413.25a9.41,9.41,0,0,1,9.4,9.39V198a9.41,9.41,0,0,1-9.4,9.39H394.8a2.46,2.46,0,0,0-2.14.76c-1.23,1-2.47,2-3.71,3-3.4,2.75-6.92,5.6-10.17,8.59-.08.08-.2.2-.37.35-3.49,3.39-6.35,5.65-8.94,5.65Z" style="fill:#fff"/><path d="M413.25,127.38a6.39,6.39,0,0,1,6.4,6.39V198a6.39,6.39,0,0,1-6.4,6.39H394.79a5.26,5.26,0,0,0-4,1.45c-4.7,3.87-9.52,7.6-14,11.72-.78.73-5.12,5.21-7.29,5.21-.59,0-1-.33-1.17-1.16-.42-2.26.12-4.58.14-6.83q.06-5,.11-9.91a1.59,1.59,0,0,0-1.13-.47H299.93a6.39,6.39,0,0,1-6.39-6.39V133.77a6.39,6.39,0,0,1,6.39-6.39H413.25m0-6H299.93a12.41,12.41,0,0,0-12.39,12.39V198a12.41,12.41,0,0,0,12.39,12.39h62.55l-.05,4.31c0,.55-.06,1.21-.13,1.9a22,22,0,0,0,.09,6.09,7.12,7.12,0,0,0,7.07,6.07c3.62,0,6.91-2.48,11.05-6.49l.31-.31c3.17-2.91,6.5-5.61,10-8.46l3.73-3,.09-.08h18.59A12.41,12.41,0,0,0,425.65,198V133.77a12.41,12.41,0,0,0-12.4-12.39Z" style="fill:#1e4384"/><rect x="310.01" y="145.29" width="84.59" height="3.78" rx="1.7" style="fill:#005696;stroke:#1e4384;stroke-miterlimit:10"/><rect x="310.01" y="183.78" width="79.53" height="3.78" rx="1.7" style="fill:#005696;stroke:#1e4384;stroke-miterlimit:10"/><rect x="310.64" y="164.54" width="97.2" height="3.78" rx="1.7" style="fill:#005696;stroke:#1e4384;stroke-miterlimit:10"/><path d="M180.12,201.43c-2.78,0-5.91-2.48-9.76-6.21l-.42-.4c-3.64-3.35-7.57-6.54-11.38-9.63l-4.16-3.38a3,3,0,0,0-2.61-.93H131.15A10.16,10.16,0,0,1,121,170.74V98.93a10.16,10.16,0,0,1,10.15-10.15H257.88A10.16,10.16,0,0,1,268,98.93v71.81a10.16,10.16,0,0,1-10.15,10.15h-73.7l.1,8.57c0,.76.08,1.56.15,2.42a20.56,20.56,0,0,1-.05,5.8A4.28,4.28,0,0,1,180.12,201.43Z" style="fill:#fff"/><path d="M257.88,91.78A7.15,7.15,0,0,1,265,98.93v71.81a7.15,7.15,0,0,1-7.15,7.15H182.41a1.81,1.81,0,0,0-1.26.52q.06,5.55.13,11.08c0,2.53.62,5.12.16,7.64-.18.93-.66,1.3-1.32,1.3-2.43,0-7.27-5-8.15-5.82-5-4.62-10.4-8.79-15.66-13.12a5.9,5.9,0,0,0-4.52-1.61H131.15a7.15,7.15,0,0,1-7.15-7.15V98.93a7.15,7.15,0,0,1,7.15-7.15H257.88m0-6H131.15A13.17,13.17,0,0,0,118,98.93v71.81a13.17,13.17,0,0,0,13.15,13.15h21a2.94,2.94,0,0,1,.32.25c1.38,1.14,2.77,2.26,4.17,3.39,3.94,3.2,7.67,6.22,11.24,9.5l.36.35c4.5,4.36,8,7.06,11.85,7.06a7.26,7.26,0,0,0,7.21-6.2,23.49,23.49,0,0,0,.09-6.62c-.07-.79-.14-1.54-.14-2.19l0-1.85,0-3.68h70.67A13.17,13.17,0,0,0,271,170.74V98.93a13.17,13.17,0,0,0-13.15-13.15Z" style="fill:#1e4384"/><path d="M192.09,135.91a42,42,0,0,1,6.15-6.73,35.71,35.71,0,0,0,4.35-4.53,6.75,6.75,0,0,0,1.39-4.17,6.18,6.18,0,0,0-2.65-5.25,11.72,11.72,0,0,0-7-1.92,15.6,15.6,0,0,0-7.49,1.75,16,16,0,0,0-5.52,4.88l-10.85-6.36a25.2,25.2,0,0,1,10.18-8.89,34.28,34.28,0,0,1,15.2-3.13q10.32,0,16.55,4.39a14.1,14.1,0,0,1,6.24,12.2,16.22,16.22,0,0,1-1.21,6.46,17.44,17.44,0,0,1-3,4.71q-1.76,1.92-4.53,4.44a37.08,37.08,0,0,0-4.85,5,7.88,7.88,0,0,0-1.52,4.88H190A13.3,13.3,0,0,1,192.09,135.91Zm-1.43,27.85a7.7,7.7,0,0,1-2.47-5.78,7.52,7.52,0,0,1,2.42-5.7,9.51,9.51,0,0,1,12.38,0,7.48,7.48,0,0,1,2.42,5.7,7.73,7.73,0,0,1-2.46,5.78,9.12,9.12,0,0,1-12.29,0Z" style="fill:#1e4384"/><path d="M387,370.44l-.2.22H387Z" style="fill:#005696;stroke:#1e4384;stroke-miterlimit:10"/><circle cx="321.9" cy="302.71" r="41.7" style="fill:#fff;stroke:#fff;stroke-miterlimit:10;stroke-width:6px"/><path d="M195.13,415.08a104.48,104.48,0,0,1-57.67-17.25l-6.54-4.67A105.34,105.34,0,0,1,107.55,368L106.19,366l30-29.77a30.17,30.17,0,0,1,15-8.15,118.91,118.91,0,0,1,14.08-2,52,52,0,0,1,26.85-94.22c.84-.07,1.75-.1,2.75-.1h.56c1,0,2,.05,2.74.1A52,52,0,0,1,225,326a119.06,119.06,0,0,1,14.09,2,30.08,30.08,0,0,1,15,8.15l30,29.77L282.7,368a105.36,105.36,0,0,1-23.38,25.16l-6.54,4.67A104.41,104.41,0,0,1,195.13,415.08Z" style="fill:#fff"/><path d="M195.41,234.67c.86,0,1.69,0,2.55.09a49,49,0,0,1,16,94h6.14A106.21,106.21,0,0,1,238.45,331a27.22,27.22,0,0,1,13.5,7.35l28.25,28a102.8,102.8,0,0,1-22.72,24.45l-6.35,4.54a102,102,0,0,1-112,0l-6.35-4.54a102.76,102.76,0,0,1-22.71-24.45l28.24-28a27.3,27.3,0,0,1,13.5-7.35,106.54,106.54,0,0,1,18.36-2.21h6.14a49,49,0,0,1,16-94c.86-.07,1.71-.09,2.57-.09h.56m0-6h-.56c-1.06,0-2,0-3,.1a55,55,0,0,0-34,95c-2.48.35-5,.77-7.33,1.27a33.27,33.27,0,0,0-16.47,9l-28.25,28-3.49,3.47,2.72,4.11a108.14,108.14,0,0,0,24,25.87l.09.07.09.07,6.36,4.54.09.07.09.06a108,108,0,0,0,118.62,0l.1-.06.09-.07,6.35-4.54.1-.07.09-.07a108.55,108.55,0,0,0,24-25.87l2.72-4.11-3.49-3.47-28.25-28a33.14,33.14,0,0,0-16.49-9c-2.32-.5-4.84-.92-7.31-1.27a55,55,0,0,0-34-95c-.83-.05-1.83-.1-2.92-.1Z" style="fill:#1e4384"/><path d="M323.44,369.25l69.06-25.66a.12.12,0,0,0,0-.23c-3.22-.36-19.77-4.1-18.05-42.76,1.11-25-11.63-38.48-24.66-45.72a56.16,56.16,0,0,0-52.9-.48C283,261.51,269,275,270.18,300.6c1.8,38.68-15.51,42.4-18.86,42.76a.12.12,0,0,0,0,.23l72.14,25.66" style="fill:#1e4384;stroke:#1e4384;stroke-miterlimit:10;stroke-width:6px"/><path d="M321.91,427.73a98.11,98.11,0,0,1-54.13-16.19l-6.14-4.39a99.19,99.19,0,0,1-21.94-23.62l-1.36-2,28.21-28a28.47,28.47,0,0,1,14.14-7.69,113,113,0,0,1,12.7-1.87,48.89,48.89,0,0,1,25.67-88.31c.78-.06,1.64-.09,2.59-.09h.52c.95,0,1.83.05,2.58.09a48.89,48.89,0,0,1,25.66,88.31,113.46,113.46,0,0,1,12.71,1.87,28.39,28.39,0,0,1,14.13,7.69l28.21,28-1.36,2a99,99,0,0,1-21.94,23.62L376,411.54A98.09,98.09,0,0,1,321.91,427.73Z" style="fill:#fff"/><path d="M322.17,258.53c.8,0,1.58,0,2.39.08a45.89,45.89,0,0,1,15,88.05h5.75a100.7,100.7,0,0,1,17.2,2.07,25.59,25.59,0,0,1,12.65,6.88l26.46,26.27a96.38,96.38,0,0,1-21.28,22.9L374.37,409a95.53,95.53,0,0,1-104.94,0l-5.95-4.25a96.38,96.38,0,0,1-21.28-22.9l26.46-26.27a25.63,25.63,0,0,1,12.65-6.88,100.81,100.81,0,0,1,17.2-2.07h5.75a45.89,45.89,0,0,1,15-88.05c.81-.06,1.6-.08,2.41-.08h.52m0-6h-.52c-1,0-1.92,0-2.82.1a51.89,51.89,0,0,0-32.66,89.15c-2.07.3-4.16.67-6.11,1.08a31.58,31.58,0,0,0-15.62,8.49L238,377.62l-3.5,3.47,2.72,4.1a101.81,101.81,0,0,0,22.61,24.33l.09.07.09.07,5.95,4.25.1.07.09.06a101.52,101.52,0,0,0,111.54,0l.09-.06.1-.07,5.95-4.25.09-.07.09-.07a101.81,101.81,0,0,0,22.61-24.33l2.72-4.1-3.5-3.47-26.46-26.26a31.42,31.42,0,0,0-15.63-8.5c-1.94-.41-4-.78-6.1-1.08a51.89,51.89,0,0,0-32.7-89.15c-.79,0-1.73-.1-2.76-.1Z" style="fill:#1e4384"/><path d="M272.34,300.57c20.27-4.28,33.75-36.36,34.88-43.53a.27.27,0,0,1,.52,0c1.7,6.46,14.29,34.27,63.32,43.56l.94-5.39a24.85,24.85,0,0,0-9-23.72l-4-3.14a72.86,72.86,0,0,0-41.59-15.67h0a37.32,37.32,0,0,0-27.4,10.1h0c-9,8.47-19.62,20.75-18.23,33.09Z" style="fill:#1e4384;stroke:#1e4384;stroke-miterlimit:10;stroke-width:6px"/></svg>