<svg id="icon" xmlns="http://www.w3.org/2000/svg" xmlns:xlink="http://www.w3.org/1999/xlink" viewBox="0 0 512 512"><defs><clipPath id="clip-path"><circle cx="808" cy="256" r="234.67" style="fill:none"/></clipPath><clipPath id="clip-path-2"><circle cx="256" cy="256" r="234.67" style="fill:none"/></clipPath></defs><g style="clip-path:url(#clip-path)"><path d="M522.9,205.19q3.2,3.34,6.39,6.64,5.26-1.71,10.52-3.55-3,5.22-6,10.42l3.75,8.75q-5,0-10.09-.15-4.1,4.42-8.2,8.76-.12-5.24-.26-10.47-4.41-1.77-8.81-3.68,5-2.85,9.93-5.85Q521.51,210.63,522.9,205.19Z" style="fill:#005696"/><path d="M471.49,187.68q3.19,4.08,6.39,8,5.26-.63,10.52-1.56-3,4.71-6,9.33,1.88,4.74,3.75,9.45-5-.93-10.09-2.13-4.09,3.54-8.2,6.89c-.09-3.51-.17-7-.26-10.53q-4.41-2.85-8.82-5.95,5-1.49,9.94-3.32Q470.1,192.8,471.49,187.68Z" style="fill:#005696"/><path d="M506,133.81c2.13,2.36,4.27,4.68,6.4,7q5.25-1.47,10.52-3.11-3,5.12-6,10.18l3.75,8.91q-5.06-.22-10.09-.61-4.11,4.22-8.2,8.3-.14-5.24-.26-10.48-4.41-2-8.82-4.25,5-2.51,9.93-5.21Q504.65,139.18,506,133.81Z" style="fill:#005696"/><path d="M407.58,144q3.19,5.78,6.4,11.34c3.51,1.34,7,2.49,10.52,3.48q-3,3.35-6,6.52,1.88,5.65,3.75,11.23-5-3.28-10.09-7.06c-2.74,1-5.47,1.83-8.2,2.57-.09-3.55-.17-7.11-.26-10.66q-4.41-5.25-8.82-10.93a98.61,98.61,0,0,0,9.93,2.27Q406.21,148.43,407.58,144Z" style="fill:#005696"/></g><circle cx="256" cy="255.96" r="234.67" style="fill:#005696"/><g style="clip-path:url(#clip-path-2)"><path d="M283,87.93c-58-14.66-86.74-47.19-141.52-43.32-53.79,3.79-95.16,40-121.3,69.31V401c26.14-29.28,67.51-71,121.3-74.75C196.27,322.37,225,353.9,283,368.56c44.2,11.16,111.43,13.48,206.51-33.22V54.71C394.44,101.41,327.21,99.09,283,87.93Z" style="fill:#005696"/><path d="M284.4,297.76c-58-14.08-86.75-45.32-141.52-41.61-53.8,3.65-95.17,38.45-121.31,66.57v36.53c26.14-28.12,67.51-62.92,121.31-66.56,54.77-3.72,83.47,27.52,141.52,41.6,44.19,10.72,111.43,12.95,206.5-31.9V265.86C395.83,310.7,328.59,308.47,284.4,297.76Z" style="fill:#fff"/><path d="M284.4,231c-58-14.07-86.75-45.31-141.52-41.6C89.08,193,47.71,227.81,21.57,255.93v36.53c26.14-28.12,67.51-62.92,121.31-66.57,54.77-3.71,83.47,27.53,141.52,41.61,44.19,10.71,111.43,12.95,206.5-31.9V199.07C395.83,243.91,328.59,241.68,284.4,231Z" style="fill:#fff"/><path d="M284.94,161.64c-58.05-14.08-86.75-45.32-141.52-41.61-53.79,3.65-95.17,38.45-121.31,66.57v36.54C48.25,195,89.63,160.21,143.42,156.57c54.77-3.71,83.47,27.53,141.52,41.6,44.19,10.72,111.43,13,206.51-31.89V129.74C396.37,174.59,329.13,172.35,284.94,161.64Z" style="fill:#fff"/><path d="M288.05,90.93C230,76.85,201.3,45.61,146.52,49.32,92.73,53,51.36,87.77,25.22,115.89v36.54c26.14-28.12,67.51-62.93,121.3-66.57,54.78-3.71,83.48,27.53,141.53,41.6,44.19,10.72,111.42,13,206.5-31.89V59C399.47,103.88,332.24,101.65,288.05,90.93Z" style="fill:#fff"/><path d="M185.51,52a120.14,120.14,0,0,0-44-5c-53.79,3.79-95.16,40-121.3,69.32V230.72C46.33,201.44,88.91,169,142.84,169.08c23.92,0,55.85,9.42,69.16,13.4Z" style="fill:#005696"/><path d="M165,145.41q3.19,5.64,6.39,11.48,5.27,2.48,10.52,5.54c-2,1.63-4,3.32-6,5.08q1.88,6,3.75,12.05-5-4.59-10.09-8.61c-2.73.83-5.47,1.78-8.2,2.84-.09-3.55-.17-7.09-.26-10.64q-4.41-4.71-8.82-9c3.31-.07,6.63,0,9.94.26Q163.62,149.87,165,145.41Z" style="fill:#fff"/><path d="M66.56,158.54q3.19,3.48,6.39,7,5.26-1.29,10.52-2.35-3,4.78-6,9.65,1.88,4.57,3.75,9.2-5-.69-10.09-1.17Q67.06,185,63,189.3q-.12-5.24-.26-10.46-4.39-1.86-8.81-3.58,5-3,9.93-5.94Q65.18,163.92,66.56,158.54Z" style="fill:#fff"/><path d="M113.58,108.17q3.21,4.24,6.4,8.64c3.51.06,7,.25,10.52.58q-3,3.9-6,7.94,1.88,5.1,3.75,10.26-5-2.15-10.09-3.91-4.11,3.09-8.2,6.4c-.09-3.51-.17-7-.26-10.53q-4.41-2.86-8.82-5.48,5-2,9.93-3.77Q112.21,113.22,113.58,108.17Z" style="fill:#fff"/><path d="M15.15,147.35l6.39,6.34q5.27-1.92,10.52-3.79-3,5.25-6,10.51l3.75,8.68c-3.36,0-6.73.08-10.09.14l-8.2,9.21c-.09-3.48-.17-7-.26-10.45l-8.82-3q5-3.32,9.94-6.65Q13.77,152.86,15.15,147.35Z" style="fill:#fff"/><path d="M148.12,63.81q3.19,5.11,6.4,10.43Q159.77,75.83,165,78q-3,3-6,6.13,1.88,5.65,3.76,11.39-5.06-3.69-10.1-6.88-4.1,1.93-8.2,4.17c-.08-3.53-.17-7.06-.25-10.59q-4.41-4-8.82-7.71,5-.84,9.93-1.25Q146.75,68.49,148.12,63.81Z" style="fill:#fff"/><path d="M49.68,87.39q3.2,3.31,6.4,6.68c3.5-1.06,7-2.08,10.52-3q-3,5-6,10,1.88,4.47,3.75,9-5.06-.36-10.09-.55c-2.74,2.91-5.47,5.86-8.2,8.82-.09-3.48-.18-7-.26-10.45-2.94-1.1-5.88-2.16-8.82-3.21q5-3.23,9.93-6.36Q48.31,92.85,49.68,87.39Z" style="fill:#fff"/></g><polygon points="231.84 313.25 231.84 293.46 197.2 258.82 197.2 159.07 317.85 159.07 317.85 259.38 282.96 294.26 282.96 313.25 231.84 313.25" style="fill:#005696;stroke:#005696;stroke-miterlimit:10;stroke-width:12px"/><rect x="231.84" y="300.24" width="50.31" height="18.2" style="fill:#c1d730"/><circle cx="257" cy="374.95" r="67.61" style="fill:#c1d730;stroke:#005696;stroke-miterlimit:10;stroke-width:7px"/><circle cx="257" cy="374.95" r="57.51" style="fill:#005696"/><polygon points="257 324.9 271.99 355.28 305.52 360.15 281.26 383.8 286.99 417.19 257 401.42 227.01 417.19 232.74 383.8 208.48 360.15 242.01 355.28 257 324.9" style="fill:#c1d730"/><polygon points="197.2 159.07 317.85 159.07 317.85 259.38 282.96 294.26 231.84 294.26 196.8 258.82 197.2 159.07" style="fill:#c1d730"/><line x1="231.84" y1="295.26" x2="231.84" y2="157.07" style="fill:none;stroke:#005696;stroke-miterlimit:10;stroke-width:6px"/><line x1="282.96" y1="295.26" x2="282.96" y2="157.07" style="fill:none;stroke:#005696;stroke-miterlimit:10;stroke-width:6px"/><line x1="302.1" y1="280.55" x2="302.1" y2="157.07" style="fill:none;stroke:#005696;stroke-miterlimit:10;stroke-width:6px"/><line x1="212.1" y1="278.88" x2="212.1" y2="157.07" style="fill:none;stroke:#005696;stroke-miterlimit:10;stroke-width:6px"/></svg>