<svg id="icon" xmlns="http://www.w3.org/2000/svg" viewBox="0 0 512 512"><path d="M255.32,28.26a227.73,227.73,0,0,1,88.61,437.45A227.73,227.73,0,0,1,166.7,46.15a226.23,226.23,0,0,1,88.62-17.89m0-7c-129.61,0-234.67,105.06-234.67,234.67S125.71,490.59,255.32,490.59,490,385.53,490,255.93,384.92,21.26,255.32,21.26Z" style="fill:#005696"/><path d="M168.31,142.83a37.86,37.86,0,0,1,23.13,67.84c-.73.57-1.51,1.12-2.34,1.67a37.9,37.9,0,0,1-41.61,0c-.81-.53-1.59-1.08-2.35-1.67a38.22,38.22,0,0,1-8.44-9.09,37.87,37.87,0,0,1,31.61-58.73m0-7a44.84,44.84,0,0,0-27.45,80.35c.9.71,1.83,1.37,2.8,2a44.89,44.89,0,0,0,49.29,0c1-.63,1.89-1.29,2.8-2a45.21,45.21,0,0,0,10-10.75,44.87,44.87,0,0,0-37.43-69.6Z" style="fill:#005696"/><path d="M167.31,126.23a54.45,54.45,0,0,1,33.28,97.56c-1.06.83-2.19,1.64-3.38,2.41a54.46,54.46,0,0,1-59.84,0c-1.17-.76-2.3-1.57-3.38-2.41a54.88,54.88,0,0,1-12.14-13.07,54.47,54.47,0,0,1,45.46-84.48m0-7a61.45,61.45,0,0,0-37.6,110.08c1.24,1,2.51,1.88,3.83,2.74a61.49,61.49,0,0,0,67.53,0q2-1.29,3.83-2.74a61.46,61.46,0,0,0-37.59-110.08Z" style="fill:#005696"/><path d="M302.42,109a54.32,54.32,0,0,1,33.21,97.34c-1.05.82-2.18,1.63-3.37,2.41a54.35,54.35,0,0,1-59.7,0c-1.17-.76-2.3-1.57-3.37-2.41A54.33,54.33,0,0,1,302.42,109m0-7A61.33,61.33,0,0,0,264.9,211.85q1.86,1.44,3.82,2.73a61.37,61.37,0,0,0,67.4,0q2-1.29,3.82-2.73a61.66,61.66,0,0,0,13.66-14.71A61.34,61.34,0,0,0,302.42,102Z" style="fill:#005696"/><path d="M301.43,91a72.34,72.34,0,0,1,44.21,129.6c-1.4,1.1-2.91,2.17-4.48,3.2a72.35,72.35,0,0,1-79.49,0c-1.56-1-3.07-2.09-4.5-3.21A72.35,72.35,0,0,1,301.43,91m0-7a79.32,79.32,0,0,0-48.54,142.11c1.59,1.25,3.24,2.42,4.94,3.54a79.38,79.38,0,0,0,87.18,0c1.7-1.12,3.35-2.29,4.94-3.54A79.34,79.34,0,0,0,301.43,84Z" style="fill:#005696"/><path d="M260.8,364.67l91.52,97.11q-7.63,3.8-15.54,7l-89-94.44-5.09-5.4-5.1,5.4-81,85.91q-7.33-3.8-14.44-8.16l82.39-87.41H260.8m3-7H221.56l-90.25,95.75a230.09,230.09,0,0,0,26.84,15.41l84.54-89.69L334.93,477a228.13,228.13,0,0,0,28.83-13.31l-99.94-106Z" style="fill:#005696"/><path d="M350.31,229.57v49.31l10.32-5.55L395,254.87v77.37l-34.34-18.47-10.32-5.55v49.31H135.06V234.06a68,68,0,0,0,69.49-3.1c.67-.44,1.35-.91,2-1.39h50.2a85.31,85.31,0,0,0,89.11,0h4.43m2-7h-8.46a78.3,78.3,0,0,1-85.07,0H204.26q-1.72,1.34-3.55,2.53a61,61,0,0,1-67,0c-1-.63-1.91-1.31-2.84-2a5,5,0,0,0-2.8,4.46v132a5,5,0,0,0,5,5H352.32a5,5,0,0,0,5-5v-39.6l38.42,20.66a4.23,4.23,0,0,0,6.24-3.73V250.23a4.23,4.23,0,0,0-6.24-3.72l-38.42,20.66V227.56a5,5,0,0,0-5-5Z" style="fill:#005696"/></svg>