<svg id="icon" xmlns="http://www.w3.org/2000/svg" xmlns:xlink="http://www.w3.org/1999/xlink" viewBox="0 0 512 512"><defs><clipPath id="clip-path"><circle cx="256" cy="-296.35" r="234.67" style="fill:none"/></clipPath></defs><circle cx="256" cy="255.96" r="234.67" style="fill:#005696"/><g style="clip-path:url(#clip-path)"><path d="M295.6,58.23a23.17,23.17,0,0,1-23.15-23.14V-107.68h-14.2V35.09a23.15,23.15,0,0,1-46.3,0V-165.49a23.17,23.17,0,0,1-6.72,1,23,23,0,0,1-16.36-6.78l-37.39-37.39a29.46,29.46,0,0,1-8.68-21,29.47,29.47,0,0,1,8.68-20.95l32-32a36.87,36.87,0,0,1,26.24-10.87h29.39a49.15,49.15,0,0,1-22.85-41.49A49.12,49.12,0,0,1,265.35-384a49.12,49.12,0,0,1,49.07,49.06,49.15,49.15,0,0,1-22.85,41.49h21.29l.39,0h42.94v-36.21a23.18,23.18,0,0,1,23.15-23.15,23.17,23.17,0,0,1,23.15,23.15v52.87a29.66,29.66,0,0,1-29.63,29.63H318.75V35.09A23.17,23.17,0,0,1,295.6,58.23ZM212-213.67v-31.88L196-229.61Z" style="fill:#fff"/><path d="M265.35-381.49a46.56,46.56,0,0,1,46.57,46.56,46.59,46.59,0,0,1-31.24,44h32.57v0h45.44v-38.71a20.65,20.65,0,0,1,20.65-20.65A20.64,20.64,0,0,1,400-329.68v52.87a27.12,27.12,0,0,1-27.13,27.13H316.25V35.09a20.65,20.65,0,0,1-41.3,0V-110.18H255.74V35.09A20.64,20.64,0,0,1,235.1,55.73h0a20.64,20.64,0,0,1-20.65-20.64V-169.16a20.61,20.61,0,0,1-9.22,2.17,20.57,20.57,0,0,1-14.59-6l-27.37-27.37-10-10a27.13,27.13,0,0,1,0-38.36l32-32a34.64,34.64,0,0,1,24.48-10.13H250a46.59,46.59,0,0,1-31.24-44,46.56,46.56,0,0,1,46.57-46.56m-50.9,173.86v-44l-22,22,22,22m50.9-178.86a51.62,51.62,0,0,0-51.57,51.56,51.62,51.62,0,0,0,17.81,39H209.74a39.36,39.36,0,0,0-28,11.6l-32,32a32.18,32.18,0,0,0,0,45.44l10,10L187.1-169.5A25.49,25.49,0,0,0,205.23-162a25.93,25.93,0,0,0,4.22-.35V35.09a25.65,25.65,0,0,0,51.29,0V-105.18H270V35.09a25.65,25.65,0,0,0,51.3,0V-244.68h51.61A32.16,32.16,0,0,0,405-276.81v-52.87a25.67,25.67,0,0,0-25.65-25.65,25.68,25.68,0,0,0-25.65,25.65V-296H313.25a5.25,5.25,0,0,0-.56,0H299.11a51.65,51.65,0,0,0,17.81-39,51.63,51.63,0,0,0-51.57-51.56ZM199.54-229.61l9.91-9.91v19.82l-9.91-9.91Z" style="fill:#005696"/></g><path d="M382.28,395.82a56.24,56.24,0,0,1-31-9.29c-1.23-.81-2.41-1.65-3.52-2.51a56.55,56.55,0,1,1,91.12-44.75,56.25,56.25,0,0,1-9.36,31.18A56.82,56.82,0,0,1,416.87,384q-1.68,1.31-3.51,2.51A56.29,56.29,0,0,1,382.28,395.82Z" style="fill:#005696"/><path d="M382.28,286.23a53,53,0,0,1,32.43,95c-1,.8-2.13,1.59-3.29,2.35a53.07,53.07,0,0,1-58.29,0c-1.13-.74-2.23-1.53-3.29-2.35A53.41,53.41,0,0,1,338,368.51a53,53,0,0,1,44.26-82.28m0-7a60,60,0,0,0-36.72,107.55c1.21.94,2.45,1.83,3.74,2.67a60.05,60.05,0,0,0,66,0q1.94-1.26,3.75-2.67a60.65,60.65,0,0,0,13.37-14.4,60.06,60.06,0,0,0-50.11-93.15Z" style="fill:#b9d532"/><path d="M337.68,368.16A53.8,53.8,0,0,0,349.59,381l3.33,2.38a53.45,53.45,0,0,0,58.73,0L415,381a54,54,0,0,0,11.91-12.82l-14.81-14.7a14.32,14.32,0,0,0-7.08-3.85,56.4,56.4,0,0,0-9.63-1.16h-3.22a25.69,25.69,0,0,0-8.38-49.28c-.46,0-.9-.05-1.35-.05h-.29c-.45,0-.89,0-1.34.05a25.69,25.69,0,0,0-8.39,49.28h-3.22a56.2,56.2,0,0,0-9.62,1.16,14.23,14.23,0,0,0-7.08,3.85Z" style="fill:#fff"/><path d="M378.87,266.27a69.49,69.49,0,0,0-69.48,69.49" style="fill:none;stroke:#c1d730;stroke-linecap:round;stroke-linejoin:round;stroke-width:7px"/><path d="M376.63,251.31a82.21,82.21,0,0,0-82.2,82.21" style="fill:none;stroke:#c1d730;stroke-linecap:round;stroke-linejoin:round;stroke-width:7px"/><path d="M373.05,234.71a95.23,95.23,0,0,0-95.23,95.23" style="fill:none;stroke:#c1d730;stroke-linecap:round;stroke-linejoin:round;stroke-width:7px"/><path d="M129.72,395.82a56.3,56.3,0,0,1-31.07-9.29c-1.23-.81-2.41-1.65-3.51-2.51a56.89,56.89,0,0,1-12.61-13.57,56.55,56.55,0,1,1,94.37,0A56.82,56.82,0,0,1,164.3,384c-1.12.87-2.3,1.71-3.52,2.51A56.22,56.22,0,0,1,129.72,395.82Z" style="fill:#005696"/><path d="M129.72,286.23a53,53,0,0,1,32.41,95c-1,.8-2.13,1.59-3.28,2.35a53.07,53.07,0,0,1-58.29,0c-1.14-.74-2.24-1.53-3.29-2.35a53,53,0,0,1,32.45-95m0-7a60.06,60.06,0,0,0-50.11,93.15A60.65,60.65,0,0,0,93,386.78q1.81,1.41,3.75,2.67a60.05,60.05,0,0,0,66,0c1.29-.84,2.53-1.73,3.74-2.67a60.49,60.49,0,0,0,13.38-14.4,60.06,60.06,0,0,0-50.1-93.15Z" style="fill:#b9d532"/><path d="M174.32,368.16A53.8,53.8,0,0,1,162.41,381l-3.33,2.38a53.45,53.45,0,0,1-58.73,0L97,381A54,54,0,0,1,85.1,368.16l14.81-14.7a14.32,14.32,0,0,1,7.08-3.85,56.4,56.4,0,0,1,9.63-1.16h3.22a25.69,25.69,0,0,1,8.38-49.28c.46,0,.9-.05,1.35-.05h.29c.45,0,.89,0,1.34.05a25.69,25.69,0,0,1,8.39,49.28h3.22a56.2,56.2,0,0,1,9.62,1.16,14.23,14.23,0,0,1,7.08,3.85Z" style="fill:#fff"/><path d="M133.13,266.27a69.49,69.49,0,0,1,69.48,69.49" style="fill:none;stroke:#c1d730;stroke-linecap:round;stroke-linejoin:round;stroke-width:7px"/><path d="M135.37,251.31a82.21,82.21,0,0,1,82.2,82.21" style="fill:none;stroke:#c1d730;stroke-linecap:round;stroke-linejoin:round;stroke-width:7px"/><path d="M139,234.71a95.23,95.23,0,0,1,95.23,95.23" style="fill:none;stroke:#c1d730;stroke-linecap:round;stroke-linejoin:round;stroke-width:7px"/><path d="M256,164.87a56.27,56.27,0,0,1-31.06-9.29c-1.23-.81-2.41-1.65-3.51-2.51a57.14,57.14,0,0,1-12.62-13.57,56.58,56.58,0,1,1,81.78,13.56c-1.12.87-2.3,1.71-3.52,2.51A56.23,56.23,0,0,1,256,164.87Z" style="fill:#005696"/><path d="M256,55.28a53,53,0,0,1,32.42,95c-1,.8-2.13,1.59-3.29,2.35a53,53,0,0,1-58.28,0c-1.14-.74-2.24-1.53-3.29-2.35a53,53,0,0,1,32.44-95m0-7a60,60,0,0,0-36.73,107.55q1.81,1.41,3.74,2.67a60.07,60.07,0,0,0,66,0q1.92-1.26,3.74-2.67A60.05,60.05,0,0,0,256,48.28Z" style="fill:#b9d532"/><path d="M300.61,137.21A53.8,53.8,0,0,1,288.7,150l-3.33,2.38a53.46,53.46,0,0,1-58.74,0L223.3,150a53.8,53.8,0,0,1-11.91-12.82l14.81-14.7a14.32,14.32,0,0,1,7.08-3.85,56.4,56.4,0,0,1,9.63-1.16h3.22a25.68,25.68,0,0,1,8.38-49.28c.45,0,.9,0,1.35,0h.29c.45,0,.89,0,1.34,0a25.68,25.68,0,0,1,8.38,49.28h3.22a56.29,56.29,0,0,1,9.63,1.16,14.32,14.32,0,0,1,7.08,3.85Z" style="fill:#fff"/><path d="M305.13,161.2a69.49,69.49,0,0,1-98.26,0" style="fill:none;stroke:#c1d730;stroke-linecap:round;stroke-linejoin:round;stroke-width:7px"/><path d="M314.13,173.36a82.22,82.22,0,0,1-116.26,0" style="fill:none;stroke:#c1d730;stroke-linecap:round;stroke-linejoin:round;stroke-width:7px"/><path d="M323.33,187.63a95.21,95.21,0,0,1-134.66,0" style="fill:none;stroke:#c1d730;stroke-linecap:round;stroke-linejoin:round;stroke-width:7px"/></svg>