<svg x="0px" y="0px" viewBox="0 0 484 78.7">


	<path fill="#FFFFFF" d="M201.9,4.5c3.3,0,5.9,0.3,10.3,0.3c4.7-0.1,6.9-0.2,8.8-0.2c0.2,0.2,0.2,1.1,0,1.3
	c-2.1,0.4-2.7,0.5-3.4,0.8c-1.1,0.5-1.4,1.4-0.8,3.6c2,8.3,7.1,25.6,9.9,35c0,0,0.2-0.1,0.2-0.2c2.9-8.1,11.4-32.2,13-38.4
	c0.6,0.1,2.6,0,3.1-0.1c1.5,6.3,10.8,32.1,13.4,38.9c0.1,0,0.2-0.1,0.3-0.1c2.1-6.6,8.1-26.4,9.5-33.3c0.5-2.6,0.7-4.8-1.5-5.4
	c-1.3-0.3-2.3-0.6-4.7-0.9c-0.2-0.3-0.3-1.1,0-1.3c1.8,0,5.8,0.2,9,0.2c4.5,0,6.7-0.2,8.3-0.2c0.3,0.2,0.3,1.1,0,1.3
	c-2,0.4-3.2,0.7-4,1c-1.8,0.8-2.6,2.1-3.8,5.4c-3.3,9.6-11.3,35.5-13.6,44c-0.4,0-2.7-0.1-3.2,0.1c-2.1-7.3-9.6-28.7-13.4-39.2
	c-0.1,0-0.2,0-0.3,0.2c-3,8.7-11.3,31.9-13.3,38.9c-0.3-0.1-2.9-0.1-3.4,0.1c-2.4-10.2-9.6-35.8-12.3-43.6
	c-1.4-4.3-2.3-5.4-4.6-6.1c-1.3-0.3-2.2-0.5-3.8-0.8C201.6,5.7,201.6,4.7,201.9,4.5z"/>
	<path fill="#FFFFFF" d="M271.6,19.3c1.4,0,4.8,0.2,8,0.2h12.5c3.4,0,5.4-0.1,6.6-0.3c0,0,0.2,0.2,0.2,0.2
	c-0.6,1.8-1.2,5.9-1.2,8.6c-0.2,0.2-1.1,0.2-1.3,0c-0.2-1.3-0.4-3-0.8-3.8c-0.4-1.7-0.8-2.4-3.1-2.6c-1.5-0.2-8.1-0.1-8.9,0
	c-0.4,0.1-0.7,0.8-0.7,1.1c-0.1,4.1-0.2,11.5-0.1,12.8c0,0.2,0.2,0.4,0.3,0.4c2.8,0,7.1,0,8.8-0.1c1.8-0.1,2.2-1.2,2.6-2.4
	c0.2-0.8,0.4-1.6,0.5-2.3c0.2-0.1,1.3-0.1,1.3,0.1c-0.1,0.8-0.3,4.3-0.3,5.9c0,1.2,0.2,4.5,0.2,5.9c-0.2,0.2-1.2,0.2-1.4,0
	c-0.2-1.2-0.3-1.9-0.5-2.5c-0.3-0.9-0.7-1.9-2.3-2.1c-1.8-0.2-6.4-0.2-8.9-0.2c-0.1,0-0.3,0.4-0.3,0.5c0,1.5,0,8.1,0.1,11.7
	c0.1,1.9,1,2.7,1.4,2.8c1.4,0.3,4.1,0.4,8,0.4c3.4,0,4.2-0.8,5.1-1.8c1.3-1.5,2.5-3.7,3.4-6c0.2-0.1,1.2,0.2,1.2,0.5
	c-0.2,1.4-1.8,6.8-2.9,8.9c-0.2,0.4-0.7,0.6-2.3,0.6c-3.2,0-8.4-0.2-17.4-0.2c-3.8,0-6.8,0.3-9.4,0.3c-0.2-0.2-0.2-1.2,0-1.3
	c1.6-0.1,3.5-0.3,4.6-0.7c1.4-0.4,1.9-0.9,2-3.3c0.1-2.2,0.1-7.9,0.1-14.8c0-5.7-0.1-10.6-0.1-11.7c-0.2-1.9-0.5-2.5-1.9-3
	c-0.8-0.2-2.3-0.5-3.3-0.6C271.3,20.5,271.3,19.4,271.6,19.3z"/>
	<path fill="#FFFFFF" d="M312,53.4c1.5,1.2,3.8,1.8,5.9,1.8c3.7,0,6.9-1.9,6.9-6.3c0-3.4-1.6-5.7-8.2-9.1c-6.1-3.3-9-6.1-9-11.3
	c0-6.6,6-10,12.5-10c2.8,0,4.2,0.2,5.7,0.4c1.3,0.2,2.9,0.4,3.5,0.4c-0.3,1.8-0.8,5.7-1,8.8c-0.2,0.2-1.2,0.2-1.3,0
	c-0.2-3.7-1.1-5.5-2.4-6.6c-1.2-1-3.2-1.5-5.4-1.5c-4.3,0-6.3,2.9-6.3,6.1c0,3.2,1.7,5.2,4.1,6.6c2.8,1.7,5.1,2.8,7.6,4.3
	c3.1,1.8,6,4.3,6,8.9c0,5.8-5.3,10.9-13.8,10.9c-3.4,0-7.9-1.1-9.2-1.8c-0.5-0.8-1.2-7.2-1.3-9.3c0.1-0.2,1-0.4,1.2-0.3
	C308.7,49.6,310.2,52.2,312,53.4z"/>
	<path fill="#FFFFFF" d="M345.3,54.2c1.8-0.3,2.3-1.3,2.4-4.2c0.2-2.6,0.3-18.6,0.3-28c0-0.2-0.3-0.4-0.4-0.4c-1.1-0.1-5.8,0-7,0.1
	c-1.3,0.1-2.3,0.8-3.1,2.2c-0.8,1.3-1.5,3.3-2.4,5.7c-0.2,0-1.2-0.2-1.3-0.3c0.5-2.4,1-7.8,1.2-10.3c0-0.1,0.2-0.2,0.3-0.1
	c1.6,0.7,3.2,0.8,4.6,0.8h23c2,0,3.3,0.1,5.3-0.7c0.1,0,0.3,0.1,0.3,0.2c-0.6,2.1-0.9,7.4-1.2,10.5c-0.2,0.2-1.3,0.3-1.3,0
	c-0.3-2.4-0.7-4.3-1.2-5.4c-0.7-1.7-1.6-2.2-2.9-2.3c-2.2-0.2-6.4-0.2-7.7-0.2c-0.2,0.1-0.2,0.3-0.2,0.5c0,8.4,0,26.3,0.2,29.4
	c0.1,1.3,0.6,2.3,1.9,2.7c0.9,0.2,2,0.3,3.6,0.6c0.2,0.1,0.2,1.2-0.1,1.3c-1.8,0-5.4-0.3-9.3-0.3c-4.3,0-7.5,0.3-9.1,0.3
	c-0.2-0.2-0.2-1.2,0-1.3C343.2,54.5,344.5,54.4,345.3,54.2z"/>
	<path fill="#FFFFFF" d="M371.5,19.3c1.4,0,4.8,0.2,8,0.2H392c3.4,0,5.4-0.1,6.6-0.3c0,0,0.2,0.2,0.2,0.2c-0.6,1.8-1.2,5.9-1.2,8.6
	c-0.2,0.2-1.1,0.2-1.3,0c-0.2-1.3-0.4-3-0.7-3.8c-0.4-1.7-0.8-2.4-3.1-2.6c-1.5-0.2-8.1-0.1-8.9,0c-0.4,0.1-0.7,0.8-0.7,1.1
	c-0.1,4.1-0.2,11.5-0.1,12.8c0,0.2,0.2,0.4,0.3,0.4c2.8,0,7.1,0,8.8-0.1c1.8-0.1,2.2-1.2,2.6-2.4c0.3-0.8,0.4-1.6,0.5-2.3
	c0.2-0.1,1.3-0.1,1.3,0.1c-0.1,0.8-0.3,4.3-0.3,5.9c0,1.2,0.2,4.5,0.2,5.9c-0.3,0.2-1.2,0.2-1.4,0c-0.2-1.2-0.3-1.9-0.5-2.5
	c-0.3-0.9-0.7-1.9-2.3-2.1c-1.8-0.2-6.4-0.2-8.9-0.2c-0.1,0-0.2,0.4-0.2,0.5c0,1.5,0,8.1,0.1,11.7c0.1,1.9,1,2.7,1.4,2.8
	c1.4,0.3,4.1,0.4,8,0.4c3.4,0,4.2-0.8,5.1-1.8c1.3-1.5,2.5-3.7,3.4-6c0.3-0.1,1.2,0.2,1.2,0.5c-0.2,1.4-1.8,6.8-2.9,8.9
	c-0.2,0.4-0.7,0.6-2.3,0.6c-3.2,0-8.4-0.2-17.3-0.2c-3.8,0-6.8,0.3-9.4,0.3c-0.2-0.2-0.2-1.2,0-1.3c1.6-0.1,3.5-0.3,4.6-0.7
	c1.4-0.4,1.9-0.9,2-3.3c0.1-2.2,0.1-7.9,0.1-14.8c0-5.7-0.1-10.6-0.1-11.7c-0.2-1.9-0.5-2.5-1.9-3c-0.8-0.2-2.3-0.5-3.3-0.6
	C371.3,20.5,371.3,19.4,371.5,19.3z"/>
	<path fill="#FFFFFF" d="M405.4,19.3c1.4,0,5.3,0.2,7.8,0.2h10.4c7.3,0,10.6,3.9,10.6,8.8c0,4.8-3.8,7.8-7.5,9.3
	c-0.1,0.1,0,0.3,0.1,0.4c2,3.3,7.4,11.3,10.4,14.1c2.2,2.3,3.3,2.3,5.8,2.7c0.1,0,0,1.3-0.2,1.3c-2.5,0.2-8,0-9.8-0.8
	c-0.9-0.3-1.8-1-2.8-2.2c-2.3-2.6-6.4-9.3-8.7-12.7c-0.5-0.8-0.9-1-1.9-1.2c-0.8-0.1-1.9-0.1-2.8-0.1c-0.2,0-0.2,0.3-0.2,0.4
	c0,3.3,0.1,8.9,0.2,11.2c0.2,2.5,0.7,2.9,1.8,3.3c0.8,0.2,1.8,0.4,3.3,0.6c0.2,0.2,0.1,1.2-0.1,1.3c-1.3,0-4.8-0.3-8.8-0.3
	c-4.3,0-7.1,0.3-8.3,0.3c-0.2-0.1-0.2-1.3,0-1.3c1.3-0.2,3-0.3,3.6-0.5c1.4-0.3,2-1.1,2.2-3.3c0.1-1.6,0.1-9.3,0.1-12.4
	c0-4.8,0.1-12.8-0.1-14.8c-0.1-1.6-0.8-2-1.8-2.3c-0.8-0.2-2.3-0.5-3.6-0.6C405,20.5,405.1,19.4,405.4,19.3z M416.8,22.3
	c-0.1,1.8-0.2,9.7-0.2,14.5c0,0.3,0.1,0.5,0.4,0.5c1.3,0.1,5.1,0.1,6.6-0.2c2.2-0.6,4.3-2.3,4.3-7.2c0-5.4-2.8-8.6-8.8-8.6
	c-0.6,0-1.4,0.1-1.9,0.2C417,21.6,416.8,22.1,416.8,22.3z"/>
	<path fill="#FFFFFF" d="M441.7,19.2c1.1,0,5.1,0.2,7.8,0.2c1.3,0,3.3,0,3.9-0.1c0.2,0.5,0.6,1.3,2.1,3.2
	c6.3,7.9,18.2,22.2,20.9,25.3c0.1,0.1,0.2-0.1,0.2-0.2c0-7.8-0.2-19.4-0.4-23.3c-0.1-1.8-0.8-3-2.5-3.3c-0.8-0.2-1.4-0.3-3.1-0.5
	c-0.1-0.2-0.1-1.2,0-1.3c1.5,0,3.9,0.2,7.1,0.2c1.9,0,5.6-0.2,6.3-0.2c0.1,0.2,0.1,1.1,0,1.2c-1,0.2-2.3,0.3-2.9,0.6
	c-1.5,0.4-1.7,1.6-1.8,3c-0.3,4.5-0.4,16.7-0.4,24.1c0,2.7,0.1,6.1,0.2,7.9c-1.3-0.1-3.3,0-4.4,0.1c-2.6-3.8-21-26.8-23.8-30.1
	c-0.1-0.1-0.2-0.1-0.2,0c-0.1,6,0,20.9,0.1,24.3c0.2,2.8,0.9,3.2,2.2,3.8c0.8,0.3,2.6,0.6,3.8,0.7c0.2,0.1,0.2,1.2,0,1.3
	c-1.2,0-4.8-0.3-7.8-0.3c-2.9,0-5.4,0.3-6.7,0.3c-0.2-0.2-0.2-1.3,0-1.3c0.8-0.1,2.4-0.2,3.7-0.7c1.4-0.5,1.7-1.8,1.8-3.6
	c0.3-2.7,0.5-12.9,0.5-25.7c0-1.1-0.3-2-1.3-2.8c-1.1-0.9-2.2-1.3-5.3-1.5C441.6,20.4,441.6,19.4,441.7,19.2z"/>


	<path fill="#FFFFFF" d="M218.3,65.1c0.3,0,1,0.1,1.8,0.1c1.1,0,1.6-0.1,1.9-0.1c0,0,0,0.3,0,0.3l-0.7,0.1c-0.1,0-0.2,0.2-0.2,0.4
	c0.1,0.7,1.6,5.3,1.8,5.9c0,0,0,0,0,0c0.2-0.5,0.7-2,1.3-4c0.3-0.9,0.5-1.5,0.6-2.2c0.2,0,0.6,0,0.8,0c0.1,0.2,0.2,0.6,0.4,1.3
	c0.5,1.3,1.7,4.5,1.9,5c0,0,0,0,0.1,0c0.2-0.5,1.5-4.6,1.7-5.5c0.1-0.5,0-0.7-0.3-0.8c-0.2-0.1-0.5-0.1-0.8-0.2
	c-0.1-0.1,0-0.3,0-0.3c0.1,0,1,0.1,1.7,0.1c0.8,0,1.3-0.1,1.5-0.1c0.1,0,0.1,0.3,0,0.3l-0.6,0.1c-0.4,0.1-0.6,0.3-1,1.2
	c-0.3,0.9-1.2,3.6-1.8,5.4c-0.2,0.7-0.3,1.1-0.5,1.7c-0.2,0-0.7,0-0.9,0c-0.6-1.8-1.8-4.7-2.3-6.2h-0.1c-0.5,1.5-1.6,4.7-2,6.2
	c-0.1,0-0.7,0-0.9,0c-0.1-0.5-0.3-1.2-0.5-1.9c-0.6-1.8-1.3-4.1-1.8-5.5c-0.2-0.7-0.4-0.9-0.8-0.9c-0.2-0.1-0.4-0.1-0.7-0.1
	C218.2,65.4,218.3,65.2,218.3,65.1z"/>
	<path fill="#FFFFFF" d="M236,72.4c0.6-1.3,2.2-5.3,2.6-6.4c0.1-0.3,0.2-0.6,0.2-0.8c0,0,0.2,0,0.5,0c0.3,0,0.4,0,0.5,0
	c0,0.1,0.1,0.4,0.2,0.7c0.3,0.9,1.9,5.5,2.4,6.6c0.4,0.9,0.5,1,1.5,1.1c0,0,0,0.3,0,0.3c-0.3,0-1-0.1-1.7-0.1
	c-0.9,0-1.6,0.1-2,0.1c0,0,0-0.3,0-0.3c0.3,0,0.5-0.1,0.7-0.1c0.3-0.1,0.3-0.3,0.2-0.4c-0.2-0.7-0.6-1.8-0.9-2.5
	c0,0-0.1-0.1-0.1-0.1c-0.1,0-0.5,0-1.3,0c-0.9,0-1.1,0-1.2,0c-0.1,0-0.2,0.1-0.2,0.1c-0.3,0.7-0.8,1.9-0.9,2.3
	c0,0.2,0,0.5,0.4,0.6c0.2,0.1,0.4,0.1,0.7,0.1c0,0,0,0.3,0,0.3c-0.3,0-1.2-0.1-1.8-0.1c-0.7,0-1.2,0.1-1.5,0.1c0,0,0-0.3,0-0.3
	C235.3,73.4,235.5,73.3,236,72.4z M237.7,69.7C237.7,69.8,237.7,69.8,237.7,69.7c0.2,0.1,0.2,0.1,0.9,0.1c0.4,0,1,0,1.2,0
	c0,0,0.1,0,0-0.1c-0.3-1-0.8-2.4-1-3h-0.1L237.7,69.7z"/>
	<path fill="#FFFFFF" d="M250,73.2c0.4,0.3,0.9,0.4,1.4,0.4c0.9,0,1.6-0.5,1.6-1.5c0-0.8-0.4-1.3-1.9-2.2c-1.4-0.8-2.1-1.4-2.1-2.7
	c0-1.6,1.4-2.4,3-2.4c0.7,0,1,0.1,1.3,0.1c0.3,0,0.7,0.1,0.8,0.1c-0.1,0.4-0.2,1.3-0.2,2.1c0,0-0.3,0.1-0.3,0
	c-0.1-0.9-0.3-1.3-0.6-1.6c-0.3-0.2-0.8-0.4-1.3-0.4c-1,0-1.5,0.7-1.5,1.4s0.4,1.2,1,1.6c0.7,0.4,1.2,0.7,1.8,1
	c0.7,0.4,1.4,1,1.4,2.1c0,1.4-1.3,2.6-3.3,2.6c-0.8,0-1.9-0.3-2.2-0.4c-0.1-0.2-0.3-1.7-0.3-2.2c0,0,0.2-0.1,0.3-0.1
	C249.2,72.3,249.6,72.9,250,73.2z"/>
	<path fill="#FFFFFF" d="M259.5,65.1c0.4,0,1.2,0.1,1.9,0.1c0.8,0,1.7-0.1,2-0.1c0.1,0,0,0.3,0,0.3l-0.7,0.1
	c-0.3,0.1-0.4,0.2-0.4,0.6c0,0.5,0,1.4,0,2.7c0,0,0,0.1,0.1,0.1c0.1,0,0.6,0,2.2,0c1.3,0,1.9,0,2.2,0c0.1,0,0.1,0,0.1-0.1
	c0-0.7,0-2.2,0-2.7c0-0.4-0.2-0.6-0.5-0.7c-0.2,0-0.5-0.1-0.8-0.1c0,0,0-0.3,0-0.3c0.4,0,1,0.1,1.9,0.1c1.1,0,1.7-0.1,2-0.1
	c0.1,0,0.1,0.3,0,0.3c-0.3,0-0.6,0.1-0.7,0.1c-0.3,0.1-0.5,0.2-0.5,0.7c0,0.6,0,1.4,0,3.2c0,1.2,0,2.7,0.1,3.2
	c0,0.4,0.1,0.6,0.4,0.7c0.3,0.1,0.4,0.1,0.9,0.1c0,0,0,0.3,0,0.3c-0.5,0-1.2-0.1-2.1-0.1c-0.8,0-1.4,0-1.8,0.1c0,0,0-0.3,0-0.3
	c0.3,0,0.6-0.1,0.7-0.1c0.3-0.1,0.4-0.3,0.4-0.7c0-0.4,0-2.1,0-2.9c0-0.1,0-0.1-0.1-0.1c-0.2,0-1.3,0-2.1,0c-1.1,0-2.2,0-2.3,0
	c0,0-0.1,0.1-0.1,0.1c0,0.8,0,2.4,0,2.8c0,0.5,0.1,0.8,0.4,0.9c0.2,0.1,0.4,0.1,0.8,0.2c0,0,0,0.3,0,0.3c-0.6,0-1.2-0.1-2-0.1
	c-1.1,0-1.6,0.1-2,0.1c0,0-0.1-0.3,0-0.3c0.3,0,0.7-0.1,0.9-0.1c0.4-0.1,0.4-0.3,0.5-1c0-0.5,0-1.8,0-3.1c0-1.3,0-2.9,0-3.2
	c0-0.4-0.2-0.5-0.4-0.6c-0.3-0.1-0.5-0.1-0.9-0.1C259.5,65.4,259.5,65.2,259.5,65.1z"/>
	<path fill="#FFFFFF" d="M274.6,65.1c0.3,0,1.2,0.1,1.9,0.1c0.7,0,1.6-0.1,2-0.1c0.1,0,0.1,0.3,0,0.3c-0.2,0-0.6,0.1-0.7,0.1
	c-0.3,0.1-0.4,0.3-0.4,0.7c0,0.6,0,1.9,0,3.1c0,1.5,0,2.8,0,3.3c0,0.4,0.1,0.6,0.4,0.8c0.2,0.1,0.5,0.1,0.9,0.2c0,0,0,0.3,0,0.3
	c-0.3,0-1.2-0.1-2-0.1c-0.9,0-1.4,0.1-2,0.1c0,0-0.1-0.3,0-0.3c0.3,0,0.6-0.1,0.8-0.1c0.3-0.1,0.4-0.3,0.5-0.7c0-0.4,0-2.4,0-3.7
	c0-1.1,0-2.2,0-2.8c0-0.4-0.1-0.6-0.4-0.7c-0.2-0.1-0.5-0.1-0.9-0.1C274.5,65.4,274.6,65.2,274.6,65.1z"/>
	<path fill="#FFFFFF" d="M283.4,65.1c0.3,0,1.2,0.1,1.8,0.1c0.3,0,0.8,0,0.9,0c0,0.1,0.1,0.3,0.5,0.8c1.5,1.9,4.3,5.3,5,6
	c0,0,0,0,0.1,0c0-1.8,0-4.6-0.1-5.5c0-0.4-0.2-0.7-0.6-0.8c-0.2-0.1-0.3-0.1-0.7-0.1c0-0.1,0-0.3,0-0.3c0.4,0,0.9,0.1,1.7,0.1
	c0.5,0,1.3-0.1,1.5-0.1c0,0,0,0.3,0,0.3c-0.2,0-0.5,0.1-0.7,0.1c-0.4,0.1-0.4,0.4-0.4,0.7c-0.1,1.1-0.1,4-0.1,5.7
	c0,0.6,0,1.4,0,1.9c-0.3,0-0.8,0-1.1,0c-0.6-0.9-5-6.4-5.7-7.2c0,0,0,0,0,0c0,1.4,0,4.9,0,5.7c0,0.7,0.2,0.8,0.5,0.9
	c0.2,0.1,0.6,0.1,0.9,0.2c0.1,0,0,0.3,0,0.3c-0.3,0-1.1-0.1-1.8-0.1c-0.7,0-1.3,0.1-1.6,0.1c-0.1,0-0.1-0.3,0-0.3
	c0.2,0,0.6-0.1,0.9-0.2c0.3-0.1,0.4-0.4,0.4-0.9c0.1-0.6,0.1-3,0.1-6.1c0-0.3-0.1-0.5-0.3-0.7c-0.3-0.2-0.5-0.3-1.2-0.4
	C283.4,65.4,283.4,65.2,283.4,65.1z"/>
	<path fill="#FFFFFF" d="M306.8,73.6c-0.4,0.1-1.9,0.5-3.2,0.5c-3.2,0-4.9-1.6-4.9-4.6c0-1.8,0.9-3.3,2.5-4c0.8-0.4,1.7-0.5,3-0.5
	c0.5,0,1.3,0.1,1.7,0.1c0.4,0.1,0.8,0.1,1,0.1c-0.1,0.6-0.2,1.6-0.3,2.3c0,0-0.2,0.1-0.3,0c-0.2-1.1-0.3-1.5-0.8-1.8
	c-0.5-0.3-1.1-0.4-1.8-0.4c-2.2,0-3.3,1.6-3.3,4c0,2.6,1.3,4.3,3.7,4.3c0.4,0,0.7-0.1,0.9-0.2c0.1-0.1,0.2-0.3,0.3-0.5
	c0-0.4,0.1-1.2,0-1.7c0-0.5-0.2-0.6-0.5-0.7l-0.8-0.1c0-0.1,0-0.3,0-0.3c0.5,0,1.4,0,2,0c0.7,0,1.2,0,1.5,0c0,0,0.1,0.3,0,0.3
	l-0.5,0.1c-0.3,0.1-0.3,0.2-0.3,0.8c0,0.5,0,1.3,0,1.6c0,0.2,0.1,0.3,0.3,0.4C306.9,73.4,306.9,73.5,306.8,73.6z"/>
	<path fill="#FFFFFF" d="M314.7,73.4c0.4-0.1,0.6-0.3,0.6-1c0-0.6,0.1-4.4,0.1-6.7c0,0-0.1-0.1-0.1-0.1c-0.3,0-1.4,0-1.7,0
	c-0.3,0-0.6,0.2-0.7,0.5c-0.2,0.3-0.4,0.8-0.6,1.3c0,0-0.3,0-0.3-0.1c0.1-0.6,0.2-1.9,0.3-2.5c0,0,0,0,0.1,0
	c0.4,0.2,0.8,0.2,1.1,0.2h5.5c0.5,0,0.8,0,1.3-0.2c0,0,0.1,0,0.1,0.1c-0.1,0.5-0.2,1.8-0.3,2.5c0,0-0.3,0.1-0.3,0
	c-0.1-0.6-0.2-1-0.3-1.3c-0.2-0.4-0.4-0.5-0.7-0.6c-0.5,0-1.5-0.1-1.8,0c0,0-0.1,0.1-0.1,0.1c0,2,0,6.2,0.1,7
	c0,0.3,0.1,0.5,0.5,0.6c0.2,0.1,0.5,0.1,0.9,0.1c0.1,0,0,0.3,0,0.3c-0.4,0-1.3-0.1-2.2-0.1c-1,0-1.8,0.1-2.2,0.1
	c-0.1,0-0.1-0.3,0-0.3C314.2,73.5,314.5,73.5,314.7,73.4z"/>
	<path fill="#FFFFFF" d="M326.3,72.8c-0.9-0.9-1.2-2.2-1.2-3.3c0-1,0.3-1.9,0.8-2.7c0.8-1.2,2.4-1.9,3.9-1.9c2.9,0,4.4,2.1,4.4,4.4
	c0,1.2-0.3,2.1-0.9,2.9c-0.8,1.2-2.2,1.8-3.8,1.8C328.1,74.1,327,73.5,326.3,72.8z M332.6,69.8c0-2.1-1-4.4-3.3-4.4
	c-2,0-2.7,1.8-2.7,3.7c0,2.1,1,4.5,3.4,4.5C332,73.6,332.6,71.7,332.6,69.8z"/>
	<path fill="#FFFFFF" d="M339.3,65.1c0.3,0,1.2,0.1,1.8,0.1c0.3,0,0.8,0,0.9,0c0,0.1,0.1,0.3,0.5,0.8c1.5,1.9,4.3,5.3,5,6
	c0,0,0,0,0.1,0c0-1.8,0-4.6-0.1-5.5c0-0.4-0.2-0.7-0.6-0.8c-0.2-0.1-0.3-0.1-0.7-0.1c0-0.1,0-0.3,0-0.3c0.4,0,0.9,0.1,1.7,0.1
	c0.5,0,1.3-0.1,1.5-0.1c0,0,0,0.3,0,0.3c-0.2,0-0.5,0.1-0.7,0.1c-0.4,0.1-0.4,0.4-0.4,0.7c-0.1,1.1-0.1,4-0.1,5.7
	c0,0.6,0,1.4,0,1.9c-0.3,0-0.8,0-1.1,0c-0.6-0.9-5-6.4-5.7-7.2c0,0,0,0,0,0c0,1.4,0,4.9,0,5.7c0,0.7,0.2,0.8,0.5,0.9
	c0.2,0.1,0.6,0.1,0.9,0.2c0.1,0,0,0.3,0,0.3c-0.3,0-1.1-0.1-1.8-0.1c-0.7,0-1.3,0.1-1.6,0.1c-0.1,0-0.1-0.3,0-0.3
	c0.2,0,0.6-0.1,0.9-0.2c0.3-0.1,0.4-0.4,0.4-0.9c0.1-0.6,0.1-3,0.1-6.1c0-0.3-0.1-0.5-0.3-0.7c-0.3-0.2-0.5-0.3-1.2-0.4
	C339.2,65.4,339.2,65.2,339.3,65.1z"/>
	<path fill="#FFFFFF" d="M361.2,65.1c0.3,0,0.8,0.1,1.9,0.1c1,0,1.6-0.1,1.9-0.1c0.1,0.1,0,0.2,0,0.3c-0.3,0-0.5,0.1-0.7,0.1
	c-0.3,0.1-0.4,0.2-0.4,0.8c0,1.1,0,3.4,0,4.1c0.1,1,0.2,1.5,0.5,1.9c0.4,0.7,1.2,1,2.1,1c1.2,0,2.2-0.4,2.4-2.5
	c0.1-1.1,0.1-2.8,0-4.3c0-0.8-0.3-0.9-0.7-1c-0.2,0-0.4-0.1-0.7-0.1c-0.1-0.1-0.1-0.3,0-0.3c0.2,0,0.9,0.1,1.7,0.1
	c0.6,0,1.2-0.1,1.4-0.1c0.1,0,0.1,0.2,0,0.3c-0.2,0-0.5,0.1-0.7,0.1c-0.3,0.1-0.5,0.3-0.5,1.1c-0.1,3.2-0.1,4-0.3,5
	c-0.4,1.9-1.9,2.5-3.4,2.5c-2.1,0-3.2-0.9-3.4-2.6c-0.1-0.9,0-4.2-0.1-5.1c0-0.4-0.1-0.7-0.4-0.7c-0.2,0-0.6-0.1-0.8-0.1
	C361.1,65.4,361.1,65.2,361.2,65.1z"/>
	<path fill="#FFFFFF" d="M375.2,65.1c0.3,0,1.2,0.1,1.8,0.1c0.3,0,0.8,0,0.9,0c0,0.1,0.1,0.3,0.5,0.8c1.5,1.9,4.3,5.3,5,6
	c0,0,0,0,0.1,0c0-1.8,0-4.6-0.1-5.5c0-0.4-0.2-0.7-0.6-0.8c-0.2-0.1-0.3-0.1-0.7-0.1c0-0.1,0-0.3,0-0.3c0.4,0,0.9,0.1,1.7,0.1
	c0.5,0,1.3-0.1,1.5-0.1c0,0,0,0.3,0,0.3c-0.2,0-0.5,0.1-0.7,0.1c-0.4,0.1-0.4,0.4-0.4,0.7c-0.1,1.1-0.1,4-0.1,5.7
	c0,0.6,0,1.4,0,1.9c-0.3,0-0.8,0-1.1,0c-0.6-0.9-5-6.4-5.7-7.2c0,0,0,0,0,0c0,1.4,0,4.9,0,5.7c0,0.7,0.2,0.8,0.5,0.9
	c0.2,0.1,0.6,0.1,0.9,0.2c0.1,0,0,0.3,0,0.3c-0.3,0-1.1-0.1-1.8-0.1c-0.7,0-1.3,0.1-1.6,0.1c-0.1,0-0.1-0.3,0-0.3
	c0.2,0,0.6-0.1,0.9-0.2c0.3-0.1,0.4-0.4,0.4-0.9c0.1-0.6,0.1-3,0.1-6.1c0-0.3-0.1-0.5-0.3-0.7c-0.3-0.2-0.5-0.3-1.2-0.4
	C375.2,65.4,375.2,65.2,375.2,65.1z"/>
	<path fill="#FFFFFF" d="M390.1,65.1c0.3,0,1.2,0.1,1.9,0.1c0.7,0,1.6-0.1,2-0.1c0.1,0,0.1,0.3,0,0.3c-0.2,0-0.6,0.1-0.7,0.1
	c-0.3,0.1-0.4,0.3-0.4,0.7c0,0.6,0,1.9,0,3.1c0,1.5,0,2.8,0,3.3c0,0.4,0.1,0.6,0.4,0.8c0.2,0.1,0.5,0.1,0.9,0.2c0,0,0,0.3,0,0.3
	c-0.3,0-1.2-0.1-2-0.1c-0.9,0-1.4,0.1-2,0.1c0,0-0.1-0.3,0-0.3c0.3,0,0.6-0.1,0.8-0.1c0.3-0.1,0.4-0.3,0.5-0.7c0-0.4,0-2.4,0-3.7
	c0-1.1,0-2.2,0-2.8c0-0.4-0.1-0.6-0.4-0.7c-0.2-0.1-0.5-0.1-0.9-0.1C390.1,65.4,390.1,65.2,390.1,65.1z"/>
	<path fill="#FFFFFF" d="M398.5,65.1c0.3,0,1.2,0.1,1.8,0.1c1,0,1.6-0.1,1.9-0.1c0,0,0,0.3,0,0.3c-0.3,0-0.5,0.1-0.7,0.2
	c-0.1,0-0.2,0.2-0.2,0.4c0.3,0.9,2.1,5.5,2.4,6c0,0,0,0,0.1,0c0.2-0.5,1.8-4.4,2.2-5.6c0.2-0.5,0.1-0.7-0.3-0.8
	c-0.2-0.1-0.5-0.1-0.9-0.2c-0.1-0.1,0-0.3,0-0.3c0.3,0,1.1,0.1,1.7,0.1c0.8,0,1.3-0.1,1.5-0.1c0,0,0,0.3,0,0.3
	c-0.2,0-0.4,0.1-0.6,0.1c-0.4,0.1-0.6,0.3-1,1.2c-0.4,0.9-1.6,3.7-2.3,5.4c-0.3,0.7-0.5,1.1-0.6,1.7c-0.2,0-0.7,0-0.8,0
	c-0.1-0.5-0.4-1.2-0.6-1.9c-0.7-1.8-1.8-4.5-2.2-5.5c-0.3-0.7-0.5-0.9-0.9-1c-0.2-0.1-0.4-0.1-0.6-0.1
	C398.5,65.4,398.5,65.2,398.5,65.1z"/>
	<path fill="#FFFFFF" d="M412.6,65.1c0.3,0,1.1,0.1,1.9,0.1h3c0.8,0,1.3,0,1.6-0.1c0,0,0.1,0,0.1,0.1c-0.1,0.4-0.3,1.4-0.3,2
	c0,0-0.3,0-0.3,0c0-0.3-0.1-0.7-0.2-0.9c-0.1-0.4-0.2-0.6-0.7-0.6c-0.4,0-1.9,0-2.1,0c-0.1,0-0.2,0.2-0.2,0.3c0,1,0,2.7,0,3.1
	c0,0.1,0,0.1,0.1,0.1c0.7,0,1.7,0,2.1,0c0.4,0,0.5-0.3,0.6-0.6c0.1-0.2,0.1-0.4,0.1-0.6c0,0,0.3,0,0.3,0c0,0.2-0.1,1-0.1,1.4
	c0,0.3,0,1.1,0,1.4c-0.1,0.1-0.3,0.1-0.3,0c0-0.3-0.1-0.5-0.1-0.6c-0.1-0.2-0.2-0.5-0.6-0.5c-0.4,0-1.5,0-2.1,0
	c0,0-0.1,0.1-0.1,0.1c0,0.4,0,1.9,0,2.8c0,0.5,0.2,0.6,0.3,0.7c0.3,0.1,1,0.1,1.9,0.1c0.8,0,1-0.2,1.2-0.4
	c0.3-0.4,0.6-0.9,0.8-1.4c0.1,0,0.3,0,0.3,0.1c0,0.3-0.4,1.6-0.7,2.1c0,0.1-0.2,0.1-0.5,0.1c-0.8,0-2,0-4.1,0
	c-0.9,0-1.6,0.1-2.2,0.1c0,0,0-0.3,0-0.3c0.4,0,0.8-0.1,1.1-0.2c0.3-0.1,0.5-0.2,0.5-0.8c0-0.5,0-1.9,0-3.5c0-1.3,0-2.5,0-2.8
	c0-0.5-0.1-0.6-0.5-0.7c-0.2-0.1-0.5-0.1-0.8-0.1C412.5,65.4,412.5,65.2,412.6,65.1z"/>
	<path fill="#FFFFFF" d="M424.6,65.1c0.3,0,1.3,0.1,1.8,0.1h2.5c1.7,0,2.5,0.9,2.5,2.1c0,1.1-0.9,1.9-1.8,2.2c0,0,0,0.1,0,0.1
	c0.5,0.8,1.8,2.7,2.5,3.4c0.5,0.5,0.8,0.6,1.4,0.6c0,0,0,0.3,0,0.3c-0.6,0.1-1.9,0-2.3-0.2c-0.2-0.1-0.4-0.2-0.7-0.5
	c-0.6-0.6-1.5-2.2-2.1-3c-0.1-0.2-0.2-0.2-0.5-0.3c-0.2,0-0.5,0-0.7,0c0,0-0.1,0.1-0.1,0.1c0,0.8,0,2.1,0.1,2.7
	c0,0.6,0.2,0.7,0.4,0.8c0.2,0.1,0.4,0.1,0.8,0.1c0.1,0,0,0.3,0,0.3c-0.3,0-1.1-0.1-2.1-0.1c-1,0-1.7,0.1-2,0.1c0,0,0-0.3,0-0.3
	c0.3,0,0.7-0.1,0.9-0.1c0.3-0.1,0.5-0.3,0.5-0.8c0-0.4,0-2.2,0-3c0-1.2,0-3.1,0-3.5c0-0.4-0.2-0.5-0.4-0.6c-0.2,0-0.6-0.1-0.9-0.1
	C424.5,65.4,424.6,65.2,424.6,65.1z M427.3,65.8c0,0.4,0,2.3,0,3.4c0,0.1,0,0.1,0.1,0.1c0.3,0,1.2,0,1.6-0.1c0.5-0.1,1-0.6,1-1.7
	c0-1.3-0.7-2-2.1-2c-0.1,0-0.3,0-0.5,0.1C427.4,65.7,427.3,65.8,427.3,65.8z"/>
	<path fill="#FFFFFF" d="M439.4,73.2c0.4,0.3,0.9,0.4,1.4,0.4c0.9,0,1.6-0.5,1.6-1.5c0-0.8-0.4-1.3-1.9-2.2
	c-1.4-0.8-2.1-1.4-2.1-2.7c0-1.6,1.4-2.4,3-2.4c0.7,0,1,0.1,1.3,0.1c0.3,0,0.7,0.1,0.8,0.1c-0.1,0.4-0.2,1.3-0.2,2.1
	c0,0-0.3,0.1-0.3,0c-0.1-0.9-0.3-1.3-0.6-1.6c-0.3-0.2-0.8-0.4-1.3-0.4c-1,0-1.5,0.7-1.5,1.4s0.4,1.2,1,1.6c0.7,0.4,1.2,0.7,1.8,1
	c0.7,0.4,1.4,1,1.4,2.1c0,1.4-1.2,2.6-3.3,2.6c-0.8,0-1.9-0.3-2.2-0.4c-0.1-0.2-0.3-1.7-0.3-2.2c0,0,0.2-0.1,0.3-0.1
	C438.6,72.3,438.9,72.9,439.4,73.2z"/>
	<path fill="#FFFFFF" d="M448.9,65.1c0.3,0,1.2,0.1,1.9,0.1c0.7,0,1.6-0.1,2-0.1c0.1,0,0.1,0.3,0,0.3c-0.2,0-0.6,0.1-0.7,0.1
	c-0.3,0.1-0.4,0.3-0.4,0.7c0,0.6,0,1.9,0,3.1c0,1.5,0,2.8,0,3.3c0,0.4,0.1,0.6,0.4,0.8c0.2,0.1,0.5,0.1,0.9,0.2c0,0,0,0.3,0,0.3
	c-0.3,0-1.2-0.1-2-0.1c-0.9,0-1.4,0.1-2,0.1c0,0-0.1-0.3,0-0.3c0.3,0,0.6-0.1,0.8-0.1c0.3-0.1,0.4-0.3,0.5-0.7c0-0.4,0-2.4,0-3.7
	c0-1.1,0-2.2,0-2.8c0-0.4-0.1-0.6-0.4-0.7c-0.2-0.1-0.5-0.1-0.9-0.1C448.8,65.4,448.9,65.2,448.9,65.1z"/>
	<path fill="#FFFFFF" d="M460.4,73.4c0.4-0.1,0.6-0.3,0.6-1c0-0.6,0.1-4.4,0.1-6.7c0,0-0.1-0.1-0.1-0.1c-0.3,0-1.4,0-1.7,0
	c-0.3,0-0.6,0.2-0.7,0.5c-0.2,0.3-0.4,0.8-0.6,1.3c0,0-0.3,0-0.3-0.1c0.1-0.6,0.2-1.9,0.3-2.5c0,0,0,0,0.1,0
	c0.4,0.2,0.8,0.2,1.1,0.2h5.5c0.5,0,0.8,0,1.3-0.2c0,0,0.1,0,0.1,0.1c-0.1,0.5-0.2,1.8-0.3,2.5c0,0-0.3,0.1-0.3,0
	c-0.1-0.6-0.2-1-0.3-1.3c-0.2-0.4-0.4-0.5-0.7-0.6c-0.5,0-1.5-0.1-1.8,0c0,0-0.1,0.1-0.1,0.1c0,2,0,6.2,0.1,7
	c0,0.3,0.1,0.5,0.5,0.6c0.2,0.1,0.5,0.1,0.9,0.1c0.1,0,0,0.3,0,0.3c-0.4,0-1.3-0.1-2.2-0.1c-1,0-1.8,0.1-2.2,0.1
	c-0.1,0-0.1-0.3,0-0.3C459.9,73.5,460.2,73.5,460.4,73.4z"/>
	<path fill="#FFFFFF" d="M473.8,73.4c0.4-0.1,0.4-0.3,0.5-0.8l0-1.9c0-0.2,0-0.5-0.1-0.7c-0.3-0.7-1.2-2.2-1.7-3.2
	c-0.6-1.1-0.8-1.2-1.2-1.2c-0.2,0-0.3-0.1-0.6-0.1c-0.1,0-0.1-0.3,0-0.3c0.5,0,1.1,0.1,1.9,0.1c0.5,0,1.5-0.1,1.7-0.1
	c0.1,0,0.1,0.3,0,0.3l-0.5,0.1c-0.2,0.1-0.3,0.2-0.1,0.5c0.4,0.8,1.6,2.9,1.8,3.4h0.1c0.5-0.8,1.4-2.5,1.7-3.2
	c0.2-0.4,0.1-0.6-0.3-0.6c-0.2,0-0.4-0.1-0.7-0.1c0-0.1,0-0.3,0-0.3c0.4,0,1.1,0.1,1.6,0.1c0.5,0,1,0,1.4-0.1c0.1,0,0.1,0.3,0,0.3
	l-0.6,0.1c-0.5,0.1-0.7,0.4-0.9,0.9c-0.6,0.9-1.8,2.9-2,3.5c-0.1,0.1-0.1,0.4-0.1,0.5c0,0.7,0,1.4,0,2.1c0,0.6,0.1,0.9,0.5,0.9
	l0.8,0.1c0.1,0,0,0.3,0,0.3c-0.3,0-1.3-0.1-2-0.1c-0.7,0-1.6,0.1-2.1,0.1c-0.1,0-0.1-0.3,0-0.3L473.8,73.4z"/>
	<path fill="#FFFFFF" d="M157.3,29.5c0,0,17.1,28.5,43.1,38.7C200.4,68.2,164.3,75.3,157.3,29.5z"/>
	<path fill="#FFFFFF" d="M6.4,58.5c0,0,38.1-8.6,76.2-54.6C82.7,3.9,53,72.3,6.4,58.5z"/>
	<path fill="#FFFFFF" d="M152.5,23.6c0,0,2.4,10.4-12.6,19.2c0,0-17.5-39.2-42.3-42.7c0,0,19.6,0,39.7,23
	C144.2,30.9,148.3,28.8,152.5,23.6z"/>
	<path fill="#2B85BB" d="M0,60c0,0,16.8,5.6,31.7,2.3c29.8-6.6,42.2-17.2,61.5-20.5c19.3-3.3,23.8-1.9,46.7,1c0,0-5-0.9-17.5,1.3
	c-33.7,5.8-51.5,21.8-80.2,23.9C13.4,70,0,60,0,60z"/>
	<path fill="#2B85BB" d="M6.4,66.1c0,0,31.9,9.7,49.3,5.8c34.6-7.7,49-20,71.5-23.9c22.4-3.8,31.2-1.8,57.8,1.6
	c0,0-9.3-1.4-23.9,1.1C122,57.4,101.3,76,67.9,78.4C34.5,80.9,6.4,66.1,6.4,66.1z"/>
</svg>
