<svg xmlns="http://www.w3.org/2000/svg" viewBox="0 0 135 135"><circle class="wwu-icon-cls-1" cx="67.5" cy="67.5" r="67.5"/><path class="wwu-icon-cls-2" d="M90.4,64.1c-0.4-0.2-0.9-0.4-1.3-0.6c-0.8-14-8.4-22-21.2-22.1c-0.1,0-0.1,0-0.2,0c-7.7,0-14.1,3.3-18,9.2l7.1,4.8c2.9-4.5,7.5-5.4,10.9-5.4c0,0,0.1,0,0.1,0c4.2,0,7.4,1.3,9.5,3.7c1.5,1.7,2.5,4.2,3,7.2c-3.7-0.6-7.8-0.8-12.1-0.6c-12.2,0.7-20,7.8-19.5,17.7c0.3,5,2.8,9.3,7,12.1c3.6,2.4,8.3,3.5,13.1,3.3c6.4-0.3,11.4-2.8,14.9-7.2c2.7-3.4,4.3-7.8,5.1-13.3c3,1.8,5.3,4.2,6.5,7.2c2.1,4.9,2.2,13-4.4,19.7c-5.8,5.8-12.8,8.3-23.3,8.4c-11.7-0.1-20.5-3.8-26.3-11.1c-5.4-6.8-8.2-16.7-8.3-29.4c0.1-12.6,2.9-22.5,8.3-29.4c5.7-7.3,14.6-11,26.3-11.1c11.8,0.1,20.8,3.9,26.7,11.2c2.9,3.6,5.1,8.1,6.6,13.4l8.3-2.2c-1.8-6.5-4.5-12.1-8.3-16.7C93.2,23.5,82,18.6,67.6,18.5h-0.1c-14.4,0.1-25.4,4.9-32.9,14.4c-6.6,8.4-10,20.1-10.1,34.7l0,0l0,0c0.1,14.7,3.5,26.3,10.1,34.7c7.4,9.4,18.5,14.3,32.9,14.4h0.1c12.8-0.1,21.8-3.4,29.2-10.9c9.7-9.7,9.4-21.9,6.2-29.3C100.7,71.3,96.4,67,90.4,64.1z M68.3,84.9c-5.3,0.3-10.9-2.1-11.2-7.2c-0.2-3.8,2.7-8.1,11.5-8.6c1-0.1,2-0.1,3-0.1c3.2,0,6.2,0.3,8.9,0.9C79.5,82.5,73.5,84.6,68.3,84.9z"/></svg>