
<svg xmlns="http://www.w3.org/2000/svg" viewBox="0 0 135 135"><circle class="wwu-icon-cls-1" cx="67.5" cy="67.5" r="67.5"/><path class="wwu-icon-cls-2" d="M53.86,106.38c33,0,51-27.32,51-51,0-.78,0-1.55,0-2.32a36.52,36.52,0,0,0,8.94-9.28,35.57,35.57,0,0,1-10.29,2.82,18,18,0,0,0,7.88-9.91A36.21,36.21,0,0,1,100,41,17.93,17.93,0,0,0,69,53.3a17.72,17.72,0,0,0,.46,4.08A50.87,50.87,0,0,1,32.47,38.66,17.93,17.93,0,0,0,38,62.59a17.71,17.71,0,0,1-8.12-2.25,1.77,1.77,0,0,0,0,.23A17.93,17.93,0,0,0,44.27,78.14a18,18,0,0,1-8.09.31A18,18,0,0,0,52.92,90.9a35.93,35.93,0,0,1-22.26,7.67,35.48,35.48,0,0,1-4.27-.25,50.68,50.68,0,0,0,27.47,8.06"/></svg>