
<svg xmlns="http://www.w3.org/2000/svg" viewBox="0 0 135 135"><circle class="wwu-icon-cls-1" cx="67.5" cy="67.5" r="67.5"/><path class="wwu-icon-cls-2" d="M111.11,46.36q-.61,13.28-18.56,36.37Q74,106.85,61.15,106.85q-8,0-13.46-14.69L40.34,65.23q-4.08-14.69-8.76-14.69c-.69,0-3.07,1.44-7.15,4.29l-4.28-5.51Q26.9,43.4,33.43,37.48q9-7.77,13.49-8.18,10.62-1,13.07,14.52,2.65,16.77,3.68,20.86,3.08,13.91,6.75,13.91,2.85,0,8.58-9t6.12-13.74C85.67,50.63,83.62,48,79,48a17.07,17.07,0,0,0-6.74,1.49q6.7-22,25.63-21.35Q111.92,28.58,111.11,46.36Z"/></svg>