<svg viewBox="0 0 135 135" xmlns="http://www.w3.org/2000/svg">
<circle class="wwu-icon-cls-1"  cx="67.5" cy="67.5" r="67.5"/>
<path class="wwu-icon-cls-2" d="M41.2,37.1c10.1,7.6,21,23,25.1,31.3c4-8.3,14.9-23.7,25.1-31.3c7.3-5.5,19.2-9.7,19.2,3.8c0,2.7-1.5,22.7-2.5,25.9C104.8,78.1,93.3,81,83.1,79.2c17.9,3,22.4,13.1,12.6,23.2C77,121.6,68.9,97.6,66.8,91.5c-0.4-1.1-0.6-1.7-0.6-1.2c0-0.4-0.2,0.1-0.6,1.2c-2.1,6.1-10.3,30.1-28.9,10.9c-9.8-10.1-5.3-20.2,12.6-23.2C39.1,81,27.6,78.1,24.5,66.8C23.6,63.6,22,43.6,22,40.9C22,27.4,33.9,31.6,41.2,37.1L41.2,37.1z"/>
</svg>
