<svg xmlns="http://www.w3.org/2000/svg" viewBox="0 0 135 135">
<circle class="wwu-icon-cls-1" cx="67.5" cy="67.5" r="67.5"/>
<path class="wwu-icon-cls-2" d="M36.28,98.72c-2.94,0-5.44-.95-7.49-2.84s-3.08-4.2-3.08-6.92v-42.92c0-2.72,1.03-5.02,3.08-6.92s4.55-2.84,7.49-2.84h62.44c2.94,0,5.44.95,7.49,2.84,2.05,1.89,3.08,4.2,3.08,6.92v42.92c0,2.72-1.03,5.02-3.08,6.92-2.05,1.89-4.55,2.84-7.49,2.84,0,0-62.44,0-62.44,0ZM67.5,73.42l31.22-18.4v-8.97l-31.22,18.4-31.22-18.4v8.97s31.22,18.4,31.22,18.4Z"/>
</svg>