
<svg xmlns="http://www.w3.org/2000/svg" viewBox="0 0 135 135.22"><path class="wwu-icon-cls-1" d="M67.56,0A67.58,67.58,0,0,0,42.92,130.5c-.61-5.34-1.11-13.57.23-19.41C44.37,105.81,51,77.51,51,77.51a24.63,24.63,0,0,1-2-10c0-9.4,5.45-16.4,12.23-16.4,5.79,0,8.57,4.33,8.57,9.51,0,5.78-3.67,14.45-5.62,22.51-1.61,6.73,3.39,12.24,10,12.24,12,0,21.24-12.68,21.24-30.92C95.47,48.26,83.85,37,67.22,37,48,37,36.7,51.38,36.7,66.28c0,5.78,2.22,12,5,15.4a2,2,0,0,1,.45,1.94c-.5,2.12-1.67,6.73-1.89,7.68-.28,1.22-1,1.5-2.28.89C29.52,88.24,24.24,76,24.24,66c0-21.3,15.46-40.87,44.65-40.87,23.41,0,41.65,16.68,41.65,39,0,23.3-14.68,42-35,42-6.84,0-13.29-3.56-15.46-7.79,0,0-3.39,12.9-4.23,16.07-1.5,5.9-5.61,13.24-8.39,17.74A67.62,67.62,0,1,0,67.56,0Z"/></svg>