
<svg xmlns="http://www.w3.org/2000/svg" viewBox="0 0 135 135"><circle class="wwu-icon-cls-1" cx="67.5" cy="67.5" r="67.5"/><path class="wwu-icon-cls-2" d="M90.75,51.58c0,1.85-.11,3.71-.25,5.56,0,.31,0,.63,0,.94,0,.69.39,1,1.07.91a3.18,3.18,0,0,0,.74-.17l2-.74A27.24,27.24,0,0,1,97.69,57a5.18,5.18,0,0,1,2.38-.09,2.87,2.87,0,0,1,2.06,4,4,4,0,0,1-.79,1.21,8.23,8.23,0,0,1-1.58,1.36l-2.05,1.36L94.28,67c-.47.32-.93.65-1.38,1a5.23,5.23,0,0,0-.69.64,2.24,2.24,0,0,0-.59,1.69,8.5,8.5,0,0,0,.32,1.8,22.3,22.3,0,0,0,2.38,5.35,30.62,30.62,0,0,0,7.06,8,40.13,40.13,0,0,0,7.73,4.88c.25.12.49.26.72.39a1.46,1.46,0,0,1,.46.43.74.74,0,0,1,.06.83,2.12,2.12,0,0,1-.54.61,6,6,0,0,1-1,.65,22.46,22.46,0,0,1-4.94,1.91c-.73.2-1.46.41-2.18.63a8.4,8.4,0,0,0-1.45.61,2.61,2.61,0,0,0-1.41,1.92c-.09.47-.15,1-.23,1.43a1.9,1.9,0,0,1-1.83,1.85,10.55,10.55,0,0,1-1.26.13c-1,.06-2.1.09-3.15.15a26.88,26.88,0,0,0-7,1.25,14,14,0,0,0-2.77,1.23c-.93.53-1.85,1.09-2.77,1.64a28.65,28.65,0,0,1-4.54,2.34,19.8,19.8,0,0,1-5.52,1.28,24,24,0,0,1-4.79-.06,19.37,19.37,0,0,1-6.8-2.06c-1-.51-1.95-1.08-2.9-1.66l-2.11-1.27a18.23,18.23,0,0,0-5.41-2.06,31,31,0,0,0-5.26-.65l-2.78-.13a8.16,8.16,0,0,1-1.56-.23,1.68,1.68,0,0,1-1.33-1.37c-.08-.41-.15-.83-.22-1.24l0-.25a2.86,2.86,0,0,0-1.74-2.39,13.31,13.31,0,0,0-2-.7c-1.16-.32-2.33-.61-3.46-1a21.77,21.77,0,0,1-2.88-1.28c-.28-.16-.55-.32-.81-.5a3.09,3.09,0,0,1-.48-.4.92.92,0,0,1,.12-1.55,5.71,5.71,0,0,1,1-.56,39.43,39.43,0,0,0,6.82-4.2,31.07,31.07,0,0,0,7.65-8.35,22.74,22.74,0,0,0,2.52-5.57,7.72,7.72,0,0,0,.33-1.92A2.23,2.23,0,0,0,43,68.6a6.71,6.71,0,0,0-.85-.75c-.88-.66-1.8-1.26-2.71-1.86L36,63.71a11.87,11.87,0,0,1-1.65-1.27,6.05,6.05,0,0,1-1-1.17,3,3,0,0,1-.17-2.85A2.52,2.52,0,0,1,34.66,57,4.32,4.32,0,0,1,37,56.83a14.73,14.73,0,0,1,2.67.75c.89.32,1.77.67,2.66,1a6.11,6.11,0,0,0,1.26.38,1.75,1.75,0,0,0,.32,0c.51,0,.93-.18.92-.86s0-1.14-.06-1.71a86.11,86.11,0,0,1-.17-9.23,32.61,32.61,0,0,1,.72-5.82,18.82,18.82,0,0,1,3.38-7.28,21.87,21.87,0,0,1,11.92-8,26.45,26.45,0,0,1,8.07-.91A25,25,0,0,1,77,26.92,21.31,21.31,0,0,1,84,31.16a19.56,19.56,0,0,1,5.55,8.46,25.42,25.42,0,0,1,1,4.63A57.89,57.89,0,0,1,90.75,51.58Z"/></svg>