
<svg xmlns="http://www.w3.org/2000/svg" viewBox="0 0 135 135"><circle class="wwu-icon-cls-1" cx="67.5" cy="67.5" r="67.5"/><path class="wwu-icon-cls-2" d="M105.32,45.19c0-.39,0-.4-.42-.4a18.15,18.15,0,0,1-2.94-.26C98.43,44,87,38,85,28.16a30,30,0,0,1-.47-3.67c0-.46,0-.46-.46-.47H70.34c-.9,0-.77-.11-.77.79q0,29.16,0,58.33a12,12,0,0,1-.15,2.16,12.64,12.64,0,0,1-15,10.31,18,18,0,0,1-3-1,2.39,2.39,0,0,0-.23-.22c-.33-.27-.68-.49-1-.74-4.15-2.87-6.12-6.86-5.52-11.85S48.19,73.34,53,71.57a11.13,11.13,0,0,1,4.47-.67,13.24,13.24,0,0,1,2.92.45c.33.09.51,0,.52-.37,0-.13,0-.25,0-.37,0-3.49-.13-11.12-.14-11.13,0-1,0-2,0-3,0-.29-.14-.34-.38-.36A28.25,28.25,0,0,0,55,56a27.71,27.71,0,0,0-7.31,1.55,27.41,27.41,0,0,0-18.1,24,26.58,26.58,0,0,0,.05,4.28,27,27,0,0,0,1.16,5.79A27.32,27.32,0,0,0,40.08,105a6.31,6.31,0,0,0,1.42,1h0l.69.61a14.93,14.93,0,0,0,2.29,1.4,27.46,27.46,0,0,0,15.76,2.79A27.69,27.69,0,0,0,84.73,83.26c.06-9.68,0-19.36,0-29.05,0-.23-.13-.56.12-.67s.4.17.59.3a35.92,35.92,0,0,0,11.7,5,32.63,32.63,0,0,0,7.44.89c.79,0,.9,0,.9-.83C105.5,55.51,105.32,46.11,105.32,45.19Z"/></svg>