<svg width="309" height="231" viewBox="0 0 309 231" fill="none" xmlns="http://www.w3.org/2000/svg">
<path d="M309 31.416C285.772 38.808 267.128 49.896 253.068 64.68C239.62 79.464 234.424 98.56 237.481 121.968C244.205 127.512 253.68 133.364 265.905 139.524C278.131 145.068 288.828 149.38 297.997 152.46C300.442 162.316 300.442 171.864 297.997 181.104C295.552 190.344 291.579 198.66 286.077 206.052C280.576 212.828 274.157 218.68 266.822 223.608C259.487 227.92 252.763 230.384 246.65 231C225.255 229.152 206.611 221.144 190.718 206.976C174.825 192.808 166.878 172.48 166.878 145.992C166.878 130.592 169.323 115.192 174.214 99.792C179.715 84.392 187.662 70.224 198.053 57.288C208.445 43.736 221.588 32.032 237.481 22.176C253.374 11.704 272.323 4.31202 294.329 0L309 31.416ZM142.122 31.416C118.893 38.808 100.249 49.896 86.1899 64.68C72.7418 79.464 67.546 98.56 70.6024 121.968C77.3264 127.512 86.8012 133.364 99.0267 139.524C111.252 145.068 121.95 149.38 131.119 152.46C133.564 162.316 133.564 171.864 131.119 181.104C128.674 190.344 124.7 198.66 119.199 206.052C113.697 212.828 107.279 218.68 99.9436 223.608C92.6083 227.92 85.8843 230.384 79.7715 231C58.3769 229.152 39.7329 221.144 23.8398 206.976C7.94659 192.808 0 172.48 0 145.992C0 130.592 2.4451 115.192 7.33531 99.792C12.8368 84.392 20.7834 70.224 31.1751 57.288C41.5668 43.736 54.7092 32.032 70.6024 22.176C86.4956 11.704 105.445 4.31202 127.451 0L142.122 31.416Z" fill="#007AC8" fill-opacity="0.1"/>
</svg>
