<?xml version="1.0" encoding="UTF-8"?><svg id="Layer_2" xmlns="http://www.w3.org/2000/svg" viewBox="0 0 1708.34 196.23"><defs><style>.cls-1{fill:none;stroke:#003F87;stroke-width:0.5;stroke-miterlimit:10;}</style></defs><g id="Layer_1-2"><path class="cls-1" d="M.11,11.08h0c1.01-.22,2.01-.44,3.02-.65h0C47.52.97,93.3-1.69,138.51,2.27c28.42,2.49,56.62,7.59,84.09,15.26,17.9,4.99,35.48,11.07,52.62,18.24,52.63,21.97,101.02,53.76,154.57,74.31,41.15,15.79,83.21,24.39,125.92,28.13,125.6,10.98,256.77-20.05,387.14-34.17,53.23-5.77,106.33-8.72,158.85-4.89,2.95.22,5.9.45,8.84.71,74.17,6.49,146.44,26.09,218.82,45.45,69.53,18.6,139.18,36.98,210.76,43.24.69.06,1.39.12,2.08.18,55.52,4.67,110.88,1.9,165.93-5.37"/><path class="cls-1" d="M5.21,80.16c27.26,2.38,54.64,2.24,81.86-1.4,60.39-8.07,117.04-32.87,176.16-45.88h0c1.01-.22,2.02-.44,3.02-.65h0c44.39-9.45,90.17-12.11,135.38-8.15,28.42,2.49,56.62,7.59,84.09,15.26,17.9,4.99,35.48,11.07,52.62,18.24,52.63,21.97,101.02,53.76,154.57,74.31,41.15,15.79,83.21,24.39,125.92,28.13,125.6,10.98,256.77-20.05,387.14-34.17,53.23-5.77,106.33-8.72,158.85-4.89,2.95.22,5.9.45,8.84.71,74.17,6.49,146.44,26.09,218.82,45.45,38.44,10.28,76.92,20.5,115.74,28.64"/></g></svg>