<?xml version="1.0" encoding="UTF-8"?><svg id="Layer_2" xmlns="http://www.w3.org/2000/svg" viewBox="0 0 1717.86 100.53"><defs><style>.cls-1{fill:none;stroke:#007ac8;stroke-miterlimit:10;stroke-width:.5px;}</style></defs><g id="Layer_2-2"><g id="Layer_1-2"><path class="cls-1" d="M.07,22.88H.07c.99-.31,1.96-.62,2.95-.92h0C46.4,8.61,91.77,1.9,137.15,1.84c28.53-.04,57.07,2.54,85.11,7.75,18.27,3.38,36.32,7.88,54.03,13.51,54.37,17.22,105.39,44.6,160.55,60.32,42.39,12.08,85.04,16.92,127.92,16.86,126.08-.19,253.98-42.72,382.59-68.34,52.51-10.46,105.14-18.11,157.79-18.94,2.96-.04,5.92-.07,8.87-.08,74.45-.11,148.18,13.01,221.99,25.88,70.9,12.37,141.91,24.5,213.76,24.4.69,0,1.4,0,2.09,0,55.72-.27,110.61-7.93,164.8-20.05"/><path class="cls-1" d="M11.28,91.23c27.36-.04,54.62-2.61,81.41-8.65,59.44-13.39,113.67-43.11,171.4-61.31h0c.99-.31,1.97-.62,2.95-.92h0C310.42,7.02,355.78.31,401.17.25c28.53-.04,57.07,2.54,85.11,7.75,18.27,3.38,36.32,7.88,54.03,13.51,54.37,17.22,105.39,44.6,160.55,60.32,42.39,12.08,85.04,16.92,127.92,16.86,126.08-.19,253.98-42.72,382.59-68.34,52.51-10.46,105.14-18.11,157.79-18.94,2.96-.04,5.92-.07,8.87-.08,74.45-.11,148.18,13.01,221.99,25.88,39.2,6.83,78.43,13.6,117.82,18.27"/></g></g></svg>