<?xml version="1.0" encoding="UTF-8"?><svg id="Layer_2" xmlns="http://www.w3.org/2000/svg" xmlns:xlink="http://www.w3.org/1999/xlink" viewBox="0 0 2843.75 624.74"><defs><style>.cls-1{clip-path:url(#clippath);}.cls-2{fill:none;}.cls-2,.cls-3,.cls-4{stroke-width:0px;}.cls-5{mask:url(#mask);}.cls-3{fill:url(#linear-gradient);}.cls-6{filter:url(#luminosity-noclip);}.cls-7{clip-path:url(#clippath-1);}.cls-4{fill:#002651;}</style><clipPath id="clippath"><rect class="cls-2" width="2843.75" height="624.74"/></clipPath><filter id="luminosity-noclip" x="-9.03" y="-4.01" width="2864.47" height="635.8" color-interpolation-filters="sRGB" filterUnits="userSpaceOnUse"><feFlood flood-color="#fff" result="bg"/><feBlend in="SourceGraphic" in2="bg"/></filter><linearGradient id="linear-gradient" x1="1027.66" y1="820.89" x2="1028.66" y2="820.89" gradientTransform="translate(293560.31 -364936.35) rotate(90.05) scale(355.49)" gradientUnits="userSpaceOnUse"><stop offset="0" stop-color="#fff"/><stop offset="1" stop-color="#000"/></linearGradient><mask id="mask" x="-9.03" y="-4.01" width="2864.47" height="635.8" maskUnits="userSpaceOnUse"><g class="cls-6"><rect class="cls-3" x="-.27" y="-1.24" width="2844.3" height="627.22"/></g></mask><clipPath id="clippath-1"><rect class="cls-2" x="-9.03" y="-4.01" width="2864.47" height="635.8"/></clipPath></defs><g id="Layer_1-2"><g class="cls-1"><g class="cls-5"><g class="cls-7"><path class="cls-4" d="M2843.75,624.74L0,612.34,2.23,101.65c15.42-1.02,30.7-2.52,45.64-4.43,73.89-9.43,142.11-27.78,211.58-43.91,1.59-.37,3.16-.73,4.75-1.1C397.44,21.5,542.13-.62,687.02.01c32.29.14,64.57,1.41,96.75,3.97,31.13,2.47,61.77,6.11,92.06,10.58,131.1,19.37,255.42,54.43,383.47,78.57,15.83,2.99,31.72,5.81,47.68,8.41,44.38,7.23,89.36,12.79,135.36,15.59,17.28,1.05,34.72,1.71,52.32,1.93,2.69.03,5.4.05,8.08.07,122.01.53,239.72-20.23,359.44-33.73,23.91-2.7,47.9-5.1,72.03-6.99,46.02-3.61,92.61-5.29,139.18-5.09,96.35.42,192.67,8.93,283.98,25.3,16.95,3.04,33.78,6.35,50.62,9.67,48.49,9.55,96.99,19.14,148.17,22.36,12.35.78,24.65,1.18,36.88,1.23,65.04.28,128.14-9.2,188.75-23.5,20.96-4.95,41.63-10.47,61.96-16.36v532.74Z"/></g></g></g></g></svg>