<?xml version="1.0" encoding="UTF-8"?><svg id="Layer_2" xmlns="http://www.w3.org/2000/svg" xmlns:xlink="http://www.w3.org/1999/xlink" viewBox="0 0 46.46 66.94"><defs><style>.cls-1{clip-path:url(#clippath);}.cls-2,.cls-3{fill:none;}.cls-2,.cls-4{stroke-width:0px;}.cls-3{stroke:#1b79bf;stroke-miterlimit:10;}.cls-4{fill:#a6d3f0;}</style><clipPath id="clippath"><rect class="cls-2" width="46.46" height="66.94"/></clipPath></defs><g id="Layer_1-2"><g class="cls-1"><path class="cls-4" d="M25.98,33.66c-4.24,0-7.68-3.44-7.68-7.68s3.44-7.68,7.68-7.68,7.68,3.44,7.68,7.68-3.44,7.68-7.68,7.68M25.98,66.94c11.6-18.4,20.48-31.23,20.48-41.98S36.73,5.5,25.98,5.5,5.5,14.21,5.5,24.96s8.88,23.58,20.48,41.98"/><path class="cls-3" d="M20.98,28.66c-4.24,0-7.68-3.44-7.68-7.68s3.44-7.68,7.68-7.68,7.68,3.44,7.68,7.68-3.44,7.68-7.68,7.68ZM20.98.5C10.23.5.5,9.21.5,19.96s8.88,23.58,20.48,41.98c11.6-18.4,20.48-31.23,20.48-41.98S31.73.5,20.98.5Z"/></g></g></svg>