<svg xmlns="http://www.w3.org/2000/svg" xmlns:xlink="http://www.w3.org/1999/xlink" viewBox="0 0 46.46 66.94" width="48px" height="48px"><path class="wwu-cls-4" d="M25.98,33.66c-4.24,0-7.68-3.44-7.68-7.68s3.44-7.68,7.68-7.68,7.68,3.44,7.68,7.68-3.44,7.68-7.68,7.68M25.98,66.94c11.6-18.4,20.48-31.23,20.48-41.98S36.73,5.5,25.98,5.5,5.5,14.21,5.5,24.96s8.88,23.58,20.48,41.98"/><path class="wwu-cls-3" d="M20.98,28.66c-4.24,0-7.68-3.44-7.68-7.68s3.44-7.68,7.68-7.68,7.68,3.44,7.68,7.68-3.44,7.68-7.68,7.68ZM20.98.5C10.23.5.5,9.21.5,19.96s8.88,23.58,20.48,41.98c11.6-18.4,20.48-31.23,20.48-41.98S31.73.5,20.98.5Z"/></svg>