<svg xmlns="http://www.w3.org/2000/svg" viewBox="0 0 576 537.7"><defs><style>.cls-1{fill:#003f87;}.cls-2{fill:#fff;}.cls-3,.cls-4{fill:#007ac8;}.cls-4{stroke:#007ac8;stroke-miterlimit:10;stroke-width:4px;}</style></defs><g id="Layer_2" data-name="Layer 2"><g id="Background"><rect class="cls-1" width="576" height="537.7"/></g><g id="Logo"><path class="cls-2" d="M38.76,172.46c5.61,0,10.2.57,17.67.57,8.05-.14,11.92-.28,15.22-.43a2.79,2.79,0,0,1,0,2.16c-3.58.72-4.59.86-5.88,1.44-1.87.86-2.44,2.44-1.44,6.17,3.45,14.22,12.21,44.09,17.09,60.32a2,2,0,0,0,.43-.28c5-13.94,19.68-55.44,22.41-66.07a33.17,33.17,0,0,0,5.31-.14c2.59,10.91,18.53,55.29,23.13,66.92.14,0,.43-.14.57-.14,3.59-11.35,13.93-45.39,16.37-57.31.87-4.45,1.16-8.18-2.58-9.33a64,64,0,0,0-8-1.58c-.29-.43-.44-1.87,0-2.16,3,0,9.91.43,15.51.43,7.76,0,11.49-.28,14.36-.43a2,2,0,0,1,0,2.16,46.8,46.8,0,0,0-6.89,1.72c-3,1.44-4.45,3.59-6.47,9.34-5.74,16.52-19.39,61.18-23.41,75.83a34.68,34.68,0,0,0-5.45.15c-3.59-12.64-16.52-49.41-23.13-67.51a.57.57,0,0,0-.57.29c-5.17,14.94-19.39,55-23,66.93a28,28,0,0,0-5.89.14C69.93,244.13,57.58,200,52.84,186.54c-2.44-7.47-3.88-9.34-7.9-10.49a65.22,65.22,0,0,0-6.46-1.29C38.19,174.47,38.19,172.75,38.76,172.46Z"/><path class="cls-2" d="M158.68,197.88c2.44,0,8.19.43,13.79.43H194c5.89,0,9.34-.14,11.35-.57,0,0,.43.28.43.43A70.36,70.36,0,0,0,203.64,213a2.79,2.79,0,0,1-2.16,0,32.51,32.51,0,0,0-1.29-6.6c-.72-2.88-1.44-4.17-5.31-4.46-2.59-.28-13.93-.14-15.37,0-.72.15-1.15,1.44-1.15,1.87-.14,7-.29,19.82-.14,22.12a.65.65,0,0,0,.57.72c4.74,0,12.21,0,15.22-.15,3.17-.14,3.74-2.15,4.46-4.16a20.62,20.62,0,0,0,.86-4c.29-.15,2.15-.15,2.3.14-.15,1.44-.58,7.47-.58,10.2,0,2,.29,7.75.29,10.2a2.47,2.47,0,0,1-2.44,0,31.37,31.37,0,0,0-.87-4.31c-.57-1.58-1.29-3.31-4-3.59-3.16-.29-11-.29-15.36-.29-.15,0-.43.72-.43.86,0,2.59,0,13.93.14,20.11.14,3.3,1.73,4.6,2.44,4.74,2.44.57,7,.72,13.79.72,5.89,0,7.18-1.44,8.76-3a35.54,35.54,0,0,0,5.89-10.34c.43-.14,2,.29,2.15.86-.28,2.44-3,11.78-5,15.37-.29.72-1.15,1-3.88,1-5.46,0-14.51-.28-29.88-.28-6.6,0-11.77.43-16.22.43a3.15,3.15,0,0,1,0-2.3,37.78,37.78,0,0,0,7.89-1.15c2.45-.72,3.31-1.58,3.45-5.75.15-3.73.15-13.64.15-25.42,0-9.76-.15-18.24-.15-20.1-.29-3.31-.86-4.31-3.3-5.17a31.55,31.55,0,0,0-5.75-1C158.25,199.89,158.25,198,158.68,197.88Z"/><path class="cls-2" d="M228.35,256.63c2.58,2,6.6,3,10.19,3,6.32,0,11.92-3.3,11.92-10.77,0-5.89-2.73-9.77-14.07-15.66-10.49-5.6-15.52-10.48-15.52-19.53,0-11.34,10.35-17.24,21.55-17.24a71,71,0,0,1,9.76.72c2.3.29,5,.72,6,.72a139.18,139.18,0,0,0-1.72,15.23c-.29.28-2,.43-2.16,0-.43-6.32-1.87-9.48-4.17-11.35-2.15-1.72-5.46-2.58-9.33-2.58-7.33,0-10.92,5-10.92,10.48s2.88,8.9,7,11.35c4.89,2.87,8.76,4.88,13.07,7.32,5.32,3,10.34,7.47,10.34,15.37,0,10.05-9.05,18.82-23.7,18.82-5.89,0-13.64-1.87-15.8-3.17-.86-1.43-2.15-12.35-2.29-15.94a3.38,3.38,0,0,1,2.15-.57C222.6,250,225.18,254.47,228.35,256.63Z"/><path class="cls-2" d="M285.65,257.92c3-.58,4-2.3,4.16-7.18.29-4.45.44-32,.44-48.26a.93.93,0,0,0-.72-.72c-1.87-.14-9.91,0-12.07.14s-4,1.44-5.31,3.74a79.43,79.43,0,0,0-4.16,9.77c-.3,0-2-.29-2.16-.58.86-4.17,1.72-13.5,2-17.81,0-.14.29-.29.58-.14a19.9,19.9,0,0,0,7.89,1.29H316c3.45,0,5.75.14,9.19-1.15a.46.46,0,0,1,.44.43c-1,3.59-1.58,12.78-2,18.1-.29.29-2.3.43-2.3,0a38.63,38.63,0,0,0-2-9.34c-1.15-2.87-2.73-3.87-5-4-3.73-.29-11.06-.43-13.21-.29a.88.88,0,0,0-.43.87c0,14.5,0,45.24.43,50.55.14,2.16,1,3.88,3.3,4.6,1.58.43,3.45.57,6.18,1,.43.14.28,2-.15,2.16-3,0-9.33-.43-15.94-.43-7.32,0-12.93.57-15.65.43-.43-.29-.43-2,0-2.16A58.16,58.16,0,0,0,285.65,257.92Z"/><path class="cls-2" d="M330.75,197.88c2.44,0,8.19.43,13.79.43h21.54c5.89,0,9.34-.14,11.35-.57,0,0,.43.28.43.43A69.71,69.71,0,0,0,375.71,213a2.79,2.79,0,0,1-2.16,0,33.21,33.21,0,0,0-1.29-6.6c-.72-2.88-1.44-4.17-5.32-4.46-2.58-.28-13.93-.14-15.36,0-.72.15-1.15,1.44-1.15,1.87-.15,7-.29,19.82-.15,22.12a.66.66,0,0,0,.58.72c4.74,0,12.21,0,15.22-.15,3.16-.14,3.74-2.15,4.46-4.16a20.62,20.62,0,0,0,.86-4c.29-.15,2.15-.15,2.3.14-.15,1.44-.58,7.47-.58,10.2,0,2,.29,7.75.29,10.2a2.47,2.47,0,0,1-2.44,0,31.37,31.37,0,0,0-.87-4.31c-.57-1.58-1.29-3.31-4-3.59-3.16-.29-11.06-.29-15.37-.29-.14,0-.43.72-.43.86,0,2.59,0,13.93.15,20.11.14,3.3,1.72,4.6,2.44,4.74,2.44.57,7,.72,13.79.72,5.89,0,7.18-1.44,8.76-3a35.77,35.77,0,0,0,5.89-10.34c.43-.14,2,.29,2.15.86-.29,2.44-3,11.78-5,15.37-.28.72-1.14,1-3.88,1-5.45,0-14.5-.28-29.87-.28-6.61,0-11.77.43-16.23.43a3.25,3.25,0,0,1,0-2.3,37.78,37.78,0,0,0,7.9-1.15c2.44-.72,3.31-1.58,3.45-5.75.14-3.73.14-13.64.14-25.42,0-9.76-.14-18.24-.14-20.1-.29-3.31-.86-4.31-3.31-5.17a31.28,31.28,0,0,0-5.74-1C330.32,199.89,330.32,198,330.75,197.88Z"/><path class="cls-2" d="M389.06,197.88c2.44,0,9.2.43,13.36.43h17.95c12.64,0,18.24,6.75,18.24,15.23,0,8.18-6.46,13.5-12.92,15.94-.15.14,0,.57.14.72,3.45,5.74,12.78,19.39,17.95,24.27,3.74,3.88,5.6,4,10.06,4.59.14,0,0,2.16-.29,2.16-4.31.43-13.79,0-16.8-1.44a12,12,0,0,1-4.89-3.73c-4-4.45-11.05-16.09-14.93-21.83a4.09,4.09,0,0,0-3.31-2c-1.29-.14-3.3-.14-4.74-.14-.28,0-.43.57-.43.71,0,5.75.15,15.37.43,19.25.29,4.31,1.15,5,3.16,5.74a29.92,29.92,0,0,0,5.75,1c.43.28.14,2-.15,2.3-2.15,0-8.18-.43-15.08-.43-7.46,0-12.21.43-14.22.43a3.25,3.25,0,0,1,0-2.3c2.16-.29,5.18-.57,6.18-.86,2.44-.58,3.45-1.87,3.74-5.75.14-2.73.14-15.94.14-21.4,0-8.33.14-22.12-.14-25.56-.15-2.73-1.3-3.45-3.16-4a49.51,49.51,0,0,0-6.18-1C388.49,199.89,388.63,198,389.06,197.88Zm19.68,5.17c-.14,3.16-.29,16.66-.29,25,0,.58.15.86.72.86,2.3.15,8.76.15,11.35-.43,3.73-1,7.46-4,7.46-12.35,0-9.33-4.74-14.79-15.22-14.79a12.08,12.08,0,0,0-3.3.43C409,201.9,408.74,202.62,408.74,203.05Z"/><path class="cls-2" d="M451.69,197.75c1.86,0,8.76.43,13.35.43,2.3,0,5.75,0,6.75-.14.29.86,1,2.15,3.6,5.46,10.77,13.64,31.3,38.2,35.9,43.52.14.14.29-.15.43-.29,0-13.36-.29-33.47-.72-40.07-.14-3-1.29-5.17-4.31-5.75a25.26,25.26,0,0,0-5.31-.86,6.34,6.34,0,0,1,0-2.3c2.58,0,6.75.43,12.2.43,3.31,0,9.63-.43,10.78-.43a5.61,5.61,0,0,1,0,2.16,33.79,33.79,0,0,0-5,1c-2.59.72-3,2.73-3.16,5.17-.57,7.76-.72,28.73-.72,41.51,0,4.6.15,10.49.29,13.65a66,66,0,0,0-7.61.14c-4.45-6.46-36.19-46.1-40.93-51.85-.15-.14-.29-.14-.29,0-.14,10.34,0,36.06.14,41.81.29,4.74,1.58,5.46,3.74,6.46a26.85,26.85,0,0,0,6.46,1.15c.43.14.29,2,0,2.3-2,0-8.18-.43-13.36-.43-5,0-9.33.43-11.49.43-.43-.29-.43-2.16,0-2.3a30.83,30.83,0,0,0,6.32-1.15c2.44-.86,2.87-3,3.16-6.17.43-4.6.86-22.28.86-44.25a5.69,5.69,0,0,0-2.15-4.74c-1.87-1.58-3.73-2.16-9-2.59A4.21,4.21,0,0,1,451.69,197.75Z"/><path class="cls-2" d="M438,97.92s29.48,49.09,74.27,66.6C512.23,164.52,450.14,176.84,438,97.92Z"/><path class="cls-2" d="M178.26,147.78s65.61-14.79,131.23-94C309.49,53.78,258.4,171.66,178.26,147.78Z"/><path class="cls-2" d="M429.7,87.71s4.2,18-21.63,33c0,0-30.21-67.58-72.87-73.58,0,0,33.75,0,68.41,39.65C415.4,100.25,422.49,96.7,429.7,87.71Z"/><path class="cls-3" d="M167.15,150.35s28.86,9.69,54.58,4c51.32-11.39,72.66-29.65,105.88-35.36s41-3.26,80.46,1.71c0,0-8.64-1.52-30.2,2.18-58,10-88.72,37.57-138.18,41.19S167.15,150.35,167.15,150.35Z"/><path class="cls-3" d="M178.26,160.84s55,16.67,84.88,10c59.65-13.24,84.45-34.47,123-41.1s53.69-3.09,99.55,2.7c0,0-16.08-2.47-41.13,1.84C377.19,145.88,341.5,178,284,182.15S178.26,160.84,178.26,160.84Z"/><path class="cls-2" d="M61.4,277c1.93,0,4,.15,6.58.15,3.11,0,4.64-.1,5.81-.15.21.1.21,1,0,1.18a16.85,16.85,0,0,0-2.29.56c-.77.25-1,.86-.67,2,1.12,4.74,4.08,15,5.77,20.81a.3.3,0,0,0,.2-.05c2-5.46,6.63-18.67,7.81-23.06a18.25,18.25,0,0,0,2.34,0c1.13,4.23,6.49,19.18,8.12,23.42a.3.3,0,0,0,.2-.05c1.33-4.14,4.85-15.67,5.72-19.8.35-1.68.45-2.91-1-3.31a15.56,15.56,0,0,0-2.91-.56,1.32,1.32,0,0,1,0-1.18c1.12,0,3.67.15,5.71.15,3.11,0,4.49-.1,5.56-.15a1.51,1.51,0,0,1,0,1.18,12.32,12.32,0,0,0-2.34.56c-1.18.51-1.79,1.22-2.5,3.21-2.15,6-6.84,21.07-8.47,26.84a12.39,12.39,0,0,0-2.35.05c-1.17-4.39-6-18-8.06-23.68a.37.37,0,0,0-.2.11c-2,5.86-6.64,18.72-8.12,23.47a11.47,11.47,0,0,0-2.4.05c-1.48-6.23-5.76-21.69-7.39-26.59-.82-2.44-1.33-3.11-2.71-3.51a12.73,12.73,0,0,0-2.5-.51C61.14,278,61.14,277.11,61.4,277Z"/><path class="cls-2" d="M121.78,302.83c2.81-6.64,7.55-19.7,8.68-23a16.81,16.81,0,0,0,.76-2.76c.2,0,.77.05,1.58.05s1.38-.05,1.58-.05c.16.66.41,1.53.72,2.5,1.07,3,6.68,19.7,8.31,23.78,1.49,3.36,1.74,3.57,5.31,4a1.59,1.59,0,0,1-.1,1.17c-1.33,0-4-.15-6-.15-2.25,0-5.21.1-6.38.15a1.87,1.87,0,0,1,0-1.17,13.5,13.5,0,0,0,2.6-.56c.77-.31.77-.77.62-1.33-.62-2.14-2.3-6.83-3.17-9.28a1,1,0,0,0-.41-.31c-.66-.05-2.14-.05-4.64-.05-3.16,0-3.67,0-4.24.05-.15,0-.4.25-.45.41-1,2.7-2.81,7.45-2.91,8.72-.1.87-.05,1.53,1.53,1.94.61.15,1.33.26,2.35.41a1.89,1.89,0,0,1-.1,1.17c-1.08,0-3.63-.15-6.23-.15s-4.18.15-5.15.15a1.49,1.49,0,0,1,0-1.17C119.59,307,120.2,306.6,121.78,302.83Zm9.64-20.62c-.86,2.45-3.06,8.73-3.87,11.23,0,.2,0,.31.15.36.51.05,1.94.05,4.13.05,1.23,0,3,0,3.42-.05a.42.42,0,0,0,.16-.41c-1.08-3.32-3-9-3.78-11.23C131.58,282.16,131.42,282.11,131.42,282.21Z"/><path class="cls-2" d="M169.11,306.45a8.47,8.47,0,0,0,5,1.33,5.19,5.19,0,0,0,5.51-5.51c0-3.37-2.15-5.11-6.63-7.81s-7.4-5.15-7.4-9.64c0-5.36,4.39-8.57,9.85-8.57a55.61,55.61,0,0,1,7.49.81,64.08,64.08,0,0,0-.86,6.89,1.51,1.51,0,0,1-1.23.05c-.25-3.21-.76-4.59-2-5.36a7.31,7.31,0,0,0-4-1,5.17,5.17,0,0,0-5.41,5.31c-.05,2.81,1.33,4.39,3.42,5.87s4.34,2.5,6,3.57c2.6,1.68,4.95,3.83,4.95,7.6,0,5.05-4.08,9.34-11.07,9.34a17.55,17.55,0,0,1-7.14-1.53c-.46-.72-1.18-5.77-1.33-7.4a1.69,1.69,0,0,1,1.28-.36C166.35,303.29,167.42,305.28,169.11,306.45Z"/><path class="cls-2" d="M201.54,277c1.38,0,3.93.15,6.38.15,3.16,0,4.59-.1,6-.15a1.6,1.6,0,0,1-.05,1.18,19.4,19.4,0,0,0-2.3.4c-1,.31-1.38.72-1.43,2.35-.1,2,0,5.1,0,9.95a.47.47,0,0,0,.25.46c.25,0,1.07.1,8.72.1,5.1-.05,7.4-.05,7.91-.1.15,0,.26-.21.26-.31,0-2.65,0-8.77-.11-10.66-.05-.82-.3-1.43-1-1.68a12.15,12.15,0,0,0-2.75-.51,1.1,1.1,0,0,1,0-1.18c1.12,0,3.47.15,6.17.15,2.5,0,5.16-.15,6-.15a1.51,1.51,0,0,1,0,1.18,16.57,16.57,0,0,0-2.45.45c-1.07.36-1.42.82-1.48,2.76s-.15,5.2-.15,11.43c0,4.33,0,10,.15,11.68.11,1.48.41,2,1.38,2.35a11.81,11.81,0,0,0,3.06.56c.1.2,0,1-.2,1.17-1.68,0-3.88-.15-6.38-.15s-5.05.1-6.32.15a1.3,1.3,0,0,1,0-1.17,11.52,11.52,0,0,0,2.65-.46c1-.26,1.32-.77,1.37-2.5.06-1.53.06-7.35.06-10.56,0-.15-.11-.36-.26-.36-.87-.05-5.31-.05-8-.05-4.08,0-8.21,0-8.67.05a.5.5,0,0,0-.2.31c0,2.75,0,8.93,0,10,.16,1.73.21,2.6,1.48,3a18.38,18.38,0,0,0,2.91.56,1.33,1.33,0,0,1-.2,1.17c-1.18,0-3.42-.15-6.28-.15-2.7,0-5.46.1-6.58.15a1.58,1.58,0,0,1,0-1.17,25.13,25.13,0,0,0,2.6-.46c1.48-.41,1.64-1.43,1.74-3.78,0-1.68,0-6.32,0-10.71,0-5,0-10.61-.1-11.53-.1-1.53-.46-2-1.38-2.24a18.36,18.36,0,0,0-2.91-.51A1.39,1.39,0,0,1,201.54,277Z"/><path class="cls-2" d="M255.35,277c1.12,0,3.83.15,6.43.15s4.74-.15,5.92-.15a1.61,1.61,0,0,1,.05,1.18c-1,.09-1.84.25-2.4.35-1.13.36-1.33,1-1.43,2.66-.1,2-.1,6.68-.1,11.12,0,5.2,0,10.1.1,11.89.05,1.47.25,2.34,1.63,2.75.72.15,1.74.31,2.81.46.2.15.05,1-.1,1.17-1.28,0-3.63-.15-6.07-.15-3,0-4.8.15-6.84.15-.21-.15-.16-1,0-1.17a18.78,18.78,0,0,0,2.4-.36c1.37-.31,1.58-1,1.73-2.29.1-1.48.15-7.91.15-13.58,0-4.18,0-7.7-.1-10.1-.15-1.22-.2-2.09-1.33-2.39a16.26,16.26,0,0,0-2.9-.51C255.14,278,255.25,277.16,255.35,277Z"/><path class="cls-2" d="M287.88,277c1.18,0,3.68.15,5.87.15,1.07,0,1.94,0,2.35-.05a12.42,12.42,0,0,0,1.89,2.76c5.25,6.58,16.07,19.74,18.42,22.55l.15-.1c0-6.84.1-17.3-.2-20.82-.11-1.53-.41-2.35-1.89-2.75a20.53,20.53,0,0,0-3.27-.56,1.61,1.61,0,0,1,.05-1.18c1.33,0,3.57.15,6.38.15,1.69,0,4.49-.15,5.1-.15.21.15.16,1,0,1.18a15.25,15.25,0,0,0-2.09.45c-1.38.41-1.68,1.38-1.73,2.76-.31,4-.26,12.19-.41,20.41,0,2.34.05,5.25.1,6.88-.56-.05-2.65-.05-3.27,0-2.6-3.77-17.34-22.14-20-25.51-.06-.05-.21,0-.21.05-.05,5.21-.05,17.71.05,20.51.16,2.25.82,2.86,2,3.22a27.62,27.62,0,0,0,2.91.46c.2.15.1,1-.05,1.17-1.17,0-3.42-.15-6.12-.15s-4.6.15-5.67.15a1.58,1.58,0,0,1,0-1.17,9.21,9.21,0,0,0,2.45-.46c1.18-.31,1.89-.92,2-3.16.16-2.5.36-11.33.46-21.89a3,3,0,0,0-1.27-2.5c-1-.82-2.15-1-4-1.22A1.56,1.56,0,0,1,287.88,277Z"/><path class="cls-2" d="M367.71,307.47c-1.58.41-6.53,1.89-10.91,1.89-11.69,0-18-5.77-18-16.79,0-6.63,3.36-11.89,8.93-14.38a22.85,22.85,0,0,1,9.89-1.94c4,0,6.94.86,9.75,1.12a54.22,54.22,0,0,0-.82,7.8,1.47,1.47,0,0,1-1.38.16c-.4-3.78-1-5.16-2.5-6a13.2,13.2,0,0,0-6.93-1.48c-8,0-11.94,5.61-11.94,14.28,0,8.93,4.74,15.72,13.77,15.72a8.69,8.69,0,0,0,3.47-.56,2.46,2.46,0,0,0,1.28-2.25,50,50,0,0,0,.1-5.51c-.1-1.79-.46-2.4-2-2.7a22.39,22.39,0,0,0-3-.41c-.21-.15-.15-1.07.05-1.23,1.68,0,4.13.16,6.89.16s4.08-.06,5.2-.16a1.43,1.43,0,0,1-.05,1.23,9.09,9.09,0,0,0-1.63.36c-1,.3-1.17,1-1.28,2.65s-.1,4.64,0,5.71c.11.82.21,1,1.23,1.38A3,3,0,0,1,367.71,307.47Z"/><path class="cls-2" d="M408.15,308.59c-1.53,0-4.44-.15-7-.15-3.52,0-6.12.15-7.5.15a1.37,1.37,0,0,1,0-1.17c1.53-.15,2.76-.31,3.47-.46,1.53-.31,1.79-1.33,1.89-3.67.1-3.17.1-15.62.1-23.93a.38.38,0,0,0-.31-.36c-.91-.05-5.25-.05-6.78.05a2.34,2.34,0,0,0-2.09,1.33A28.12,28.12,0,0,0,388,285c-.16.1-1.17-.1-1.23-.3.36-2.15.82-6,.92-8.12,0-.05.36-.25.46-.15a9.84,9.84,0,0,0,4,.71H411a11.82,11.82,0,0,0,4.74-.66.52.52,0,0,1,.41.2,49,49,0,0,0-1.12,8.17c-.1.2-1.23.2-1.33,0a18.76,18.76,0,0,0-.76-4.34,2,2,0,0,0-2-1.43c-2.14-.15-6.18-.1-7.3-.05a.46.46,0,0,0-.25.41c0,7.4.05,21.74.2,24.39.1,2.29.61,2.75,1.73,3.11a19.38,19.38,0,0,0,3,.46C408.46,307.62,408.36,308.49,408.15,308.59Z"/><path class="cls-2" d="M435.94,304.66a17.73,17.73,0,0,1-4.39-12.14,16,16,0,0,1,3.07-9.69c2.8-4,8.31-6.58,13.57-6.58,10.25,0,15.51,7.6,15.51,15.91a17.31,17.31,0,0,1-3.06,10.51,16.21,16.21,0,0,1-13.32,6.69A15.23,15.23,0,0,1,435.94,304.66Zm18.83.92c3.16-2.65,4.29-6.94,4.29-11.68,0-5.36-1.79-10.82-5.82-13.73A11.22,11.22,0,0,0,446.5,278a9.32,9.32,0,0,0-4.74,1.23c-3.73,2.19-5.36,6.88-5.36,12.09s1.89,11.22,6.38,14.23a11.46,11.46,0,0,0,6.48,1.84A8.86,8.86,0,0,0,454.77,305.58Z"/><path class="cls-2" d="M480.46,277c1.18,0,3.68.15,5.87.15,1.07,0,1.94,0,2.35-.05a12.2,12.2,0,0,0,1.88,2.76c5.26,6.58,16.07,19.74,18.42,22.55l.16-.1c0-6.84.1-17.3-.21-20.82-.1-1.53-.41-2.35-1.88-2.75a20.53,20.53,0,0,0-3.27-.56,1.56,1.56,0,0,1,.05-1.18c1.33,0,3.57.15,6.38.15,1.68,0,4.49-.15,5.1-.15.2.15.15,1,0,1.18a14.62,14.62,0,0,0-2.09.45c-1.38.41-1.69,1.38-1.74,2.76-.3,4-.25,12.19-.41,20.41,0,2.34.06,5.25.11,6.88-.56-.05-2.66-.05-3.27,0-2.6-3.77-17.35-22.14-20.05-25.51-.05-.05-.2,0-.2.05-.05,5.21-.05,17.71,0,20.51.15,2.25.81,2.86,2,3.22a27,27,0,0,0,2.9.46c.21.15.11,1,0,1.17-1.17,0-3.41-.15-6.12-.15s-4.59.15-5.66.15a1.58,1.58,0,0,1,0-1.17,9.3,9.3,0,0,0,2.45-.46c1.17-.31,1.89-.92,2-3.16.15-2.5.36-11.33.46-21.89a3,3,0,0,0-1.28-2.5c-1-.82-2.14-1-4-1.22A1.61,1.61,0,0,1,480.46,277Z"/><path class="cls-2" d="M64.61,323c1,0,4.08.11,6.81.11s5-.17,6.36-.17a1.7,1.7,0,0,1,0,1.29,20.78,20.78,0,0,0-2.46.5c-1.17.33-1.5.95-1.62,2.95-.11,5,0,13.5.06,16.41s.56,5.07,1.39,6.47c1.4,3,4.69,5,9.26,5,4.8,0,9.21-1.67,9.66-10.26.22-4.24.39-11,.11-16.63-.06-3-.78-3.63-2.46-4-.78-.17-1.45-.28-2.62-.44a1.55,1.55,0,0,1,.06-1.23c1,0,3.18.11,6.3.11,2.46,0,4.63-.11,5.58-.11a1.55,1.55,0,0,1,0,1.23c-.84.16-1.62.33-2.23.5-1.51.39-1.84,1.34-2,4.24-.28,11.55-.17,15.28-1,19.07-1.4,7.87-7.25,10.27-13.34,10.27-8.53,0-12.49-3.85-13.27-10.1-.45-3.46-.34-17-.39-20.64-.06-1.45-.28-2.45-1.51-2.84a15.07,15.07,0,0,0-2.79-.5A1.36,1.36,0,0,1,64.61,323Z"/><path class="cls-2" d="M118.72,323c1.28,0,4,.17,6.41.17,1.17,0,2.12,0,2.57-.06a13.23,13.23,0,0,0,2.06,3c5.75,7.19,17.58,21.59,20.14,24.65l.17-.11c0-7.47.11-18.91-.22-22.76-.11-1.67-.45-2.57-2.07-3a22.39,22.39,0,0,0-3.57-.61,1.75,1.75,0,0,1,.06-1.29c1.45,0,3.9.17,7,.17,1.84,0,4.91-.17,5.58-.17.22.17.17,1.12,0,1.29a14.22,14.22,0,0,0-2.29.5c-1.5.44-1.84,1.5-1.9,3-.33,4.35-.27,13.33-.44,22.31,0,2.57.06,5.75.11,7.54a35.42,35.42,0,0,0-3.57,0c-2.84-4.13-19-24.22-21.92-27.9-.06-.05-.23,0-.23.06,0,5.69,0,19.36.06,22.42.17,2.46.89,3.13,2.23,3.52a31.19,31.19,0,0,0,3.18.5c.22.17.11,1.12-.06,1.28-1.28,0-3.73-.16-6.69-.16s-5,.16-6.19.16a1.67,1.67,0,0,1,0-1.28,10.33,10.33,0,0,0,2.68-.5c1.28-.34,2.06-1,2.17-3.46.17-2.73.39-12.38.5-23.93a3.32,3.32,0,0,0-1.39-2.74c-1.12-.89-2.34-1.11-4.41-1.33A1.7,1.7,0,0,1,118.72,323Z"/><path class="cls-2" d="M175.78,323c1.23,0,4.19.17,7,.17s5.19-.17,6.47-.17a1.7,1.7,0,0,1,.06,1.29c-1.06.1-2,.27-2.62.39-1.23.38-1.45,1.11-1.56,2.9-.12,2.23-.12,7.3-.12,12.16,0,5.69,0,11,.12,13,.05,1.61.27,2.56,1.78,3,.78.16,1.9.33,3.07.5.22.17.06,1.12-.11,1.28-1.4,0-4-.16-6.64-.16-3.24,0-5.24.16-7.48.16-.22-.16-.16-1.11,0-1.28a21.41,21.41,0,0,0,2.63-.39c1.5-.33,1.73-1.12,1.89-2.51.11-1.62.17-8.65.17-14.84,0-4.57,0-8.42-.11-11-.17-1.33-.22-2.28-1.45-2.62a18.62,18.62,0,0,0-3.18-.55C175.56,324.07,175.67,323.12,175.78,323Z"/><path class="cls-2" d="M206.68,323c1.29,0,4.24.17,6.64.17,3.35,0,5.8-.11,6.81-.17.16.17.22,1.12,0,1.29-1.29.22-2.07.44-2.74.61-.83.22-1,.84-.72,1.61,1.67,4.8,8.31,22.32,9.31,24.61.06-.06.17,0,.23-.06,1.12-2.51,7.42-18.35,9-23,.61-2,.45-2.84-1.17-3.23-.9-.17-1.68-.34-3-.5a2,2,0,0,1,.17-1.29c1.06,0,3.18.17,6.19.17,2.79,0,4.46-.17,5.63-.17a2,2,0,0,1,0,1.29,11.53,11.53,0,0,0-2.39.5c-1.62.5-2.18,1.56-3.57,4.91-1.68,3.9-5.75,13.94-8.54,20.8-1.17,3.07-2.06,5.58-2.57,7.31a9.12,9.12,0,0,0-2.95,0c-.62-2.17-1.4-4.68-2.51-7.59-2.79-7.47-6.42-17.12-8.09-21.31-1.23-2.9-1.84-3.79-3.4-4.18-.73-.17-1.51-.28-2.51-.44C206.35,324,206.46,323.06,206.68,323Z"/><path class="cls-2" d="M258.73,323c1.34,0,3.85.17,6.92.17h10.82c2.12,0,5-.06,6.08-.17.06,0,.17.17.17.22a47.48,47.48,0,0,0-1,7.48,2.08,2.08,0,0,1-1.4.11,19.38,19.38,0,0,0-.61-3.51c-.44-1.29-.95-2-2.84-2.12-1.23-.06-7.65-.12-8.43,0-.39.05-.61.67-.61.95-.06,2.78-.11,10.37-.11,12.27,0,.22.11.44.27.44,1.85.06,6.76.06,8.54-.11a2.19,2.19,0,0,0,2.18-1.78,17.44,17.44,0,0,0,.56-2.12,2.06,2.06,0,0,1,1.44.11,39.14,39.14,0,0,0-.39,5.13c0,2.12.12,3.68.12,4.91-.23.22-1.29.28-1.45,0a21.62,21.62,0,0,0-.45-2.12,2.08,2.08,0,0,0-2.07-1.73c-1.56-.17-6.63-.17-8.48-.11-.11,0-.27.34-.27.45,0,2.12,0,8.7.11,11.66a2,2,0,0,0,1.28,2.06,62.36,62.36,0,0,0,7.59.34c2.9-.06,3.57-.62,4.46-1.68a18.54,18.54,0,0,0,3-5,2.28,2.28,0,0,1,1.22.5,35.87,35.87,0,0,1-2.34,7.42c-.33.62-.56.84-3.35.84-4,0-7.36-.22-14.11-.22-3.63,0-6,.16-8.26.16a1.51,1.51,0,0,1,0-1.28,27.37,27.37,0,0,0,3.91-.56c1.28-.28,1.73-.95,1.84-3.07.11-1.17.11-7.42.11-13.72,0-5.19,0-10.27-.11-11.27-.11-2.06-.33-2.57-1.67-2.9a18.15,18.15,0,0,0-2.79-.5A1.38,1.38,0,0,1,258.73,323Z"/><path class="cls-2" d="M305.25,323c1.28,0,4.46.17,6.13.17,3.8,0,6.59-.06,9-.06,6.47,0,9.77,3.74,9.77,8.48s-3.13,7.42-6.42,8.87a.27.27,0,0,0,0,.34c1.89,3.12,6.47,9.76,9.2,12.49,2.4,2.4,3.18,2.68,6.14,3,.11.11,0,1.17-.23,1.28-2.34.11-6.69-.06-8.64-1a7.28,7.28,0,0,1-2.63-2.17c-2.12-2.4-5.69-8.37-7.81-11.38a1.65,1.65,0,0,0-1.34-.89c-.78-.11-3,0-3.73,0-.11,0-.23.22-.23.33,0,3.07,0,8.37.12,10.43s.5,2.57,1.67,2.85c.84.16,1.79.33,3,.5a1.49,1.49,0,0,1-.11,1.28c-1,0-3.79-.16-7-.16-3.74,0-5.91.16-6.86.16a1.32,1.32,0,0,1,0-1.28c1.17-.17,2.06-.28,2.73-.45,1.34-.27,1.73-1,1.79-3.06.05-1.45.17-9.26.17-12.33,0-4.8,0-11.22-.12-13.17-.05-1.5-.44-2.23-1.78-2.56a25.6,25.6,0,0,0-2.85-.39C305,324,305,323.06,305.25,323Zm9.59,2a1.41,1.41,0,0,0-.33.78c-.12,1.72-.12,9.26-.12,14.05a.4.4,0,0,0,.23.34c2.95.16,5.8.11,7-.39,1.79-.73,3.74-2.62,3.74-6.7,0-5.18-2.74-8.31-8.59-8.31A7.53,7.53,0,0,0,314.84,324.91Z"/><path class="cls-2" d="M359.86,355.14a9.21,9.21,0,0,0,5.46,1.45c3.07,0,6-1.84,6-6,0-3.69-2.34-5.58-7.25-8.54-4.75-2.84-8.09-5.63-8.09-10.54,0-5.86,4.79-9.37,10.76-9.37,3.69,0,5.92.67,8.2.89a68.37,68.37,0,0,0-.94,7.53,1.65,1.65,0,0,1-1.34.06c-.28-3.52-.84-5-2.23-5.86a8,8,0,0,0-4.41-1.06,5.65,5.65,0,0,0-5.92,5.8c-.05,3.07,1.45,4.8,3.74,6.41s4.74,2.74,6.59,3.91c2.84,1.84,5.41,4.18,5.41,8.31,0,5.52-4.47,10.21-12.11,10.21a19.19,19.19,0,0,1-7.81-1.67c-.5-.79-1.28-6.31-1.45-8.09a1.82,1.82,0,0,1,1.39-.39C356.84,351.68,358,353.86,359.86,355.14Z"/><path class="cls-2" d="M397.06,323c1.23,0,4.18.17,7,.17s5.19-.17,6.47-.17a1.7,1.7,0,0,1,.06,1.29c-1.06.1-2,.27-2.63.39-1.22.38-1.45,1.11-1.56,2.9-.11,2.23-.11,7.3-.11,12.16,0,5.69,0,11,.11,13,.06,1.61.28,2.56,1.79,3,.78.16,1.89.33,3.07.5.22.17,0,1.12-.12,1.28-1.39,0-3.95-.16-6.64-.16-3.23,0-5.24.16-7.47.16-.22-.16-.17-1.11,0-1.28a21.51,21.51,0,0,0,2.62-.39c1.51-.33,1.73-1.12,1.9-2.51.11-1.62.17-8.65.17-14.84,0-4.57,0-8.42-.12-11-.16-1.33-.22-2.28-1.45-2.62a18.29,18.29,0,0,0-3.17-.55C396.84,324.07,397,323.12,397.06,323Z"/><path class="cls-2" d="M454.69,357.48c-1.68,0-4.86-.16-7.71-.16-3.84,0-6.69.16-8.2.16a1.51,1.51,0,0,1,0-1.28c1.68-.17,3-.34,3.8-.5,1.67-.34,1.95-1.45,2.06-4,.11-3.46.11-17.07.11-26.16,0-.17-.16-.39-.33-.39-1-.06-5.75-.06-7.42.05a2.58,2.58,0,0,0-2.29,1.45,31.31,31.31,0,0,0-2.12,5.08c-.16.11-1.28-.11-1.34-.33.39-2.35.9-6.59,1-8.87,0-.06.39-.28.5-.17a10.79,10.79,0,0,0,4.41.78h20.58a12.82,12.82,0,0,0,5.19-.73.6.6,0,0,1,.45.23,53.12,53.12,0,0,0-1.23,8.92c-.11.23-1.34.23-1.45,0a20.73,20.73,0,0,0-.84-4.74,2.18,2.18,0,0,0-2.17-1.56c-2.35-.17-6.75-.11-8-.06a.5.5,0,0,0-.28.45c0,8.09.06,23.76.22,26.66.11,2.52.67,3,1.9,3.41a21.53,21.53,0,0,0,3.29.5C455,356.42,454.91,357.37,454.69,357.48Z"/><path class="cls-2" d="M482.29,323c1.51,0,4.19.17,6.87.17,2,0,5.18-.11,5.91-.17.22.17.28,1.12.05,1.29a13.16,13.16,0,0,0-1.95.39c-.78.22-.89.72-.39,1.67,1.45,3.12,6,11.83,7.14,13.78,0,0,.22,0,.28-.06,1.9-3.18,5.8-10.21,7-13,.51-1.23.4-2-1.17-2.29-.78-.17-1.34-.28-2.51-.44a1.33,1.33,0,0,1,.11-1.29c1.57.06,4,.17,5.92.17,2.45,0,3.79-.06,5.74-.17.23.11.23,1.12.06,1.29l-2.34.44c-1.73.39-2.51,1.45-3.8,3.46-2.34,3.79-6.58,11.38-7.75,13.72a6,6,0,0,0-.45,1.9l.11,8.31c.06,2.34.34,3.41,2,3.74.83.17,1.56.28,3,.45a1.84,1.84,0,0,1-.11,1.22c-1.34,0-4.47-.16-7.42-.16-3.63,0-5.92.16-7.53.16-.23-.11-.17-1.06,0-1.22a22,22,0,0,0,3.45-.51c1.57-.33,1.79-1.45,1.85-3.18l.11-7.58a8.42,8.42,0,0,0-.45-2.68c-1.17-2.73-4.52-9-6.7-12.89s-2.78-4.35-4.57-4.79a11.22,11.22,0,0,0-2.51-.39A1.54,1.54,0,0,1,482.29,323Z"/><path class="cls-2" d="M128.15,490.09v-29l-1.84,6-8.31,23h-5.23l-8.19-23-1.84-6v29H97.11V453h8.53l8.13,23.85,1.78,6,1.73-6,8-23.85h8.53v37.11Z"/><path class="cls-2" d="M168.53,490.09l-3-9.47H152.93L150,490.09h-6.19L156.22,453h6.13l12.54,37.11Zm-9.41-29.31-4.63,14.88h9.42Z"/><path class="cls-2" d="M205.86,490.09l-10.7-16.44L191,478.22v11.87h-6.13V453H191v17.83L205.86,453h7.08l-13.82,16.27c1.28,1.17,13.87,20.84,13.87,20.84Z"/><path class="cls-2" d="M223.46,490.09V453h23.46v5.46H229.59v9.69H242.4v5.13H229.59v11.37h17.33v5.46Z"/><path class="cls-2" d="M309.81,490.09h-5.9l-7.24-26.86-7.53,26.86h-5.9L273.49,453H280l6.41,28.08L294.05,453h5.51l7.52,28.08L313.55,453h6.24Z"/><path class="cls-2" d="M349.2,490.09l-3-9.47H333.6l-2.9,9.47h-6.18L336.89,453H343l12.54,37.11Zm-9.42-29.31-4.62,14.88h9.41Z"/><path class="cls-2" d="M378,490.09h-5.57L359.5,453h6.58l9.36,29,9.25-29h6.46Z"/><path class="cls-2" d="M401.17,490.09V453h23.46v5.46H407.3v9.69h12.82v5.13H407.3v11.37h17.33v5.46Z"/><path class="cls-2" d="M448.53,491.15c-8.8,0-14-4.52-14-10.87v-2h6.08v.83c0,4.79,3.67,6.74,8.3,6.74,4.4,0,6.52-2.45,6.52-5.62,0-8.25-20.39-4.8-20.39-17.28,0-6,4.84-11,13.09-11,8.41,0,13.65,4.9,13.65,10.87v1.61h-6.07v-.83c0-3.57-2.73-6.36-7.64-6.36-4.29,0-6.85,2.23-6.85,5.24,0,7.86,20.45,4.68,20.45,17.11C461.68,486.08,456.94,491.15,448.53,491.15Z"/><path class="cls-2" d="M473.37,490.09v-6.52h5.52v6.52Z"/><line class="cls-4" x1="60.53" y1="405.12" x2="516.75" y2="405.12"/></g></g></svg>